<svg xmlns="http://www.w3.org/2000/svg" width="1268.867" height="405.605" viewBox="0 0 1268.867 405.605">
  <g id="Group_469" data-name="Group 469" transform="translate(-49.205 -116.758)">
    <path id="Path_969" data-name="Path 969" d="M64.855,26.179a84.768,84.768,0,0,1-41.7-23.2A10.051,10.051,0,0,0,6.77,6.124,84.748,84.748,0,0,0,2.839,61.047,10.124,10.124,0,0,0,13.075,68.56,84.361,84.361,0,0,0,49.453,58.4,84.709,84.709,0,0,0,69.875,42.958a10.086,10.086,0,0,0-5.02-16.778" transform="translate(211.266 452.791)" fill="none" stroke="#080808" stroke-width="2"/>
    <path id="Path_970" data-name="Path 970" d="M64.855,26.179a84.768,84.768,0,0,1-41.7-23.2A10.051,10.051,0,0,0,6.77,6.124,84.748,84.748,0,0,0,2.839,61.047,10.124,10.124,0,0,0,13.075,68.56,84.361,84.361,0,0,0,49.453,58.4,84.709,84.709,0,0,0,69.875,42.958a10.086,10.086,0,0,0-5.02-16.778" transform="translate(574.828 117.791)" fill="none" stroke="#080808" stroke-width="2"/>
    <path id="Path_971" data-name="Path 971" d="M64.855,26.179a84.768,84.768,0,0,1-41.7-23.2A10.051,10.051,0,0,0,6.77,6.124,84.748,84.748,0,0,0,2.839,61.047,10.124,10.124,0,0,0,13.075,68.56,84.361,84.361,0,0,0,49.453,58.4,84.709,84.709,0,0,0,69.875,42.958a10.086,10.086,0,0,0-5.02-16.778" transform="translate(1244.328 236.791)" fill="none" stroke="#080808" stroke-width="2"/>
    <path id="Path_973" data-name="Path 973" d="M64.855,26.179a84.768,84.768,0,0,1-41.7-23.2A10.051,10.051,0,0,0,6.77,6.124,84.748,84.748,0,0,0,2.839,61.047,10.124,10.124,0,0,0,13.075,68.56,84.361,84.361,0,0,0,49.453,58.4,84.709,84.709,0,0,0,69.875,42.958a10.086,10.086,0,0,0-5.02-16.778" transform="translate(50.328 139.791)" fill="none" stroke="#080808" stroke-width="2"/>
    <path id="Path_972" data-name="Path 972" d="M44.942,18.142A58.742,58.742,0,0,1,16.049,2.067,6.965,6.965,0,0,0,4.692,4.243,58.728,58.728,0,0,0,1.967,42.3,7.015,7.015,0,0,0,9.061,47.51a58.46,58.46,0,0,0,25.209-7.04,58.7,58.7,0,0,0,14.152-10.7,6.99,6.99,0,0,0-3.479-11.627" transform="translate(1159.328 432.791)" fill="none" stroke="#080808" stroke-width="2"/>
  </g>
</svg>
