<svg xmlns="http://www.w3.org/2000/svg" width="68.552" height="68.552" viewBox="0 0 68.552 68.552">
  <g id="Group_490" data-name="Group 490" transform="translate(-243.217 -667)">
    <circle id="Ellipse_51" data-name="Ellipse 51" cx="22.5" cy="22.5" r="22.5" transform="translate(243.217 676)" fill="#ffd000"/>
    <g id="data-driven" transform="translate(243.089 1178.872)">
      <path id="Path_1045" data-name="Path 1045" d="M2.053-511.635a4.1,4.1,0,0,0-1.808,1.983,40.58,40.58,0,0,0-.107,5.331l.04,4.822.321.455c.536.737,1.179.951,3,.951,2.117,0,2.813-.281,3.309-1.366l.214-.5,1.983,1.983L10.975-496l-.455.6a30.237,30.237,0,0,0-4.9,10.167,23.331,23.331,0,0,0-.884,7.636,23.072,23.072,0,0,0,.884,7.609,30,30,0,0,0,4.9,10.194l.455.6-1.969,1.969-1.983,1.983-.214-.5c-.5-1.085-1.192-1.366-3.309-1.366-1.822,0-2.465.214-3,.951l-.321.455-.04,4.822a40.855,40.855,0,0,0,.107,5.345A4.129,4.129,0,0,0,2.16-443.5c.482.188,1.246.2,5.452.174l4.889-.04.455-.321c.737-.536.951-1.179.951-3,0-2.117-.281-2.813-1.366-3.309l-.5-.214,1.983-1.983L16-454.168l.6.455a30.6,30.6,0,0,0,13.047,5.532,40.928,40.928,0,0,0,7.85.2,30.236,30.236,0,0,0,14.186-5.358l1.139-.817,1.969,1.969,1.969,1.969-.5.214c-1.085.5-1.366,1.192-1.366,3.309,0,1.822.214,2.465.951,3l.455.321,4.822.04a44.61,44.61,0,0,0,5.318-.107,4.184,4.184,0,0,0,2.05-1.916c.188-.482.2-1.219.174-5.452l-.04-4.889-.321-.455c-.536-.737-1.179-.951-3-.951-2.117,0-2.813.281-3.309,1.366l-.214.5L59.8-457.222l-1.969-1.969.455-.6A30.038,30.038,0,0,0,63.191-470a23.039,23.039,0,0,0,.884-7.6,23.331,23.331,0,0,0-.884-7.636,30.237,30.237,0,0,0-4.9-10.167l-.455-.6,1.969-1.969,1.983-1.983.214.5c.5,1.085,1.192,1.366,3.309,1.366,1.822,0,2.465-.214,3-.951l.321-.455.04-4.889c.027-4.206.013-4.97-.174-5.452a4.129,4.129,0,0,0-2.023-1.916,40.845,40.845,0,0,0-5.345-.107l-4.822.04-.455.321c-.737.536-.951,1.179-.951,3,0,2.116.281,2.813,1.366,3.309l.5.214-1.983,1.982-1.969,1.969-.6-.455a30.525,30.525,0,0,0-9.94-4.849,24.127,24.127,0,0,0-7.863-.938,23.331,23.331,0,0,0-7.635.884,30.239,30.239,0,0,0-10.167,4.9l-.6.455-1.969-1.969-1.983-1.982.5-.214c1.085-.5,1.366-1.192,1.366-3.309,0-1.822-.214-2.465-.951-3l-.455-.321-4.956-.027C2.964-511.889,2.549-511.876,2.053-511.635Zm9.444,3.228v1.072H10.023c-1.393,0-1.5.013-1.808.335a1.027,1.027,0,0,0-.335.831c0,.5.147.656,3.724,4.22,2.036,2.036,3.845,3.737,3.992,3.778.415.121.911-.107,1.755-.79a28.342,28.342,0,0,1,12.284-5.573A34.928,34.928,0,0,1,37.3-504.8a27.465,27.465,0,0,1,13.824,5.6c1.232.951,1.661,1.165,2.09,1.031.147-.04,1.956-1.741,4.005-3.778,3.563-3.563,3.711-3.724,3.711-4.22a1.027,1.027,0,0,0-.335-.831c-.308-.322-.415-.335-1.808-.335H57.31v-2.143h4.179c4.1,0,4.179,0,4.488.295l.308.281v8.4H64.142v-1.474c0-1.393-.013-1.5-.335-1.808a1.027,1.027,0,0,0-.831-.335c-.5,0-.656.147-4.22,3.711-2.036,2.049-3.737,3.858-3.778,4.005-.134.442.067.79,1.286,2.425a27.743,27.743,0,0,1,5.331,13.3,36.406,36.406,0,0,1,0,6.162,27.81,27.81,0,0,1-5.318,13.288c-1.232,1.648-1.433,2-1.3,2.438.04.147,1.741,1.956,3.778,3.992,3.563,3.577,3.724,3.724,4.22,3.724a1.027,1.027,0,0,0,.831-.335c.321-.308.335-.415.335-1.808v-1.474h2.143v4.179c0,4.1,0,4.179-.295,4.488l-.281.308h-8.4v-2.143h1.474c1.393,0,1.5-.013,1.808-.335a1.027,1.027,0,0,0,.335-.831c0-.5-.147-.656-3.711-4.22-2.05-2.036-3.858-3.737-4.005-3.778-.429-.134-.857.08-2.09,1.031A27.992,27.992,0,0,1,37.485-450.4a36.4,36.4,0,0,1-6.162,0,27.756,27.756,0,0,1-13.288-5.318c-1.648-1.232-2-1.433-2.438-1.3-.147.04-1.956,1.741-3.992,3.778-3.577,3.563-3.724,3.724-3.724,4.22a1.027,1.027,0,0,0,.335.831c.308.322.415.335,1.808.335H11.5v2.143H7.318c-4.1,0-4.179,0-4.488-.295l-.308-.281v-8.4H4.665v1.474c0,1.393.013,1.5.335,1.808a1.027,1.027,0,0,0,.831.335c.5,0,.656-.147,4.22-3.724,2.036-2.036,3.737-3.845,3.778-3.992.134-.429-.08-.857-1.031-2.09A27.865,27.865,0,0,1,7.21-474.516c-.067-.616-.134-2.009-.134-3.081A25.507,25.507,0,0,1,8.5-486.29a28.729,28.729,0,0,1,4.541-8.359c.683-.844.911-1.339.79-1.755-.04-.147-1.741-1.956-3.778-4.005-3.563-3.563-3.724-3.711-4.22-3.711a1.027,1.027,0,0,0-.831.335c-.321.308-.335.415-.335,1.808v1.474H2.522v-4.179c0-4.1,0-4.179.295-4.488l.281-.308h8.4Z" transform="translate(0)"/>
      <path id="Path_1046" data-name="Path 1046" d="M91.139-443.8a26.162,26.162,0,0,0-8.908,2.6A25.144,25.144,0,0,0,69.2-424.921a19.754,19.754,0,0,0-.7,6.229,19.754,19.754,0,0,0,.7,6.229,25.214,25.214,0,0,0,18.191,18.2,24.125,24.125,0,0,0,7.1.71,23.47,23.47,0,0,0,10.194-2.5,25.147,25.147,0,0,0,13.5-28.251,25.161,25.161,0,0,0-21.312-19.37A37.866,37.866,0,0,0,91.139-443.8Zm6.818,2.733a23.017,23.017,0,0,1,16.021,12.19A22.764,22.764,0,0,1,103.6-398.25a22.464,22.464,0,0,1-19.745.107,22.808,22.808,0,0,1-13.007-20.549,21.631,21.631,0,0,1,2.425-10.114,20.547,20.547,0,0,1,4.273-5.961,22.735,22.735,0,0,1,12.913-6.5A28.669,28.669,0,0,1,97.957-441.062Z" transform="translate(-59.213 -58.905)"/>
      <path id="Path_1047" data-name="Path 1047" d="M164.242-392.734c-5.653.482-9.645,2.05-10.824,4.26l-.295.536-.04,12.645c-.04,14.467-.121,13.449,1.125,14.695,1.286,1.273,3.751,2.277,7.22,2.907a25.517,25.517,0,0,0,5.425.295,25.716,25.716,0,0,0,5.519-.308c3.362-.6,5.854-1.621,7.153-2.92,1.206-1.219,1.139-.228,1.1-14.668l-.04-12.645-.295-.536c-1.152-2.157-4.983-3.711-10.422-4.22A46.537,46.537,0,0,0,164.242-392.734Zm7.5,2.719c3.349.576,5.787,1.607,6.376,2.706.2.362-.188.951-.924,1.433-3.925,2.518-13.7,2.893-19.182.75-1.42-.549-2.545-1.406-2.545-1.929a1.778,1.778,0,0,1,.429-.616c1-1.152,4.139-2.184,7.877-2.6A38.747,38.747,0,0,1,171.744-390.015Zm-14.333,7.274a24.443,24.443,0,0,0,4.434,1.125,47.4,47.4,0,0,0,10.033-.013,21.372,21.372,0,0,0,5.144-1.407l1.219-.522v4.648l-.415.482c-.844.951-3.362,1.9-6.483,2.425a39.8,39.8,0,0,1-8.841.013c-3.121-.482-5.76-1.46-6.617-2.438l-.415-.482v-4.675l.509.241A14.11,14.11,0,0,0,157.41-382.741Zm-.536,7.783c2.572,1.125,5.519,1.594,9.98,1.594s7.408-.469,9.98-1.594c.589-.255,1.152-.509,1.246-.549.121-.054.161.455.161,2.317v2.371l-.589.563c-1.567,1.514-5.881,2.518-10.8,2.518s-9.23-1-10.8-2.518l-.589-.563v-2.371c0-1.862.04-2.371.174-2.317C155.722-375.467,156.285-375.213,156.875-374.958Zm.214,8.1a25.739,25.739,0,0,0,5.345,1.313,44.325,44.325,0,0,0,8.841,0,21.446,21.446,0,0,0,6.671-1.916l.295-.188v2.4c0,2.384,0,2.411-.348,2.813-.71.857-3.429,1.9-6.216,2.4a46.144,46.144,0,0,1-9.712-.027c-2.867-.522-5.439-1.514-6.149-2.371-.348-.4-.348-.429-.348-2.813v-2.4l.308.188A9.466,9.466,0,0,0,157.089-366.854Z" transform="translate(-132.451 -103.121)"/>
    </g>
  </g>
</svg>
