<svg xmlns="http://www.w3.org/2000/svg" width="68.588" height="68.552" viewBox="0 0 68.588 68.552">
  <g id="Group_492" data-name="Group 492" transform="translate(-252.912 -666)">
    <circle id="Ellipse_52" data-name="Ellipse 52" cx="22.5" cy="22.5" r="22.5" transform="translate(252.912 673)" fill="#ffd000"/>
    <g id="automation" transform="translate(244.695 1170)">
      <path id="Path_1048" data-name="Path 1048" d="M40.035-503.64a7.71,7.71,0,0,0-4.123,3.2,9.5,9.5,0,0,0-1.162,3.127v.332l-.858-.18a15.566,15.566,0,0,0-5.368.083,12.424,12.424,0,0,0-9.007,9.062,10.366,10.366,0,0,0-.235,3.251,8.441,8.441,0,0,0,.512,3.307l.443,1.314-1.356,1.356c-1.134,1.134-1.425,1.356-1.785,1.356A10.729,10.729,0,0,0,13.4-476.3a9.978,9.978,0,0,0-4.137,4.22,8.6,8.6,0,0,0-1.024,5.064c.055.927.083,1.909.069,2.172s-.042,6.115-.042,13l-.014,12.521.4.83a6.244,6.244,0,0,0,2.642,2.642l.83.4H59.583l.83-.4a6.244,6.244,0,0,0,2.642-2.642l.4-.83L63.5-445.1l.042-5.769h.3a17.492,17.492,0,0,0,4.04-1.01,13.09,13.09,0,0,0,4.773-3.279,13.634,13.634,0,0,0,3.929-7.222,19.111,19.111,0,0,0,0-5.755,13.662,13.662,0,0,0-4-7.291,13.575,13.575,0,0,0-7.388-4.012,17.608,17.608,0,0,0-6.71.263,14.235,14.235,0,0,0-6.295,3.722,14.583,14.583,0,0,0-3.639,6.17l-.152.706H38.734c-5.326,0-9.643-.042-9.615-.111s2.656-4.566,5.838-10.03l5.783-9.92.5.083a2.309,2.309,0,0,1,.913.429,11.894,11.894,0,0,0,8.564,2.919,8.082,8.082,0,0,0,2.822-.415,9.248,9.248,0,0,0,2.892-1.688l.457-.387v1.411h4.427v4.427h2.214v-4.427h4.441l-.041-6.89-.042-6.876-.4-.83a6.244,6.244,0,0,0-2.642-2.642,4.09,4.09,0,0,0-2.421-.4,4.387,4.387,0,0,0-2.393.374,6.558,6.558,0,0,0-2.518,2.393c-.152.3-.277.567-.291.581s-2.158-.332-4.787-.775c-4.192-.706-4.842-.858-5.243-1.162A7.581,7.581,0,0,0,42.442-504,5.928,5.928,0,0,0,40.035-503.64Zm4.718,2.449a6.314,6.314,0,0,1,2.7,2.684,4.113,4.113,0,0,1,.374,2.255A4.113,4.113,0,0,1,47.45-494a6.5,6.5,0,0,1-2.7,2.7,4.113,4.113,0,0,1-2.255.374,4.113,4.113,0,0,1-2.255-.374,6.5,6.5,0,0,1-2.7-2.7,4.113,4.113,0,0,1-.374-2.255,4.017,4.017,0,0,1,.36-2.214,5.615,5.615,0,0,1,3.21-2.933A6.245,6.245,0,0,1,44.752-501.191Zm18.982-.194a3.689,3.689,0,0,1,1.688,1.743c.221.5.249,1.107.291,5.838l.042,5.3H59.1l.028-2.449.042-2.463,2.144-.346,2.144-.346v-5.382l-1.854-.318c-1.01-.166-1.868-.332-1.9-.36-.111-.111.885-.982,1.4-1.217A3.593,3.593,0,0,1,63.734-501.385ZM55.751-498.4c2.905.5,5.354.9,5.423.9s.138.3.138.692-.055.692-.138.692-2.49.4-5.382.9-5.34.9-5.437.9c-.138,0-.166-.346-.138-1.577a7.332,7.332,0,0,0-.47-3.334c-.069-.166,0-.194.3-.138C50.272-499.324,52.832-498.881,55.751-498.4ZM34.03-494.7l.581.18-6.281,6.281-6.281,6.281-.235-1.065a10.929,10.929,0,0,1,.263-5.271A9.879,9.879,0,0,1,32.4-494.98,11.29,11.29,0,0,1,34.03-494.7Zm22.855,2.642v.872l-.927,1.024a7.033,7.033,0,0,1-5.714,2.642,9.573,9.573,0,0,1-4.233-.955l-.8-.415.885-.443a9.031,9.031,0,0,0,1.84-1.37l.941-.913,3.625-.65c1.992-.346,3.791-.65,4.012-.65C56.886-492.932,56.886-492.918,56.886-492.06Zm-19.7,1.494a12.551,12.551,0,0,0,.982.844c.3.194.277.263-5.105,9.491l-5.423,9.3-.5-.941a10.147,10.147,0,0,0-5.575-5.036l-.816-.291,7.512-7.512,7.5-7.5.387.5A10.349,10.349,0,0,0,37.185-490.566Zm26.286,13.71a6.347,6.347,0,0,1,.968,1.162A11.661,11.661,0,0,1,65.6-473.12a24.419,24.419,0,0,1-3.2.111h-3.2l.1-.374a9.68,9.68,0,0,1,1.8-3.2c.636-.636.775-.719,1.287-.719A1.409,1.409,0,0,1,63.471-476.856Zm-5.506.484c-.3.692-1.217,3.1-1.217,3.21s-.623.152-1.826.152H53.095l.609-.636a12.664,12.664,0,0,1,3.085-2.283C57.785-476.455,58.062-476.565,57.965-476.372Zm9.754.263A14.131,14.131,0,0,1,70.9-473.84l.858.816-1.812.014h-1.8l-.249-.8c-.138-.429-.429-1.19-.65-1.674s-.4-.9-.4-.927C66.847-476.524,67.013-476.455,67.718-476.109ZM20.707-474.7a7.942,7.942,0,0,1,4.967,5.742l.1.387-1.065-.042-1.065-.042-.166-.581a5.733,5.733,0,0,0-2.975-3.334,4,4,0,0,0-2.352-.374,4,4,0,0,0-2.352.374,5.529,5.529,0,0,0-2.905,3.2,1.769,1.769,0,0,1-.443.8c-1.024.484-1.785.816-1.84.816-.138,0-.069-.913.125-1.591a7.838,7.838,0,0,1,5.479-5.548A10.326,10.326,0,0,1,20.707-474.7Zm35.445,4.206a11,11,0,0,0-.166,1.107l-.1.8H50.812l.249-.733c.138-.387.332-.885.429-1.107l.18-.374h4.552Zm10.266.761c.1.595.208,1.591.249,2.214l.083,1.148H62.572l-.636-.636a6.163,6.163,0,0,0-3-1.522c-.374-.055-.664-.152-.664-.221s.069-.553.152-1.093l.166-.955h7.678Zm7.18-.069a14,14,0,0,1,.858,3.21c0,.194-.346.221-2.7.221h-2.7v-.733a26.008,26.008,0,0,0-.346-3.39l-.069-.3h4.538Zm-54.233-.636A3.815,3.815,0,0,1,21-468.97l.208.387H15.09l.208-.387a4.011,4.011,0,0,1,1.6-1.467A3.757,3.757,0,0,1,19.365-470.436Zm-2.324,18.47v14.416l-1.965-.069c-2.283-.069-2.905-.263-3.722-1.176-.927-1.024-.885-.443-.885-13.185,0-12.714-.042-12.161.872-13.171s1.494-1.176,4.081-1.2l1.619-.014Zm35.417-.014v14.388h-33.2v-28.777h33.2Zm6.848-13.987a3.817,3.817,0,0,1,1.743,1.9c.152.443.194,2.656.194,12.092,0,12.742.042,12.161-.885,13.185-.816.913-1.439,1.107-3.708,1.176l-1.978.069v-28.86l2.034.1A8.336,8.336,0,0,1,59.307-465.968Zm7.36,2.947c-.042.636-.152,1.633-.249,2.214l-.152,1.079H63.526v-4.427H66.75Zm7.789-.913a13.742,13.742,0,0,1-.858,3.2l-.415,1.01H68.645l.069-.318a25.548,25.548,0,0,0,.346-3.376v-.733h2.7C74.11-464.155,74.456-464.128,74.456-463.934Zm-8.91,6.779a10.145,10.145,0,0,1-1.522,2.891l-.484.553-.014-1.909v-1.9h2.1Zm5.714.138a14.354,14.354,0,0,1-3.224,2.421,4.747,4.747,0,0,1-1.134.512,3.58,3.58,0,0,1,.346-.955,17.423,17.423,0,0,0,.65-1.688l.249-.789h3.6Z" transform="translate(0)"/>
      <path id="Path_1049" data-name="Path 1049" d="M233.868-471.688A3.2,3.2,0,0,0,232-468.6a3.144,3.144,0,0,0,3.32,3.293,3.137,3.137,0,0,0,3.32-3.32,3.208,3.208,0,0,0-1.965-3.1A4.338,4.338,0,0,0,233.868-471.688Zm2.144,2.366a1.107,1.107,0,0,1,.277.692,1.107,1.107,0,0,1-.277.692,1.107,1.107,0,0,1-.692.277,1.107,1.107,0,0,1-.692-.277,1.107,1.107,0,0,1-.277-.692,1.107,1.107,0,0,1,.277-.692,1.107,1.107,0,0,1,.692-.277A1.107,1.107,0,0,1,236.012-469.322Z" transform="translate(-192.823 -27.622)"/>
      <path id="Path_1050" data-name="Path 1050" d="M40-148.68v3.32h2.214V-152H40Z" transform="translate(-27.386 -303.301)"/>
      <path id="Path_1051" data-name="Path 1051" d="M104-212.68v3.32h11.068V-216H104Zm8.854,0v1.107h-6.641v-2.214h6.641Z" transform="translate(-82.532 -248.155)"/>
      <path id="Path_1052" data-name="Path 1052" d="M205.556-215.759a7.99,7.99,0,0,0-5.313,5.4,10.123,10.123,0,0,0,0,4.178,8.07,8.07,0,0,0,3.763,4.732,7.043,7.043,0,0,0,3.763.927,7.043,7.043,0,0,0,3.763-.927,8.07,8.07,0,0,0,3.763-4.732,8.877,8.877,0,0,0-.125-4.538,7.69,7.69,0,0,0-4.953-4.953A9.05,9.05,0,0,0,205.556-215.759Zm1.093,3.224v1.01l-.65.415a4.1,4.1,0,0,0-1.065,1.065l-.415.65h-1c-1.176.014-1.2-.042-.664-1.19a5.731,5.731,0,0,1,2.463-2.532C206.593-213.753,206.662-213.725,206.648-212.535Zm3.569-.581a5.731,5.731,0,0,1,2.463,2.532c.54,1.148.512,1.2-.65,1.19h-1.01l-.415-.65a3.9,3.9,0,0,0-1.065-1.065l-.65-.415v-1.01C208.876-213.725,208.945-213.753,210.218-213.117Zm-1.757,4.151a1.107,1.107,0,0,1,.277.692,1.107,1.107,0,0,1-.277.692,1.107,1.107,0,0,1-.692.277,1.107,1.107,0,0,1-.692-.277,1.107,1.107,0,0,1-.277-.692,1.107,1.107,0,0,1,.277-.692,1.107,1.107,0,0,1,.692-.277A1.107,1.107,0,0,1,208.461-208.966Zm-3.528,2.463A4.33,4.33,0,0,0,206-205.438l.65.415v1c.014,1.176-.042,1.2-1.19.664a5.731,5.731,0,0,1-2.532-2.463c-.636-1.273-.609-1.342.595-1.328h1Zm8.093-.415a5.684,5.684,0,0,1-1.522,2.573,5.509,5.509,0,0,1-2.38,1.328c-.221,0-.249-.138-.235-1.01v-1l.65-.415a4.105,4.105,0,0,0,1.065-1.065l.415-.65h1.01C212.9-207.167,213.026-207.14,213.026-206.918Z" transform="translate(-165.272 -248.133)"/>
      <path id="Path_1053" data-name="Path 1053" d="M104-148.68v3.32h11.068V-152H104Zm8.854,0v1.107h-6.641v-2.214h6.641Z" transform="translate(-82.532 -303.301)"/>
      <path id="Path_1054" data-name="Path 1054" d="M104-86.893v1.107h2.214V-88H104Z" transform="translate(-82.532 -358.447)"/>
      <path id="Path_1055" data-name="Path 1055" d="M136-86.893v1.107h6.641V-88H136Z" transform="translate(-110.105 -358.447)"/>
      <path id="Path_1056" data-name="Path 1056" d="M200-86.893v1.107h6.641V-88H200Z" transform="translate(-165.25 -358.447)"/>
      <path id="Path_1057" data-name="Path 1057" d="M264-84.68v3.32h6.641V-88H264Zm4.427,0v1.107h-2.214v-2.214h2.214Z" transform="translate(-220.396 -358.447)"/>
      <path id="Path_1058" data-name="Path 1058" d="M104-54.893v1.107h8.854V-56H104Z" transform="translate(-82.532 -386.019)"/>
      <path id="Path_1059" data-name="Path 1059" d="M184-54.893v1.107h8.854V-56H184Z" transform="translate(-151.464 -386.019)"/>
      <path id="Path_1060" data-name="Path 1060" d="M360.277-215.723a1.132,1.132,0,0,0-.277.83.982.982,0,0,0,1.107,1.107.982.982,0,0,0,1.107-1.107,1.132,1.132,0,0,0-.277-.83,1.132,1.132,0,0,0-.83-.277A1.132,1.132,0,0,0,360.277-215.723Z" transform="translate(-303.114 -248.155)"/>
      <path id="Path_1061" data-name="Path 1061" d="M360.277-183.723a1.132,1.132,0,0,0-.277.83.982.982,0,0,0,1.107,1.107.982.982,0,0,0,1.107-1.107,1.132,1.132,0,0,0-.277-.83,1.132,1.132,0,0,0-.83-.277A1.132,1.132,0,0,0,360.277-183.723Z" transform="translate(-303.114 -275.728)"/>
      <path id="Path_1062" data-name="Path 1062" d="M360-99.573v4.427h2.214V-104H360Z" transform="translate(-303.114 -344.66)"/>
    </g>
  </g>
</svg>
