<svg xmlns="http://www.w3.org/2000/svg" width="55.725" height="68.552" viewBox="0 0 55.725 68.552">
  <g id="Group_494" data-name="Group 494" transform="translate(-1136 -725)">
    <circle id="Ellipse_53" data-name="Ellipse 53" cx="22.5" cy="22.5" r="22.5" transform="translate(1137.433 733)" fill="#ffd000"/>
    <g id="insight" transform="translate(1088 1236.755)">
      <path id="Path_1063" data-name="Path 1063" d="M64.945-511.52a11.733,11.733,0,0,0-8.868,10.743,11.505,11.505,0,0,0,2.358,7.8l.683.9-.63.764a24.317,24.317,0,0,0-3.844,7.086,22.96,22.96,0,0,0-.429,11.882l.308,1.286H51.858c-2.116,0-2.746.04-3.054.2-.777.4-.8.6-.8,4.916s.013,4.367.79,4.889l.455.308H61.168l.482.362A6.8,6.8,0,0,1,63.82-458l.388.8v5.894c0,3.644.054,6.082.134,6.39a2.75,2.75,0,0,0,.5.911c.7.844.295.8,9.564.8h8.466l.576-.335c.844-.5,1.125-1.179,1.125-2.733,0-1.125-.027-1.259-.335-1.554a.984.984,0,0,0-1.474,0c-.295.281-.335.442-.335,1.313a2.534,2.534,0,0,1-.161,1.139c-.214.214-15.257.228-15.659.027-.241-.134-.255-.348-.255-6.082,0-5.01-.027-6.041-.214-6.658a6.239,6.239,0,0,0-1.232-2.291l-.348-.375h1.715c2.492,0,3.027-.348,3.027-1.983v-.79l1.072.375a13.507,13.507,0,0,0,5.157.844,13.25,13.25,0,0,0,4.688-.683,15.429,15.429,0,0,0,9.832-9.631,15.987,15.987,0,0,0,.161-9.538l-.255-.831h4.916l.134.5a23.935,23.935,0,0,1,.6,3.791l.174,1.808,2.371,4.206c2.518,4.487,2.639,4.8,2.049,5.345-.295.281-.442.295-2.25.295-2.023,0-2.759.121-3.376.563-.764.549-.817.831-.9,4.193l-.067,3.081-.429.884a5.08,5.08,0,0,1-2.425,2.371c-.737.348-.871.362-3.778.429-3.175.067-3.282.094-3.911.764-.522.549-.643.991-.643,2.264,0,1.031.027,1.165.335,1.46a1.038,1.038,0,0,0,1.42.08c.281-.214.335-.415.388-1.313l.067-1.045,2.813-.08c2.451-.054,2.92-.107,3.657-.362a7.054,7.054,0,0,0,4.34-4.26c.255-.7.295-1.139.348-3.737a11.847,11.847,0,0,1,.214-3.041,13.845,13.845,0,0,1,2.224-.107,6.232,6.232,0,0,0,2.612-.255,3.427,3.427,0,0,0,1.607-1.674,4.311,4.311,0,0,0,.08-2.4c-.08-.214-1.165-2.2-2.411-4.42L97.844-477.7l-.134-1.474c-.08-.817-.228-1.956-.348-2.545s-.2-1.112-.2-1.179A17.687,17.687,0,0,1,99.68-483c2.826,0,3.282-.094,3.737-.777.308-.442.308-.509.308-4.434s0-3.992-.308-4.434a1.86,1.86,0,0,0-.764-.616,48.359,48.359,0,0,0-6.068-.161l-5.613-.013-.817-.737a22.371,22.371,0,0,0-9.564-4.849l-1.112-.241v-1.112a11.08,11.08,0,0,0-3.416-8,11.16,11.16,0,0,0-4.621-2.893,8.106,8.106,0,0,0-3.349-.482A10.657,10.657,0,0,0,64.945-511.52Zm5,2.09a9.716,9.716,0,0,1,5.653,3.831,9.126,9.126,0,0,1,1.715,6.055c-.134,2.652-1.058,4.487-3.416,6.778a6.807,6.807,0,0,0-2.344,3.536l-.161.616H68.9v-4.273l.764-.214a7.309,7.309,0,0,0,3.269-1.929,7.27,7.27,0,0,0,1.795-7.193c-.241-.844-.482-1.058-1.165-1.058a.864.864,0,0,0-.8.335c-.281.348-.281.362.027,2.036a5.052,5.052,0,0,1-2.706,5.318c-1.112.563-1.179.549-1.179-.228,0-.63.013-.67.536-.9a4.567,4.567,0,0,0,1.808-1.862,3.828,3.828,0,0,0-1.674-4.822,2.708,2.708,0,0,0-1.741-.415,3.54,3.54,0,0,0-3.778,3.711,3.091,3.091,0,0,0,.362,1.648,3.99,3.99,0,0,0,1.9,1.835c.415.147.442.2.442.8,0,.777-.147.817-1.219.281a5.1,5.1,0,0,1-2.733-5.572,4.663,4.663,0,0,1,1.527-2.692,4.948,4.948,0,0,1,4.7-1.219c1.246.375,1.808.4,2.13.08a1.224,1.224,0,0,0,.08-1.447c-.281-.415-1.7-.844-3.014-.938a7.179,7.179,0,0,0-6.591,3.362,6.527,6.527,0,0,0-1.072,3.831,7.112,7.112,0,0,0,5.827,7.153l.362.08v4.3l-1.3-.04-1.286-.04-.295-.871c-.469-1.407-.683-1.7-2.331-3.335a9.442,9.442,0,0,1-2.907-4.367,10.631,10.631,0,0,1-.335-4.434,9.854,9.854,0,0,1,8.345-7.944A9.7,9.7,0,0,1,69.942-509.43Zm-1.219,8.024a1.606,1.606,0,0,1-.964,2.88,1.229,1.229,0,0,1-1.058-.455A1.109,1.109,0,0,1,66.218-500,1.587,1.587,0,0,1,68.723-501.406Zm13.168,5.023a18.5,18.5,0,0,1,4.621,2.2l1.072.683-2.009.067a10.2,10.2,0,0,0-2.3.228,1.715,1.715,0,0,0-.844,1.326c0,.255-.054.455-.121.455a4.3,4.3,0,0,1-.857-.348,23.931,23.931,0,0,0-3.871-1.058l-.5-.08.442-.63a9.936,9.936,0,0,0,1.366-2.746l.241-.79.616.094A19.606,19.606,0,0,1,81.891-496.383Zm19.691,8.171v3.081H84.57v-6.162h17.012Zm-22.719-2.157a16.789,16.789,0,0,1,2.3.871l1.259.6v2.4c0,2.264.013,2.425.295,2.773.482.616.978.737,3.041.737h1.862l.348,1.045A12.892,12.892,0,0,1,87.3-471.7a12.458,12.458,0,0,1-2.679,3.577,12.818,12.818,0,0,1-7.662,3.63,12.916,12.916,0,0,1-6.591-.991l-1-.429-.04-2.049c-.054-3.027-.134-3.108-3.242-3.108H64.061l-.522-1.112a12.823,12.823,0,0,1-1.165-4.943,11.236,11.236,0,0,1,0-1.741c.054-.161.174-.174.683-.054l.6.134.268,1.179a3.781,3.781,0,0,0,1.045,2.277,2.509,2.509,0,0,0,2.063.643h.924l.2.482a10.072,10.072,0,0,0,1.889,2.6,8.875,8.875,0,0,0,2.96,1.688,6.133,6.133,0,0,0,2.451.375c2.25,0,3.617-.536,3.617-1.42,0-.938-.683-1.326-1.7-.991a5.648,5.648,0,0,1-4.461-.348,6.608,6.608,0,0,1-2.451-2.21c-.214-.4-.214-.415.295-.951a2.975,2.975,0,0,0,.8-1.741,12.545,12.545,0,0,0,.281-1.393c0-.134.188-.241.522-.295a3.14,3.14,0,0,0,1.929-1.474,3.2,3.2,0,0,0,.174-2.425c-.134-.322-.174-.563-.094-.643a4.224,4.224,0,0,1,1.393-.067,4.155,4.155,0,0,1,2.25.536,5.885,5.885,0,0,1,2.853,7.917c-.509,1.031-.4,1.661.348,1.969.9.375,1.634-.469,2.143-2.492a7.826,7.826,0,0,0-.6-5.613,7.747,7.747,0,0,0-6.791-4.461c-.857-.04-1.313-.107-1.313-.214a3.105,3.105,0,0,0-.737-1.674c-.455-.5-.455-.5-.268-1.112a4.033,4.033,0,0,1,.938-1.768l.348-.388,1.433.08A14.318,14.318,0,0,1,78.863-490.368Zm-17.548.388a7.224,7.224,0,0,1,.549,1.206l.228.723-.335.348a3.186,3.186,0,0,0-.563,3.429.9.9,0,0,1,.08.938c-.094.228-.362,1.072-.589,1.889a10.46,10.46,0,0,0-.415,3.684,12.837,12.837,0,0,0,.911,5.6l.442,1.1-2.411-.027-2.425-.04-.308-1.072a18.938,18.938,0,0,1-.67-6.028,18.58,18.58,0,0,1,1.835-7.662c.884-1.875,2.934-4.836,3.228-4.648A2.406,2.406,0,0,1,61.315-489.98Zm10.85,3.791a.679.679,0,0,1,0,1.179c-.348.268-.509.281-4.434.281H63.659l-.321-.335a1.083,1.083,0,0,1-.335-.469,1.04,1.04,0,0,1,.576-.8,42.612,42.612,0,0,1,4.26-.121C71.656-486.47,71.817-486.457,72.165-486.189Zm.08,3.871a.715.715,0,0,1,.054,1.045c-.2.295-.214.295-4.487.295-4.1,0-4.287-.013-4.541-.268-.335-.335-.335-.549.013-.991l.268-.348h4.22C71.8-482.586,71.991-482.572,72.246-482.318ZM69.7-478.741a7.71,7.71,0,0,1-.536,1.835,5.262,5.262,0,0,1-2.451.094c-.4-.161-.563-.469-.7-1.393l-.094-.63h1.889A9.526,9.526,0,0,1,69.7-478.741Zm-2.545,12.833v3.014H50.143v-6.028H67.156Z" transform="translate(0 0)"/>
      <path id="Path_1064" data-name="Path 1064" d="M332.2-343.719a1.026,1.026,0,0,0,0,1.581c.321.255.536.281,1.929.281s1.607-.027,1.929-.281a.833.833,0,0,0,.348-.79.833.833,0,0,0-.348-.79c-.322-.255-.536-.281-1.929-.281S332.518-343.973,332.2-343.719Z" transform="translate(-245.805 -145.283)"/>
      <path id="Path_1065" data-name="Path 1065" d="M375.2-343.719a1.026,1.026,0,0,0,0,1.581c.335.268.522.281,3.831.281H382.5l.322-.335a1.044,1.044,0,0,0,.335-.737,1.044,1.044,0,0,0-.335-.737L382.5-344h-3.469C375.719-344,375.532-343.987,375.2-343.719Z" transform="translate(-283.045 -145.283)"/>
      <path id="Path_1066" data-name="Path 1066" d="M75.582-177.8a1.083,1.083,0,0,0-.268,1.715c.281.268.455.295,2,.295,1.983,0,2.264-.121,2.291-.991a.854.854,0,0,0-.362-.831c-.335-.295-.469-.321-1.862-.308A8.943,8.943,0,0,0,75.582-177.8Z" transform="translate(-23.39 -289.116)"/>
      <path id="Path_1067" data-name="Path 1067" d="M118.582-177.623a1.083,1.083,0,0,0-.268,1.715c.308.281.4.295,3.885.295,3.4,0,3.59-.013,3.845-.268a1.213,1.213,0,0,0-.013-1.554c-.255-.241-.549-.255-3.724-.281A32.873,32.873,0,0,0,118.582-177.623Z" transform="translate(-60.63 -289.29)"/>
    </g>
  </g>
</svg>
