<svg xmlns="http://www.w3.org/2000/svg" width="60.705" height="68.552" viewBox="0 0 60.705 68.552">
  <g id="Group_495" data-name="Group 495" transform="translate(-1108.217 -684)">
    <circle id="Ellipse_54" data-name="Ellipse 54" cx="22.5" cy="22.5" r="22.5" transform="translate(1110.433 686.5)" fill="#ffd000"/>
    <g id="innovation_1_" data-name="innovation (1)" transform="translate(1078.717 1196.013)">
      <path id="Path_1068" data-name="Path 1068" d="M83.072-511.759c-.8.415-1.072,1.153-1.072,2.908a3.722,3.722,0,0,0,.308,2.077c.456.911.885,1.072,2.881,1.072,1.769,0,2.1-.094,2.707-.737.322-.335.335-.442.375-2.252s.027-1.93-.268-2.372C87.481-511.839,87-512,85.149-512A4.527,4.527,0,0,0,83.072-511.759Zm3.082,2.908v1.005h-2.01v-2.01h2.01Z" transform="translate(-45.464 -0.011)"/>
      <path id="Path_1069" data-name="Path 1069" d="M319.682-511.73a2.019,2.019,0,0,0-.295,1.139l-.054.858h-.429a3.142,3.142,0,0,0-2.587,2.546l-.08.536h-.764c-1.005,0-1.474.335-1.474,1.059,0,.777.415,1.086,1.447,1.086h.831v2.68h-.844c-1.032,0-1.434.308-1.434,1.1,0,.71.469,1.045,1.488,1.045h.791V-497h-.871c-1.032,0-1.407.255-1.407.992,0,.764.362,1.059,1.394,1.126.858.054.885.067.885.415a3.257,3.257,0,0,0,2.734,2.694c.295,0,.322.054.375.885.067,1.032.362,1.394,1.126,1.394.737,0,.992-.375.992-1.407v-.871h2.68v.791c0,1.032.322,1.488,1.059,1.488.777,0,1.086-.415,1.086-1.447v-.831h2.68v.844c0,1.032.308,1.434,1.1,1.434.71,0,1.045-.469,1.045-1.488,0-.777.013-.791.375-.791a3.6,3.6,0,0,0,2.1-1.153,3.465,3.465,0,0,0,.657-1.568c.08-.335.134-.362.818-.362,1.032,0,1.488-.429,1.421-1.38-.027-.5-.509-.764-1.354-.764h-.8v-2.68h.71c1.126,0,1.715-.617,1.421-1.474-.188-.536-.482-.67-1.38-.67h-.75v-2.68h.75c.9,0,1.193-.134,1.38-.67.295-.858-.295-1.474-1.421-1.474-.737,0-.724.013-.911-.9a3.081,3.081,0,0,0-2.372-2.158l-.576-.094-.067-.831c-.08-1.019-.362-1.38-1.1-1.38-.777,0-1.045.348-1.045,1.34v.8h-2.68v-.8c0-.992-.268-1.34-1.059-1.34-.737,0-1.086.456-1.086,1.421v.724h-2.68v-.8c0-.63-.054-.858-.268-1.072A1.231,1.231,0,0,0,319.682-511.73Zm11.794,4.195a.983.983,0,0,1,.6.616,121.791,121.791,0,0,1,0,12.316,1.118,1.118,0,0,1-.389.549c-.161.08-2.667.134-6.446.134-6.178,0-6.205,0-6.513-.295l-.308-.281v-12.517l.308-.268a2.127,2.127,0,0,1,.5-.348c.107-.04,2.814-.08,6-.08C329.895-507.722,331.114-507.682,331.476-507.535Z" transform="translate(-246.372 0)"/>
      <path id="Path_1070" data-name="Path 1070" d="M361.59-465.612a1.1,1.1,0,0,0-.509.415c-.04.121-.08,2.184-.08,4.57,0,4.168.013,4.356.268,4.61s.442.268,4.677.268c4.141,0,4.423-.013,4.717-.255l.322-.255v-8.859l-.308-.308c-.295-.308-.335-.308-4.49-.335C362.876-465.786,361.925-465.759,361.59-465.612Zm7.317,4.838v2.881h-5.763v-5.763h5.763Z" transform="translate(-287.073 -40.047)"/>
      <path id="Path_1071" data-name="Path 1071" d="M220.582-471.4a17.3,17.3,0,0,0-4.1.737,1,1,0,0,0-.241,1.595c.322.415.683.442,2.131.134a19.935,19.935,0,0,1,5.682-.295l2.01.147.308-.362a1.173,1.173,0,0,0,.228-1.22c-.147-.362-.75-.576-1.93-.657A21.715,21.715,0,0,0,220.582-471.4Z" transform="translate(-161.464 -35.112)"/>
      <path id="Path_1072" data-name="Path 1072" d="M145.206-466.838a1.911,1.911,0,0,0-.509.362c-.643.576-.7.844-.7,3.431,0,2.613.054,2.841.737,3.484.348.335.389.335,3.056.375,2.506.027,2.734.013,3.136-.228.818-.509.911-.871.911-3.632s-.094-3.123-.911-3.618c-.389-.241-.67-.268-2.975-.255C146.56-466.918,145.313-466.878,145.206-466.838Zm4.557,3.793v1.742h-3.618v-3.484h3.618Z" transform="translate(-99.155 -39.049)"/>
      <path id="Path_1073" data-name="Path 1073" d="M37.421-447.574C36.4-447.252,36-446.448,36-444.759c0,1.34.161,1.89.724,2.412.348.308.482.335,2.024.375,1.863.054,2.305-.08,2.747-.818.228-.362.268-.684.268-1.943,0-1.689-.121-2.091-.818-2.587-.362-.255-.63-.308-1.782-.335A8.14,8.14,0,0,0,37.421-447.574Z" transform="translate(-5.629 -55.726)"/>
      <path id="Path_1074" data-name="Path 1074" d="M99.976-404.83c-.657.389-2.747,4.329-3.458,6.527a19.158,19.158,0,0,0-1.019,6.942,18.4,18.4,0,0,0,.308,4.195,24.33,24.33,0,0,0,1.9,5.723c1.139,2.319,2.989,4.892,3.7,5.16a1.233,1.233,0,0,0,1.26-.4c.295-.549.134-.952-.938-2.386a24.178,24.178,0,0,1-3.149-5.977,17.266,17.266,0,0,1-.925-6.312,15.673,15.673,0,0,1,.295-3.9,21.126,21.126,0,0,1,2.922-7.13c.818-1.26.911-1.729.389-2.238A1.086,1.086,0,0,0,99.976-404.83Z" transform="translate(-57.155 -92.707)"/>
      <path id="Path_1075" data-name="Path 1075" d="M190.438-400.745c-.818.482-.938.844-.938,2.627,0,1.809.161,2.292.911,2.761.375.241.617.255,2.2.228,1.662-.04,1.782-.054,2.118-.375.63-.59.737-.952.737-2.546,0-1.715-.174-2.252-.871-2.68-.375-.228-.657-.268-2.091-.268C191.122-401,190.773-400.96,190.438-400.745Zm2.881,2.694v.8h-1.742v-1.608h1.742Z" transform="translate(-138.557 -96.135)"/>
      <path id="Path_1076" data-name="Path 1076" d="M158.96-336.745c-.764.469-.885.938-.831,3.565l.04,2.345.509.5.5.509,2.345.04c2.627.054,3.1-.067,3.565-.831.228-.362.255-.7.255-2.761,0-2.091-.027-2.386-.268-2.774-.456-.764-.791-.844-3.377-.844C159.656-337,159.321-336.973,158.96-336.745Zm4.235,3.364v1.474h-2.948v-2.948h2.948Z" transform="translate(-111.38 -151.558)"/>
      <path id="Path_1077" data-name="Path 1077" d="M190.959-330.7c-.295.241-.308.308-.335,3.324a17.867,17.867,0,0,1-.308,4.3,20.5,20.5,0,0,1-5.87,10.507,29.459,29.459,0,0,0-6.044,8.39c-.71,1.5-.724,1.514-1.179,1.514h-.469v-5.548l2.345-2.359,2.345-2.359v-1.5c0-1.34.027-1.5.241-1.5A1.9,1.9,0,0,0,183-316.94a8.6,8.6,0,0,0,0-3.605,2.079,2.079,0,0,0-.549-.724c-.335-.268-.523-.295-2.144-.295s-1.809.027-2.144.295a2.079,2.079,0,0,0-.549.724,8.6,8.6,0,0,0,0,3.605A1.864,1.864,0,0,0,179-315.935c.281,0,.295.054.295,1.045v1.032l-2.345,2.345-2.345,2.345v6.5h-2.144v-6.58l-.335-.322a.985.985,0,0,0-1.474,0l-.335.322v6.58H167.1v-12.3l.509-.094a2.041,2.041,0,0,0,1.581-1.072,11.975,11.975,0,0,0-.04-4.583c-.4-.858-.777-.978-3.1-.978s-2.613.08-3.1.938c-.241.442-.281.724-.281,2.345a5.739,5.739,0,0,0,.228,2.305,1.958,1.958,0,0,0,1.541,1.045l.509.094v12.3H163l-.724-1.488a29.34,29.34,0,0,0-4.195-6.393c-.643-.683-1.246-.764-1.769-.228-.576.563-.469.911.737,2.4,1.5,1.863,4.021,6.111,3.618,6.111a2.691,2.691,0,0,0-.737.549,3.751,3.751,0,0,0-1.139,2.506,3.53,3.53,0,0,0,2.814,3.471l.536.08v1.072a3.432,3.432,0,0,0,.281,1.662c.281.576,1.1,1.38,1.421,1.38.08,0,.268.362.389.818a5.826,5.826,0,0,0,3.216,3.7c.764.362.871.375,2.868.375,2.05,0,2.091,0,2.975-.429a5.743,5.743,0,0,0,3.123-3.538,2.267,2.267,0,0,1,.871-1.22,3.2,3.2,0,0,0,1.313-2.734c.054-1.032.094-1.126.348-1.126a3.82,3.82,0,0,0,2-1.072,3.1,3.1,0,0,0,.858-2.024,3.076,3.076,0,0,0-1.059-2.855l-.791-.791.63-1.26a31.218,31.218,0,0,1,3.3-5.053c.389-.442,1.407-1.541,2.265-2.426a23.953,23.953,0,0,0,3.806-4.919,21.116,21.116,0,0,0,2.841-10.172c.094-2.855-.013-3.94-.429-4.356A1.05,1.05,0,0,0,190.959-330.7Zm-23.721,12.29v1.273h-2.412v-2.546h2.412Zm12.008,18.347a1.275,1.275,0,0,1-.59,2.225,15.755,15.755,0,0,1-2.332.134c-1.823,0-1.836,0-2.1.348a1.3,1.3,0,0,0-.281.657,1.3,1.3,0,0,0,.281.657c.255.322.348.348,1.273.348h.992v.8c0,.684-.054.871-.335,1.139l-.322.335h-5.468c-6.46,0-6.071.08-6.071-1.354v-.925h3.484c3.31,0,3.5-.013,3.753-.268a1.227,1.227,0,0,0,.08-1.421c-.188-.241-.442-.255-4.932-.322-4.262-.067-4.771-.094-5.079-.308a1.367,1.367,0,0,1,.281-2.412c.107-.04,3.967-.08,8.55-.08l8.363-.013Zm-4.905,8.859a3.946,3.946,0,0,1-1.019,1.541,3.843,3.843,0,0,1-3.015.992,3.459,3.459,0,0,1-2.037-.375,3.947,3.947,0,0,1-1.823-1.863l-.147-.362h4.021C172.532-291.275,174.341-291.248,174.341-291.208Z" transform="translate(-109.527 -156.809)"/>
      <path id="Path_1078" data-name="Path 1078" d="M264.233-326.772c-.9.429-1.032.818-1.072,2.989-.027,1.648,0,2.01.2,2.412a2.044,2.044,0,0,0,1.595,1.072h.456v5.414l-1.206,1.233L263-312.432v1.568c0,1.488.013,1.581.335,1.89a.985.985,0,0,0,1.474,0c.308-.295.335-.429.335-1.434v-1.112l1.206-1.206,1.206-1.206V-320.3H268a1.956,1.956,0,0,0,1.595-.952c.2-.375.241-.764.241-2.412,0-1.809-.027-2-.308-2.412-.523-.777-.992-.925-3.042-.925A5.446,5.446,0,0,0,264.233-326.772Zm3.458,3.123v1.206h-2.412v-2.412h2.412Z" transform="translate(-202.207 -160.218)"/>
      <path id="Path_1079" data-name="Path 1079" d="M30.411-253.732c-.751.456-.911.938-.911,2.68s.174,2.225.911,2.694c.375.241.616.255,2.2.228l1.782-.04.5-.509.509-.5.04-1.662c.054-1.916-.094-2.439-.844-2.895-.375-.228-.657-.268-2.091-.268C31.095-254,30.773-253.96,30.411-253.732Zm2.908,2.68v.8H31.577v-1.608H33.32Z" transform="translate(0 -223.434)"/>
      <path id="Path_1080" data-name="Path 1080" d="M433.331-219.623a2.135,2.135,0,0,0-1.34,1.823,8.1,8.1,0,0,0,.308,3.645c.6.8.858.9,2.734.938,1.555.054,1.783.027,2.332-.241.952-.456,1.139-.952,1.139-3.015,0-2.8-.375-3.2-3.082-3.243A12.3,12.3,0,0,0,433.331-219.623Zm3.029,3.149v1.139h-2.278v-2.278h2.278Z" transform="translate(-348.494 -253.121)"/>
      <path id="Path_1081" data-name="Path 1081" d="M72.072-181.759a2.186,2.186,0,0,0-.764.683c-.295.429-.308.59-.308,2.721,0,2.52.094,2.868.844,3.324.389.241.683.268,2.774.268s2.386-.027,2.774-.268c.751-.456.844-.8.844-3.324,0-2.131-.013-2.292-.308-2.721-.536-.8-.965-.925-3.31-.925C72.9-182,72.461-181.96,72.072-181.759Zm4.021,3.444v1.541H73.144v-3.082h2.948Z" transform="translate(-35.938 -285.785)"/>
      <path id="Path_1082" data-name="Path 1082" d="M380.925-155.719c-.885.509-.925.7-.925,3.833,0,2.533.027,2.828.268,3.216.523.871.684.911,3.82.911s3.283-.04,3.833-.911c.241-.4.255-.63.228-3.337-.04-2.881-.04-2.908-.375-3.257-.643-.7-.858-.737-3.712-.737C381.622-156,381.367-155.973,380.925-155.719Zm5.106,3.873v2.01h-3.887v-4.021h3.887Z" transform="translate(-303.526 -308.3)"/>
    </g>
  </g>
</svg>
