<svg xmlns="http://www.w3.org/2000/svg" width="70.334" height="68.552" viewBox="0 0 70.334 68.552">
  <g id="Group_497" data-name="Group 497" transform="translate(-1130.076 -698.724)">
    <circle id="Ellipse_55" data-name="Ellipse 55" cx="22.5" cy="22.5" r="22.5" transform="translate(1140.433 703)" fill="#ffd000"/>
    <g id="molecular" transform="translate(1130.076 1204.363)">
      <path id="Path_1083" data-name="Path 1083" d="M61.773-505.607c-.151.027-.549.137-.893.22a6.56,6.56,0,0,0-4.2,3.475,5.9,5.9,0,0,0-.632,3.818,6.806,6.806,0,0,0,4.6,5.508c.22.069.233.481.233,6.112v6.03l-.989.247a12.914,12.914,0,0,0-2.376.934,8.594,8.594,0,0,0-2.555,1.868,13.971,13.971,0,0,0-1.566,1.786c-.206.343-.4.646-.426.673s-1.648-1.195-3.612-2.72L45.8-480.43l.137-.508a5.436,5.436,0,0,0-.33-3.063,4.843,4.843,0,0,0-8.736-.014,3.843,3.843,0,0,0-.371,2.088,3.526,3.526,0,0,0,.4,2.1,5.107,5.107,0,0,0,2.39,2.266,5.46,5.46,0,0,0,3.681.11l.687-.261,4.011,3.118,4,3.118-.069,1.4a10.85,10.85,0,0,0,1.566,6.318l.494.8-4.684,4.7c-2.582,2.582-4.752,4.835-4.835,5a1.808,1.808,0,0,0,.591,2.156,2.124,2.124,0,0,0,1.868,0c.192-.124,2.417-2.294,4.945-4.807l4.6-4.574.755.481a12.178,12.178,0,0,0,3.406,1.36l.577.1v12.128l-.632.33a5.193,5.193,0,0,0-2.1,2.431,5.586,5.586,0,0,0,0,3.544,4.822,4.822,0,0,0,5.247,2.967,4.693,4.693,0,0,0,3.983-4.066,4.8,4.8,0,0,0-.8-3.434,4.692,4.692,0,0,0-1.95-1.621l-.316-.1v-6.112c0-6.071,0-6.1.288-6.1a9.9,9.9,0,0,0,1.607-.44,10.987,10.987,0,0,0,6.923-7,7.536,7.536,0,0,0,.453-3.406,9.059,9.059,0,0,0-1.181-5.219,11.157,11.157,0,0,0-7.087-5.576l-1-.234v-11.991l1.058-.467a5.581,5.581,0,0,0,1.9-1.3,6.261,6.261,0,0,0,1.992-4.752,6.6,6.6,0,0,0-6.249-6.648A6.662,6.662,0,0,0,61.773-505.607Zm2.239,3.75a3.168,3.168,0,0,1,1.813,2.9,3.158,3.158,0,0,1-3.214,3.173,4.1,4.1,0,0,1-1.113-.151,3.4,3.4,0,0,1-2.088-2.774A3.23,3.23,0,0,1,64.012-501.857ZM41.939-483.163a1.76,1.76,0,0,1,.673,1.291,1.547,1.547,0,0,1-.4.8,1.039,1.039,0,0,1-.975.453,1.039,1.039,0,0,1-.975-.453,1.218,1.218,0,0,1,0-1.827A1.485,1.485,0,0,1,41.939-483.163Zm22.567,6.318a6.988,6.988,0,0,1,3.516,2.047,7.529,7.529,0,0,1,1.36,8.845,9.161,9.161,0,0,1-3.241,3.242,7.553,7.553,0,0,1-8.832-1.36,7.47,7.47,0,0,1-.027-10.768A7.419,7.419,0,0,1,64.506-476.845Zm-.948,33.981a1.249,1.249,0,0,1,.288,1.552,1.487,1.487,0,0,1-1.525.783,1.384,1.384,0,0,1-.659-2.28A1.37,1.37,0,0,1,63.558-442.864Z" transform="translate(-31.487 0)"/>
      <path id="Path_1084" data-name="Path 1084" d="M338.929-358.725a6.233,6.233,0,0,0-2.9,1.689,6.516,6.516,0,0,0-2.033,4.3l-.1.934-4.34,1.47c-8.845,3.008-8.392,2.8-8.5,4.079-.055.742-.041.8.426,1.264.783.783.948.742,7.554-1.511,3.214-1.1,5.865-1.992,5.92-1.992a7.888,7.888,0,0,1,.934.852,8.46,8.46,0,0,0,1.566,1.236,6.732,6.732,0,0,0,9.546-3.832,7.669,7.669,0,0,0-.014-4.093,6.807,6.807,0,0,0-2.953-3.695A7.2,7.2,0,0,0,338.929-358.725Zm3.324,3.667a3.06,3.06,0,0,1,1.593,2.788,3.169,3.169,0,0,1-5.233,2.431,3.12,3.12,0,0,1-.11-4.794,2.661,2.661,0,0,1,2.307-.824A2.768,2.768,0,0,1,342.253-355.057Z" transform="translate(-276.942 -126.568)"/>
      <path id="Path_1085" data-name="Path 1085" d="M4.6-111.69a6.3,6.3,0,0,0-2.678,1.662A6.178,6.178,0,0,0,0-105.358a6.311,6.311,0,0,0,2.129,4.931,6.571,6.571,0,0,0,3.022,1.593,6.723,6.723,0,0,0,8.117-6.95,6.739,6.739,0,0,0-4.794-5.947A8.187,8.187,0,0,0,4.6-111.69Zm3.475,3.53a3.288,3.288,0,0,1,1.7,2.253,2.147,2.147,0,0,1-.082,1.456,3.178,3.178,0,0,1-5.92.563A3.177,3.177,0,0,1,8.076-108.16Z" transform="translate(0 -339.622)"/>
    </g>
  </g>
</svg>
