<svg xmlns="http://www.w3.org/2000/svg" width="68.551" height="68.552" viewBox="0 0 68.551 68.552">
  <g id="Group_498" data-name="Group 498" transform="translate(-1248.449 -629)">
    <circle id="Ellipse_56" data-name="Ellipse 56" cx="22.5" cy="22.5" r="22.5" transform="translate(1248.449 634)" fill="#ffd000"/>
    <g id="impact_1_" data-name="impact (1)" transform="translate(1248.513 1140.933)">
      <path id="Path_1086" data-name="Path 1086" d="M8.132-511.674a10.533,10.533,0,0,0-7.258,6.762A7.308,7.308,0,0,0,.5-501.7a8.013,8.013,0,0,0,.308,3.066,10.243,10.243,0,0,0,10.485,7.271,10.206,10.206,0,0,0,9.721-9.735,10.238,10.238,0,0,0-7.954-10.632A13.232,13.232,0,0,0,8.132-511.674Zm4.539,2.357a8.018,8.018,0,0,1,5.825,9.105A9.594,9.594,0,0,1,17.01-496.9l-.442.549-.08-1.526c-.08-1.66-.281-2.29-.964-2.919-.321-.308-.335-.362-.268-1.607a4.05,4.05,0,0,0-.241-2.1,4.839,4.839,0,0,0-2.6-2.6,5.136,5.136,0,0,0-3.789.174,4.627,4.627,0,0,0-2.464,4.9l.147.83-.415.415c-.723.736-.911,1.312-.911,3.04l-.013,1.54-.388-.469A9.337,9.337,0,0,1,3.058-499.7a9.421,9.421,0,0,1-.013-3.87,8.3,8.3,0,0,1,5.691-5.744A9.745,9.745,0,0,1,12.672-509.317Zm-.844,4.646a2.1,2.1,0,0,1,.656,3.08c-.509.8-.536,1.446-.067,1.9a1.1,1.1,0,0,0,.67.335,1.17,1.17,0,0,1,.683.335c.321.321.321.348.295,2.437l-.04,2.116-.87.321a8.411,8.411,0,0,1-4.78.027L7.4-494.44v-2.183c0-2.37.04-2.517.777-2.678s.844-.214,1.031-.589a1.179,1.179,0,0,0-.067-1.379,2.153,2.153,0,0,1,.5-3.4A2.091,2.091,0,0,1,11.828-504.67Z" transform="translate(-0.488 0)"/>
      <path id="Path_1087" data-name="Path 1087" d="M366.476-511.607a11.265,11.265,0,0,0-5.731,3.187,10.376,10.376,0,0,0,2.785,16.135,8.7,8.7,0,0,0,4.82,1.152,8.613,8.613,0,0,0,4.633-1.018,9.919,9.919,0,0,0,4.673-4.74,9.258,9.258,0,0,0,.977-4.995,8.231,8.231,0,0,0-.428-2.772,9.954,9.954,0,0,0-2.544-4.03,10.1,10.1,0,0,0-4.03-2.544,7.463,7.463,0,0,0-2.946-.4C367.654-511.647,366.663-511.634,366.476-511.607Zm3.816,2.531a7.375,7.375,0,0,1,3.615,2.142,7.259,7.259,0,0,1,2.343,5.53,7.626,7.626,0,0,1-2.276,5.53,7.643,7.643,0,0,1-8.811,1.647,7.631,7.631,0,0,1-3.923-3.87,7.311,7.311,0,0,1-.522-5.222,8.115,8.115,0,0,1,5.557-5.7A9.663,9.663,0,0,1,370.292-509.076Z" transform="translate(-310.158 -0.254)"/>
      <path id="Path_1088" data-name="Path 1088" d="M411.135-477.652a3.446,3.446,0,0,0-1.714,4.124,3.64,3.64,0,0,0,3.321,2.491,1.167,1.167,0,0,1,1.044.991c0,.884-.482,1.152-2.142,1.152h-1.205v2.437l1.647-.054c1.513-.04,1.687-.08,2.343-.442a3.479,3.479,0,0,0,.254-5.919,3.563,3.563,0,0,0-1.138-.509c-1.111-.161-1.419-.281-1.674-.629a.949.949,0,0,1,.174-1.312c.228-.228.455-.268,1.674-.268h1.406V-478h-1.647C411.966-478,411.765-477.973,411.135-477.652Z" transform="translate(-354.523 -29.389)"/>
      <path id="Path_1089" data-name="Path 1089" d="M256.132-509.156l-.83.83.683.683.683.683-1.031.094a9.077,9.077,0,0,0-5.838,2.758,7.06,7.06,0,0,0-1.768,2.41A9.825,9.825,0,0,0,247-497.413v.937h2.41v-.844a7.226,7.226,0,0,1,4.017-6.427,7.944,7.944,0,0,1,2.932-.763c.321,0,.295.04-.362.71l-.7.71.87.857.884.87,1.861-1.888c1.835-1.834,1.875-1.888,1.875-2.464s-.04-.629-1.834-2.437c-1-1.018-1.875-1.848-1.915-1.848A7.159,7.159,0,0,0,256.132-509.156Z" transform="translate(-213.981 -1.674)"/>
      <path id="Path_1090" data-name="Path 1090" d="M133.743-392.772a7,7,0,0,0-.857,1.982l-.589,1.741-.589.295a2.868,2.868,0,0,1-.8.295,8.925,8.925,0,0,1-1.66-.656,7.6,7.6,0,0,0-1.875-.67c-.522,0-1.312.562-2.785,2s-2.37,2.625-2.37,3.16a7.417,7.417,0,0,0,.67,1.875,8,8,0,0,1,.656,1.66,2.868,2.868,0,0,1-.295.8l-.295.589-1.741.589a6.638,6.638,0,0,0-1.968.857c-.214.254-.241.643-.241,3.6s.027,3.348.228,3.6a7,7,0,0,0,1.982.857l1.741.589.295.589a2.867,2.867,0,0,1,.295.8,8,8,0,0,1-.656,1.66c-.884,1.888-.87,2.076.121,3.307a20.47,20.47,0,0,0,3.2,3.173c.951.723,1.272.71,3.053-.121a9.365,9.365,0,0,1,1.647-.656,2.867,2.867,0,0,1,.8.295l.589.295.589,1.741a6.639,6.639,0,0,0,.857,1.968c.254.214.643.241,3.6.241,3,0,3.348-.027,3.615-.241a5.808,5.808,0,0,0,.857-1.968l.562-1.714.763-.335.777-.335,1.5.7a8.573,8.573,0,0,0,1.915.683c1.085,0,5.142-4.057,5.142-5.142a8.574,8.574,0,0,0-.683-1.915l-.7-1.5.335-.777.335-.763,1.714-.562a5.806,5.806,0,0,0,1.968-.857c.214-.268.241-.616.241-3.615s-.027-3.348-.241-3.615a5.662,5.662,0,0,0-1.968-.857l-1.714-.562-.335-.763-.335-.777.7-1.5a8.574,8.574,0,0,0,.683-1.915c0-.522-.924-1.741-2.37-3.147s-2.263-2-2.772-2a8.572,8.572,0,0,0-1.915.683l-1.5.7-.777-.335-.763-.335L141.8-390.8a6.283,6.283,0,0,0-.857-1.968c-.254-.2-.643-.228-3.6-.228S134-392.973,133.743-392.772Zm6.16,3.883.589,1.714,1.674.7a5.617,5.617,0,0,0,2.009.616,15.309,15.309,0,0,0,1.527-.67,9.152,9.152,0,0,1,1.393-.576,13.682,13.682,0,0,1,2.651,2.571,4.112,4.112,0,0,1-.536,1.553c-.335.71-.629,1.419-.67,1.567a7.613,7.613,0,0,0,.629,1.942l.7,1.674,1.714.589,1.7.576v3.964l-1.7.576-1.714.589-.7,1.674a5.616,5.616,0,0,0-.616,2.009,15.314,15.314,0,0,0,.669,1.526,9.15,9.15,0,0,1,.576,1.393,13.684,13.684,0,0,1-2.571,2.651,4.113,4.113,0,0,1-1.553-.536c-.71-.335-1.419-.629-1.567-.67a7.613,7.613,0,0,0-1.942.629l-1.674.7-.589,1.714-.576,1.7h-3.964l-.562-1.674c-.536-1.593-.589-1.7-1.044-1.928a11.579,11.579,0,0,0-3.013-1.111,6,6,0,0,0-1.687.616,9.49,9.49,0,0,1-1.46.616,13.3,13.3,0,0,1-2.651-2.571,4.442,4.442,0,0,1,.549-1.54,7.824,7.824,0,0,0,.643-1.714,12.026,12.026,0,0,0-1.125-3.04c-.228-.455-.335-.509-1.928-1.044l-1.674-.562v-3.964l1.674-.562c1.593-.536,1.7-.589,1.928-1.044a12.845,12.845,0,0,0,1.125-3,7.1,7.1,0,0,0-.629-1.7,4.1,4.1,0,0,1-.562-1.593,13.683,13.683,0,0,1,2.651-2.571,9.492,9.492,0,0,1,1.46.616,7.673,7.673,0,0,0,1.66.629,11.846,11.846,0,0,0,3.04-1.125c.455-.228.509-.335,1.044-1.928l.562-1.674h3.964Z" transform="translate(-103.121 -103.007)"/>
      <path id="Path_1091" data-name="Path 1091" d="M187.088-332.669a9.951,9.951,0,0,0-5.075,2.812,9.752,9.752,0,0,0-3.013,7.3,9.752,9.752,0,0,0,3.013,7.3,9.752,9.752,0,0,0,7.3,3.013,9.752,9.752,0,0,0,7.3-3.013,9.752,9.752,0,0,0,3.013-7.3,9.752,9.752,0,0,0-3.013-7.3,9.669,9.669,0,0,0-5.129-2.812A13.429,13.429,0,0,0,187.088-332.669Zm4.03,2.41a8.021,8.021,0,0,1,6.093,7.7,7.967,7.967,0,0,1-7.9,7.9,7.967,7.967,0,0,1-7.9-7.9,8.085,8.085,0,0,1,6.052-7.713A9.59,9.59,0,0,1,191.118-330.259Z" transform="translate(-155.087 -155.103)"/>
      <path id="Path_1092" data-name="Path 1092" d="M247-295.519v3.481h2.41V-299H247Z" transform="translate(-213.981 -184.42)"/>
      <path id="Path_1093" data-name="Path 1093" d="M247-229.795v1.205h2.41V-231H247Z" transform="translate(-213.981 -243.315)"/>
      <path id="Path_1094" data-name="Path 1094" d="M3.388-348.125,1.5-346.264l.87.884.857.87.7-.683.683-.67.094,1.018a9.077,9.077,0,0,0,2.758,5.838,7.06,7.06,0,0,0,2.41,1.768,9.825,9.825,0,0,0,4.285,1.031h.937v-2.41h-.83a7.286,7.286,0,0,1-6.441-4.017,7.944,7.944,0,0,1-.763-2.932c0-.321.04-.295.71.362l.71.7.857-.87.87-.884-1.888-1.861C6.481-349.96,6.428-350,5.852-350S5.223-349.96,3.388-348.125Z" transform="translate(-1.354 -140.249)"/>
      <path id="Path_1095" data-name="Path 1095" d="M409-263.795v1.205h.844a7.225,7.225,0,0,1,6.427,4.017,7.944,7.944,0,0,1,.763,2.932c0,.321-.04.295-.71-.362l-.71-.7-.857.87-.87.884,1.888,1.861c1.834,1.834,1.888,1.875,2.464,1.875s.629-.04,2.464-1.875l1.888-1.861-.87-.884-.857-.87-.7.683-.683.67-.094-1.018a9.077,9.077,0,0,0-2.758-5.838,7.06,7.06,0,0,0-2.41-1.768A9.825,9.825,0,0,0,409.937-265H409Z" transform="translate(-354.289 -213.867)"/>
      <path id="Path_1096" data-name="Path 1096" d="M8.059-153.523a10.394,10.394,0,0,0-7.914,7.78,12.35,12.35,0,0,0,.254,5.6,9.955,9.955,0,0,0,2.544,4.03,9.955,9.955,0,0,0,4.03,2.544,12.3,12.3,0,0,0,5.517.254,12.221,12.221,0,0,0,4.218-2,11.272,11.272,0,0,0,3.548-5.436,13.071,13.071,0,0,0-.067-5.49,10.259,10.259,0,0,0-6.776-6.99,7.956,7.956,0,0,0-2.825-.455A9.7,9.7,0,0,0,8.059-153.523Zm3.83,2.4a7.952,7.952,0,0,1,5.4,4.285,7.247,7.247,0,0,1,.6,5.356,8.129,8.129,0,0,1-5.7,5.744,9.659,9.659,0,0,1-3.87.013A7.245,7.245,0,0,1,4.7-137.87a7.212,7.212,0,0,1-2.343-5.53,7.626,7.626,0,0,1,2.276-5.53A7.766,7.766,0,0,1,11.889-151.126Z" transform="translate(0 -310.267)"/>
      <path id="Path_1097" data-name="Path 1097" d="M93-106.38v4.62h2.41V-111H93Z" transform="translate(-80.602 -347.246)"/>
      <path id="Path_1098" data-name="Path 1098" d="M68-90.519v3.481h2.41V-94H68Z" transform="translate(-58.95 -361.97)"/>
      <path id="Path_1099" data-name="Path 1099" d="M42-67.192v1.808h2.41V-69H42Z" transform="translate(-36.431 -383.622)"/>
      <path id="Path_1100" data-name="Path 1100" d="M366.592-153.95a10.949,10.949,0,0,0-6.146,3.535,10.485,10.485,0,0,0,.308,13.685,10.882,10.882,0,0,0,5.37,3.066,12.125,12.125,0,0,0,5.517-.254,9.955,9.955,0,0,0,4.03-2.544,10.338,10.338,0,0,0,2.558-4.03,7.307,7.307,0,0,0,.375-3.214,8.278,8.278,0,0,0-.964-4.673A10.4,10.4,0,0,0,366.592-153.95Zm.562,3.481v1.071h2.41v-2.169l.5.094a8.675,8.675,0,0,1,4.472,2.772,8.99,8.99,0,0,1,1.54,3.174l.094.549h-2.183v2.41h2.25l-.2.763a8.169,8.169,0,0,1-5.7,5.7l-.763.2v-2.25h-2.41v2.183l-.549-.094a8.99,8.99,0,0,1-3.173-1.54,8.675,8.675,0,0,1-2.772-4.472l-.094-.5h2.169v-2.41h-1.071c-1.219,0-1.205.027-.8-1.125a8.024,8.024,0,0,1,5.155-5.182C367.154-151.687,367.154-151.687,367.154-150.469Z" transform="translate(-310.166 -309.92)"/>
      <path id="Path_1101" data-name="Path 1101" d="M409.427-115.46c-1.446,1.446-1.567,1.54-2.076,1.54-.482,0-.616-.094-1.567-1.031L404.741-116l-.87.87-.87.884,1,1c.964.977,1,1.044,1,1.66a2.283,2.283,0,0,0,2.906,2.223,2.224,2.224,0,0,0,1.727-2.209c.027-.643.054-.683,1.607-2.236l1.593-1.593-.8-.8a4.5,4.5,0,0,0-.937-.8A14.286,14.286,0,0,0,409.427-115.46Z" transform="translate(-349.092 -342.05)"/>
      <path id="Path_1102" data-name="Path 1102" d="M173.382-102.17a7.286,7.286,0,0,1-4.017,6.441,7.944,7.944,0,0,1-2.932.763c-.321,0-.295-.04.362-.71l.7-.71-.87-.857-.884-.87-1.861,1.888C162.04-94.39,162-94.336,162-93.761s.04.629,1.875,2.464l1.861,1.888.884-.87.87-.857-.683-.7-.669-.683,1.031-.094a9.32,9.32,0,0,0,5.905-2.825,7.369,7.369,0,0,0,1.7-2.357,9.894,9.894,0,0,0,1.018-4.272V-103h-2.41Z" transform="translate(-140.363 -354.175)"/>
    </g>
  </g>
</svg>
