<svg xmlns="http://www.w3.org/2000/svg" xmlns:xlink="http://www.w3.org/1999/xlink" width="570" height="180" viewBox="0 0 570 180">
  <defs>
    <clipPath id="clip-path">
      <rect id="Rectangle_193" data-name="Rectangle 193" width="120" height="60" transform="translate(693 2061)" fill="#dcd5d5"/>
    </clipPath>
    <clipPath id="clip-path-2">
      <rect id="Rectangle_194" data-name="Rectangle 194" width="120" height="60" transform="translate(594 2063)" fill="#dcd5d5"/>
    </clipPath>
    <clipPath id="clip-path-3">
      <rect id="Rectangle_196" data-name="Rectangle 196" width="120" height="60" transform="translate(547 2066)" fill="#dcd5d5"/>
    </clipPath>
    <clipPath id="clip-path-4">
      <rect id="Rectangle_197" data-name="Rectangle 197" width="120" height="60" transform="translate(544 2054)" fill="#dcd5d5"/>
    </clipPath>
    <clipPath id="clip-path-5">
      <rect id="Rectangle_195" data-name="Rectangle 195" width="120" height="60" transform="translate(349 2054)" fill="#dcd5d5"/>
    </clipPath>
    <clipPath id="clip-path-6">
      <rect id="Rectangle_198" data-name="Rectangle 198" width="120" height="60" transform="translate(486 2054)" fill="#dcd5d5"/>
    </clipPath>
    <clipPath id="clip-path-7">
      <rect id="Rectangle_199" data-name="Rectangle 199" width="120" height="60" transform="translate(655 2054)" fill="#dcd5d5"/>
    </clipPath>
    <clipPath id="clip-path-8">
      <rect id="Rectangle_200" data-name="Rectangle 200" width="120" height="60" transform="translate(860 2063)" fill="#dcd5d5"/>
    </clipPath>
    <clipPath id="clip-path-9">
      <rect id="Rectangle_201" data-name="Rectangle 201" width="120" height="60" transform="translate(645 2063)" fill="#dcd5d5"/>
    </clipPath>
    <clipPath id="clip-path-10">
      <path id="path408" d="M49.53,29.785a8.97,8.97,0,1,0-6.343-2.627A8.971,8.971,0,0,0,49.53,29.785Z" transform="translate(-40.56 -11.845)"/>
    </clipPath>
    <clipPath id="clip-path-35">
      <path id="path408-5-8" data-name="path408-5" d="M49.53,29.785a8.97,8.97,0,1,0-6.343-2.627A8.971,8.971,0,0,0,49.53,29.785Z" transform="translate(-40.56 -11.845)" fill="#fff"/>
    </clipPath>
    <clipPath id="clip-path-36">
      <rect id="Rectangle_202" data-name="Rectangle 202" width="120" height="60" transform="translate(800 2063)" fill="#dcd5d5"/>
    </clipPath>
    <clipPath id="clip-path-37">
      <rect id="Rectangle_203" data-name="Rectangle 203" width="120" height="60" transform="translate(665 2062)" fill="#dcd5d5"/>
    </clipPath>
    <clipPath id="clip-path-38">
      <rect id="Rectangle_205" data-name="Rectangle 205" width="120" height="60" transform="translate(925 2077)" fill="#dcd5d5"/>
    </clipPath>
  </defs>
  <g id="Group_462" data-name="Group 462" transform="translate(-435 -1775)">
    <g id="Mask_Group_84" data-name="Mask Group 84" transform="translate(-258 -286)" clip-path="url(#clip-path)">
      <g id="python-3" transform="translate(693 2076)">
        <path id="Shape" d="M46.45,14.744q0-5.489-3.148-5.641a5.941,5.941,0,0,0-2.444.4,3.589,3.589,0,0,0-1.283.674v8.735a6.26,6.26,0,0,0,3.574,1.166Q46.448,19.859,46.45,14.744Zm2.589.152a7.731,7.731,0,0,1-1.321,4.63,4.876,4.876,0,0,1-4.087,2.143,7.279,7.279,0,0,1-4.057-1.225v7.939l-2.252-.8V9.962A5.031,5.031,0,0,1,38.744,8.8a9.8,9.8,0,0,1,4.885-1.2l.032.032a4.489,4.489,0,0,1,4.05,2.143A9.069,9.069,0,0,1,49.039,14.9ZM62.8,20.106a12.326,12.326,0,0,1-.754,5.181,5.308,5.308,0,0,1-2.885,2.3,11.105,11.105,0,0,1-3.73.737l-.372-1.411a17.975,17.975,0,0,0,2.868-.551,3.786,3.786,0,0,0,2.252-1.685,8.414,8.414,0,0,0,.493-3.525v-.583a11.62,11.62,0,0,1-4.84,1.041A4.465,4.465,0,0,1,52.9,20.567a3.535,3.535,0,0,1-1.419-2.881V8.368L53.734,7.6V16.98a2.843,2.843,0,0,0,.975,2.315,3.7,3.7,0,0,0,2.525.781,6.337,6.337,0,0,0,3.313-1.2V7.939H62.8V20.106Zm8.79,1.44q-.37.031-.742.032a4.447,4.447,0,0,1-2.976-.906,3.123,3.123,0,0,1-1.062-2.506V9.347H65.268V7.939H66.81V4.2l2.249-.8V7.939h2.53V9.347h-2.53V18.1a2.116,2.116,0,0,0,.68,1.784,3.455,3.455,0,0,0,1.85.492v1.166Zm13.633-.184H82.97V12.72a4.068,4.068,0,0,0-.618-2.268,2.253,2.253,0,0,0-1.983-1.073A7.332,7.332,0,0,0,76.5,11V21.362H74.245V.705L76.5,0V9.409a7.874,7.874,0,0,1,4.718-1.563,3.771,3.771,0,0,1,2.9,1.2,4.2,4.2,0,0,1,1.111,2.974v9.347ZM97.19,14.391a6.845,6.845,0,0,0-.8-3.486,3.364,3.364,0,0,0-2.959-1.771q-3.7.213-3.7,5.271a8.629,8.629,0,0,0,.774,3.873,3.11,3.11,0,0,0,2.971,1.95q3.717-.03,3.717-5.837Zm2.466.015a7.935,7.935,0,0,1-1.542,5,5.558,5.558,0,0,1-4.686,2.236A5.446,5.446,0,0,1,88.8,19.4a8.037,8.037,0,0,1-1.51-5,7.108,7.108,0,0,1,1.633-4.752A5.641,5.641,0,0,1,93.457,7.6a5.734,5.734,0,0,1,4.564,2.053,7.1,7.1,0,0,1,1.634,4.752Zm12.909,6.957h-2.252V12.231a3.046,3.046,0,0,0-.909-2.347,3.313,3.313,0,0,0-2.421-.811,5.429,5.429,0,0,0-3.052,1.041V21.362h-2.252V9.837A11.119,11.119,0,0,1,105.255,8a10.977,10.977,0,0,1,2.715-.4,7.08,7.08,0,0,1,1.511.154,4.354,4.354,0,0,1,2.158,1.134,2.992,2.992,0,0,1,.926,2.207V21.362Z" transform="translate(-1.204)" fill="#080808"/>
        <path id="Shape-2" data-name="Shape" d="M13.88.814a19.431,19.431,0,0,0-3.238.275c-2.868.5-3.388,1.558-3.388,3.5V7.16H14.03v.856H4.71A4.226,4.226,0,0,0,.477,11.432a12.526,12.526,0,0,0,0,6.848c.482,1.995,1.632,3.416,3.6,3.416h2.33V18.618a4.294,4.294,0,0,1,4.233-4.186h6.769A3.4,3.4,0,0,0,20.8,11.008V4.592a3.771,3.771,0,0,0-3.388-3.5A21.256,21.256,0,0,0,13.88.814ZM10.215,2.88A1.284,1.284,0,1,1,8.944,4.168,1.282,1.282,0,0,1,10.215,2.88Z" transform="translate(0 -0.026)" fill="#080808"/>
        <path id="Shape-3" data-name="Shape" d="M21.886,8.256v2.992a4.334,4.334,0,0,1-4.233,4.272H10.884A3.447,3.447,0,0,0,7.5,18.944v6.416c0,1.826,1.6,2.9,3.388,3.424a11.4,11.4,0,0,0,6.769,0c1.706-.491,3.388-1.48,3.388-3.424V22.793H14.272v-.856H24.429c1.97,0,2.7-1.366,3.388-3.416a11.5,11.5,0,0,0,0-6.848C27.33,9.723,26.4,8.256,24.429,8.256ZM18.079,24.5a1.284,1.284,0,1,1-1.272,1.28A1.275,1.275,0,0,1,18.079,24.5Z" transform="translate(-0.242 -0.266)" fill="#080808"/>
        <path id="Shape-4" data-name="Shape" d="M119.572,6.049h.395V3.587h.935V3.294h-2.265v.294h.936V6.049m1.68,0h.337V3.8l.732,2.248h.375l.764-2.241V6.049h.368V3.294h-.487l-.834,2.361-.71-2.361h-.544V6.049" transform="translate(-3.827 -0.106)" fill="#080808"/>
      </g>
    </g>
    <g id="Mask_Group_85" data-name="Mask Group 85" transform="translate(-159 -228)" clip-path="url(#clip-path-2)">
      <g id="Group_390" data-name="Group 390" transform="translate(244 -10.932)">
        <path id="Exclusion_5" data-name="Exclusion 5" d="M-12058.68,56.814h0a49.709,49.709,0,0,1-11.084-1.225c-3.01-.71-5.252-1.635-6.151-2.538-1.1-1.1-2.156-3.489-2.907-6.567a45.358,45.358,0,0,1-1.168-11.154,42.4,42.4,0,0,1,2.062-12.748,28.554,28.554,0,0,1,6.788-11.345,39.678,39.678,0,0,1,12.193-8.389A32.986,32.986,0,0,1-12045.9,0a25.2,25.2,0,0,1,9.02,1.6,21.342,21.342,0,0,1,7.543,4.863,21.494,21.494,0,0,1,5.378,9.041,26.631,26.631,0,0,1,.895,10.878,33.793,33.793,0,0,1-2.626,9.633l-1.006.044c-1.194,2.277-2.613,3.52-4.217,3.7a8.048,8.048,0,0,0,.651-2.619,1.019,1.019,0,0,0-1.134-1.164,2.357,2.357,0,0,0-2.1,1.273,4.678,4.678,0,0,0-.765,2.4,1.779,1.779,0,0,0,1.252,1.643,19.586,19.586,0,0,1-1.719,2.177V43.45c-.82.82-1.467,1.439-1.919,1.84a1.977,1.977,0,0,1-1.252.6c-.588,0-.886-.42-.886-1.249a18.441,18.441,0,0,1,.988-4.411l1.286-4.263h-.815l-2.975,1.646a2.584,2.584,0,0,0-2.547-1.674,6.322,6.322,0,0,0-3.316,1.222,9.964,9.964,0,0,0-3.08,3.2,8.149,8.149,0,0,0-1.14,3.2,15.15,15.15,0,0,1-2.517,2.177,3.577,3.577,0,0,1-1.834.515c-1.632,0-2.655-.955-3.041-2.838,4.249-1.246,6.4-2.89,6.4-4.887a2.315,2.315,0,0,0-.815-1.834,3.238,3.238,0,0,0-2.168-.7,6.223,6.223,0,0,0-4.742,2.5,8.424,8.424,0,0,0-2.122,5.02,19.922,19.922,0,0,1-2.637,2.292,3.143,3.143,0,0,1-1.674.564,1.4,1.4,0,0,1-1.237-.74,3.8,3.8,0,0,1-.464-2.01c0-.4.04-1.115.115-2.08a26.046,26.046,0,0,0,4.278-5.936,12.921,12.921,0,0,0,1.367-5.748,4.25,4.25,0,0,0-.271-1.664c-.178-.41-.41-.618-.69-.618a.894.894,0,0,0-.261.058l-3.7,1.367a47.02,47.02,0,0,0-3.217,7.888,25.559,25.559,0,0,0-1.321,7.331,5.1,5.1,0,0,0,.952,3.244,3.048,3.048,0,0,0,2.51,1.21,5.692,5.692,0,0,0,2.844-.867,20.688,20.688,0,0,0,3.469-2.683v-.006a4.288,4.288,0,0,0,1.128,2.289,4.248,4.248,0,0,0,3.2,1.267,6.276,6.276,0,0,0,3.243-.867,17.506,17.506,0,0,0,3.187-2.553,4.493,4.493,0,0,0,.853,2.219,2.655,2.655,0,0,0,2.173,1.2,4.048,4.048,0,0,0,2.541-.988,15.245,15.245,0,0,0,2.687-3.071c-.057,1.72.219,2.907.821,3.529a1.8,1.8,0,0,0,1.346.531,3.509,3.509,0,0,0,1.919-.67,30.778,30.778,0,0,0,3.332-2.88,16.719,16.719,0,0,0,2.968-3.753,8.226,8.226,0,0,0,2.359-.773,13.33,13.33,0,0,0-2.152,4.879,39.634,39.634,0,0,0,5.054-7.723c.28-.565.553-1.15.809-1.738l.318-.014-1.352,3.723c-.542,1.506-.919,2.615-1.092,3.208a5.546,5.546,0,0,0-.248,1.507,1.553,1.553,0,0,0,.285.976.917.917,0,0,0,.764.364,1.694,1.694,0,0,0,1-.355c.324-.245,1.047-.908,2.149-1.971a16.842,16.842,0,0,1,.4-2.113,29.175,29.175,0,0,1,1.753-4.714l3.55-.682a34.074,34.074,0,0,0-1.467,4.742,27.945,27.945,0,0,1,3.786-3.69,4.435,4.435,0,0,1,2.489-1.025,1.59,1.59,0,0,1,1.236.561,2.05,2.05,0,0,1,.494,1.4,14.922,14.922,0,0,1-1.252,4.6,10.751,10.751,0,0,0-.857,2.853c0,.581.24.876.715.876.705,0,1.862-.946,3.441-2.81v1.674c-2.229,2.356-4.167,3.55-5.761,3.55a1.989,1.989,0,0,1-1.573-.685,2.7,2.7,0,0,1-.6-1.831,14.647,14.647,0,0,1,1.282-4.757,8.594,8.594,0,0,0,.685-2.183c0-.31-.122-.467-.363-.467a1.124,1.124,0,0,0-.54.2,6.955,6.955,0,0,0-.712.567c-.24.222-.515.5-.815.816-.277.287-.561.6-.843.931l-.815.946a3.039,3.039,0,0,0-.671,1.382,21.983,21.983,0,0,0-.291,2.271c-.029.5-.045,1.2-.045,2.083l-3.213.755h0c-.106-1.305-.16-2.289-.16-2.924,0-.182,0-.37.006-.521-2.358,2.286-4.206,3.444-5.49,3.444a1.865,1.865,0,0,1-1.5-.746,2.852,2.852,0,0,1-.612-1.858,4.565,4.565,0,0,1,.046-.62c-.8.958-1.659,1.9-2.56,2.8a27.663,27.663,0,0,1-11.548,6.7A44.137,44.137,0,0,1-12058.68,56.814Zm8.219-30.908a2.024,2.024,0,0,0-.988.252,1.558,1.558,0,0,0-.68.761,2.84,2.84,0,0,0-.221,1.173,2.29,2.29,0,0,0,.516,1.6,1.8,1.8,0,0,0,1.37.555,1.7,1.7,0,0,0,1.146-.4,1.8,1.8,0,0,0,.579-1.119l-.691-.091a1.261,1.261,0,0,1-.352.782.99.99,0,0,1-.691.252,1.037,1.037,0,0,1-.833-.376,1.865,1.865,0,0,1-.321-1.216,1.831,1.831,0,0,1,.33-1.207,1.091,1.091,0,0,1,.864-.382.9.9,0,0,1,.6.212,1.158,1.158,0,0,1,.345.631l.683-.106a1.6,1.6,0,0,0-.549-.973A1.737,1.737,0,0,0-12050.461,25.906Zm-5.263,2.9-.694.109a1.57,1.57,0,0,0,.539.994,1.957,1.957,0,0,0,1.234.337,2.2,2.2,0,0,0,.876-.17,1.358,1.358,0,0,0,.591-.479,1.2,1.2,0,0,0,.206-.664,1.011,1.011,0,0,0-.169-.6,1.061,1.061,0,0,0-.464-.37,8.745,8.745,0,0,0-1.04-.324c-.363-.1-.555-.157-.619-.182a.645.645,0,0,1-.272-.185.4.4,0,0,1-.085-.249.462.462,0,0,1,.209-.376,1.153,1.153,0,0,1,.691-.161,1.011,1.011,0,0,1,.634.179.79.79,0,0,1,.272.5l.686-.094a1.448,1.448,0,0,0-.246-.646,1.167,1.167,0,0,0-.539-.379,2.427,2.427,0,0,0-.858-.142,2.209,2.209,0,0,0-.606.085,1.511,1.511,0,0,0-.451.206,1.191,1.191,0,0,0-.346.391,1.118,1.118,0,0,0-.127.518,1.089,1.089,0,0,0,.154.555,1.088,1.088,0,0,0,.455.394,6.349,6.349,0,0,0,1.069.34,3.128,3.128,0,0,1,.722.236.422.422,0,0,1,.21.376.593.593,0,0,1-.237.461,1.08,1.08,0,0,1-.721.2,1.153,1.153,0,0,1-.746-.221A.987.987,0,0,1-12055.724,28.8Zm14.755-2.8v.549h.516v2.389a2.459,2.459,0,0,0,.085.828.671.671,0,0,0,.3.318,1.189,1.189,0,0,0,.594.121,2.831,2.831,0,0,0,.531-.061l-.1-.622a2.339,2.339,0,0,1-.309.027.49.49,0,0,1-.24-.052.28.28,0,0,1-.121-.136,1.219,1.219,0,0,1-.036-.385V26.549h.706V26h-.706V24.551l-.7.424V26Zm-1.386,0v4.15h.7V26Zm-2.8,2.031h0l1.37,2.119h.867l-1.746-2.607,1.585-1.543h-.909l-1.664,1.692V24.423h-.7V30.15h.7V28.507l.493-.476Zm-2.975-2.031v4.15h.7V26Zm5.778-1.576v.809h.7v-.809Zm-5.778,0v.809h.7v-.809Zm2.759,21.5a1.2,1.2,0,0,1-.979-.488,2,2,0,0,1-.388-1.273,9.95,9.95,0,0,1,1.3-4.554c.863-1.642,1.791-2.474,2.756-2.474a1.2,1.2,0,0,1,.977.458,2.025,2.025,0,0,1,.363,1.273,10.119,10.119,0,0,1-1.288,4.578C-12043.487,45.09-12044.411,45.924-12045.374,45.924Zm-12.512-3.493h0a7.392,7.392,0,0,1,.873-3.8c.578-.97,1.2-1.461,1.834-1.461.674,0,1.016.47,1.016,1.4,0,1.869-1.252,3.171-3.722,3.868Zm-8.831-3v0a50.526,50.526,0,0,1,2.012-7.5c.683-1.778,1.209-2.68,1.564-2.68.166,0,.3.11.409.327a2.045,2.045,0,0,1,.158.867,11.085,11.085,0,0,1-1.149,4.387,17.863,17.863,0,0,1-2.992,4.6Z" transform="translate(12464.91 2075.932)" fill="#080808"/>
        <path id="path7" d="M148.621,287.763c-7.464-7.464-18.326-8.706-24.261-2.771s-4.693,16.8,2.772,24.26,21.727,5.306,24.26,2.771C153.441,309.977,156.087,295.228,148.621,287.763Z" transform="translate(229.392 1817.855)" fill="#080808"/>
      </g>
    </g>
    <g id="Mask_Group_86" data-name="Mask Group 86" transform="translate(-112 -171)" clip-path="url(#clip-path-3)">
      <g id="tensorflow-ar21" transform="translate(541.35 2066.04)">
        <path id="Path_890" data-name="Path 890" d="M17.832,31.153l4.06-2.356,4,2.356-4,2.306L17.832,31.2ZM5.65,24.185,21.9,14.96l12.08,6.868-4,6.968-8.07-4.612L9.73,31.1Z" fill="#080808"/>
        <path id="Path_891" data-name="Path 891" d="M17.832,40.376V35.764l4-2.306,4.06-2.306v4.612l-4,2.306v4.612l-4.06,2.356Zm0-9.223-4.06-2.306L9.712,31.1V26.49l12.18-6.918V28.8Zm12.08-4.662V24.185l4.06-2.356.05,4.612L29.962,28.8Z" fill="#1e1d1d"/>
        <path id="Path_892" data-name="Path 892" d="M13.77,42.582V28.847l4-2.256.05,4.562,4.06,2.256v4.662l-4.06-2.156v9.123ZM7.656,29.9,5.65,28.7v-4.51l4.06,2.306V31.1Zm14.236-5.715V19.573l8.02,4.612.05,4.612Z" fill="#2b2b2b"/>
        <path id="Path_893" data-name="Path 893" d="M41.825,25.778v10.6H39.962v-10.6h-3.62V23.95h9.1v1.827Zm9.785,3.85a5.24,5.24,0,0,1,.151,1.41L45.75,32.82c.047.45.034.267.175.587a2.68,2.68,0,0,0,.532.8,1.978,1.978,0,0,0,.7.46,2.193,2.193,0,0,0,.816.15,2.829,2.829,0,0,0,1.073-.195,3.99,3.99,0,0,0,.949-.55l1.082,1.17a4.41,4.41,0,0,1-1.384.9,4.724,4.724,0,0,1-1.827.32,3.86,3.86,0,0,1-1.552-.319,3.55,3.55,0,0,1-1.286-.94,4.584,4.584,0,0,1-.87-1.526,6.183,6.183,0,0,1-.32-2.058,6.548,6.548,0,0,1,.3-2.093,4.618,4.618,0,0,1,.834-1.517,3.48,3.48,0,0,1,1.286-.931,4.21,4.21,0,0,1,1.659-.319,3.777,3.777,0,0,1,1.73.373,3.62,3.62,0,0,1,1.224,1,4.34,4.34,0,0,1,.727,1.5Zm-1.747.42a2.149,2.149,0,0,0-.426-.953,1.56,1.56,0,0,0-.665-.506,2.521,2.521,0,0,0-.967-.14,2.173,2.173,0,0,0-1.632.7,3.776,3.776,0,0,0-.424,2.117Zm8.5,6.214v-5.27a3.03,3.03,0,0,0-.506-1.987,1.754,1.754,0,0,0-1.4-.568,1.717,1.717,0,0,0-1.42.62,2.742,2.742,0,0,0-.5,1.756v5.446H52.7v-9.31h1.827v.887a2.392,2.392,0,0,1,.985-.8,3.132,3.132,0,0,1,1.357-.284A2.992,2.992,0,0,1,59.344,27.8a4.9,4.9,0,0,1,.843,3.122v5.34H58.36Zm9.332-2.448a2.645,2.645,0,0,1-.293,1.3,2.4,2.4,0,0,1-.772.843,3.373,3.373,0,0,1-1.1.46,6,6,0,0,1-1.322.142,5.652,5.652,0,0,1-1.907-.337,6.53,6.53,0,0,1-1.659-.852L61.463,34a5.17,5.17,0,0,0,1.357.692,4.324,4.324,0,0,0,1.357.23q1.7,0,1.7-1.03a.952.952,0,0,0-.576-.85,12.321,12.321,0,0,0-1.588-.7,9.6,9.6,0,0,1-1.268-.576,3.747,3.747,0,0,1-.852-.63,2,2,0,0,1-.47-.754,2.988,2.988,0,0,1-.142-.967,2.519,2.519,0,0,1,.23-1.1,2.15,2.15,0,0,1,.656-.8,3.015,3.015,0,0,1,1-.48,4.764,4.764,0,0,1,1.277-.16,5.194,5.194,0,0,1,1.712.284,5.3,5.3,0,0,1,1.446.745L66.52,29.3a4.315,4.315,0,0,0-1.153-.6,3.916,3.916,0,0,0-1.26-.195,1.554,1.554,0,0,0-.976.24.75.75,0,0,0-.3.612.76.76,0,0,0,.071.328.832.832,0,0,0,.266.3,3,3,0,0,0,.523.328q.421.21.86.381l1.366.577a4.26,4.26,0,0,1,.985.621,2.19,2.19,0,0,1,.594.807,2.866,2.866,0,0,1,.195,1.118Zm8.5-2.147a6.208,6.208,0,0,1-.32,2.067,4.357,4.357,0,0,1-.887,1.543,3.79,3.79,0,0,1-1.33.958,4.124,4.124,0,0,1-1.668.328,3.764,3.764,0,0,1-2.927-1.331,4.658,4.658,0,0,1-.86-1.526,6,6,0,0,1-.3-1.987,6.074,6.074,0,0,1,.32-2.04,4.609,4.609,0,0,1,.878-1.535,3.62,3.62,0,0,1,1.313-.958,4.116,4.116,0,0,1,1.64-.328,3.941,3.941,0,0,1,2.972,1.313,4.392,4.392,0,0,1,.87,1.517,5.985,5.985,0,0,1,.3,1.978Zm-1.845.053a3.66,3.66,0,0,0-.63-2.28,2.071,2.071,0,0,0-1.747-.843,1.89,1.89,0,0,0-1.64.843,3.8,3.8,0,0,0-.594,2.227,3.712,3.712,0,0,0,.64,2.35,2.04,2.04,0,0,0,1.685.807,1.837,1.837,0,0,0,.94-.248,2.36,2.36,0,0,0,.727-.665,3.09,3.09,0,0,0,.461-.985,4.448,4.448,0,0,0,.16-1.206Zm7.735-2.732a3.09,3.09,0,0,0-.621-.248,2.879,2.879,0,0,0-.78-.1,1.618,1.618,0,0,0-1.348.6,2.852,2.852,0,0,0-.48,1.792v5.322H77.024V27.043h1.827v.887a2.594,2.594,0,0,1,2.129-1.082,3.606,3.606,0,0,1,.93.1,2.11,2.11,0,0,1,.647.293l-.48,1.74Z" fill="#080808"/>
        <path id="Path_894" data-name="Path 894" d="M85.148,25.778v3.247h3.566v1.827H85.148v5.517H83.285V23.95h8v1.827Zm6.44,10.59V24.394l1.827-.958V36.37Zm11.16-4.7a6.234,6.234,0,0,1-.32,2.067,4.5,4.5,0,0,1-.887,1.543,3.79,3.79,0,0,1-1.331.958,4.158,4.158,0,0,1-1.668.328,3.764,3.764,0,0,1-2.927-1.331,4.658,4.658,0,0,1-.86-1.526,6,6,0,0,1-.3-1.987,6.074,6.074,0,0,1,.32-2.04,4.609,4.609,0,0,1,.878-1.535,3.622,3.622,0,0,1,1.313-.958,4.116,4.116,0,0,1,1.64-.328,3.941,3.941,0,0,1,2.972,1.313,4.392,4.392,0,0,1,.87,1.517,5.985,5.985,0,0,1,.3,1.978Zm-1.845.053a3.66,3.66,0,0,0-.63-2.28,2.071,2.071,0,0,0-1.747-.843,1.893,1.893,0,0,0-1.64.843,3.8,3.8,0,0,0-.594,2.227,3.712,3.712,0,0,0,.64,2.35,2.04,2.04,0,0,0,1.685.807,1.83,1.83,0,0,0,.94-.248,2.36,2.36,0,0,0,.727-.665,3.079,3.079,0,0,0,.46-.985,4.493,4.493,0,0,0,.16-1.206Zm10.857,4.648H110.2l-1.26-4.7-.275-1.09-.2-.9-.2.905-.275,1.1-1.242,4.684h-1.56l-2.555-9.314h1.8l1.1,4.524.266,1.118.195.923.23-.923.284-1.118,1.242-4.524h1.473l1.26,4.542.275,1.11.222.914.2-.93.257-1.11,1.1-4.524h1.8Z" fill="#080808"/>
      </g>
    </g>
    <g id="Mask_Group_87" data-name="Mask Group 87" transform="translate(41 -279)" clip-path="url(#clip-path-4)">
      <g id="Theano_logo" transform="translate(544 2070)">
        <path id="Path_895" data-name="Path 895" d="M8.135,1.987V7.343h7.04V9.752H8.135v10.24a4.191,4.191,0,0,0,.792,2.914,3.743,3.743,0,0,0,2.762.825h3.486v2.476h-3.79q-3.486,0-4.918-1.4T5.036,19.992V9.752H0V7.343H5.036V1.987Zm28.11,12.531V26.206H33.128V14.518a6.279,6.279,0,0,0-.893-3.739,3.26,3.26,0,0,0-2.8-1.2,3.962,3.962,0,0,0-3.352,1.549,7.2,7.2,0,0,0-1.162,4.413V26.206h-3.1V0h3.1V10.172a5.778,5.778,0,0,1,2.24-2.442,6.43,6.43,0,0,1,3.352-.842,5,5,0,0,1,4.295,1.9q1.431,1.886,1.432,5.726Zm35.621,2.206H70.838a7.179,7.179,0,0,0-4.093.96,3.212,3.212,0,0,0-1.364,2.829,3.408,3.408,0,0,0,1.028,2.644,4.051,4.051,0,0,0,2.846.943,4.945,4.945,0,0,0,4.025-1.768,7.6,7.6,0,0,0,1.482-4.918v-.691Zm6.013-1.28V26.207H74.762v-2.8a6.44,6.44,0,0,1-2.51,2.493,7.744,7.744,0,0,1-3.655.792A6.435,6.435,0,0,1,64,25.078a5.737,5.737,0,0,1-1.718-4.362,5.685,5.685,0,0,1,2.105-4.783Q66.509,14.3,70.6,14.3h4.16v-.488a4.234,4.234,0,0,0-1.145-3.267,5.255,5.255,0,0,0-3.6-1.028,11.774,11.774,0,0,0-3.2.455,13.952,13.952,0,0,0-3.15,1.33V8.2a21,21,0,0,1,3.284-.977,14.715,14.715,0,0,1,3.065-.337A10.331,10.331,0,0,1,74,7.579,6.277,6.277,0,0,1,76.7,9.65a5.226,5.226,0,0,1,.91,2.089,18.74,18.74,0,0,1,.269,3.705Zm20.615-.926V26.206H95.377V14.518a6.279,6.279,0,0,0-.893-3.739,3.26,3.26,0,0,0-2.8-1.2,3.962,3.962,0,0,0-3.352,1.549,7.2,7.2,0,0,0-1.162,4.413V26.206h-3.1V7.343h3.1v2.829a5.778,5.778,0,0,1,2.24-2.442,6.43,6.43,0,0,1,3.352-.842,5,5,0,0,1,4.295,1.9q1.431,1.886,1.432,5.726Zm13.423-5a4.006,4.006,0,0,0-3.571,1.836,9.935,9.935,0,0,0-1.213,5.44,9.987,9.987,0,0,0,1.213,5.44,4.407,4.407,0,0,0,7.158,0,9.987,9.987,0,0,0,1.213-5.44,9.935,9.935,0,0,0-1.213-5.44,4.022,4.022,0,0,0-3.587-1.836Zm0-2.627a7.284,7.284,0,0,1,6,2.543Q120,11.975,120,16.791q0,4.834-2.072,7.377a8.4,8.4,0,0,1-12.008,0q-2.071-2.543-2.071-7.377,0-4.817,2.071-7.36a7.285,7.285,0,0,1,6-2.543Z" fill="#080808" stroke="#fff" stroke-linejoin="round" stroke-width="0.7"/>
        <path id="Path_896" data-name="Path 896" d="M122.524,38.053c-2.495-.485-3.954-1.15-5.359-3.164a7.263,7.263,0,0,1-1.2-4.717,3.427,3.427,0,0,1,.219-1.682l.23-.556.274.594a3.63,3.63,0,0,0,.826,1.293c.12.076.152-.083.217-1.094.042-.65.1-1.368.138-1.6.062-.412.064-.414.607-.62,1.034-.393,2.958-.444,6.424-.168,1.588.127,5.007.2,5.37-.118s.422-.475.3-1.369a4.959,4.959,0,0,0-.438-2.176,5.788,5.788,0,0,0-5.623-3.264,5.661,5.661,0,0,0-5.238,2.7c-.977,1.641-1.412,3.4-1.67,6.743l-.072.938-.217-.313a8.566,8.566,0,0,1-1.239-6.095,9.079,9.079,0,0,1,2.2-4.161,9.814,9.814,0,0,1,7.967-2.121,7.461,7.461,0,0,1,4.369,2.2,9.073,9.073,0,0,1,2.192,4.11,7.435,7.435,0,0,1,.073,3.012c-.167.422-1.4,1.795-1.438,1.6a.443.443,0,0,1,.079-.3c.169-.24.016-.339-.241-.156-.2.143-.235.147-.351.04-.246-.225-.336.009-.111.286.26.32.265.428.018.428a.39.39,0,0,0-.246.066c-.235.289-3.882.357-6.777.126a12.671,12.671,0,0,0-4.242.091,2.68,2.68,0,0,0-.908,1.368,7.1,7.1,0,0,0,.14,2.643,5.3,5.3,0,0,0,1.65,2.094,6.571,6.571,0,0,0,7.565.041c1.046-.8,1.89-2.078,1.642-2.492a1.044,1.044,0,0,1-.114-.452,1.421,1.421,0,0,1,.5-.9,1.342,1.342,0,0,0,.59-.978c0-.381.135-.635.337-.635.315,0,.278-.979-.054-1.4-.254-.322-.231-.388.062-.179.19.135.247.149.247.06a.337.337,0,0,1,.167-.22c.149-.092.157-.087.074.047a2.789,2.789,0,0,0-.064.893c.026.673.05.755.258.88.187.112.239.23.281.646a2.255,2.255,0,0,0,.372,1.021c.26.416.31.574.269.849a.9.9,0,0,1-.249.5,11.319,11.319,0,0,0-1.352,1.779,9.016,9.016,0,0,1-1.2,1.891,5.37,5.37,0,0,1-2.452,1.56,8.222,8.222,0,0,1-4.8.413Z" transform="translate(-74.274 -10.845)" fill="#080808" stroke="#fff" stroke-width="0.74"/>
      </g>
    </g>
    <g id="Mask_Group_88" data-name="Mask Group 88" transform="translate(236 -219)" clip-path="url(#clip-path-5)">
      <g id="caffe" transform="translate(316.883 2037.752)">
        <path id="Path_897" data-name="Path 897" d="M52.61,54.893h1.079q.207,1.162.373,2.925a23.833,23.833,0,0,1,.083,3.422,5.13,5.13,0,0,1-1.493.809,14.388,14.388,0,0,1-1.846.519,15.7,15.7,0,0,1-1.991.29q-1.016.083-1.929.083a20.06,20.06,0,0,1-6.222-.892,11.794,11.794,0,0,1-4.625-2.717,11.977,11.977,0,0,1-2.9-4.667,20.047,20.047,0,0,1-1.016-6.741,18.872,18.872,0,0,1,1.12-6.907,12.671,12.671,0,0,1,3.028-4.646A11.668,11.668,0,0,1,40.7,33.737a16.936,16.936,0,0,1,5.31-.83,25.35,25.35,0,0,1,4.6.353A12.5,12.5,0,0,1,53.9,34.318q0,.664-.041,1.556-.045.945-.124,1.888-.083,1-.207,1.95t-.249,1.742H52.195l-2.157-5.974a4.041,4.041,0,0,0-1.514-.332q-1.045-.082-2.095-.083a10.11,10.11,0,0,0-3.92.767A8.669,8.669,0,0,0,39.273,38.2a11.935,11.935,0,0,0-2.219,4.024,17.66,17.66,0,0,0-.83,5.7,17.8,17.8,0,0,0,.747,5.331,11.654,11.654,0,0,0,2.157,4.065,9.325,9.325,0,0,0,3.443,2.572,11.351,11.351,0,0,0,4.6.892,10.528,10.528,0,0,0,2.282-.207,2.32,2.32,0,0,0,1.2-.539Zm21.032,2.116q0,.913.041,1.576T73.766,60l2.862.415v.871a15.379,15.379,0,0,1-2.3.954,17.934,17.934,0,0,1-2.427.622H70.862a6.382,6.382,0,0,1-.5-2.095q-.083-1.141-.124-2.51h-.207a5.738,5.738,0,0,1-.643,1.68,5.645,5.645,0,0,1-1.245,1.514,6.2,6.2,0,0,1-4.169,1.493,5.71,5.71,0,0,1-4.127-1.535,5.327,5.327,0,0,1-1.6-4.024,5.807,5.807,0,0,1,.767-3.132,5.2,5.2,0,0,1,2.261-1.929,12.929,12.929,0,0,1,3.692-1.016q2.2-.311,5.1-.477a23.834,23.834,0,0,0,.1-3.215,7.716,7.716,0,0,0-.456-2.447,3.422,3.422,0,0,0-1.162-1.576,3.334,3.334,0,0,0-2.012-.56q-.581,0-1.307.062a4.826,4.826,0,0,0-1.431.353l-1.95,4.978H60.782q-.415-1.245-.726-2.572a15.946,15.946,0,0,1-.394-2.614,14.024,14.024,0,0,1,3.505-1.493,15.934,15.934,0,0,1,4.294-.539,7.96,7.96,0,0,1,3.381.6,4.78,4.78,0,0,1,1.929,1.556,5.29,5.29,0,0,1,.871,2.116,13.191,13.191,0,0,1,.207,2.323q0,2.489-.1,4.791t-.1,4.418Zm-8.006,3.36a3.863,3.863,0,0,0,1.825-.415,4.912,4.912,0,0,0,1.328-1,6.027,6.027,0,0,0,.871-1.182,5.448,5.448,0,0,0,.456-1.016V52.4a25.442,25.442,0,0,0-3.941.249,6.629,6.629,0,0,0-2.406.788,2.874,2.874,0,0,0-1.2,1.348,4.831,4.831,0,0,0-.332,1.846,3.884,3.884,0,0,0,.913,2.759,3.245,3.245,0,0,0,2.489.975ZM90.277,31.248q.373,0,.871.041t1.037.1q.539.062,1.037.166a7.823,7.823,0,0,1,.871.228q-.124,1.369-.353,2.551a15.439,15.439,0,0,1-.56,2.136H92.143l-1.825-3.568a7.381,7.381,0,0,0-2.053.249,2.75,2.75,0,0,0-1.41.954,4.793,4.793,0,0,0-.83,2.033,18.154,18.154,0,0,0-.27,3.485V41.7h4.771v2.074H85.755V60.411a15.015,15.015,0,0,1,3.983,1v1.037H79.284V61.406a8.155,8.155,0,0,1,2.738-1V43.776H78.869V42.7a11.481,11.481,0,0,1,3.153-1.369V39.876a12.385,12.385,0,0,1,.622-4.252,6.364,6.364,0,0,1,1.742-2.655,6.211,6.211,0,0,1,2.634-1.348,13.581,13.581,0,0,1,3.257-.373Zm14.187,0q.373,0,.871.041t1.037.1q.539.062,1.037.166a7.822,7.822,0,0,1,.871.228q-.124,1.369-.353,2.551a15.439,15.439,0,0,1-.56,2.136h-1.037l-1.825-3.568a7.381,7.381,0,0,0-2.053.249,2.75,2.75,0,0,0-1.41.954,4.793,4.793,0,0,0-.83,2.033,18.154,18.154,0,0,0-.27,3.485V41.7h4.771v2.074H99.942V60.411a15.015,15.015,0,0,1,3.983,1v1.037H93.471V61.406a8.155,8.155,0,0,1,2.738-1V43.776H93.056V42.7a11.481,11.481,0,0,1,3.153-1.369V39.876a12.384,12.384,0,0,1,.622-4.252,6.364,6.364,0,0,1,1.742-2.655,6.211,6.211,0,0,1,2.634-1.348A13.581,13.581,0,0,1,104.464,31.248ZM123.712,59.54a4.142,4.142,0,0,1-1.037,1.328,7.5,7.5,0,0,1-1.618,1.079,9.7,9.7,0,0,1-1.991.726,9.031,9.031,0,0,1-2.2.27,11.28,11.28,0,0,1-4.314-.767,8.163,8.163,0,0,1-3.111-2.2,9.675,9.675,0,0,1-1.888-3.423,14.545,14.545,0,0,1-.643-4.48q0-5.31,2.448-8.089a8.743,8.743,0,0,1,6.928-2.779,10.589,10.589,0,0,1,2.863.394,6.449,6.449,0,0,1,4.293,3.733,9.109,9.109,0,0,1,.684,3.754q0,.705-.062,1.431a14.123,14.123,0,0,1-.228,1.556H110.894a11.732,11.732,0,0,0,.436,3.256,7.712,7.712,0,0,0,1.307,2.634,6.118,6.118,0,0,0,2.2,1.763,7.062,7.062,0,0,0,3.111.643,10.971,10.971,0,0,0,2.945-.415,5.636,5.636,0,0,0,2.24-1.079l.581.664Zm-7.591-16.51a4.3,4.3,0,0,0-3.609,1.6q-1.245,1.6-1.493,5.621h9.126q.041-.373.062-.726t.021-.684a7.854,7.854,0,0,0-1-4.231,3.415,3.415,0,0,0-3.111-1.576Z" transform="translate(0 0)" fill="#080808"/>
      </g>
    </g>
    <g id="Mask_Group_89" data-name="Mask Group 89" transform="translate(99 -159)" clip-path="url(#clip-path-6)">
      <path id="Exclusion_6" data-name="Exclusion 6" d="M-12045.849,34.153H-12080V0h34.152V34.152Zm-18.878-16.7h0l6.456,9.543,2.959.024.546-1.116-7.516-10.9,6.918-7.033-.382-1.116h-2.953l-8.606,8.6V7.513l-.628-.658h-2.137l-.628.658V26.333l.661.673,2.059-.009.673-.637V20.021l2.576-2.567Z" transform="translate(12566 2067)" fill="#080808"/>
      <g id="Group_391" data-name="Group 391" transform="translate(530.681 2074)">
        <path id="Path_900" data-name="Path 900" d="M477.106,73.2h2.55V83.305h.092L488.136,73.2h2.888l-6.3,7.681,7.282,12.474H489.15l-6.022-10.477-3.472,4.086v6.39h-2.55V73.2Zm16.222,12.72a9.043,9.043,0,0,1,.568-3.3A7.73,7.73,0,0,1,495.4,80.14a6.532,6.532,0,0,1,2.135-1.551,6.016,6.016,0,0,1,2.489-.538,6.253,6.253,0,0,1,2.535.492,4.944,4.944,0,0,1,1.874,1.413,6.483,6.483,0,0,1,1.152,2.212,9.746,9.746,0,0,1,.4,2.888,8.629,8.629,0,0,1-.092,1.383H495.817a5.936,5.936,0,0,0,1.49,3.84,4.58,4.58,0,0,0,3.487,1.413,5.872,5.872,0,0,0,1.982-.323,8.768,8.768,0,0,0,1.736-.845l.891,1.659a12.724,12.724,0,0,1-2.181,1.075,7.579,7.579,0,0,1-2.734.461,7.311,7.311,0,0,1-2.811-.538,6.663,6.663,0,0,1-2.274-1.536,7.114,7.114,0,0,1-1.521-2.442A9.142,9.142,0,0,1,493.328,85.917Zm10.446-1.137a5.536,5.536,0,0,0-.968-3.518,3.28,3.28,0,0,0-2.719-1.214,3.688,3.688,0,0,0-1.521.323,4.214,4.214,0,0,0-1.306.922,4.918,4.918,0,0,0-.968,1.475,6.822,6.822,0,0,0-.507,2.012h7.988Zm5.9-6.36h2.089l.215,2.7h.092a6.9,6.9,0,0,1,1.859-2.243,3.849,3.849,0,0,1,2.381-.829,3.97,3.97,0,0,1,1.6.307l-.492,2.212a5.706,5.706,0,0,0-.676-.184,4.015,4.015,0,0,0-.768-.061,3.345,3.345,0,0,0-1.982.768,6.111,6.111,0,0,0-1.8,2.673v9.586h-2.519V78.42Zm9.156,11.061a4.141,4.141,0,0,1,2.2-3.764,18.16,18.16,0,0,1,6.99-1.828,6.914,6.914,0,0,0-.139-1.383,3.3,3.3,0,0,0-.492-1.2,2.677,2.677,0,0,0-.937-.845,3.1,3.1,0,0,0-1.506-.323,6.016,6.016,0,0,0-2.443.492,12.073,12.073,0,0,0-2.012,1.106l-1.014-1.751a16.293,16.293,0,0,1,2.55-1.306,8.515,8.515,0,0,1,3.318-.63,4.586,4.586,0,0,1,3.963,1.674,7.39,7.39,0,0,1,1.229,4.47v9.156h-2.089l-.215-1.782h-.061a12.437,12.437,0,0,1-2.32,1.521,5.741,5.741,0,0,1-2.627.63,4.564,4.564,0,0,1-3.149-1.106,3.973,3.973,0,0,1-1.244-3.134Zm2.489-.184a2.136,2.136,0,0,0,.753,1.843,3.053,3.053,0,0,0,1.859.553,4.343,4.343,0,0,0,2.043-.507,9.941,9.941,0,0,0,2.044-1.49V85.548a26.152,26.152,0,0,0-3.165.584,8.282,8.282,0,0,0-2.074.8,2.964,2.964,0,0,0-1.121,1.06,2.613,2.613,0,0,0-.338,1.306Zm13.58.676a10.1,10.1,0,0,0,2.012,1.29,5.464,5.464,0,0,0,2.381.492,3.177,3.177,0,0,0,2.213-.676,2.163,2.163,0,0,0,.737-1.659,1.7,1.7,0,0,0-.307-1.014,3.053,3.053,0,0,0-.784-.753,5.711,5.711,0,0,0-1.09-.568l-1.229-.492q-.812-.282-1.6-.63a6.4,6.4,0,0,1-1.428-.86,4.375,4.375,0,0,1-1.029-1.183,3.152,3.152,0,0,1-.4-1.628,4.039,4.039,0,0,1,.353-1.674,3.855,3.855,0,0,1,1.014-1.352,4.8,4.8,0,0,1,1.613-.891,7.2,7.2,0,0,1,4.746.169,8.074,8.074,0,0,1,2.044,1.2l-1.2,1.6a8.034,8.034,0,0,0-1.6-.953,4.415,4.415,0,0,0-1.812-.369,2.873,2.873,0,0,0-2.074.645,2.041,2.041,0,0,0-.661,1.505,1.509,1.509,0,0,0,.277.906,2.608,2.608,0,0,0,.737.676,6.024,6.024,0,0,0,1.059.522l1.245.476q.811.312,1.613.645a6.177,6.177,0,0,1,1.459.845,4.151,4.151,0,0,1,1.059,1.244,3.573,3.573,0,0,1,.415,1.782,4.2,4.2,0,0,1-.353,1.721A4.1,4.1,0,0,1,543.27,92.4a5,5,0,0,1-1.721.968,7.221,7.221,0,0,1-2.35.353,8.035,8.035,0,0,1-3.041-.584,9.484,9.484,0,0,1-2.52-1.475l1.26-1.69Z" transform="translate(-477.106 -73.197)"/>
      </g>
    </g>
    <g id="Mask_Group_90" data-name="Mask Group 90" transform="translate(80 -279)" clip-path="url(#clip-path-7)">
      <g id="logo_2_" data-name="logo (2)" transform="translate(654.4 1529.1)">
        <g id="Group_392" data-name="Group 392" transform="translate(0.6 540.294)">
          <path id="Path_901" data-name="Path 901" d="M15.991,547.853l-1.625,1.625a6.756,6.756,0,1,1-9.555,9.555,6.718,6.718,0,0,1,0-9.555h0l4.211-4.211.591-.591h0V541.5L3.26,547.853a9.029,9.029,0,1,0,12.731,0Z" transform="translate(-0.6 -541.5)" fill="#080808"/>
          <circle id="Ellipse_38" data-name="Ellipse 38" cx="1.182" cy="1.182" r="1.182" transform="translate(11.032 3.595)" fill="#080808"/>
        </g>
        <g id="Group_394" data-name="Group 394" transform="translate(27.614 539.9)">
          <g id="Group_393" data-name="Group 393">
            <path id="Path_902" data-name="Path 902" d="M115.1,560.653h-2.733v7.018H110.3V547.7h5.024c5.245,0,7.757,2.586,7.757,6.206C123.154,558.363,120.052,560.653,115.1,560.653Zm.222-10.958h-2.881v9.185l2.807-.074c3.768-.074,5.836-1.551,5.836-4.654C121.086,551.246,119.017,549.695,115.324,549.695Z" transform="translate(-110.3 -545.779)" fill="#080808"/>
            <path id="Path_903" data-name="Path 903" d="M173.117,584.1l-1.182,3.177c-1.33,3.546-2.733,4.58-4.728,4.58a6.827,6.827,0,0,1-2.807-.665l.591-1.847a4.577,4.577,0,0,0,2.216.665c1.108,0,1.921-.591,3.029-3.4l.96-2.586-5.688-14.43h2.142l4.58,12.066,4.506-12.066h2.069Z" transform="translate(-151.078 -562.286)" fill="#080808"/>
            <path id="Path_904" data-name="Path 904" d="M222.487,549.921v18.05h-2.069v-18.05H213.4V548h16.056v1.921Z" transform="translate(-188.011 -546.005)" fill="#080808"/>
            <path id="Path_905" data-name="Path 905" d="M280.818,583.34c-4.063,0-7.018-3.029-7.018-7.683s3.1-7.757,7.24-7.757,7.018,3.029,7.018,7.683C287.984,580.237,284.881,583.34,280.818,583.34Zm.074-13.593c-3.1,0-5.1,2.438-5.1,5.91,0,3.546,2.069,5.984,5.171,5.984s5.1-2.438,5.1-5.91C286.063,572.111,283.995,569.747,280.892,569.747Z" transform="translate(-233.537 -561.005)" fill="#080808"/>
            <path id="Path_906" data-name="Path 906" d="M345.695,582.9H343.7V568.243l1.995-.443v3.1c.96-1.847,2.364-3.1,4.285-3.1a5.824,5.824,0,0,1,2.586.665l-.517,1.847a4.577,4.577,0,0,0-2.216-.665c-1.551,0-2.955,1.182-4.137,3.768V582.9Z" transform="translate(-286.224 -560.93)" fill="#080808"/>
            <path id="Path_907" data-name="Path 907" d="M389.366,583.34c-4.433,0-7.166-3.177-7.166-7.683,0-4.58,3.029-7.757,7.166-7.757a8.326,8.326,0,0,1,4.58,1.256l-.517,1.773a7.31,7.31,0,0,0-4.063-1.182c-3.177,0-5.1,2.364-5.1,5.836,0,3.546,2.069,5.91,5.171,5.91a7.493,7.493,0,0,0,4.063-1.182l.443,1.847A9.379,9.379,0,0,1,389.366,583.34Z" transform="translate(-315.243 -561.005)" fill="#080808"/>
            <path id="Path_908" data-name="Path 908" d="M450.1,561.866v-9.481c0-2.586-1.034-3.694-3.1-3.694a6.6,6.6,0,0,0-4.506,2.069v11.106H440.5V540.343l1.995-.443v9.259a7.434,7.434,0,0,1,5.1-2.29c2.807,0,4.58,1.847,4.58,5.024v10H450.1Z" transform="translate(-359.187 -539.9)" fill="#080808"/>
          </g>
        </g>
      </g>
    </g>
    <g id="Mask_Group_91" data-name="Mask Group 91" transform="translate(-125 -228)" clip-path="url(#clip-path-8)">
      <g id="Group_395" data-name="Group 395" transform="translate(97.211 -4)">
        <path id="Exclusion_7" data-name="Exclusion 7" d="M8.366,33.241a8.364,8.364,0,1,1,4.178-15.608l-2.52,4.362a3.327,3.327,0,1,0,1.667,2.881h5.034a8.36,8.36,0,0,1-8.359,8.365Zm18.907,0A8.363,8.363,0,0,1,23.092,17.63l2.519,4.362a3.329,3.329,0,1,0,3.327,0l2.519-4.362a8.363,8.363,0,0,1-4.183,15.607ZM13.548,15.608h0a8.363,8.363,0,1,1,8.368,0l-2.521-4.361a3.329,3.329,0,1,0-3.326,0L13.55,15.607Z" transform="translate(762.79 2080)" fill="#080808"/>
        <g id="g851" transform="translate(801.579 2088.975)">
          <path id="O" d="M43.632,34.509a15.418,15.418,0,0,1,3.564.063,3.792,3.792,0,0,1,2.044.847,4.385,4.385,0,0,1,.839,2.343,22.537,22.537,0,0,1,0,5.115,4.812,4.812,0,0,1-.784,2.4,3.927,3.927,0,0,1-2.27.9,16.047,16.047,0,0,1-3.576.063,5.051,5.051,0,0,1-2.332-.684,2.285,2.285,0,0,1-.844-1.26,11.656,11.656,0,0,1-.41-3.116,20.868,20.868,0,0,1,.291-4.137,2.956,2.956,0,0,1,.859-1.756,5.3,5.3,0,0,1,2.62-.775Zm.2,1.894a11.116,11.116,0,0,1,3.024.091c.385.077.84.264.912.7a16.5,16.5,0,0,1,.243,3.78,9.192,9.192,0,0,1-.317,2.683c-.262.564-.977.61-1.517.693a9.3,9.3,0,0,1-3.252-.205c-.484-.128-.637-.647-.711-1.082a22.483,22.483,0,0,1-.111-3.9,7.642,7.642,0,0,1,.307-2.178c.3-.465.922-.506,1.421-.581Z" transform="translate(-39.862 -34.436)" fill="#080808" fill-rule="evenodd"/>
          <path id="p" d="M52.567,37.889a3.89,3.89,0,0,1,2.445-.457,2.524,2.524,0,0,1,2.052,1.044,6.463,6.463,0,0,1,.558,2.955,7.874,7.874,0,0,1-.466,3.056,2.007,2.007,0,0,1-1.4,1.11,4.543,4.543,0,0,1-2.8-.116,2.424,2.424,0,0,1-1.077-1v4.7H49.875q0-5.832,0-11.665.976,0,1.951,0c-.022.4-.044.8-.055,1.2a3.45,3.45,0,0,1,.8-.822Zm.655,1.05a3.5,3.5,0,0,1,1.685.177,1.075,1.075,0,0,1,.569.839,10.18,10.18,0,0,1,.091,2.686c-.062.539-.149,1.237-.742,1.446a3.245,3.245,0,0,1-2.146-.024c-.631-.265-.7-1.029-.766-1.621a8.5,8.5,0,0,1,.174-2.727,1.2,1.2,0,0,1,1.135-.775Z" transform="translate(-38.007 -33.886)" fill="#080808" fill-rule="evenodd"/>
          <path id="e" d="M58.629,37.9a6.374,6.374,0,0,1,3.231-.475,2.962,2.962,0,0,1,2.5,1.09,8.182,8.182,0,0,1,.548,3.414H59.4a4.533,4.533,0,0,0,.286,1.768,1.461,1.461,0,0,0,1.251.54,3.64,3.64,0,0,0,1.692-.212c.3-.233.3-.648.338-.99q.965,0,1.931,0a2.532,2.532,0,0,1-.65,1.9,4.5,4.5,0,0,1-3,.822,5.886,5.886,0,0,1-2.7-.524,2.55,2.55,0,0,1-.991-1.9,12.376,12.376,0,0,1-.059-3.18,2.768,2.768,0,0,1,1.13-2.248Zm1.176,1.28a3.381,3.381,0,0,1,1.845-.257,1.46,1.46,0,0,1,1.1.4,2.644,2.644,0,0,1,.21,1.4c-1.184,0-2.366.005-3.549,0a2.067,2.067,0,0,1,.4-1.54Z" transform="translate(-36.609 -33.885)" fill="#080808" fill-rule="evenodd"/>
          <path id="n" d="M67.758,37.9a3.519,3.519,0,0,1,2.414-.456,2.5,2.5,0,0,1,1.846.94,2.955,2.955,0,0,1,.472,1.739c0,1.844,0,3.688,0,5.532q-.956,0-1.91,0c0-1.745,0-3.489,0-5.232a1.628,1.628,0,0,0-.291-1.115,1.592,1.592,0,0,0-1.213-.392,2.155,2.155,0,0,0-1.474.442,1.781,1.781,0,0,0-.539,1.362c0,1.645,0,3.291,0,4.935q-.955,0-1.909,0,0-4.073,0-8.146c.626,0,1.252,0,1.878,0,0,.477-.05.95-.064,1.427a2.623,2.623,0,0,1,.8-1.037Z" transform="translate(-35.178 -33.886)" fill="#080808" fill-rule="evenodd"/>
          <path id="C" d="M74.564,34.881a11.525,11.525,0,0,1,3.279-.444,8.064,8.064,0,0,1,3.182.446,1.907,1.907,0,0,1,1.029,1.185,7.089,7.089,0,0,1,.293,2.393c-.735,0-1.47,0-2.2,0a2.866,2.866,0,0,0-.319-1.679,2.169,2.169,0,0,0-1.377-.416,7.94,7.94,0,0,0-2.865.25.937.937,0,0,0-.567.752,11.994,11.994,0,0,0-.188,2.6,17.143,17.143,0,0,0,.241,3.486,1.027,1.027,0,0,0,.837.768,9.086,9.086,0,0,0,2.737.136c.476-.062,1.055-.094,1.354-.53a3.1,3.1,0,0,0,.248-1.747q1.113,0,2.226,0a7.84,7.84,0,0,1-.361,2.753,1.746,1.746,0,0,1-.993,1.021,9.094,9.094,0,0,1-2.867.446,13.4,13.4,0,0,1-3.341-.269,2.335,2.335,0,0,1-1.637-1.1,8.715,8.715,0,0,1-.546-2.684c-.081-1.2-.134-2.4-.1-3.594a5.965,5.965,0,0,1,.67-2.839,2.3,2.3,0,0,1,1.274-.938Z" transform="translate(-33.795 -34.436)" fill="#080808" fill-rule="evenodd"/>
          <path id="V" d="M81.234,34.527c.766,0,1.533-.021,2.3.011.745,2.364,1.564,4.7,2.316,7.066.293.907.5,1.84.8,2.744.339-.975.556-1.989.888-2.967.735-2.284,1.49-4.561,2.225-6.845.756-.032,1.515,0,2.272-.014v.25c-1.245,3.794-2.461,7.6-3.681,11.4-1.138.023-2.279.026-3.417,0-1.213-3.889-2.484-7.76-3.7-11.647Z" transform="translate(-32.198 -34.421)" fill="#080808" fill-rule="evenodd"/>
        </g>
      </g>
    </g>
    <g id="Mask_Group_92" data-name="Mask Group 92" transform="translate(90 -168)" clip-path="url(#clip-path-9)">
      <g id="Group_446" data-name="Group 446" transform="translate(-14737.622 80)">
        <g id="text5400" transform="translate(15383 2002)">
          <path id="path4226" d="M53.788,80.586a.392.392,0,0,1-.092.225.643.643,0,0,1-.261.15,2.02,2.02,0,0,1-.482.088,7.9,7.9,0,0,1-1.538,0,2.061,2.061,0,0,1-.481-.088.529.529,0,0,1-.239-.15.4.4,0,0,1-.046-.225l.492-6.616a4.271,4.271,0,0,0-.036-1.026,2.025,2.025,0,0,0-.267-.788,1.265,1.265,0,0,0-.512-.513,1.476,1.476,0,0,0-.774-.188,2.019,2.019,0,0,0-1.171.438,8.488,8.488,0,0,0-1.346,1.276l-.552,7.417a.392.392,0,0,1-.092.225.647.647,0,0,1-.274.15,2.02,2.02,0,0,1-.482.088,7.649,7.649,0,0,1-1.513,0,2.061,2.061,0,0,1-.481-.088.529.529,0,0,1-.239-.15.345.345,0,0,1-.058-.225l.492-6.616a4.271,4.271,0,0,0-.036-1.026,2.167,2.167,0,0,0-.254-.788,1.265,1.265,0,0,0-.512-.513,1.518,1.518,0,0,0-.774-.188,2.033,2.033,0,0,0-1.183.438,8.13,8.13,0,0,0-1.333,1.276l-.552,7.417a.392.392,0,0,1-.092.225.646.646,0,0,1-.274.15,2.02,2.02,0,0,1-.482.088,6.426,6.426,0,0,1-.766.038,6.281,6.281,0,0,1-.76-.038,2.061,2.061,0,0,1-.481-.088.529.529,0,0,1-.239-.15.345.345,0,0,1-.058-.225l.83-11.156a.38.38,0,0,1,.078-.213.487.487,0,0,1,.237-.163,1.69,1.69,0,0,1,.419-.088,5.764,5.764,0,0,1,1.313,0,1.245,1.245,0,0,1,.394.088.4.4,0,0,1,.2.163.338.338,0,0,1,.047.213l-.1,1.288a8.275,8.275,0,0,1,1.95-1.5,4.213,4.213,0,0,1,1.963-.5,4.583,4.583,0,0,1,1.227.15,2.969,2.969,0,0,1,.945.413,2.625,2.625,0,0,1,.7.638,3.4,3.4,0,0,1,.463.838,11.011,11.011,0,0,1,1.044-.926,6.417,6.417,0,0,1,1-.625,4.41,4.41,0,0,1,.965-.363,3.877,3.877,0,0,1,.972-.125,4.046,4.046,0,0,1,1.848.375,2.885,2.885,0,0,1,1.149,1.026,3.687,3.687,0,0,1,.564,1.5,7.935,7.935,0,0,1,.064,1.826l-.531,7.142Z" transform="translate(-36.039 -63.601)" fill="#080808"/>
          <path id="path4228" d="M198.506,80.623a.362.362,0,0,1-.146.275.885.885,0,0,1-.41.138,4.635,4.635,0,0,1-.792.05,4.8,4.8,0,0,1-.822-.05.652.652,0,0,1-.353-.138.349.349,0,0,1-.08-.275l.066-.888a5.6,5.6,0,0,1-1.661,1.151,4.724,4.724,0,0,1-1.982.413,5.233,5.233,0,0,1-1.621-.238,3.4,3.4,0,0,1-1.238-.675,2.874,2.874,0,0,1-.753-1.138,3.723,3.723,0,0,1-.183-1.576,3.776,3.776,0,0,1,.5-1.688,3.463,3.463,0,0,1,1.227-1.188,6.069,6.069,0,0,1,1.941-.7,13.714,13.714,0,0,1,2.631-.225h1.088l.05-.675a3.23,3.23,0,0,0-.045-.913,1.33,1.33,0,0,0-.3-.663A1.272,1.272,0,0,0,195,71.23a3.309,3.309,0,0,0-.991-.125,5.391,5.391,0,0,0-1.426.175,8.763,8.763,0,0,0-1.117.388q-.491.213-.829.388a1.2,1.2,0,0,1-.526.175.372.372,0,0,1-.244-.088.666.666,0,0,1-.157-.25,1.91,1.91,0,0,1-.07-.4,3.351,3.351,0,0,1,0-.525,2.458,2.458,0,0,1,.108-.613.994.994,0,0,1,.267-.4,2.372,2.372,0,0,1,.643-.4,7.25,7.25,0,0,1,1.056-.413,9.4,9.4,0,0,1,1.3-.3,8.325,8.325,0,0,1,1.448-.125,8.072,8.072,0,0,1,2.219.263,3.368,3.368,0,0,1,1.48.788,2.742,2.742,0,0,1,.774,1.363,6.254,6.254,0,0,1,.127,1.989l-.558,7.5Zm-2.734-4.778h-1.2a6.58,6.58,0,0,0-1.309.113,2.686,2.686,0,0,0-.9.338,1.593,1.593,0,0,0-.541.55,1.745,1.745,0,0,0-.2.725,1.324,1.324,0,0,0,.356,1.1,1.686,1.686,0,0,0,1.208.4,2.4,2.4,0,0,0,1.238-.338,5.561,5.561,0,0,0,1.212-.988l.141-1.9Z" transform="translate(-168.141 -63.601)" fill="#080808"/>
          <path id="path4230" d="M288.18,61.81a3.811,3.811,0,0,1-.138.85.993.993,0,0,1-.206.413,1.241,1.241,0,0,1-.353.213,3.111,3.111,0,0,1-.524.15,4.558,4.558,0,0,1-.646.113,6.3,6.3,0,0,1-.691.038,4.83,4.83,0,0,1-1.608-.238,2.471,2.471,0,0,1-1.084-.725,2.84,2.84,0,0,1-.57-1.251,6.437,6.437,0,0,1-.081-1.776l.425-5.716h-1.338q-.238,0-.341-.288a2.735,2.735,0,0,1-.052-.988q.027-.363.071-.613a1.609,1.609,0,0,1,.129-.388.534.534,0,0,1,.166-.213.44.44,0,0,1,.23-.063h1.326l.185-2.489a.443.443,0,0,1,.079-.225.577.577,0,0,1,.262-.163,1.8,1.8,0,0,1,.5-.1,6.623,6.623,0,0,1,.766-.038,6.279,6.279,0,0,1,.76.038,1.531,1.531,0,0,1,.48.1.473.473,0,0,1,.238.163.345.345,0,0,1,.058.225l-.185,2.489h2.426a.336.336,0,0,1,.208.063.4.4,0,0,1,.147.213,1.221,1.221,0,0,1,.059.388,4.2,4.2,0,0,1-.008.613,2.9,2.9,0,0,1-.2.988.436.436,0,0,1-.384.288h-2.439l-.39,5.241a2.542,2.542,0,0,0,.185,1.376,1.038,1.038,0,0,0,.992.45,2.5,2.5,0,0,0,.453-.038q.2-.05.358-.1l.27-.1a.528.528,0,0,1,.2-.05.2.2,0,0,1,.134.05.235.235,0,0,1,.1.175,2.019,2.019,0,0,1,.036.35A3.586,3.586,0,0,1,288.18,61.81Z" transform="translate(-248.224 -45.926)" fill="#080808"/>
          <path id="path4232" d="M361.139,74.845a10.65,10.65,0,0,1-.525,2.689,6.518,6.518,0,0,1-1.076,2.026,4.6,4.6,0,0,1-1.622,1.288,4.879,4.879,0,0,1-2.122.45,3.726,3.726,0,0,1-.893-.1,3.306,3.306,0,0,1-.767-.275,4.927,4.927,0,0,1-.714-.488,8.015,8.015,0,0,1-.725-.675l-.391,5.253a.392.392,0,0,1-.092.225.581.581,0,0,1-.275.163,1.9,1.9,0,0,1-.484.113,6.424,6.424,0,0,1-.766.038,6.279,6.279,0,0,1-.76-.038,1.914,1.914,0,0,1-.479-.113.472.472,0,0,1-.238-.163.345.345,0,0,1-.058-.225L350.31,69.43a.38.38,0,0,1,.078-.213.487.487,0,0,1,.225-.163,1.69,1.69,0,0,1,.419-.088,4.777,4.777,0,0,1,.653-.038,4.271,4.271,0,0,1,.623.038,1.4,1.4,0,0,1,.406.088.4.4,0,0,1,.213.163.338.338,0,0,1,.047.213l-.1,1.313a12.421,12.421,0,0,1,1.016-.876,6.082,6.082,0,0,1,1.01-.638,4.533,4.533,0,0,1,1.029-.388,4.914,4.914,0,0,1,1.122-.125,3.981,3.981,0,0,1,2.052.488,3.449,3.449,0,0,1,1.3,1.313,5.45,5.45,0,0,1,.655,1.951,10.655,10.655,0,0,1,.073,2.376Zm-3.294.225a7.907,7.907,0,0,0-.011-1.363,3.6,3.6,0,0,0-.275-1.176,1.886,1.886,0,0,0-.615-.813,1.571,1.571,0,0,0-1.015-.313,2.113,2.113,0,0,0-.633.1,2.576,2.576,0,0,0-.648.3,5.1,5.1,0,0,0-.691.55,8.772,8.772,0,0,0-.775.838l-.273,3.677a6.769,6.769,0,0,0,1.167,1.3,1.921,1.921,0,0,0,1.217.45,1.809,1.809,0,0,0,1.061-.313,2.685,2.685,0,0,0,.773-.813,4.393,4.393,0,0,0,.486-1.151,6.227,6.227,0,0,0,.232-1.276Z" transform="translate(-307.305 -63.601)" fill="#080808"/>
          <path id="path4234" d="M457.712,47.425a.392.392,0,0,1-.092.225.646.646,0,0,1-.274.15,2.02,2.02,0,0,1-.482.088,6.426,6.426,0,0,1-.766.038,6.281,6.281,0,0,1-.76-.038,2.061,2.061,0,0,1-.481-.088.529.529,0,0,1-.239-.15.345.345,0,0,1-.058-.225l1.223-16.447a.392.392,0,0,1,.092-.225.577.577,0,0,1,.262-.163,2.113,2.113,0,0,1,.5-.113,6.424,6.424,0,0,1,.766-.038,6.279,6.279,0,0,1,.76.038,1.719,1.719,0,0,1,.467.113.477.477,0,0,1,.251.163.345.345,0,0,1,.058.225Z" transform="translate(-398.626 -30.44)" fill="#080808"/>
          <path id="path4236" d="M511.488,74.895a8.866,8.866,0,0,1-.569,2.6,6.051,6.051,0,0,1-1.289,2.026,5.6,5.6,0,0,1-2.011,1.313,7.45,7.45,0,0,1-2.723.463,7.11,7.11,0,0,1-2.558-.413,4.208,4.208,0,0,1-1.737-1.2,4.511,4.511,0,0,1-.931-1.939,9.687,9.687,0,0,1,.414-5.228,6.06,6.06,0,0,1,1.3-2.026,5.624,5.624,0,0,1,2-1.313,7.45,7.45,0,0,1,2.723-.463,7.15,7.15,0,0,1,2.571.413,4.016,4.016,0,0,1,1.725,1.188,4.512,4.512,0,0,1,.931,1.939A8.878,8.878,0,0,1,511.488,74.895Zm-3.249.125a7.639,7.639,0,0,0-.025-1.513,3.268,3.268,0,0,0-.348-1.213,1.98,1.98,0,0,0-.778-.8,2.512,2.512,0,0,0-1.279-.288,2.833,2.833,0,0,0-1.245.263,2.378,2.378,0,0,0-.919.75,3.925,3.925,0,0,0-.6,1.188,7.1,7.1,0,0,0-.28,1.576,7.824,7.824,0,0,0,.024,1.526,3.613,3.613,0,0,0,.348,1.2,1.98,1.98,0,0,0,.778.8,2.656,2.656,0,0,0,1.28.275,2.979,2.979,0,0,0,1.257-.25,2.527,2.527,0,0,0,.919-.75,3.734,3.734,0,0,0,.588-1.176A7.272,7.272,0,0,0,508.239,75.02Z" transform="translate(-437.546 -63.601)" fill="#080808"/>
          <path id="path4238" d="M607.873,61.81a3.81,3.81,0,0,1-.138.85.993.993,0,0,1-.206.413,1.242,1.242,0,0,1-.354.213,3.109,3.109,0,0,1-.524.15,4.553,4.553,0,0,1-.646.113,6.3,6.3,0,0,1-.691.038,4.83,4.83,0,0,1-1.608-.238,2.47,2.47,0,0,1-1.084-.725,2.84,2.84,0,0,1-.57-1.251,6.438,6.438,0,0,1-.081-1.776l.425-5.716h-1.338q-.238,0-.341-.288a2.733,2.733,0,0,1-.052-.988q.027-.363.071-.613a1.605,1.605,0,0,1,.129-.388.534.534,0,0,1,.166-.213.44.44,0,0,1,.23-.063h1.326l.185-2.489a.443.443,0,0,1,.079-.225.578.578,0,0,1,.262-.163,1.8,1.8,0,0,1,.5-.1,6.623,6.623,0,0,1,.766-.038,6.279,6.279,0,0,1,.76.038,1.531,1.531,0,0,1,.48.1.472.472,0,0,1,.238.163.345.345,0,0,1,.058.225l-.185,2.489h2.426a.336.336,0,0,1,.208.063.4.4,0,0,1,.147.213,1.222,1.222,0,0,1,.059.388,4.193,4.193,0,0,1-.008.613,2.9,2.9,0,0,1-.2.988.436.436,0,0,1-.384.288h-2.439l-.39,5.241a2.542,2.542,0,0,0,.185,1.376,1.038,1.038,0,0,0,.992.45,2.5,2.5,0,0,0,.453-.038q.2-.05.358-.1l.27-.1a.528.528,0,0,1,.2-.05.2.2,0,0,1,.134.05.235.235,0,0,1,.1.175,2.022,2.022,0,0,1,.036.35A3.583,3.583,0,0,1,607.873,61.81Z" transform="translate(-525.193 -45.926)" fill="#080808"/>
          <path id="path4240" d="M674.459,47.425a.393.393,0,0,1-.092.225.646.646,0,0,1-.274.15,2.02,2.02,0,0,1-.482.088,6.428,6.428,0,0,1-.766.038,6.281,6.281,0,0,1-.76-.038,2.062,2.062,0,0,1-.481-.088.529.529,0,0,1-.239-.15.345.345,0,0,1-.058-.225l1.223-16.447a.393.393,0,0,1,.092-.225.577.577,0,0,1,.262-.163,2.114,2.114,0,0,1,.5-.113,6.426,6.426,0,0,1,.766-.038,6.28,6.28,0,0,1,.76.038,1.718,1.718,0,0,1,.467.113.477.477,0,0,1,.251.163.345.345,0,0,1,.058.225Z" transform="translate(-586.407 -30.44)" fill="#080808"/>
          <path id="path4242" d="M721.627,50.181a.391.391,0,0,1-.092.225.646.646,0,0,1-.274.15,2.021,2.021,0,0,1-.482.088,6.423,6.423,0,0,1-.766.038,6.279,6.279,0,0,1-.76-.038,2.061,2.061,0,0,1-.481-.088.53.53,0,0,1-.239-.15.345.345,0,0,1-.058-.225L719.3,39.05a.339.339,0,0,1,.091-.213.577.577,0,0,1,.262-.163,2.114,2.114,0,0,1,.5-.113,6.426,6.426,0,0,1,.766-.038,6.281,6.281,0,0,1,.76.038,1.719,1.719,0,0,1,.467.113.477.477,0,0,1,.251.163.3.3,0,0,1,.059.213Zm1.348-14.934a1.886,1.886,0,0,1-.485,1.313,2.254,2.254,0,0,1-1.465.363,2.048,2.048,0,0,1-1.412-.35,1.641,1.641,0,0,1-.269-1.263A1.925,1.925,0,0,1,719.816,34a2.226,2.226,0,0,1,1.479-.375,1.969,1.969,0,0,1,1.4.363A1.6,1.6,0,0,1,722.975,35.248Z" transform="translate(-627.271 -33.196)" fill="#080808"/>
          <path id="path4244" d="M777.3,41.7a10.5,10.5,0,0,1-.524,2.677,6.716,6.716,0,0,1-1.089,2.026,4.574,4.574,0,0,1-3.669,1.738,4.556,4.556,0,0,1-1.042-.113,3.271,3.271,0,0,1-.913-.338,4.928,4.928,0,0,1-.831-.6,7.749,7.749,0,0,1-.81-.876l-.09,1.213a.412.412,0,0,1-.093.238.532.532,0,0,1-.236.15,1.537,1.537,0,0,1-.419.088q-.265.025-.64.025t-.649-.025a1.542,1.542,0,0,1-.406-.088.433.433,0,0,1-.2-.15.419.419,0,0,1-.045-.238l1.223-16.447a.392.392,0,0,1,.092-.225.577.577,0,0,1,.262-.163,2.114,2.114,0,0,1,.5-.113,6.426,6.426,0,0,1,.766-.038,6.281,6.281,0,0,1,.76.038,1.719,1.719,0,0,1,.467.113.478.478,0,0,1,.251.163.346.346,0,0,1,.058.225l-.458,6.166a7.334,7.334,0,0,1,.9-.725,5.423,5.423,0,0,1,.887-.488,3.964,3.964,0,0,1,.9-.288,5.076,5.076,0,0,1,.957-.088,3.922,3.922,0,0,1,2.064.5,3.544,3.544,0,0,1,1.3,1.326,5.45,5.45,0,0,1,.654,1.964A10.535,10.535,0,0,1,777.3,41.7Zm-3.281.225a8.133,8.133,0,0,0-.01-1.376,3.6,3.6,0,0,0-.275-1.176,1.977,1.977,0,0,0-.628-.813,1.592,1.592,0,0,0-1.027-.313,2.246,2.246,0,0,0-.619.088,2.576,2.576,0,0,0-.648.3,5.1,5.1,0,0,0-.691.55,8.769,8.769,0,0,0-.775.838l-.275,3.7a6.264,6.264,0,0,0,1.166,1.3,2.026,2.026,0,0,0,1.243.438,1.809,1.809,0,0,0,1.061-.313,2.751,2.751,0,0,0,.761-.813,3.982,3.982,0,0,0,.5-1.138A6.819,6.819,0,0,0,774.016,41.921Z" transform="translate(-668.132 -30.44)" fill="#080808"/>
        </g>
        <g id="g4543" transform="translate(15441.704 2003.755)">
          <path id="path4395" d="M9.451,0A9.451,9.451,0,1,1,0,9.451,9.451,9.451,0,0,1,9.451,0Z" transform="translate(0 0)" fill="#080808" stroke="#080808" stroke-linecap="round" stroke-width="4.551"/>
          <g id="g4391" transform="translate(0.416 0.419)">
            <g id="patch_2" transform="translate(0 0)">
              <path id="path329" d="M49.53,29.785a8.97,8.97,0,1,0-6.343-2.627A8.971,8.971,0,0,0,49.53,29.785Z" transform="translate(-40.559 -11.845)" fill="#fff" opacity="0.05"/>
            </g>
          </g>
          <g id="matplotlib.axis_1" transform="translate(0.416 0.419)">
            <g id="xtick_1" transform="translate(0 0)">
              <g id="line2d_1">
                <g id="Group_420" data-name="Group 420" clip-path="url(#clip-path-10)">
                  <path id="path334" d="M107.68,78.966h8.97" transform="translate(-98.71 -69.995)" fill="none" stroke="#858585" stroke-linecap="round" stroke-linejoin="round" stroke-width="0.407" stroke-dasharray="0.204 0.408" opacity="0.9"/>
                </g>
              </g>
            </g>
            <g id="xtick_2" transform="translate(0 0)">
              <g id="line2d_2">
                <g id="Group_421" data-name="Group 421" clip-path="url(#clip-path-10)">
                  <path id="path338" d="M107.68,37.847l6.343-6.343" transform="translate(-98.71 -28.877)" fill="none" stroke="#858585" stroke-linecap="round" stroke-linejoin="round" stroke-width="0.407" stroke-dasharray="0.204 0.408" opacity="0.9"/>
                </g>
              </g>
            </g>
            <g id="xtick_3" transform="translate(0 0)">
              <g id="line2d_3">
                <g id="Group_422" data-name="Group 422" clip-path="url(#clip-path-10)">
                  <path id="path342" d="M107.68,20.815v-8.97" transform="translate(-98.71 -11.845)" fill="none" stroke="#858585" stroke-linecap="round" stroke-linejoin="round" stroke-width="0.407" stroke-dasharray="0.204 0.408" opacity="0.9"/>
                </g>
              </g>
            </g>
            <g id="xtick_4" transform="translate(0 0)">
              <g id="line2d_4">
                <g id="Group_423" data-name="Group 423" clip-path="url(#clip-path-10)">
                  <path id="path346" d="M66.562,37.847,60.219,31.5" transform="translate(-57.592 -28.877)" fill="none" stroke="#858585" stroke-linecap="round" stroke-linejoin="round" stroke-width="0.407" stroke-dasharray="0.204 0.408" opacity="0.9"/>
                </g>
              </g>
            </g>
            <g id="xtick_5" transform="translate(0 0)">
              <g id="line2d_5">
                <g id="Group_424" data-name="Group 424" clip-path="url(#clip-path-10)">
                  <path id="path350" d="M49.53,78.966H40.56" transform="translate(-40.56 -69.995)" fill="none" stroke="#858585" stroke-linecap="round" stroke-linejoin="round" stroke-width="0.407" stroke-dasharray="0.204 0.408" opacity="0.9"/>
                </g>
              </g>
            </g>
            <g id="xtick_6" transform="translate(0 0)">
              <g id="line2d_6">
                <g id="Group_425" data-name="Group 425" clip-path="url(#clip-path-10)">
                  <path id="path354" d="M66.562,78.966l-6.343,6.343" transform="translate(-57.592 -69.995)" fill="none" stroke="#858585" stroke-linecap="round" stroke-linejoin="round" stroke-width="0.407" stroke-dasharray="0.204 0.408" opacity="0.9"/>
                </g>
              </g>
            </g>
            <g id="xtick_7" transform="translate(0 0)">
              <g id="line2d_7">
                <g id="Group_426" data-name="Group 426" clip-path="url(#clip-path-10)">
                  <path id="path358" d="M107.68,78.966v8.97" transform="translate(-98.71 -69.995)" fill="none" stroke="#858585" stroke-linecap="round" stroke-linejoin="round" stroke-width="0.407" stroke-dasharray="0.204 0.408" opacity="0.9"/>
                </g>
              </g>
            </g>
            <g id="xtick_8" transform="translate(0 0)">
              <g id="line2d_8">
                <g id="Group_427" data-name="Group 427" clip-path="url(#clip-path-10)">
                  <path id="path362" d="M107.68,78.966l6.343,6.343" transform="translate(-98.71 -69.995)" fill="none" stroke="#858585" stroke-linecap="round" stroke-linejoin="round" stroke-width="0.407" stroke-dasharray="0.204 0.408" opacity="0.9"/>
                </g>
              </g>
            </g>
          </g>
          <g id="matplotlib.axis_2" transform="translate(0.416 0.419)">
            <g id="ytick_1" transform="translate(0 0)">
              <g id="line2d_9">
                <g id="Group_428" data-name="Group 428" clip-path="url(#clip-path-10)">
                  <path id="path367" d="M102.22,72.54l-.03-.241-.087-.227-.139-.2-.183-.159-.216-.11-.237-.055-.243,0-.235.063-.212.118-.178.166-.132.2-.079.23-.021.242.038.24.095.224.146.194.189.153.22.1.238.046.243-.013.232-.071.208-.125.172-.172.125-.208.071-.232.015-.173h0" transform="translate(-92.253 -63.57)" fill="none" stroke="#818181" stroke-linecap="square" stroke-linejoin="round" stroke-width="0.407" stroke-dasharray="0.204 0.408" opacity="0.9"/>
                </g>
              </g>
            </g>
            <g id="ytick_2" transform="translate(0 0)">
              <g id="line2d_10">
                <g id="Group_429" data-name="Group 429" clip-path="url(#clip-path-10)">
                  <path id="path371" d="M91.334,59.594l-.029-.416-.087-.408-.143-.392-.2-.368-.245-.337-.29-.3-.329-.257-.361-.209-.387-.156-.4-.1-.415-.044-.417.015-.411.072-.4.129L86.849,57l-.346.233-.31.279-.268.32-.221.354-.17.381-.115.4-.058.413V59.8l.058.413.115.4L85.7,61l.221.354.268.32.31.279.346.233.375.183.4.129.411.072.417.015.415-.044.4-.1.387-.156.361-.209.329-.257.29-.3.245-.337.2-.368.143-.392.087-.408.029-.416h0" transform="translate(-79.374 -50.624)" fill="none" stroke="#818181" stroke-linecap="square" stroke-linejoin="round" stroke-width="0.407" stroke-dasharray="0.204 0.408" opacity="0.9"/>
                </g>
              </g>
            </g>
            <g id="ytick_3" transform="translate(0 0)">
              <g id="line2d_11">
                <g id="Group_430" data-name="Group 430" clip-path="url(#clip-path-10)">
                  <path id="path375" d="M80.358,46.66l-.027-.521-.082-.515-.135-.5-.187-.487-.237-.465-.284-.437-.328-.405-.369-.369-.405-.328-.437-.284-.465-.237-.487-.187-.5-.135L75.9,41.7l-.521-.027-.521.027-.515.082-.5.135-.487.187-.465.237-.437.284-.405.328-.369.369-.328.405-.284.437-.237.465-.187.487-.135.5-.082.515-.027.521.027.521.082.515.135.5.187.487.237.465.284.437.328.405.369.369.405.328.437.284.465.237.487.187.5.135.515.082.521.027.521-.027.515-.082.5-.135.487-.187.465-.237.437-.284.405-.328.369-.369.328-.405.284-.437.237-.465.187-.487.135-.5.082-.515.027-.521h0" transform="translate(-66.404 -37.69)" fill="none" stroke="#818181" stroke-linecap="square" stroke-linejoin="round" stroke-width="0.407" stroke-dasharray="0.204 0.408" opacity="0.9"/>
                </g>
              </g>
            </g>
            <g id="ytick_4" transform="translate(0 0)">
              <g id="line2d_12">
                <g id="Group_431" data-name="Group 431" clip-path="url(#clip-path-10)">
                  <path id="path379" d="M69.429,33.737l-.038-.729-.114-.721-.189-.705-.262-.682-.332-.651-.4-.612-.46-.568-.516-.516-.568-.46-.612-.4-.651-.332-.682-.262-.705-.189-.721-.114-.729-.038-.729.038L61,26.913,60.3,27.1l-.682.262-.651.332-.612.4-.568.46-.516.516-.46.568-.4.612-.332.651-.262.682-.189.705-.114.721-.038.729.038.729.114.721.189.705.262.682.332.651.4.612.46.568.516.516.568.46.612.4.651.332.682.262.705.189.721.114.729.038.729-.038.721-.114.705-.189.682-.262.651-.332.612-.4.568-.46.516-.516.46-.568.4-.612.332-.651.262-.682.189-.705.114-.721.038-.729h0" transform="translate(-53.482 -24.767)" fill="none" stroke="#818181" stroke-linecap="square" stroke-linejoin="round" stroke-width="0.407" stroke-dasharray="0.204 0.408" opacity="0.9"/>
                </g>
              </g>
            </g>
          </g>
          <g id="patch_3" transform="translate(0.416 0.419)" opacity="0.938">
            <g id="Group_432" data-name="Group 432" transform="translate(0 0)" clip-path="url(#clip-path-10)">
              <g id="Group" transform="translate(8.909 8.294)" opacity="0.6">
                <path id="path382" d="M107.68,74.973h0l.019-.006.019-.006.019-.006.019-.006.019-.006.019-.006.019-.006.019-.006.019-.006.019-.006.019-.006.019-.006.019-.006.019-.006.019-.006.019-.006.019-.006.019-.006.019-.006.019-.006.019-.006.019-.006.019-.006.019-.006.019-.006.019-.006.019-.006.019-.006.019-.006.019-.006.019-.006.019-.006.019-.006.019-.006.019-.006.019-.006.019-.006.019-.006.019-.006.019-.006.019-.006.019-.006.019-.006.019-.006.019-.006.019-.006.019-.006.019-.006.019-.006.019-.006.019-.006.019-.006.019-.006.019-.006.019-.006.019-.006.019-.006.019-.006.019-.006.019-.006.019-.006.019-.006.019-.006.019-.006.019-.006.019-.006.019-.006.019-.006.019-.006.019-.006.019-.006.019-.006.019-.006.019-.006.019-.006.019-.006.019-.006.019-.006.019-.006.019-.006.019-.006.019-.006.019-.006.019-.006.019-.006.019-.006.019-.006.019-.006.019-.006.019-.006.019-.006.019-.006.019-.006.019-.006.019-.006.019-.006.019-.006.019-.006.019-.006.019-.006,0,.006,0,.006,0,.006,0,.006,0,.006,0,.006,0,.006,0,.006,0,.006,0,.006,0,.006,0,.006,0,.006,0,.006,0,.006,0,.006,0,.006,0,.006,0,.006,0,.006,0,.006,0,.006,0,.006v.478H107.68Z" transform="translate(-107.62 -74.296)" fill="rgba(0,76,255,0)"/>
                <path id="path382_-_Outline" data-name="path382 - Outline" d="M109.28,74.64h-1.994a.061.061,0,0,1-.019-.118l1.9-.616a.061.061,0,0,1,.077.039l.031.1.025.107.019.1.014.109.008.1,0,.11a.061.061,0,0,1-.061.061Zm-1.61-.121h1.548l-.007-.115-.013-.109-.019-.108-.025-.106-.011-.041Z" transform="translate(-107.226 -73.903)"/>
              </g>
            </g>
          </g>
          <g id="patch_4" transform="translate(0.416 0.419)" opacity="0.938">
            <g id="Group_433" data-name="Group 433" transform="translate(0 0)" clip-path="url(#clip-path-10)">
              <g id="Group-2" data-name="Group" transform="translate(8.909 3.311)" opacity="0.6">
                <path id="path385" d="M107.68,42.671h0l.021-.056.021-.056.021-.056.021-.056.021-.056.021-.056.021-.056.021-.056.021-.056.021-.056.021-.056.021-.056.021-.056.021-.056.021-.056.021-.056.021-.056.021-.056.021-.056.021-.056.021-.056.021-.056.021-.056.021-.056.021-.056.021-.056.021-.056.021-.056.021-.056.021-.056.021-.056.021-.056.021-.056.021-.056.021-.056.021-.056.021-.056.021-.056.021-.056.021-.056.021-.056.021-.056.021-.056.021-.056.021-.056.021-.056.021-.056.021-.056.021-.056.021-.056.021-.056.021-.056.021-.056.021-.056.021-.056.021-.056.021-.056.021-.056.021-.056.021-.056.021-.056.021-.056.021-.056.021-.056.021-.056.021-.056.021-.056.021-.056.021-.056.021-.056.021-.056.021-.056.021-.056.021-.056.021-.056.021-.056.021-.056.021-.056.021-.056.021-.056.021-.056.021-.056.021-.056.021-.056.021-.056.021-.056.021-.056.021-.056.021-.056.021-.056.021-.056.021-.056.021-.056.021-.056.021-.056.021-.056.021-.056.021-.056.021-.056.021-.056.018.007.018.007.018.007.018.007.017.007.017.007.017.007.017.007.017.007.017.007.017.007.017.007.017.007.017.007.017.007.017.007.017.008.017.008.017.008.017.008.017.008.017.008.017.008.017.008.017.008.017.008.017.008.017.008.017.008.017.008.017.008.017.008.017.008.017.008.017.008.017.009.017.009.017.009.017.009.017.009.017.009.017.009.017.009.017.009.017.009.016.009.016.009.016.009.016.009.016.009.016.009.016.009.016.009.016.009.016.009.016.01.016.01.016.01.016.01.016.01.016.01.016.01.016.01.016.01.016.01.016.01.016.01.016.01.016.01.016.01.016.01.016.01.016.01.016.01.016.01.016.011.016.011.015.011.015.011.015.011.015.011.015.011.015.011.015.011.015.011.015.011.015.011.015.011.015.011.015.011.015.011.015.011.015.011.015.011.015.011.015.012.015.012.015.012.015.012.015.012-.037.047-.037.047-.037.047-.037.047-.037.047-.037.047-.037.047-.037.047-.037.047-.037.047-.037.047-.037.047-.037.047-.037.047-.037.047-.037.047-.037.047-.037.047-.037.047-.037.047-.037.047-.037.047-.037.047-.037.047-.037.047-.037.047-.037.047-.037.047-.037.047-.037.047-.037.047-.037.047-.037.047-.037.047-.037.047-.037.047-.037.047-.037.047-.037.047-.037.047-.037.047-.037.047-.037.047-.037.047-.037.047-.037.047-.037.047-.037.047-.037.047-.037.047-.037.047-.037.047-.037.047-.037.047-.037.047-.037.047-.037.047-.037.047-.037.047-.037.047-.037.047-.037.047-.037.047-.037.047-.037.047-.037.047-.037.047-.037.047-.037.047-.037.047-.037.047-.037.047-.037.047-.037.047-.037.047-.037.047-.037.047-.037.047-.037.047-.037.047-.037.047-.037.047-.037.047-.037.047-.037.047-.037.047-.037.047-.037.047-.037.047-.037.047-.037.047-.037.047-.037.047-.037.047-.037.047-.037.047-.037.047-.037.047-.037.047Z" transform="translate(-107.62 -37.011)" fill="rgba(206,255,41,0)"/>
                <path id="path385_-_Outline" data-name="path385 - Outline" d="M107.287,42.338a.061.061,0,0,1-.057-.082l2.1-5.6a.061.061,0,0,1,.078-.035l.106.041.105.043.1.045.1.047.1.049.1.051.1.053.1.055.1.056.1.058.1.06.1.062.094.064.093.066.092.067.091.069.06.047a.061.061,0,0,1,.01.085l-3.729,4.675A.061.061,0,0,1,107.287,42.338Zm2.137-5.581-1.945,5.183,3.451-4.328-.085-.065-.09-.066-.091-.065-.092-.063-.093-.061-.095-.059-.1-.057-.1-.056-.1-.054-.1-.052-.1-.05-.1-.048-.1-.046-.1-.044-.1-.042Z" transform="translate(-107.226 -36.617)"/>
              </g>
            </g>
          </g>
          <g id="patch_5" transform="translate(0.416 0.419)" opacity="0.938">
            <g id="Group_434" data-name="Group 434" transform="translate(0 0)" clip-path="url(#clip-path-10)">
              <g id="Group-3" data-name="Group" transform="translate(3.799 1.136)" opacity="0.6">
                <path id="path388" d="M74.554,28.572h0l-.051-.061-.051-.061-.051-.061-.051-.061-.051-.061-.051-.061-.051-.061-.051-.061-.051-.061-.051-.061-.051-.061-.051-.061-.051-.061-.051-.061-.051-.061-.051-.061-.051-.061-.051-.061-.051-.061-.051-.061-.051-.061-.051-.061-.051-.061-.051-.061-.051-.061-.051-.061-.051-.061-.051-.061-.051-.061-.051-.061-.051-.061-.051-.061-.051-.061-.051-.061-.051-.061-.051-.061-.051-.061-.051-.061-.051-.061-.051-.061-.051-.061L72.408,26l-.051-.061-.051-.061-.051-.061-.051-.061-.051-.061-.051-.061-.051-.061L72,25.512l-.051-.061-.051-.061-.051-.061-.051-.061-.051-.061-.051-.061-.051-.061-.051-.061-.051-.061-.051-.061-.051-.061-.051-.061-.051-.061-.051-.061-.051-.061-.051-.061-.051-.061-.051-.061-.051-.061-.051-.061-.051-.061-.051-.061-.051-.061-.051-.061-.051-.061-.051-.061-.051-.061-.051-.061-.051-.061-.051-.061-.051-.061-.051-.061-.051-.061-.051-.061-.051-.061-.051-.061-.051-.061-.051-.061-.051-.061-.051-.061L69.9,23l-.051-.061L69.8,22.88l-.051-.061-.051-.061-.051-.061-.051-.061-.051-.061-.051-.061-.051-.061.029-.024L69.5,22.4l.029-.024.029-.024.029-.023.029-.023.03-.023.03-.023.03-.023.03-.023.03-.023.03-.022.03-.022.03-.022.03-.022.031-.022.031-.022.031-.022.031-.021L70.043,22l.031-.021.031-.021.031-.021.031-.021.031-.021.032-.02.032-.02.032-.02.032-.02.032-.02.032-.02.032-.02.032-.019.032-.019.032-.019.032-.019.033-.019.033-.019.033-.018.033-.018.033-.018.033-.018.033-.018.033-.018.033-.018.033-.017.033-.017.033-.017.034-.017.034-.017.034-.017.034-.016.034-.016.034-.016.034-.016.034-.016.034-.016.034-.015.034-.015.034-.015.034-.015.035-.015.035-.015.035-.015.035-.014.035-.014.035-.014.035-.014.035-.014.035-.014.035-.013.035-.013.035-.013.035-.013.035-.013.035-.013.035-.012.036-.012.036-.012L72.056,21l.036-.012.036-.012.036-.011.036-.011.036-.011.036-.011.036-.011.036-.011.036-.01.036-.01.036-.01.036-.01.036-.01.036-.009.036-.009.036-.009.036-.009.037-.009.037-.009.037-.008.018.078.018.078.018.078.018.078.018.078.018.078.018.078.018.078.018.078.018.078.018.078.018.078.018.078.018.078.018.078.018.078.018.078.018.078.018.078.018.078.018.078.018.078.018.078.018.078.018.078.018.078.018.078.018.078.018.078.018.078.018.078.018.078.018.078.018.078.018.078.018.078.018.078.018.078.018.078.018.078.018.078.018.078.018.078.018.078.018.078.018.078.018.078.018.078.018.078.018.078.018.078.018.078.018.078.018.078.018.078.018.078.018.078.018.078.018.078.018.078.018.078.018.078.018.078.018.078.018.078.018.078.018.078.018.078.018.078.018.078.018.078.018.078.018.078.018.078.018.078.018.078.018.078.018.078.018.078.018.078.018.078.018.078.018.078.018.078.018.078.018.078.018.078.018.078.018.078.018.078.018.078.018.078.018.078.018.078.018.078.018.078.018.078.018.078.018.078Z" transform="translate(-69.383 -20.738)" fill="rgba(255,104,0,0)"/>
                <path id="path388_-_Outline" data-name="path388 - Outline" d="M74.16,28.239a.061.061,0,0,1-.047-.022L69,22.1a.061.061,0,0,1,.008-.086l.058-.048.059-.048.059-.047.06-.047.06-.046.061-.045.061-.045.061-.044.062-.044.062-.043.063-.043.063-.042.063-.041.064-.041.064-.04.065-.04.065-.039.065-.038.066-.038.066-.037.066-.036.067-.036.067-.035.067-.035.068-.034.068-.033.068-.033.069-.032.069-.031.069-.031.07-.03.07-.029.07-.029.07-.028.071-.027.071-.027.071-.026L71.5,20.6l.072-.025.072-.024.072-.023.072-.023.072-.022.073-.021.073-.021.073-.02.073-.019.073-.019.074-.018.074-.017a.061.061,0,0,1,.073.046l1.774,7.774a.061.061,0,0,1-.059.074Zm-5.024-6.174,4.909,5.88-1.7-7.468-.05.012-.072.018-.072.019-.072.019-.072.02-.072.021-.071.021-.071.022-.071.023-.071.023-.071.024-.07.025-.07.025-.07.026-.07.027-.069.027-.069.028-.069.029-.069.029-.068.03-.068.031-.068.031-.067.032-.067.032-.067.033-.066.034-.066.034-.066.035-.066.036-.065.036-.065.037-.064.037-.064.038-.064.039-.063.039-.063.04-.063.04-.062.041-.062.042-.061.042-.061.043-.061.043-.06.044-.06.044-.059.045-.059.046-.059.046-.058.047Z" transform="translate(-68.989 -20.344)"/>
              </g>
            </g>
          </g>
          <g id="patch_6" transform="translate(0.416 0.419)" opacity="0.938">
            <g id="Group_435" data-name="Group 435" transform="translate(0 0)" clip-path="url(#clip-path-10)">
              <g id="Group-4" data-name="Group" transform="translate(1.933 5.882)" opacity="0.6">
                <path id="path391" d="M62.453,59.342h0l-.069.012-.069.012-.069.012-.069.012-.069.012-.069.012-.069.012-.069.012-.069.012-.069.012-.069.012-.069.012-.069.012-.069.012-.069.012-.069.012-.069.012-.069.012-.069.012-.069.012-.069.012-.069.012-.069.012-.069.012-.069.012-.069.012-.069.012-.069.012-.069.012-.069.012-.069.012-.069.012-.069.012-.069.012-.069.012-.069.012-.069.012-.069.012-.069.012-.069.012-.069.012-.069.012-.069.012-.069.012-.069.012-.069.012-.069.012-.069.012-.069.012-.069.012-.069.012-.069.012L58.814,60l-.069.012-.069.012-.069.012-.069.012-.069.012-.069.012-.069.012-.069.012-.069.012-.069.012-.069.012-.069.012-.069.012-.069.012-.069.012-.069.012-.069.012-.069.012-.069.012-.069.012-.069.012-.069.012-.069.012-.069.012-.069.012-.069.012-.069.012-.069.012-.069.012-.069.012-.069.012-.069.012-.069.012-.069.012-.069.012-.069.012-.069.012-.069.012-.069.012-.069.012L56,60.513l-.069.012-.069.012-.069.012-.069.012-.069.012-.069.012-.008-.043-.007-.043-.007-.043-.007-.043-.007-.043-.006-.043-.006-.043-.006-.043-.006-.043-.005-.044,0-.044,0-.044,0-.044,0-.044,0-.044,0-.044,0-.044,0-.044,0-.044,0-.044,0-.044,0-.044,0-.044V59.1l0-.044,0-.044,0-.044,0-.044,0-.044,0-.044,0-.044,0-.044,0-.044,0-.044,0-.044,0-.044,0-.044.005-.044.005-.043.006-.043.006-.043.006-.043.007-.043.007-.043.007-.043.007-.043.008-.043.008-.043.008-.043.008-.043.009-.043.009-.043.009-.043.01-.043.01-.043.01-.043.01-.043.011-.043.011-.042.011-.042.011-.042.012-.042.012-.042.012-.042.012-.042.013-.042.013-.042.013-.042.014-.042.014-.042.014-.042.014-.041L55.88,57l.015-.041.015-.041.015-.041.016-.041.016-.041.016-.041.016-.041.017-.041.017-.04.017-.04.017-.04.018-.04.018-.04.018-.04.018-.04.019-.04.019-.04.063.03.063.03.063.03.063.03.063.03.063.03.063.03.063.03.063.03.063.03.063.03.063.03.063.03.063.03.063.03.063.03.063.03.063.03.063.03.063.03.063.03.063.03.063.03.063.03.063.03.063.03.063.03.063.03.063.03.063.03.063.03.063.03.063.03.063.03.063.03.063.03.063.03.063.03.063.03.063.03.063.03.063.03.063.03.063.03.063.03.063.03.063.03.063.03.063.03.063.03.063.03.063.03.063.03.063.03.063.03.063.03.063.03.063.03.063.03.063.03.063.03.063.03.063.03.063.03.063.03.063.03.063.03.063.03.063.03.063.03.063.03.063.03.063.03.063.03.063.03.063.03.063.03.063.03.063.03.063.03.063.03.063.03.063.03.063.03.063.03.063.03.063.03.063.03.063.03.063.03.063.03.063.03.063.03.063.03.063.03.063.03.063.03.063.03.063.03Z" transform="translate(-55.415 -56.255)" fill="rgba(255,196,0,0)"/>
                <path id="path391_-_Outline" data-name="path391 - Outline" d="M55.194,60.255a.061.061,0,0,1-.06-.05l-.015-.087-.014-.087-.013-.087-.012-.088-.011-.088-.01-.088-.009-.088-.008-.088-.006-.088-.005-.088,0-.088,0-.088,0-.088v-.221l0-.088,0-.088,0-.088.005-.088.006-.088.007-.088.009-.088.01-.088.011-.088.012-.088.013-.087.014-.087.015-.087.016-.087.017-.087.018-.086.02-.086.021-.086.022-.086.023-.085.024-.085.025-.085.026-.085.027-.084.028-.084.029-.084.03-.083.031-.083.032-.082.033-.082.034-.082.035-.081.036-.081.037-.08.019-.04a.061.061,0,0,1,.081-.029l6.286,3.027a.061.061,0,0,1-.015.114l-6.865,1.246ZM55.8,56l-.029.063-.036.079-.035.08-.034.08-.033.081-.032.081-.031.081-.03.082-.029.082-.028.082-.027.083-.026.083-.024.083-.023.084-.022.084-.021.084-.02.085-.019.085-.018.085-.017.085-.016.085-.015.086-.014.086-.013.086-.012.086-.011.086-.009.086-.008.087-.007.087-.006.087-.005.087,0,.087,0,.087,0,.087V59.1l0,.087,0,.087,0,.087.006.087.007.087.008.087.009.086.01.086.011.086.012.086.013.086.011.068,6.621-1.2Z" transform="translate(-55.022 -55.861)"/>
              </g>
            </g>
          </g>
          <g id="patch_7" transform="translate(0.416 0.419)">
            <g id="Group_436" data-name="Group 436" transform="translate(0 0)" clip-path="url(#clip-path-10)">
              <g id="Group-5" data-name="Group" transform="translate(5.318 8.909)" opacity="0.6">
                <path id="path394" d="M84.4,78.966h0l-.033.023-.033.023-.033.023-.033.023-.033.023L84.2,79.1l-.033.023-.033.023-.033.023-.033.023-.033.023L84,79.238l-.033.023-.033.023-.033.023-.033.023-.033.023-.033.023-.033.023-.033.023-.033.023-.033.023-.033.023-.033.023-.033.023-.033.023-.033.023-.033.023-.033.023-.033.023-.033.023-.033.023-.033.023-.033.023-.033.023-.033.023-.033.023-.033.023-.033.023-.033.023-.033.023-.033.023-.033.023-.033.023-.033.023-.033.023-.033.023-.033.023-.033.023-.033.023-.033.023-.033.023-.033.023-.033.023-.033.023-.033.023-.033.023-.033.023-.033.023-.033.023-.033.023-.033.023-.033.023-.033.023-.033.023-.033.023-.033.023-.033.023-.033.023-.033.023-.033.023-.033.023L82,80.623l-.033.023-.033.023-.033.023-.033.023-.033.023-.033.023-.033.023-.033.023-.033.023-.033.023-.033.023-.033.023-.033.023-.033.023-.033.023-.033.023-.033.023-.033.023-.033.023-.033.023-.033.023-.033.023-.033.023-.033.023-.033.023-.033.023-.033.023,0-.005,0-.005,0-.005,0-.005,0-.005,0-.005,0-.005,0-.005,0-.005,0-.005,0-.005,0-.005,0-.005,0-.005,0-.005,0-.005,0-.005,0-.005,0-.005,0-.005,0-.005,0-.005,0-.005,0-.005,0-.005,0-.005,0-.005,0-.005,0-.005,0-.005,0-.005,0-.005,0-.005,0-.005,0-.005,0-.005,0-.005,0-.005,0-.005,0-.005,0-.005,0-.005,0-.005,0-.005,0-.005,0-.005,0-.005,0-.005,0-.005,0-.005,0-.005,0-.005,0-.005,0-.005,0-.005,0-.005,0-.005,0-.005,0-.005,0-.005,0-.005,0-.005,0-.005,0-.005,0-.005,0-.005,0-.005,0-.005,0-.006,0-.006,0-.006,0-.006,0-.006,0-.006,0-.006,0-.006,0-.006,0-.006,0-.006,0-.006,0-.006,0-.006,0-.006,0-.006,0-.006,0-.006,0-.006,0-.006,0-.006,0-.006,0-.006,0-.006,0-.006,0-.006,0-.006,0-.006,0-.006,0-.006,0-.006,0-.006.036-.017.036-.017.036-.017.036-.017.036-.017.036-.017.036-.017.036-.017.036-.017.036-.017.036-.017.036-.017.036-.017.036-.017.036-.017.036-.017.036-.017.036-.017.036-.017.036-.017.036-.017.036-.017.036-.017.036-.017.036-.017.036-.017.036-.017.036-.017.036-.017.036-.017.036-.017.036-.017.036-.017.036-.017.036-.017.036-.017.036-.017.036-.017.036-.017L82.24,80l.036-.017.036-.017.036-.017.036-.017.036-.017.036-.017.036-.017.036-.017.036-.017.036-.017.036-.017.036-.017.036-.017.036-.017.036-.017.036-.017.036-.017.036-.017.036-.017.036-.017.036-.017.036-.017.036-.017.036-.017.036-.017.036-.017.036-.017.036-.017.036-.017.036-.017.036-.017.036-.017.036-.017.036-.017L83.5,79.4l.036-.017.036-.017.036-.017.036-.017.036-.017.036-.017.036-.017.036-.017.036-.017.036-.017.036-.017.036-.017.036-.017L84,79.156l.036-.017.036-.017.036-.017.036-.017.036-.017.036-.017.036-.017.036-.017L84.323,79l.036-.017Z" transform="translate(-80.743 -78.905)" fill="rgba(41,255,206,0)"/>
                <path id="path394_-_Outline" data-name="path394 - Outline" d="M84,78.511a.061.061,0,0,1,.035.111l-3.277,2.27a.061.061,0,0,1-.085-.015l-.118-.181-.108-.187-.093-.181a.061.061,0,0,1,.028-.081l3.592-1.73A.061.061,0,0,1,84,78.511ZM80.74,80.757l2.593-1.8L80.491,80.33l.1.191.112.184Z" transform="translate(-80.349 -78.511)"/>
              </g>
            </g>
          </g>
          <g id="patch_8" transform="translate(0.416 0.419)" opacity="0.938">
            <g id="Group_437" data-name="Group 437" transform="translate(0 0)" clip-path="url(#clip-path-10)">
              <g id="Group-6" data-name="Group" transform="translate(7.8 8.909)" opacity="0.6">
                <path id="path397" d="M100.491,78.966h0l.008.049.008.049.008.049.008.049.008.049.008.049.008.049.008.049.008.049.008.049.008.049.008.049.008.049.008.049.008.049.008.049.008.049.008.049.008.049.008.049.008.049.008.049.008.049.008.049.008.049.008.049.008.049.008.049.008.049.008.049.008.049.008.049.008.049.008.049.008.049.008.049.008.049.008.049.008.049.008.049.008.049.008.049.008.049.008.049.008.049.008.049.008.049.008.049.008.049.008.049.008.049.008.049.008.049.008.049.008.049.008.049.008.049.008.049.008.049.008.049.008.049.008.049.008.049.008.049.008.049.008.049.008.049.008.049.008.049.008.049.008.049.008.049.008.049.008.049.008.049.008.049.008.049.008.049.008.049.008.049.008.049.008.049.008.049.008.049.008.049.008.049.008.049.008.049.008.049.008.049.008.049.008.049.008.049.008.049.008.049.008.049.008.049.008.049.008.049.008.049-.019,0-.019,0-.019,0-.019,0-.019,0-.019,0-.019,0-.019,0-.019,0-.019,0-.019,0-.019,0-.019,0-.019,0-.019,0-.019,0-.019,0-.019,0-.019,0-.019,0-.019,0-.02,0-.02,0h-.762l-.02,0-.02,0-.02,0-.019,0-.019,0-.019,0-.019,0-.019,0-.019,0-.019,0-.019,0-.019,0-.019,0-.019,0-.019,0-.019,0-.019,0-.019,0-.019,0-.019,0-.019,0-.019,0-.019,0-.019,0-.019,0-.019,0-.019,0-.019,0-.019,0-.019,0-.019,0-.019,0-.019,0-.019,0-.019,0-.019,0-.019,0-.019,0,.011-.049.011-.049.011-.049.011-.049.011-.049.011-.049.011-.049.011-.049.011-.049.011-.049.011-.049.011-.049.011-.049.011-.049.011-.049.011-.049L99.57,83l.011-.049.011-.049.011-.049.011-.049.011-.049.011-.049.011-.049.011-.049.011-.049.011-.049.011-.049.011-.049.011-.049.011-.049.011-.049.011-.049.011-.049.011-.049.011-.049.011-.049.011-.049.011-.049.011-.049.011-.049.011-.049.011-.049.011-.049.011-.049.011-.049.011-.049.011-.049.011-.049.011-.049.011-.049.011-.049.011-.049.011-.049.011-.049L100,81.1l.011-.049.011-.049.011-.049.011-.049.011-.049.011-.049.011-.049.011-.049.011-.049.011-.049.011-.049.011-.049.011-.049.011-.049.011-.049.011-.049.011-.049.011-.049.011-.049.011-.049.011-.049.011-.049.011-.049.011-.049.011-.049.011-.049.011-.049.011-.049.011-.049.011-.049.011-.049.011-.049.011-.049.011-.049.011-.049.011-.049.011-.049.011-.049.011-.049.011-.049.011-.049.011-.049.011-.049Z" transform="translate(-99.321 -78.905)" fill="rgba(125,255,122,0)"/>
                <path id="path397_-_Outline" data-name="path397 - Outline" d="M100.1,78.511h0a.061.061,0,0,1,.058.051l.835,4.913a.061.061,0,0,1-.05.07l-.1.016-.1.014-.1.012-.1.01-.1.008-.1.006-.1,0-.1,0H100l-.1,0-.1,0-.1-.007-.1-.009-.1-.011-.1-.013-.1-.015-.1-.017-.1-.018-.1-.02-.039-.009a.061.061,0,0,1-.046-.073l1.109-4.859A.061.061,0,0,1,100.1,78.511Zm.765,4.924-.773-4.552-1.027,4.5.092.019.1.018.1.016.1.014.1.012.1.01.1.008.1.006.1,0,.1,0h.174l.1,0,.1,0,.1-.007.1-.008.1-.01.1-.012Z" transform="translate(-98.927 -78.511)"/>
              </g>
            </g>
          </g>
          <g id="patch_9" transform="translate(0.416 0.419)" opacity="0.938">
            <g id="Group_438" data-name="Group 438" transform="translate(0 0)" clip-path="url(#clip-path-10)">
              <g id="Group-7" data-name="Group" transform="translate(8.909 8.909)" opacity="0.6">
                <path id="path400" d="M107.68,78.966h0l.063.049.063.049.063.049.063.049.063.049.063.049.063.049.063.049.063.049.063.049.063.049.063.049.063.049.063.049.063.049.063.049.063.049.063.049.063.049.063.049.063.049.063.049.063.049.063.049.063.049.063.049.063.049.063.049.063.049.063.049.063.049.063.049.063.049.063.049.063.049.063.049.063.049.063.049.063.049.063.049.063.049.063.049.063.049.063.049.063.049.063.049.063.049.063.049.063.049.063.049.063.049.063.049.063.049.063.049.063.049.063.049.063.049.063.049.063.049.063.049.063.049.063.049.063.049.063.049.063.049.063.049.063.049.063.049.063.049.063.049.063.049.063.049.063.049.063.049.063.049.063.049.063.049.063.049.063.049.063.049.063.049.063.049.063.049.063.049.063.049.063.049.063.049.063.049.063.049.063.049.063.049.063.049.063.049.063.049.063.049.063.049.063.049.063.049.063.049.063.049-.012.015-.012.015-.012.015-.012.015-.012.015-.012.015-.012.015-.012.015-.012.015-.012.015-.012.015-.012.014-.012.014-.012.014-.012.014-.012.014-.012.014-.012.014-.012.014-.012.014-.012.014-.012.014-.012.014-.012.014-.012.014-.012.014-.012.014-.012.014-.013.014-.013.014-.013.014-.013.014-.013.014-.013.014-.013.014-.013.014-.013.014-.013.014-.013.014-.013.014-.013.014-.013.014-.013.014-.013.014-.013.014-.013.013-.013.013-.013.013-.013.013-.013.013-.013.013-.013.013-.013.013-.013.013-.013.013-.013.013-.013.013-.013.013-.013.013-.014.013-.014.013-.014.013-.014.013-.014.013-.014.013-.014.013-.014.013-.014.013-.014.013-.014.013-.014.013-.014.013-.014.013-.014.013-.014.013-.014.013-.014.013-.014.012-.014.012-.014.012-.014.012-.014.012L112.9,85l-.014.012-.014.012-.014.012-.014.012-.014.012-.014.012-.014.012-.014.012-.014.012-.014.012-.015.012-.015.012-.015.012-.015.012-.015.012-.015.012-.015.012-.05-.062-.05-.062-.05-.062-.05-.062-.05-.062-.05-.062-.05-.062-.05-.062-.05-.062-.05-.062-.05-.062-.05-.062-.05-.062-.05-.062-.05-.062-.05-.062-.05-.062-.05-.062-.05-.062-.05-.062-.05-.062-.05-.062-.05-.062-.05-.062-.05-.062-.05-.062-.05-.062-.05-.062-.05-.062-.05-.062-.05-.062-.05-.062-.05-.062-.05-.062-.05-.062-.05-.062-.05-.062-.05-.062-.05-.062-.05-.062-.05-.062-.05-.062-.05-.062-.05-.062-.05-.062-.05-.062-.05-.062-.05-.062-.05-.062-.05-.062-.05-.062-.05-.062-.05-.062-.05-.062-.05-.062-.05-.062-.05-.062-.05-.062-.05-.062-.05-.062-.05-.062-.05-.062-.05-.062-.05-.062-.05-.062-.05-.062-.05-.062-.05-.062-.05-.062-.05-.062-.05-.062-.05-.062-.05-.062-.05-.062-.05-.062-.05-.062-.05-.062-.05-.062-.05-.062-.05-.062-.05-.062-.05-.062-.05-.062-.05-.062-.05-.062-.05-.062-.05-.062-.05-.062-.05-.062-.05-.062-.05-.062-.05-.062-.05-.062-.05-.062-.05-.062-.05-.062-.05-.062-.05-.062-.05-.062Z" transform="translate(-107.62 -78.905)" fill="rgba(255,104,0,0)"/>
                <path id="path400_-_Outline" data-name="path400 - Outline" d="M107.287,78.511a.061.061,0,0,1,.037.013l6.289,4.9a.061.061,0,0,1,.011.085l-.094.118-.1.117-.1.115-.1.113-.1.111-.1.109-.107.107-.109.105-.111.1-.113.1-.115.1-.117.1-.059.047a.061.061,0,0,1-.085-.01l-4.971-6.234a.061.061,0,0,1,.047-.1Zm6.2,4.972-5.836-4.548,4.613,5.785.111-.092.113-.1.111-.1.11-.1.108-.1.106-.105.1-.107.1-.109.1-.111.1-.113.1-.115Z" transform="translate(-107.226 -78.511)"/>
              </g>
            </g>
          </g>
          <g id="patch_10" transform="translate(0.282 0.285)">
            <path id="path403" d="M48.66,29.049a9.114,9.114,0,1,1,6.435-2.67A9.141,9.141,0,0,1,48.66,29.049Zm0-17.942A8.841,8.841,0,1,0,54.908,13.7,8.881,8.881,0,0,0,48.66,11.108Z" transform="translate(-39.555 -10.841)" fill="#202020"/>
          </g>
          <g id="patch_3-1" transform="translate(0.416 0.419)">
            <g id="Group_439" data-name="Group 439" transform="translate(0 0)" clip-path="url(#clip-path-10)">
              <path id="path382-9" d="M109.28,74.64h-1.994a.061.061,0,0,1-.019-.118l1.9-.616a.061.061,0,0,1,.077.039l.031.1.025.107.019.1.014.109.008.1,0,.11a.061.061,0,0,1-.061.061Zm-1.61-.121h1.548l-.007-.115-.013-.109-.019-.108-.025-.106-.011-.041Z" transform="translate(-98.316 -65.609)" fill="#fff"/>
            </g>
          </g>
          <g id="patch_4-2" transform="translate(0.416 0.419)">
            <g id="Group_440" data-name="Group 440" transform="translate(0 0)" clip-path="url(#clip-path-10)">
              <path id="path385-8" d="M107.287,42.338a.061.061,0,0,1-.057-.082l2.1-5.6a.061.061,0,0,1,.078-.035l.106.041.105.043.1.045.1.047.1.049.1.051.1.053.1.055.1.056.1.058.1.06.1.062.094.064.093.066.092.067.091.069.06.047a.061.061,0,0,1,.01.085l-3.729,4.675A.061.061,0,0,1,107.287,42.338Zm2.137-5.581-1.945,5.183,3.451-4.328-.085-.065-.09-.066-.091-.065-.092-.063-.093-.061-.095-.059-.1-.057-.1-.056-.1-.054-.1-.052-.1-.05-.1-.048-.1-.046-.1-.044-.1-.042Z" transform="translate(-98.316 -33.307)" fill="#fff"/>
            </g>
          </g>
          <g id="patch_5-0" transform="translate(0.416 0.419)">
            <g id="Group_441" data-name="Group 441" transform="translate(0 0)" clip-path="url(#clip-path-10)">
              <path id="path388-3" d="M74.16,28.239a.061.061,0,0,1-.047-.022L69,22.1a.061.061,0,0,1,.008-.086l.058-.048.059-.048.059-.047.06-.047.06-.046.061-.045.061-.045.061-.044.062-.044.062-.043.063-.043.063-.042.063-.041.064-.041.064-.04.065-.04.065-.039.065-.038.066-.038.066-.037.066-.036.067-.036.067-.035.067-.035.068-.034.068-.033.068-.033.069-.032.069-.031.069-.031.07-.03.07-.029.07-.029.07-.028.071-.027.071-.027.071-.026L71.5,20.6l.072-.025.072-.024.072-.023.072-.023.072-.022.073-.021.073-.021.073-.02.073-.019.073-.019.074-.018.074-.017a.061.061,0,0,1,.073.046l1.774,7.774a.061.061,0,0,1-.059.074Zm-5.024-6.174,4.909,5.88-1.7-7.468-.05.012-.072.018-.072.019-.072.019-.072.02-.072.021-.071.021-.071.022-.071.023-.071.023-.071.024-.07.025-.07.025-.07.026-.07.027-.069.027-.069.028-.069.029-.069.029-.068.03-.068.031-.068.031-.067.032-.067.032-.067.033-.066.034-.066.034-.066.035-.066.036-.065.036-.065.037-.064.037-.064.038-.064.039-.063.039-.063.04-.063.04-.062.041-.062.042-.061.042-.061.043-.061.043-.06.044-.06.044-.059.045-.059.046-.059.046-.058.047Z" transform="translate(-65.19 -19.208)" fill="#fff"/>
            </g>
          </g>
          <g id="patch_6-4" transform="translate(0.416 0.419)">
            <g id="Group_442" data-name="Group 442" transform="translate(0 0)" clip-path="url(#clip-path-10)">
              <path id="path391-5" d="M55.194,60.255a.061.061,0,0,1-.06-.05l-.015-.087-.014-.087-.013-.087-.012-.088-.011-.088-.01-.088-.009-.088-.008-.088-.006-.088-.005-.088,0-.088,0-.088,0-.088v-.221l0-.088,0-.088,0-.088.005-.088.006-.088.007-.088.009-.088.01-.088.011-.088.012-.088.013-.087.014-.087.015-.087.016-.087.017-.087.018-.086.02-.086.021-.086.022-.086.023-.085.024-.085.025-.085.026-.085.027-.084.028-.084.029-.084.03-.083.031-.083.032-.082.033-.082.034-.082.035-.081.036-.081.037-.08.019-.04a.061.061,0,0,1,.081-.029l6.286,3.027a.061.061,0,0,1-.015.114l-6.865,1.246ZM55.8,56l-.029.063-.036.079-.035.08-.034.08-.033.081-.032.081-.031.081-.03.082-.029.082-.028.082-.027.083-.026.083-.024.083-.023.084-.022.084-.021.084-.02.085-.019.085-.018.085-.017.085-.016.085-.015.086-.014.086-.013.086-.012.086-.011.086-.009.086-.008.087-.007.087-.006.087-.005.087,0,.087,0,.087,0,.087V59.1l0,.087,0,.087,0,.087.006.087.007.087.008.087.009.086.01.086.011.086.012.086.013.086.011.068,6.621-1.2Z" transform="translate(-53.089 -49.978)" fill="#fff"/>
            </g>
          </g>
          <g id="patch_7-2" transform="translate(0.416 0.419)" opacity="0.938">
            <g id="Group_443" data-name="Group 443" transform="translate(0 0)" clip-path="url(#clip-path-10)">
              <path id="path394-8" d="M84,78.511a.061.061,0,0,1,.035.111l-3.277,2.27a.061.061,0,0,1-.085-.015l-.118-.181-.108-.187-.093-.181a.061.061,0,0,1,.028-.081l3.592-1.73A.061.061,0,0,1,84,78.511ZM80.74,80.757l2.593-1.8L80.491,80.33l.1.191.112.184Z" transform="translate(-75.031 -69.602)" fill="#fff"/>
            </g>
          </g>
          <g id="patch_8-8" transform="translate(0.416 0.419)">
            <g id="Group_444" data-name="Group 444" transform="translate(0 0)" clip-path="url(#clip-path-10)">
              <path id="path397-2" d="M100.1,78.511h0a.061.061,0,0,1,.058.051l.835,4.913a.061.061,0,0,1-.05.07l-.1.016-.1.014-.1.012-.1.01-.1.008-.1.006-.1,0-.1,0H100l-.1,0-.1,0-.1-.007-.1-.009-.1-.011-.1-.013-.1-.015-.1-.017-.1-.018-.1-.02-.039-.009a.061.061,0,0,1-.046-.073l1.109-4.859A.061.061,0,0,1,100.1,78.511Zm.765,4.924-.773-4.552-1.027,4.5.092.019.1.018.1.016.1.014.1.012.1.01.1.008.1.006.1,0,.1,0h.174l.1,0,.1,0,.1-.007.1-.008.1-.01.1-.012Z" transform="translate(-91.127 -69.602)" fill="#fff"/>
            </g>
          </g>
          <g id="patch_9-9" transform="translate(0.416 0.419)">
            <g id="Group_445" data-name="Group 445" transform="translate(0 0)" clip-path="url(#clip-path-35)">
              <path id="path400-2" d="M107.287,78.511a.061.061,0,0,1,.037.013l6.289,4.9a.061.061,0,0,1,.011.085l-.094.118-.1.117-.1.115-.1.113-.1.111-.1.109-.107.107-.109.105-.111.1-.113.1-.115.1-.117.1-.059.047a.061.061,0,0,1-.085-.01l-4.971-6.234a.061.061,0,0,1,.047-.1Zm6.2,4.972-1.264-.985-4.572-3.563,4.613,5.785.111-.092.113-.1.111-.1.11-.1.108-.1.106-.105.1-.107.1-.109.1-.111.1-.113.1-.115Z" transform="translate(-98.316 -69.602)" fill="#fff"/>
            </g>
          </g>
        </g>
      </g>
    </g>
    <g id="Mask_Group_93" data-name="Mask Group 93" transform="translate(85 -288)" clip-path="url(#clip-path-36)">
      <path id="OpenAI_Logo" d="M66.059,3.719a3.147,3.147,0,0,0-3,1.435l-.274.506v-1.7H60.422V14.3H62.91V8.15A2.05,2.05,0,0,1,65.1,5.838a1.977,1.977,0,0,1,2.087,2.25V14.3h2.488V7.644C69.674,5.188,68.322,3.719,66.059,3.719ZM54,3.719A4.424,4.424,0,0,0,49.239,8.5V9.948c0,2.833,1.84,4.595,4.8,4.595a4.5,4.5,0,0,0,4.24-2.218l-1.543-.886a3.451,3.451,0,0,1-2.7,1.393,2.238,2.238,0,0,1-2.394-2.475V9.946h6.948V8.231A4.265,4.265,0,0,0,54,3.719Zm2.332,4.556H51.645V8.028c0-1.7.835-2.64,2.353-2.64a2.211,2.211,0,0,1,2.332,2.475ZM94.371,2.263V.286h-8.6V2.263h3.016V12.321H85.77V14.3h8.6V12.321H91.355V2.263h3.016ZM29.146,0c-3.843,0-6.231,2.4-6.231,6.25V8.334c0,3.856,2.387,6.25,6.231,6.25s6.231-2.394,6.231-6.25V6.249C35.376,2.395,32.988,0,29.146,0Zm3.66,8.477c0,2.56-1.334,4.029-3.66,4.029s-3.661-1.469-3.661-4.029V6.107c0-2.56,1.334-4.029,3.66-4.029s3.66,1.469,3.66,4.029v2.37ZM43.188,3.724A3.526,3.526,0,0,0,40.164,5.17l-.268.412V3.964H37.531V17.853h2.487v-5.03l.267.395a3.457,3.457,0,0,0,2.923,1.325,4.188,4.188,0,0,0,4.309-4.533V8.25c0-2.255-1.334-4.531-4.33-4.531v.005ZM45.03,9.891a2.432,2.432,0,0,1-2.534,2.7A2.46,2.46,0,0,1,40.02,9.933V8.38a2.491,2.491,0,0,1,2.5-2.7,2.424,2.424,0,0,1,2.516,2.7ZM76.549.291,71.527,14.3h2.524l.961-3h5.771l.009.03.95,2.974H84.27L79.245.286Zm-.916,9.031L77.9,2.231l2.242,7.083ZM16.454,7.305a4.452,4.452,0,0,0-.384-3.653A4.5,4.5,0,0,0,11.228,1.5,4.512,4.512,0,0,0,3.584,3.11,4.452,4.452,0,0,0,.61,5.268a4.5,4.5,0,0,0,.553,5.279,4.448,4.448,0,0,0,.38,3.653,4.5,4.5,0,0,0,4.846,2.157,4.452,4.452,0,0,0,3.354,1.5,4.5,4.5,0,0,0,4.293-3.129,4.455,4.455,0,0,0,2.974-2.157,4.5,4.5,0,0,0-.556-5.261ZM9.742,16.684A3.329,3.329,0,0,1,7.6,15.91l.106-.06L11.263,13.8a.591.591,0,0,0,.292-.507V8.28l1.5.869a.053.053,0,0,1,.028.039v4.153a3.35,3.35,0,0,1-3.343,3.343ZM2.556,13.615a3.326,3.326,0,0,1-.4-2.242l.106.063,3.558,2.052a.574.574,0,0,0,.581,0l4.346-2.506v1.735a.06.06,0,0,1-.025.046l-3.6,2.076a3.347,3.347,0,0,1-4.568-1.225ZM1.62,5.873A3.336,3.336,0,0,1,3.38,4.406V8.629a.57.57,0,0,0,.289.5l4.325,2.5-1.5.869a.056.056,0,0,1-.053,0L2.845,10.424A3.35,3.35,0,0,1,1.62,5.856ZM13.966,8.741,9.626,6.222l1.5-.866a.056.056,0,0,1,.053,0l3.593,2.076a3.343,3.343,0,0,1-.5,6.028V9.238a.588.588,0,0,0-.3-.5Zm1.5-2.249-.106-.063L11.8,4.36a.577.577,0,0,0-.584,0L6.878,6.865V5.13A.049.049,0,0,1,6.9,5.085l3.593-2.073a3.347,3.347,0,0,1,4.969,3.467v.014Zm-9.4,3.076L4.555,8.7a.06.06,0,0,1-.028-.042V4.518a3.347,3.347,0,0,1,5.487-2.569l-.106.06L6.353,4.061a.591.591,0,0,0-.292.507Zm.817-1.76L8.81,6.693l1.939,1.116V10.04L8.817,11.156,6.878,10.04l0-2.231Z" transform="translate(800 2084)"/>
    </g>
    <g id="Mask_Group_94" data-name="Mask Group 94" transform="translate(220 -227)" clip-path="url(#clip-path-37)">
      <g id="_x0020_1" transform="translate(665 2081)">
        <rect id="Rectangle_204" data-name="Rectangle 204" width="101.156" height="22.915" fill="none"/>
        <path id="Path_909" data-name="Path 909" d="M13.713.27H0V9.047Z" transform="translate(0 -0.264)" fill="#080808" fill-rule="evenodd"/>
        <path id="Path_910" data-name="Path 910" d="M262.04,197.91l8.007-5.19v6.761Z" transform="translate(-256.334 -188.523)" fill="#080808" fill-rule="evenodd"/>
        <g id="Group_447" data-name="Group 447" transform="translate(86.449 4.542)">
          <path id="Path_911" data-name="Path 911" d="M3984.738,222.286h-2.253l.094-11.528a9.381,9.381,0,0,1-.372,1.288l-4.088,10.241h-1.565l-4.1-10.162a9.607,9.607,0,0,1-.365-1.366h-.036q.074.822.075,2.683v8.845h-2.1v-13.7h3.2l3.6,9.122a14.164,14.164,0,0,1,.538,1.565h.046c.238-.721.427-1.255.574-1.6l3.668-9.083h3.084v13.7Zm-8.184,0-5.523-13.7h2.2l4.183,10.687Zm7.033-13.7h0Zm0,0-5.468,13.7-.719-3.038,4.253-10.658Z" transform="translate(-3970.03 -208.59)" fill="#080808"/>
        </g>
        <path id="Path_912" data-name="Path 912" d="M3449.37,222.89V209.27h4.322a5.119,5.119,0,0,1,3.129.862,2.7,2.7,0,0,1,1.154,2.253,3.23,3.23,0,0,1-.655,2.013,3.538,3.538,0,0,1-1.816,1.216v.039a3.563,3.563,0,0,1,2.247,1.038,3.17,3.17,0,0,1,.84,2.286,3.433,3.433,0,0,1-1.375,2.831,5.457,5.457,0,0,1-3.479,1.083Zm2.251-11.641,0,2.973c0,.527-.046.75.625.744l.832-.007a2.837,2.837,0,0,0,1.848-.558,1.924,1.924,0,0,0,.668-1.572q0-1.746-2.334-1.747h-1.442C3451.675,211.082,3451.621,211.1,3451.622,211.249Zm0,5.762v3.359c0,.578-.009.714.628.714h1.3a2.941,2.941,0,0,0,1.952-.584,2,2,0,0,0,.688-1.608q0-2.12-2.934-2.12h-1.377C3451.686,216.772,3451.62,216.819,3451.62,217.011Z" transform="translate(-3374.259 -204.713)" fill="#080808"/>
        <path id="Path_913" data-name="Path 913" d="M2851.714,222.615a9.44,9.44,0,0,1-4.584,1.119,6.38,6.38,0,0,1-4.731-1.818,6.516,6.516,0,0,1-1.809-4.813,6.763,6.763,0,0,1,1.979-5.02,6.852,6.852,0,0,1,5.029-1.963,9.574,9.574,0,0,1,3.525.576c.185.073.168.032.168.222v2.1a6.371,6.371,0,0,0-3.609-1.01,4.6,4.6,0,0,0-3.449,1.386,4.947,4.947,0,0,0-1.349,3.593,5.177,5.177,0,0,0,1.16,3.568,3.987,3.987,0,0,0,3.142,1.3,5.148,5.148,0,0,0,2.119-.41c.295-.132.233-.1.233-.423v-2.586c0-.209-.1-.236-.3-.236h-2.477v-1.455c0-.32.068-.382.411-.382h4.54Z" transform="translate(-2778.735 -205.545)" fill="#080808"/>
        <path id="Path_914" data-name="Path 914" d="M2534.407,220.778a3.924,3.924,0,0,1-1.664.3q-2.846,0-2.846-2.732v-5.529h-.817V211.08h.817l0-2.472a.3.3,0,0,1,.2-.314l2.02-.894,0,3.68h2.338v1.738h-2.338v4.891a1.937,1.937,0,0,0,.313,1.242,1.316,1.316,0,0,0,1.053.372,1.524,1.524,0,0,0,.972-.323v1.707C2534.452,220.764,2534.46,220.753,2534.407,220.778Z" transform="translate(-2474.009 -202.884)" fill="#080808"/>
        <path id="Path_915" data-name="Path 915" d="M2074.382,222.231h-2.214v-5.35q0-2.9-1.94-2.9a2.03,2.03,0,0,0-1.643.841,3.331,3.331,0,0,0-.668,2.149v5.262h-2.227V208.642c0-.123.072-.108.177-.108h1.964c.052,0,.086-.008.086.056v5.484h.039a3.5,3.5,0,0,1,3.169-1.852q3.257,0,3.257,3.981Z" transform="translate(-2020.709 -203.992)" fill="#080808"/>
        <path id="Path_916" data-name="Path 916" d="M1574.283,374.547q0,5.384-5.415,5.386a8.06,8.06,0,0,1-3.335-.639l1.819-1.268a3.139,3.139,0,0,0,1.23.159q3.487,0,3.485-3.43v-1.069h-.039a3.844,3.844,0,0,1-6.185.567,5.274,5.274,0,0,1-1.092-3.5,6.181,6.181,0,0,1,1.174-3.965,3.912,3.912,0,0,1,3.231-1.47,3.108,3.108,0,0,1,2.872,1.584h.039v-1.08c0-.231.036-.276.267-.276h1.656c.269,0,.294-.021.294.248Zm-2.2-3.7v-1.271a2.489,2.489,0,0,0-.682-1.761,2.232,2.232,0,0,0-1.7-.73,2.342,2.342,0,0,0-1.973.929,4.2,4.2,0,0,0-.714,2.6,3.607,3.607,0,0,0,.685,2.305,2.188,2.188,0,0,0,1.809.864,2.345,2.345,0,0,0,1.862-.825A3.1,3.1,0,0,0,1572.086,370.849Z" transform="translate(-1530.677 -357.365)" fill="#080808"/>
        <path id="Path_917" data-name="Path 917" d="M1399.567,398.19h-2.217v-9.617c0-.127.027-.164.168-.164h1.832c.2,0,.216-.006.216.175Z" transform="translate(-1366.922 -379.951)" fill="#080808"/>
        <path id="Path_918" data-name="Path 918" d="M1398.322,210.688a1.1,1.1,0,0,1-.77-.292.96.96,0,0,1-.322-.746.979.979,0,0,1,.322-.751,1.087,1.087,0,0,1,.77-.3,1.124,1.124,0,0,1,.792.3.981.981,0,0,1,.324.751.966.966,0,0,1-.324.732A1.116,1.116,0,0,1,1398.322,210.688Z" transform="translate(-1366.805 -204.058)" fill="#080808"/>
        <path id="Path_919" data-name="Path 919" d="M984.92,222.284V208.721c0-.137.06-.133.178-.133h1.927c.113,0,.167-.006.167.125v11.577c0,.088.033.074.1.074h5.025c.1,0,.181-.011.181.119v1.8Z" transform="translate(-963.473 -204.046)" fill="#080808"/>
        <path id="Path_920" data-name="Path 920" d="M.02,653.327H13.733V644.55Z" transform="translate(-0.02 -630.515)" fill="#080808" fill-rule="evenodd"/>
        <path id="Path_921" data-name="Path 921" d="M8.007,548.391,0,553.581V546.82Z" transform="translate(0 -534.913)" fill="#080808" fill-rule="evenodd"/>
      </g>
    </g>
    <g id="Mask_Group_95" data-name="Mask Group 95" transform="translate(-40 -182)" clip-path="url(#clip-path-38)">
      <g id="pandas-seeklogo.com" transform="translate(888.81 2034.61)">
        <path id="Path_922" data-name="Path 922" d="M250.2,130.576a5.223,5.223,0,0,1-4.108-1.894v6.776H243V118.731h2.8l.107,1.84a5.222,5.222,0,0,1,4.294-2.161c3.121,0,5.421,2.615,5.421,6.083S253.326,130.578,250.2,130.576Zm-.959-9.87c-1.814,0-3.281,1.414-3.281,3.788s1.467,3.791,3.281,3.791,3.281-1.414,3.281-3.788S251.06,120.706,249.246,120.706Z" transform="translate(-175.67 -53.531)" fill="#080808"/>
        <path id="Path_923" data-name="Path 923" d="M348.943,130.284l-.107-1.84a5.219,5.219,0,0,1-4.3,2.159c-3.121,0-5.421-2.614-5.421-6.082s2.295-6.083,5.421-6.082a5.241,5.241,0,0,1,4.3,2.161l.107-1.84h2.807v11.523Zm-3.441-9.551c-1.814,0-3.281,1.414-3.282,3.788s1.467,3.79,3.281,3.79,3.282-1.414,3.282-3.788S347.317,120.733,345.5,120.733Z" transform="translate(-257.317 -53.556)" fill="#080808"/>
        <path id="Path_924" data-name="Path 924" d="M447.761,130.294v-6.375c0-2.241-.772-2.987-2.186-2.987a3.173,3.173,0,0,0-3.069,2.933v6.429h-3.1V118.769h2.829l.134,2.135a4.908,4.908,0,0,1,4.269-2.454c3.067,0,4.216,2.135,4.216,4.988V130.3Z" transform="translate(-342.506 -53.565)" fill="#080808"/>
        <path id="Path_925" data-name="Path 925" d="M535.362,106.836l-.107-1.842a5.224,5.224,0,0,1-4.294,2.161c-3.121,0-5.421-2.615-5.421-6.083s2.295-6.082,5.421-6.082a5.229,5.229,0,0,1,4.108,1.894V90.83h3.1v16.006Zm-3.441-9.551c-1.807,0-3.281,1.414-3.281,3.787s1.467,3.787,3.281,3.787,3.281-1.412,3.281-3.787S533.74,97.285,531.921,97.285Z" transform="translate(-415.667 -30.104)" fill="#080808"/>
        <path id="Path_926" data-name="Path 926" d="M631.183,130.316l-.107-1.84a5.223,5.223,0,0,1-4.3,2.159c-3.121,0-5.421-2.614-5.421-6.083s2.295-6.082,5.421-6.082a5.238,5.238,0,0,1,4.3,2.162l.107-1.842h2.8v11.523Zm-3.441-9.551c-1.807,0-3.281,1.414-3.283,3.788s1.468,3.784,3.281,3.784,3.283-1.414,3.283-3.788S629.557,120.765,627.743,120.765Z" transform="translate(-497.059 -53.582)" fill="#080808"/>
        <path id="Path_927" data-name="Path 927" d="M724.7,130.555a9.059,9.059,0,0,1-4.615-1.308l.507-2.134a7.924,7.924,0,0,0,4.055,1.281c1.227,0,2.081-.373,2.081-1.334,0-.827-.881-1.12-2.454-1.494-2.828-.614-3.841-2.108-3.841-3.736,0-1.814,1.414-3.52,4.535-3.52a8.625,8.625,0,0,1,3.915,1.04l-.508,2.028a6.714,6.714,0,0,0-3.334-.961c-1.253,0-1.867.426-1.867,1.12,0,.772.8,1.12,2.027,1.414,3.042.64,4.269,2.054,4.269,3.6C729.471,129.034,727.657,130.555,724.7,130.555Z" transform="translate(-580.915 -53.446)" fill="#080808"/>
        <rect id="Rectangle_206" data-name="Rectangle 206" width="3.627" height="7.532" transform="translate(42.016 57.352)" fill="#080808"/>
        <rect id="Rectangle_207" data-name="Rectangle 207" width="3.627" height="7.532" transform="translate(42.016 72.823)" fill="#080808"/>
        <rect id="Rectangle_208" data-name="Rectangle 208" width="3.627" height="3.554" transform="translate(42.016 67.082)" fill="#080808"/>
        <rect id="Rectangle_209" data-name="Rectangle 209" width="3.627" height="25.036" transform="translate(36.19 63.545)" fill="#080808"/>
        <rect id="Rectangle_210" data-name="Rectangle 210" width="3.627" height="7.532" transform="translate(47.722 79.037)" fill="#080808"/>
        <rect id="Rectangle_211" data-name="Rectangle 211" width="3.627" height="7.532" transform="translate(47.722 63.554)" fill="#080808"/>
        <rect id="Rectangle_212" data-name="Rectangle 212" width="3.627" height="3.554" transform="translate(47.722 73.284)" fill="#080808"/>
        <rect id="Rectangle_213" data-name="Rectangle 213" width="3.627" height="25.036" transform="translate(53.428 55.39)" fill="#080808"/>
      </g>
    </g>
  </g>
</svg>
