<svg xmlns="http://www.w3.org/2000/svg" width="306.666" height="290.713" viewBox="0 0 306.666 290.713">
  <g id="Group_229" data-name="Group 229" transform="translate(-237.669 -2812.483)">
    <path id="Union_18" data-name="Union 18" d="M-1498.058,257.91a359.576,359.576,0,0,1,16.531-232.039C-1469.8-1.86-1433.621-8.894-1412.6,12.6a356.053,356.053,0,0,0,175.347,98c31.856,7.261,43.879,47.352,21.111,70.884a356.411,356.411,0,0,1-85.883,65.245,353.532,353.532,0,0,1-152.986,42.919c-.661.031-1.316.046-1.972.046A42.622,42.622,0,0,1-1498.058,257.91Z" transform="translate(1748.189 2813)" fill="#ffd000" stroke="rgba(0,0,0,0)" stroke-width="1"/>
    <g id="design" transform="translate(282.656 3423.311)">
      <path id="Path_533" data-name="Path 533" d="M1.474-511.576A3.106,3.106,0,0,0,0-508.783c0,1.206,5,21.267,5.9,23.635,1.809,4.825,2.5,5.7,14.253,17.492l10.455,10.5L16.062-442.636C-.894-425.681.112-426.932.112-422.643c0,2.435.045,2.636.737,4.133.693,1.452,1.385,2.212,9.606,10.432s8.98,8.913,10.432,9.606c1.5.693,1.7.737,4.133.737,4.244,0,2.77,1.162,19.77-15.772l14.744-14.722,13.18,13.2c7.26,7.26,13.806,13.649,14.565,14.185a16.665,16.665,0,0,0,10.12,3.217,15.731,15.731,0,0,0,7.484-1.675,16.474,16.474,0,0,0,7.953-8.042,15.312,15.312,0,0,0,1.474-8.132,15.272,15.272,0,0,0-3.172-9.293c-.536-.737-6.9-7.26-14.163-14.521l-13.2-13.18L98.494-467.21c16.933-17,15.772-15.526,15.772-19.77,0-2.435-.045-2.636-.737-4.133-.693-1.452-1.385-2.212-9.606-10.432s-8.98-8.913-10.432-9.606c-1.5-.693-1.7-.737-4.133-.737-4.289,0-3.038-1.005-19.994,15.95L54.843-481.4l-10.5-10.455C32.526-503.6,31.677-504.293,26.83-506.125,24.439-507.018,4.446-512,3.217-512A3.349,3.349,0,0,0,1.474-511.576ZM98.9-496.519l8.556,8.534V-487c0,.916-.112,1.072-1.787,2.792L103.9-482.4,98.7-487.583a76.8,76.8,0,0,0-5.92-5.518,3.464,3.464,0,0,0-4.535,1.474c-1.05,2.323-.737,2.882,5.428,9.07l5.183,5.183-2.457,2.457-2.457,2.457-2.792-2.77a37.6,37.6,0,0,0-3.284-3.016,4.635,4.635,0,0,0-3.195.089,3.436,3.436,0,0,0-1.675,3.842c.134.693.693,1.385,3.083,3.82L89-467.545l-2.5,2.524-2.5,2.5L78.7-467.813c-2.926-2.9-5.54-5.384-5.808-5.518a3.885,3.885,0,0,0-1.407-.246,3.318,3.318,0,0,0-3.329,4.312c.2.8,1.028,1.72,5.585,6.3l5.339,5.361-2.457,2.457-2.457,2.435-2.748-2.725c-3.06-3.016-3.887-3.53-5.5-3.284a3.613,3.613,0,0,0-2.815,2.658c-.313,1.653.134,2.457,3.195,5.563l2.815,2.837-2.39,2.413-2.39,2.39-5.183-5.183a76.819,76.819,0,0,0-5.92-5.518,3.464,3.464,0,0,0-4.535,1.474c-1.05,2.323-.737,2.882,5.428,9.07l5.183,5.183-2.457,2.457L54.4-432.919l-2.792-2.77A37.6,37.6,0,0,0,48.32-438.7a4.635,4.635,0,0,0-3.195.089,3.453,3.453,0,0,0-1.675,3.865c.134.67.693,1.363,3.083,3.8L49.459-428l-2.5,2.524-2.5,2.5-5.294-5.294c-2.926-2.9-5.54-5.384-5.808-5.518a3.885,3.885,0,0,0-1.407-.246,3.318,3.318,0,0,0-3.329,4.312c.2.8,1.028,1.72,5.585,6.3l5.339,5.361-2.457,2.457-2.457,2.435L31.878-415.9c-3.06-3.016-3.887-3.53-5.5-3.284a3.613,3.613,0,0,0-2.815,2.658c-.313,1.653.134,2.457,3.217,5.563L29.6-408.1l-1.809,1.765c-1.72,1.675-1.877,1.787-2.792,1.787h-.983L15.481-413.1l-8.556-8.534v-2.011l40.725-40.7,40.7-40.725h2.011Zm-82.723-5.294c10.1,2.547,11.5,3.195,15.839,7.439l1.5,1.474-7.193,7.193L19.1-478.491l-1.184-1.184a24.055,24.055,0,0,1-4.87-6.523c-.737-1.586-1.363-3.641-2.859-9.651-1.05-4.2-1.921-7.685-1.921-7.752C8.266-503.8,8.221-503.824,16.174-501.813Zm28.058,19.636,5.7,5.7-7.216,7.216-7.193,7.193-5.741-5.764-5.764-5.741,7.149-7.149c3.932-3.932,7.193-7.149,7.26-7.149S41.1-485.3,44.232-482.177Zm41.73,41.73,6.97,6.97-7.216,7.216-7.193,7.193-7.037-7.037-7.037-7.037,7.149-7.149c3.932-3.932,7.193-7.149,7.26-7.149S82.119-444.289,85.962-440.447ZM101.8-424.586c3.306,3.373,3.909,4.088,4.669,5.63.871,1.742.871,1.787.871,4.356,0,2.547-.022,2.636-.827,4.267a10.214,10.214,0,0,1-4.848,4.848c-1.631.8-1.72.827-4.267.827-2.569,0-2.614,0-4.356-.871-1.541-.76-2.256-1.34-5.7-4.736l-3.909-3.865,7.149-7.171c3.932-3.932,7.216-7.149,7.283-7.149S99.723-426.708,101.8-424.586Z" transform="translate(0)"/>
    </g>
  </g>
</svg>
