<svg xmlns="http://www.w3.org/2000/svg" width="306.666" height="290.713" viewBox="0 0 306.666 290.713">
  <g id="Group_225" data-name="Group 225" transform="translate(-237.669 -4812.482)">
    <path id="Union_22" data-name="Union 22" d="M-1498.058,257.91a359.576,359.576,0,0,1,16.531-232.039C-1469.8-1.86-1433.621-8.894-1412.6,12.6a356.053,356.053,0,0,0,175.347,98c31.856,7.261,43.879,47.352,21.111,70.884a356.411,356.411,0,0,1-85.883,65.245,353.532,353.532,0,0,1-152.986,42.919c-.661.031-1.316.046-1.972.046A42.622,42.622,0,0,1-1498.058,257.91Z" transform="translate(1748.189 4813)" fill="#ffd000" stroke="rgba(0,0,0,0)" stroke-width="1"/>
    <g id="support" transform="translate(257.604 5411.904)">
      <path id="Path_555" data-name="Path 555" d="M81.533-511.292a51.922,51.922,0,0,0-43.794,46.319c-.172,1.636-.316,5.4-.316,8.38v5.424l-1.779.029a14.7,14.7,0,0,0-14.177,12.082c-.344,1.693-.43,4.42-.344,15.842.086,13.775.086,13.8.775,15.526a16.046,16.046,0,0,0,3.989,5.912,17.575,17.575,0,0,0,6.916,3.415c.832.143,4.965.287,9.184.287,7.146,0,7.691-.029,8.581-.574,1.837-1.119,1.779-.23,1.779-25.57,0-16.76-.086-23.3-.344-24.135a5.049,5.049,0,0,0-1.291-1.952c-.918-.8-1.119-.861-3.386-.861H44.885v-4.1c.029-8.064.66-13.115,2.353-18.281a43.343,43.343,0,0,1,11.738-18.511,44.579,44.579,0,0,1,21.782-11.365c2.583-.574,3.817-.66,8.753-.66,6.314.029,8.81.4,14,2.124a44.577,44.577,0,0,1,27.063,25.57c2.439,6.113,2.985,9.27,3.186,18.08l.172,7.089-2.612.086c-2.1.086-2.7.23-3.214.689-1.464,1.291-1.435.746-1.435,26.116,0,25.656-.057,24.882,1.521,25.742a11.661,11.661,0,0,0,3.214.517l2.583.143-2.583,2.612a36.943,36.943,0,0,1-4.391,3.817,30.061,30.061,0,0,1-14.062,4.965l-2.066.086-.8-2.325a21.807,21.807,0,0,0-1.894-3.932,19.425,19.425,0,0,0-10.647-7.519,24.933,24.933,0,0,0-8.523-.115,21.555,21.555,0,0,0-7.576,3.76,18.671,18.671,0,0,0-6,9.557,22.141,22.141,0,0,0,.029,8.581,18.654,18.654,0,0,0,13.173,13.23,24.4,24.4,0,0,0,8.9,0A17.567,17.567,0,0,0,110.6-377.93l.316-1.205h1.808c5.654,0,12.886-2.411,18.625-6.228a44.382,44.382,0,0,0,9.815-10.073c1.234-1.808,2.21-2.985,2.583-3.042a18.464,18.464,0,0,0,5.6-1.665,11.546,11.546,0,0,0,6.314-8.351c.2-1.062.287-6.457.23-15.21L155.8-437.25l-.775-2.3c-2.152-6.342-6.888-10.877-11.967-11.479l-1.751-.2v-6.228c0-8.7-.545-12.57-2.612-18.826a49.8,49.8,0,0,0-13.517-21.237,46.575,46.575,0,0,0-12.426-8.753,51.1,51.1,0,0,0-12.627-4.506c-2.7-.6-4.075-.717-9.614-.8A54.759,54.759,0,0,0,81.533-511.292ZM44.6-424.594v19.113l-5.223-.115c-6-.115-7.031-.4-8.868-2.439s-1.837-2.009-1.837-16.444v-13.058l.775-1.578A6.623,6.623,0,0,1,32-442.358c1.406-1.062,2.755-1.291,8.093-1.32l4.506-.029Zm98.895-18.482a10.7,10.7,0,0,1,3.731,4.362c1.177,2.583,1.291,4.448,1.205,17.1-.086,13.115-.057,12.857-1.951,14.435-1.349,1.148-2.612,1.406-7.662,1.55l-4.678.143v-38.284l4.247.115C141.57-443.564,142.8-443.42,143.493-443.076ZM97.6-392.165a10.13,10.13,0,0,1,5.854,7.72c.861,4.678-1.464,9.011-6.027,11.25a7.336,7.336,0,0,1-4.19.8,7.892,7.892,0,0,1-4.19-.746c-4.133-1.951-6.888-6.428-6.486-10.618a10.986,10.986,0,0,1,8.523-9.413A9.883,9.883,0,0,1,97.6-392.165Z"/>
    </g>
  </g>
</svg>
