<svg xmlns="http://www.w3.org/2000/svg" width="306.666" height="290.713" viewBox="0 0 306.666 290.713">
  <g id="Group_227" data-name="Group 227" transform="translate(-237.669 -3812.483)">
    <path id="Union_20" data-name="Union 20" d="M-1498.058,257.91a359.576,359.576,0,0,1,16.531-232.039C-1469.8-1.86-1433.621-8.894-1412.6,12.6a356.053,356.053,0,0,0,175.347,98c31.856,7.261,43.879,47.352,21.111,70.884a356.411,356.411,0,0,1-85.883,65.245,353.532,353.532,0,0,1-152.986,42.919c-.661.031-1.316.046-1.972.046A42.622,42.622,0,0,1-1498.058,257.91Z" transform="translate(1748.189 3813)" fill="#ffd000" stroke="rgba(0,0,0,0)" stroke-width="1"/>
    <g id="defect" transform="translate(282.656 4383.031)">
      <path id="Path_542" data-name="Path 542" d="M5.918-462.536A8.3,8.3,0,0,0,.562-457.92C.03-456.8,0-454.724,0-414.42V-372.1l.71,1.509a9.229,9.229,0,0,0,1.983,2.574c2.367,2.042,1.332,1.983,30.065,1.983H58.592V-353.9H43.47l-.71.74a2.69,2.69,0,0,0-.089,3.64c.651.592.947.621,9.854.651,5.06.03,13.02.03,17.7.03l8.522-.03.71-.74a2.466,2.466,0,0,0,0-3.551l-.71-.74H63.918v-12.133H83.212l2.19,1.746a30.35,30.35,0,0,0,27.55,5.474,28.27,28.27,0,0,0,3.995-1.48l1.509-.769,10.239,10.209c6.747,6.747,10.505,10.3,11.067,10.416a3.141,3.141,0,0,0,1.48.03,47.773,47.773,0,0,0,5.475-5.179c4.735-4.971,4.794-5.06,4.794-6.362v-1.332l-10.268-8.641c-5.682-4.735-10.535-8.848-10.8-9.114-.444-.444-.414-.651.829-3.166a36.455,36.455,0,0,0,2.071-5.622,21.68,21.68,0,0,0,.8-7.22,22.556,22.556,0,0,0-.74-7.1,29.393,29.393,0,0,0-6.688-12.458l-1.509-1.657-.089-24.088c-.089-23.733-.089-24.117-.71-25.419a8.116,8.116,0,0,0-3.788-4.084l-1.509-.8-56.225-.059C31.959-462.743,6.333-462.654,5.918-462.536Zm112.627,5.593a3.983,3.983,0,0,1,.977,1.154c.237.444.326,6.836.326,21.957,0,11.748-.059,21.336-.118,21.336s-1.213-.533-2.574-1.154c-4.468-2.1-6.747-2.545-12.843-2.545-4.676,0-5.622.089-7.664.681a31.285,31.285,0,0,0-11.866,6.244l-1.48,1.243-2.9-.089c-2.87-.089-2.93-.089-3.64.74a2.544,2.544,0,0,0,1.391,4.261,2.073,2.073,0,0,1,.858.266A20.915,20.915,0,0,1,78-400.9a33.562,33.562,0,0,0-3.166,9.5l-.326,2.279H5.031v-32.995c0-35.362-.059-34.208,1.391-35.037.355-.207,18.88-.3,56.017-.3C114.58-457.476,117.953-457.446,118.545-456.943Zm-9.085,46.222a27.719,27.719,0,0,1,10.623,5.031,26.233,26.233,0,0,1,8.256,12.724,33.146,33.146,0,0,1,0,11.837c-.769,2.752-2.989,7.22-3.906,7.812a1.5,1.5,0,0,0-.74.947c0,.769-2.959,3.64-5.474,5.3a25.408,25.408,0,0,1-7.842,3.581,32.176,32.176,0,0,1-12.133,0,25.113,25.113,0,0,1-16.157-13.346,20.657,20.657,0,0,1-2.308-10.209,22.469,22.469,0,0,1,6.481-16.216A24.214,24.214,0,0,1,109.46-410.721ZM74.69-383.437c.059.207.266,1.243.473,2.308a28,28,0,0,0,2.811,7.9c.562,1.036,1.036,1.953,1.036,2.012,0,.326-70.577.148-71.7-.178-2.012-.562-2.279-1.361-2.279-7.309v-5.09H39.8C67.381-383.792,74.6-383.7,74.69-383.437Zm61.4,24.058,9.173,7.694-2.4,2.427-2.4,2.427-8.7-8.493c-4.764-4.676-8.67-8.493-8.67-8.522a25.147,25.147,0,0,1,3.61-3.285C126.831-367.1,131.062-363.611,136.093-359.379Z"/>
      <path id="Path_543" data-name="Path 543" d="M76.621-401.231A2.738,2.738,0,0,0,76-400.017c0,.592,1.361,1.864,1.983,1.864.326.03.148.237-.533.592-1.3.681-1.687,1.805-1.006,2.841.651,1.006,1.568.917,5.119-.5,3.373-1.361,3.965-1.983,3.255-3.462-.3-.592-1.095-1.065-3.492-2.042A33.475,33.475,0,0,0,77.716-402,1.967,1.967,0,0,0,76.621-401.231Z" transform="translate(-53.51 -42.751)"/>
      <path id="Path_544" data-name="Path 544" d="M187.713-397.506a2.5,2.5,0,0,0-.74,4.172l.858.858h26.4c19.471,0,26.544-.089,27.017-.355a2.52,2.52,0,0,0,.621-4.113l-.769-.71-26.366-.059C200.2-397.743,188.039-397.654,187.713-397.506Z" transform="translate(-131.074 -45.765)"/>
      <path id="Path_545" data-name="Path 545" d="M124.778-396.615a2.653,2.653,0,0,0-.533,4.232c.5.5,1.213.562,5.5.651a44.1,44.1,0,0,0,5.593-.089,2.4,2.4,0,0,0,1.864-2.338c0-2.545-.71-2.841-6.865-2.841C127.057-397,125.281-396.882,124.778-396.615Z" transform="translate(-86.9 -46.272)"/>
      <path id="Path_546" data-name="Path 546" d="M52.718-339.408c-1.065,1.065-.473,2.693,1.095,3.107l.829.237-.977.385c-1.835.8-1.983,3.107-.207,3.551.74.178,5.356-1.45,6.895-2.427a2.057,2.057,0,0,0,.237-2.752A36.047,36.047,0,0,0,53.842-340,1.993,1.993,0,0,0,52.718-339.408Z" transform="translate(-36.738 -86.404)"/>
      <path id="Path_547" data-name="Path 547" d="M97.288-336.423a2.441,2.441,0,0,0-1.124.917,3.7,3.7,0,0,0,.385,3.137l.562.71,10.653.089,10.653.089.829-.74a2.673,2.673,0,0,0,.178-3.788c-.651-.681-.71-.681-10.949-.74C100.306-336.807,98.028-336.748,97.288-336.423Z" transform="translate(-67.578 -88.68)"/>
      <path id="Path_548" data-name="Path 548" d="M189.713-336.506a2.5,2.5,0,0,0-.74,4.172l.858.858h32.078l.858-.858a2.376,2.376,0,0,0,.148-3.492l-.71-.829-15.95-.059C197.5-336.743,190.039-336.654,189.713-336.506Z" transform="translate(-132.483 -88.714)"/>
      <path id="Path_549" data-name="Path 549" d="M77.078-282.577a2.007,2.007,0,0,0-.533,2.4,2.5,2.5,0,0,0,1.213.917l.917.326-1.036.533c-1.746.888-1.776,2.989-.059,3.4,1.361.355,7.043-2.1,7.576-3.285.562-1.243-.266-2.012-3.669-3.373C78.291-282.932,77.847-283.021,77.078-282.577Z" transform="translate(-53.73 -126.664)"/>
      <path id="Path_550" data-name="Path 550" d="M132.3-278.423c-1.036.473-1.3.947-1.3,2.427a2.261,2.261,0,0,0,.74,1.746l.71.74h14.234c15,0,15.595-.059,16.1-1.332a2.967,2.967,0,0,0-.592-3.137l-.769-.71-14.086-.059C135.942-278.807,133.042-278.748,132.3-278.423Z" transform="translate(-92.235 -129.516)"/>
      <path id="Path_551" data-name="Path 551" d="M301.329-268.212c-.681.71-.74.917-.621,2.634l.178,1.864-1.154.858a12.611,12.611,0,0,0-4.468,6.777l-.355,1.45-.385-2.16c-.444-2.693-.947-3.521-2.279-3.758a2.439,2.439,0,0,0-2.752,1.213c-.414.651-.444,1.036-.118,3.314.562,3.906.829,4.646,1.953,5.652a2.906,2.906,0,0,0,2.219.917c1.095,0,1.184.059,1.184.858,0,.444.089,1.45.178,2.219l.207,1.361h-.947a4.183,4.183,0,0,0-3.225,1.687c-.858,1.213-1.746,6.865-1.272,8.019a2.538,2.538,0,0,0,3.995.888c.592-.533.829-1.184,1.154-3.048.355-2.249.414-2.367,1.184-2.456.621-.089.977.118,1.48.74a13.07,13.07,0,0,0,12.221,4.794,12.089,12.089,0,0,0,7.191-3.729c2.308-2.308,3.018-2.4,3.344-.385.473,2.989.592,3.344,1.272,4.025a2.51,2.51,0,0,0,4.025-.8c.326-.858.03-4.054-.651-6.777a3.9,3.9,0,0,0-3.2-2.87l-1.213-.178v-4.35h1.184a2.906,2.906,0,0,0,2.219-.917c1.124-1.006,1.391-1.746,1.953-5.652.326-2.279.3-2.663-.118-3.314a2.439,2.439,0,0,0-2.752-1.213c-1.272.237-1.835,1.065-2.219,3.4l-.326,1.835-.5-1.45a12.709,12.709,0,0,0-3.61-5.534,9.851,9.851,0,0,0-1.746-1.361c-.148,0-.118-.444.03-.947.473-1.687.326-2.6-.592-3.521-1.568-1.568-3.669-.888-4.32,1.391l-.3,1.125-1.716.059-1.687.059-.3-1.095c-.355-1.332-.562-1.628-1.391-2.071A2.426,2.426,0,0,0,301.329-268.212Zm8.878,8.227A8.446,8.446,0,0,1,315-255.162l.178.681h-7.4c-5,0-7.428-.089-7.428-.3a7.359,7.359,0,0,1,1.894-3.2A7.535,7.535,0,0,1,310.207-259.985Zm5.238,12.1c0,5.119-3.788,8.878-8.434,8.4-4.054-.414-6.629-3.314-6.895-7.694l-.148-2.279h15.477Z" transform="translate(-203.587 -136.413)"/>
    </g>
  </g>
</svg>
