<svg xmlns="http://www.w3.org/2000/svg" width="306.666" height="290.713" viewBox="0 0 306.666 290.713">
  <g id="Group_232" data-name="Group 232" transform="translate(-237.669 -1312.483)">
    <path id="Union_15" data-name="Union 15" d="M-1498.058,257.91a359.576,359.576,0,0,1,16.531-232.039C-1469.8-1.86-1433.621-8.894-1412.6,12.6a356.053,356.053,0,0,0,175.347,98c31.856,7.261,43.879,47.352,21.111,70.884a356.411,356.411,0,0,1-85.883,65.245,353.532,353.532,0,0,1-152.986,42.919c-.661.031-1.316.046-1.972.046A42.622,42.622,0,0,1-1498.058,257.91Z" transform="translate(1748.189 1313)" fill="#ffd000" stroke="rgba(0,0,0,0)" stroke-width="1"/>
    <g id="business-proposal" transform="translate(291.07 1931.318)">
      <path id="Path_504" data-name="Path 504" d="M9.922-511.687A4.352,4.352,0,0,0,7.8-509.3a13.527,13.527,0,0,0-.223,2.815v2.078H5.521a15.894,15.894,0,0,0-2.859.223,4.315,4.315,0,0,0-2.435,2.3c-.335.894-.335,100.84,0,101.733a4.4,4.4,0,0,0,2.145,2.212c.6.268,6.5.313,35.743.313,33.688,0,35.073-.022,35.944-.424a4.18,4.18,0,0,0,1.452-1.162c.469-.67.536-1.028.6-3.4l.089-2.614h2.256c2.658,0,3.8-.4,4.647-1.586l.536-.76.067-15.057.045-15.034.737-.849c.625-.737,28.55-49.437,29.4-51.246a8.189,8.189,0,0,0,.335-2.591c.022-3.552-1.206-5.071-6.679-8.132-4.244-2.39-4.892-2.636-6.881-2.636a5.527,5.527,0,0,0-2.949.693,8.843,8.843,0,0,0-2.167,1.541c-.424.469-3.105,4.959-5.965,9.986-2.882,5.049-5.361,9.315-5.518,9.494-.268.268-.313-1.921-.313-13.873v-14.208l-.514-.76a4.478,4.478,0,0,0-1.5-1.273L80.76-512h-35.1C16.869-511.978,10.48-511.933,9.922-511.687Zm70.034,20.53v17.067L73.343-462.5c-3.641,6.367-6.791,11.952-7.015,12.376-.536,1.072-.626,1.742-1.005,9.271-.179,3.552-.4,7.015-.469,7.64l-.112,1.184H42.894c-15.414,0-22.049.067-22.563.246a1.772,1.772,0,0,0-1.139,2.3,2.082,2.082,0,0,0,.737,1.005c.38.2,6.545.246,25.065.2l24.573-.067,5.071-3.418c2.792-1.854,5.138-3.4,5.205-3.4s.112,5.875.112,13.069v13.069H24.777v-5.116c0-5.451-.089-5.965-1.072-7.037-1.095-1.162-1.586-1.251-7.193-1.251H11.374V-508.2H79.955ZM7.621-460.575l.067,40.054.536,1.005c.715,1.363,12.287,12.935,13.649,13.649l1.005.536,24.752.067,24.73.045v3.8H3.778v-99.187h3.8Zm98.137-36.5c3.217,1.832,3.865,2.3,4.312,3.061.782,1.363.581,2.323-1.072,5.317-.782,1.363-1.43,2.547-1.474,2.591-.022.022-2.815-1.5-6.188-3.44l-6.143-3.485,1.5-2.614c1.742-3.06,2.39-3.619,4.133-3.619C101.848-499.267,102.317-499.043,105.757-497.077Zm-6.344,10.812c3.306,1.877,6.009,3.507,6.009,3.619,0,.134-2.033,3.909-2.368,4.334-.022.045-2.815-1.5-6.188-3.44l-6.121-3.507L92-487.449c.693-1.206,1.3-2.212,1.34-2.212S96.107-488.119,99.413-486.265Zm-8.6,5.451a6.843,6.843,0,0,1,1.877,1.251c0,.4-18.117,32.347-18.341,32.347a39.125,39.125,0,0,1-3.976-2.145c-.089-.089,18.341-32.481,18.475-32.481C88.891-481.842,89.785-481.373,90.812-480.814Zm7.908,4.49a11.344,11.344,0,0,1,2.234,1.5c0,.246-18.318,32.3-18.475,32.3a28.032,28.032,0,0,1-4.535-2.725c0-.357,18.14-32.347,18.363-32.347A26.659,26.659,0,0,1,98.72-476.324ZM75.041-442.3c2.39,1.363,4.4,2.524,4.423,2.569.045.045-2.346,1.7-5.294,3.664l-5.384,3.6v-1.05c0-1.474.447-9.807.581-10.946l.112-.961.6.313C70.417-444.937,72.65-443.686,75.041-442.3ZM20.98-415.271c0,1.832-.022,3.351-.067,3.351-.022,0-1.564-1.519-3.4-3.351l-3.351-3.351H20.98Z" transform="translate(0)"/>
      <path id="Path_505" data-name="Path 505" d="M85.139-468.48c-.491.469-.558.737-.558,2.011,0,1.229-.067,1.452-.38,1.452-.871,0-3.262,1.385-4.446,2.569A9.459,9.459,0,0,0,78.572-450.5a10.1,10.1,0,0,0,4.8,3.731l1.206.38v5.54c0,3.976-.067,5.54-.246,5.54a4.954,4.954,0,0,1-2.346-1.72,5.652,5.652,0,0,1-1.206-3.262c0-.983-.983-2.167-1.787-2.167a1.99,1.99,0,0,0-2.011,2.234A9.114,9.114,0,0,0,79.8-433.81c1.139,1.139,3.53,2.524,4.4,2.524.313,0,.38.223.38,1.452,0,1.273.067,1.541.558,2.011a1.722,1.722,0,0,0,1.34.559,1.722,1.722,0,0,0,1.34-.559c.491-.469.558-.737.558-2.011,0-1.229.067-1.452.4-1.452a10.34,10.34,0,0,0,3.8-1.944,9.732,9.732,0,0,0,2.949-4.513,9.486,9.486,0,0,0-5.965-11.773l-1.184-.424v-5.518c0-4.155.067-5.54.268-5.54a3.464,3.464,0,0,1,1.095.581,5.983,5.983,0,0,1,2.435,4.49,2.346,2.346,0,0,0,1.787,2.078c1.229,0,1.988-.849,2.011-2.256a10.068,10.068,0,0,0-3.4-6.97,10.34,10.34,0,0,0-3.8-1.944c-.335,0-.4-.223-.4-1.452,0-1.273-.067-1.541-.558-2.011A1.862,1.862,0,0,0,85.139-468.48Zm-.558,12.733c0,2.882-.045,5.25-.112,5.25a5.261,5.261,0,0,1-2.279-1.653,5.475,5.475,0,0,1,1.005-8.221A3.962,3.962,0,0,1,84.313-461C84.514-461,84.581-459.813,84.581-455.747Zm4.647,10.254a5.851,5.851,0,0,1,1.3,1.072,5.53,5.53,0,0,1,.6,7.149,5.526,5.526,0,0,1-2.48,1.966c-.2,0-.268-1.318-.268-5.25,0-2.882.045-5.25.112-5.25A2.894,2.894,0,0,1,89.227-445.493Z" transform="translate(-59.804 -33.355)"/>
      <path id="Path_506" data-name="Path 506" d="M188.5-451.441A1.813,1.813,0,0,0,189-448.47c.693.38,27.589.38,28.282,0a1.813,1.813,0,0,0,.491-2.971l-.536-.559H189.041Z" transform="translate(-145.968 -46.596)"/>
      <path id="Path_507" data-name="Path 507" d="M189.439-409.631a1.933,1.933,0,0,0-.871,3.06l.447.581h28.55l.447-.581a1.867,1.867,0,0,0-.112-2.569l-.581-.536-13.761-.045C195.985-409.743,189.618-409.7,189.439-409.631Z" transform="translate(-146.12 -79.427)"/>
      <path id="Path_508" data-name="Path 508" d="M188.917-366.732a1.817,1.817,0,0,0-.447,2.971l.536.559H217.2l.536-.559a2.123,2.123,0,0,0,.424-2.234c-.38-.983-.626-1.005-15.1-1.005C193.585-366.978,189.229-366.911,188.917-366.732Z" transform="translate(-145.933 -112.608)"/>
      <path id="Path_509" data-name="Path 509" d="M188.5-323.442A1.813,1.813,0,0,0,189-320.47c.693.38,27.589.38,28.282,0a1.813,1.813,0,0,0,.491-2.971l-.536-.558H189.041Z" transform="translate(-145.968 -146.002)"/>
      <path id="Path_510" data-name="Path 510" d="M189.439-281.631a1.933,1.933,0,0,0-.871,3.06l.447.581H209.79l.536-.558a1.744,1.744,0,0,0,.022-2.5l-.536-.625-10.03-.045C194.287-281.743,189.618-281.7,189.439-281.631Z" transform="translate(-146.12 -178.832)"/>
      <path id="Path_511" data-name="Path 511" d="M86.226-238.464A1.516,1.516,0,0,0,85.6-237.1a1.516,1.516,0,0,0,.626,1.363l.6.536H126.28l.6-.581a1.671,1.671,0,0,0-.067-2.569l-.648-.648H86.829Z" transform="translate(-66.497 -212.014)"/>
      <path id="Path_512" data-name="Path 512" d="M86.116-195.442a1.933,1.933,0,0,0-.045,2.636l.514.491,19.77.067,19.77.045.67-.648a1.7,1.7,0,0,0,.089-2.591l-.536-.558H86.63Z" transform="translate(-66.477 -245.408)"/>
    </g>
  </g>
</svg>
