<svg xmlns="http://www.w3.org/2000/svg" width="306.666" height="290.713" viewBox="0 0 306.666 290.713">
  <g id="Group_231" data-name="Group 231" transform="translate(-237.669 -1812.483)">
    <path id="Union_16" data-name="Union 16" d="M-1498.058,257.91a359.576,359.576,0,0,1,16.531-232.039C-1469.8-1.86-1433.621-8.894-1412.6,12.6a356.053,356.053,0,0,0,175.347,98c31.856,7.261,43.879,47.352,21.111,70.884a356.411,356.411,0,0,1-85.883,65.245,353.532,353.532,0,0,1-152.986,42.919c-.661.031-1.316.046-1.972.046A42.622,42.622,0,0,1-1498.058,257.91Z" transform="translate(1748.189 1813)" fill="#ffd000" stroke="rgba(0,0,0,0)" stroke-width="1"/>
    <g id="rocket" transform="translate(280.485 2427.375)">
      <path id="Path_513" data-name="Path 513" d="M143.766-511.439c-16.7,1.74-32.092,6.662-42.259,13.5-3.6,2.411-5.171,3.8-13.349,11.932l-8.228,8.178-11.659,1.318c-6.389.7-11.857,1.417-12.131,1.566s-5.394,5.171-11.385,11.161c-11.012,11.037-11.037,11.062-10.863,12.628a2.6,2.6,0,0,0,1.964,1.84c.5.124,4.226.7,8.278,1.268l7.408,1.044,2.038,2.113c1.143,1.143,2.088,2.188,2.138,2.287a55.163,55.163,0,0,1-5.369,3.455c-5.444,3.256-6.016,3.729-6.016,5.046a2.834,2.834,0,0,0,.273,1.044c.4.771,28.289,28.712,29.109,29.159a3.058,3.058,0,0,0,1.168.348c1.317,0,1.79-.572,5.046-6.016a55.16,55.16,0,0,1,3.455-5.369c.1.05,1.143.994,2.287,2.138l2.113,2.038,1.044,7.408c.572,4.052,1.143,7.781,1.268,8.278a2.6,2.6,0,0,0,1.84,1.964c1.566.174,1.591.149,12.628-10.863,5.991-5.991,11.012-11.112,11.161-11.385s.87-5.742,1.566-12.131l1.318-11.659,8.178-8.228c8.129-8.178,9.521-9.744,11.932-13.349,6.936-10.267,11.808-25.7,13.5-42.607.671-6.737.671-6.737-.348-7.756-.771-.771-.969-.845-2.287-.82C148.762-511.887,146.152-511.688,143.766-511.439Zm3.629,6.762a122.062,122.062,0,0,1-2.809,16.7l-.87,3.7-9.3-9.3c-5.121-5.121-9.3-9.322-9.3-9.347s1.641-.423,3.679-.92a131.965,131.965,0,0,1,13.1-2.362c1.243-.149,2.511-.323,2.859-.373s1.119-.1,1.715-.124l1.094-.025Zm-16.481,14.567,11.137,11.137-.895,2.486a61.118,61.118,0,0,1-10.764,18.37c-1.218,1.367-9.471,9.695-18.3,18.52L96.038-423.565,86.02-433.583c-9.819-9.794-10.043-9.993-11.012-9.993a2.49,2.49,0,0,0-2.337,1.467c-.721,1.392-.5,1.641,9.819,11.957,5.394,5.394,9.819,9.918,9.819,10.068a16.514,16.514,0,0,1-3.356,3.356c-.323,0-31.446-31.123-31.446-31.446,0-.522,42.11-42.259,44.149-43.8a64.69,64.69,0,0,1,15.263-8.253c1.442-.547,2.66-.994,2.734-1.019C119.728-501.247,124.8-496.226,130.914-490.111ZM64.07-461.946,53.828-451.729,48.16-452.5c-3.132-.447-5.891-.87-6.14-.969-.348-.149,1.268-1.864,7.955-8.551l8.4-8.4,7.333-.845c4.027-.447,7.607-.845,7.955-.87C74.162-472.163,72.149-470.025,64.07-461.946Zm5.593,33.136,10.018,10.043-2.536,4.251a49.171,49.171,0,0,1-2.71,4.251c-.323,0-23.491-23.342-23.317-23.516.2-.224,8.2-5.046,8.377-5.071C59.57-438.853,64.144-434.329,69.663-428.81Zm42.408,3.406-.87,7.806-8.4,8.4c-6.687,6.687-8.4,8.3-8.551,7.955-.1-.249-.522-3.008-.969-6.14l-.771-5.668,10.142-10.167c5.568-5.568,10.167-10.117,10.217-10.068C112.917-433.26,112.544-429.7,112.071-425.4Z" transform="translate(-25.387)"/>
      <path id="Path_514" data-name="Path 514" d="M276.864-384.557a19.251,19.251,0,0,0-3.356,1.268,14.961,14.961,0,0,0-8.079,10.515,11.705,11.705,0,0,0,0,5.717,15.212,15.212,0,0,0,11.683,11.683,11.9,11.9,0,0,0,5.767,0,14.926,14.926,0,0,0,10.465-8.079,14.821,14.821,0,0,0-8.427-20.558A18.748,18.748,0,0,0,276.864-384.557Zm5.941,5.071a10.254,10.254,0,0,1,6.861,7.159,10.287,10.287,0,0,1-2.734,9.4,9.871,9.871,0,0,1-15.661-2.511,9.877,9.877,0,0,1,6.09-14.07A11.522,11.522,0,0,1,282.805-379.486Z" transform="translate(-199.128 -95.536)"/>
      <path id="Path_515" data-name="Path 515" d="M162.815-265.287A2.794,2.794,0,0,0,161-262.826a2.061,2.061,0,0,0,.721,1.591,2.4,2.4,0,0,0,4-2.411,2.945,2.945,0,0,0-.621-1.094A3.538,3.538,0,0,0,162.815-265.287Z" transform="translate(-120.925 -185.299)"/>
      <path id="Path_516" data-name="Path 516" d="M22.885-143.871c-4.475,4.475-8.253,8.427-8.427,8.8a2.016,2.016,0,0,0,.025,1.566,2.321,2.321,0,0,0,2.411,1.641c.895,0,1.268-.348,9.073-8.129,4.475-4.475,8.253-8.427,8.427-8.8a2.016,2.016,0,0,0-.025-1.566A2.161,2.161,0,0,0,32.033-152C31.064-152,30.865-151.826,22.885-143.871Z" transform="translate(-10.701 -270.446)"/>
      <path id="Path_517" data-name="Path 517" d="M27.149-123.629c-.895.6-25.53,25.157-26.375,26.3C-.2-96.011-.17-95.116.9-94.047s1.964,1.094,3.281.124c1.143-.845,25.7-25.48,26.3-26.375a2.21,2.21,0,0,0-.373-2.958A2.21,2.21,0,0,0,27.149-123.629Z" transform="translate(0 -291.459)"/>
      <path id="Path_518" data-name="Path 518" d="M87.531-95.459c-.4.249-4.3,4.027-8.626,8.4C71.373-79.5,71-79.077,71-78.182A2.31,2.31,0,0,0,72.641-75.8a2.016,2.016,0,0,0,1.566.025c.373-.174,4.325-3.952,8.8-8.427,7.781-7.806,8.129-8.178,8.129-9.073a2.348,2.348,0,0,0-1.541-2.386A1.714,1.714,0,0,0,87.531-95.459Z" transform="translate(-53.297 -312.595)"/>
    </g>
  </g>
</svg>
