<svg xmlns="http://www.w3.org/2000/svg" width="306.666" height="290.713" viewBox="0 0 306.666 290.713">
  <g id="Group_230" data-name="Group 230" transform="translate(-237.669 -2312.483)">
    <path id="Union_17" data-name="Union 17" d="M-1498.058,257.91a359.576,359.576,0,0,1,16.531-232.039C-1469.8-1.86-1433.621-8.894-1412.6,12.6a356.053,356.053,0,0,0,175.347,98c31.856,7.261,43.879,47.352,21.111,70.884a356.411,356.411,0,0,1-85.883,65.245,353.532,353.532,0,0,1-152.986,42.919c-.661.031-1.316.046-1.972.046A42.622,42.622,0,0,1-1498.058,257.91Z" transform="translate(1748.189 2313)" fill="#ffd000" stroke="rgba(0,0,0,0)" stroke-width="1"/>
    <g id="Group_224" data-name="Group 224" transform="translate(-5704.444 32)">
      <path id="Path_519" data-name="Path 519" d="M115.377,49.03c0,1.271,0,2.541-.084,3.945-.225.65-.342,1.175-.511,1.684-.8,2.42-2.664,4.1-4.221,5.987-1.395,1.691-2.869,3.316-4.284,4.991-1.856,2.2-3.681,4.422-5.534,6.622-1.341,1.592-2.717,3.154-4.057,4.747-2.25,2.676-4.446,5.4-6.74,8.037a6.13,6.13,0,0,0-1.885,4.525c.178,5.571.125,11.153.037,16.729a8.428,8.428,0,0,1-3.625,6.818,32.954,32.954,0,0,1-4.168,2.262c-23.759,0-47.518,0-71.407-.082-2.46-.687-4.524-1.749-5.852-3.826-.789-1.235-1.371-2.6-2.046-3.91Q1,58.293,1.083,8.9c.687-2.46,1.749-4.524,3.826-5.852C6.144,2.257,7.511,1.675,8.819,1c19.514,0,39.029,0,58.674.083a39.126,39.126,0,0,1,4.031,2.028,23.874,23.874,0,0,1,3.331,2.846c3.79,3.67,7.61,7.313,11.276,11.1a7.153,7.153,0,0,1,1.989,5q.012,16.125,0,32.251V55.63c.552-.646.969-1.122,1.373-1.608,1.421-1.707,2.825-3.428,4.26-5.124,1.416-1.675,2.76-3.429,4.317-4.964A9.889,9.889,0,0,1,106.392,41a9.114,9.114,0,0,1,7,3.963,33.539,33.539,0,0,1,1.984,4.069M49.141,7.7c-12.321,0-24.642-.012-36.962.026a6.191,6.191,0,0,0-2.7.6c-1.547.787-1.77,2.342-1.77,3.9q-.008,43.049,0,86.1c0,2.047-.073,4.1.017,6.141.129,2.9,1.3,4.166,4.119,4.173q32.719.082,65.438,0c2.69-.007,3.943-1.064,4.1-3.831.184-3.209.043-6.436.043-9.771a24.582,24.582,0,0,1-2.415,1.4c-4.164,1.823-8.331,3.641-12.535,5.367a3.3,3.3,0,0,1-3.644-.724,3.4,3.4,0,0,1-.987-3.294c.926-3.915,1.912-7.815,2.817-11.734a12.98,12.98,0,0,1,2.715-5.9q2.864-3.254,5.669-6.56c2.312-2.727,4.639-5.443,6.857-8.245.593-.749,1.554-1.261,1.549-2.512-.043-11.39-.025-22.781-.028-34.171,0-.281-.042-.563-.066-.866-5.736,0-11.392,0-17.047,0a2.9,2.9,0,0,1-2.989-3.019q0-7.984,0-15.969V7.7H49.141M90.126,73.95l11.1-13.037-4.9-4.144L77.99,78.476l4.874,4.117c1.556-1.809,3.071-3.545,4.555-5.307.888-1.054,1.728-2.149,2.707-3.336M75.055,21.105h5.452L68.087,9.251V21.105h6.968M106.224,54.94c.453-.527.888-1.07,1.361-1.578a3.325,3.325,0,0,0,.126-4.458,2.925,2.925,0,0,0-4.2-.362,24.887,24.887,0,0,0-2.752,2.842l4.955,4.15c.161-.193.281-.336.508-.595M70.261,92.423c.117.038.263.143.346.106,1.278-.562,2.532-1.18,3.823-1.708,1.579-.646,3.128-1.3,3.85-2.961l-5.045-4.233a34.129,34.129,0,0,0-1.618,3.534C71.072,88.822,70.711,90.545,70.261,92.423Z" transform="translate(5998 2387)"/>
      <path id="Path_529" data-name="Path 529" d="M119.695,182.3a3.611,3.611,0,0,1,1.384,4.019,3.442,3.442,0,0,1-3,2.231q-27.122-.07-54.245-.032c-1.815,0-2.885-1.257-3.077-3.076a3.415,3.415,0,0,1,3.653-3.678c17.858.092,35.717.048,53.575.07A6,6,0,0,1,119.695,182.3Z" transform="translate(5951.607 2246.616)"/>
      <path id="Path_530" data-name="Path 530" d="M92.5,278.7H64.134C62.1,278.7,61,277.489,61,275.267A2.926,2.926,0,0,1,64.077,272h54.161c2.017,0,3.081,1.248,3.078,3.6a2.915,2.915,0,0,1-3.133,3.1Z" transform="translate(5951.404 2176.54)"/>
      <path id="Path_531" data-name="Path 531" d="M91.068,91h6.588c2.373,0,3.423,1.084,3.481,3.438a2.958,2.958,0,0,1-1.552,2.873,2.8,2.8,0,0,1-1.321.376q-17.252.03-34.5.013a2.965,2.965,0,0,1-2.866-2.932c-.068-1.405.182-2.624,1.515-3.333a3.415,3.415,0,0,1,1.526-.417C72.941,90.99,81.949,91,91.068,91Z" transform="translate(5951.494 2317.108)"/>
      <path id="Path_532" data-name="Path 532" d="M68.084,368.7H63.952a3.2,3.2,0,0,1-3.239-2.322c-.349-2.008.393-3.609,2.007-4.247a2.669,2.669,0,0,1,.961-.127q17.14-.009,34.28,0a2.951,2.951,0,0,1,2.979,3.046,3.1,3.1,0,0,1-1.518,3.22,3.367,3.367,0,0,1-1.525.417C88,368.707,78.1,368.7,68.084,368.7Z" transform="translate(5951.691 2106.646)"/>
    </g>
  </g>
</svg>
