<svg xmlns="http://www.w3.org/2000/svg" width="306.666" height="290.713" viewBox="0 0 306.666 290.713">
  <g id="Group_226" data-name="Group 226" transform="translate(-237.669 -4312.482)">
    <path id="Union_21" data-name="Union 21" d="M-1498.058,257.91a359.576,359.576,0,0,1,16.531-232.039C-1469.8-1.86-1433.621-8.894-1412.6,12.6a356.053,356.053,0,0,0,175.347,98c31.856,7.261,43.879,47.352,21.111,70.884a356.411,356.411,0,0,1-85.883,65.245,353.532,353.532,0,0,1-152.986,42.919c-.661.031-1.316.046-1.972.046A42.622,42.622,0,0,1-1498.058,257.91Z" transform="translate(1748.189 4313)" fill="#ffd000" stroke="rgba(0,0,0,0)" stroke-width="1"/>
    <g id="rocket_1_" data-name="rocket (1)" transform="translate(273.341 4888.139)">
      <path id="Path_552" data-name="Path 552" d="M177.289-493.892c-7.858,8.159-12.923,19.411-14.237,31.7a82.192,82.192,0,0,0,.246,13.552l.192,1.232-5.01,6.023a85.168,85.168,0,0,0-5.75,7.392c-.712,1.314-.739,1.588-.821,6.215l-.11,4.846.712.712a2.24,2.24,0,0,0,1.451.684c.465,0,3.559-1.588,8.159-4.189l7.392-4.189.876,1.424.849,1.424-.931,3.669c-.493,2-.931,3.915-.931,4.271a2.139,2.139,0,0,0,.684,1.287l.657.684h19.22l.657-.684a2.139,2.139,0,0,0,.684-1.287c0-.356-.438-2.272-.931-4.271l-.931-3.669.849-1.424.876-1.424,7.392,4.189c4.545,2.574,7.693,4.189,8.159,4.189a2.24,2.24,0,0,0,1.451-.684l.712-.712-.11-4.846c-.082-4.627-.11-4.9-.821-6.215a85.172,85.172,0,0,0-5.749-7.392l-5.01-6.023.192-1.232a82.013,82.013,0,0,0,.246-13.552c-1.314-12.293-6.379-23.546-14.237-31.7C181.56-495.754,181.2-496,180.328-496S179.1-495.754,177.289-493.892Zm4.9,5.339a57.6,57.6,0,0,1,5.5,8.35l.849,1.725H172.115l.849-1.725c1.7-3.368,6.653-10.322,7.365-10.322A12.17,12.17,0,0,1,182.19-488.553Zm8.789,16.153a50.966,50.966,0,0,1-2.875,38.467l-1.78,3.641H174.387l-1.369-2.683a51.3,51.3,0,0,1-3.34-39.425l.575-1.7H190.4Zm-25.9,31.7c.11.438.684,2.136,1.287,3.751a11.43,11.43,0,0,1,.9,3.121c-.137.109-2.628,1.561-5.558,3.2l-5.339,3.039-.082-1.615a7.107,7.107,0,0,1,.274-2.464c.411-.958,7.912-10.13,8.186-9.966A1.87,1.87,0,0,1,165.079-440.7Zm34.826,3.559a54.659,54.659,0,0,1,4.162,5.421,6.748,6.748,0,0,1,.3,2.519l-.082,1.588-5.394-3.039c-2.957-1.7-5.448-3.149-5.558-3.231a6.681,6.681,0,0,1,.63-2.19c.438-1.122,1.013-2.71,1.259-3.532.274-.821.548-1.67.6-1.889s.164-.329.219-.274S197.851-439.628,199.9-437.136Zm-14.155,13.415.548,2.19H174.36l.548-2.19.548-2.19H185.2Z" transform="translate(-110.249)"/>
      <path id="Path_553" data-name="Path 553" d="M230.362-391.519a8.861,8.861,0,0,0-4.435,13.854,7.63,7.63,0,0,0,2.9,2.327,6.636,6.636,0,0,0,4,.958,6.637,6.637,0,0,0,4-.958,8.681,8.681,0,0,0,2.409-13.689,7.7,7.7,0,0,0-6-2.628A11.49,11.49,0,0,0,230.362-391.519Zm4.654,4.736c2.053,1.424,2.71,3.587,1.67,5.613a4.313,4.313,0,0,1-7.639.192,4.336,4.336,0,0,1,3.778-6.407A3.809,3.809,0,0,1,235.016-386.782Z" transform="translate(-162.746 -75.761)"/>
      <path id="Path_554" data-name="Path 554" d="M16.774-367.689a9.328,9.328,0,0,0-4.216,3.121c-1.725,2.327-1.615-.246-1.615,41.561v38.138l-4.9.082c-6.407.109-6.051-.164-6.051,4.846,0,3.751,0,3.751.876,5.229a5.1,5.1,0,0,0,2.382,2.245L4.7-271.7H70.052c62.779,0,65.38-.027,66.42-.52a6.691,6.691,0,0,0,3.176-3.094c.438-.849.52-1.615.52-4.682,0-4.956.329-4.682-6.051-4.791l-4.9-.082-.055-38.522-.082-38.522-.63-1.287a9.9,9.9,0,0,0-4.107-4.107l-1.287-.63-14.867-.082L93.351-368.1l-.684.684a2.1,2.1,0,0,0,.6,3.422c.438.219,4.956.3,14.565.3h13.908l.931.63a6.789,6.789,0,0,1,1.533,1.533l.63.931v75.756h-6.571v-2.272a16.214,16.214,0,0,0-5.065-12.129,13.747,13.747,0,0,0-4.545-3.34,24.077,24.077,0,0,0-3.806-1.451,25.206,25.206,0,0,0-7.118-.192c-.6.164-.767.055-1.2-.739a14.87,14.87,0,0,0-5.448-4.791,13.3,13.3,0,0,0-8.049-1.04l-2,.383-.438-1.506a10.818,10.818,0,0,0-6.105-6.954,7.665,7.665,0,0,0-4.408-.876,7.665,7.665,0,0,0-4.408.876,10.818,10.818,0,0,0-6.105,6.954l-.438,1.506-2-.383a13.3,13.3,0,0,0-8.049,1.04,14.87,14.87,0,0,0-5.448,4.791c-.438.794-.6.9-1.2.739a25.206,25.206,0,0,0-7.118.192,17.957,17.957,0,0,0-12.977,12.9,20.131,20.131,0,0,0-.438,4.025v2.272H15.323V-360.6l.63-.931a6.789,6.789,0,0,1,1.533-1.533l.931-.63H32.325c9.61,0,14.127-.082,14.565-.3a2.077,2.077,0,0,0,.6-3.395l-.657-.684-14.456.027C21.236-368.045,17.65-367.963,16.774-367.689Zm56.208,52.95a6.833,6.833,0,0,1,3.149,3.45,4.62,4.62,0,0,1,.383,3.012c-.329,2.546-.246,2.957.548,3.641.986.849,1.643.794,3.422-.356,2.9-1.834,5.64-2.163,8.405-.931a10.12,10.12,0,0,1,4.216,4.025c1.369,2.738,1.67,2.847,5.175,2.108a13.112,13.112,0,0,1,15.606,12.95v2l-37.81.055-37.81.082-.52.657a2.463,2.463,0,0,0,.027,3.039c.548.548.9.548,49.446.548h48.925l-.164,1.561a3.109,3.109,0,0,1-.876,2.245l-.684.712H5.74l-.684-.712a3.109,3.109,0,0,1-.876-2.245l-.164-1.561H17.841c13,0,13.854-.027,14.264-.493a2.136,2.136,0,0,0,.11-2.957c-.657-.767-.821-.794-3.313-.876l-2.628-.11v-1.971A13.107,13.107,0,0,1,41.88-299.79c3.5.739,3.806.63,5.175-2.108a10.12,10.12,0,0,1,4.216-4.025c2.765-1.232,5.5-.9,8.405.931,1.752,1.15,2.464,1.2,3.422.356.767-.657.849-1.177.548-3.641a4.62,4.62,0,0,1,.383-3.012A6.485,6.485,0,0,1,72.982-314.739Z" transform="translate(0 -92.883)"/>
    </g>
  </g>
</svg>
