<svg xmlns="http://www.w3.org/2000/svg" width="306.666" height="290.713" viewBox="0 0 306.666 290.713">
  <g id="Group_233" data-name="Group 233" transform="translate(-237.669 -812.483)">
    <path id="Union_14" data-name="Union 14" d="M-1498.058,257.91a359.576,359.576,0,0,1,16.531-232.039C-1469.8-1.86-1433.621-8.894-1412.6,12.6a356.053,356.053,0,0,0,175.347,98c31.856,7.261,43.879,47.352,21.111,70.884a356.411,356.411,0,0,1-85.883,65.245,353.532,353.532,0,0,1-152.986,42.919c-.661.031-1.316.046-1.972.046A42.622,42.622,0,0,1-1498.058,257.91Z" transform="translate(1748.189 813)" fill="#ffd000" stroke="rgba(0,0,0,0)" stroke-width="1"/>
    <g id="handshake" transform="translate(266.189 1348.783)">
      <path id="Path_503" data-name="Path 503" d="M143.584-414.612c-8.374,6.483-14.688,11.649-14.958,12.156a1.615,1.615,0,0,0-.1,1.553c.338.574.135.743-1.857,1.52a17.059,17.059,0,0,1-8.948,1.317c-1.182-.2-5.369-1.418-9.252-2.668-6.382-2.094-7.361-2.33-9.792-2.33a9.567,9.567,0,0,0-5.436,1.283L90.5-400.464l-2.33-.743c-3.005-.945-4.39-.912-12.291.1-6.078.81-10.873,1.249-19.314,1.756l-3.309.2.3-.81a3.121,3.121,0,0,0,.135-1.553c-.1-.405-6.145-5.3-14.857-12.055-15.364-11.919-15.87-12.223-17.221-10.839-.371.338-2.971,11.075-7.6,31.2C10.174-376.355,7-362.207,7-361.8c0,1.013,1.047,1.722,8.644,5.977,7.665,4.288,8.036,4.356,9.691,1.891l1.114-1.655,1.925,1.384,1.891,1.384-.709,1.384a10.5,10.5,0,0,0-.473,7.192,9.875,9.875,0,0,0,7.766,6.382c1.486.2,1.486.236,1.722,1.79a9.691,9.691,0,0,0,9.623,8.61h2.229l.608,1.992a9.878,9.878,0,0,0,5.909,6.145,10.3,10.3,0,0,0,6.787-.27c.979-.507,1.047-.507,1.249.034,1.587,4.727,5.571,7.53,10.062,7.057,2.364-.236,3.984-1.114,7.057-3.816,1.857-1.621,2.735-2.161,3.14-1.992.338.1,3.005,1.587,5.943,3.275,2.9,1.688,5.875,3.242,6.584,3.512a9.371,9.371,0,0,0,8.745-1.722c1.486-1.283,3.14-4.153,3.14-5.5,0-.709.1-.777.777-.574a13.193,13.193,0,0,0,6.686,0,9.482,9.482,0,0,0,5.977-7.429l.135-1.351,1.925-.068a9.342,9.342,0,0,0,9.117-8.678l.2-2.06,1.621-.236a9.391,9.391,0,0,0,7.766-8.745l.068-1.655,5.031-4.964c2.735-2.769,5.065-4.862,5.132-4.66a39.117,39.117,0,0,0,4.221,6.01c.878.54,1.79.135,9.252-4.086,5.369-3.039,7.158-4.187,7.395-4.829.371-1.114-13.371-61.488-14.283-62.771C159.286-426.768,159.252-426.768,143.584-414.612Zm20.26,22.826c3.444,15.127,6.179,27.587,6.01,27.756-.135.135-2.431,1.486-5.065,2.938l-4.795,2.7-1.452-2.4c-.81-1.351-1.553-2.7-1.688-3.039a11.9,11.9,0,0,0-1.081-1.688c-.439-.608-5.538-8.813-11.345-18.268-9.184-14.992-10.468-17.221-10.029-17.66.608-.608,22.995-17.964,23.1-17.9C157.5-419.306,160.366-406.914,163.844-391.786ZM36.681-409.345c6.314,4.93,11.514,9.016,11.514,9.151,0,.236-25.561,41.87-25.966,42.275-.169.2-9.455-4.694-10.13-5.3-.068-.1,10.67-47.509,12.19-53.79.2-.81.473-1.418.608-1.351S30.332-414.241,36.681-409.345Zm70.774,13.2a88.316,88.316,0,0,0,9.758,2.735,21.838,21.838,0,0,0,10.873-1.587,26.152,26.152,0,0,1,3.309-1.081c.135.169,19.517,31.808,19.719,32.145a41.056,41.056,0,0,1-4.525,4.964l-4.66,4.694-1.384-1.317c-1.79-1.722-37.751-30.964-38.7-31.436-.608-.338-1.249-.169-4.356,1.317-4.862,2.3-8.07,3.14-12.325,3.174a15.969,15.969,0,0,1-5.74-.709c-2.87-.878-5.065-2.094-5.065-2.769,0-.3,4.322-2.8,11.312-6.483,10.1-5.369,11.481-6.01,12.932-6.01C99.722-398.506,102.525-397.763,107.455-396.142Zm-23.636-.81c-.371.27-3.174,1.823-6.247,3.41a55.8,55.8,0,0,0-6.483,3.816,5.383,5.383,0,0,0-1.351,5.031c.642,2.026,1.587,2.971,4.558,4.423,4.153,1.992,6.618,2.465,11.886,2.262A27.11,27.11,0,0,0,98-380.778c2.6-1.114,2.971-1.216,3.478-.743.3.27,8.475,6.888,18.132,14.756,9.657,7.834,17.964,14.722,18.47,15.262a4.717,4.717,0,0,1,.945,4.491,4.982,4.982,0,0,1-5.639,3.242c-.574-.169-7.395-4.9-15.161-10.5-7.8-5.605-14.655-10.434-15.229-10.738a1.968,1.968,0,0,0-1.958-.135,2.283,2.283,0,0,0-1.114,3.039c.27.507,5.909,4.795,14.283,10.839,8.644,6.247,14.114,10.434,14.587,11.143a4.279,4.279,0,0,1,.27,4.39c-1.486,2.938-4.862,3.647-7.631,1.655-.81-.608-6.787-4.862-13.27-9.455-9.623-6.821-12.021-8.374-12.9-8.374a2.191,2.191,0,0,0-2.161,2.431c0,1.148.3,1.384,13.236,10.535,5.706,4.052,10.771,7.8,11.244,8.374,2.262,2.668.068,7.023-3.579,7.023-1.823,0-.574.777-15.8-9.792-10.6-7.327-11.278-7.7-12.595-6.112a2.117,2.117,0,0,0,.068,2.971c.371.405,4.525,3.41,9.286,6.686,4.727,3.275,8.914,6.348,9.286,6.821a4.4,4.4,0,0,1-1.317,6.416c-2.026,1.384-3.073,1.114-9.016-2.3-2.938-1.688-5.436-3.14-5.5-3.208-.1-.068.1-.709.439-1.384,2.634-5.5-1.182-12.291-7.395-13.169-1.418-.169-1.519-.27-1.688-1.418-.675-3.984-3.275-7.294-6.551-8.273a13.088,13.088,0,0,0-2.6-.54c-.642,0-.81-.236-.979-1.283a10.471,10.471,0,0,0-5.166-7.732,9.877,9.877,0,0,0-8-.473c-.878.371-1.655.709-1.688.709a3.232,3.232,0,0,1-.27-.945,10.322,10.322,0,0,0-3.816-5.132,9.533,9.533,0,0,0-7.023-1.351c-2.195.439-3.512,1.283-6.99,4.423a14.777,14.777,0,0,1-3.005,2.33,11.372,11.372,0,0,1-2.465-1.587c-1.148-.844-2.161-1.621-2.229-1.655-.068-.068,4.694-7.9,10.569-17.457l10.7-17.39,4.626-.2c7.5-.371,17.221-1.216,23.1-2.06C84.9-397.594,84.662-397.594,83.818-396.952ZM48.06-357.817a4.942,4.942,0,0,1,1.553,6.314,50.268,50.268,0,0,1-5.031,4.795c-5.74,4.964-7.192,5.335-9.961,2.6a3.134,3.134,0,0,1-1.283-2.938,6.735,6.735,0,0,1,.439-2.4c.574-1.013,8.61-8.171,9.86-8.745A5.122,5.122,0,0,1,48.06-357.817Zm14.519,6.247a5,5,0,0,1,1.655,6.618c-.27.405-3.512,3.377-7.226,6.652-7.226,6.348-7.935,6.753-10.3,5.977a5.8,5.8,0,0,1-3.41-3.849c-.439-2.161.27-3.309,4.153-6.686,1.958-1.722,4.829-4.255,6.314-5.639a43.8,43.8,0,0,1,3.714-3.107A5.356,5.356,0,0,1,62.579-351.571ZM73.148-341.2a6.4,6.4,0,0,1,1.486,2.161,3.492,3.492,0,0,1,.27,2.87c-.3,1.148-1.148,2.06-5.74,6.145-2.938,2.634-5.943,5.166-6.618,5.639a4.621,4.621,0,0,1-7.26-3.917,5.1,5.1,0,0,1,.506-2.262c.743-1.013,11.413-10.434,12.561-11.075A5.38,5.38,0,0,1,73.148-341.2Zm10.4,10.636a4.713,4.713,0,0,1,1.114,5.031c-.439,1.013-6.348,6.618-8.273,7.8a4.762,4.762,0,0,1-6.247-1.587,5.347,5.347,0,0,1-.371-4.322c.3-.777,7.125-7.057,8.644-7.969a5.377,5.377,0,0,1,2.3-.27A3.769,3.769,0,0,1,83.548-330.568Z"/>
    </g>
  </g>
</svg>
