<svg xmlns="http://www.w3.org/2000/svg" width="306.666" height="290.713" viewBox="0 0 306.666 290.713">
  <g id="Group_228" data-name="Group 228" transform="translate(-237.669 -3312.483)">
    <path id="Union_19" data-name="Union 19" d="M-1498.058,257.91a359.576,359.576,0,0,1,16.531-232.039C-1469.8-1.86-1433.621-8.894-1412.6,12.6a356.053,356.053,0,0,0,175.347,98c31.856,7.261,43.879,47.352,21.111,70.884a356.411,356.411,0,0,1-85.883,65.245,353.532,353.532,0,0,1-152.986,42.919c-.661.031-1.316.046-1.972.046A42.622,42.622,0,0,1-1498.058,257.91Z" transform="translate(1748.189 3313)" fill="#ffd000" stroke="rgba(0,0,0,0)" stroke-width="1"/>
    <g id="web-development_3_" data-name="web-development (3)" transform="translate(282.156 3931.097)">
      <path id="Path_534" data-name="Path 534" d="M7.143-510.385a10.312,10.312,0,0,0-5.925,5.364L.5-503.541v99.865l.718,1.481a10.092,10.092,0,0,0,6.037,5.364c1.3.449,1.952.449,51.032.4l49.708-.067,1.571-.763a10.781,10.781,0,0,0,4.847-4.847l.763-1.571v-99.865l-.763-1.571a10.781,10.781,0,0,0-4.847-4.847l-1.571-.763-49.82-.045C9.454-510.812,8.332-510.812,7.143-510.385Zm99.618,6.89a4.613,4.613,0,0,1,1.234,1.234c.426.7.449,1.212.516,9.538l.067,8.82H7.1l.067-8.82c.067-8.617.067-8.819.561-9.582a3.278,3.278,0,0,1,2.2-1.593c.382-.09,22.127-.135,48.361-.135l47.688.045Zm1.75,62.051c-.067,35.3-.067,35.749-.516,36.49a4.612,4.612,0,0,1-1.234,1.234l-.785.494H9.7l-.785-.494a4.612,4.612,0,0,1-1.234-1.234c-.449-.741-.449-1.189-.516-36.49L7.12-477.172H108.556Z"/>
      <path id="Path_535" data-name="Path 535" d="M62.481-450.574A3.153,3.153,0,0,0,61-447.634a3.071,3.071,0,0,0,3.366,3.366,3.071,3.071,0,0,0,3.366-3.366A3.071,3.071,0,0,0,64.366-451,3.4,3.4,0,0,0,62.481-450.574Z" transform="translate(-46.923 -46.369)"/>
      <path id="Path_536" data-name="Path 536" d="M122.481-450.574a3.153,3.153,0,0,0-1.481,2.94,3.071,3.071,0,0,0,3.366,3.366,3.071,3.071,0,0,0,3.366-3.366A3.071,3.071,0,0,0,124.366-451,3.4,3.4,0,0,0,122.481-450.574Z" transform="translate(-93.458 -46.369)"/>
      <path id="Path_537" data-name="Path 537" d="M182.481-450.574a3.153,3.153,0,0,0-1.481,2.94,3.071,3.071,0,0,0,3.366,3.366,3.071,3.071,0,0,0,3.366-3.366A3.071,3.071,0,0,0,184.366-451,3.4,3.4,0,0,0,182.481-450.574Z" transform="translate(-139.993 -46.369)"/>
      <path id="Path_538" data-name="Path 538" d="M332.481-450.574a3.153,3.153,0,0,0-1.481,2.94,3.154,3.154,0,0,0,1.481,2.94c.606.4,1.257.426,11.984.426s11.378-.022,11.984-.426a3.153,3.153,0,0,0,1.481-2.94,3.153,3.153,0,0,0-1.481-2.94c-.606-.4-1.257-.426-11.984-.426S333.087-450.978,332.481-450.574Z" transform="translate(-256.331 -46.369)"/>
      <path id="Path_539" data-name="Path 539" d="M217.611-315.52a4.022,4.022,0,0,0-1.167,1.391c-.247.516-4.937,11.445-10.435,24.282C197.234-269.4,196-266.373,196-265.386a3.054,3.054,0,0,0,3.344,3.254,3.126,3.126,0,0,0,3.142-1.863c.247-.516,4.937-11.445,10.435-24.282,8.775-20.444,10.009-23.474,10.009-24.461a3.133,3.133,0,0,0-1.481-2.828A4.353,4.353,0,0,0,217.611-315.52Z" transform="translate(-151.627 -151.082)"/>
      <path id="Path_540" data-name="Path 540" d="M93.841-270.192c-4.331,3.3-17.123,13.712-17.437,14.205a4.292,4.292,0,0,0,0,3.636c.2.337,3.995,3.478,8.393,7,11,8.82,9.852,8.012,11.355,8.012a3.139,3.139,0,0,0,2.985-1.481,4.334,4.334,0,0,0,.022-3.725c-.2-.314-3.434-3.03-7.181-6.014-3.725-2.985-6.777-5.521-6.777-5.61s3.052-2.626,6.777-5.61c3.748-2.985,6.979-5.7,7.181-6.014a4.334,4.334,0,0,0-.022-3.725A3.139,3.139,0,0,0,96.152-271,2.848,2.848,0,0,0,93.841-270.192Z" transform="translate(-58.557 -185.974)"/>
      <path id="Path_541" data-name="Path 541" d="M332.461-270.641a4.7,4.7,0,0,0-1.055,1.055,4.333,4.333,0,0,0-.022,3.725c.2.314,3.434,3.03,7.181,6.014,3.725,2.985,6.777,5.521,6.777,5.61s-3.052,2.626-6.777,5.61c-3.748,2.985-6.979,5.7-7.181,6.014a4.333,4.333,0,0,0,.022,3.725,3.139,3.139,0,0,0,2.985,1.481c1.5,0,.359.808,11.355-8.012,4.4-3.523,8.191-6.665,8.393-7a4.292,4.292,0,0,0,0-3.636c-.2-.337-3.995-3.478-8.393-7-11-8.819-9.852-8.012-11.355-8.012A3.467,3.467,0,0,0,332.461-270.641Z" transform="translate(-256.311 -185.908)"/>
    </g>
  </g>
</svg>
