<svg xmlns="http://www.w3.org/2000/svg" width="37.182" height="35.083" viewBox="0 0 37.182 35.083">
  <g id="Group_561" data-name="Group 561" transform="translate(-2494.409 -5967.615)">
    <path id="Path_12" data-name="Path 12" d="M33.182,13.394A43.371,43.371,0,0,1,11.849,1.526,5.142,5.142,0,0,0,3.464,3.133a43.36,43.36,0,0,0-2.011,28.1A5.18,5.18,0,0,0,6.69,35.078,43.162,43.162,0,0,0,25.3,29.88a43.34,43.34,0,0,0,10.449-7.9,5.161,5.161,0,0,0-2.568-8.584" transform="translate(2494.41 5967.615)" fill="#ffd000"/>
    <path id="empty-curved-arrow-up-upload-svgrepo-com_1_" data-name="empty-curved-arrow-up-upload-svgrepo-com (1)" d="M14.824,3.25a.5.5,0,0,1,.357.148l5.581,5.581a1.174,1.174,0,0,1,.247,1.285,1.146,1.146,0,0,1-1.075.72h-2.6a7.878,7.878,0,0,1-7.886,7.4H6.754a.5.5,0,1,1,0-1.009h.075a7.1,7.1,0,0,0,5.455-6.388H9.713a1.146,1.146,0,0,1-1.075-.72,1.174,1.174,0,0,1,.247-1.285L14.467,3.4A.5.5,0,0,1,14.824,3.25Zm5.111,6.724a.142.142,0,0,0,.143-.1.172.172,0,0,0-.029-.185L14.824,4.468,9.6,9.692a.172.172,0,0,0-.029.185.142.142,0,0,0,.143.1h3.093a.5.5,0,0,1,.5.5,8.07,8.07,0,0,1-1.784,5.049,8.2,8.2,0,0,1-2.1,1.844h.022a6.9,6.9,0,0,0,6.893-6.893.5.5,0,0,1,.5-.5Z" transform="translate(2495.138 5976.15)"/>
  </g>
</svg>