<svg xmlns="http://www.w3.org/2000/svg" width="54.241" height="46" viewBox="0 0 54.241 46">
  <g id="Group_112" data-name="Group 112" transform="translate(-1985.759 -2675)">
    <circle id="Ellipse_13" data-name="Ellipse 13" cx="15" cy="15" r="15" transform="translate(2010 2675)" fill="#ffd000"/>
    <g id="artificial-intelligence" transform="translate(1985.727 3164.544)">
      <path id="Path_194" data-name="Path 194" d="M23.806-487.5a2.609,2.609,0,0,0-1.595,1.291,2.365,2.365,0,0,0,1.016,3.037l.342.19v2.515H21.576l.095-.247a2.424,2.424,0,0,0-1.281-2.8,2.67,2.67,0,0,0-1.9,0,2.641,2.641,0,0,0-1.149,1.082,2.9,2.9,0,0,0-.152,1.671l.1.294H11.049c-6.939,0-6.844-.009-7.584.626a3.186,3.186,0,0,0-.664.835l-.256.484-.028,14.352L2.5-449.828l-1.054.038c-1.481.038-1.443-.019-1.4,2.164.028,1.566.038,1.69.275,2.183a3.139,3.139,0,0,0,2.126,1.756c.494.123,2.4.142,16.165.142,17.181,0,16.07.038,16.2-.579a.59.59,0,0,0-.123-.551l-.18-.247-15.89-.047c-17.56-.057-16.108,0-16.725-.636-.351-.38-.446-.759-.446-1.851v-.93h45.77l-.028,1.13c-.038,1.1-.047,1.139-.332,1.5-.626.769-.389.74-5.325.769l-4.385.029-.2.247a.648.648,0,0,0-.009.892l.18.228h4.5c4.442,0,4.5,0,5.021-.218a3.48,3.48,0,0,0,1.69-1.633c.228-.484.247-.626.275-2.183.047-2.183.085-2.126-1.4-2.164l-1.054-.038-.019-14.342-.028-14.352-.256-.484a3.186,3.186,0,0,0-.664-.835c-.664-.57-1.006-.626-3.92-.626-2.458,0-2.582.009-2.781.19a.745.745,0,0,0,0,1.044c.2.18.323.19,2.772.19,2.411,0,2.591.009,2.886.19.626.38.589-.57.589,14.95v14.1H3.92v-14.1c0-15.519-.038-14.57.589-14.95.3-.18.456-.19,7.271-.19h6.948v1.424h-6.4c-6.322,0-6.4,0-6.644.2l-.247.19v25.609l.247.19c.228.18.38.2,1.6.2s1.376-.019,1.6-.2a.641.641,0,0,0,0-1.025c-.218-.171-.389-.2-1.139-.2H6.863v-9.558l.5.095a2.344,2.344,0,0,0,2.449-1.253l.133-.294h6.977v1.87L16-461.02l-.921.769h-.626c-.579,0-.645-.019-.74-.228a2.832,2.832,0,0,0-1.272-1.2,2.3,2.3,0,0,0-3.18,1.993,2.435,2.435,0,0,0,1.452,2.335,2.8,2.8,0,0,0,1.8-.047,2.753,2.753,0,0,0,1.177-1.149l.114-.285h1.766l.655-.532.645-.532.057.522a2.561,2.561,0,0,0,1.68,2.193,95.65,95.65,0,0,0,11.428,0,2.561,2.561,0,0,0,1.68-2.193l.057-.522.645.532.655.532h1.766l.114.285a2.753,2.753,0,0,0,1.177,1.149,2.787,2.787,0,0,0,1.68.085,2.634,2.634,0,0,0,1.414-1.348,2.335,2.335,0,0,0-2.8-3.113,2.775,2.775,0,0,0-1.424,1.177c-.18.342-.19.342-.807.342h-.617l-.921-.778-.93-.769v-1.87h3.512a24.045,24.045,0,0,1,3.512.095,1.7,1.7,0,0,0,.247.465,2.326,2.326,0,0,0,2.345.978l.446-.095v9.568H26.663c-14.637,0-15.14.009-15.349.18a.734.734,0,0,0,0,1.063c.209.171.721.18,15.814.18H42.714l.256-.2.247-.19v-25.609l-.247-.19c-.247-.2-.323-.2-6.644-.2h-6.4v-1.424h2.933c2.819,0,2.933-.009,3.18-.2a.641.641,0,0,0,0-1.025c-.237-.19-.37-.2-2.468-.2H31.362l.1-.294a2.9,2.9,0,0,0-.152-1.671,2.331,2.331,0,0,0-2.1-1.262,2.357,2.357,0,0,0-2.107,1.272,3.027,3.027,0,0,0-.142,1.661l.1.294H25.088v-2.544l.285-.114a2.735,2.735,0,0,0,1.2-1.49,2.309,2.309,0,0,0-2.012-2.914A2.674,2.674,0,0,0,23.806-487.5Zm1.158,1.633a.889.889,0,0,1-.313,1.471.889.889,0,0,1-.959-1.452,1.506,1.506,0,0,1,.351-.247A1.063,1.063,0,0,1,24.964-485.87ZM20.066-482a.857.857,0,0,1,.047,1.215.7.7,0,0,1-.674.266.7.7,0,0,1-.674-.266.9.9,0,0,1,.674-1.49A.811.811,0,0,1,20.066-482Zm9.777,0a.857.857,0,0,1,.047,1.215.7.7,0,0,1-.674.266.7.7,0,0,1-.674-.266.9.9,0,0,1,.674-1.49A.811.811,0,0,1,29.843-482Zm-6.274,3.664v.712H20.152v-1.424h3.417Zm4.936,0v.712H25.088v-1.424H28.5Zm-9.777,3.645v1.509l.532.655.532.645-.532.066a2.486,2.486,0,0,0-2.041,1.414,2.434,2.434,0,0,0-.294,1.006.84.84,0,0,1-.057.408,3.492,3.492,0,0,1-.551-.408,1.874,1.874,0,0,0-1.69-.636H13.84l-.19-.342a2.8,2.8,0,0,0-1.357-1.158,2.318,2.318,0,0,0-3.028,2.069,2.352,2.352,0,0,0,3.256,2.288,2.753,2.753,0,0,0,1.177-1.149c.114-.275.142-.285.731-.285h.617l.94.778.949.788-.028.949-.028.949-3.436.028L10-465.092l-.19-.351a2.6,2.6,0,0,0-1.2-1.13,2.972,2.972,0,0,0-1.547-.095l-.209.066v-9.6H18.728Zm4.841.674v2.183H21.7l-.769-.93-.778-.921V-476.2h3.417Zm4.936-.93v1.262l-.778.921-.769.93h-1.87V-476.2H28.5Zm13.289,3.55v4.793l-.209-.066a2.8,2.8,0,0,0-1.595.123,2.9,2.9,0,0,0-1.234,1.224l-.095.228-3.436-.019-3.446-.028-.028-.949-.028-.949.949-.788.94-.778h.617c.589,0,.617.009.731.285a2.571,2.571,0,0,0,.456.626,2.326,2.326,0,0,0,3.816-.74,2.333,2.333,0,0,0-2.867-3.094,2.8,2.8,0,0,0-1.357,1.158l-.19.342h-.788a1.874,1.874,0,0,0-1.69.636,3.492,3.492,0,0,1-.551.408.84.84,0,0,1-.057-.408,2.434,2.434,0,0,0-.294-1.006,2.486,2.486,0,0,0-2.041-1.414l-.532-.066.532-.645.532-.655V-476.2H41.794Zm-11.808,1.386.323.361v5.173c0,5.686.009,5.581-.57,5.885-.237.123-1.006.142-5.41.142s-5.173-.019-5.41-.142c-.579-.3-.57-.2-.57-5.876v-5.164l.256-.3a1.372,1.372,0,0,1,.446-.38c.114-.047,2.544-.076,5.4-.066l5.211.019Zm-17.8.066a.811.811,0,0,1,.275.626.811.811,0,0,1-.275.626.829.829,0,0,1-1.262-.01.626.626,0,0,1-.237-.693A.865.865,0,0,1,12.188-469.942ZM37.665-470a.914.914,0,0,1,.3.608.626.626,0,0,1-.237.693.829.829,0,0,1-1.262.01A.888.888,0,0,1,37.665-470ZM8.429-464.978a.776.776,0,0,1-.038,1.139.856.856,0,0,1-1.528-.57.793.793,0,0,1,.6-.854A.814.814,0,0,1,8.429-464.978Zm33.2-.01a1.151,1.151,0,0,1,.066,1.044,1.02,1.02,0,0,1-.949.418,1.12,1.12,0,0,1-.759-.9,1.106,1.106,0,0,1,.693-.873A1.155,1.155,0,0,1,41.632-464.987Zm-29.444,4.822a.811.811,0,0,1,.275.626.92.92,0,0,1-.9.9.956.956,0,0,1-.9-.826A.9.9,0,0,1,12.188-460.165Zm25.543-.009a1.126,1.126,0,0,1,.237.57.613.613,0,0,1-.237.683.829.829,0,0,1-1.262.009.829.829,0,0,1,.009-1.262.613.613,0,0,1,.683-.237A1.126,1.126,0,0,1,37.731-460.175Z" transform="translate(0 0)"/>
      <path id="Path_195" data-name="Path 195" d="M207.428-289.791a61.117,61.117,0,0,0-2.848,8.011.736.736,0,0,0,.674.513c.37,0,.664-.389.978-1.31l.313-.873h2.61l.313.873c.342.959.607,1.31.987,1.31.275,0,.712-.38.712-.626,0-.095-.6-1.86-1.329-3.92-1.367-3.863-1.519-4.186-1.993-4.186A.857.857,0,0,0,207.428-289.791Zm1.177,4.841a2.067,2.067,0,0,1-.759.076,2.716,2.716,0,0,1-.759-.057c0-.057.475-1.414.664-1.889.114-.275.123-.266.484.75C208.434-285.5,208.605-285,208.605-284.95Z" transform="translate(-185.131 -178.794)"/>
      <path id="Path_196" data-name="Path 196" d="M285.237-274.763a.782.782,0,0,0-.237.475.782.782,0,0,0,.237.475.782.782,0,0,0,.475.237.827.827,0,0,0,.712-.74.745.745,0,0,0-.7-.683A.755.755,0,0,0,285.237-274.763Z" transform="translate(-257.919 -192.37)"/>
      <path id="Path_197" data-name="Path 197" d="M285.2-248.826c-.19.237-.2.37-.2,2.193,0,1.927,0,1.936.237,2.164a.782.782,0,0,0,.475.237.782.782,0,0,0,.475-.237c.237-.228.237-.237.237-2.212,0-1.86-.009-1.993-.19-2.183A.687.687,0,0,0,285.2-248.826Z" transform="translate(-257.919 -215.829)"/>
    </g>
  </g>
</svg>
