<svg xmlns="http://www.w3.org/2000/svg" width="52.261" height="52" viewBox="0 0 52.261 52">
  <g id="Group_110" data-name="Group 110" transform="translate(-1784.739 -2627)">
    <circle id="Ellipse_12" data-name="Ellipse 12" cx="15" cy="15" r="15" transform="translate(1807 2627)" fill="#ffd000"/>
    <g id="branding" transform="translate(1784.739 3147)">
      <path id="Path_162" data-name="Path 162" d="M1.074-511.794a1.449,1.449,0,0,0-.894.911c-.172.387-.18.5-.18,13.262v12.875l.215.206a.551.551,0,0,0,.859,0l.215-.206v-20.379H42.717v3.3c0,3.206.009,3.3.18,3.524a.565.565,0,0,0,.894.009l.215-.206v-6c0-5.845-.009-6.008-.18-6.386a1.449,1.449,0,0,0-.894-.911L42.5-512H28.123c-9.042,0-14.44.034-14.534.086a.67.67,0,0,0-.258.335.473.473,0,0,0,.026.507.822.822,0,0,0,.266.309c.077.026,6.584.052,14.448.052,14.19,0,14.3,0,14.474.172s.172.284.172,2.149v1.977H1.289v-1.977c0-1.865.009-1.985.172-2.149s.284-.172,4.925-.172h4.762l.18-.2a.63.63,0,0,0-.009-.9l-.2-.189H1.5Z" transform="translate(0 0)"/>
      <path id="Path_163" data-name="Path 163" d="M36.881-479.376a.6.6,0,0,0,.4,1.092.6.6,0,0,0,.593-.627A.589.589,0,0,0,36.881-479.376Z" transform="translate(-33.486 -29.676)"/>
      <path id="Path_164" data-name="Path 164" d="M71.366-479.731a.631.631,0,0,0,.258,1.2.6.6,0,0,0,.619-.533c.052-.189.009-.284-.2-.5C71.77-479.826,71.675-479.852,71.366-479.731Z" transform="translate(-64.894 -29.432)"/>
      <path id="Path_165" data-name="Path 165" d="M105.446-479.563a.589.589,0,0,0-.206.971.634.634,0,0,0,1.109-.4A.65.65,0,0,0,105.446-479.563Z" transform="translate(-96.035 -29.592)"/>
      <path id="Path_166" data-name="Path 166" d="M32.693-414.828c-.533.318-.584.481-.61,2.08-.026,1.315-.017,1.478.146,1.814a1.086,1.086,0,0,0,1.083.662.687.687,0,0,1,.645.258.67.67,0,0,0,.516.258.67.67,0,0,0,.516-.258.687.687,0,0,1,.645-.258,1.561,1.561,0,0,0,.653-.146,1.564,1.564,0,0,0,.593-1.212c0-.266.043-.378.172-.447.4-.215.387-.954-.009-1.074-.129-.043-.163-.138-.163-.456a1.392,1.392,0,0,0-.593-1.195c-.275-.189-.378-.2-1.8-.2C33.131-415,32.942-414.983,32.693-414.828Zm2.9,2.192v1.074H33.355v-2.149h2.235Z" transform="translate(-29.315 -88.663)"/>
      <path id="Path_167" data-name="Path 167" d="M419.657-414.8a1.392,1.392,0,0,0-.593,1.195c0,.318-.034.413-.163.456-.4.12-.4.859-.009,1.074.129.069.172.18.172.43a1.224,1.224,0,0,0,1.263,1.375c.37,0,.447.034.61.258a.513.513,0,0,0,.5.258.672.672,0,0,0,.55-.258.687.687,0,0,1,.645-.258,1.123,1.123,0,0,0,1.04-.55c.146-.232.163-.447.163-1.814,0-1.728-.034-1.865-.584-2.192-.249-.155-.438-.172-1.788-.172C420.035-415,419.932-414.991,419.657-414.8Zm2.931,2.166v1.074h-2.235v-2.149h2.235Z" transform="translate(-382.621 -88.663)"/>
      <path id="Path_168" data-name="Path 168" d="M111.15-394.819a.622.622,0,0,0-.034.937c.155.146.3.172.911.172a3,3,0,0,0,.885-.095.635.635,0,0,0-.06-1.1,3.042,3.042,0,0,0-.842-.095C111.5-395,111.339-394.966,111.15-394.819Z" transform="translate(-101.386 -106.944)"/>
      <path id="Path_169" data-name="Path 169" d="M155.155-394.819a.643.643,0,0,0-.052.937,2.585,2.585,0,0,0,1.9.017.612.612,0,0,0-.043-.937c-.2-.172-.327-.2-.9-.2C155.508-395,155.344-394.966,155.155-394.819Z" transform="translate(-141.61 -106.944)"/>
      <path id="Path_170" data-name="Path 170" d="M199.155-394.819a.643.643,0,0,0-.052.937c.146.146.284.172.945.172s.8-.026.945-.172a.6.6,0,0,0-.052-.928c-.189-.163-.309-.189-.885-.189C199.508-395,199.344-394.966,199.155-394.819Z" transform="translate(-181.828 -106.944)"/>
      <path id="Path_171" data-name="Path 171" d="M243.155-394.819a.643.643,0,0,0-.052.937c.146.146.284.172.945.172.9,0,1.117-.129,1.117-.636,0-.481-.3-.653-1.117-.653C243.508-395,243.344-394.966,243.155-394.819Z" transform="translate(-222.046 -106.944)"/>
      <path id="Path_172" data-name="Path 172" d="M286.951-394.811a.6.6,0,0,0-.052.928c.146.146.284.172.945.172.9,0,1.117-.129,1.117-.636,0-.481-.3-.653-1.126-.653C287.26-395,287.14-394.974,286.951-394.811Z" transform="translate(-262.06 -106.944)"/>
      <path id="Path_173" data-name="Path 173" d="M330.833-394.8a.612.612,0,0,0-.043.937c.163.12.352.155.963.155.885,0,1.109-.129,1.109-.636,0-.481-.3-.653-1.126-.653C331.159-395,331.03-394.974,330.833-394.8Z" transform="translate(-302.177 -106.944)"/>
      <path id="Path_174" data-name="Path 174" d="M374.856-394.809a.64.64,0,0,0-.034,1.092,3,3,0,0,0,.885.095c.851,0,1.1-.146,1.1-.645,0-.473-.3-.645-1.109-.636A2.861,2.861,0,0,0,374.856-394.809Z" transform="translate(-342.342 -107.032)"/>
      <path id="Path_175" data-name="Path 175" d="M90.172-346.811c-.163.18-.172.284-.172,3.206v3.025l.2.18c.189.181.284.189,1.453.189,1.444,0,1.822-.095,2.338-.584a2.15,2.15,0,0,0,.1-3c-.223-.266-.223-.284-.095-.533a2.016,2.016,0,0,0,.129-.782,1.786,1.786,0,0,0-.576-1.392c-.438-.413-.774-.5-2.037-.5C90.43-347,90.335-346.991,90.172-346.811Zm2.51,1.246a.76.76,0,0,1,.009.9c-.112.12-.266.155-.774.155h-.627v-1.2h.619C92.355-345.711,92.561-345.676,92.682-345.565Zm-.026,2.4a.83.83,0,0,1,.447,1.418c-.241.241-.284.249-1.031.249h-.782v-1.719h.55A6.286,6.286,0,0,1,92.656-343.167Z" transform="translate(-82.265 -150.818)"/>
      <path id="Path_176" data-name="Path 176" d="M155.189-346.8c-.189.2-.189.241-.189,3.206v3.017l.2.18a.633.633,0,0,0,.885.009c.129-.146.172-.352.206-1.126l.043-.945.9,1.014c1.1,1.246,1.092,1.238,1.453,1.212a.6.6,0,0,0,.576-.7,5.968,5.968,0,0,0-.817-1.092l-.765-.877.438-.223a2.02,2.02,0,0,0-.112-3.7A3.285,3.285,0,0,0,156.5-347C155.43-347,155.361-346.991,155.189-346.8Zm2.441,1.22a.771.771,0,0,1,.292.9c-.146.361-.49.516-1.117.516h-.516v-1.547h.584A1.476,1.476,0,0,1,157.63-345.582Z" transform="translate(-141.678 -150.818)"/>
      <path id="Path_177" data-name="Path 177" d="M217.467-346.888c-.138.1-2.467,5.879-2.467,6.12a.723.723,0,0,0,.61.567c.421,0,.567-.138.817-.774l.232-.61,1.212.026,1.2.026.206.516c.266.662.4.816.765.816a.6.6,0,0,0,.627-.584c0-.275-2.192-5.836-2.381-6.059A.754.754,0,0,0,217.467-346.888Zm1.014,3.859c.052.155,0,.163-.636.163h-.679l.344-.868.352-.868.284.7C218.309-343.511,218.455-343.115,218.481-343.029Z" transform="translate(-196.521 -150.827)"/>
      <path id="Path_178" data-name="Path 178" d="M292.18-346.88c-.172.223-.18.327-.18,3.172s.009,2.948.18,3.172a.6.6,0,0,0,.9.043c.146-.163.172-.37.206-2.028l.043-1.856,1.289,1.839c.7,1.014,1.375,1.925,1.478,2.028a.634.634,0,0,0,.885.026c.163-.163.172-.284.172-3.223s-.009-3.06-.172-3.223a.683.683,0,0,0-.911.009c-.146.163-.172.37-.206,2.02l-.043,1.839-1.246-1.779c-.688-.98-1.332-1.891-1.444-2.02A.592.592,0,0,0,292.18-346.88Z" transform="translate(-266.903 -150.715)"/>
      <path id="Path_179" data-name="Path 179" d="M363.172-346.828c-.163.163-.172.284-.172,3.206v3.043l.206.189c.2.189.258.2,1.487.163s1.289-.034,1.728-.275a3.424,3.424,0,0,0,1.624-3.395,3.251,3.251,0,0,0-1.332-2.682c-.576-.361-.868-.421-2.183-.421C363.456-347,363.327-346.983,363.172-346.828Zm2.742,1.272a1.631,1.631,0,0,1,.559.627,1.92,1.92,0,0,1,.266,1.324,2.162,2.162,0,0,1-.189,1.2,1.531,1.531,0,0,1-1.667.9h-.593v-4.212h.67A1.971,1.971,0,0,1,365.914-345.556Z" transform="translate(-331.8 -150.818)"/>
      <path id="Path_180" data-name="Path 180" d="M53.189-339.76c-.163.155-.189.266-.189.945,0,.722.009.774.223.937a.5.5,0,0,0,.765-.017,1.7,1.7,0,0,0,.034-1.874A.62.62,0,0,0,53.189-339.76Z" transform="translate(-48.445 -157.285)"/>
      <path id="Path_181" data-name="Path 181" d="M444.3-339.769a1.7,1.7,0,0,0,.034,1.874.5.5,0,0,0,.765.017c.215-.163.223-.215.223-.937,0-.679-.026-.791-.189-.945A.62.62,0,0,0,444.3-339.769Z" transform="translate(-405.868 -157.285)"/>
      <path id="Path_182" data-name="Path 182" d="M42.932-329.785l-.215.206v9.334c0,9.214,0,9.326-.172,9.5s-.284.172-1.753.172H39.219l-.249-.352a4.125,4.125,0,0,0-1.547-1.332l-.275-.052-.034-1.556c-.026-1.53-.034-1.573-.266-1.968a1.807,1.807,0,0,0-.6-.619c-.378-.223-8.079-3.172-8.543-3.266a1.608,1.608,0,0,0-1.779,1.779c.026.155.653,1.839,1.375,3.747s1.324,3.507,1.324,3.55-6.068.069-13.494.069c-13.382,0-13.494,0-13.666-.172s-.172-.284-.172-2.621v-2.458l-.215-.206a.551.551,0,0,0-.859,0L0-315.827v2.467a18.575,18.575,0,0,0,.1,2.819,2.091,2.091,0,0,0,1.152,1.16c.232.069,4.615.095,14.182.095,11.9,0,13.864.017,13.9.12a1.481,1.481,0,0,0,.464.37c.4.241.438.241,1.977.266l1.556.034.052.275a4.115,4.115,0,0,0,1.306,1.53,2.288,2.288,0,0,0,.7.284l.361.06,1.22,2.2c.67,1.212,1.289,2.278,1.384,2.355a.567.567,0,0,0,.791-.026.535.535,0,0,0,.223-.421A39.872,39.872,0,0,0,37-306.759l-.206-.352.877-.859.877-.868,2.3,1.281a16.254,16.254,0,0,0,2.553,1.281.651.651,0,0,0,.516-.945,12.577,12.577,0,0,0-1.779-1.092l-1.685-.928,1.109-.052a7.7,7.7,0,0,0,1.281-.12,1.909,1.909,0,0,0,.954-.937l.206-.438v-18.789l-.215-.206a.708.708,0,0,0-.43-.215A.708.708,0,0,0,42.932-329.785ZM32.1-316.721a38.181,38.181,0,0,1,3.55,1.453c.206.18.206.189.172,1.917l-.026,1.745-.885.877-.877.885-1.7.026c-1.693.034-1.71.034-1.925-.172a21.663,21.663,0,0,1-1.521-3.627c-.713-1.882-1.289-3.438-1.272-3.455s.636.584,1.384,1.332l1.367,1.367-.112.438a2.061,2.061,0,0,0,.868,2.218,2.384,2.384,0,0,0,1.762.2,2.362,2.362,0,0,0,1.2-1.16,2.268,2.268,0,0,0-.163-1.839,2.061,2.061,0,0,0-2.217-.868l-.438.112-1.392-1.4a11.963,11.963,0,0,1-1.255-1.358C28.69-318.01,30.263-317.417,32.1-316.721Zm.464,2.664a.712.712,0,0,1-.3,1.332c-.4,0-.541-.077-.679-.352a.622.622,0,0,1,.12-.859A.622.622,0,0,1,32.566-314.056Zm4.951,3.481.43.43-1.229,1.229L35.5-307.7l-.447-.456-.456-.447,1.2-1.2c.662-.662,1.22-1.2,1.246-1.2A3.6,3.6,0,0,1,37.517-310.575Z" transform="translate(0 -166.357)"/>
      <path id="Path_183" data-name="Path 183" d="M53.223-300.706c-.215.163-.223.215-.223.937,0,.679.026.791.189.945a.592.592,0,0,0,.825,0,1.673,1.673,0,0,0-.026-1.874A.507.507,0,0,0,53.223-300.706Z" transform="translate(-48.445 -192.978)"/>
      <path id="Path_184" data-name="Path 184" d="M444.222-300.678a1.644,1.644,0,0,0-.017,1.865.591.591,0,0,0,.825,0c.163-.155.189-.266.189-.945,0-.722-.009-.774-.223-.937A.511.511,0,0,0,444.222-300.678Z" transform="translate(-405.768 -192.989)"/>
      <path id="Path_185" data-name="Path 185" d="M33.939-260.742c-.163.223-.241.258-.61.258a1.083,1.083,0,0,0-1.1.662c-.163.335-.172.5-.146,1.814.026,1.6.077,1.762.61,2.08.249.155.438.172,1.788.172,1.427,0,1.53-.009,1.8-.2a1.392,1.392,0,0,0,.593-1.195c0-.318.034-.413.163-.456.4-.12.4-.859.009-1.074-.129-.069-.172-.18-.172-.456a1.5,1.5,0,0,0-.593-1.212,1.7,1.7,0,0,0-.679-.138c-.361,0-.438-.034-.6-.258a.528.528,0,0,0-.533-.258A.528.528,0,0,0,33.939-260.742Zm1.65,2.621v1.074H33.355V-259.2h2.235Z" transform="translate(-29.315 -229.427)"/>
      <path id="Path_186" data-name="Path 186" d="M420.937-260.742c-.163.223-.241.258-.61.258a1.224,1.224,0,0,0-1.263,1.375c0,.249-.043.361-.172.43-.4.215-.387.954.009,1.074.129.043.163.138.163.456a1.392,1.392,0,0,0,.593,1.195c.275.189.378.2,1.8.2,1.349,0,1.539-.017,1.788-.172.533-.318.584-.481.61-2.08.026-1.315.017-1.478-.146-1.814a1.083,1.083,0,0,0-1.1-.662c-.37,0-.447-.034-.61-.258a.528.528,0,0,0-.533-.258A.528.528,0,0,0,420.937-260.742Zm1.65,2.621v1.074h-2.235V-259.2h2.235Z" transform="translate(-382.621 -229.427)"/>
      <path id="Path_187" data-name="Path 187" d="M111.1-234.828a.643.643,0,0,0,.052.937c.189.146.352.18.859.18a3.044,3.044,0,0,0,.842-.095.635.635,0,0,0,.06-1.1,3.1,3.1,0,0,0-.9-.095C111.387-235,111.25-234.974,111.1-234.828Z" transform="translate(-101.391 -253.192)"/>
      <path id="Path_188" data-name="Path 188" d="M155.1-235.013a.643.643,0,0,0,.052.937c.189.146.352.18.9.18.576,0,.7-.026.9-.2a.612.612,0,0,0,.043-.937A2.585,2.585,0,0,0,155.1-235.013Z" transform="translate(-141.61 -253.007)"/>
      <path id="Path_189" data-name="Path 189" d="M199.1-234.828a.643.643,0,0,0,.052.937c.189.146.352.18.9.18.576,0,.7-.026.885-.2a.588.588,0,0,0,.052-.92c-.146-.146-.284-.172-.945-.172S199.25-234.974,199.1-234.828Z" transform="translate(-181.828 -253.192)"/>
      <path id="Path_190" data-name="Path 190" d="M243.1-234.828a.643.643,0,0,0,.052.937c.189.146.352.18.894.18.817,0,1.117-.172,1.117-.653,0-.507-.215-.636-1.117-.636C243.387-235,243.25-234.974,243.1-234.828Z" transform="translate(-222.046 -253.192)"/>
      <path id="Path_191" data-name="Path 191" d="M286.937-234.845a.617.617,0,0,0,.026.937c.2.172.327.2.9.2.825,0,1.126-.172,1.126-.653,0-.507-.223-.636-1.109-.636C287.281-235,287.083-234.966,286.937-234.845Z" transform="translate(-262.089 -253.192)"/>
      <path id="Path_192" data-name="Path 192" d="M330.79-234.845a.612.612,0,0,0,.043.937c.2.172.327.2.9.2.825,0,1.126-.172,1.126-.653,0-.507-.223-.636-1.109-.636C331.142-235,330.953-234.966,330.79-234.845Z" transform="translate(-302.177 -253.192)"/>
      <path id="Path_193" data-name="Path 193" d="M374.753-234.905a.647.647,0,0,0-.232.774c.138.318.421.421,1.152.421.782,0,1.083-.18,1.083-.653,0-.507-.223-.636-1.092-.636A3.04,3.04,0,0,0,374.753-234.905Z" transform="translate(-342.29 -253.192)"/>
    </g>
  </g>
</svg>
