<svg xmlns="http://www.w3.org/2000/svg" width="44.072" height="52" viewBox="0 0 44.072 52">
  <g id="Group_106" data-name="Group 106" transform="translate(-1901.521 -2576)">
    <circle id="Ellipse_10" data-name="Ellipse 10" cx="15" cy="15" r="15" transform="translate(1914 2576)" fill="#ffd000"/>
    <g id="mobile-development" transform="translate(1885.522 3079.715)">
      <path id="Path_145" data-name="Path 145" d="M29.092-495.641a4.323,4.323,0,0,0-1.809,1.065,4.764,4.764,0,0,0-.661,1.019l-.294.615-.028,8.163-.028,8.153-.432-.064a3.547,3.547,0,0,1-1.726-.9,5,5,0,0,1-.477-.744,2.179,2.179,0,0,1-.239-1.249,2.2,2.2,0,0,1,.257-1.285,4.941,4.941,0,0,1,.817-1.028c.5-.487.542-.551.487-.826a.729.729,0,0,0-.753-.624c-.248,0-.413.1-.891.551a4.432,4.432,0,0,0-1.3,2.158,4.438,4.438,0,0,0,3.636,5.408l.634.092v4.37H25.97c-.358,0-.331.046-.569-1.074-.174-.872-.312-1.028-1.047-1.267-.275-.092-.836-.321-1.24-.514a1.979,1.979,0,0,0-.918-.3,9.519,9.519,0,0,0-.881.5,5.28,5.28,0,0,1-.78.45,2.75,2.75,0,0,1-.5-.422l-.432-.422.459-.707c.689-1.047.689-1.019.275-1.882a12,12,0,0,1-.56-1.368,1.9,1.9,0,0,0-.358-.7,8.74,8.74,0,0,0-1.047-.285l-.9-.2v-1.249l.891-.2a5.544,5.544,0,0,0,1.056-.312,1.67,1.67,0,0,0,.358-.7,13.273,13.273,0,0,1,.56-1.341c.413-.863.413-.836-.275-1.882l-.459-.707.432-.422a2.75,2.75,0,0,1,.5-.422,5.281,5.281,0,0,1,.78.45,9.515,9.515,0,0,0,.881.505,1.979,1.979,0,0,0,.918-.3,14.394,14.394,0,0,1,1.341-.551,1.271,1.271,0,0,0,.716-.4,11.545,11.545,0,0,0,.56-2.874.871.871,0,0,0-.707-.5c-.441,0-.661.349-.872,1.386l-.193.973-.808.34-.808.34-.863-.56a3.465,3.465,0,0,0-1.129-.551c-.211,0-.459.2-1.341,1.083s-1.083,1.129-1.083,1.35a3.27,3.27,0,0,0,.56,1.139l.551.863-.266.606a6.882,6.882,0,0,0-.331.8c-.046.156-.2.22-.817.349-.413.083-.891.2-1.047.248-.533.165-.578.331-.578,1.919,0,1.882-.046,1.818,1.616,2.167l.735.156.349.808.34.808-.56.863a3.465,3.465,0,0,0-.551,1.129c0,.211.2.459,1.083,1.341s1.129,1.083,1.341,1.083a3.465,3.465,0,0,0,1.129-.551l.863-.56.808.34.808.34.193.973c.266,1.276.376,1.386,1.4,1.386h.725l.028,7.419.028,7.419.34.7a3.529,3.529,0,0,0,1.8,1.754l.615.294h17.9l.615-.294a3.529,3.529,0,0,0,1.8-1.754l.34-.7.028-8.163.028-8.163.422.064A3.568,3.568,0,0,1,51.78-470a3.608,3.608,0,0,1,.588.808,2.123,2.123,0,0,1,.312,1.313,2.3,2.3,0,0,1-.3,1.35,2.868,2.868,0,0,1-.753.992,1.759,1.759,0,0,0-.514.6.9.9,0,0,0,.376.817c.422.156.679.055,1.267-.5a4.432,4.432,0,0,0,1.3-2.158,4.438,4.438,0,0,0-3.636-5.408l-.634-.092v-4.371H50.1c.358,0,.331-.046.569,1.074.174.872.312,1.028,1.047,1.267.275.092.836.321,1.24.514a1.979,1.979,0,0,0,.918.3,9.52,9.52,0,0,0,.881-.5,5.28,5.28,0,0,1,.78-.45,3.353,3.353,0,0,1,.863.863,5.281,5.281,0,0,1-.45.78,9.526,9.526,0,0,0-.5.881,1.98,1.98,0,0,0,.3.918,12.812,12.812,0,0,1,.551,1.359,1.9,1.9,0,0,0,.358.7,10.737,10.737,0,0,0,1.056.285l.891.2v1.249l-.891.2a10.728,10.728,0,0,0-1.056.285,1.9,1.9,0,0,0-.358.7,12,12,0,0,1-.56,1.368c-.413.863-.413.836.275,1.882l.459.707-.432.422a2.751,2.751,0,0,1-.505.422,5.28,5.28,0,0,1-.78-.45,9.5,9.5,0,0,0-.881-.5,1.979,1.979,0,0,0-.918.3,14.4,14.4,0,0,1-1.341.551,1.271,1.271,0,0,0-.716.4,11.545,11.545,0,0,0-.56,2.874.871.871,0,0,0,.707.5c.441,0,.661-.349.872-1.4.165-.826.239-1,.395-1.047a8.577,8.577,0,0,0,.8-.331l.606-.275.872.56a3.171,3.171,0,0,0,1.12.56c.22,0,.468-.2,1.35-1.083s1.083-1.129,1.083-1.35a3.35,3.35,0,0,0-.551-1.129l-.56-.863.349-.817c.22-.514.395-.817.487-.817a10.061,10.061,0,0,0,1-.22c1.221-.3,1.2-.275,1.2-2.075s.018-1.772-1.2-2.075a10.056,10.056,0,0,0-1-.22c-.092,0-.266-.3-.487-.817l-.349-.826.56-.863a3.465,3.465,0,0,0,.551-1.129c0-.211-.2-.459-1.083-1.341s-1.129-1.083-1.341-1.083a3.461,3.461,0,0,0-1.139.56l-.872.56-.606-.275a7.729,7.729,0,0,0-.79-.331c-.156-.046-.23-.22-.395-1.047-.266-1.285-.376-1.4-1.4-1.4H49.8l-.028-7.419-.028-7.419-.34-.7a3.529,3.529,0,0,0-1.8-1.754l-.615-.294-8.769-.018C33.113-495.723,29.3-495.686,29.092-495.641Zm17.7,1.478a2.727,2.727,0,0,1,1.414,1.414c.165.551.165,37.535,0,38.086a2.727,2.727,0,0,1-1.414,1.414c-.542.156-16.977.156-17.519,0a2.727,2.727,0,0,1-1.414-1.414c-.165-.551-.165-37.535,0-38.086a2.927,2.927,0,0,1,1.359-1.4C29.707-494.3,46.28-494.309,46.794-494.162Z" transform="translate(0 0)"/>
      <path id="Path_146" data-name="Path 146" d="M224.23-463.77a.716.716,0,0,0-.23.5.716.716,0,0,0,.23.505l.22.23h4.976l.22-.23a.716.716,0,0,0,.23-.505.716.716,0,0,0-.23-.5l-.22-.23H224.45Z" transform="translate(-188.903 -28.803)"/>
      <path id="Path_147" data-name="Path 147" d="M177.68-294.32c-1.524,1.524-1.68,1.708-1.68,1.992s.156.468,1.68,1.992c1.487,1.5,1.708,1.68,1.974,1.68a.767.767,0,0,0,.753-.744c0-.257-.165-.468-1.3-1.616l-1.3-1.313,1.3-1.313c1.139-1.148,1.3-1.359,1.3-1.616a.767.767,0,0,0-.753-.744C179.388-296,179.168-295.816,177.68-294.32Z" transform="translate(-145.311 -181.378)"/>
      <path id="Path_148" data-name="Path 148" d="M241.754-295.643c-.165.129-.358.753-.973,3.232-.432,1.689-.78,3.168-.78,3.287a.811.811,0,0,0,.716.661c.578,0,.615-.092,1.442-3.4.432-1.689.78-3.168.78-3.287A.749.749,0,0,0,241.754-295.643Z" transform="translate(-203.434 -181.57)"/>
      <path id="Path_149" data-name="Path 149" d="M288.23-295.77a.7.7,0,0,0-.23.514c0,.257.165.468,1.3,1.616l1.3,1.313-1.3,1.313c-1.138,1.148-1.3,1.359-1.3,1.616a.767.767,0,0,0,.753.744c.266,0,.487-.184,1.974-1.68,1.524-1.524,1.68-1.708,1.68-1.992s-.156-.468-1.68-1.992c-1.487-1.5-1.708-1.68-1.974-1.68A.724.724,0,0,0,288.23-295.77Z" transform="translate(-247.027 -181.378)"/>
      <path id="Path_150" data-name="Path 150" d="M416.167-431.77a.758.758,0,0,0,.386,1.295c.248.046.34.009.578-.22a.814.814,0,0,0,.275-.569.775.775,0,0,0-.735-.735A.716.716,0,0,0,416.167-431.77Z" transform="translate(-363.212 -57.865)"/>
      <path id="Path_151" data-name="Path 151" d="M416.167-399.77a.758.758,0,0,0,.386,1.295c.248.046.34.009.578-.22a.814.814,0,0,0,.275-.569.775.775,0,0,0-.735-.735A.716.716,0,0,0,416.167-399.77Z" transform="translate(-363.212 -86.927)"/>
      <path id="Path_152" data-name="Path 152" d="M416.167-367.77a.758.758,0,0,0,.386,1.295c.248.046.34.009.578-.22a.814.814,0,0,0,.275-.569.775.775,0,0,0-.735-.735A.716.716,0,0,0,416.167-367.77Z" transform="translate(-363.212 -115.989)"/>
      <path id="Path_153" data-name="Path 153" d="M80.546-161.469a.8.8,0,0,0-.285,1.267.694.694,0,0,0,1.12-.174.64.64,0,0,0-.064-.854A.66.66,0,0,0,80.546-161.469Z" transform="translate(-58.175 -303.514)"/>
      <path id="Path_154" data-name="Path 154" d="M80.546-129.469a.8.8,0,0,0-.285,1.267.694.694,0,0,0,1.12-.174.64.64,0,0,0-.064-.854A.66.66,0,0,0,80.546-129.469Z" transform="translate(-58.175 -332.576)"/>
      <path id="Path_155" data-name="Path 155" d="M80.546-97.469a.8.8,0,0,0-.285,1.267.694.694,0,0,0,1.12-.174.64.64,0,0,0-.064-.854A.66.66,0,0,0,80.546-97.469Z" transform="translate(-58.175 -361.637)"/>
    </g>
  </g>
</svg>
