<svg xmlns="http://www.w3.org/2000/svg" width="63" height="50" viewBox="0 0 63 50">
  <g id="Group_104" data-name="Group 104" transform="translate(-1834 -2513)">
    <circle id="Ellipse_9" data-name="Ellipse 9" cx="15" cy="15" r="15" transform="translate(1867 2513)" fill="#ffd000"/>
    <g id="web-development-_2_" transform="translate(1834.2 2958.888)">
      <path id="Path_133" data-name="Path 133" d="M47.006-439.77a5.684,5.684,0,0,0-3.461,2.946l-.383.814-.036,12c-.024,11.917-.024,12.012.216,12.252a.9.9,0,0,0,1.305-.072c.252-.323.252-.371.252-11.9,0-13.186-.072-12.288,1.006-13.366,1.114-1.1-1.006-1.006,22.707-1.006s21.594-.1,22.707,1.006c.814.826,1.006,1.413,1.006,3.09,0,1.222.012,1.317.3,1.593a.818.818,0,0,0,1.246.012c.263-.287.275-.359.228-1.964a4.145,4.145,0,0,0-.491-2.563,5.313,5.313,0,0,0-3.461-2.85C89.474-439.925,47.665-439.925,47.006-439.77Z" transform="translate(-38.128)"/>
      <path id="Path_134" data-name="Path 134" d="M79.2-403.784c-.192.2-.2,1.353-.2,14.06,0,13.246.012,13.845.216,14.024s1.832.2,21.007.2c19.977,0,20.791-.012,20.971-.216s.2-1.353.2-14.06c0-13.246-.012-13.845-.216-14.024s-1.832-.2-21.007-.2C80.2-404,79.383-403.988,79.2-403.784ZM99.36-396.79c0,4.862.024,5.425.2,5.629a1.015,1.015,0,0,0,1.305-.036c.216-.24.228-.539.263-5.629l.036-5.377H119.6v24.911H101.168l-.036-5.377c-.036-5.09-.048-5.389-.263-5.629a1.043,1.043,0,0,0-1.293-.048c-.2.18-.216.515-.216,5.629v5.425H80.8V-402.2H99.36Z" transform="translate(-69.715 -31.59)"/>
      <path id="Path_135" data-name="Path 135" d="M278.24-374.76c-.228.228-.24.4-.24,2.874s.012,2.647.24,2.874.4.24,2.994.24,2.767-.012,2.994-.24.24-.4.24-2.874-.012-2.647-.24-2.874-.4-.24-2.994-.24S278.467-374.988,278.24-374.76Zm4.431,2.874v1.317H279.8V-373.2h2.874Z" transform="translate(-244.882 -57.117)"/>
      <path id="Path_136" data-name="Path 136" d="M350.24-374.76c-.228.228-.24.4-.24,2.874s.012,2.647.24,2.874.4.24,2.994.24,2.767-.012,2.994-.24.24-.4.24-2.874-.012-2.647-.24-2.874-.4-.24-2.994-.24S350.467-374.988,350.24-374.76Zm4.431,2.874v1.317H351.8V-373.2h2.874Z" transform="translate(-308.258 -57.117)"/>
      <path id="Path_137" data-name="Path 137" d="M152.916-329.459c-.228.2-.8,1.5-2.12,4.8-.982,2.491-1.8,4.647-1.8,4.8a.951.951,0,0,0,.731.85c.647.156.826-.18,2.743-5.006.982-2.491,1.8-4.683,1.8-4.862a.845.845,0,0,0-.731-.79A.614.614,0,0,0,152.916-329.459Z" transform="translate(-131.331 -97.005)"/>
      <path id="Path_138" data-name="Path 138" d="M111.351-316.657a20.5,20.5,0,0,0-1.174,1.808c-.707,1.186-.91,1.6-.85,1.82a26.081,26.081,0,0,0,2.024,3.5.8.8,0,0,0,1.138.06c.5-.407.443-.707-.4-2.168a13.3,13.3,0,0,1-.778-1.5,11.582,11.582,0,0,1,.79-1.449c.587-1.006.755-1.389.707-1.617A.872.872,0,0,0,111.351-316.657Z" transform="translate(-96.401 -108.25)"/>
      <path id="Path_139" data-name="Path 139" d="M203.842-316.771c-.5.431-.443.719.383,2.132a11.581,11.581,0,0,1,.79,1.449,13.293,13.293,0,0,1-.778,1.5c-.838,1.461-.9,1.761-.4,2.168a.8.8,0,0,0,1.138-.06,22.547,22.547,0,0,0,2.072-3.617,23.738,23.738,0,0,0-2.072-3.509A.822.822,0,0,0,203.842-316.771Z" transform="translate(-179.322 -108.195)"/>
      <path id="Path_140" data-name="Path 140" d="M278.24-306.76c-.228.228-.24.4-.24,2.862,0,2.407.024,2.647.228,2.9l.228.287h14.18l.228-.287c.2-.251.228-.491.228-2.9,0-2.467-.012-2.635-.24-2.862s-.4-.24-7.306-.24S278.479-307,278.24-306.76Zm13.054,2.934v1.377H279.8V-305.2h11.5Z" transform="translate(-244.882 -116.973)"/>
      <path id="Path_141" data-name="Path 141" d="M278.259-238.725a.843.843,0,0,0,.048,1.27c.311.251.419.251,7.234.251s6.922,0,7.234-.251a.833.833,0,0,0,.036-1.281l-.275-.263H278.51Z" transform="translate(-244.877 -176.829)"/>
      <path id="Path_142" data-name="Path 142" d="M278.518-208.675a.9.9,0,0,0-.359,1.473c.24.24.4.24,7.306.24s7.066,0,7.306-.24a.952.952,0,0,0-.012-1.27c-.24-.216-.551-.228-7.162-.251C281.8-208.735,278.614-208.711,278.518-208.675Z" transform="translate(-244.801 -203.477)"/>
      <path id="Path_143" data-name="Path 143" d="M54.5-355.7l-.3.287v24.683H45.526c-9.845,0-9.1-.084-9.306,1.006a1.7,1.7,0,0,1-1.066,1.437,50.706,50.706,0,0,1-9.342,0,1.7,1.7,0,0,1-1.066-1.437c-.2-1.09.539-1.006-9.306-1.006H6.77v-1.916a10.2,10.2,0,0,0-.132-2.2.885.885,0,0,0-1.533-.084,10.1,10.1,0,0,0-.132,2.216v1.988H.411l-.3.3-.311.311.048,2.24c.036,2,.072,2.311.323,2.934a5.241,5.241,0,0,0,2.383,2.5l.8.4H57.61l.8-.4a5.187,5.187,0,0,0,2.383-2.5,7.638,7.638,0,0,0,.323-2.934l.048-2.24-.311-.311-.3-.3H55.993v-24.683l-.3-.287a.986.986,0,0,0-.6-.3A.986.986,0,0,0,54.5-355.7ZM23.346-328.287a3.635,3.635,0,0,0,1.737,1.677c.527.24.719.251,5.4.251h4.85l.683-.335a3.455,3.455,0,0,0,1.677-1.725l.228-.515h21.45l-.048,1.521a4.141,4.141,0,0,1-.3,2.012,2.978,2.978,0,0,1-1.473,1.365c-.539.24-.635.252-27.067.252s-26.528-.012-27.067-.252A2.978,2.978,0,0,1,1.944-325.4a4.141,4.141,0,0,1-.3-2.012L1.6-328.933H23.034Z" transform="translate(0 -73.841)"/>
    </g>
  </g>
</svg>
