<svg xmlns="http://www.w3.org/2000/svg" width="35.923" height="52" viewBox="0 0 35.923 52">
  <g id="Group_108" data-name="Group 108" transform="translate(-1973.077 -2594)">
    <circle id="Ellipse_11" data-name="Ellipse 11" cx="15" cy="15" r="15" transform="translate(1979 2594)" fill="#ffd000"/>
    <g id="ux-design" transform="translate(1911.177 3113.723)">
      <path id="Path_156" data-name="Path 156" d="M64.575-511.626a3.588,3.588,0,0,0-2.572,2.7c-.138.645-.138,37.749,0,38.394a3.605,3.605,0,0,0,2.718,2.735c.275.06,3.991.086,11.035.069l10.622-.026.576-.275A3.567,3.567,0,0,0,89-470.678c.043-.284.086-1.9.086-3.6v-3.07h2.176c2.52,0,2.778-.052,3.38-.654a2.082,2.082,0,0,0-.129-3.07c-.568-.507-.946-.576-3.337-.576h-2.09v-.852l2.305-.026c2.546-.026,2.658-.052,3.242-.628a2.124,2.124,0,0,0-.49-3.363l-.456-.249-5.066-.026c-5.633-.026-5.642-.026-6.3.533a2.319,2.319,0,0,0-.542.74l-.189.43H78.861c-2.907,0-3.242.034-3.784.421a2.213,2.213,0,0,0-.5.593c-.241.4-.241.413-.267,2.271l-.026,1.875h-3.26l-.163-.327a2.459,2.459,0,0,0-1.178-1.058,6.8,6.8,0,0,0-1.755-.12c-1.307,0-1.454.017-1.823.2a2.088,2.088,0,0,0-1.2,1.909,2.108,2.108,0,0,0,1.961,2.124l.464.052v1.049c0,1.256.12,1.694.619,2.193s.937.6,2.529.6a6.935,6.935,0,0,0,1.531-.095.636.636,0,0,0,.06-1.1,6.9,6.9,0,0,0-1.557-.095H69.116l-.249-.249c-.249-.249-.249-.258-.249-1.29v-1.041h.37a2.465,2.465,0,0,0,1.918-1.264l.052-.2,5.393.009h5.384l.258.361a2.182,2.182,0,0,0,1.152.834,23.843,23.843,0,0,0,2.486.086h2.176l-.026,3.337-.026,3.328-.232.439a2.643,2.643,0,0,1-.559.714c-.679.559-.043.533-11.645.507l-10.527-.026-.353-.189a2.486,2.486,0,0,1-1.109-1.35c-.112-.37-.129-2.881-.129-19.145,0-20.728-.043-19.231.568-19.936.576-.679.8-.74,2.589-.774l1.565-.034.052.206c.017.112.12.55.206.989a6.131,6.131,0,0,0,.353,1.144,3.274,3.274,0,0,0,1.35,1.342l.5.249H80.529l.576-.284c1.006-.49,1.436-1.144,1.729-2.623l.2-.963,1.411-.026c1.583-.026,1.97.052,2.52.507a2.643,2.643,0,0,1,.559.714l.232.439.026,9.865.017,9.865.232.172a.553.553,0,0,0,.929-.172c.112-.206.129-1.565.129-9.727,0-5.8-.034-9.684-.086-10a3.567,3.567,0,0,0-2.047-2.649l-.576-.275-10.708-.017C67.4-511.73,64.876-511.713,64.575-511.626Zm17.081,1.488c-.241,1.385-.482,1.866-1.1,2.167-.378.181-.456.181-5.057.181s-4.679,0-5.057-.181c-.645-.318-.912-.817-1.092-2.081l-.06-.4H81.707Zm12.032,24.891a1.092,1.092,0,0,1,.267.525c.043.258.009.353-.206.593l-.258.292-4.937.026c-5.169.026-5.272.017-5.53-.361a1.057,1.057,0,0,1-.043-.912c.232-.43.206-.43,5.522-.4l4.971.017Zm-11.817,1.643a2.145,2.145,0,0,0,1.084.929,7.52,7.52,0,0,0,2.649.172H87.8v.86H85.733a22.325,22.325,0,0,0-2.494.095,2.047,2.047,0,0,0-1.411,1.135l-.241.49h-6V-483.3l.249-.249.249-.249h5.685Zm11.809,3.5a.842.842,0,0,1-.206,1.385c-.146.06-1.815.086-5.195.069l-4.971-.026-.206-.241a.965.965,0,0,1-.112-1.015c.215-.413.31-.421,5.556-.4l4.911.017Zm-24.159.189a1.218,1.218,0,0,1,.275.533c.043.275.009.353-.258.619l-.3.3H67.989c-1.2,0-1.256-.009-1.505-.215a.771.771,0,0,1-.224-.972c.189-.456.49-.542,1.858-.516C69.262-480.139,69.314-480.131,69.52-479.916Z" transform="translate(0 0)"/>
      <path id="Path_157" data-name="Path 157" d="M197.982-487.744a.612.612,0,0,0-.034.937c.155.138.378.155,1.72.155,1.428,0,1.548-.009,1.712-.172a.684.684,0,0,0-.009-.912c-.163-.146-.353-.163-1.669-.189C198.24-487.95,198.214-487.95,197.982-487.744Z" transform="translate(-124.161 -21.741)"/>
      <path id="Path_158" data-name="Path 158" d="M323.187-479.754a.584.584,0,0,0,.215.989.625.625,0,0,0,.757-.267A.61.61,0,0,0,323.187-479.754Z" transform="translate(-238.642 -29.042)"/>
      <path id="Path_159" data-name="Path 159" d="M226.523-405.785a.462.462,0,0,0-.112.671c.052.1.851,1.187,1.772,2.4l1.677,2.21-1.952,2.589c-2.064,2.744-2.15,2.89-1.772,3.268a.69.69,0,0,0,.731.12c.077-.034.955-1.135,1.952-2.451s1.832-2.4,1.866-2.4.826,1.032,1.772,2.3c2.107,2.8,2.09,2.778,2.468,2.778a.592.592,0,0,0,.559-.86c-.06-.12-.989-1.367-2.064-2.787l-1.952-2.563,1.72-2.271a21.541,21.541,0,0,0,1.772-2.52.647.647,0,0,0-.636-.7c-.318,0-.37.06-2.167,2.434-1.2,1.6-1.505,1.944-1.591,1.849-.06-.06-.714-.929-1.462-1.918s-1.479-1.935-1.626-2.09A.6.6,0,0,0,226.523-405.785Z" transform="translate(-149.95 -96.63)"/>
      <path id="Path_160" data-name="Path 160" d="M102.089-404.748l-.189.2.026,4.12c.026,4.085.026,4.12.224,4.541a4.423,4.423,0,0,0,4.868,2.425,4.606,4.606,0,0,0,3-2.279l.275-.568.026-4.12.026-4.12-.189-.206a.617.617,0,0,0-.86-.034l-.206.163-.043,4.034c-.052,4.593-.009,4.343-.826,5.092a2.938,2.938,0,0,1-2.142.817,2.088,2.088,0,0,1-1.178-.224,3.3,3.3,0,0,1-1.5-1.4l-.206-.43v-7.792l-.215-.206A.588.588,0,0,0,102.089-404.748Z" transform="translate(-36.56 -97.589)"/>
      <path id="Path_161" data-name="Path 161" d="M205.5-96.819a2.249,2.249,0,0,0-1.178,2.185,2.462,2.462,0,0,0,1.023,1.548l.421.258,3.191.026a25.208,25.208,0,0,0,3.561-.077,2.563,2.563,0,0,0,1.316-1.152,2.164,2.164,0,0,0-.989-2.761C212.4-97,212.393-97,209.134-97,205.977-97,205.857-96.991,205.5-96.819Zm6.984,1.333a.8.8,0,0,1-.026,1.161l-.249.249h-2.976a23.3,23.3,0,0,1-3.182-.095.951.951,0,0,1-.439-.912,1.118,1.118,0,0,1,.258-.421l.206-.206h6.175Z" transform="translate(-130.153 -379.054)"/>
    </g>
  </g>
</svg>
