<svg xmlns="http://www.w3.org/2000/svg" width="59.909" height="44" viewBox="0 0 59.909 44">
  <g id="Group_513" data-name="Group 513" transform="translate(-1060.153 -2730)">
    <circle id="Ellipse_14" data-name="Ellipse 14" cx="15" cy="15" r="15" transform="translate(1080.445 2732)" fill="#ffd000"/>
    <g id="team" transform="translate(1060.153 3173.933)">
      <path id="Path_1151" data-name="Path 1151" d="M25.625-443.859a9.945,9.945,0,0,0-1.041.281,8.334,8.334,0,0,0-5.464,5.429,8.466,8.466,0,0,0-.374,3.019,11.954,11.954,0,0,0,.573,4.891,5.744,5.744,0,0,1,.339,2.422,10.843,10.843,0,0,0,3.148,8.039l.6.573v2.855l-.878.936a6.691,6.691,0,0,0-.983,1.217c-.094.234-.456.41-2.492,1.135-1.3.468-2.726,1.018-3.171,1.217-.69.3-.831.339-1.1.211l-.316-.14.737-.421a7.491,7.491,0,0,0,2.41-2.223c.2-.41.2-.456-.047-1.194a16.865,16.865,0,0,1-.655-4.926c-.187-3.194-.3-3.8-1.018-5.265a7.821,7.821,0,0,0-3.265-3.311,7.334,7.334,0,0,0-9.162,2.176c-1.264,1.79-1.556,2.832-1.72,6.225a19.553,19.553,0,0,1-.632,5.055,1.471,1.471,0,0,0,.281,1.755,6.354,6.354,0,0,0,2.153,1.743l.7.374-1.4.7a5.9,5.9,0,0,0-1.942,1.3c-.878.983-.9,1.135-.9,5.535,0,3.686.012,3.85.234,4.072a1.071,1.071,0,0,0,1.24.07c.211-.164.222-.374.281-3.9.059-4.072.07-4.13.8-4.727a13.9,13.9,0,0,1,1.743-.971l1.4-.69.831.7a3.809,3.809,0,0,0,3.007,1.182,4.1,4.1,0,0,0,2.68-1.275l.667-.608.421.2c.316.152.386.246.316.4-.5,1.158-.5,1.229-.515,5.359,0,3.85.012,3.99.234,4.236a1.019,1.019,0,0,0,1.357.012c.211-.234.222-.527.281-4.247l.059-3.99.328-.562a3.08,3.08,0,0,1,.784-.854c.374-.257,5.932-2.375,6.225-2.387a17.222,17.222,0,0,1,1.275,1.779c1.334,1.989,1.591,2.27,2.235,2.434.819.222,1.229.059,2.235-.913l.9-.878v4.622c0,4.5.012,4.634.246,4.938a.934.934,0,0,0,1.369.035c.257-.269.257-.3.257-4.938v-4.657l.854.819c1.135,1.112,1.79,1.287,2.808.772a9.925,9.925,0,0,0,1.6-2.083c.714-1.065,1.322-1.931,1.357-1.931.164,0,5.593,2.013,5.991,2.211a2.4,2.4,0,0,1,1.182,1.3c.222.491.246.761.246,4.166,0,3.744.059,4.271.468,4.493a1.123,1.123,0,0,0,1.17-.117c.222-.222.234-.386.234-4.271,0-3.768-.012-4.072-.234-4.669a7.515,7.515,0,0,0-.585-1.147l-.339-.5.433-.152.421-.14,1.088,1.077,1.076,1.076.035,4.236c.035,3.978.047,4.247.257,4.482a1.06,1.06,0,0,0,1.357.012c.222-.222.234-.386.234-4.411v-4.189l1.123-1.123,1.112-1.112,2.106.6c2.211.644,2.586.831,2.972,1.474.222.374.234.667.293,4.528.059,3.92.07,4.142.281,4.306a1.071,1.071,0,0,0,1.24-.07c.222-.222.234-.386.234-4.411,0-2.492-.047-4.364-.117-4.622a4.2,4.2,0,0,0-1.416-1.931,9.375,9.375,0,0,0-2.633-.983,11.276,11.276,0,0,1-2.235-.784,1.383,1.383,0,0,1-.152-.679c0-.456.07-.55.866-1.346a6.167,6.167,0,0,0,1.942-4.926,3.235,3.235,0,0,1,.281-1.825c.6-1.182.655-1.615.655-4.762,0-2.925,0-2.949-.269-3.194s-.3-.257-4.9-.257c-2.586,0-4.9.047-5.254.117a5.715,5.715,0,0,0-2.96,1.65,5.166,5.166,0,0,0-1.521,3.908,3.625,3.625,0,0,0,.421,2.048,5.053,5.053,0,0,1,.491,2.282A6.7,6.7,0,0,0,45.072-415l.8.819v1.357l-1.018.3c-.573.176-1.1.328-1.194.363a18.689,18.689,0,0,1-2.68-.854c-2.094-.761-2.527-.959-2.609-1.194a8.1,8.1,0,0,0-.983-1.229l-.878-.948v-2.7l.655-.632a10.9,10.9,0,0,0,2.75-4.622,10.3,10.3,0,0,0,.3-2.867,7.61,7.61,0,0,1,.351-2.867c.585-1.638.62-2.13.62-7.968,0-5.277-.012-5.441-.234-5.663s-.374-.234-7.629-.222C29.253-443.918,25.789-443.883,25.625-443.859Zm13.667,6.787-.035,5.008-.433,1.229a7.514,7.514,0,0,0-.48,3.335,7.747,7.747,0,0,1-.995,4.446,10.41,10.41,0,0,1-3.183,3.253,8.244,8.244,0,0,1-7.84.246,6.565,6.565,0,0,1-2.176-1.615,6.589,6.589,0,0,1-1.6-2.176,8.771,8.771,0,0,1-1.006-4.622,7,7,0,0,0-.328-2.633,9.7,9.7,0,0,1-.62-4,7.361,7.361,0,0,1,.761-3.943,6.331,6.331,0,0,1,3.744-3.194l.936-.328H39.327Zm-28.726,9.22a5.273,5.273,0,0,1,2.539,1.451,6.334,6.334,0,0,1,1.837,4.353l.07,1.135-.878-.842a9.732,9.732,0,0,0-6.014-2.492l-.971-.07-.959.924a8.628,8.628,0,0,0-1.123,1.264.926.926,0,0,0,.8,1.357c.293,0,.527-.164,1.217-.819l.842-.831.749.117a8.754,8.754,0,0,1,2.738.866,7.278,7.278,0,0,1,2.329,2.2c.211.41.211.445.012,1.088a4.746,4.746,0,0,1-4.411,3.229,4.844,4.844,0,0,1-4.446-3.206,10.416,10.416,0,0,1-.211-1.123c-.082-.6-.164-.819-.41-1.018a.987.987,0,0,0-.491-.269c-.164,0-.176-.152-.117-1.147a11.173,11.173,0,0,1,.257-1.837C4.751-426.705,7.676-428.613,10.566-427.852Zm44.663,2v2.188l-.468,1.088a4.2,4.2,0,0,0-.468,2.41c0,1.942-.374,2.937-1.463,3.943a4.568,4.568,0,0,1-7.372-1.533,7.059,7.059,0,0,1-.527-3.019,3.155,3.155,0,0,0-.351-1.743,3.3,3.3,0,0,1-.468-2.422,3.78,3.78,0,0,1,2.293-2.8c.69-.281.725-.293,4.762-.293h4.06ZM26.4-417.45a11.1,11.1,0,0,0,3.6.655,11.448,11.448,0,0,0,4.435-.995c.187-.082.211-.023.176.655l-.035.737-2.282,1.556a17.059,17.059,0,0,1-2.4,1.509c-.082-.023-1.147-.737-2.375-1.591l-2.247-1.533v-.714C25.274-417.976,25.2-417.953,26.4-417.45ZM4.891-414.794c.667.632.737.737.7,1.112l-.035.41-.831-.41a7.66,7.66,0,0,1-1.346-.866l-.5-.445.2-.7a5.707,5.707,0,0,0,.2-.983c0-.222.105-.117.445.456A7.209,7.209,0,0,0,4.891-414.794Zm10.625-1.1.211.889-.527.48a6.648,6.648,0,0,1-1.287.854l-.749.363-.035-.421c-.035-.374.023-.48.538-.948a6.937,6.937,0,0,0,1.439-1.8,1.93,1.93,0,0,1,.164-.316A6.269,6.269,0,0,1,15.516-415.894Zm12.766,3.826c.117.105-.082.363-.889,1.17l-1.041,1.041-1.3-1.942c-.714-1.077-1.3-1.989-1.3-2.036a1.739,1.739,0,0,1,.374-.468l.363-.374,1.825,1.24C27.322-412.758,28.211-412.138,28.281-412.067Zm7.594-2.188.363.433-1.287,1.942c-.7,1.065-1.311,1.954-1.334,1.989a10.078,10.078,0,0,1-1.1-1.006l-1.053-1.065,1.966-1.357c1.076-.749,1.989-1.357,2.024-1.357S35.676-414.49,35.875-414.256ZM9.361-413.109a9.605,9.605,0,0,0,1.474-.094l.374-.094.047.854c.059.831.047.866-.3,1.24a2,2,0,0,1-3.194.059c-.491-.433-.5-.456-.386-.913a4.826,4.826,0,0,0,.117-.842c0-.363.012-.374.386-.293A10.224,10.224,0,0,0,9.361-413.109Zm40.31,0a9.63,9.63,0,0,0,1.428-.082c.339-.082.374-.059.445.281s.012.433-.889,1.334l-.983.983-.959-.959c-.831-.819-.971-1.018-.971-1.357,0-.386,0-.386.445-.293A10.567,10.567,0,0,0,49.671-413.109Z" transform="translate(0)"/>
      <path id="Path_1152" data-name="Path 1152" d="M194.586-375.726c-2.223.269-2.586.679-2.586,2.914a6.441,6.441,0,0,0,.117,1.568.989.989,0,0,0,1.158.374c.468-.2.6-.573.6-1.814v-1.088l1.322-.14c4.353-.433,8.2.187,9.805,1.6a3.483,3.483,0,0,0,.737.491.882.882,0,0,0,1.24-.889c0-.3-.117-.48-.608-.924a10.393,10.393,0,0,0-3.487-1.755A26.139,26.139,0,0,0,194.586-375.726Z" transform="translate(-169.534 -60.071)"/>
      <path id="Path_1153" data-name="Path 1153" d="M392.9-283.651a.925.925,0,0,0-.339,1.077c.164.515.456.62,1.954.714a14.438,14.438,0,0,1,3.721.632c.866.3,1.006.3,1.392,0a.9.9,0,0,0,0-1.381c-.7-.55-2.82-1.006-5.184-1.123C393.431-283.791,393.044-283.768,392.9-283.651Z" transform="translate(-346.58 -141.428)"/>
      <path id="Path_1154" data-name="Path 1154" d="M464.7-131.547c-.562.234-.585.351-.62,3.335-.047,3.066-.012,3.475.339,3.826a1,1,0,0,0,1.275-.012c.222-.222.234-.386.234-3.44,0-2.878-.023-3.229-.2-3.44A.941.941,0,0,0,464.7-131.547Z" transform="translate(-409.759 -275.782)"/>
      <path id="Path_1155" data-name="Path 1155" d="M32.585-121.578c-.573.222-.585.257-.585,3.1,0,2.516.012,2.68.234,2.9a1,1,0,0,0,1.275.012c.339-.339.386-.784.339-3.265-.035-2.059-.059-2.258-.269-2.469A1.073,1.073,0,0,0,32.585-121.578Z" transform="translate(-28.256 -284.604)"/>
      <path id="Path_1156" data-name="Path 1156" d="M160.6-115.43c-.562.222-.585.374-.6,2.75,0,2.176,0,2.235.269,2.481a.938.938,0,0,0,1.357-.047c.234-.293.246-.468.246-2.457,0-2.059-.012-2.153-.257-2.434A.844.844,0,0,0,160.6-115.43Z" transform="translate(-141.278 -290.003)"/>
      <path id="Path_1157" data-name="Path 1157" d="M336.7-115.5c-.538.269-.6.562-.562,2.843.035,1.907.059,2.153.257,2.375a1.06,1.06,0,0,0,1.357.012c.222-.222.234-.386.234-2.516s-.012-2.293-.234-2.516a.822.822,0,0,0-.339-.234.935.935,0,0,1-.269-.059A.7.7,0,0,0,336.7-115.5Z" transform="translate(-296.799 -289.914)"/>
    </g>
  </g>
</svg>
