<svg xmlns="http://www.w3.org/2000/svg" width="105.686" height="61.143" viewBox="0 0 105.686 61.143">
  <g id="Group_20" data-name="Group 20" transform="translate(-430.046 -1098.962)">
    <g id="a" transform="translate(430.046 1098.962)">
      <path id="Path_58" data-name="Path 58" d="M112.782,36.142a25.718,25.718,0,0,0-6.465.427c-2.277.569-2.379,1.5-2.6,3.192a22.365,22.365,0,0,1-.2,2.826,2.745,2.745,0,0,1-1.2,1.687,5.855,5.855,0,0,1-2.562.752A2.033,2.033,0,0,1,97.474,43.4a19.781,19.781,0,0,1-.854-5.225,131.851,131.851,0,0,1-.468-13.885,9.291,9.291,0,0,1,.813-3.781,2.033,2.033,0,0,1,1.769-1.24,9.108,9.108,0,0,1,3.4.2,1.769,1.769,0,0,1,1.321,1.3,10.693,10.693,0,0,1,.488,2.989c0,.813,0,1.626,0,2.46,0,2.562,1.016,3.415,3.05,3.822a22.363,22.363,0,0,0,9.433.122,4.066,4.066,0,0,0,3.273-3.842c.285-2.277.488-4.554.691-6.851a3.863,3.863,0,0,1,4.066-3.619,4.066,4.066,0,0,1,2.033.752,2.257,2.257,0,0,1,.956,1.4,26.938,26.938,0,0,1,.244,8.844c-.142,1.281-.122,2.562-.2,3.842q-.3,5.55-1.159,11.08a11.913,11.913,0,0,1-.854,2.867c-.752,1.647-1.85,2.033-4.066,1.687-1.281-.264-2.033-1.321-2.033-2.948a23.743,23.743,0,0,0-.163-4.493,2.968,2.968,0,0,0-2.033-2.338A13.215,13.215,0,0,0,112.782,36.142Z" transform="translate(-24.724 14.415)" fill="#191919"/>
      <path id="Path_59" data-name="Path 59" d="M93.447,31.828A14.475,14.475,0,0,0,94.1,37.52a10.163,10.163,0,0,0,.468,1.077,1.809,1.809,0,0,0,3.314,0,17.315,17.315,0,0,0,.813-1.626,3.029,3.029,0,0,1,4.066-2.155,10.674,10.674,0,0,1,2.236.732,2.4,2.4,0,0,1,1.118,2.643,10.165,10.165,0,0,1-9.474,7.461c-4.92.122-8.132-2.379-10.694-6.1a13.194,13.194,0,0,1-2.48-7.116,14.231,14.231,0,0,1,1.139-6.1,18.419,18.419,0,0,1,4.513-7.055,10.267,10.267,0,0,1,8.539-2.3,13.154,13.154,0,0,1,3.07.549,9.819,9.819,0,0,1,5.652,4.635,4.229,4.229,0,0,1-3.8,6.689c-2.663.142-2.948-.447-3.537-2.541a8.718,8.718,0,0,0-.285-1.26c-.346-.793-.671-1.687-1.728-1.728a2.48,2.48,0,0,0-2.318,1.484,11.446,11.446,0,0,0-1.26,4.981C93.406,30.486,93.447,31.157,93.447,31.828Z" transform="translate(-37.815 15.416)" fill="#191919"/>
      <path id="Path_60" data-name="Path 60" d="M65.622,24.291H64.178c-1.891,0-2.033-.142-2.5-2.033a2.663,2.663,0,0,1,2.033-3.72,22.465,22.465,0,0,1,5.428-.915c5.062-.407,10.165-.671,15.207-.63a9.515,9.515,0,0,1,2.379.285c1.667.447,2.155,1.1,2.033,2.44a2.745,2.745,0,0,1-2.806,3.05,34.1,34.1,0,0,0-3.781.407,3.208,3.208,0,0,0-2.48,2.3,15.939,15.939,0,0,0-.712,4.066c-.3,2.806,0,5.611-.244,8.4a33.563,33.563,0,0,1-.569,5.509c-.569,2.338-1.809,2.338-3.9,1.85s-2.3-2.257-2.541-3.883c-.366-2.236-.386-4.513-.529-6.77a33.463,33.463,0,0,0-.834-7.786c-.569-1.931-1.586-2.785-3.517-2.6A8.157,8.157,0,0,1,65.622,24.291Z" transform="translate(-60.552 15.593)" fill="#191919"/>
      <path id="Path_61" data-name="Path 61" d="M75.017,29.6V24.276a13.113,13.113,0,0,1,1.2-5.448,3.781,3.781,0,0,1,3.212-2.155A29.987,29.987,0,0,1,89.594,17.75a2.216,2.216,0,0,1,1.687,2.623c0,1.708-.63,2.2-2.033,2.562a15.674,15.674,0,0,1-3.375.183,2.684,2.684,0,0,0-2.5,4.066,1.159,1.159,0,0,0,1.1.59,13.662,13.662,0,0,1,3.273.163c1.586.488,2.033.956,2.033,2.46a2.562,2.562,0,0,1-2.033,2.7c-1.1.325-2.236.122-3.334.407s-1.321.529-1.423,1.362a6.328,6.328,0,0,1-.224.834c-.3,2.2.366,2.948,2.6,2.948h3.659c1.464,0,2.033.508,2.033,2.033,0,2.358-.834,3.232-3.619,3.354a39.868,39.868,0,0,1-5.611.244,6.1,6.1,0,0,1-4.778-1.769,7.969,7.969,0,0,1-1.484-3.639,48.283,48.283,0,0,1-.549-9.271Z" transform="translate(-46.567 15.201)" fill="#191919"/>
      <path id="Path_62" data-name="Path 62" d="M69.126,9.9,67.56,11.936a5.2,5.2,0,0,1-.407.529c-.508.427-1.1,1-1.748.651s-.468-1.22-.346-1.911a32.853,32.853,0,0,1,5.387-9.779,1.057,1.057,0,0,1,1.464-.285h0a4.412,4.412,0,0,1,2.033,2.033c1.281,2.623,2.5,5.144,3.659,7.664.285.59.712,1.423.183,1.85s-1.3-.2-1.85-.59a4.534,4.534,0,0,1-1.362-1.728c-.447-.834-.895-1.687-1.423-2.5.2,3.558.407,7.075.325,10.612a20.492,20.492,0,0,1-1.138,6.526,5.326,5.326,0,0,1-4.269,3.9c-4.066.671-6.2-.935-6.811-5a55.378,55.378,0,0,1-.163-8.417v-.427a4.473,4.473,0,0,1,3.192-.407c.813,0,.874.834.813,1.464A42.125,42.125,0,0,0,65.06,21.9a8.275,8.275,0,0,0,.63,3.131c.264.569.59,1.1,1.26,1.118s.956-.651,1.138-1.2a21.468,21.468,0,0,0,.651-4.818c.163-1.708,0-3.415.224-5.1s.264-3.375.366-5.083Z" transform="translate(-61.006 -0.962)" fill="#191919"/>
      <path id="Path_63" data-name="Path 63" d="M110.261,7.125a15.593,15.593,0,0,1,4.859.325,8.966,8.966,0,0,1,6.506,5.814,6.241,6.241,0,0,1-3.314,7.929,22.546,22.546,0,0,1-8.986,2.175,3.781,3.781,0,0,1-4.473-3.639,34.663,34.663,0,0,1-.447-9.941c.244-1.931.854-2.5,2.765-2.724a22.363,22.363,0,0,1,3.09.061ZM109.1,14.566a7.44,7.44,0,0,0,.529,3.456,2.826,2.826,0,0,0,3.72,1.687,9.067,9.067,0,0,0,2.623-1.4,3.639,3.639,0,0,0,1.586-3.456c-.122-2.2-1.708-3.05-3.415-3.781-2.948-1.281-4.9,0-5.042,3.151v.346Z" transform="translate(-16.349 5.314)" fill="#191919"/>
      <path id="Path_64" data-name="Path 64" d="M92.6,15.492a8.681,8.681,0,0,0,.3,3.07c.183.59.366,1.26,1.159,1.321s1.138-.508,1.423-1.159c.752-1.626,1.321-1.891,2.928-1.443s1.769,1.22,1.179,2.46a5.916,5.916,0,0,1-4.818,3.436c-4.656.651-8.925-5.367-7.4-9.738a19.455,19.455,0,0,1,1.586-3.6c2.236-3.9,8.518-3.436,10.714,0a2.379,2.379,0,0,1,.183,2.887,2.988,2.988,0,0,1-3.111,1,1.159,1.159,0,0,1-.813-.834c-.122-.346-.183-.712-.285-1.057s-.346-1-.976-1.077a1.423,1.423,0,0,0-1.464.793,6.465,6.465,0,0,0-.691,3.009A4.846,4.846,0,0,1,92.6,15.492Z" transform="translate(-34.087 5.363)" fill="#191919"/>
      <path id="Path_65" data-name="Path 65" d="M79.433,15.346a13.724,13.724,0,0,0,.325,3.151c.2.651.366,1.342,1.2,1.423s1.138-.549,1.423-1.179c.732-1.565,1.26-1.83,2.826-1.443s1.83,1.26,1.22,2.6a6.1,6.1,0,0,1-8.132,2.765,5.754,5.754,0,0,1-1.2-.773c-4.961-4.31-3.619-9.7,0-13.357,2.46-2.541,7.725-1.647,9.6,1.342a2.541,2.541,0,0,1,0,3.009,3.253,3.253,0,0,1-3.09.752c-.671-.264-.732-.895-.874-1.443s-.3-1.443-1.22-1.484-1.281.61-1.565,1.321a4.838,4.838,0,0,0-.3,1.057C79.534,13.9,79.494,14.716,79.433,15.346Z" transform="translate(-47.73 5.326)" fill="#191919"/>
      <path id="Path_66" data-name="Path 66" d="M71.8,7.25a13.011,13.011,0,0,1,3.436.264,5.164,5.164,0,0,1,4.269,5.652,5.428,5.428,0,0,1-4.778,5.184c-1.911.346-1.911.346-1.911,2.318,0,1.037.122,2.033-1.3,2.44s-2.257,0-2.724-1.565a28.2,28.2,0,0,1-.651-5.367c-.163-2.033-.285-3.924-.285-5.875,0-2.582.468-3.029,3.05-3.05Zm.854,5.611a8.132,8.132,0,0,0,.346,2.7c.3.834.793.915,1.382.285a4.269,4.269,0,0,0,0-4.757,1.057,1.057,0,0,0-.935-.508c-.427,0-.549.488-.61.834s-.183,1.159-.224,1.423Z" transform="translate(-53.926 5.513)" fill="#191919"/>
      <path id="Path_67" data-name="Path 67" d="M88.421,17l-.488.183c-3.517,1.586-6.1.183-6.79-3.639a14.231,14.231,0,0,1,0-4.534A1.606,1.606,0,0,1,82.83,7.461h.244c2.724-.163,3.009.163,2.46,2.806a9.719,9.719,0,0,0-.427,2.968c0,.63,0,1.342.793,1.545a1.626,1.626,0,0,0,1.748-.671,6.79,6.79,0,0,0,1.525-3.883V9.108c0-1.606.224-1.83,1.484-2.033s2.033.2,2.155,1.728a28.037,28.037,0,0,1-.244,6.648,15.674,15.674,0,0,1-1.22,5.266,4.879,4.879,0,0,1-6.567,2.033,5.062,5.062,0,0,1-.61-.386c-.712-.569-.732-1.362-.163-2.4s.976-.346,1.5-.142A1.748,1.748,0,0,0,88.1,18.744,3.924,3.924,0,0,0,88.421,17Z" transform="translate(-40.393 5.303)" fill="#191919"/>
      <path id="Path_68" data-name="Path 68" d="M103.409,22.432h-1.3a2.684,2.684,0,0,1-2.724-2.175,13.56,13.56,0,0,1-.488-3.842,37.491,37.491,0,0,1,.264-6.77c.346-2.033,1.179-2.724,3.151-2.7a18.927,18.927,0,0,1,4.391.529,1.443,1.443,0,0,1,1.281,1.748c-.122,1-.773,1.24-1.647,1.24a12.869,12.869,0,0,0-1.545.1c-1.2.163-1.5.569-1.4,1.769a.935.935,0,0,0,.854,1h.2a11.345,11.345,0,0,1,1.443,0,1.22,1.22,0,0,1,1.26,1.159,1.342,1.342,0,0,1-.956,1.565,11.364,11.364,0,0,1-1.85.325c-1.24,0-1.159.976-1.22,1.85s.549,1.22,1.321,1.24,1.26,0,1.891,0,1.423.142,1.464,1.1a1.443,1.443,0,0,1-1.139,1.687h0a12.463,12.463,0,0,1-3.253.183Z" transform="translate(-21.917 5.214)" fill="#191919"/>
      <path id="Path_69" data-name="Path 69" d="M94.23,14.413a23.421,23.421,0,0,1,.325-5.469c.325-1.464,1.037-1.891,2.6-1.728s1.85.712,1.87,2.155c0,1.789,0,3.558-.122,5.326v1.22c0,2.033.366,2.338,2.44,2.033,1.626-.264,2.2.488,1.606,2.033a2.887,2.887,0,0,1-1.078,1.382,7.339,7.339,0,0,1-4.859,1.179,2.358,2.358,0,0,1-2.175-1.911,36.107,36.107,0,0,1-.61-6.221Z" transform="translate(-26.726 5.466)" fill="#191919"/>
    </g>
  </g>
</svg>
