<svg xmlns="http://www.w3.org/2000/svg" width="216.963" height="59.945" viewBox="0 0 216.963 59.945">
  <g id="Group_570" data-name="Group 570" transform="translate(9173 567.508)">
    <g id="Artboard_2" data-name="Artboard 2" transform="translate(-9173 -567.508)">
      <path id="Path_16" data-name="Path 16" d="M44.649,8.3A23.241,23.241,0,0,1,57.8,3.056c15.3-1.22,30.569,11.21,34.111,27.766q.282,1.322.448,2.621C87.629,19.844,70.3,9.564,59.024,13.465a12.931,12.931,0,0,0-4.358,2.509,12.048,12.048,0,0,0-2.978,3.962c-4.334,9.284,3.327,23.549,15.566,25.877,3.578,7.738-1.718,13.837-10.486,11.514-4.893-1.3-11.467-3.915-16.994-12.985a35.708,35.708,0,0,1-3.292-9.092c-1.829-8.553-.17-16.539,3.976-22.422A23.242,23.242,0,0,1,44.649,8.3Z" transform="translate(-21.697 -2.97)" fill="#1a1a1a"/>
      <path id="Path_17" data-name="Path 17" d="M117.2,29.725q.282,1.27.448,2.518c-2.277-6.284-7.469-11.834-13.5-15.479A29.257,29.257,0,0,0,81.52,3.219c.519-.071,1.046-.13,1.578-.17C98.4,1.88,113.667,13.821,117.2,29.725Z" transform="translate(-46.998 -2.97)" fill="#080808" opacity="0.27"/>
      <path id="Path_18" data-name="Path 18" d="M62.591,84.39a20.215,20.215,0,0,0,9.647,4.746c3.578,7.433-1.718,13.3-10.486,11.06-4.893-1.247-11.467-3.761-16.994-12.474C50.444,92.928,63.512,94.914,62.591,84.39Z" transform="translate(-26.679 -45.812)" fill="#01052d" opacity="0"/>
      <path id="Path_19" data-name="Path 19" d="M46.114,20.49c3.909.291,9.32,2.911,12.756,4.767a11.552,11.552,0,0,0-2.853,3.7,12.209,12.209,0,0,0-1.167,4.324c-4.495-5.7-8.846-8.229-11.275-9.3a21.987,21.987,0,0,1,1.235-1.869C45.248,21.515,45.656,21.009,46.114,20.49Z" transform="translate(-26.021 -12.653)" fill="#080808" opacity="0.25"/>
      <path id="Path_20" data-name="Path 20" d="M69.21,92.426a19.332,19.332,0,0,0,3.027.827c3.578,7.433-1.718,13.3-10.486,11.06-4.889-1.247-11.463-3.76-16.991-12.473C52.586,100.856,70.382,106.558,69.21,92.426Z" transform="translate(-26.679 -49.931)" fill="#5e56f4" opacity="0"/>
      <path id="Path_21" data-name="Path 21" d="M68.8,51.159c-1.6,22.269-35.179,16.915-46.368-4.4,10.913,15.215,29.311,16.451,27.349-1.44-.9-8.168-6.594-16.126-15.458-22.9a78.88,78.88,0,0,0-11.208-7.109A107.428,107.428,0,0,0,4.33,7.66a108.184,108.184,0,0,1,22.943,3.135C44.092,15.089,70.332,29.821,68.8,51.159Z" transform="translate(-4.33 -5.561)" fill="#080808"/>
      <path id="Path_22" data-name="Path 22" d="M60.123,28.608A77.724,77.724,0,0,0,32.816,15.576,104.028,104.028,0,0,0,19.43,13.237,113.635,113.635,0,0,0,4.35,7.66a112.135,112.135,0,0,1,22.943,3.019C37.543,13.179,51.3,19.44,60.123,28.608Z" transform="translate(-4.341 -5.561)" fill="#080808" opacity="0.7"/>
      <path id="Path_23" data-name="Path 23" d="M50.5,14.41a77.075,77.075,0,0,1,14.083,5.062,13.014,13.014,0,0,0-4.066,2.317A11.628,11.628,0,0,0,57.54,25.6a79.366,79.366,0,0,0-11.208-6.843A22.692,22.692,0,0,1,50.5,14.41Z" transform="translate(-27.546 -9.291)" fill="#080808" opacity="0.15"/>
      <path id="Path_24" data-name="Path 24" d="M69.075,89.04c9.723.921,18.149-3.2,18.932-13.676a22.665,22.665,0,0,0-.251-5.474,24.045,24.045,0,0,1,3.413,14.043c-1.6,21.431-35.179,16.283-46.368-4.24C52.4,89.89,63.619,93.562,69.075,89.04Z" transform="translate(-26.701 -37.797)" fill="#01052d" opacity="0.05"/>
      <path id="Path_25" data-name="Path 25" d="M34.652,22.018C41.861,27.572,49.267,35.7,50.328,45.43a17.963,17.963,0,0,1-.59,7.6A9.052,9.052,0,0,1,46.386,57.7c-3.459,2.4-8.05,1.756-11.713.248a28.449,28.449,0,0,1-12.24-10.983c10.913,15.286,29.311,16.529,27.349-1.447-.9-8.23-6.594-16.225-15.458-23.025a78.829,78.829,0,0,0-11.208-7.141A107.141,107.141,0,0,0,4.33,7.66a89.577,89.577,0,0,1,19.034,7.161,79.614,79.614,0,0,1,11.288,7.2Z" transform="translate(-4.33 -5.561)" fill="#6d6d6d" opacity="0.3"/>
    </g>
    <path id="Path_8153" data-name="Path 8153" d="M11.817-42.649c-5.507,0-9.461,3.986-9.461,10.252,0,6.358,4.016,10.252,9.979,10.252a9.364,9.364,0,0,0,7.819-3.92L17.6-28.742a6.441,6.441,0,0,1-5.141,2.856c-2.981,0-5.75-1.886-5.75-6.511,0-4.076,2.282-6.511,5.172-6.511a4.1,4.1,0,0,1,3.015,1.274,4.1,4.1,0,0,1,1.121,3.076L20-35.166C20-38.387,17.841-42.649,11.817-42.649ZM29.34-36.9c-4.563,0-7.576,3.042-7.576,7.363s3.016,7.364,7.577,7.364c4.533,0,7.544-3.042,7.544-7.363S33.874-36.9,29.341-36.9Zm0,11.317c-2.069,0-3.351-1.613-3.351-3.955,0-2.312,1.278-3.955,3.351-3.955,2.039,0,3.317,1.643,3.317,3.955,0,2.343-1.282,3.955-3.315,3.955ZM47.35-31.7l3.681-.216a3.634,3.634,0,0,0,.122-.973c0-2.343-2.433-4.016-5.9-4.016-3.711,0-6.145,1.73-6.145,4.533,0,5.233,8.032,3.833,8.032,6.145,0,.7-.7,1.125-2.162,1.125a8.457,8.457,0,0,1-4.594-1.73L38.435-24.3c.365.3,2.343,2.13,6.692,2.13,3.924,0,6.3-1.7,6.27-4.289-.03-5.537-8.432-3.255-8.432-6.145,0-.852.757-1.491,2.13-1.491,1.46,0,2.312.73,2.312,1.886A2.185,2.185,0,0,1,47.35-31.7Zm16.49,5.233a3.66,3.66,0,0,1-2.312.757c-1.613,0-2.343-.852-2.343-2.768v-5.081h5.052v-3.164H59.185v-4.2l-4.016.154v4.046H52.791v3.164h2.19v5.263c0,4.076,1.977,6.115,5.75,6.115a8.092,8.092,0,0,0,4.289-1.035Zm13.933.548v-16.52H73.449v20.079h13.39v-3.56ZM95.54-36.9c-4.563,0-7.576,3.042-7.576,7.363s3.013,7.364,7.576,7.364c4.533,0,7.544-3.042,7.544-7.363S100.073-36.9,95.54-36.9Zm0,11.317c-2.069,0-3.351-1.613-3.351-3.955,0-2.312,1.278-3.955,3.351-3.955,2.039,0,3.317,1.643,3.317,3.955C98.857-27.195,97.579-25.582,95.54-25.582Zm18.345.7H110.66c-1.7,0-2.312-.243-2.312-.973,0-.456.335-.73,1-.882a8.061,8.061,0,0,0,2.646.4c3.863,0,6.419-2.13,6.419-5.263a4.684,4.684,0,0,0-1.156-3.194,3.952,3.952,0,0,0,2.981-3.863l-3.135-.822c0,1.521-.4,2.891-1.369,3.438a8.032,8.032,0,0,0-3.773-.852c-3.833,0-6.358,2.162-6.358,5.3a4.756,4.756,0,0,0,1.551,3.62,2.817,2.817,0,0,0-2.067,2.674,3.1,3.1,0,0,0,1.643,2.7,3.016,3.016,0,0,0-2.4,2.891c0,2.22,2.378,3.742,7.636,3.742,6.176,0,7.849-2.378,7.849-4.655,0-2.917-2.434-4.256-5.934-4.256ZM109.5-31.667a2.27,2.27,0,0,1,.781-1.682,2.27,2.27,0,0,1,1.775-.538,2.314,2.314,0,0,1,1.774.6,2.314,2.314,0,0,1,.751,1.714,2.312,2.312,0,0,1-.815,1.691,2.312,2.312,0,0,1-1.8.529,2.247,2.247,0,0,1-1.755-.6,2.247,2.247,0,0,1-.708-1.714Zm2.465,12.808c-2.891,0-3.955-.517-3.955-1.521,0-.822.7-1.369,2.768-1.369h2.7c1.7,0,2.495.3,2.495,1.308.005,1.065-1.029,1.583-4.011,1.583ZM126.6-41.306a2.612,2.612,0,0,0-.806-1.863,2.612,2.612,0,0,0-1.9-.723,2.586,2.586,0,0,0-1.888.724,2.586,2.586,0,0,0-.79,1.862,2.567,2.567,0,0,0,.784,1.868,2.567,2.567,0,0,0,1.894.718,2.594,2.594,0,0,0,1.9-.718A2.594,2.594,0,0,0,126.6-41.306Zm-4.807,18.953h4.167V-36.838l-4.168.122Zm14.3-14.542a7.083,7.083,0,0,0-5.381,2.052,7.083,7.083,0,0,0-2.078,5.371c0,4.259,2.859,7.3,7.666,7.3a7.885,7.885,0,0,0,6.236-2.465L140.5-27.251a5,5,0,0,1-3.924,1.673c-2.465,0-3.711-1.613-3.711-4.046,0-2.312,1.278-3.863,3.164-3.863a2.194,2.194,0,0,1,1.705.6,2.194,2.194,0,0,1,.673,1.679,2.383,2.383,0,0,1-.061.639l3.681-.216a5.6,5.6,0,0,0,.091-1.065c0-2.8-2.22-5.052-6.022-5.052Z" transform="translate(-9098.574 -503.031)" fill="#080808"/>
  </g>
</svg>