<svg xmlns="http://www.w3.org/2000/svg" width="161.039" height="32.49" viewBox="0 0 161.039 32.49">
  <g id="Group_19" data-name="Group 19" transform="translate(-229 -1103)">
    <g id="Group_15" data-name="Group 15" transform="translate(360.636 1103.133)">
      <path id="Path_17" data-name="Path 17" d="M162.543,32.78H142.326l1.7-2.333h0l15.108-20.69,1.639-2.245,1.772-2.422H133.672V9.757h19.686L133.14,37.447h29.4V32.78Z" transform="translate(-133.14 -5.09)" fill="#080808"/>
      <path id="Path_20" data-name="Path 20" d="M140.51,28.935h0L155.618,8.26Z" transform="translate(-129.626 -3.579)" fill="#080808"/>
      <path id="Path_21" data-name="Path 21" d="M142.326,32.78h20.218v4.667h-29.4l20.217-27.69H133.672V5.09h28.872l-3.411,4.667-15.108,20.69Z" transform="translate(-133.14 -5.09)" fill="#080808"/>
    </g>
    <g id="Group_14" data-name="Group 14" transform="translate(330.524 1103.044)">
      <path id="Path_15" data-name="Path 15" d="M110.022,5.1H105.37V37.328l4.652-4.681L126.385,16.3l4.667-4.667V5.03l-21.03,21.03Z" transform="translate(-105.37 -5.03)" fill="#080808"/>
      <path id="Path_16" data-name="Path 16" d="M119.6,34.276h4.667V11.74L119.6,16.407Z" transform="translate(-98.585 -1.831)" fill="#080808"/>
    </g>
    <g id="Group_13" data-name="Group 13" transform="translate(297.222 1103.118)">
      <path id="Path_14" data-name="Path 14" d="M101.405,5.08V22.949a9.9,9.9,0,0,1-6.321,9.215A9.245,9.245,0,0,1,92,32.77H91.3a9.732,9.732,0,0,1-9.009-7.03,9.393,9.393,0,0,1-.384-2.3v-.473h0V5.139H77.23V26.11a9.629,9.629,0,0,0,2.614,6.144,16.14,16.14,0,0,0,1.639,1.477l.473.384a16.245,16.245,0,0,0,19.523,0c.369-.281.738-.591,1.093-.9a12.508,12.508,0,0,0,.9-.93c.236-.266.473-.546.679-.827a9.747,9.747,0,0,0,1.905-5.819V5.08Z" transform="translate(-77.23 -5.08)" fill="#080808"/>
      <path id="Path_19" data-name="Path 19" d="M101.405,5.08V22.949A9.776,9.776,0,0,1,92,32.77H91.3a9.791,9.791,0,0,1-9.422-9.821V5.124H77.23V25.637a9.7,9.7,0,0,0,2.614,6.616,14.5,14.5,0,0,0,2.112,1.92,16.245,16.245,0,0,0,21.517-1.89,9.644,9.644,0,0,0,2.629-6.646V5.08Z" transform="translate(-77.23 -5.08)" fill="#080808"/>
    </g>
    <g id="Group_12" data-name="Group 12" transform="translate(262.302 1103.192)">
      <path id="Path_13" data-name="Path 13" d="M63.549,17.8h0l2.378,2.392L68.2,22.468h6.719V32.805H63.963a11.711,11.711,0,0,1-10.338-11.46V20.74A11.814,11.814,0,0,1,63.963,9.8H79.513V5.13H65.661a17.028,17.028,0,0,0-6.395,1.285A16.7,16.7,0,0,0,56.15,8.1h-.074l-.3.251h0a15.106,15.106,0,0,0-1.743,1.477A15.831,15.831,0,0,0,49.15,20.888v.428a15.551,15.551,0,0,0,1.255,6.291,15.979,15.979,0,0,0,3.589,5.139,16.555,16.555,0,0,0,11.623,4.681H79.573V17.8Z" transform="translate(-49.083 -5.13)" fill="#080808"/>
      <path id="Path_18" data-name="Path 18" d="M63.571,17.8l4.652,4.667h6.719V32.805H63.984a11.711,11.711,0,0,1-10.338-11.46A11.814,11.814,0,0,1,63.984,9.856H79.535V5.13H65.682a17.028,17.028,0,0,0-6.395,1.285A16.836,16.836,0,0,0,54,9.826a15.831,15.831,0,0,0-3.574,17.781,16.245,16.245,0,0,0,3.6,5.139,16.673,16.673,0,0,0,11.563,4.681h14V17.8Z" transform="translate(-49.104 -5.13)" fill="#080808"/>
    </g>
    <g id="Group_11" data-name="Group 11" transform="translate(229 1103)">
      <path id="Path_9" data-name="Path 9" d="M21,11.7V34.3h4.667V16.381Z" transform="translate(-20.926 -1.805)" fill="#080808"/>
      <path id="Path_10" data-name="Path 10" d="M37.33,16.381V34.3h4.681V11.7Z" transform="translate(-13.14 -1.805)" fill="#080808"/>
      <path id="Path_11" data-name="Path 11" d="M49.822,5.222v6.6L35.5,26.148l-9.88-9.88L20.95,11.6V5L35.5,19.547Z" transform="translate(-20.95 -5)" fill="#080808"/>
      <path id="Path_12" data-name="Path 12" d="M20.95,11.7h0V34.3h4.667V16.381h0L20.95,11.7Z" transform="translate(-20.95 -1.805)" fill="#080808"/>
    </g>
  </g>
</svg>
