<svg xmlns="http://www.w3.org/2000/svg" width="205.256" height="64.437" viewBox="0 0 205.256 64.437">
  <g id="Group_22" data-name="Group 22" transform="translate(-965.026 -1098.39)">
    <path id="Path_99" data-name="Path 99" d="M136.27,30.4c-.806,0-1.219-.537-1.219-1.633a45.924,45.924,0,0,1,1.364-5.828,8.266,8.266,0,0,0,.331-1.86.7.7,0,0,0-.579-.785h-.186a3.1,3.1,0,0,0-2.067,1.137,10.334,10.334,0,0,0-1.8,2.625,23.993,23.993,0,0,0-1.2,3.141,10.89,10.89,0,0,0-.475,2.935,6.7,6.7,0,0,0-1.922.331l-.393-.31c.165-.475.434-1.55.806-3.183l1.137-4.877a5.209,5.209,0,0,0,0-.992.682.682,0,0,0-.744-.785,2.976,2.976,0,0,0-2.067,1.137,11.531,11.531,0,0,0-1.9,2.831,13.412,13.412,0,0,0-1.343,5.869,7.5,7.5,0,0,0-1.922.331l-.393-.31a27.516,27.516,0,0,0,.785-3.183l1.013-5.621a2.066,2.066,0,0,0,0-.5c0-.31-.6-.579-1.819-.806l.124-.744a32.28,32.28,0,0,1,3.72-.331l.207.227-.992,4.03h.165a9.113,9.113,0,0,1,2.067-3.162,4.361,4.361,0,0,1,3.079-1.467,1.653,1.653,0,0,1,1.881,1.385,2.065,2.065,0,0,1,0,.5,9.342,9.342,0,0,1-.6,2.707h.145a10.333,10.333,0,0,1,2.067-3.162,4.34,4.34,0,0,1,3.1-1.467,1.715,1.715,0,0,1,1.963,1.426,1.344,1.344,0,0,1,0,.5,32.037,32.037,0,0,1-.889,4.133,36.5,36.5,0,0,0-.909,3.885c0,.269.124.413.372.413a4.939,4.939,0,0,0,1.447-.579l.413.641A5.6,5.6,0,0,1,136.27,30.4Z" transform="translate(1031.242 1117.38)" fill="#191919"/>
    <path id="Path_98" data-name="Path 98" d="M126.443,28.363l.413.641a5.869,5.869,0,0,1-3,1.3c-.682,0-1.033-.393-1.033-1.137a14.175,14.175,0,0,1,.413-2.273l.227-1.137h-.186c-1.385,3.1-3.017,4.629-4.919,4.629a2.067,2.067,0,0,1-1.839-.909,4.34,4.34,0,0,1-.62-2.356,9.63,9.63,0,0,1,1.881-6.1,5.766,5.766,0,0,1,4.526-2.377,6.2,6.2,0,0,1,2.273.5,10.146,10.146,0,0,0,1.529-.5l.393.31a22.423,22.423,0,0,0-.806,3.286l-1.054,5.394a4.134,4.134,0,0,0,0,.868c0,.269,0,.413.31.413a4.774,4.774,0,0,0,1.488-.558Zm-2.48-7.791a4.423,4.423,0,0,0-2.273-.682,2.315,2.315,0,0,0-1.571.372,5.993,5.993,0,0,0-1.467,2.645,10.726,10.726,0,0,0-.641,3.431c0,1.612.351,2.418,1.1,2.418s1.922-.93,2.955-2.769a13.7,13.7,0,0,0,1.8-5.415Z" transform="translate(1019.866 1117.476)" fill="#191919"/>
    <g id="Group_18" data-name="Group 18" transform="translate(1107.005 1136.023)">
      <path id="Path_96" data-name="Path 96" d="M115.013,28.363l.393.641a5.663,5.663,0,0,1-2.935,1.3c-.682,0-1.033-.393-1.033-1.137a14.132,14.132,0,0,1,.393-2.273l.227-1.137h-.165c-1.405,3.1-3.038,4.629-4.919,4.629a2.067,2.067,0,0,1-1.86-.909,4.133,4.133,0,0,1-.6-2.356,9.506,9.506,0,0,1,1.881-6.1,5.724,5.724,0,0,1,4.547-2.377,6.2,6.2,0,0,1,2.273.5,10.147,10.147,0,0,0,1.529-.5l.393.31a22.426,22.426,0,0,0-.806,3.286l-.992,5.394a4.134,4.134,0,0,0,0,.868c0,.269,0,.413.31.413a4.877,4.877,0,0,0,1.364-.558Zm-2.48-7.791a4.423,4.423,0,0,0-2.273-.682,2.356,2.356,0,0,0-1.571.372,6.2,6.2,0,0,0-1.426,2.645,10.685,10.685,0,0,0-.62,3.41c0,1.633.351,2.439,1.137,2.439s1.9-.93,2.976-2.79a14.2,14.2,0,0,0,1.777-5.394Z" transform="translate(-104.506 -18.547)" fill="#191919"/>
      <path id="Path_97" data-name="Path 97" d="M115.442,30.318l-1.922-9.444a1.385,1.385,0,0,0-.413-.806,5.084,5.084,0,0,0-1.467-.248l.124-.765a31.35,31.35,0,0,1,3.307-.331l.207.248,1.715,9.362h0a23.888,23.888,0,0,0,2.48-4.133,8.266,8.266,0,0,0,.992-3.431.7.7,0,0,0-.289-.641.992.992,0,0,0-.579-.31,7.336,7.336,0,0,0-.971-.124l.124-.765c1.1-.165,2.191-.269,3.307-.331l.207.248a2.067,2.067,0,0,1,.145.847,10.912,10.912,0,0,1-1.364,4.464,32.923,32.923,0,0,1-3.265,5.1,26.059,26.059,0,0,1-4.133,4.133,6.53,6.53,0,0,1-3.7,1.8c-.7,0-1.075-.186-1.075-.558a3.038,3.038,0,0,1,.372-1.343c.227-.5.475-.744.682-.744a4.67,4.67,0,0,1,.806.145,3,3,0,0,0,.723.145C112.528,32.984,113.789,32.095,115.442,30.318Z" transform="translate(-99.851 -18.6)" fill="#191919"/>
    </g>
    <path id="Path_95" data-name="Path 95" d="M106.72,33.751c-.806,0-1.219-.537-1.219-1.633a42.7,42.7,0,0,1,1.385-5.828,8.266,8.266,0,0,0,.331-1.86.723.723,0,0,0-.62-.785h-.186a3.1,3.1,0,0,0-1.819.785,8.535,8.535,0,0,0-1.881,2.067,11.9,11.9,0,0,0-1.467,3.162,13.165,13.165,0,0,0-.558,3.823,6.84,6.84,0,0,0-1.943.331l-.393-.31a24.66,24.66,0,0,0,.785-3.183L101.553,17.8a2.066,2.066,0,0,0,0-.517c0-.289-.6-.579-1.819-.785l.124-.765a32.239,32.239,0,0,1,3.72-.31l.227.227a15.669,15.669,0,0,1-.269,2.067l-.806,4.133a13.807,13.807,0,0,1-.517,1.736,21.317,21.317,0,0,0-.6,2.067l-.227.951h.145a9.754,9.754,0,0,1,2.583-3.41,5.125,5.125,0,0,1,3.162-1.24,1.715,1.715,0,0,1,2.067,1.426,1.343,1.343,0,0,1,0,.5,28.933,28.933,0,0,1-.909,4.133,36.4,36.4,0,0,0-.889,3.885c0,.269.124.413.372.413a5.167,5.167,0,0,0,1.447-.579l.393.641a5.539,5.539,0,0,1-3.038,1.385Z" transform="translate(991.048 1114.031)" fill="#191919"/>
    <path id="Path_94" data-name="Path 94" d="M100.431,29.877l.31.661a6.365,6.365,0,0,1-3.41,1.261,1.9,1.9,0,0,1-1.426-.475,1.7,1.7,0,0,1-.517-1.261,10.187,10.187,0,0,1,.207-1.757l1.137-6.613H95.14V20.7l1.323-.269a1.157,1.157,0,0,0,.682-.517c.145-.269.475-1.137,1.013-2.521l1.405-.145-.579,3.059h2.521l-.248,1.385H98.819l-1.3,7.047a8.121,8.121,0,0,0-.124.992c0,.455.269.682.765.682A7.77,7.77,0,0,0,100.431,29.877Z" transform="translate(981.693 1115.983)" fill="#191919"/>
    <g id="Group_17" data-name="Group 17" transform="translate(1015.596 1108.555)">
      <path id="Path_82" data-name="Path 82" d="M78.965,5.807c0,.207.269.785.537,1.8a5.394,5.394,0,0,1,.186,1.426H78.8a6.634,6.634,0,0,0-1.963-2.067,4.133,4.133,0,0,0-2.315-.62,3,3,0,0,0-2.48,1.261A7.77,7.77,0,0,0,70.76,12.4a9.4,9.4,0,0,0,.269,2.6,6.984,6.984,0,0,0,.889,2.067,3.183,3.183,0,0,0,1.1.93,3.7,3.7,0,0,0,1.86.455,3.493,3.493,0,0,0,2.067-.7,8.019,8.019,0,0,0,2.067-2.067,3.7,3.7,0,0,1,.951,0,4.01,4.01,0,0,1-.124.827,4.59,4.59,0,0,1-.227,1.323v.331l-.145.475a3.679,3.679,0,0,1-1.695.744,11.821,11.821,0,0,1-2.687.248,10.87,10.87,0,0,1-2.459-.5,5.58,5.58,0,0,1-1.86-.744,7.026,7.026,0,0,1-1.777-1.633,5.972,5.972,0,0,1-.951-1.922,7.936,7.936,0,0,1-.331-2.315,7.192,7.192,0,0,1,1.943-5.146,6.572,6.572,0,0,1,4.981-2.067,14.466,14.466,0,0,1,2.315.145,8.535,8.535,0,0,1,2.067.372" transform="translate(-67.698 -5.309)" fill="#191919"/>
      <path id="Path_83" data-name="Path 83" d="M81.584,14.511l.227.145a.372.372,0,0,1,.124.186h0a2.749,2.749,0,0,1-.62,1.281,1.385,1.385,0,0,1-.971.331,1.488,1.488,0,0,1-1.013-.331,2.852,2.852,0,0,1-.765-1.2,3.327,3.327,0,0,1-1.2,1.2,4.133,4.133,0,0,1-1.881.393,2.211,2.211,0,0,1-1.509-.455,1.467,1.467,0,0,1-.475-1.2,2.066,2.066,0,0,1,.124-.7,2.335,2.335,0,0,1,.475-.7,5.436,5.436,0,0,1,1.013-.806l.765-.207,2.5-1.054V10.6a3.823,3.823,0,0,0-.331-1.922.806.806,0,0,0-.7-.372,2.335,2.335,0,0,0-.909.207,1.343,1.343,0,0,0-.62.517,2.459,2.459,0,0,0-.227.868,2.52,2.52,0,0,1-.124.537,1.157,1.157,0,0,1-.537.351l-.537.227a2.066,2.066,0,0,1-.847.289.5.5,0,0,1-.145-.372,2.067,2.067,0,0,1,.248-1.013,4.133,4.133,0,0,1,.992-1.137,5.167,5.167,0,0,1,1.343-.806,6.572,6.572,0,0,1,2.067-.269,3.079,3.079,0,0,1,1.364.31,1.55,1.55,0,0,1,.785.909,7.068,7.068,0,0,1,.227,2.191v3.389a1.343,1.343,0,0,0,0,.641.351.351,0,0,0,.289.145.289.289,0,0,0,.186,0l.31-.5Zm-3.245-2.335a8.887,8.887,0,0,0-1.24.661,2.852,2.852,0,0,0-.971.951,1.633,1.633,0,0,0-.207.827,1.116,1.116,0,0,0,.269.765.806.806,0,0,0,.6.269,1.281,1.281,0,0,0,.93-.331,2.232,2.232,0,0,0,.62-.7,7.42,7.42,0,0,0,0-1.509v-.93" transform="translate(-61.617 -2.749)" fill="#191919"/>
      <path id="Path_84" data-name="Path 84" d="M77.727,16.263a1.054,1.054,0,0,1,.331-.186,3.307,3.307,0,0,0,.971-.393,9.55,9.55,0,0,0,0-1.715,33.278,33.278,0,0,0-.124-3.575.434.434,0,0,0-.145-.289,2.418,2.418,0,0,0-.682-.227.289.289,0,0,1-.227-.227V9.257a3.059,3.059,0,0,0,1.323-.517,3.307,3.307,0,0,0,.889-.889l.289-.372h.682a2.853,2.853,0,0,1,0,.413V9.65a9.4,9.4,0,0,1,.62-.971,3.885,3.885,0,0,1,.517-.5,1.1,1.1,0,0,1,.765-.269,1.3,1.3,0,0,1,1.3,1.24,1.467,1.467,0,0,1-.289.868.868.868,0,0,1-.785.393,1.426,1.426,0,0,1-.889-.372.744.744,0,0,0-.434-.227h0a.806.806,0,0,0-.393.393,2.521,2.521,0,0,0-.269,1.1v3.885a1.281,1.281,0,0,0,.186.537,2.068,2.068,0,0,0,.351.207,3.245,3.245,0,0,0,.62,0,1.033,1.033,0,0,1,.558.145.31.31,0,0,1,0,.289.827.827,0,0,1,0,.31h-.971l-1.86-.1a8.452,8.452,0,0,0-1.3,0H77.52V16.3a.93.93,0,0,0,0-.227" transform="translate(-57.222 -2.993)" fill="#191919"/>
      <path id="Path_85" data-name="Path 85" d="M81,19.061V18.4l1.116-.165a.517.517,0,0,0,.331-.227,1.24,1.24,0,0,0,0-.62V12.861a3.43,3.43,0,0,0,0-.661.785.785,0,0,0-.393-.289A3.348,3.348,0,0,0,81,11.642v-.579a4.815,4.815,0,0,0,1.8-.455A5,5,0,0,0,83.955,9.7h.661v8.432a5.539,5.539,0,0,0,1.013.227l.413.1v.6H82.488a7.481,7.481,0,0,0-.951,0H81m1.343-12.4a1.405,1.405,0,0,1,.351-.93A1.323,1.323,0,0,1,83.6,5.38a1.281,1.281,0,0,1,.951.393,1.1,1.1,0,0,1,.393.847,2.066,2.066,0,0,1-.145.723,1.178,1.178,0,0,1-.5.558,1.116,1.116,0,0,1-.661.227,1.219,1.219,0,0,1-.889-.434,1.447,1.447,0,0,1-.413-1.033" transform="translate(-53.511 -5.233)" fill="#191919"/>
      <path id="Path_86" data-name="Path 86" d="M83.107,9.526a5.745,5.745,0,0,0,1.674-1.013A6.056,6.056,0,0,0,85.918,6.86h.558a1.653,1.653,0,0,1,0,.641V9.216H88.4a3.389,3.389,0,0,1,0,.475,2.624,2.624,0,0,1,0,.579H86.414v3.989a11.162,11.162,0,0,0,0,1.447,1.364,1.364,0,0,0,.248.558.827.827,0,0,0,.5,0,.909.909,0,0,0,.413,0,2.066,2.066,0,0,0,.434-.31l.186-.145a1.778,1.778,0,0,1,.393.393v.124a2.418,2.418,0,0,1-.971.909,2.749,2.749,0,0,1-1.343.331,1.922,1.922,0,0,1-1.488-.62,2.645,2.645,0,0,1-.579-1.9V10.208H83.066a.331.331,0,0,1,0-.186.847.847,0,0,1,0-.455" transform="translate(-51.34 -3.654)" fill="#191919"/>
      <path id="Path_87" data-name="Path 87" d="M93.767,14.51l.227.145a.248.248,0,0,1,0,.186h0a2.563,2.563,0,0,1-.62,1.281,1.3,1.3,0,0,1-.951.331,1.488,1.488,0,0,1-1.013-.331,3.1,3.1,0,0,1-.785-1.2,3.038,3.038,0,0,1-1.2,1.2,4.133,4.133,0,0,1-1.86.393,2.232,2.232,0,0,1-1.529-.455,1.612,1.612,0,0,1-.475-1.2,1.653,1.653,0,0,1,.145-.7,2.294,2.294,0,0,1,.455-.7A5.559,5.559,0,0,1,87.2,12.65l.765-.351,2.687-.909V10.6a3.616,3.616,0,0,0-.331-1.922.744.744,0,0,0-.785-.372,2.335,2.335,0,0,0-.909.207,1.261,1.261,0,0,0-.62.517,2.067,2.067,0,0,0-.227.868,2.522,2.522,0,0,1-.124.537,1.157,1.157,0,0,1-.537.351l-.6.269a2.17,2.17,0,0,1-.847.289.434.434,0,0,1-.145-.372,2.418,2.418,0,0,1,.227-1.013,4.877,4.877,0,0,1,1.075-1.178A4.98,4.98,0,0,1,88.187,8a6.531,6.531,0,0,1,2.067-.289,3.079,3.079,0,0,1,1.364.31,1.633,1.633,0,0,1,.785.909,7.068,7.068,0,0,1,.31,2.191V14.51a1.343,1.343,0,0,0,0,.641A.351.351,0,0,0,93,15.3h.186l.289-.5Zm-3.245-2.335a7.151,7.151,0,0,0-1.24.661,2.976,2.976,0,0,0-1.033.93,1.55,1.55,0,0,0-.186.847,1.075,1.075,0,0,0,.248.744.847.847,0,0,0,.62.289,1.343,1.343,0,0,0,.951-.331,2.521,2.521,0,0,0,.62-.7,7.421,7.421,0,0,0,0-1.509v-.93" transform="translate(-48.691 -2.748)" fill="#191919"/>
      <path id="Path_88" data-name="Path 88" d="M89.63,13.62h.641v.124c.207.413.455.806.7,1.2a5.31,5.31,0,0,0,.682.682,3.348,3.348,0,0,0,.723.351,2.067,2.067,0,0,0,.7.124,1.509,1.509,0,0,0,1.075-.434,1.2,1.2,0,0,0,.434-.909.889.889,0,0,0-.165-.558,1.86,1.86,0,0,0-.661-.475,12.667,12.667,0,0,0-1.261-.372L91.3,13a2.914,2.914,0,0,1-.827-.517,1.777,1.777,0,0,1-.537-.765,2.459,2.459,0,0,1-.269-1.013,3.451,3.451,0,0,1,.207-1.3,2.707,2.707,0,0,1,.641-.889,2.666,2.666,0,0,1,.868-.537,3.162,3.162,0,0,1,1.24-.248,8.783,8.783,0,0,1,1.653.145,3.823,3.823,0,0,1,1.24.413,7.03,7.03,0,0,1,.165,1.1,5.652,5.652,0,0,0,.124,1.033.392.392,0,0,1,0,.145.93.93,0,0,1-.413,0h-.248l-.248-.455a3.782,3.782,0,0,0-.971-1.3,2.067,2.067,0,0,0-1.157-.393,1.8,1.8,0,0,0-1.157.413,1.219,1.219,0,0,0-.331.827.971.971,0,0,0,.351.7,2.211,2.211,0,0,0,1.2.558,10.333,10.333,0,0,1,1.922.62A2.893,2.893,0,0,1,96,12.566a2.521,2.521,0,0,1,.351,1.385,2.625,2.625,0,0,1-.868,2.067,3.513,3.513,0,0,1-2.521.827,5.476,5.476,0,0,1-1.137-.124,8.577,8.577,0,0,1-.992-.207l-.7-.289a.62.62,0,0,1-.165-.165,6.2,6.2,0,0,1-.124-.868c-.124-.847-.186-1.343-.186-1.509" transform="translate(-44.306 -2.726)" fill="#191919"/>
      <path id="Path_89" data-name="Path 89" d="M74.279,32.844H72.439L69.587,18.233a.971.971,0,0,0-.331-.641,3.865,3.865,0,0,0-1.137-.372l.145-.951h5.621v.971l-1.881.537a.207.207,0,0,0-.207.186h0v.31l2.067,10.684a3.6,3.6,0,0,1,0,.806h.227l4.939-10.5a6.736,6.736,0,0,0,.517-1.261c0-.145-.124-.289-.393-.372a6.2,6.2,0,0,0-1.2-.351v-.951h5.208v.992a3.493,3.493,0,0,0-1.281.434,2.708,2.708,0,0,0-.641.889Z" transform="translate(-67.248 6.383)" fill="#191919"/>
      <path id="Path_90" data-name="Path 90" d="M85.443,28.363l.393.641a5.7,5.7,0,0,1-2.976,1.3c-.682,0-1.033-.393-1.033-1.137A12.212,12.212,0,0,1,82.24,26.9l.227-1.137h-.186c-1.385,3.1-3.038,4.629-4.919,4.629a2.067,2.067,0,0,1-1.839-.909,4.009,4.009,0,0,1-.62-2.356,9.63,9.63,0,0,1,1.881-6.1A5.724,5.724,0,0,1,81.31,18.65a6.2,6.2,0,0,1,2.273.5,11.221,11.221,0,0,0,1.55-.5l.372.31a22.422,22.422,0,0,0-.806,3.286L83.645,27.64a4.134,4.134,0,0,0,0,.868c0,.269,0,.413.31.413a4.9,4.9,0,0,0,1.488-.558Zm-2.48-7.791a4.422,4.422,0,0,0-2.273-.682,2.273,2.273,0,0,0-1.55.372,6.386,6.386,0,0,0-1.447,2.645,10.685,10.685,0,0,0-.62,3.41c0,1.633.372,2.439,1.137,2.439s1.922-.93,2.976-2.79a14.2,14.2,0,0,0,1.695-5.394Z" transform="translate(-60.021 8.921)" fill="#191919"/>
      <path id="Path_91" data-name="Path 91" d="M84.583,31.872l.393.641a4.526,4.526,0,0,1-2.955,1.3c-.847,0-1.261-.5-1.261-1.488a16.534,16.534,0,0,1,.248-2.067l2.418-12.524a4.011,4.011,0,0,0,0-.5c0-.31-.6-.579-1.819-.785l.124-.765c1.24-.165,2.48-.289,3.72-.331l.227.227a18.6,18.6,0,0,1-.269,2.067l-2.521,13.02a5.352,5.352,0,0,0-.145,1.137c0,.351.124.517.372.517a4.856,4.856,0,0,0,1.467-.455Z" transform="translate(-53.767 5.412)" fill="#191919"/>
      <path id="Path_92" data-name="Path 92" d="M88,30.3H86.888l-1.777-9.486A1.137,1.137,0,0,0,84.7,20a4.857,4.857,0,0,0-1.467-.248l.124-.765a32.385,32.385,0,0,1,3.307-.331l.227.248,1.467,9.01h0a27.238,27.238,0,0,0,2.666-3.658,7.543,7.543,0,0,0,1.157-3.41.868.868,0,0,0-.289-.661,1.426,1.426,0,0,0-.579-.31l-.971-.124.1-.765c1.1-.165,2.211-.269,3.307-.331l.227.248a2.067,2.067,0,0,1,.124.847,8.37,8.37,0,0,1-1.24,3.7A32.756,32.756,0,0,1,88,30.3Z" transform="translate(-51.132 8.932)" fill="#191919"/>
      <path id="Path_93" data-name="Path 93" d="M99.761,28.342l.393.641a5.539,5.539,0,0,1-3,1.3c-.682,0-1.013-.393-1.013-1.137a16.862,16.862,0,0,1,.393-2.273l.248-1.137H96.64a9.941,9.941,0,0,1-2.4,3.369,4.464,4.464,0,0,1-2.935,1.261c-1.3,0-1.943-.765-1.943-2.273a12.524,12.524,0,0,1,.31-2.067l1.013-4.795a2.066,2.066,0,0,0,0-.5c0-.331-.6-.579-1.819-.806l.124-.765c1.24-.165,2.48-.269,3.72-.331l.227.248a12.4,12.4,0,0,1-.269,2.067l-.93,4.4a16.533,16.533,0,0,0-.31,2.067c0,.765.289,1.137.868,1.137a2.521,2.521,0,0,0,1.571-.765,9.425,9.425,0,0,0,1.674-2.067,12.813,12.813,0,0,0,1.385-3.183A13.578,13.578,0,0,0,97.508,19a7.647,7.647,0,0,0,1.922-.331l.372.31a31.115,31.115,0,0,0-.785,3.183L98,27.742a6.2,6.2,0,0,0,0,.868c0,.269,0,.413.31.413A5.332,5.332,0,0,0,99.761,28.342Z" transform="translate(-45.116 8.943)" fill="#191919"/>
    </g>
    <g id="Group_16" data-name="Group 16" transform="translate(965.026 1098.39)">
      <path id="Path_70" data-name="Path 70" d="M88.17,37.072a17.2,17.2,0,0,1-3.079-1.55c.641-1.075,2.067-1.075,2.728-1.86-.413-.909-1.963-.827-1.963-1.8s1.529-.909,1.777-1.9c-2.5-.971-2.5-.971-.682-2.914,0,0,.124-.289.186-.475L84.9,25.706c.186-1.137,1.447-1.633,1.55-2.831-3.513.227-.641-2.067-1.385-3.1-.434-.31-1.1.351-1.715.1.186-.682.93-.868.909-1.529-.475-.413-1.137.227-1.55-.393l3.741-6.2c-1.3.744-1.819,1.777-3.1,2.191l.434-1.116c-1.3,0-2.067,1.55-3.472,1.033a31,31,0,0,0,1.8-5.373L78.6,13.017c.331-1.426.517-2.335.765-3.472l-2.067,1.3c0-2.067,1.013-3.947.971-6.2-1.55,1.24-2.232,2.976-3.741,4.133,0-1.219.62-2.273.186-3.513L72.443,7.644V3.717L70.377,6.941c-.186-1.55-.331-2.79-.475-4.133-.723.992-.6,2.067-1.343,2.914-.207-1.033-.413-2.067-.6-3.079-.909.579-.723,1.819-1.674,2.232-.207-1.447-.393-2.79-.641-4.485-.682,1.55-.517,3.1-1.55,4.629L63.164.39c-.806,2.067-.393,3.761-1.178,5.394L60.457,1.919l-.5,5.559a49.6,49.6,0,0,0-2.583-6.035c.289,2.418.517,4.443.765,6.468h-.269L56.51,5.846l-.31.1.413,4.133-2.6-2.955c-.269,1.24.31,2.067.248,3.41L50.413,6.177l-.248.165,2.6,6.386L50,12.542c-.31,1.281,1.839,1.612.7,3.265-.889,1.3-1.55,0-2.232.372.124.909,1.054,1.529,1.054,2.5H48.76a7.977,7.977,0,0,0-2.831-1.2L47.375,19.3h0c1.777,2.067-.393,3.617-.62,5.415s-2.067.661-2.955,1.695c.661.475,1.323.847,1.881,1.343,1.1.951.723,1.529-1.343,1.881.558,1.157,2.335,2.067.682,3.679,0,0,.124.31.207.455.7,1.013,1.116,2.067,0,2.976a.372.372,0,0,0-.145.475l.145.124c1.881,1.281,1.137,2.377-.434,3.451.827.558,1.9.372,2.067,1.447s-1.364.992-1.364,1.922c.682.641,1.757.227,2.439.971l-1.55,1.86c2.707,0,2.067,1.364,1.157,2.666.723.227,1.281-.475,1.839,0,0,.537-.93,1.3-.31,1.323,1.55,0,.5.765.331,1.075-.785,1.405-1.674,2.769-2.521,4.133l.6.517,3.327-3.761.227.248-1.55,3.079.227.1,1.653-1.55c-.455,1.757-1.633,2.976-1.839,4.774l2.955-3.2c.6.579-.62,1.116,0,1.653.579-.124.517-1.054,1.219-.951.351.765-.517,1.323,0,2.294.248-1.137,1.777-.558,1.881-1.819,0-.165,0-.806.7-.537s.434.475.393.889c-.145,1.054-.207,2.067-.372,3.679l2.067-3.327c.165,1.364.289,2.4.413,3.6L59.9,60.611l-.207,2.067c.558.145.413-.579.909-.62l.145,1.591c1.2-.827.847-2.5,2.067-3.327a10.933,10.933,0,0,0,.641,3.823l1.261-2.687c.227,1.137.393,2.067.682,3.369l.723-3.1c1.075.847.785,2.439,1.963,3.1l.682-3.513c.992,1.013.868,2.542,2.067,3.389V59.991c.6,1.219,1.013,2.067,1.467,2.976.827-1.405,0-2.935.951-4.237l1.405,2.976h.434v-4.9c.971.641,1.116,1.8,2.211,2.273a13.35,13.35,0,0,1-.351-4.133l6.2,6.716.331-.248L81.04,56.912c.558-.269.641.6,1.2.186a22.484,22.484,0,0,0-1.529-3.079,1.509,1.509,0,0,1,.227-1.943c.393-.62.827.31,1.24.537.765.434,1.447,1.013,2.191,1.529l.145-.186L81.7,50.216a5.6,5.6,0,0,1,4.278.289L83.21,47.24c.971-.186,1.653.744,2.687.434l-2.418-3.327h3.534c-.785-1.2-1.922-1.963-2.377-3.183.909-.413,1.839,0,2.666-.5-.434-.992-1.674-1.157-2.067-2.067C86.062,37.837,87.364,38.044,88.17,37.072Zm-4.815-1.55a11.908,11.908,0,0,1-.227,1.695,24.8,24.8,0,0,1-7.915,15.665A13.867,13.867,0,0,1,55.6,52.737l-.207-.207a25.151,25.151,0,0,1-7.274-15.562,11.716,11.716,0,0,1-.31-2.4,40.237,40.237,0,0,1,2.418-13.516v-.6c.744-.331.868-1.24,1.323-1.86a33.438,33.438,0,0,1,4.34-5.167,13.888,13.888,0,0,1,16.967-2.067,18.806,18.806,0,0,1,3.7,2.687c.434.413.765,1.033,1.529.93,0,.806.517,1.343.889,2.067a31,31,0,0,1,4.3,12.4,11.861,11.861,0,0,0,.186,1.467,7.956,7.956,0,0,1-.1,4.609Z" transform="translate(-43.8 -0.39)" fill="#191919"/>
      <path id="Path_71" data-name="Path 71" d="M73.941,27.183a4.609,4.609,0,0,1-1.715,2.191,8.7,8.7,0,0,1-3.079-.62C70.1,27,68.133,27.638,67.7,27.039l.289,1.013c-1.55-.558-1.405-1.9-1.695-3.079.289.248.413.723.909.6h0c-.62-2.645-1.2-5.291-1.8-7.956,0-.289-.248-.558-.331-.847-.186-.744.124-1.777-.868-2.067s-1.55.5-2.067,1.55a9.383,9.383,0,0,1-.434-.93c-.227-.785-.641-2.067-1.343-1.757-1.55.455-3.079-.5-4.464.31a1.137,1.137,0,0,0-.393,1.571h0c.847,1.261.227,1.881-.889,2.377s-.641,1.529-.682,2.335c.868,1.323-1.116,1.55-.992,2.625-1.86.6-2.79,2.4-4.319,3.41a1.323,1.323,0,0,0-.393,1.839.723.723,0,0,0,0,.165c.661.723,1.343,0,1.736-.455,1.157-1.405,3.1-2.067,3.968-3.658a1.116,1.116,0,0,1,1.488-.475h0c1.385.661,3.265.537,3.885,2.48a1.7,1.7,0,0,0,1.075.827c2.439,1.178,4.939,2.335,7.419,3.513a6.2,6.2,0,0,0,4.526-.847c.393-.145.7-.62,1.24-.351.248,1.8-1.137,1.426-2.067,1.55h0c1.3.765,1.943,0,2.439-1.033a1.695,1.695,0,0,0,.331-2.377ZM64.7,18.173a2.067,2.067,0,0,1,0,2.273A2.067,2.067,0,0,1,64.7,18.173Zm-.186,2.976c1.178-.537,1.695-.165,1.405,1.116a9.052,9.052,0,0,0,.372,5.022c-1.653-.847-2.893-1.55-4.133-2.067a1.323,1.323,0,0,1-.806-1.55,1.261,1.261,0,0,1,.889-1.405A19.984,19.984,0,0,0,64.517,21.149ZM62.7,16.334c.413-.289.413-1.281,1.116-1.033s0,.971.124,1.55a9.982,9.982,0,0,1-.785,3.637,1.323,1.323,0,0,1-1.55.889,1.075,1.075,0,0,1-1.137-.785c-.186-.558.227-1.054.868-1.323,1.116-.62.289-2.232,1.343-2.935Zm-2.067,2.749L60.8,16.23a1.943,1.943,0,0,1,0,2.749Zm-4.547-4.567c.269-.7.971-.537,1.447-.331a1.715,1.715,0,0,0,1.55,0c1.219-.641,1.653.124,2.067,1.178-1.343-.413-1.736,0-1.157,1.24.186.413.6,1.178-.1,1.447s-.62-.579-.93-.909a3.6,3.6,0,0,0-1.9-1.343,1.054,1.054,0,0,1-.889-1.178.891.891,0,0,1,0-.1Zm2.232,5.663c-.93-.93-.351-2.067-.785-3,1.343.682,1.3,1.695.806,2.935Zm-.909,3.534a24.944,24.944,0,0,0-2.914-.93c-1.323,1.033-1.86,3.079-3.865,3.224.434-1.178.434-1.178,2.4-2.707l1.033-.951c.165-.951,1.054-.723,1.633-.951s.7-.413.682-.951,0-.744-.579-.744c-2.707,0-1.178-.971-.517-1.819,1.178,0,2.191.269,2.067,1.86,0,.951,1.281.785,1.55,1.633.207.5,1.054.806.455,1.55s-.868,1.2-1.9.744Zm9.176,5.456a60.694,60.694,0,0,0-5.7-2.79c-1.054-.475-1.467-1.013-.661-2.067h-.992c.186-.765,1.116-.971,1.054-1.943.723.909-.145,1.405,0,2.067h0a47.181,47.181,0,0,0,10.333,5.5,5.518,5.518,0,0,1-4.03-.765Z" transform="translate(-39.304 13.611)" fill="#191919"/>
      <path id="Path_72" data-name="Path 72" d="M57.951,20.757l-.5-1.467C56.855,20.137,57.145,20.571,57.951,20.757Z" transform="translate(-29.576 19.769)" fill="#191919"/>
      <path id="Path_73" data-name="Path 73" d="M66.151,23.2c-.661-.413-1.364-.827-2.067-.289A6.365,6.365,0,0,1,58.67,24.09l-3.1.971h0a5.972,5.972,0,0,1-2.273-.723c-.517-.207-1.178-.971-1.633-.289S50.4,25.7,51.086,26.591a2.356,2.356,0,0,1,.1,2.583c-.207.517-.641,1.364.227,1.55s1.736.413,2.294-.682c1.137-2.067,1.178-2.067,3.369-.847,1.653.93,3.245,1.343,4.712-.269.434-.455.765-.372,1.281,0,1.3.744,2.315.207,2.769-1.281A15.437,15.437,0,0,1,66.4,24.9a1.157,1.157,0,0,0-.227-1.633ZM54.186,26.632c-.248.889-.558,1.777-.785,2.687a.93.93,0,0,1-1.033.827H52.14c-.723-.227-.31-.889-.145-1.261s.5-1.343,0-1.922A1.571,1.571,0,0,1,52,24.9c.434-.765.889-.1,1.261,0a1.3,1.3,0,0,1,1.116,1.467,1.529,1.529,0,0,1-.186.269ZM60.2,28.409c0,1.529-.889,1.054-1.653.785-1.2-.413-2.253-1.178-3.513-1.529-.785-.248-.537-1.674.6-2.067.909.269,1.695-.93,2.645-.31-.7.393-1.116,1.013-.682,1.695s1.013.269,1.55,0c1.24-.889,1.86.455,2.873.682a1.343,1.343,0,0,0-1.757.661.331.331,0,0,0,0,.186Zm2.191-1.8c-.847.124-1.529-.537-2.232-.785s-1.261.682-2.067.682c-.331-.723.455-.827.579-1.261H59.7a8.432,8.432,0,0,0,2.377-.413c.992-.393,1.178.517,1.323,1.1.331.951-.579.6-1.013.682Z" transform="translate(-36.31 23.359)" fill="#191919"/>
      <path id="Path_74" data-name="Path 74" d="M54.65,23.91Z" transform="translate(-32.227 24.697)" fill="#191919"/>
      <path id="Path_75" data-name="Path 75" d="M54.65,23.921v0Z" transform="translate(-32.227 24.686)" fill="#191919"/>
      <path id="Path_76" data-name="Path 76" d="M54.65,23.91Z" transform="translate(-32.227 24.697)" fill="#191919"/>
      <path id="Path_77" data-name="Path 77" d="M54.65,23.91Z" transform="translate(-32.227 24.697)" fill="#191919"/>
      <path id="Path_78" data-name="Path 78" d="M54.65,23.91Z" transform="translate(-32.227 24.697)" fill="#191919"/>
      <path id="Path_79" data-name="Path 79" d="M54.65,23.9v.021h0Z" transform="translate(-32.227 24.686)" fill="#191919"/>
      <path id="Path_80" data-name="Path 80" d="M61.152,21.069c-.868.413-.124,1.281-.537,1.839-.971-.31-.558-1.033-.5-1.674l.579-.475c.62-1.3-.269-2.5-.248-3.741-.289-1.653-1.55-.434-2.211-.723l.351,1.447c-1.343,1.86.227,3.6.289,5.394,0,.827,1.261.145,1.943.434,1.178.558,1.529,0,1.8-1.178S62.082,21.151,61.152,21.069Zm-2.232-.1a3.245,3.245,0,0,1,0-3.079h0c.351.124,0-.93.517-.351a3.079,3.079,0,0,1,.351,3.617c-.207.248-.537.413-.868-.186Z" transform="translate(-28.603 16.399)" fill="#191919"/>
      <path id="Path_81" data-name="Path 81" d="M64.835,13.694v-.661l-.682-1.715c-.207-.558-.434-1.178-.992-1.281s-.661.661-.93,1.033-.62,1.1-1.385,1.033c1.3-4.133.393-6.923-2.067-6.675,0,.537.7.951.517,1.55s-.475-.145-.744,0c-.289-.434-.682-.889-1.178-.765s-.331.847-.331,1.281a4.609,4.609,0,0,1-.868,3.265A5.849,5.849,0,0,0,54.357,12.7c-.269,1.281-1.529.971-2.315,1.364-.331.765-1.178,2.067-.351,2.191,1.323,0,1.2.7,1.343,1.385a2.377,2.377,0,0,0,2.294,1.881,3.947,3.947,0,0,0,3.823-2.232c1.323-2.067,1.9-2.17,3.823-.744,1.219.909,1.715.682,1.9-.889A14.609,14.609,0,0,0,64.835,13.694Zm-.868,2.583A16.863,16.863,0,0,0,62.252,15.2a2.067,2.067,0,0,0-2.976.537,2.355,2.355,0,0,0-.207.393,5.456,5.456,0,0,1-1.86,2.294,2.211,2.211,0,0,1-3.141-.351,2.067,2.067,0,0,1-.5-1.178,1.777,1.777,0,0,0-.6-1.323c-.248-.165-.909.207-.744-.475s.558-.93.909-.806c1.529.682,1.178-.7,1.529-1.281l1.819-1.943c1.219-.971.723-2.645,1.612-3.761l1.033,1.55c.765-.517.7-1.3.868-2.067,1.674,2.067-.165,4.133,0,6.344a4.65,4.65,0,0,0,3.038-2.377c.909.806.806,2.067,1.323,2.893C64.318,14.562,64.69,15.513,63.967,16.278Z" transform="translate(-35.758 4.967)" fill="#191919"/>
    </g>
  </g>
</svg>
