<svg xmlns="http://www.w3.org/2000/svg" width="73.576" height="73.552" viewBox="0 0 73.576 73.552">
  <g id="Group_484" data-name="Group 484" transform="translate(-233.644 -644.448)">
    <circle id="Ellipse_45" data-name="Ellipse 45" cx="22.5" cy="22.5" r="22.5" transform="translate(246.433 646)" fill="#ffd000"/>
    <g id="think-different" transform="translate(225.744 1148.373)">
      <path id="Path_1022" data-name="Path 1022" d="M40.692-503.773a3.854,3.854,0,0,0-2.165,2.759c-.089.593-.148.667-1.157,1.216a15.735,15.735,0,0,0-7.89,10.812,11.215,11.215,0,0,0-.208,1.6v.519l-.845-.578a12.679,12.679,0,0,0-3.6-1.735,9.775,9.775,0,0,0-3.411-.475,10.754,10.754,0,0,0-3.485.237,13.318,13.318,0,0,0-9.715,9.655,15.43,15.43,0,0,0,0,6.17c.593,2.329,1.424,3.723,4.657,7.846A16.116,16.116,0,0,1,14.5-463.3l.46.964.074,3.189c.074,3.1.089,3.218.475,4a6.146,6.146,0,0,0,3.574,3.189l.623.178.074,2.432c.074,2.67.148,2.922,1.068,3.8.875.845,1.29.934,4.346.934s3.693.133,3.871.8a1.06,1.06,0,0,1-.608,1.364c-.415.163-1.839.208-8.039.208-7.03,0-7.579.03-8.128.282a3.443,3.443,0,0,0-2,3.278,3.355,3.355,0,0,0,.934,2.507c.9.949,1.335,1.053,4.449,1.053,4.049,0,4.108.044,4.108,3.055v1.691h2.373V-432.6c0-2.492-.119-2.981-.934-3.841-.9-.949-1.335-1.053-4.449-1.053s-3.723-.133-3.9-.8a1.06,1.06,0,0,1,.608-1.365c.415-.163,1.839-.208,8.039-.208,7.03,0,7.579-.03,8.128-.282a3.443,3.443,0,0,0,2-3.278,3.355,3.355,0,0,0-.934-2.507c-.9-.949-1.335-1.053-4.449-1.053-3.293,0-3.693-.1-3.96-.994a10.148,10.148,0,0,1-.119-2.18l.044-1.617.623-.178a6.146,6.146,0,0,0,3.574-3.189c.386-.786.4-.92.475-4.019l.074-3.189.549-1.112a18.174,18.174,0,0,1,1.691-2.507c3.115-3.841,4.227-5.8,4.627-8.142l.1-.623,1.142,1.528a27.639,27.639,0,0,1,1.72,2.64l.593,1.112.059,3.93c.074,4.805.148,5.072,1.839,6.244a1.15,1.15,0,0,1,.682,1.142,4.783,4.783,0,0,0,2.655,3.634l.727.326v.786c0,1.513-.326,1.661-3.426,1.661-2.7,0-3.456.222-4.583,1.335a4.947,4.947,0,0,0-.059,6.748c1.305,1.35,1.172,1.32,8.439,1.409,5.71.074,6.437.1,6.971.341a3.5,3.5,0,0,1,2.151,3.218A3.283,3.283,0,0,1,51.8-436.2c-.831.786-1.468.964-3.841,1.068-2.343.119-2.684.223-3.515,1.083a3.749,3.749,0,0,0-1.009,2.61l-.119,1.068h2.566v-.5a1.914,1.914,0,0,1,.653-1.6A10.583,10.583,0,0,1,49-432.746c1.987-.074,2.225-.1,3.04-.519a6.578,6.578,0,0,0,2.833-2.818,4.385,4.385,0,0,0,.43-2.6,4.385,4.385,0,0,0-.43-2.6,6.693,6.693,0,0,0-2.833-2.833l-.89-.43-6.452-.074c-6.17-.074-6.481-.089-6.971-.386a2.254,2.254,0,0,1,0-3.975c.445-.267.86-.311,3.189-.386,2.922-.089,3.159-.148,4.034-1.068a3.416,3.416,0,0,0,.934-2.7c0-1.1,0-1.1.43-1.2a4.881,4.881,0,0,0,3.144-4.064c0-.475.089-.593.7-.979a5.287,5.287,0,0,0,1.142-1.083l.445-.653.074-4.093.074-4.108.667-1.216a29.975,29.975,0,0,1,1.78-2.729l1.112-1.5.1.638c.415,2.358,1.32,3.96,4.776,8.365a16.641,16.641,0,0,1,1.6,2.373c.4.86.415.979.415,3.189.015,3.678.311,5,1.513,6.437a6.92,6.92,0,0,0,2.714,1.809l.489.089.059,2.24c.074,2.492.222,3.07,1.053,3.945.9.949,1.335,1.053,4.449,1.053s3.723.133,3.9.8a1.06,1.06,0,0,1-.608,1.364c-.415.163-1.839.208-8.039.208-7.03,0-7.579.03-8.128.282a3.443,3.443,0,0,0-2,3.278,3.355,3.355,0,0,0,.934,2.507c.9.949,1.335,1.053,4.449,1.053,4.049,0,4.108.044,4.108,3.055v1.691h2.373V-432.6c0-2.492-.119-2.981-.934-3.841-.9-.949-1.335-1.053-4.449-1.053s-3.723-.133-3.9-.8a1.06,1.06,0,0,1,.608-1.365c.415-.163,1.839-.208,8.039-.208,7.03,0,7.579-.03,8.128-.282a3.443,3.443,0,0,0,2-3.278,3.355,3.355,0,0,0-.934-2.507c-.9-.949-1.335-1.053-4.449-1.053-3.293,0-3.693-.1-3.96-.994a10.148,10.148,0,0,1-.119-2.18l.044-1.617.623-.178a6.146,6.146,0,0,0,3.574-3.189c.386-.786.4-.92.475-4.019l.074-3.189.549-1.112a18.174,18.174,0,0,1,1.691-2.507c2.744-3.4,3.678-4.894,4.36-7.045a15.739,15.739,0,0,0,.163-6.674,13.244,13.244,0,0,0-9.729-9.729,10.754,10.754,0,0,0-3.485-.237,9.775,9.775,0,0,0-3.411.475,12.4,12.4,0,0,0-3.589,1.735l-.86.578v-.564a16.408,16.408,0,0,0-2.329-6.986,16.982,16.982,0,0,0-6.5-5.755c-.623-.267-.638-.3-.7-1.068a2.99,2.99,0,0,0-1.587-2.358c-.638-.326-.756-.341-4.3-.326A33.79,33.79,0,0,0,40.692-503.773Zm6.971,2.4a.769.769,0,0,1,.415.549,43.267,43.267,0,0,1-1.364,4.553l-1.394,4.2h2.254c2.418,0,2.907.133,2.907.756,0,.46-5.4,13.333-5.562,13.289a49.536,49.536,0,0,1-.193-5.858l-.03-5.784-1.987-.059c-1.706-.044-2.032-.089-2.3-.326-.415-.371-.4-.534.148-6.007.475-4.835.549-5.161,1.335-5.369A27.564,27.564,0,0,1,47.663-501.37Zm3.411,3.975a13.388,13.388,0,0,1,3.634,3.055,12.919,12.919,0,0,1,2.047,12.77c-.578,1.468-1.2,2.447-3.456,5.443-1.127,1.5-2.388,3.337-2.818,4.079l-.771,1.335H39.684l-.771-1.335c-.43-.742-1.691-2.581-2.818-4.079-2.788-3.708-3.56-5.1-4.079-7.341a15.682,15.682,0,0,1,.074-5.636,14.934,14.934,0,0,1,2.714-5.339c.831-.979,3.129-2.966,3.278-2.8.03.03-.074,1.261-.237,2.729-.371,3.574-.326,4.865.222,5.68a4.193,4.193,0,0,0,1.023,1.023,2.925,2.925,0,0,0,1.928.46l1.305.059v5.087c0,5.028,0,5.072.341,5.577a2.375,2.375,0,0,0,2.21,1.172,2.391,2.391,0,0,0,2.076-.86c.193-.237,1.646-3.5,3.2-7.267,2.7-6.481,2.848-6.867,2.848-7.786a2.28,2.28,0,0,0-.475-1.676,3.033,3.033,0,0,0-2.759-1.394c-.7,0-.934-.044-.875-.193.03-.089.282-.86.564-1.706a5.54,5.54,0,0,1,.623-1.513A5.92,5.92,0,0,1,51.074-497.4Zm-27.453,10.53a10.179,10.179,0,0,1,4.7,2.729c1.127,1.127,1.216,1.246,1.513,2.343a19.594,19.594,0,0,0,.994,2.432,4.037,4.037,0,0,1,.667,2.714c0,3.07-.667,4.553-3.856,8.543a18.6,18.6,0,0,0-2.744,4.168c-.282.994-.371,0-.371-4.4v-4.746h1.038a3.415,3.415,0,0,0,2.655-.934,3.356,3.356,0,0,0,1.053-2.6,3.371,3.371,0,0,0-3.53-3.589,3.37,3.37,0,0,0-3.589,3.663v1.083H19.78v-1.083a3.37,3.37,0,0,0-3.589-3.663,3.371,3.371,0,0,0-3.53,3.589,3.356,3.356,0,0,0,1.053,2.6,3.415,3.415,0,0,0,2.655.934h1.038v4.746c0,4.4-.089,5.4-.371,4.4a18.6,18.6,0,0,0-2.744-4.168c-3.322-4.168-3.96-5.7-3.826-9.092a9.7,9.7,0,0,1,2.833-6.659A10.383,10.383,0,0,1,23.621-486.865Zm46.333-.252a10.863,10.863,0,0,1,6.066,3.174,9.787,9.787,0,0,1,2.907,6.748c.133,3.4-.5,4.924-3.826,9.092a18.6,18.6,0,0,0-2.744,4.168c-.282.994-.371,0-.371-4.4v-4.746h1.038a3.415,3.415,0,0,0,2.655-.934,3.356,3.356,0,0,0,1.053-2.6,3.371,3.371,0,0,0-3.53-3.589,3.37,3.37,0,0,0-3.589,3.663v1.083H67.24v-1.083a3.369,3.369,0,0,0-3.589-3.663,3.371,3.371,0,0,0-3.53,3.589,3.356,3.356,0,0,0,1.053,2.6,3.415,3.415,0,0,0,2.655.934h1.038v4.746c0,4.4-.089,5.4-.371,4.4a18.6,18.6,0,0,0-2.744-4.168c-3.174-3.99-3.856-5.473-3.856-8.528a4.138,4.138,0,0,1,.667-2.714,17.463,17.463,0,0,0,.994-2.462,3.842,3.842,0,0,1,1.127-1.973,10.451,10.451,0,0,1,6.7-3.4A9.539,9.539,0,0,1,69.954-487.117Zm-53.141,9.581a1.993,1.993,0,0,1,.593,1.572c0,.475-.03.5-.5.5a1.993,1.993,0,0,1-1.572-.593A1.081,1.081,0,0,1,16.814-477.536Zm9.64.148a1.155,1.155,0,0,1,.148,1.335,1.993,1.993,0,0,1-1.572.593c-.475,0-.5-.03-.5-.5a2.165,2.165,0,0,1,.549-1.542A1.164,1.164,0,0,1,26.454-477.388Zm37.82-.148a1.993,1.993,0,0,1,.593,1.572c0,.475-.03.5-.5.5-1.112,0-1.72-.445-1.72-1.246A1.08,1.08,0,0,1,64.274-477.536Zm9.64.148a1.155,1.155,0,0,1,.148,1.335,1.993,1.993,0,0,1-1.572.593c-.475,0-.5-.03-.5-.5a2.165,2.165,0,0,1,.549-1.542A1.164,1.164,0,0,1,73.914-477.388Zm-51.761,9.047v4.746H19.78v-9.492h2.373Zm47.46,0v4.746H67.24v-9.492h2.373Zm-20.171,1.186v1.186H39.95v-2.373h9.492Zm0,4.079a1.669,1.669,0,0,1-.89,1.691,44.643,44.643,0,0,1-7.712,0,1.669,1.669,0,0,1-.89-1.691v-.519h9.492Zm-24.917,3.04v1.187H17.407v-2.373h7.119Zm47.46,0v1.187H64.867v-2.373h7.119Zm-25.065,1.513a2.252,2.252,0,0,1-2.225,1.9,2.252,2.252,0,0,1-2.225-1.9c0-.326.015-.326,2.225-.326S46.921-458.849,46.921-458.523Zm-22.9,2.447a3.521,3.521,0,0,1-3.055,1.824,3.521,3.521,0,0,1-3.055-1.824l-.222-.4h6.555Zm47.46,0a3.521,3.521,0,0,1-3.055,1.824,3.521,3.521,0,0,1-3.055-1.824l-.222-.4H71.7Z"/>
    </g>
  </g>
</svg>
