<svg xmlns="http://www.w3.org/2000/svg" width="111.098" height="68.552" viewBox="0 0 111.098 68.552">
  <g id="Group_487" data-name="Group 487" transform="translate(-1239.511 -833)">
    <circle id="Ellipse_48" data-name="Ellipse 48" cx="22.5" cy="22.5" r="22.5" transform="translate(1247 845)" fill="#ffd000"/>
    <g id="crown_1_" data-name="crown (1)" transform="translate(1239.511 1246.996)">
      <path id="Path_1036" data-name="Path 1036" d="M35.622-413.585a5.866,5.866,0,0,0-3.081,2.907,5.889,5.889,0,0,0,1.128,6.964l1.063,1.106-.694,1.952a60.452,60.452,0,0,1-6.725,13.58c-3.384,4.773-6.487,6.27-9.827,4.686-2.408-1.128-5.489-4.751-7.962-9.35l-1.15-2.169.651-.434a5.615,5.615,0,0,0,2.8-5.228,5.475,5.475,0,0,0-2.907-5.272,7.169,7.169,0,0,0-5.163-.369A5.828,5.828,0,0,0,0-399.571a5.8,5.8,0,0,0,3.428,5.51l.824.412,5.684,16.6,5.684,16.6v14.123l.564.434.586.456H94.3l.586-.456.564-.434v-14.144l5.706-16.639c5.619-16.444,5.684-16.661,6.356-16.9a7.029,7.029,0,0,0,1.605-1.041,6.158,6.158,0,0,0,.065-8.981,5.449,5.449,0,0,0-4.491-1.453,5.4,5.4,0,0,0-4.946,3.211,7.367,7.367,0,0,0-.087,5.272,7.766,7.766,0,0,0,2.365,2.647l.586.434-1.388,2.321c-2.668,4.447-5.272,7.4-7.788,8.916a5.307,5.307,0,0,1-3.1.976,4.491,4.491,0,0,1-3.189-.672c-2.365-1.172-4.859-3.84-7.181-7.68a93.443,93.443,0,0,1-4.794-10.218l-.824-2.213,1.041-.911a5.663,5.663,0,0,0,2.061-4.621,5.711,5.711,0,0,0-5.6-5.922,5.962,5.962,0,0,0-5.988,8.027,6.335,6.335,0,0,0,2.712,3.232,2.105,2.105,0,0,1,.846.586,55.316,55.316,0,0,1-2.278,6.335q-5.727,13.895-11.628,13.884c-3.471,0-7.463-3.883-11.52-11.172a86.176,86.176,0,0,1-3.862-8.114l-.412-1.063.694-.282a6.367,6.367,0,0,0,1.54-1.063,6.162,6.162,0,0,0,.39-8.482A6.349,6.349,0,0,0,35.622-413.585Zm3.775,4.013a2.028,2.028,0,0,1,.065,3.146,2.256,2.256,0,0,1-3.883-1.67,2.563,2.563,0,0,1,1.388-2A1.985,1.985,0,0,1,39.4-409.572Zm33.626,0a2.028,2.028,0,0,1,.065,3.146A2.256,2.256,0,0,1,69.2-408.1a2.563,2.563,0,0,1,1.388-2A1.985,1.985,0,0,1,73.022-409.572ZM7.506-401.111a1.934,1.934,0,0,1,0,3.081,2.181,2.181,0,0,1-3.818-1.584,1.783,1.783,0,0,1,.673-1.562A2.028,2.028,0,0,1,7.506-401.111Zm99.207-.065A2.263,2.263,0,0,1,105-397.293a2.517,2.517,0,0,1-2.169-2.278,1.9,1.9,0,0,1,.738-1.54A2.028,2.028,0,0,1,106.713-401.176ZM38.637-395.34c4.491,9.5,9.2,15.121,14.036,16.726a7.644,7.644,0,0,0,3.384.369,6.96,6.96,0,0,0,3.471-.8c4.013-1.931,8.417-8.222,11.541-16.444a15.5,15.5,0,0,1,.955-2.234,7.827,7.827,0,0,1,.738,1.584C74.823-391,78.4-385.057,81.114-382.3c2.994,3.015,5.662,4.317,8.916,4.317,2.842,0,5.076-.911,7.745-3.189l1.15-.955-2.733,7.983c-1.5,4.382-2.972,8.7-3.276,9.545l-.542,1.584H18.7l-.542-1.584c-.3-.846-1.714-5.011-3.167-9.22l-2.625-7.658.976.846a11.688,11.688,0,0,0,5.141,2.451,9.451,9.451,0,0,0,5.814-.911c1.866-.933,4.881-3.927,6.7-6.7a72.726,72.726,0,0,0,5.337-10.457,18.972,18.972,0,0,1,.868-2.061C37.227-398.291,37.878-396.946,38.637-395.34Zm53.346,41.11v5.1H19.091v-10.2H91.983Z"/>
    </g>
  </g>
</svg>
