<svg xmlns="http://www.w3.org/2000/svg" width="68.527" height="68.552" viewBox="0 0 68.527 68.552">
  <g id="Group_488" data-name="Group 488" transform="translate(-1139.22 -738)">
    <circle id="Ellipse_49" data-name="Ellipse 49" cx="22.5" cy="22.5" r="22.5" transform="translate(1151 740)" fill="#ffd000"/>
    <g id="proposition" transform="translate(1139.22 1250.1)">
      <path id="Path_1037" data-name="Path 1037" d="M29.907-511.9c-.642.294-1.017.789-2.837,3.894-2.168,3.693-2.261,3.934-1.86,5.031.094.254,1.392,2.087,2.877,4.055s2.676,3.613,2.636,3.653-2.89.883-6.329,1.86-6.436,1.873-6.664,1.98c-.335.147-.709.763-2.181,3.533-1.994,3.747-2.114,4.162-1.726,5.526a3.586,3.586,0,0,0,2.7,2.462l.535.161.027,4.737.04,4.737-2.181,1.151c-1.191.642-2.288,1.2-2.435,1.271s-2.462.147-5.152.187l-4.884.067-.723.4a3.994,3.994,0,0,0-1.03.8C0-465.44,0-465.413,0-459.525v5.46l.348.709a3.529,3.529,0,0,0,2.154,1.74,45.49,45.49,0,0,0,5.018.147c2.542,0,4.71.067,5.058.147s5.928,1.847,12.445,3.947l11.842,3.827,1.352-.054a4.008,4.008,0,0,0,2.208-.482c.937-.468,26.8-20.058,27.271-20.661a4.42,4.42,0,0,0,.642-3.814,3.787,3.787,0,0,0-3.559-2.449,5.546,5.546,0,0,0-1.352.187c-.254.094-1.485.816-2.716,1.592s-2.275,1.432-2.315,1.432-.04-2.69-.027-5.981l.04-5.968.749-.254a3.626,3.626,0,0,0,2.368-4.536c-.214-.629-3.426-6.624-3.653-6.811-.094-.08-3.1-.99-6.691-2.007s-6.543-1.887-6.57-1.914,1.124-1.619,2.569-3.519a49.475,49.475,0,0,0,2.89-4.055c.508-1.1.375-1.485-1.713-5.031-1.94-3.319-2.248-3.733-2.957-4.028A149.623,149.623,0,0,0,29.907-511.9Zm3.158,4.188c.9,1.1,1.726,2.087,1.833,2.208.187.228.027.241-3.171.241H28.355l.161-.308,1.285-2.208c.8-1.352,1.191-1.9,1.365-1.9A9.471,9.471,0,0,1,33.065-507.711Zm7.453-1.74c-.107.134-.789.95-1.5,1.806s-1.325,1.579-1.338,1.579a13.585,13.585,0,0,1-.95-1.111c-.508-.6-1.191-1.418-1.512-1.806l-.589-.7h3.038C40.559-509.678,40.706-509.665,40.518-509.451Zm5.219,1.954a19.319,19.319,0,0,1,1.191,2.181c-.027.027-1.525.04-3.332.027l-3.278-.04,1.806-2.181c1.392-1.659,1.887-2.168,2.087-2.141S44.854-509,45.737-507.5Zm-9.206,10.143v5.5l-.709-.91c-.388-.508-2.195-2.917-4.028-5.339s-3.385-4.5-3.466-4.59c-.094-.12.723-.161,4.041-.161h4.162Zm10.491-5.339c-.08.134-7.855,10.451-8.029,10.665-.027.027-.054-2.4-.054-5.379v-5.446h4.095C46.259-502.854,47.1-502.813,47.022-502.693ZM34.176-490.877a21.013,21.013,0,0,0,2.047,2.422,2.721,2.721,0,0,0,3.171-.228,24.334,24.334,0,0,0,1.954-2.4,13.047,13.047,0,0,1,1.686-2.007c.227,0,9.139,2.529,9.394,2.663s-14.612,4.483-14.987,4.389c-1.151-.294-14.666-4.309-14.626-4.349.107-.12,9.26-2.69,9.487-2.663A11.952,11.952,0,0,1,34.176-490.877Zm-6.865,4.416c4.376,1.285,8.056,2.382,8.176,2.435.2.094-.054.549-1.686,3-1.5,2.261-2.007,2.931-2.315,3.024-.335.12-1.378-.174-7.6-2.128-7.761-2.435-7.922-2.5-7.8-3.305a26.2,26.2,0,0,1,1.432-2.93c1.137-2.128,1.418-2.569,1.619-2.5Zm30.59.187a19.817,19.817,0,0,1,1.378,2.89c0,.776-.2.87-7.627,3.2-3.867,1.2-7.119,2.221-7.226,2.235-.642.12-.883-.134-2.85-3.078l-1.954-2.944.763-.214c.415-.12,4.162-1.231,8.323-2.476s7.614-2.235,7.681-2.221A25.149,25.149,0,0,1,57.9-486.274ZM36.477-470.11c-.027.027-3.145-.428-6.918-1.03-7.413-1.178-7.761-1.2-9.313-.682l-.709.241v-3.666c0-2.007.04-3.653.08-3.653s2.462.749,5.379,1.659,5.513,1.7,5.754,1.74a3.911,3.911,0,0,0,2.355-.589,8.331,8.331,0,0,0,1.98-2.449l1.378-2.074.04,5.232C36.517-472.518,36.5-470.136,36.477-470.11Zm6.115-5.794c1.338.682,1.646.629,7.761-1.311,2.93-.923,5.379-1.686,5.46-1.686s.107,2.409.094,6.369l-.04,6.369-1.445.923c-.8.508-1.485.923-1.512.923s-.054-.134-.054-.308a4.555,4.555,0,0,0-1.137-2.168c-.937-.923-1.459-1.07-6.972-1.94-2.783-.442-5.232-.843-5.433-.883l-.375-.08V-480.56l1.445,2.128C41.736-476.412,41.857-476.278,42.593-475.9Zm-6.945,8.176c7.212,1.151,13.314,2.141,13.555,2.221a2.338,2.338,0,0,1,1.271,1.365,1.873,1.873,0,0,1-.99,1.98c-.482.241-.95.254-12.07.254H25.839l-.375.321a1.192,1.192,0,0,0,0,1.766c.375.321.415.321,3.225.321h2.837l3.493,2.65c1.927,1.472,3.666,2.73,3.881,2.81a2.8,2.8,0,0,0,1.914.12c.348-.107,5.473-3.265,11.976-7.386,6.262-3.961,11.535-7.239,11.749-7.266a1.377,1.377,0,0,1,1.352,2.087c-.254.428-25.906,19.925-26.642,20.259-1.111.508-1.111.508-13.609-3.519-6.41-2.061-12.043-3.84-12.525-3.947a36.006,36.006,0,0,0-5.326-.187c-4.67,0-5.085-.053-5.3-.6-.04-.12-.08-2.449-.08-5.165,0-4.737.013-4.951.268-5.205a1.458,1.458,0,0,1,.562-.335c.174-.027,2.355-.08,4.857-.107,5.433-.04,4.737.134,9.3-2.355,3.011-1.646,4.081-2.128,4.8-2.141C22.373-469.8,28.422-468.865,35.648-467.728Zm9.5,8.337c-.094.094-4.376,2.81-4.964,3.158a10.711,10.711,0,0,1-2.315-1.539c-1.178-.883-2.141-1.646-2.141-1.673s2.154-.054,4.777-.054S45.229-459.445,45.148-459.391Z" transform="translate(0 0)"/>
    </g>
  </g>
</svg>
