<svg xmlns="http://www.w3.org/2000/svg" xmlns:xlink="http://www.w3.org/1999/xlink" width="570" height="180" viewBox="0 0 570 180">
  <defs>
    <clipPath id="clip-path">
      <rect id="Rectangle_173" data-name="Rectangle 173" width="120" height="60" transform="translate(472 2303)" fill="#dcd5d5"/>
    </clipPath>
    <clipPath id="clip-path-2">
      <rect id="Rectangle_174" data-name="Rectangle 174" width="120" height="60" transform="translate(294 2412)" fill="#dcd5d5"/>
    </clipPath>
    <clipPath id="clip-path-3">
      <rect id="Rectangle_175" data-name="Rectangle 175" width="120" height="60" transform="translate(343 2293)" fill="#dcd5d5"/>
    </clipPath>
    <clipPath id="clip-path-4">
      <rect id="Rectangle_179" data-name="Rectangle 179" width="120" height="60" transform="translate(533 2126)" fill="#dcd5d5"/>
    </clipPath>
    <clipPath id="clip-path-5">
      <rect id="Rectangle_177" data-name="Rectangle 177" width="120" height="60" transform="translate(425 2317)" fill="#dcd5d5"/>
    </clipPath>
    <clipPath id="clip-path-6">
      <rect id="Rectangle_181" data-name="Rectangle 181" width="100" height="25" transform="translate(-0.243 -0.04)" fill="#080808"/>
    </clipPath>
    <clipPath id="clip-path-7">
      <rect id="Rectangle_186" data-name="Rectangle 186" width="120" height="60" transform="translate(430 2284)" fill="#dcd5d5"/>
    </clipPath>
    <linearGradient id="linear-gradient" x1="0.5" y1="0.086" x2="0.5" y2="1" gradientUnits="objectBoundingBox">
      <stop offset="0" stop-color="#6a6a6a" stop-opacity="0.2"/>
      <stop offset="1" stop-color="#311b92" stop-opacity="0.02"/>
    </linearGradient>
    <radialGradient id="radial-gradient" cx="0.032" cy="0.027" r="1.612" gradientUnits="objectBoundingBox">
      <stop offset="0" stop-color="#fff" stop-opacity="0.102"/>
      <stop offset="1" stop-color="#fff" stop-opacity="0"/>
    </radialGradient>
    <clipPath id="clip-path-8">
      <rect id="Rectangle_187" data-name="Rectangle 187" width="120" height="60" transform="translate(430 2292)" fill="#dcd5d5"/>
    </clipPath>
    <clipPath id="clip-path-9">
      <rect id="Rectangle_116" data-name="Rectangle 116" width="120" height="60" transform="translate(231 2815)" fill="#fff"/>
    </clipPath>
    <clipPath id="clip-path-10">
      <rect id="Rectangle_190" data-name="Rectangle 190" width="120" height="60" transform="translate(574 2125)" fill="#cf8d8d"/>
    </clipPath>
    <clipPath id="clip-path-12">
      <rect id="Rectangle_191" data-name="Rectangle 191" width="120" height="60" transform="translate(586 2114)" fill="#dcd5d5"/>
    </clipPath>
    <clipPath id="clip-path-13">
      <rect id="Rectangle_192" data-name="Rectangle 192" width="120" height="60" transform="translate(660 2121)" fill="#dcd5d5"/>
    </clipPath>
  </defs>
  <g id="Group_389" data-name="Group 389" transform="translate(-436 -1775)">
    <g id="Mask_Group_66" data-name="Mask Group 66" transform="translate(-36 -528)" clip-path="url(#clip-path)">
      <g id="photoshop" transform="translate(472 2315)">
        <g id="Adobe_Photoshop_CC_icon">
          <g id="Surfaces">
            <g id="Outline_no_shadow">
              <path id="Path" d="M6.552,0h23.9A6.54,6.54,0,0,1,37,6.538V29.462A6.54,6.54,0,0,1,30.448,36H6.552A6.54,6.54,0,0,1,0,29.462V6.538A6.54,6.54,0,0,1,6.552,0Z" fill="#080808"/>
            </g>
          </g>
          <g id="Ps" transform="translate(8.325 9.154)">
            <path id="Shape" d="M0,16.092V.262C0,.154.046.092.154.092c.262,0,.509,0,.863-.015.37-.015.755-.015,1.172-.031S3.053.031,3.53.015,4.471,0,4.933,0A9.082,9.082,0,0,1,8.109.477a5.507,5.507,0,0,1,2.066,1.262A4.9,4.9,0,0,1,11.3,3.492a5.876,5.876,0,0,1,.355,2,5.492,5.492,0,0,1-.925,3.277,5.281,5.281,0,0,1-2.482,1.877,10.011,10.011,0,0,1-3.469.523c-.37,0-.617,0-.771-.015s-.37-.015-.663-.015v4.938a.192.192,0,0,1-.17.215H.185C.062,16.292,0,16.231,0,16.092ZM3.361,3.062V8.231c.216.015.416.031.6.031h.817a5.77,5.77,0,0,0,1.773-.277,2.652,2.652,0,0,0,1.264-.815,2.374,2.374,0,0,0,.478-1.585A2.528,2.528,0,0,0,7.94,4.215,2.235,2.235,0,0,0,6.86,3.338a4.532,4.532,0,0,0-1.819-.308c-.4,0-.755,0-1.048.015a3.537,3.537,0,0,0-.632.015Z" fill="#fff"/>
            <path id="Path-2" data-name="Path" d="M21.275,7.292a5.463,5.463,0,0,0-1.48-.523,8.143,8.143,0,0,0-1.727-.2,3.111,3.111,0,0,0-.925.108.792.792,0,0,0-.478.308.814.814,0,0,0-.123.415.684.684,0,0,0,.154.4,1.738,1.738,0,0,0,.524.415c.355.185.725.354,1.095.508a11.177,11.177,0,0,1,2.374,1.123,3.583,3.583,0,0,1,1.218,1.277,3.316,3.316,0,0,1,.355,1.585,3.574,3.574,0,0,1-.6,2.046,3.862,3.862,0,0,1-1.727,1.369,7.077,7.077,0,0,1-2.791.492,10.645,10.645,0,0,1-2.1-.2,6.23,6.23,0,0,1-1.572-.492.3.3,0,0,1-.17-.292V12.954a.167.167,0,0,1,.062-.138.117.117,0,0,1,.139.015,6.606,6.606,0,0,0,1.912.754,7.188,7.188,0,0,0,1.819.231,2.947,2.947,0,0,0,1.28-.215.715.715,0,0,0,.416-.646.815.815,0,0,0-.37-.615,6.545,6.545,0,0,0-1.511-.723,9.441,9.441,0,0,1-2.189-1.108A3.986,3.986,0,0,1,13.69,9.2a3.3,3.3,0,0,1-.355-1.569,3.612,3.612,0,0,1,.524-1.862,3.8,3.8,0,0,1,1.619-1.415,5.989,5.989,0,0,1,2.729-.538,13.316,13.316,0,0,1,1.912.138,5.434,5.434,0,0,1,1.326.354.27.27,0,0,1,.154.138.767.767,0,0,1,.031.185V7.138a.189.189,0,0,1-.077.154A.412.412,0,0,1,21.275,7.292Z" fill="#fff"/>
          </g>
        </g>
        <path id="Adobe" d="M45.979,12l.847-2.046h4.026L51.71,12h.88L49.246,4.212h-.77L45.11,12Zm4.576-2.772H47.123l1.716-4.136Zm4.912,2.9a2.492,2.492,0,0,0,1.089-.253,2.112,2.112,0,0,0,.858-.748h.022V12h.748V3.684h-.748V7.743h-.022a2.126,2.126,0,0,0-.858-.765,2.449,2.449,0,0,0-1.089-.259,2.761,2.761,0,0,0-1.095.209,2.494,2.494,0,0,0-.836.572A2.583,2.583,0,0,0,53,8.359a3.053,3.053,0,0,0,0,2.134,2.583,2.583,0,0,0,.539.858,2.494,2.494,0,0,0,.836.572A2.761,2.761,0,0,0,55.467,12.132Zm.077-.638a2.032,2.032,0,0,1-.825-.16,1.729,1.729,0,0,1-.611-.44,1.957,1.957,0,0,1-.379-.66,2.542,2.542,0,0,1,0-1.617,1.957,1.957,0,0,1,.379-.66,1.789,1.789,0,0,1,.611-.445,1.973,1.973,0,0,1,.825-.165,1.947,1.947,0,0,1,.792.159,1.9,1.9,0,0,1,.627.44,2.032,2.032,0,0,1,.413.66,2.335,2.335,0,0,1,0,1.639,1.969,1.969,0,0,1-.413.655,1.942,1.942,0,0,1-1.419.594Zm6.5.638a2.951,2.951,0,0,0,1.111-.2A2.539,2.539,0,0,0,64.587,10.5a2.957,2.957,0,0,0,0-2.156,2.594,2.594,0,0,0-.566-.858,2.568,2.568,0,0,0-.869-.566,2.951,2.951,0,0,0-1.111-.2,2.921,2.921,0,0,0-1.1.2,2.539,2.539,0,0,0-1.436,1.424,2.957,2.957,0,0,0,0,2.156,2.539,2.539,0,0,0,1.436,1.425A2.92,2.92,0,0,0,62.041,12.132Zm0-.638a1.965,1.965,0,0,1-.808-.16,1.8,1.8,0,0,1-.611-.44,1.979,1.979,0,0,1-.391-.66,2.446,2.446,0,0,1,0-1.617,1.979,1.979,0,0,1,.391-.66,1.861,1.861,0,0,1,.611-.445,1.908,1.908,0,0,1,.808-.165,1.945,1.945,0,0,1,.814.165,1.848,1.848,0,0,1,.616.445,1.983,1.983,0,0,1,.39.66,2.446,2.446,0,0,1,0,1.617,1.983,1.983,0,0,1-.39.66,1.784,1.784,0,0,1-.616.44A2,2,0,0,1,62.041,11.494Zm6.584.638a2.762,2.762,0,0,0,1.094-.209,2.494,2.494,0,0,0,.836-.572,2.584,2.584,0,0,0,.539-.858,3.053,3.053,0,0,0,0-2.134,2.584,2.584,0,0,0-.539-.858,2.494,2.494,0,0,0-.836-.572,2.761,2.761,0,0,0-1.094-.209,2.449,2.449,0,0,0-1.089.259,2.126,2.126,0,0,0-.858.765h-.022V3.684h-.748V12h.748v-.869h.022a2.112,2.112,0,0,0,.858.748A2.492,2.492,0,0,0,68.625,12.132Zm-.077-.638a1.942,1.942,0,0,1-1.419-.594,1.969,1.969,0,0,1-.412-.655,2.335,2.335,0,0,1,0-1.639,2.032,2.032,0,0,1,.412-.66,1.9,1.9,0,0,1,.627-.44,1.947,1.947,0,0,1,.792-.159,1.973,1.973,0,0,1,.825.165,1.789,1.789,0,0,1,.61.445,1.957,1.957,0,0,1,.38.66,2.542,2.542,0,0,1,0,1.617,1.957,1.957,0,0,1-.38.66,1.729,1.729,0,0,1-.61.44A2.032,2.032,0,0,1,68.548,11.494Zm6.122.638a2.844,2.844,0,0,0,1.194-.253,2.79,2.79,0,0,0,1.018-.836h0l-.561-.44a2.013,2.013,0,0,1-.644.622,1.967,1.967,0,0,1-1.743.121,1.909,1.909,0,0,1-.594-.4,1.836,1.836,0,0,1-.4-.594,2.011,2.011,0,0,1-.154-.726h4.268a1.681,1.681,0,0,0,.011-.187h0V9.272a3.011,3.011,0,0,0-.16-.99,2.361,2.361,0,0,0-.467-.808,2.2,2.2,0,0,0-.77-.55,2.625,2.625,0,0,0-1.067-.2,2.561,2.561,0,0,0-1.023.2,2.53,2.53,0,0,0-.825.566,2.611,2.611,0,0,0-.55.858,2.876,2.876,0,0,0-.2,1.078,2.809,2.809,0,0,0,.2,1.078,2.686,2.686,0,0,0,.555.858,2.488,2.488,0,0,0,.841.566A2.737,2.737,0,0,0,74.67,12.132Zm1.639-3.1H72.8a1.739,1.739,0,0,1,.165-.632,1.861,1.861,0,0,1,.385-.539,1.834,1.834,0,0,1,.561-.374,1.732,1.732,0,0,1,.693-.137,1.586,1.586,0,0,1,1.237.478,1.855,1.855,0,0,1,.467,1.2Z" fill="#080808"/>
        <path id="Photoshop-2" data-name="Photoshop" d="M48.264,30V25.312h1.552a7.88,7.88,0,0,0,1.7-.176,4.175,4.175,0,0,0,1.4-.568,2.856,2.856,0,0,0,.952-1.032,3.251,3.251,0,0,0,.352-1.584,3.406,3.406,0,0,0-.3-1.5,2.682,2.682,0,0,0-.864-1.024,3.664,3.664,0,0,0-1.344-.576,8.061,8.061,0,0,0-1.76-.176h-3.7V30Zm1.408-6.384H48.264V20.368h1.472a7.161,7.161,0,0,1,.9.056,2.364,2.364,0,0,1,.784.232,1.34,1.34,0,0,1,.76,1.3,1.5,1.5,0,0,1-.208.832,1.463,1.463,0,0,1-.56.5,2.608,2.608,0,0,1-.8.256,5.947,5.947,0,0,1-.944.072ZM57.121,30V25.808a2.571,2.571,0,0,1,.112-.752,2.108,2.108,0,0,1,.336-.664,1.657,1.657,0,0,1,.56-.472,1.7,1.7,0,0,1,.8-.176,1.293,1.293,0,0,1,.744.192,1.309,1.309,0,0,1,.432.488,2,2,0,0,1,.2.656,5.267,5.267,0,0,1,.048.7h0V30h1.92V25.2a4.171,4.171,0,0,0-.16-1.152,2.813,2.813,0,0,0-.5-.992,2.538,2.538,0,0,0-.88-.7,2.889,2.889,0,0,0-1.288-.264,2.735,2.735,0,0,0-.8.112,2.639,2.639,0,0,0-.656.3,2.587,2.587,0,0,0-.5.416,1.845,1.845,0,0,0-.328.472h-.032V17.9H55.2V30Zm10.377.224a4.393,4.393,0,0,0,1.632-.3,4.056,4.056,0,0,0,1.328-.84,3.941,3.941,0,0,0,.888-1.288,4.119,4.119,0,0,0,.328-1.664,4.063,4.063,0,0,0-.328-1.656,3.873,3.873,0,0,0-.888-1.272,3.914,3.914,0,0,0-1.328-.816,4.768,4.768,0,0,0-3.264,0,3.914,3.914,0,0,0-1.328.816,3.873,3.873,0,0,0-.888,1.272,4.061,4.061,0,0,0-.328,1.656,4.118,4.118,0,0,0,.328,1.664,3.942,3.942,0,0,0,.888,1.288,4.056,4.056,0,0,0,1.328.84A4.393,4.393,0,0,0,67.5,30.224Zm0-1.6a2.065,2.065,0,0,1-.992-.224,2.135,2.135,0,0,1-.688-.576,2.469,2.469,0,0,1-.408-.8,3.069,3.069,0,0,1-.136-.9,2.99,2.99,0,0,1,.136-.888,2.484,2.484,0,0,1,.408-.792,2.049,2.049,0,0,1,.688-.568,2.386,2.386,0,0,1,1.984,0,2.049,2.049,0,0,1,.688.568,2.484,2.484,0,0,1,.408.792,2.99,2.99,0,0,1,.136.888,3.069,3.069,0,0,1-.136.9,2.469,2.469,0,0,1-.408.8,2.135,2.135,0,0,1-.688.576A2.065,2.065,0,0,1,67.5,28.624Zm8.025,1.536A4.284,4.284,0,0,0,76.2,30.1a3.152,3.152,0,0,0,.608-.152h0l-.064-1.5a1.679,1.679,0,0,1-.4.12,2.373,2.373,0,0,1-.416.04q-.64,0-.824-.336a1.752,1.752,0,0,1-.184-.848h0V23.856h1.92V22.32h-1.92V20.1H73.027V22.32H71.683v1.536h1.344V27.44a5.026,5.026,0,0,0,.1,1.048,2.194,2.194,0,0,0,.384.864,1.892,1.892,0,0,0,.76.592A3.066,3.066,0,0,0,75.523,30.16Zm5.689.064a4.393,4.393,0,0,0,1.632-.3,4.057,4.057,0,0,0,1.328-.84,3.941,3.941,0,0,0,.888-1.288,4.119,4.119,0,0,0,.328-1.664,4.063,4.063,0,0,0-.328-1.656,3.873,3.873,0,0,0-.888-1.272,3.915,3.915,0,0,0-1.328-.816,4.768,4.768,0,0,0-3.264,0,3.914,3.914,0,0,0-1.328.816,3.87,3.87,0,0,0-.888,1.272,4.061,4.061,0,0,0-.328,1.656,4.118,4.118,0,0,0,.328,1.664,3.938,3.938,0,0,0,.888,1.288,4.056,4.056,0,0,0,1.328.84A4.393,4.393,0,0,0,81.213,30.224Zm0-1.6a2.065,2.065,0,0,1-.992-.224,2.134,2.134,0,0,1-.688-.576,2.465,2.465,0,0,1-.408-.8,3.069,3.069,0,0,1-.136-.9,2.99,2.99,0,0,1,.136-.888,2.48,2.48,0,0,1,.408-.792,2.048,2.048,0,0,1,.688-.568,2.386,2.386,0,0,1,1.984,0,2.05,2.05,0,0,1,.688.568,2.484,2.484,0,0,1,.408.792,2.994,2.994,0,0,1,.136.888,3.073,3.073,0,0,1-.136.9,2.469,2.469,0,0,1-.408.8,2.136,2.136,0,0,1-.688.576A2.065,2.065,0,0,1,81.213,28.624Zm7.529,1.6a5.307,5.307,0,0,0,1.208-.136,2.964,2.964,0,0,0,1.024-.44,2.245,2.245,0,0,0,.7-.792,2.476,2.476,0,0,0,.264-1.192,1.89,1.89,0,0,0-.224-.952,2.089,2.089,0,0,0-.584-.656,3.186,3.186,0,0,0-.8-.424,6.98,6.98,0,0,0-.872-.256A7.756,7.756,0,0,1,88.222,25a.642.642,0,0,1-.424-.632.662.662,0,0,1,.384-.64,1.869,1.869,0,0,1,.848-.192,1.982,1.982,0,0,1,.976.248,2.216,2.216,0,0,1,.7.584h0l1.248-1.1a2.742,2.742,0,0,0-1.256-.88,4.717,4.717,0,0,0-1.624-.288,4.358,4.358,0,0,0-1.12.144,3.127,3.127,0,0,0-.976.44,2.267,2.267,0,0,0-.7.76,2.2,2.2,0,0,0-.264,1.1,1.956,1.956,0,0,0,.192.912,1.854,1.854,0,0,0,.512.616,2.741,2.741,0,0,0,.728.4,6.352,6.352,0,0,0,.84.248,7.091,7.091,0,0,1,1.32.416.709.709,0,0,1,.44.688.788.788,0,0,1-.112.432.827.827,0,0,1-.3.28,1.446,1.446,0,0,1-.4.152,1.951,1.951,0,0,1-.424.048,2.383,2.383,0,0,1-1.136-.272,2.525,2.525,0,0,1-.832-.688h0L85.59,28.96A3.689,3.689,0,0,0,87,29.9,4.794,4.794,0,0,0,88.742,30.224ZM94.815,30V25.808a2.568,2.568,0,0,1,.112-.752,2.1,2.1,0,0,1,.336-.664,1.656,1.656,0,0,1,.56-.472,1.7,1.7,0,0,1,.8-.176,1.293,1.293,0,0,1,.744.192,1.311,1.311,0,0,1,.432.488,2,2,0,0,1,.2.656,5.268,5.268,0,0,1,.048.7h0V30h1.92V25.2a4.175,4.175,0,0,0-.16-1.152,2.817,2.817,0,0,0-.5-.992,2.54,2.54,0,0,0-.88-.7,2.89,2.89,0,0,0-1.288-.264,2.735,2.735,0,0,0-.8.112,2.637,2.637,0,0,0-.656.3,2.587,2.587,0,0,0-.5.416,1.842,1.842,0,0,0-.328.472h-.032V17.9h-1.92V30Zm10.377.224a4.393,4.393,0,0,0,1.632-.3,4.053,4.053,0,0,0,1.328-.84,3.951,3.951,0,0,0,.888-1.288,4.113,4.113,0,0,0,.328-1.664,4.056,4.056,0,0,0-.328-1.656,3.816,3.816,0,0,0-2.216-2.088,4.768,4.768,0,0,0-3.264,0,3.816,3.816,0,0,0-2.216,2.088,4.056,4.056,0,0,0-.328,1.656,4.113,4.113,0,0,0,.328,1.664,3.951,3.951,0,0,0,.888,1.288,4.053,4.053,0,0,0,1.328.84A4.393,4.393,0,0,0,105.192,30.224Zm0-1.6a2.064,2.064,0,0,1-.992-.224,2.135,2.135,0,0,1-.688-.576,2.481,2.481,0,0,1-.408-.8,3.06,3.06,0,0,1-.136-.9,2.981,2.981,0,0,1,.136-.888,2.5,2.5,0,0,1,.408-.792,2.049,2.049,0,0,1,.688-.568,2.386,2.386,0,0,1,1.984,0,2.049,2.049,0,0,1,.688.568,2.5,2.5,0,0,1,.408.792,2.98,2.98,0,0,1,.136.888,3.059,3.059,0,0,1-.136.9,2.481,2.481,0,0,1-.408.8,2.135,2.135,0,0,1-.688.576A2.064,2.064,0,0,1,105.192,28.624ZM112.4,33.84V28.976h.032a2.547,2.547,0,0,0,1.048.912,3.329,3.329,0,0,0,1.5.336,3.652,3.652,0,0,0,1.576-.328,3.616,3.616,0,0,0,1.184-.88,3.91,3.91,0,0,0,.752-1.3,4.726,4.726,0,0,0,.264-1.592,4.542,4.542,0,0,0-.272-1.584,3.855,3.855,0,0,0-.768-1.28,3.582,3.582,0,0,0-2.688-1.168,3.5,3.5,0,0,0-.952.12,3.635,3.635,0,0,0-.76.3,2.49,2.49,0,0,0-.568.416,2.766,2.766,0,0,0-.376.456h-.048V22.32h-1.84V33.84Zm2.192-5.216a2.017,2.017,0,0,1-.944-.216,2.312,2.312,0,0,1-.712-.568,2.476,2.476,0,0,1-.448-.792,2.712,2.712,0,0,1-.152-.888,2.783,2.783,0,0,1,.152-.9,2.458,2.458,0,0,1,.448-.8,2.417,2.417,0,0,1,.712-.576,1.959,1.959,0,0,1,.944-.224,2.09,2.09,0,0,1,.976.216,2.049,2.049,0,0,1,.688.568,2.5,2.5,0,0,1,.408.792,2.981,2.981,0,0,1,.136.888,3.06,3.06,0,0,1-.136.9,2.481,2.481,0,0,1-.408.8,2.135,2.135,0,0,1-.688.576A2.029,2.029,0,0,1,114.593,28.624Z" fill="#080808"/>
      </g>
    </g>
    <g id="Mask_Group_67" data-name="Mask Group 67" transform="translate(142 -577)" clip-path="url(#clip-path-2)">
      <g id="xd" transform="translate(294 2424)">
        <g id="Adobe_XD_CC_icon">
          <g id="Surfaces-2" data-name="Surfaces">
            <g id="Outline_no_shadow-2" data-name="Outline_no_shadow">
              <path id="Path-3" data-name="Path" d="M6.552,0h23.9A6.54,6.54,0,0,1,37,6.538V29.462A6.54,6.54,0,0,1,30.448,36H6.552A6.54,6.54,0,0,1,0,29.462V6.538A6.54,6.54,0,0,1,6.552,0Z" fill="#080808"/>
            </g>
          </g>
          <g id="Xd-2" data-name="Xd" transform="translate(5.39 7.89)">
            <path id="Path-4" data-name="Path" d="M14.066,1.572,9.441,9.187l4.933,8.077a.265.265,0,0,1,.031.185c-.015.062-.077.015-.17.031h-3.53c-.247,0-.416-.015-.524-.169-.324-.646-.663-1.277-.987-1.923-.324-.631-.678-1.277-1.048-1.939s-.74-1.323-1.11-2H7.005c-.324.662-.678,1.323-1.033,1.985S5.263,14.756,4.924,15.4c-.355.646-.709,1.308-1.064,1.939-.062.154-.185.169-.355.169H.114c-.062,0-.108.031-.108-.046a.213.213,0,0,1,.031-.169L4.831,9.449.16,1.556C.114,1.495.1,1.433.129,1.4a.179.179,0,0,1,.154-.062h3.5A.912.912,0,0,1,4,1.372a.437.437,0,0,1,.154.138c.293.662.632,1.323.987,1.985.37.662.725,1.308,1.11,1.954.37.646.709,1.292,1.033,1.954h.031c.324-.677.663-1.338,1-1.985s.694-1.292,1.048-1.938.694-1.308,1.033-1.938a.261.261,0,0,1,.092-.154.294.294,0,0,1,.2-.031h3.253a.142.142,0,0,1,.17.108c.015.015-.015.077-.046.108Z" fill="#fff"/>
            <path id="Shape-2" data-name="Shape" d="M21.188,17.8a7.678,7.678,0,0,1-3.314-.692,5.371,5.371,0,0,1-2.328-2.092A6.646,6.646,0,0,1,14.7,11.51a6.309,6.309,0,0,1,.848-3.246A6.4,6.4,0,0,1,18,5.879a7.9,7.9,0,0,1,3.9-.892A2.761,2.761,0,0,1,22.222,5c.139.015.293.015.478.031V.172c0-.108.046-.169.154-.169h3.13a.138.138,0,0,1,.154.108V14.787c0,.277.015.585.031.923.031.323.046.631.062.892a.25.25,0,0,1-.154.246,11.787,11.787,0,0,1-2.513.739A13.622,13.622,0,0,1,21.188,17.8ZM22.7,14.726V7.956a3.953,3.953,0,0,0-.416-.077c-.17-.015-.339-.031-.509-.031a3.807,3.807,0,0,0-1.742.4,3.453,3.453,0,0,0-1.31,1.138,3.4,3.4,0,0,0-.509,1.954,4.28,4.28,0,0,0,.262,1.585,3.006,3.006,0,0,0,.694,1.092,2.665,2.665,0,0,0,1.048.615,4.045,4.045,0,0,0,1.28.2c.231,0,.447-.015.647-.031A1.351,1.351,0,0,0,22.7,14.726Z" fill="#fff"/>
          </g>
        </g>
        <path id="Adobe-2" data-name="Adobe" d="M45.979,12l.847-2.046h4.026L51.71,12h.88L49.246,4.212h-.77L45.11,12Zm4.576-2.772H47.123l1.716-4.136Zm4.912,2.9a2.492,2.492,0,0,0,1.089-.253,2.112,2.112,0,0,0,.858-.748h.022V12h.748V3.684h-.748V7.743h-.022a2.126,2.126,0,0,0-.858-.765,2.449,2.449,0,0,0-1.089-.259,2.761,2.761,0,0,0-1.095.209,2.494,2.494,0,0,0-.836.572A2.583,2.583,0,0,0,53,8.359a3.053,3.053,0,0,0,0,2.134,2.583,2.583,0,0,0,.539.858,2.494,2.494,0,0,0,.836.572A2.761,2.761,0,0,0,55.467,12.132Zm.077-.638a2.032,2.032,0,0,1-.825-.16,1.729,1.729,0,0,1-.611-.44,1.957,1.957,0,0,1-.379-.66,2.542,2.542,0,0,1,0-1.617,1.957,1.957,0,0,1,.379-.66,1.789,1.789,0,0,1,.611-.445,1.973,1.973,0,0,1,.825-.165,1.947,1.947,0,0,1,.792.159,1.9,1.9,0,0,1,.627.44,2.032,2.032,0,0,1,.413.66,2.335,2.335,0,0,1,0,1.639,1.969,1.969,0,0,1-.413.655,1.942,1.942,0,0,1-1.419.594Zm6.5.638a2.951,2.951,0,0,0,1.111-.2A2.539,2.539,0,0,0,64.587,10.5a2.957,2.957,0,0,0,0-2.156,2.594,2.594,0,0,0-.566-.858,2.568,2.568,0,0,0-.869-.566,2.951,2.951,0,0,0-1.111-.2,2.921,2.921,0,0,0-1.1.2,2.539,2.539,0,0,0-1.436,1.424,2.957,2.957,0,0,0,0,2.156,2.539,2.539,0,0,0,1.436,1.425A2.92,2.92,0,0,0,62.041,12.132Zm0-.638a1.965,1.965,0,0,1-.808-.16,1.8,1.8,0,0,1-.611-.44,1.979,1.979,0,0,1-.391-.66,2.446,2.446,0,0,1,0-1.617,1.979,1.979,0,0,1,.391-.66,1.861,1.861,0,0,1,.611-.445,1.908,1.908,0,0,1,.808-.165,1.945,1.945,0,0,1,.814.165,1.848,1.848,0,0,1,.616.445,1.983,1.983,0,0,1,.39.66,2.446,2.446,0,0,1,0,1.617,1.983,1.983,0,0,1-.39.66,1.784,1.784,0,0,1-.616.44A2,2,0,0,1,62.041,11.494Zm6.584.638a2.762,2.762,0,0,0,1.094-.209,2.494,2.494,0,0,0,.836-.572,2.584,2.584,0,0,0,.539-.858,3.053,3.053,0,0,0,0-2.134,2.584,2.584,0,0,0-.539-.858,2.494,2.494,0,0,0-.836-.572,2.761,2.761,0,0,0-1.094-.209,2.449,2.449,0,0,0-1.089.259,2.126,2.126,0,0,0-.858.765h-.022V3.684h-.748V12h.748v-.869h.022a2.112,2.112,0,0,0,.858.748A2.492,2.492,0,0,0,68.625,12.132Zm-.077-.638a1.942,1.942,0,0,1-1.419-.594,1.969,1.969,0,0,1-.412-.655,2.335,2.335,0,0,1,0-1.639,2.032,2.032,0,0,1,.412-.66,1.9,1.9,0,0,1,.627-.44,1.947,1.947,0,0,1,.792-.159,1.973,1.973,0,0,1,.825.165,1.789,1.789,0,0,1,.61.445,1.957,1.957,0,0,1,.38.66,2.542,2.542,0,0,1,0,1.617,1.957,1.957,0,0,1-.38.66,1.729,1.729,0,0,1-.61.44A2.032,2.032,0,0,1,68.548,11.494Zm6.122.638a2.844,2.844,0,0,0,1.194-.253,2.79,2.79,0,0,0,1.018-.836h0l-.561-.44a2.013,2.013,0,0,1-.644.622,1.967,1.967,0,0,1-1.743.121,1.909,1.909,0,0,1-.594-.4,1.836,1.836,0,0,1-.4-.594,2.011,2.011,0,0,1-.154-.726h4.268a1.681,1.681,0,0,0,.011-.187h0V9.272a3.011,3.011,0,0,0-.16-.99,2.361,2.361,0,0,0-.467-.808,2.2,2.2,0,0,0-.77-.55,2.625,2.625,0,0,0-1.067-.2,2.561,2.561,0,0,0-1.023.2,2.53,2.53,0,0,0-.825.566,2.611,2.611,0,0,0-.55.858,2.876,2.876,0,0,0-.2,1.078,2.809,2.809,0,0,0,.2,1.078,2.686,2.686,0,0,0,.555.858,2.488,2.488,0,0,0,.841.566A2.737,2.737,0,0,0,74.67,12.132Zm1.639-3.1H72.8a1.739,1.739,0,0,1,.165-.632,1.861,1.861,0,0,1,.385-.539,1.834,1.834,0,0,1,.561-.374,1.732,1.732,0,0,1,.693-.137,1.586,1.586,0,0,1,1.237.478,1.855,1.855,0,0,1,.467,1.2Z" fill="#080808"/>
        <path id="XD-3" data-name="XD" d="M47.5,30l2.656-4.448L52.92,30h2.544L51.4,24l3.456-5.328h-2.32l-2.3,3.872L47.9,18.672H45.464l3.52,5.28L45.064,30Zm12.553,0a7.881,7.881,0,0,0,2.224-.328,6.086,6.086,0,0,0,2.016-1.016,5.24,5.24,0,0,0,1.456-1.76,5.462,5.462,0,0,0,.56-2.56,5.778,5.778,0,0,0-.56-2.68,4.982,4.982,0,0,0-1.456-1.744,5.758,5.758,0,0,0-2.016-.952,8.9,8.9,0,0,0-2.224-.288H56.033V30Zm-.32-1.76h-1.68V20.4h1.68a7.82,7.82,0,0,1,1.568.16,3.843,3.843,0,0,1,1.416.592,3.216,3.216,0,0,1,1.032,1.2,4.288,4.288,0,0,1,.4,1.984,4.03,4.03,0,0,1-.4,1.9,3.318,3.318,0,0,1-1.032,1.192,4.088,4.088,0,0,1-1.416.624,6.84,6.84,0,0,1-1.568.184Z" fill="#080808"/>
      </g>
    </g>
    <g id="Mask_Group_68" data-name="Mask Group 68" transform="translate(93 -398)" clip-path="url(#clip-path-3)">
      <g id="illustrator" transform="translate(343 2305)">
        <g id="Group-57">
          <g id="Adobe-Illustrator-CC-logo">
            <g id="vlpb">
              <g id="vlpd">
                <path id="Path-5" data-name="Path" d="M6.552,0h23.9A6.54,6.54,0,0,1,37,6.538V29.462A6.54,6.54,0,0,1,30.448,36H6.552A6.54,6.54,0,0,1,0,29.462V6.538A6.54,6.54,0,0,1,6.552,0Z" fill="#080808"/>
              </g>
            </g>
            <g id="vlpf" transform="translate(7.599 7.985)">
              <path id="Shape-3" data-name="Shape" d="M10.284,13.554H4.549L3.378,17.169a.27.27,0,0,1-.293.215H.186c-.17,0-.216-.092-.17-.277L4.981,2.846c.046-.154.093-.323.154-.508a5.363,5.363,0,0,0,.092-1,.152.152,0,0,1,.123-.169H9.344c.123,0,.185.046.2.123l5.627,15.846c.046.169,0,.246-.154.246H11.8a.233.233,0,0,1-.247-.169l-1.264-3.662ZM5.444,10.431H9.359c-.093-.323-.216-.708-.355-1.108C8.866,8.908,8.727,8.462,8.589,8c-.154-.477-.293-.938-.447-1.415s-.293-.923-.416-1.369c-.123-.431-.231-.831-.339-1.2H7.355A18.859,18.859,0,0,1,6.831,6c-.231.738-.463,1.508-.709,2.277-.216.785-.447,1.508-.678,2.154Z" fill="#fff"/>
              <path id="Shape-4" data-name="Shape" d="M18.609,3.862a1.91,1.91,0,0,1-1.372-.538,2,2,0,0,1-.524-1.415A1.808,1.808,0,0,1,17.268.538,1.977,1.977,0,0,1,18.64,0a1.848,1.848,0,0,1,1.4.538,1.94,1.94,0,0,1,.509,1.369,1.945,1.945,0,0,1-.54,1.415A1.815,1.815,0,0,1,18.609,3.862ZM16.883,17.215V5.369c0-.154.062-.215.2-.215h3.052c.139,0,.2.077.2.215V17.215c0,.169-.062.246-.2.246H17.114a.215.215,0,0,1-.231-.246Z" fill="#fff"/>
            </g>
          </g>
          <path id="Adobe-3" data-name="Adobe" d="M45.979,12l.847-2.046h4.026L51.71,12h.88L49.246,4.212h-.77L45.11,12Zm4.576-2.772H47.123l1.716-4.136Zm4.912,2.9a2.492,2.492,0,0,0,1.089-.253,2.112,2.112,0,0,0,.858-.748h.022V12h.748V3.684h-.748V7.743h-.022a2.126,2.126,0,0,0-.858-.765,2.449,2.449,0,0,0-1.089-.259,2.761,2.761,0,0,0-1.095.209,2.494,2.494,0,0,0-.836.572A2.583,2.583,0,0,0,53,8.359a3.053,3.053,0,0,0,0,2.134,2.583,2.583,0,0,0,.539.858,2.494,2.494,0,0,0,.836.572A2.761,2.761,0,0,0,55.467,12.132Zm.077-.638a2.032,2.032,0,0,1-.825-.16,1.729,1.729,0,0,1-.611-.44,1.957,1.957,0,0,1-.379-.66,2.542,2.542,0,0,1,0-1.617,1.957,1.957,0,0,1,.379-.66,1.789,1.789,0,0,1,.611-.445,1.973,1.973,0,0,1,.825-.165,1.947,1.947,0,0,1,.792.159,1.9,1.9,0,0,1,.627.44,2.032,2.032,0,0,1,.413.66,2.335,2.335,0,0,1,0,1.639,1.969,1.969,0,0,1-.413.655,1.942,1.942,0,0,1-1.419.594Zm6.5.638a2.951,2.951,0,0,0,1.111-.2A2.539,2.539,0,0,0,64.587,10.5a2.957,2.957,0,0,0,0-2.156,2.594,2.594,0,0,0-.566-.858,2.568,2.568,0,0,0-.869-.566,2.951,2.951,0,0,0-1.111-.2,2.921,2.921,0,0,0-1.1.2,2.539,2.539,0,0,0-1.436,1.424,2.957,2.957,0,0,0,0,2.156,2.539,2.539,0,0,0,1.436,1.425A2.92,2.92,0,0,0,62.041,12.132Zm0-.638a1.965,1.965,0,0,1-.808-.16,1.8,1.8,0,0,1-.611-.44,1.979,1.979,0,0,1-.391-.66,2.446,2.446,0,0,1,0-1.617,1.979,1.979,0,0,1,.391-.66,1.861,1.861,0,0,1,.611-.445,1.908,1.908,0,0,1,.808-.165,1.945,1.945,0,0,1,.814.165,1.848,1.848,0,0,1,.616.445,1.983,1.983,0,0,1,.39.66,2.446,2.446,0,0,1,0,1.617,1.983,1.983,0,0,1-.39.66,1.784,1.784,0,0,1-.616.44A2,2,0,0,1,62.041,11.494Zm6.584.638a2.762,2.762,0,0,0,1.094-.209,2.494,2.494,0,0,0,.836-.572,2.584,2.584,0,0,0,.539-.858,3.053,3.053,0,0,0,0-2.134,2.584,2.584,0,0,0-.539-.858,2.494,2.494,0,0,0-.836-.572,2.761,2.761,0,0,0-1.094-.209,2.449,2.449,0,0,0-1.089.259,2.126,2.126,0,0,0-.858.765h-.022V3.684h-.748V12h.748v-.869h.022a2.112,2.112,0,0,0,.858.748A2.492,2.492,0,0,0,68.625,12.132Zm-.077-.638a1.942,1.942,0,0,1-1.419-.594,1.969,1.969,0,0,1-.412-.655,2.335,2.335,0,0,1,0-1.639,2.032,2.032,0,0,1,.412-.66,1.9,1.9,0,0,1,.627-.44,1.947,1.947,0,0,1,.792-.159,1.973,1.973,0,0,1,.825.165,1.789,1.789,0,0,1,.61.445,1.957,1.957,0,0,1,.38.66,2.542,2.542,0,0,1,0,1.617,1.957,1.957,0,0,1-.38.66,1.729,1.729,0,0,1-.61.44A2.032,2.032,0,0,1,68.548,11.494Zm6.122.638a2.844,2.844,0,0,0,1.194-.253,2.79,2.79,0,0,0,1.018-.836h0l-.561-.44a2.013,2.013,0,0,1-.644.622,1.967,1.967,0,0,1-1.743.121,1.909,1.909,0,0,1-.594-.4,1.836,1.836,0,0,1-.4-.594,2.011,2.011,0,0,1-.154-.726h4.268a1.681,1.681,0,0,0,.011-.187h0V9.272a3.011,3.011,0,0,0-.16-.99,2.361,2.361,0,0,0-.467-.808,2.2,2.2,0,0,0-.77-.55,2.625,2.625,0,0,0-1.067-.2,2.561,2.561,0,0,0-1.023.2,2.53,2.53,0,0,0-.825.566,2.611,2.611,0,0,0-.55.858,2.876,2.876,0,0,0-.2,1.078,2.809,2.809,0,0,0,.2,1.078,2.686,2.686,0,0,0,.555.858,2.488,2.488,0,0,0,.841.566A2.737,2.737,0,0,0,74.67,12.132Zm1.639-3.1H72.8a1.739,1.739,0,0,1,.165-.632,1.861,1.861,0,0,1,.385-.539,1.834,1.834,0,0,1,.561-.374,1.732,1.732,0,0,1,.693-.137,1.586,1.586,0,0,1,1.237.478,1.855,1.855,0,0,1,.467,1.2Z" fill="#080808"/>
          <path id="Illustrator-2" data-name="Illustrator" d="M48.264,30V18.672H46.248V30Zm3.609,0V17.9h-1.92V30Zm3.545,0V17.9H53.5V30Zm4.361.224a2.552,2.552,0,0,0,1.5-.44,2.482,2.482,0,0,0,.888-1.016H62.2V30h1.824V22.32H62.1v4.224a2.648,2.648,0,0,1-.112.76,2.088,2.088,0,0,1-.328.664,1.675,1.675,0,0,1-.56.472,1.653,1.653,0,0,1-.792.184,1.293,1.293,0,0,1-.744-.192,1.381,1.381,0,0,1-.44-.488,1.9,1.9,0,0,1-.208-.664,5.448,5.448,0,0,1-.048-.7h0V22.32h-1.92v4.8a4.175,4.175,0,0,0,.16,1.152,2.817,2.817,0,0,0,.5.992,2.54,2.54,0,0,0,.88.7A2.89,2.89,0,0,0,59.779,30.224Zm8.041,0a5.308,5.308,0,0,0,1.208-.136,2.965,2.965,0,0,0,1.024-.44,2.245,2.245,0,0,0,.7-.792,2.476,2.476,0,0,0,.264-1.192,1.891,1.891,0,0,0-.224-.952,2.09,2.09,0,0,0-.584-.656,3.186,3.186,0,0,0-.8-.424,6.985,6.985,0,0,0-.872-.256A7.753,7.753,0,0,1,67.3,25a.642.642,0,0,1-.424-.632.662.662,0,0,1,.384-.64,1.869,1.869,0,0,1,.848-.192,1.983,1.983,0,0,1,.976.248,2.217,2.217,0,0,1,.7.584h0l1.248-1.1a2.742,2.742,0,0,0-1.256-.88,4.718,4.718,0,0,0-1.624-.288,4.358,4.358,0,0,0-1.12.144,3.127,3.127,0,0,0-.976.44,2.267,2.267,0,0,0-.7.76,2.2,2.2,0,0,0-.264,1.1,1.956,1.956,0,0,0,.192.912,1.853,1.853,0,0,0,.512.616,2.741,2.741,0,0,0,.728.4,6.352,6.352,0,0,0,.84.248,7.1,7.1,0,0,1,1.32.416.709.709,0,0,1,.44.688.789.789,0,0,1-.112.432.829.829,0,0,1-.3.28,1.446,1.446,0,0,1-.4.152,1.951,1.951,0,0,1-.424.048,2.383,2.383,0,0,1-1.136-.272,2.524,2.524,0,0,1-.832-.688h0L64.669,28.96a3.687,3.687,0,0,0,1.408.936A4.794,4.794,0,0,0,67.821,30.224Zm6.857-.064a4.285,4.285,0,0,0,.672-.056,3.154,3.154,0,0,0,.608-.152h0l-.064-1.5a1.679,1.679,0,0,1-.4.12,2.373,2.373,0,0,1-.416.04q-.64,0-.824-.336a1.752,1.752,0,0,1-.184-.848h0V23.856h1.92V22.32H74.07V20.1H72.182V22.32H70.838v1.536h1.344V27.44a5.026,5.026,0,0,0,.1,1.048,2.191,2.191,0,0,0,.384.864,1.892,1.892,0,0,0,.76.592A3.066,3.066,0,0,0,74.678,30.16ZM78.559,30V25.888a2.673,2.673,0,0,1,.08-.56,2.06,2.06,0,0,1,.3-.688,1.919,1.919,0,0,1,.624-.576,2.037,2.037,0,0,1,1.056-.24,2.253,2.253,0,0,1,.264.016,2.689,2.689,0,0,1,.328.064h0v-1.76a.886.886,0,0,0-.224-.04q-.128-.008-.24-.008a2.235,2.235,0,0,0-1.344.416,2.8,2.8,0,0,0-.9,1.088h-.032V22.32h-1.84V30Zm5.289.192a3.147,3.147,0,0,0,1.456-.328,2.143,2.143,0,0,0,.928-.84h.048V30h1.792V25.328a4.5,4.5,0,0,0-.152-1.152,2.689,2.689,0,0,0-.536-1.04,2.749,2.749,0,0,0-1.048-.752,4.266,4.266,0,0,0-1.688-.288,5.153,5.153,0,0,0-1.736.3,4.333,4.333,0,0,0-1.512.912h0l.992,1.168a3.146,3.146,0,0,1,.928-.624,2.778,2.778,0,0,1,1.168-.256,2.2,2.2,0,0,1,1.24.344,1.186,1.186,0,0,1,.52,1.064h0V25.2q-.9,0-1.832.088a7.083,7.083,0,0,0-1.7.36,3.155,3.155,0,0,0-1.256.784,1.912,1.912,0,0,0-.488,1.376,2.119,2.119,0,0,0,.28,1.128,2.326,2.326,0,0,0,.7.736,2.881,2.881,0,0,0,.928.4A4.178,4.178,0,0,0,83.848,30.192Zm.384-1.456a2.442,2.442,0,0,1-.48-.048,1.392,1.392,0,0,1-.432-.16.921.921,0,0,1-.312-.3.818.818,0,0,1-.12-.456.85.85,0,0,1,.288-.68,2.016,2.016,0,0,1,.72-.384,4.238,4.238,0,0,1,.944-.176q.512-.04.976-.04h.432v.272a1.981,1.981,0,0,1-.512,1.44A2,2,0,0,1,84.232,28.736Zm7.913,1.424a4.284,4.284,0,0,0,.672-.056,3.152,3.152,0,0,0,.608-.152h0l-.064-1.5a1.679,1.679,0,0,1-.4.12,2.373,2.373,0,0,1-.416.04q-.64,0-.824-.336a1.752,1.752,0,0,1-.184-.848h0V23.856h1.92V22.32h-1.92V20.1H89.649V22.32H88.305v1.536h1.344V27.44a5.026,5.026,0,0,0,.1,1.048,2.194,2.194,0,0,0,.384.864,1.892,1.892,0,0,0,.76.592A3.066,3.066,0,0,0,92.145,30.16Zm5.689.064a4.393,4.393,0,0,0,1.632-.3,4.052,4.052,0,0,0,1.328-.84,3.92,3.92,0,0,0,.888-1.288,4.113,4.113,0,0,0,.328-1.664,4.056,4.056,0,0,0-.328-1.656,3.852,3.852,0,0,0-.888-1.272,3.91,3.91,0,0,0-1.328-.816,4.768,4.768,0,0,0-3.264,0,3.914,3.914,0,0,0-1.328.816,3.873,3.873,0,0,0-.888,1.272,4.061,4.061,0,0,0-.328,1.656,4.118,4.118,0,0,0,.328,1.664,3.942,3.942,0,0,0,.888,1.288,4.056,4.056,0,0,0,1.328.84A4.393,4.393,0,0,0,97.834,30.224Zm0-1.6a2.065,2.065,0,0,1-.992-.224,2.134,2.134,0,0,1-.688-.576,2.469,2.469,0,0,1-.408-.8,3.069,3.069,0,0,1-.136-.9,2.99,2.99,0,0,1,.136-.888,2.484,2.484,0,0,1,.408-.792,2.048,2.048,0,0,1,.688-.568,2.386,2.386,0,0,1,1.984,0,2.049,2.049,0,0,1,.688.568,2.484,2.484,0,0,1,.408.792,2.99,2.99,0,0,1,.136.888,3.069,3.069,0,0,1-.136.9,2.469,2.469,0,0,1-.408.8,2.135,2.135,0,0,1-.688.576A2.065,2.065,0,0,1,97.834,28.624ZM105.043,30V25.888a2.7,2.7,0,0,1,.08-.56,2.083,2.083,0,0,1,.3-.688,1.933,1.933,0,0,1,.624-.576,2.039,2.039,0,0,1,1.056-.24,2.235,2.235,0,0,1,.264.016,2.674,2.674,0,0,1,.328.064h0v-1.76a.88.88,0,0,0-.224-.04q-.127-.008-.24-.008a2.235,2.235,0,0,0-1.344.416A2.807,2.807,0,0,0,105,23.6h-.032V22.32h-1.84V30Z" fill="#080808"/>
        </g>
      </g>
    </g>
    <g id="Mask_Group_71" data-name="Mask Group 71" transform="translate(53 -231)" clip-path="url(#clip-path-4)">
      <g id="google_analytics-ar21" transform="translate(499.899 2153.354)">
        <g id="Group_17" data-name="Group 17" transform="translate(68.324 -17.353)">
          <path id="Path_84" data-name="Path 84" d="M74.155,7.249l2.412,6.333H71.893l2.263-6.333Zm-.9-2.121L67.973,19h1.96l1.357-3.768h5.879L78.524,19h1.96L75.207,5.128h-1.96Zm28.484,13.88h1.818V5.138h-1.818V19.006ZM83.2,10.857A3.859,3.859,0,0,1,86.214,9.2c2.412,0,3.618,1.659,3.618,4.071V19.15H88.014V13.57c0-1.96-1.056-2.714-2.412-2.714a2.808,2.808,0,0,0-2.563,2.865V19H81.221V9.362h1.818l.152,1.508Zm8.141,5.287c0-2.121,1.96-3.317,4.222-3.317a4.118,4.118,0,0,1,2.563.6v-.3a2.253,2.253,0,0,0-2.412-2.263,2.21,2.21,0,0,0-2.263,1.357l-1.659-.754c.3-.9,1.508-2.263,3.919-2.263a3.912,3.912,0,0,1,4.222,4.071V19H98.274V17.648h-.152a3.632,3.632,0,0,1-3.166,1.659c-1.96,0-3.618-1.206-3.618-3.166m6.784-1.206a3.789,3.789,0,0,0-2.263-.6c-1.818,0-2.563,1.056-2.563,1.818,0,1.056,1.056,1.508,1.96,1.508a2.94,2.94,0,0,0,2.865-2.714" transform="translate(-67.973 17.579)" fill="#080808"/>
          <path id="Path_85" data-name="Path 85" d="M105.751,23.193l2.121-4.975L104.1,9.474h1.818l2.865,6.633,2.865-6.633h1.818l-5.879,13.719h-1.818Zm26.535-10.555a2.861,2.861,0,0,0-2.563-1.96A3.084,3.084,0,0,0,126.859,14a3.084,3.084,0,0,0,2.865,3.317,2.917,2.917,0,0,0,2.563-1.818l1.508.9a4.429,4.429,0,0,1-4.071,2.714,4.907,4.907,0,0,1-4.674-5.126,4.82,4.82,0,0,1,4.674-5.126A4.418,4.418,0,0,1,133.8,11.58l-1.508,1.056Z" transform="translate(-67.609 17.617)" fill="#080808" fill-rule="evenodd"/>
          <path id="Path_86" data-name="Path 86" d="M138.593,19.27c2.412,0,3.618-1.357,3.618-3.015,0-3.618-5.277-2.263-5.277-4.372,0-.754.6-1.206,1.659-1.206a3,3,0,0,1,2.563,1.206l1.056-1.056a5.611,5.611,0,0,0-3.768-1.818c-2.263,0-3.468,1.357-3.468,3.015,0,3.468,5.427,2.263,5.427,4.071,0,.905-.6,1.508-1.818,1.508a2.962,2.962,0,0,1-2.412-1.508l-1.339,1.066c.9.905,2.263,2.121,3.768,2.121Zm-17.186-.3h1.818V9.321h-1.818Z" transform="translate(-67.435 17.619)" fill="#080808"/>
          <path id="Path_87" data-name="Path 87" d="M122.236,4.7a1.206,1.206,0,1,1,0,2.412,1.3,1.3,0,0,1-1.206-1.206A1.3,1.3,0,0,1,122.236,4.7Zm-2.563,12.815.3,1.357h-1.818c-1.659,0-2.412-1.206-2.412-3.015V11.164h-1.818V9.346h1.818V6.5h1.818V9.365h2.121v1.818h-2.121v4.975c0,1.357,1.056,1.357,2.121,1.357Z" transform="translate(-67.51 17.575)" fill="#080808" fill-rule="evenodd"/>
          <path id="Path_88" data-name="Path 88" d="M77.129-9.968v2.263h5.277A4.53,4.53,0,0,1,81.2-4.992a5.415,5.415,0,0,1-4.071,1.659,5.761,5.761,0,0,1-4.1-1.74A5.761,5.761,0,0,1,71.4-9.212a5.856,5.856,0,0,1,5.729-5.879,5.829,5.829,0,0,1,3.919,1.508l1.508-1.508a7.84,7.84,0,0,0-5.427-2.263,8.173,8.173,0,0,0-8.141,7.98,8.171,8.171,0,0,0,8.141,7.98,7.046,7.046,0,0,0,5.578-2.263,7.12,7.12,0,0,0,1.96-5.126,3.722,3.722,0,0,0-.152-1.357H77.128Zm13.416-1.818a5,5,0,0,0-3.663,1.463A5,5,0,0,0,85.419-6.66,5,5,0,0,0,86.882-3a5,5,0,0,0,3.663,1.463,5.081,5.081,0,0,0,3.638-1.488A5.081,5.081,0,0,0,95.671-6.66a4.993,4.993,0,0,0-1.461-3.665A4.993,4.993,0,0,0,90.545-11.786Zm0,8.283A3.036,3.036,0,0,1,87.68-6.669a3.027,3.027,0,0,1,2.865-3.155,2.946,2.946,0,0,1,2.111.967,2.946,2.946,0,0,1,.755,2.2,2.949,2.949,0,0,1-.756,2.194,2.949,2.949,0,0,1-2.109.968Zm24.716-7.228a3.913,3.913,0,0,0-2.865-1.206,5.028,5.028,0,0,0-4.824,5.126A5.029,5.029,0,0,0,112.4-1.686a3.55,3.55,0,0,0,2.714-1.206h.152v.754c0,1.96-1.056,3.015-2.714,3.015a2.877,2.877,0,0,1-2.563-1.818l-1.96.754a4.989,4.989,0,0,0,4.523,3.015c2.714,0,4.975-1.508,4.975-5.427v-9.346H115.4v1.206ZM112.7-3.5a2.922,2.922,0,0,1-2.021-1.014,2.922,2.922,0,0,1-.693-2.152,2.922,2.922,0,0,1,.695-2.149A2.922,2.922,0,0,1,112.7-9.827a2.922,2.922,0,0,1,2.021,1.014,2.922,2.922,0,0,1,.693,2.152,2.922,2.922,0,0,1-.695,2.149A2.922,2.922,0,0,1,112.7-3.5Zm-11.007-8.283A5,5,0,0,0,98.03-10.32a5,5,0,0,0-1.463,3.663A5,5,0,0,0,98.03-2.994a5,5,0,0,0,3.663,1.463,5.081,5.081,0,0,0,3.638-1.488,5.081,5.081,0,0,0,1.488-3.638,4.908,4.908,0,0,0-1.435-3.691,4.908,4.908,0,0,0-3.692-1.43Zm0,8.283a3.036,3.036,0,0,1-2.865-3.166,3.036,3.036,0,0,1,2.865-3.166,2.943,2.943,0,0,1,2.113.967,2.943,2.943,0,0,1,.752,2.2,2.943,2.943,0,0,1-.753,2.2,2.943,2.943,0,0,1-2.113.967ZM119.2-17.2h2.263V-1.526H119.2Zm8.442,13.719a2.917,2.917,0,0,1-2.563-1.508l6.935-2.865-.3-.6a4.856,4.856,0,0,0-4.372-3.317,4.846,4.846,0,0,0-3.515,1.525,4.846,4.846,0,0,0-1.309,3.6A5.081,5.081,0,0,0,124-3.014a5.081,5.081,0,0,0,3.638,1.488,5.484,5.484,0,0,0,4.372-2.263L130.2-4.995a2.917,2.917,0,0,1-2.563,1.508Zm-.152-6.333a2.019,2.019,0,0,1,1.96,1.206l-4.674,1.96C124.776-8.911,126.284-9.814,127.49-9.814Z" transform="translate(-67.963 17.353)" fill="#080808"/>
        </g>
        <g id="Group_19" data-name="Group 19" transform="translate(33.101 -16.49)">
          <path id="Path_89" data-name="Path 89" d="M25.821,5.8V32.284A4.273,4.273,0,0,0,30.034,36.9c2.006,0,4.213-1.4,4.213-4.614V6a4.218,4.218,0,0,0-4.213-4.414A4.282,4.282,0,0,0,25.821,5.8Z" transform="translate(-3.752 -1.589)" fill="#080808"/>
          <g id="Group_18" data-name="Group 18" transform="translate(0 13.442)">
            <path id="Path_90" data-name="Path 90" d="M14.9,19.11V32.15a4.273,4.273,0,0,0,4.213,4.614c2.006,0,4.213-1.4,4.213-4.614V19.31A4.218,4.218,0,0,0,19.11,14.9a4.282,4.282,0,0,0-4.21,4.21Z" transform="translate(-3.862 -14.896)" fill="#080808"/>
            <circle id="Ellipse_1" data-name="Ellipse 1" cx="4.213" cy="4.213" r="4.213" transform="translate(0 13.442)" fill="#080808"/>
          </g>
        </g>
      </g>
    </g>
    <g id="Mask_Group_72" data-name="Mask Group 72" transform="translate(311 -542)" clip-path="url(#clip-path-5)">
      <g id="Group_369" data-name="Group 369" transform="translate(425.243 2335.04)" clip-path="url(#clip-path-6)">
        <path id="Path_815" data-name="Path 815" d="M238.1,19.725V.255h3.026V7.931A4.819,4.819,0,0,1,245.412,5.8a4.87,4.87,0,0,1,3.768,1.443,5.706,5.706,0,0,1,1.331,4.02v8.46h-3.025v-8.04q0-3.333-2.969-3.334a3.412,3.412,0,0,0-2.437.9,3.3,3.3,0,0,0-.952,2.521v7.956Z" transform="translate(-212.075 -0.178)" fill="#080808"/>
        <path id="Path_816" data-name="Path 816" d="M382.981,63.192a7.211,7.211,0,1,1,.043-10.2,7.21,7.21,0,0,1-.043,10.2Zm-7.942-1.709a3.9,3.9,0,0,0,5.743,0,5.087,5.087,0,0,0,1.078-3.418,5,5,0,0,0-1.092-3.39,3.9,3.9,0,0,0-5.729-.014,5.029,5.029,0,0,0-1.078,3.4,5.083,5.083,0,0,0,1.078,3.422Z" transform="translate(-330.251 -45.326)" fill="#080808"/>
        <path id="Path_817" data-name="Path 817" d="M513.541,35.332q-4.174,0-4.174-4.482V23.958h-2.1V21.409h2.185l.7-4.006h2.269v4.006h5.407v2.549H512.42v6.807q0,1.877,1.373,1.877,1.288,0,2.325-2.353l2.353,1.2Q516.734,35.333,513.541,35.332Z" transform="translate(-451.79 -15.45)" fill="#080808"/>
        <path id="Path_818" data-name="Path 818" d="M591.426,25.715a4.964,4.964,0,0,1-3.334-1.121l1.121-2.381a2.323,2.323,0,0,0,1.765.952q1.261,0,1.261-1.625V5.91h3.026V21.6a4.044,4.044,0,0,1-1.079,3.151,3.982,3.982,0,0,1-2.76.964Zm2.325-22.1a1.877,1.877,0,0,1-1.345-.5,1.7,1.7,0,0,1-.532-1.289,1.743,1.743,0,0,1,.532-1.3,1.986,1.986,0,0,1,2.675,0,1.721,1.721,0,0,1,.546,1.3,1.688,1.688,0,0,1-.546,1.275,1.861,1.861,0,0,1-1.331.518Z" transform="translate(-523.773 0.05)" fill="#080808"/>
        <path id="Path_819" data-name="Path 819" d="M679.893,65.206a5.818,5.818,0,0,1-3.768-1.163,3.963,3.963,0,0,1,.056-6.163,5.691,5.691,0,0,1,3.768-1.247,5.545,5.545,0,0,1,3.922,1.485V56.466a3.189,3.189,0,0,0-.742-2.255,2.745,2.745,0,0,0-2.115-.8,3.263,3.263,0,0,0-3.446,2.829l-2.773-.588a6.082,6.082,0,0,1,2.213-3.446,6.594,6.594,0,0,1,4.118-1.261,6.069,6.069,0,0,1,4.244,1.415,5.3,5.3,0,0,1,1.555,4.132V64.87h-2.942V63.161A4.778,4.778,0,0,1,679.893,65.206Zm.56-2.241a4.084,4.084,0,0,0,3.418-2.017v-.42a4.294,4.294,0,0,0-3.418-1.681,2.988,2.988,0,0,0-1.9.574,1.791,1.791,0,0,0-.728,1.471,1.832,1.832,0,0,0,.714,1.5,2.973,2.973,0,0,0,1.919.573Z" transform="translate(-600.888 -45.323)" fill="#080808"/>
        <path id="Path_820" data-name="Path 820" d="M813.477,65.78V52.194h2.941v2.353a3.925,3.925,0,0,1,3.866-2.577,3.646,3.646,0,0,1,2.689,1.065,3.858,3.858,0,0,1,1.065,2.857,6.644,6.644,0,0,1-.364,2.1l-2.773-.28a10.7,10.7,0,0,0,.112-1.12q0-2.1-1.737-2.1a2.318,2.318,0,0,0-1.975,1.247,6.03,6.03,0,0,0-.8,3.292V65.78Z" transform="translate(-724.497 -46.234)" fill="#080808"/>
        <path id="Path_821" data-name="Path 821" d="M7.162,8.217C9.416,6.964,12.5,5.249,12.5.255H8.765c0,2.794-1.36,3.55-3.419,4.693C3.092,6.2,0,7.916,0,12.91H3.743C3.743,10.116,5.1,9.361,7.162,8.217Z" transform="translate(-0.029 -0.178)" fill="#080808"/>
        <path id="Path_822" data-name="Path 822" d="M53.248,62.536c0,2.794-1.36,3.549-3.419,4.693-2.254,1.253-5.342,2.968-5.342,7.962h3.739c0-2.794,1.36-3.55,3.419-4.694,2.254-1.252,5.342-2.968,5.342-7.962Z" transform="translate(-39.645 -55.644)" fill="#080808"/>
      </g>
    </g>
    <g id="Mask_Group_75" data-name="Mask Group 75" transform="translate(456 -509)" clip-path="url(#clip-path-7)">
      <g id="Group_376" data-name="Group 376" transform="translate(-5 4)">
        <g id="Group_375" data-name="Group 375">
          <path id="Path_846" data-name="Path 846" d="M16.364,0H2.455A2.462,2.462,0,0,0,0,2.455V33.546A2.461,2.461,0,0,0,2.455,36H23.73a2.461,2.461,0,0,0,2.455-2.454V9.818L20.457,5.725Z" transform="translate(435 2292)" fill="#080808"/>
          <path id="Path_847" data-name="Path 847" d="M15.592,42.029h9V40.392h-9Zm0-9.818v1.636h9V32.21Zm-2.047.818A1.227,1.227,0,1,1,12.32,31.8a1.227,1.227,0,0,1,1.226,1.229Zm0,4.093a1.227,1.227,0,1,1-1.226-1.229,1.227,1.227,0,0,1,1.226,1.229Zm0,4.093a1.227,1.227,0,1,1-1.227-1.227,1.227,1.227,0,0,1,1.227,1.227Zm2.047-3.273h9V36.3h-9Z" transform="translate(430.044 2277.79)" fill="#f1f1f1"/>
          <path id="Path_848" data-name="Path 848" d="M30.881,16.452l9.1,9.1V17.17Z" transform="translate(421.2 2284.648)" fill="url(#linear-gradient)"/>
          <g id="Group_374" data-name="Group 374" transform="translate(451.363 2292)">
            <path id="Path_849" data-name="Path 849" d="M2.958,2.958v7.364a2.454,2.454,0,0,0,2.457,2.454h7.361Z" transform="translate(-2.958 -2.958)" fill="#272727"/>
          </g>
          <path id="Path_850" data-name="Path 850" d="M2.455,0A2.462,2.462,0,0,0,0,2.455v.2A2.462,2.462,0,0,1,2.455.2H16.364V0Z" transform="translate(435 2292)" fill="rgba(255,255,255,0.2)"/>
          <path id="Path_851" data-name="Path 851" d="M23.73,62.731H2.455A2.462,2.462,0,0,1,0,60.276v.2a2.461,2.461,0,0,0,2.455,2.454H23.73a2.461,2.461,0,0,0,2.455-2.454v-.2a2.461,2.461,0,0,1-2.455,2.455Z" transform="translate(435 2265.065)" fill="rgba(49,27,146,0.2)"/>
          <path id="Path_852" data-name="Path 852" d="M32.038,15.767a2.454,2.454,0,0,1-2.455-2.454v.2a2.454,2.454,0,0,0,2.455,2.455H39.4v-.2Z" transform="translate(421.78 2286.051)" fill="rgba(49,27,146,0.1)"/>
          <path id="Path_853" data-name="Path 853" d="M16.364,0H2.455A2.462,2.462,0,0,0,0,2.455V33.546A2.461,2.461,0,0,0,2.455,36H23.73a2.461,2.461,0,0,0,2.455-2.454V9.818Z" transform="translate(435 2292)" fill="url(#radial-gradient)"/>
        </g>
        <path id="Path_854" data-name="Path 854" d="M7.909-7.625a4.058,4.058,0,0,0-2.964-1.1A4.172,4.172,0,0,0,.672-4.417,4.152,4.152,0,0,0,4.945-.11,5.933,5.933,0,0,0,8-.909V-4.6H5.257v.73H7.168v2.49a4.228,4.228,0,0,1-2.212.533,3.382,3.382,0,0,1-3.4-3.566A3.392,3.392,0,0,1,4.956-8a3.125,3.125,0,0,1,2.374.95Zm7.561,4.6a2.78,2.78,0,0,0-2.895-2.849A2.777,2.777,0,0,0,9.692-3.028,2.777,2.777,0,0,0,12.576-.179,2.78,2.78,0,0,0,15.47-3.028Zm-.834,0A2.038,2.038,0,0,1,12.576-.851a2.036,2.036,0,0,1-2.05-2.177,2.045,2.045,0,0,1,2.05-2.189A2.048,2.048,0,0,1,14.637-3.028Zm7.909,0a2.78,2.78,0,0,0-2.895-2.849,2.777,2.777,0,0,0-2.883,2.849A2.777,2.777,0,0,0,19.651-.179,2.78,2.78,0,0,0,22.545-3.028Zm-.834,0A2.038,2.038,0,0,1,19.651-.851,2.036,2.036,0,0,1,17.6-3.028a2.045,2.045,0,0,1,2.05-2.189A2.048,2.048,0,0,1,21.712-3.028Zm2.246,4.4a3.647,3.647,0,0,0,2.605,1.088A2.638,2.638,0,0,0,29.5-.364V-5.737h-.787V-4.8h-.023a2.432,2.432,0,0,0-2.05-1.077,2.719,2.719,0,0,0-2.8,2.8,2.657,2.657,0,0,0,2.8,2.756,2.463,2.463,0,0,0,2.05-1.065h.023V-.364A1.92,1.92,0,0,1,26.6,1.766a2.748,2.748,0,0,1-2.073-1Zm.718-4.47a2,2,0,0,1,2.05-2.119A2.083,2.083,0,0,1,28.81-3.1,2.006,2.006,0,0,1,26.726-.99,1.989,1.989,0,0,1,24.676-3.1Zm7.689-5.975h-.787V-.318h.787Zm2.547,5.628a1.919,1.919,0,0,1,1.9-1.772,1.708,1.708,0,0,1,1.795,1.772ZM39.4-3.19a2.484,2.484,0,0,0-2.594-2.686,2.737,2.737,0,0,0-2.733,2.849,2.751,2.751,0,0,0,2.8,2.849,2.826,2.826,0,0,0,2.327-1.146l-.591-.463a2.053,2.053,0,0,1-1.737.938A1.977,1.977,0,0,1,34.9-2.819h4.493C39.4-2.958,39.4-3.085,39.4-3.19ZM1.378,18.981H3.567V13.8H8.986V11.964H3.567V8.594H9.316V6.684H1.378Zm8.528-4.2a4.378,4.378,0,0,0,4.533,4.446,4.378,4.378,0,0,0,4.533-4.446A4.322,4.322,0,0,0,14.44,10.4,4.322,4.322,0,0,0,9.907,14.778Zm2.119,0a2.427,2.427,0,1,1,4.829,0,2.43,2.43,0,1,1-4.829,0Zm8.962,4.2h2.084V14.517a2.175,2.175,0,0,1,2.241-2.241,2.431,2.431,0,0,1,.643.087V10.453a2.358,2.358,0,0,0-.5-.052,2.7,2.7,0,0,0-2.432,1.633h-.035v-1.39h-2ZM37.263,10.4a2.968,2.968,0,0,0-2.744,1.581,2.923,2.923,0,0,0-5.193,0H29.29V10.644H27.31v8.337h2.084V14.4c0-1.112.573-2.258,1.824-2.258,1.06,0,1.546.782,1.546,1.806v5.037h2.084V14.43c0-1.077.538-2.293,1.841-2.293,1.337,0,1.563,1.233,1.563,2.223v4.62h2.084V13.77C40.337,12.068,39.434,10.4,37.263,10.4Z" transform="translate(470.438 2305.072)" fill="#080808"/>
      </g>
    </g>
    <g id="Mask_Group_76" data-name="Mask Group 76" transform="translate(456 -457)" clip-path="url(#clip-path-8)">
      <g id="Group_377" data-name="Group 377" transform="translate(-5 7)">
        <g id="google-optimize" transform="translate(435 2297)">
          <path id="Path_855" data-name="Path 855" d="M358.721,899.94a4.979,4.979,0,0,0-5.036-4.864H340.7V904.8h8.41v8.18a4.773,4.773,0,0,0,4.5,5.03c.057,0,.115.006.172.006a4.986,4.986,0,0,0,4.937-5.036h0V899.94Z" transform="translate(-335.73 -882.018)" fill="#080808"/>
          <circle id="Ellipse_35" data-name="Ellipse 35" cx="4.913" cy="4.913" r="4.913" transform="translate(0 13.067)" fill="#1e1e1e"/>
          <path id="Path_856" data-name="Path 856" d="M867.062,4.889A4.937,4.937,0,0,0,862.125,0H848.844a4.937,4.937,0,0,0,0,9.825h8.508V18a4.863,4.863,0,1,0,9.719.4c.006-.131.006-.264,0-.4Z" transform="translate(-832.081)" fill="#080808"/>
        </g>
        <path id="Path_857" data-name="Path 857" d="M.792-6.408A6.528,6.528,0,0,0,7.614.324,6.542,6.542,0,0,0,14.49-6.408c0-4.086-2.9-6.66-6.876-6.66C3.69-13.068.792-10.494.792-6.408Zm2.466,0A4.363,4.363,0,0,1,7.632-11.07a4.367,4.367,0,0,1,4.392,4.662,4.368,4.368,0,0,1-4.392,4.7A4.365,4.365,0,0,1,3.258-6.408ZM16.578-8.64V4.32h2.16V-1.152h.036a3.385,3.385,0,0,0,2.862,1.4c2.628,0,4.248-2.088,4.248-4.608A4.251,4.251,0,0,0,21.69-8.892,3.421,3.421,0,0,0,18.7-7.434h-.054V-8.64Zm7.11,4.284A2.583,2.583,0,0,1,21.2-1.548,2.653,2.653,0,0,1,18.666-4.32,2.685,2.685,0,0,1,21.2-7.128,2.552,2.552,0,0,1,23.688-4.356Zm4.554-2.556V-2.88c0,1.656.522,3.06,2.808,3.06a4.471,4.471,0,0,0,1.44-.234l-.072-1.692a2.258,2.258,0,0,1-.918.18c-.954,0-1.134-.558-1.134-1.332V-6.912h2.16V-8.64h-2.16v-2.5H28.242v2.5H26.73v1.728ZM34.128,0h2.16V-8.64h-2.16Zm-.306-11.574a1.331,1.331,0,0,0,1.368,1.3,1.329,1.329,0,0,0,1.4-1.3,1.329,1.329,0,0,0-1.4-1.3A1.331,1.331,0,0,0,33.822-11.574ZM49.23-8.892a3.076,3.076,0,0,0-2.844,1.638,2.85,2.85,0,0,0-2.7-1.638A2.851,2.851,0,0,0,41-7.254h-.036V-8.64H38.916V0h2.16V-4.752c0-1.152.594-2.34,1.89-2.34,1.1,0,1.6.81,1.6,1.872V0h2.16V-4.716c0-1.116.558-2.376,1.908-2.376,1.386,0,1.62,1.278,1.62,2.3V0h2.16V-5.4C52.416-7.164,51.48-8.892,49.23-8.892ZM54.972,0h2.16V-8.64h-2.16Zm-.306-11.574a1.331,1.331,0,0,0,1.368,1.3,1.329,1.329,0,0,0,1.4-1.3,1.329,1.329,0,0,0-1.4-1.3A1.331,1.331,0,0,0,54.666-11.574ZM59.076,0h7.452V-1.764h-4.9l4.68-4.968V-8.64h-7.02v1.728h4.446l-4.662,5ZM70.092-5.184a2.307,2.307,0,0,1,2.394-2.088A1.92,1.92,0,0,1,74.52-5.184Zm6.588.972c0-3.114-1.764-4.68-4.176-4.68a4.409,4.409,0,0,0-4.572,4.626A4.341,4.341,0,0,0,72.576.252a4.3,4.3,0,0,0,3.708-1.728l-1.44-1.152a2.618,2.618,0,0,1-2.286,1.116,2.4,2.4,0,0,1-2.466-2.124h6.57C76.68-3.834,76.68-4.014,76.68-4.212Z" transform="translate(478 2319.068)" fill="#080808"/>
      </g>
    </g>
    <g id="Mask_Group_29" data-name="Mask Group 29" transform="translate(355 -1040)" clip-path="url(#clip-path-9)">
      <g id="Group_16" data-name="Group 16" transform="translate(-473.001 2992.3)">
        <g id="Group_14" data-name="Group 14" transform="translate(704 -135.546)">
          <path id="Path_63" data-name="Path 63" d="M252.107,241.069h-5.668v.6c1.773,0,2.058.38,2.058,2.628v4.053c0,2.248-.284,2.66-2.058,2.66-1.361-.19-2.28-.918-3.546-2.312l-1.456-1.583c1.963-.349,3.008-1.583,3.008-2.977,0-1.741-1.488-3.071-4.275-3.071H234.6v.6c1.773,0,2.058.38,2.058,2.628v4.053c0,2.248-.285,2.66-2.058,2.66v.6h6.3v-.6c-1.773,0-2.058-.412-2.058-2.66v-1.139h.538l3.515,4.4h9.214c4.528,0,6.491-2.406,6.491-5.288S256.636,241.069,252.107,241.069ZM238.84,246.23v-4.211h1.3a2.106,2.106,0,1,1,0,4.212Zm13.362,4.4h-.222c-1.14,0-1.3-.285-1.3-1.741v-6.871h1.52c3.293,0,3.894,2.406,3.894,4.275.006,1.932-.594,4.339-3.894,4.339Z" transform="translate(-202.585 -237.902)" fill="#080808"/>
          <path id="Path_64" data-name="Path 64" d="M166.712,242.432l2.185-6.46c.634-1.868.348-2.406-1.678-2.406v-.634h5.953v.634c-1.995,0-2.47.475-3.262,2.786l-3.61,10.829h-.412l-3.23-9.911-3.293,9.911h-.412l-3.515-10.829c-.76-2.312-1.266-2.786-3.1-2.786v-.634h7.03v.634c-1.868,0-2.375.443-1.71,2.406l2.121,6.46,3.2-9.5h.6Z" transform="translate(-152.337 -232.932)" fill="#080808"/>
          <path id="Path_65" data-name="Path 65" d="M207,251.378c-3.483,0-6.333-2.565-6.333-5.7,0-3.1,2.85-5.668,6.333-5.668s6.333,2.565,6.333,5.668C213.333,248.813,210.484,251.378,207,251.378Zm0-10.385c-2.913,0-3.926,2.628-3.926,4.686,0,2.091,1.013,4.687,3.926,4.687,2.945,0,3.958-2.6,3.958-4.687,0-2.059-1.012-4.687-3.958-4.687Z" transform="translate(-181.86 -237.255)" fill="#080808"/>
          <path id="Path_66" data-name="Path 66" d="M304.988,246.009v.633h-7.251v-.633c2.122,0,2.5-.538,2.5-3.705v-5.066c0-3.167-.38-3.673-2.5-3.673v-.634h6.554c3.261,0,5.067,1.678,5.067,3.927,0,2.185-1.8,3.9-5.067,3.9h-1.8V242.3C302.486,245.471,302.866,246.009,304.988,246.009Zm-.7-11.938h-1.8v5.51h1.8a2.475,2.475,0,0,0,2.6-2.723,2.51,2.51,0,0,0-2.6-2.787Z" transform="translate(-241.154 -232.931)" fill="#080808"/>
          <path id="Path_67" data-name="Path 67" d="M350.495,248.637l-.158.57c-.285,1.045-.634,1.425-2.882,1.425h-.444c-1.646,0-1.931-.38-1.931-2.628v-1.457c2.47,0,2.66.221,2.66,1.868h.6V243.7h-.6c0,1.647-.19,1.868-2.66,1.868v-3.546h1.741c2.249,0,2.6.38,2.882,1.425l.158.6h.506l-.221-2.976h-9.31v.6c1.773,0,2.058.38,2.058,2.628v4.053c0,2.057-.242,2.575-1.64,2.649-1.329-.2-2.241-.927-3.489-2.3l-1.457-1.583c1.963-.349,3.008-1.583,3.008-2.977,0-1.741-1.488-3.071-4.275-3.071H329.47v.6c1.773,0,2.058.38,2.058,2.628v4.053c0,2.248-.285,2.66-2.058,2.66v.6h6.3v-.6c-1.773,0-2.058-.412-2.058-2.66v-1.139h.538l3.515,4.4H350.78l.19-2.976h-.475Zm-16.782-2.407v-4.211h1.3a2.106,2.106,0,1,1,0,4.212Z" transform="translate(-260.538 -237.902)" fill="#080808"/>
          <path id="Path_68" data-name="Path 68" d="M393.8,251.378a4.682,4.682,0,0,1-2.85-1.077,2.277,2.277,0,0,0-.506,1.077h-.6v-4.369h.633a3.514,3.514,0,0,0,3.578,3.325,1.63,1.63,0,0,0,1.836-1.52c0-.823-.728-1.457-2.026-2.058l-1.8-.855a3.445,3.445,0,0,1-2.217-3.04c0-1.52,1.425-2.818,3.388-2.818a3.967,3.967,0,0,1,2.47.823,1.784,1.784,0,0,0,.412-.855h.6v3.737h-.665c-.222-1.489-1.045-2.723-2.723-2.723-.887,0-1.71.507-1.71,1.3,0,.823.665,1.266,2.185,1.963l1.741.855a3.3,3.3,0,0,1,2.121,2.85,3.576,3.576,0,0,1-3.867,3.385Z" transform="translate(-297.416 -237.255)" fill="#080808"/>
          <path id="Path_69" data-name="Path 69" d="M418.861,251.378a4.68,4.68,0,0,1-2.85-1.077,2.274,2.274,0,0,0-.506,1.077h-.6v-4.369h.634a3.514,3.514,0,0,0,3.578,3.325,1.631,1.631,0,0,0,1.837-1.52c0-.823-.728-1.457-2.027-2.058l-1.8-.855a3.446,3.446,0,0,1-2.217-3.04c0-1.52,1.425-2.818,3.388-2.818a3.967,3.967,0,0,1,2.47.823,1.781,1.781,0,0,0,.411-.855h.6v3.737h-.665c-.222-1.489-1.045-2.723-2.723-2.723-.887,0-1.71.507-1.71,1.3,0,.823.665,1.266,2.185,1.963l1.742.855a3.3,3.3,0,0,1,2.121,2.85,3.576,3.576,0,0,1-3.868,3.385Z" transform="translate(-312.724 -237.255)" fill="#080808"/>
        </g>
        <g id="Group_15" data-name="Group 15" transform="translate(742.309 -174.3)">
          <g id="Group_13" data-name="Group 13">
            <path id="Path_70" data-name="Path 70" d="M70.967,241.047a14.016,14.016,0,0,0,7.9,12.612L72.18,235.344A13.962,13.962,0,0,0,70.967,241.047Z" transform="translate(-68.645 -224.713)" fill="#080808"/>
            <path id="Path_71" data-name="Path 71" d="M98.058,227.3a7.379,7.379,0,0,0-1.156-3.865,6.56,6.56,0,0,1-1.376-3.286,2.426,2.426,0,0,1,2.353-2.487c.062,0,.121.008.181.011a14.01,14.01,0,0,0-21.171,2.638c.329.01.639.017.9.017,1.466,0,3.734-.178,3.734-.178a.579.579,0,0,1,.09,1.154s-.759.09-1.6.133l5.1,15.179,3.067-9.2L86,221.434c-.755-.044-1.469-.133-1.469-.133a.579.579,0,0,1,.088-1.154s2.314.178,3.691.178c1.466,0,3.735-.178,3.735-.178a.579.579,0,0,1,.09,1.154s-.761.089-1.6.133L95.593,236.5l1.4-4.671a16.931,16.931,0,0,0,1.065-4.529Z" transform="translate(-72.262 -211.669)" fill="#080808"/>
            <path id="Path_72" data-name="Path 72" d="M101.007,253.149l-4.2,12.217a14.021,14.021,0,0,0,8.612-.223,1.221,1.221,0,0,1-.1-.193Z" transform="translate(-84.427 -235.589)" fill="#080808"/>
            <path id="Path_73" data-name="Path 73" d="M130.329,232.723a10.739,10.739,0,0,1,.1,1.441,13.221,13.221,0,0,1-1.066,5.019l-4.28,12.376a14.015,14.015,0,0,0,5.251-18.836Z" transform="translate(-101.698 -223.112)" fill="#080808"/>
            <path id="Path_74" data-name="Path 74" d="M81.335,208.025A16.335,16.335,0,1,0,97.671,224.36,16.335,16.335,0,0,0,81.335,208.025Zm0,31.921A15.586,15.586,0,1,1,96.92,224.36a15.586,15.586,0,0,1-15.585,15.586Z" transform="translate(-65 -208.025)" fill="#080808"/>
          </g>
        </g>
      </g>
    </g>
    <g id="Mask_Group_80" data-name="Mask Group 80" transform="translate(12 -290)" clip-path="url(#clip-path-10)">
      <g id="ezgif.com-gif-maker" transform="translate(573.368 2782.861)">
        <path id="Path_871" data-name="Path 871" d="M13.413-640.825a13.59,13.59,0,0,0-9.758,5.908,16.294,16.294,0,0,0-3,10.311,13.164,13.164,0,0,0,1.291,5.521,7.942,7.942,0,0,0,4.774,4.167,9.385,9.385,0,0,0,3.346.446,6.241,6.241,0,0,0,1.39-.128A11.339,11.339,0,0,0,18-619.139a14.045,14.045,0,0,0,1.015-1.564l.281-.487.025.2a5.649,5.649,0,0,0,1.324,3.466,3.832,3.832,0,0,0,4.819.144,7.242,7.242,0,0,0,1.82-1.976,1.359,1.359,0,0,1,.19-.26.763.763,0,0,1,.074.235,5.277,5.277,0,0,0,.586,1.395,2.759,2.759,0,0,0,2.471,1.341,3.543,3.543,0,0,0,1.258-.194,6.239,6.239,0,0,0,2.983-2.455l.359-.483.029.524a3.9,3.9,0,0,0,.479,1.931,1.176,1.176,0,0,0,.652.549,2,2,0,0,0,1.011.091,1.424,1.424,0,0,0,1.052-.479,5.45,5.45,0,0,0,.223-.706,26.529,26.529,0,0,1,4.378-9.114C44.176-628.418,45-628.81,45.17-628a11.6,11.6,0,0,1-.516,3.515,17.9,17.9,0,0,0-.615,4,4.062,4.062,0,0,0,1.089,3.152,2.976,2.976,0,0,0,2.921.5,4.76,4.76,0,0,0,1.923-1.275A14.875,14.875,0,0,0,53-623.055a3.206,3.206,0,0,1,.19-.429s.058.326.12.71a15.8,15.8,0,0,0,1.238,4.538c.635,1.291,1.341,1.766,2.265,1.527,1.382-.359,3.35-2.278,5.252-5.12a30.477,30.477,0,0,0,1.6-2.719l.384-.743.528.012a4.532,4.532,0,0,0,2.628-.689,1.545,1.545,0,0,1,.2-.128c.008,0-.083.293-.2.648a10.417,10.417,0,0,0-.582,3.3,6.637,6.637,0,0,0,1.023,4.266,2.88,2.88,0,0,0,1.4,1.056,3.872,3.872,0,0,0,2.467.033,5.444,5.444,0,0,0,2.979-2.43c.235-.359.326-.437.326-.289a3.841,3.841,0,0,0,.128.462,3.871,3.871,0,0,0,.97,1.667,2.215,2.215,0,0,0,.949.582,2.471,2.471,0,0,0,.908.144,3.822,3.822,0,0,0,1.588-.235,5.759,5.759,0,0,0,3.709-4.864c0-.545-.239-.994-.524-.994-.177,0-.276.132-.446.6a15.431,15.431,0,0,1-.924,1.931c-.8,1.329-1.811,1.935-2.335,1.407-.248-.247-.33-.607-.326-1.419a10.029,10.029,0,0,1,.206-2.063,60.831,60.831,0,0,1,1.857-7.489c.215-.726.2-1.2-.058-1.477a1.724,1.724,0,0,0-1.345-.276,2.7,2.7,0,0,0-1.737.887,5.546,5.546,0,0,0-.871,1.147c-.045.124-.095.074-.165-.169a2.663,2.663,0,0,0-1.308-1.667,2.923,2.923,0,0,0-1.494-.293,3.019,3.019,0,0,0-1.031.111,7.169,7.169,0,0,0-3.651,2.707,5.352,5.352,0,0,1-2.868,2.1,3.771,3.771,0,0,1-1.263.045l-.111-.025.161-.413a20.3,20.3,0,0,0,.718-2.224,7.273,7.273,0,0,0,.285-2.211,3.588,3.588,0,0,0-.091-1.13,2.7,2.7,0,0,0-.668-1.225,2.071,2.071,0,0,0-1.613-.615,3.4,3.4,0,0,0-3.189,2.6,5.268,5.268,0,0,0-.272,1.758,4.746,4.746,0,0,0,2.2,4.2c.132.078.26.153.285.161a22.934,22.934,0,0,1-1.3,2.628c-1.287,2.224-2.5,3.668-3.09,3.672-.549,0-.957-1.473-1.172-4.208a40.627,40.627,0,0,1,.025-6.692c.087-.714.087-.73.012-.887-.095-.19-.276-.289-.644-.347a3.788,3.788,0,0,0-1.25.066,2.5,2.5,0,0,0-1.6,1.32,6.161,6.161,0,0,0-.59,2.6,11.173,11.173,0,0,1-.545,2.925c-.871,2.711-2.488,4.984-3.713,5.215-.73.14-1.023-.446-.916-1.84a19.69,19.69,0,0,1,.673-3.5,15.085,15.085,0,0,0,.611-3.8,3.851,3.851,0,0,0-.334-1.782,2.164,2.164,0,0,0-2.645-1.151,6.3,6.3,0,0,0-2.3,1.415,19.325,19.325,0,0,0-3.144,4.105,5.112,5.112,0,0,1-.322.512c-.008-.008.054-.318.132-.689.767-3.569.4-5.236-1.18-5.31a2.163,2.163,0,0,0-1.832.7,1.573,1.573,0,0,0-.058.578,20.7,20.7,0,0,1-2.166,8.1,6.862,6.862,0,0,1-2.476,3.177,1.048,1.048,0,0,1-.664.165c-.305,0-.351-.012-.45-.1-.26-.243-.351-.582-.351-1.349a20.791,20.791,0,0,1,.664-4.3c.243-1.06.726-2.9,1.048-3.986.128-.433.3-1,.375-1.271.268-.932.161-1.39-.375-1.621a3.064,3.064,0,0,0-1.357-.037,3.161,3.161,0,0,0-1.213.6,5.381,5.381,0,0,0-.97,1.159,1.64,1.64,0,0,1-.2.281c-.017,0-.05-.087-.078-.2a4.379,4.379,0,0,0-.239-.578,2.448,2.448,0,0,0-1.646-1.337,4.4,4.4,0,0,0-1.8,0,6.169,6.169,0,0,0-2.962,1.82,10.837,10.837,0,0,0-2.513,4.027c-1.3,3.515-3.2,6.2-5.4,7.608a9.7,9.7,0,0,1-1.671.809,6.124,6.124,0,0,1-4.893-.371c-1.9-1.118-2.971-3.391-3.181-6.787A16.021,16.021,0,0,1,6.4-632.338c1.675-3.437,4.448-6.02,7.039-6.548a5.2,5.2,0,0,1,1.712-.021,2.421,2.421,0,0,1,1.725,1.341,3.454,3.454,0,0,1,.347,1.547,6,6,0,0,1-.772,3.127c-.5.99-.578,1.275-.413,1.547.128.206.322.268.743.243a4.092,4.092,0,0,0,3.024-2.327,5.226,5.226,0,0,0,.594-2.715,4.083,4.083,0,0,0-.714-2.319,5.558,5.558,0,0,0-3.755-2.22,14.581,14.581,0,0,0-1.976-.177C13.908-640.858,13.664-640.842,13.413-640.825Zm50.208,8.2a.61.61,0,0,1,.227.293c.107.227.111.256.111.978a6.624,6.624,0,0,1-.1,1.279,13.061,13.061,0,0,1-.627,2.455,3.39,3.39,0,0,1-.54-.875,4.927,4.927,0,0,1-.05-3.651C62.895-632.676,63.217-632.833,63.621-632.627Zm-35.887,3.206c.528.314.776,1.056.776,2.335a14.3,14.3,0,0,1-1.456,5.8,6.274,6.274,0,0,1-1.2,1.8,1.613,1.613,0,0,1-1.2.627c-.821,0-1.3-.553-1.506-1.725a9.455,9.455,0,0,1,.021-2.335c.462-3.148,2.183-6.222,3.7-6.6A1.29,1.29,0,0,1,27.734-629.421Zm47.287-.025c.512.26.755.908.788,2.1a11.186,11.186,0,0,1-.417,3.272,10.629,10.629,0,0,1-2.212,4.584,1.585,1.585,0,0,1-1.225.627c-.887-.008-1.411-.792-1.539-2.294-.215-2.476,1.275-6.531,2.876-7.852A1.629,1.629,0,0,1,75.021-629.446Z" transform="translate(0)"/>
      </g>
    </g>
    <g id="Mask_Group_81" data-name="Mask Group 81" transform="translate(162 -230)" clip-path="url(#clip-path-10)">
      <path id="Path_869" data-name="Path 869" d="M9.639,0a4.869,4.869,0,0,1,4.835,4.9,4.869,4.869,0,0,1-4.835,4.9H2.76a.439.439,0,0,0-.409.409v3.269a.439.439,0,0,0,.409.409h3.2a.439.439,0,0,0,.409-.409v-2.86H8.822v2.86a2.864,2.864,0,0,1-2.792,2.86H2.76a2.864,2.864,0,0,1-2.792-2.86V10.216A2.865,2.865,0,0,1,2.42,7.355H9.707a2.452,2.452,0,1,0,0-4.9H2.76a.439.439,0,0,0-.409.409V6.538A3.871,3.871,0,0,0-.1,7.9V2.86A2.971,2.971,0,0,1,2.76,0Zm12.94,12.8H20.263V3.473h4.631a3.473,3.473,0,1,1,0,6.947H22.579Zm0-4.631h2.316a1.193,1.193,0,0,0,1.158-1.158,1.193,1.193,0,0,0-1.158-1.158H22.579Zm8.377-4.7h2.316V12.8H30.956ZM45.121,12.8H42.193L39.264,8.99l-.749.817v3H36.2V3.473h2.316v3l2.928-3h3.269L40.9,7.287Zm9.4-9.33H46.688V5.857H49.48V12.8H51.8V5.857H54.52Zm6.47,9.33a4.631,4.631,0,1,1,4.631-4.631A4.68,4.68,0,0,1,60.99,12.8m0-6.947a2.316,2.316,0,1,0,2.316,2.316A2.34,2.34,0,0,0,60.99,5.857M72.568,12.8a4.631,4.631,0,1,1,0-9.262,4.431,4.431,0,0,1,3.678,1.907L74.406,6.81a2.172,2.172,0,0,0-1.839-.953,2.316,2.316,0,1,0,0,4.631,2.457,2.457,0,0,0,1.907-1.022l1.907,1.362A4.744,4.744,0,0,1,72.568,12.8m11.85-9.33V7.015H81.149V3.473H78.9V12.8h2.247V9.4h3.269V12.8h2.316V3.473Zm23.36,6.674a3.435,3.435,0,0,0,1.907-3.133,3.488,3.488,0,0,0-3.473-3.473H101.58v9.33H103.9V10.556h1.226l1.7,2.316h2.86l-1.907-2.724ZM103.9,5.857h2.316a1.193,1.193,0,0,1,1.158,1.158,1.193,1.193,0,0,1-1.158,1.158H103.9V5.857ZM95.655,3.473h-3l-3.61,9.33H91.5l.545-1.43H96.2l.545,1.43H99.2l-3.541-9.33ZM93,9.058l1.158-3.065,1.158,3.065Zm26.9-5.585h-7.832V5.857h2.792V12.8h2.316V5.857H119.9Z" transform="translate(574.1 2147)" fill="#080808" fill-rule="evenodd"/>
    </g>
    <g id="Mask_Group_82" data-name="Mask Group 82" transform="translate(150 -279)" clip-path="url(#clip-path-12)">
      <g id="mailchimp-vector-logo" transform="translate(562.978 1885.685)">
        <g id="Group_383" data-name="Group 383" transform="translate(23.023 243.315)">
          <path id="Path_872" data-name="Path 872" d="M135.36,309.572h.6a1.683,1.683,0,0,0,0-1.123c-.127-.67-.326-1.123-.724-1.069-.4.072-.4.6-.272,1.268a1.618,1.618,0,0,0,.4.924Z" transform="translate(-114.625 -295.773)"/>
          <g id="Group_381" data-name="Group 381" transform="translate(14.616 13.496)">
            <path id="Path_873" data-name="Path 873" d="M106.321,318.73c.272.127.471.2.525.127.072-.072,0-.127-.072-.272a1.564,1.564,0,0,0-.724-.6,1.947,1.947,0,0,0-1.992.272c-.2.127-.4.326-.326.471,0,.072.072.072.127.072a8.9,8.9,0,0,1,1.395-.326,2.385,2.385,0,0,1,1.069.254Z" transform="translate(-103.716 -317.829)"/>
            <path id="Path_874" data-name="Path 874" d="M110.624,324.559a1.28,1.28,0,0,0-.725.326c-.127.127-.2.2-.2.272v.072h.072a1.366,1.366,0,0,0,.272-.072,1.943,1.943,0,0,1,1.2-.127c.2,0,.272.072.326,0V324.9c-.018-.2-.417-.4-.942-.344Z" transform="translate(-108.616 -323.333)"/>
          </g>
          <g id="Group_382" data-name="Group 382" transform="translate(15.679 12.803)">
            <path id="Path_875" data-name="Path 875" d="M110.73,316.391a2.322,2.322,0,0,0,0-1.322c-.127-.67-.326-1.069-.8-1.069-.4.072-.4.6-.272,1.322a4.2,4.2,0,0,0,.326.924c.344.543.543.4.743.145Z" transform="translate(-109.586 -314)"/>
          </g>
          <path id="Path_876" data-name="Path 876" d="M129.206,327.616a.514.514,0,0,0,.67-.127.538.538,0,0,0-.326-.6.514.514,0,0,0-.67.127C128.735,327.218,128.934,327.489,129.206,327.616Z" transform="translate(-109.667 -311.698)"/>
          <path id="Path_877" data-name="Path 877" d="M138.2,323.2c-.2,0-.4.2-.4.525,0,.272.127.525.4.525.2,0,.4-.2.4-.525C138.543,323.454,138.4,323.2,138.2,323.2Z" transform="translate(-117.011 -308.731)"/>
          <path id="Path_878" data-name="Path 878" d="M47.683,336.648a.118.118,0,0,0-.2,0h-.2a.361.361,0,0,1-.326-.2.934.934,0,0,1,0-.6l.072-.127a1.626,1.626,0,0,0,.127-1.594,1.431,1.431,0,0,0-1.069-.8,1.281,1.281,0,0,0-1.2.471,1.867,1.867,0,0,0-.471,1.449.136.136,0,0,0,.127.127c.072,0,.2-.072.272-.272v-.072a.973.973,0,0,1,.2-.471.651.651,0,0,1,.525-.326.828.828,0,0,1,.67.127.814.814,0,0,1,.326,1,1.224,1.224,0,0,0-.272.869.993.993,0,0,0,.8.924c.326,0,.6-.2.6-.326.072-.109.018-.109.018-.181Z" transform="translate(-40.533 -317.017)"/>
          <path id="Path_879" data-name="Path 879" d="M49.444,261.823a4.632,4.632,0,0,0-.2-.725l-.272-.6a2.144,2.144,0,0,0,.4-1.648,2.657,2.657,0,0,0-.6-1.2,4.475,4.475,0,0,0-2.119-1.069l-.525-.127s0-1.268-.072-1.793a5.319,5.319,0,0,0-.272-1.594,4,4,0,0,0-1.123-1.992,6.951,6.951,0,0,0,2.192-4.311c0-2.518-3.115-3.315-7.028-1.721l-.8.326s-1.449-1.449-1.521-1.449c-4.293-3.84-18,11.465-13.639,15.178l.924.8a4.853,4.853,0,0,0-.272,2.192,5.033,5.033,0,0,0,1.449,2.789,4.426,4.426,0,0,0,2.916,1.2,11.119,11.119,0,0,0,10.2,6.5c4.908.127,9.074-2.192,10.795-6.3a8.155,8.155,0,0,0,.6-2.789c.109-1.214-.561-1.666-1.032-1.666ZM29.3,264.939c-.127,0-.326.072-.471,0a3.594,3.594,0,0,1-3.242-2.989,2.966,2.966,0,0,1,2.318-3.387,1.9,1.9,0,0,1,.67-.072,2.9,2.9,0,0,1,2.518,2.644C31.35,262.946,30.97,264.667,29.3,264.939Zm-1.648-7.426a3.721,3.721,0,0,0-2.391,1.521,5.112,5.112,0,0,1-1-1c-.869-1.594.924-4.764,2.192-6.5,3.043-4.365,7.879-7.68,10.07-7.1a8.714,8.714,0,0,1,1.594,1.521,33,33,0,0,0-4.311,2.989A18.729,18.729,0,0,0,27.655,257.512Zm15.631,6.756.072-.072a.071.071,0,0,0-.072-.072,10.571,10.571,0,0,1-4.51-.471c.272-.8.869-.525,1.847-.4a12.487,12.487,0,0,0,4.438-.471,10.123,10.123,0,0,0,3.315-1.648,7.519,7.519,0,0,1,.471,1.594.617.617,0,0,1,.471.072c.2.127.326.4.272,1.069a6.4,6.4,0,0,1-1.648,3.315,7.021,7.021,0,0,1-2.047,1.521,7.736,7.736,0,0,1-1.322.525c-3.586,1.123-7.154-.072-8.277-2.789a1.821,1.821,0,0,1-.2-.67,5.518,5.518,0,0,1,1.268-5.234h0a.483.483,0,0,0,.127-.326.427.427,0,0,0-.127-.272c-.471-.67-2.047-1.793-1.721-3.985a2.914,2.914,0,0,1,2.844-2.59h.326c.525,0,1.069.127,1.449.127a3.194,3.194,0,0,0,2.246-.724,1.925,1.925,0,0,1,.869-.471.463.463,0,0,1,.326,0,.756.756,0,0,1,.525.2c.67.471.724,1.449.8,2.246,0,.471.072,1.521.072,1.793.072.67.2.8.6.924.2.072.4.127.67.2a4.223,4.223,0,0,1,1.721.8,1.232,1.232,0,0,1,.326.6c.127.724-.6,1.648-2.391,2.518a11.621,11.621,0,0,1-5.959.924l-.6-.072c-1.322-.2-2.047,1.521-1.268,2.644a4.326,4.326,0,0,0,3.242,1.268c3.188,0,5.633-1.322,6.5-2.518l.072-.127c.072-.072,0-.127-.072-.072a11.15,11.15,0,0,1-7.553,1.92,7.3,7.3,0,0,1-.8-.2,1.561,1.561,0,0,1-1.069-1.069,7.049,7.049,0,0,0,4.764,0Zm-4.51-.525Zm-5.434-12.19a12.437,12.437,0,0,1,3.641-2.989c.072,0,.072,0,.072.072a5.586,5.586,0,0,0-.326.8.071.071,0,0,0,.072.072,6.628,6.628,0,0,1,3.188-1.123.071.071,0,0,1,.072.072,3.591,3.591,0,0,0-.525.525.071.071,0,0,0,.072.072,5.582,5.582,0,0,1,2.644.724c.072,0,0,.127-.072.127a10.48,10.48,0,0,0-4.836,0,10.984,10.984,0,0,0-3.912,1.721c-.091-.018-.145-.018-.091-.072Z" transform="translate(-23.023 -243.315)"/>
        </g>
        <g id="Group_384" data-name="Group 384" transform="translate(55.041 251.934)">
          <path id="Path_880" data-name="Path 880" d="M580.016,305.2a2.927,2.927,0,0,0-2.717,1.92c-.2.471-.2.6-.326.6-.2,0-.072-.4.073-.8a4.031,4.031,0,0,0,.072-1.521H574.8v11.139h3.188v-3.514a2.441,2.441,0,0,0,2.119,1.322c2.318,0,3.441-1.92,3.441-4.564-.018-2.989-1.413-4.582-3.532-4.582Zm-.851,7.028c-.725,0-1.268-.924-1.268-2.192s.525-2.192,1.268-2.192c.869,0,1.268.8,1.268,2.192-.018,1.467-.344,2.192-1.268,2.192Z" transform="translate(-506.879 -302.61)"/>
          <path id="Path_881" data-name="Path 881" d="M209.925,294.145a2.745,2.745,0,0,0-2.391,1.793c-.2.4-.2.724-.4.724s-.072-.272-.2-.869a2.158,2.158,0,0,0-2.246-1.648,2.717,2.717,0,0,0-2.391,1.92c-.2.471-.2.6-.326.6-.2,0-.072-.4.072-.8a4.032,4.032,0,0,0,.072-1.521H199.8v8.748h3.115v-4.365c0-.869.326-1.92,1-1.92.725,0,.869.525.869,1.521v4.764h3.188v-4.365c0-.8.326-1.92,1-1.92.725,0,.869.8.869,1.521v4.709h3.043v-5.162c-.036-2.264-.833-3.731-2.952-3.731Zm53.812,0a2.745,2.745,0,0,0-2.391,1.793c-.2.4-.2.724-.4.724s-.072-.326-.2-.869a2.158,2.158,0,0,0-2.246-1.648,2.717,2.717,0,0,0-2.391,1.92c-.2.471-.2.6-.326.6-.2,0-.072-.4.072-.8a4.032,4.032,0,0,0,.072-1.521h-2.318v8.748H256.8v-4.365c0-.869.326-1.92,1-1.92.724,0,.869.525.869,1.521v4.764h3.188v-4.365c0-.8.326-1.92,1-1.92.725,0,.869.8.869,1.521v4.709h3.115v-5.162c-.181-2.264-.978-3.731-3.1-3.731Zm-45.462,0a10.209,10.209,0,0,0-4.184.869v2.644a8.568,8.568,0,0,1,3.514-1.123c1.268,0,1.395.67,1.322,1.268a8.327,8.327,0,0,0-1.449-.072c-2.59,0-3.912,1.2-3.912,3.043a2.5,2.5,0,0,0,2.717,2.518,2.974,2.974,0,0,0,2.844-1.793c.2-.4.2-.67.326-.67.2,0,.127.2.127.6a6.338,6.338,0,0,0,.127,1.648h2.409v-4.311c-.072-2.7-1-4.619-3.84-4.619Zm-.8,6.9c-.725.2-1.123-.072-1.123-.525,0-.67.725-1,1.721-1a5.441,5.441,0,0,1,.869.072A2.451,2.451,0,0,1,217.478,301.046Zm9.8-9.346h3.188v11.393h-3.188Zm6.7,7.028c0-.8.724-1.521,2.047-1.521a6.132,6.132,0,0,1,2.916.869v-3.061a4.79,4.79,0,0,0-3.188-.869,4.077,4.077,0,0,0-4.365,4.438c0,3.043,1.793,4.709,4.365,4.709A5.169,5.169,0,0,0,239,302.169v-2.916a5.855,5.855,0,0,1-2.916.924c-1.576.072-2.1-.652-2.1-1.449Zm11.393-4.582a2.929,2.929,0,0,0-2.644,2.047c-.127.326-.2.471-.326.471-.2,0-.072-.4,0-.6a10.941,10.941,0,0,0,.471-3.043,4.28,4.28,0,0,0-.127-1.322h-2.717v11.393h3.188v-4.365c0-.725.272-1.92,1.069-1.92.67,0,.869.471.869,1.449v4.836h3.188v-4.637c-.127-2.246-.453-4.311-2.97-4.311Zm3.912.2v8.748h3.188v-8.748a3.224,3.224,0,0,1-1.594.326,4.228,4.228,0,0,1-1.594-.326Z" transform="translate(-199.8 -291.555)"/>
          <ellipse id="Ellipse_36" data-name="Ellipse 36" cx="1.92" cy="1.268" rx="1.92" ry="1.268" transform="translate(49.157)"/>
          <path id="Path_882" data-name="Path 882" d="M328.5,306.3v8.748h3.17V306.3a3.224,3.224,0,0,1-1.594.326C330.076,306.572,328.5,306.3,328.5,306.3Z" transform="translate(-305.189 -303.511)"/>
          <ellipse id="Ellipse_37" data-name="Ellipse 37" cx="1.92" cy="1.268" rx="1.92" ry="1.268" transform="translate(22.967)"/>
        </g>
      </g>
    </g>
    <g id="Mask_Group_83" data-name="Mask Group 83" transform="translate(226 -226)" clip-path="url(#clip-path-13)">
      <g id="Group_387" data-name="Group 387" transform="translate(660 2139)">
        <g id="Group_385" data-name="Group 385">
          <path id="Path_883" data-name="Path 883" d="M0,3H2.631V22.077H0Z" transform="translate(0 -1.026)" fill-rule="evenodd"/>
          <path id="Path_884" data-name="Path 884" d="M24,11h2.631V24.815H24Z" transform="translate(-8.212 -3.764)" fill-rule="evenodd"/>
          <path id="Path_885" data-name="Path 885" d="M0,31H18.42v2.631H0Z" transform="translate(0 -10.607)" fill-rule="evenodd"/>
          <path id="Path_886" data-name="Path 886" d="M0,0H10.526V2.631H0Z" fill-rule="evenodd"/>
          <path id="Path_887" data-name="Path 887" d="M21.263,5.263V2.631H18.631V0H16V7.894h7.894V5.263" transform="translate(-5.474)" fill-rule="evenodd"/>
          <path id="Path_888" data-name="Path 888" d="M19.894,10.526V7.894h2.631M14.631,0V2.631H12" transform="translate(-4.106)" fill-rule="evenodd"/>
        </g>
        <g id="Group_386" data-name="Group 386" transform="translate(24.998 2.105)">
          <path id="Path_889" data-name="Path 889" d="M51.881,8.989A5.861,5.861,0,0,0,47.8,7.41c-2.895,0-4.8,1.71-4.8,5.263,0,2.3,1.184,5.131,4.8,5.131a6.248,6.248,0,0,0,3.421-.921v-2.3H46.684V10.634h8.749v7.96c-1.118,2.3-4.21,3.487-7.7,3.487C40.7,22.08,38,17.344,38,12.673S41.092,3.2,47.8,3.2a8.993,8.993,0,0,1,7.039,2.895ZM57.867,21.62V3.726h5V21.62ZM71.09,16.752v4.8H66.024V3.726h8.684c4.8,0,7.171,3.026,7.171,6.513,0,3.684-2.368,6.513-7.171,6.513Zm0-4.276h3.618A2.052,2.052,0,0,0,76.813,10.3a2.07,2.07,0,0,0-2.105-2.237H71.09ZM95.232,21.62V14.844H88.786V21.62H83.72V3.726h5.065V10.5h6.447V3.726h5V21.62Zm15.92-11.775,3.881-6.118h5.723v.2l-7.1,10.526v7.1h-5.065v-7.1L101.811,3.924v-.2h5.723Z" transform="translate(-38 -3.2)"/>
        </g>
      </g>
    </g>
  </g>
</svg>
