<svg xmlns="http://www.w3.org/2000/svg" width="79.023" height="68.552" viewBox="0 0 79.023 68.552">
  <g id="Group_489" data-name="Group 489" transform="translate(-1106.876 -738)">
    <circle id="Ellipse_50" data-name="Ellipse 50" cx="22.5" cy="22.5" r="22.5" transform="translate(1114 741)" fill="#ffd000"/>
    <g id="responsive" transform="translate(1106.807 1216.051)">
      <path id="Path_1038" data-name="Path 1038" d="M10-477.811a6.765,6.765,0,0,0-4.478,4.539c-.17.571-.216,2.625-.216,11.071v10.361l-1.143.093a4.35,4.35,0,0,0-3.073,1.282c-1.112,1.158-1.05-.216-1,20.134l.046,18.3.4.618a3.83,3.83,0,0,0,1.837,1.606c.695.309.849.324,26.48.309,20.026,0,25.847-.031,26.033-.185.664-.51.726-1.529.216-3.242a6.851,6.851,0,0,0-4.2-4.215,14.4,14.4,0,0,0-3.32-.324l-2.594-.093v-7.674H60.57l.046,6.454.046,6.439.448.818a3.914,3.914,0,0,0,2.084,1.822c.417.154,2.1.2,6.732.2,5.9.015,6.207,0,6.871-.309a3.83,3.83,0,0,0,1.837-1.606l.4-.618.046-14.252c.031-9.99-.015-14.452-.139-14.885a4.646,4.646,0,0,0-2.393-2.424,7.6,7.6,0,0,0-1.637-.17h-1.05v-14.406c0-11.889-.046-14.514-.216-15.1a6.685,6.685,0,0,0-4.555-4.555C68.089-478.136,10.975-478.12,10-477.811Zm58.844,2.918a3.632,3.632,0,0,1,1.915,1.945c.309.679.324.942.324,14.931v14.252H67.333c-3.737,0-3.752,0-4.57.4a4.126,4.126,0,0,0-2.177,3.984v.865H31.711v-5a42.146,42.146,0,0,0-.17-5.5l-.185-.494,6.578-6.593c3.613-3.613,6.655-6.778,6.732-7.01a1.387,1.387,0,0,0-1.637-1.745c-.293.077-2.625,2.3-7.072,6.747L29.3-451.485l-.818-.154c-.51-.093-4.632-.154-10.608-.154H8.087v-10.237c0-9.944.015-10.237.324-10.916a3.632,3.632,0,0,1,1.915-1.945l.772-.371H68.074ZM28.531-448.567l.4.371v30.68H2.838V-448.2l.355-.309a2.449,2.449,0,0,1,.571-.4c.124-.046,5.667-.077,12.306-.062l12.059.031Zm47.449,7.921.355.324v22.806H63.364v-11.194c0-9.589.031-11.272.232-11.658a1.351,1.351,0,0,1,.417-.51c.108-.046,2.764-.093,5.9-.093C75.562-440.986,75.624-440.986,75.979-440.646Zm-15.394,8.77v3.86H31.711v-7.72H60.585Zm-26.4,10.5v3.86h-2.47v-7.72h2.47Zm8.029,0v3.86h-5.25v-7.72h5.25Zm-13.279,7.489c0,.71-.062.926-.386,1.235l-.371.386H3.548l-.355-.34c-.293-.278-.355-.494-.355-1.235v-.9H28.932Zm20.937-.618a4.379,4.379,0,0,1,2.27,1.76l.278.479H41.964c-9.45,0-10.438-.015-10.345-.247a6.339,6.339,0,0,0,.093-1.235v-.988H40.4C47.631-414.737,49.236-414.691,49.869-414.505Zm26.465.648c0,.679-.077.957-.34,1.235l-.324.355H69.942c-4.262-.015-5.79-.062-5.975-.2a1.835,1.835,0,0,1-.6-1.56v-.71h12.97Z" transform="translate(0 0)"/>
      <path id="Path_1039" data-name="Path 1039" d="M230.39-443.6a1.318,1.318,0,0,0-.031,1.868l.371.432h6.547l.371-.432a1.318,1.318,0,0,0-.031-1.868l-.417-.4h-6.392Z" transform="translate(-194.417 -28.793)"/>
      <path id="Path_1040" data-name="Path 1040" d="M252.932-392.618c-.247.154-3.4,3.227-6.979,6.825-5.049,5.1-6.531,6.655-6.609,7.041A1.4,1.4,0,0,0,241-377.116c.463-.108,13.974-13.572,14.1-14.051a1.667,1.667,0,0,0-.772-1.59A1.3,1.3,0,0,0,252.932-392.618Z" transform="translate(-202.306 -72.007)"/>
      <path id="Path_1041" data-name="Path 1041" d="M54.134-202.866C51.2-199.947,51-199.7,51-199.175c0,.772.124,1.019.633,1.282.973.51,1.065.448,4.354-2.826l3.057-3.042-.108-.926a3.607,3.607,0,0,0-.247-1.127A1.455,1.455,0,0,0,57.9-206C57.284-206,57.192-205.923,54.134-202.866Z" transform="translate(-43.067 -230.045)"/>
      <path id="Path_1042" data-name="Path 1042" d="M105.134-202.866c-3.042,3.042-3.134,3.15-3.134,3.752a1.37,1.37,0,0,0,1.745,1.39,35.828,35.828,0,0,0,3.474-3.227c3.289-3.3,3.4-3.474,2.934-4.323a1.25,1.25,0,0,0-1.266-.726C108.284-206,108.161-205.892,105.134-202.866Z" transform="translate(-86.192 -230.045)"/>
      <path id="Path_1043" data-name="Path 1043" d="M433.494-180.807c-1.868,1.853-2.223,2.3-2.3,2.779-.093.494-.031.633.371,1.05a1.3,1.3,0,0,0,1.7.247,26.146,26.146,0,0,0,2.393-2.223c1.837-1.884,1.961-2.038,1.961-2.625A1.357,1.357,0,0,0,436.258-183C435.764-183,435.5-182.8,433.494-180.807Z" transform="translate(-364.525 -249.494)"/>
      <path id="Path_1044" data-name="Path 1044" d="M247.885-187.8a1.5,1.5,0,0,0-.124,2.208,1.535,1.535,0,0,0,1.9-.077,1.365,1.365,0,0,0-.973-2.332A1.567,1.567,0,0,0,247.885-187.8Z" transform="translate(-209.086 -245.266)"/>
    </g>
  </g>
</svg>
