<svg xmlns="http://www.w3.org/2000/svg" width="68.562" height="68.552" viewBox="0 0 68.562 68.552">
  <g id="Group_485" data-name="Group 485" transform="translate(-236.095 -628)">
    <circle id="Ellipse_46" data-name="Ellipse 46" cx="22.5" cy="22.5" r="22.5" transform="translate(236.095 638)" fill="#ffd000"/>
    <g id="rocket-launch" transform="translate(236.095 1139.928)">
      <path id="Path_1023" data-name="Path 1023" d="M52.38-511.724a36.08,36.08,0,0,0-19.43,10.378l-.937,1-1.741.161a27.373,27.373,0,0,0-8.825,2.223c-2.022.937-4.727,2.973-5.035,3.8a1.519,1.519,0,0,0,.388,1.54c.295.268.87.455,2.973.964,3.857.911,3.642.844,3.482,1.138a1.636,1.636,0,0,0,.254,1.687c.214.281,2.665,2.8,5.45,5.571,3.549,3.522,5.2,5.075,5.464,5.142a2.128,2.128,0,0,0,.911-.04l.509-.134.121.482c.08.268.415,1.66.75,3.093.5,2.089.7,2.678.964,2.959a1.452,1.452,0,0,0,1.406.428c.87-.161,3.08-3.107,4.1-5.423a28.626,28.626,0,0,0,2.116-8.945l.094-1.272.991-.924c5.852-5.464,10.244-14.4,10.579-21.466l.08-1.768-.415-.4c-.4-.415-.429-.415-1.727-.4A21.786,21.786,0,0,0,52.38-511.724Zm1.54,3.227a29.829,29.829,0,0,1-1,4.593,34.056,34.056,0,0,1-6.963,12.092c-.817.937-4.7,4.513-10.753,9.923l-.308.268-4.071-4.071c-2.25-2.25-4.084-4.111-4.084-4.151,0-.214,9.146-10.191,10.15-11.061a32.759,32.759,0,0,1,14.69-7.619,15.6,15.6,0,0,1,1.915-.321C53.867-508.858,53.92-508.818,53.92-508.5ZM28.8-496.779c-.228.268-2.544,2.866-2.919,3.294-.134.134-.576.067-2.223-.321a16.81,16.81,0,0,1-2.2-.6c-.174-.147,1.875-1.138,3.441-1.66a30.014,30.014,0,0,1,4.031-.991C29-497.074,28.946-496.94,28.8-496.779Zm13.123,13.793a20.6,20.6,0,0,1-1.888,5.8c-.415.817-.562,1-.616.8-.04-.147-.295-1.165-.562-2.263-.375-1.62-.442-2.035-.308-2.169.67-.616,3.482-3.133,3.508-3.133A5.533,5.533,0,0,1,41.922-482.986Z" transform="translate(-14.149 0)"/>
      <path id="Path_1024" data-name="Path 1024" d="M58.331-424.67a28.942,28.942,0,0,0-4.178,2.638,1.591,1.591,0,0,0,.549,2.1c.723.335,1.125.2,3.321-1.058a22.544,22.544,0,0,1,2.169-1.165c.174.174-1.3,3.924-2.6,6.6a49.174,49.174,0,0,1-17.623,20.073,60.092,60.092,0,0,1-15.2,7.325A79.167,79.167,0,0,1,3.214-384.2C.362-384.082,0-383.921,0-382.676a1.178,1.178,0,0,0,.71,1.286c.375.2.75.214,2.906.147a79.049,79.049,0,0,0,17.074-2.571c12.32-3.147,22.6-8.865,30.21-16.779a53.318,53.318,0,0,0,11.958-19.778l.442-1.312.737,1.259c.4.7,1.018,1.741,1.352,2.343.777,1.353,1.393,1.714,2.276,1.339a1.327,1.327,0,0,0,.9-1.353c0-.455-.362-1.165-2.29-4.526-2.424-4.218-2.558-4.379-3.5-4.379C62.456-426.987,61.264-426.371,58.331-424.67Z" transform="translate(0 -73.555)"/>
      <path id="Path_1025" data-name="Path 1025" d="M7.953-304.639a6.706,6.706,0,0,0-3.12,1.727c-1.1,1.219-2.477,4.285-3.991,8.892-.924,2.8-.991,3.388-.4,3.977s1.178.522,3.977-.4c4.606-1.513,7.673-2.892,8.892-3.991a6.173,6.173,0,0,0,1.768-5.209A6.028,6.028,0,0,0,7.953-304.639Zm2.8,3.375a3.98,3.98,0,0,1,.911.924,2.182,2.182,0,0,1,.375,1.58,2.121,2.121,0,0,1-.375,1.58,3.838,3.838,0,0,1-1,.964,34.932,34.932,0,0,1-5.209,2.223l-1.634.576.469-1.366c.268-.75.75-2.035,1.085-2.839,1.366-3.375,2.089-4.124,3.937-4.044A2.321,2.321,0,0,1,10.752-301.265Z" transform="translate(-0.052 -179.432)"/>
      <path id="Path_1026" data-name="Path 1026" d="M448.643-298.745a1.423,1.423,0,0,0-.509.455c-.094.161-.134,6.588-.134,19.417V-259.7l.388.388a1.182,1.182,0,0,0,1.044.388,1.131,1.131,0,0,0,1.058-.415l.388-.4.04-18.975c.027-14.061-.013-19.069-.121-19.35A1.509,1.509,0,0,0,448.643-298.745Z" transform="translate(-388.008 -184.456)"/>
      <path id="Path_1027" data-name="Path 1027" d="M320.937-149.819a2.528,2.528,0,0,0-.562.415l-.375.348V-130.6l.388.388a1.182,1.182,0,0,0,1.044.388,1.13,1.13,0,0,0,1.058-.415l.388-.4.04-9.039c.027-7.914.013-9.079-.174-9.427A1.523,1.523,0,0,0,320.937-149.819Z" transform="translate(-277.149 -313.55)"/>
      <path id="Path_1028" data-name="Path 1028" d="M192.937-85.819a2.524,2.524,0,0,0-.562.415l-.375.348v9.883l.388.388a1.182,1.182,0,0,0,1.045.388,1.131,1.131,0,0,0,1.058-.415l.388-.4.04-4.74c.027-4.084.013-4.807-.174-5.156A1.523,1.523,0,0,0,192.937-85.819Z" transform="translate(-166.289 -368.98)"/>
      <path id="Path_1029" data-name="Path 1029" d="M64.937-53.818a2.525,2.525,0,0,0-.562.415L64-53.054v5.6l.388.388a1.182,1.182,0,0,0,1.045.388,1.131,1.131,0,0,0,1.058-.415l.388-.4.04-2.6c.04-2.156.013-2.665-.174-3A1.514,1.514,0,0,0,64.937-53.818Z" transform="translate(-55.43 -396.696)"/>
    </g>
  </g>
</svg>
