<svg xmlns="http://www.w3.org/2000/svg" xmlns:xlink="http://www.w3.org/1999/xlink" width="1165" height="492" viewBox="0 0 1165 492">
  <defs>
    <clipPath id="clip-path">
      <path id="Path_107" data-name="Path 107" d="M0,0H198V300H0Z" fill="#fff"/>
    </clipPath>
    <clipPath id="clip-path-3">
      <path id="Path_250" data-name="Path 250" d="M443.887,593.648h324V727.9h-324Zm0,0" fill="#080808"/>
    </clipPath>
    <clipPath id="clip-path-4">
      <path id="Path_353" data-name="Path 353" d="M542,153.781H673V282H542Zm0,0" fill="#080808"/>
    </clipPath>
    <clipPath id="clip-path-5">
      <path id="Path_242" data-name="Path 242" d="M212.063,201.008h127.7V276.98h-127.7Zm0,0"/>
    </clipPath>
  </defs>
  <g id="Group_208" data-name="Group 208" transform="translate(-117 -5087)">
    <g id="Group_80" data-name="Group 80" transform="translate(0 -451)">
      <g id="dust-left.fb38d5a9336564ae80b9b95cc4d0ce0084aaa79da86a8f38e6912bb7332ee6e1" transform="translate(1084 5730)" clip-path="url(#clip-path)">
        <path id="Path_103" data-name="Path 103" d="M59.55,250.15a1.315,1.315,0,0,0,0,2.63,1.32,1.32,0,0,0,1.3-1.32,1.3,1.3,0,0,0-1.3-1.31ZM11.47,267.81a1.084,1.084,0,0,0-.91.52,1.884,1.884,0,0,0-.4,1.22c-.13,2.09-.39,4-.52,6.1,0,.86.52,1.73,1.3,1.73s1.3-.7,1.3-1.74c.14-2.08.27-4,.53-6.09v-.17a1.5,1.5,0,0,0-1.3-1.57Z" fill="#1b1b20"/>
        <path id="Path_104" data-name="Path 104" d="M14.8,271.36H11.43a7.311,7.311,0,0,1-1.68-.14,4.422,4.422,0,0,1-1.3-.13H8.2a.96.96,0,0,0-1.03.13,1.331,1.331,0,0,0-.65.78,1.054,1.054,0,0,0,.13,1.06,1.331,1.331,0,0,0,.78.65c.38.14.77.14,1.16.27h.9c.52,0,1.04.13,1.56.13h3.5a1.307,1.307,0,0,0,1.29-1.3,1.055,1.055,0,0,0-1.04-1.45ZM86.28,84.26a1.837,1.837,0,1,0,1.74,1.9,1.828,1.828,0,0,0-1.74-1.9ZM73.56,179.9a5.14,5.14,0,0,0-1.07-1.92c-.27-.45-.83-.76-1.24-1.21a1.092,1.092,0,0,0-1.14-.2c-.14,0-.3.14-.44.14l-.28-.01a1.3,1.3,0,0,0-1.02.4,15.725,15.725,0,0,0-3.4,2.78,2.55,2.55,0,0,0-.5,2.01,3.446,3.446,0,0,0,.8,1.78,5.006,5.006,0,0,0,.97.9l.84.47a6.271,6.271,0,0,0,2.69.83,2.459,2.459,0,0,0,1-.1,2.335,2.335,0,0,0,1.02-.55,3.924,3.924,0,0,0,1.2-1.41,6.2,6.2,0,0,0,.66-2.3,6.483,6.483,0,0,0-.09-1.6Zm-2.8,2.08c0,.15-.15.29-.16.58,0,.14-.14.14-.15.28s-.15.14-.3.14h-.13l-.15-.01-.43-.02c-.28-.16-.56-.17-.84-.32a5.967,5.967,0,0,0-.98-.62l-.28-.3s0-.15-.13-.15l.14-.14c.75-.7,1.62-1.25,2.5-1.94l.56.6c.14.15.13.3.27.44a1.285,1.285,0,0,1,.11.74l-.02.72ZM17.18,66c.99,1.03,4,2.1,5.04,1.1s2.11-4.05,1.13-5.09c-1-1.04-4-2.11-5.04-1.1s-3.11,3-1.13,5.08ZM3.35,6.58c.09.1.34.18.43.1s.18-.35.1-.44-.34-.18-.43-.09-.27.26-.1.43ZM117.42,185.43a.936.936,0,1,0,.89.97A.888.888,0,0,0,117.42,185.43ZM50.04,28.28a.318.318,0,0,0,.31-.03.512.512,0,0,0,.26-.28c.3-.55.62-1.04.92-1.6a.468.468,0,0,0-.13-.63c-.22-.1-.45.02-.58.3-.3.55-.58,1.06-.91,1.6l-.03.04a.471.471,0,0,0,.16.6Z" fill="#1b1b20"/>
        <path id="Path_105" data-name="Path 105" d="M49.58,26.88l.92.44a2.017,2.017,0,0,1,.44.25,1.683,1.683,0,0,1,.34.2l.07.04a.322.322,0,0,0,.3.1.4.4,0,0,0,.27-.14.3.3,0,0,0,.1-.3.4.4,0,0,0-.13-.28,3.013,3.013,0,0,1-.28-.22l-.25-.12c-.14-.06-.26-.17-.4-.23L50,26.16a.39.39,0,0,0-.51.2.306.306,0,0,0,.1.52Zm83.57,97.87c.07,1.68,1.2,3.28,2.75,3.16,1.3-.1,2.55-1.54,2.46-3.55-.07-1.68-1.19-3.28-2.75-3.17C134.31,121.29,133.33,123.05,133.15,124.75Zm50.22,102.61H180a7.4,7.4,0,0,1-1.68-.14,4.456,4.456,0,0,1-1.3-.13h-.25a1,1,0,0,0-1.03.13,1.354,1.354,0,0,0-.65.79,1.036,1.036,0,0,0,.13,1.05,1.324,1.324,0,0,0,.77.66c.39.13.78.13,1.16.26h.91c.52,0,1.04.13,1.55.13h3.5a1.315,1.315,0,0,0,1.3-1.3,1.062,1.062,0,0,0-1.04-1.45Z" fill="#1b1b20"/>
        <path id="Path_106" data-name="Path 106" d="M179.83,224a1.055,1.055,0,0,0-.9.52,1.83,1.83,0,0,0-.4,1.22c-.13,2.09-.4,4-.53,6.1,0,.86.52,1.73,1.3,1.73s1.3-.69,1.3-1.73c.14-2.1.27-4,.53-6.1v-.17a1.5,1.5,0,0,0-1.3-1.57Z" fill="#1b1b20"/>
      </g>
      <g id="dust-right.d91f744939075613fc9e677c4b2c800a4c03e5dcf3ca6b5d1acdb03f5885aa9d" transform="translate(117 5538)" clip-path="url(#clip-path)">
        <path id="Path_108" data-name="Path 108" d="M86.78,121.91a6,6,0,0,0-.04-2.57,12.93,12.93,0,0,0-.61-1.94,1.257,1.257,0,0,0-1.07-.82c-.14-.09-.37-.03-.52-.11l-.28-.17a1.51,1.51,0,0,0-1.27-.16,18.883,18.883,0,0,0-5.02.94,2.924,2.924,0,0,0-1.63,1.79,3.88,3.88,0,0,0-.16,2.26,5.763,5.763,0,0,0,.5,1.47l.6.94a7.388,7.388,0,0,0,2.3,2.35,2.879,2.879,0,0,0,1.1.45,2.693,2.693,0,0,0,1.35.02,4.562,4.562,0,0,0,2.01-.78,7.1,7.1,0,0,0,2.74-3.67Zm-4.02.56c-.08.15-.31.21-.48.5-.09.15-.23.06-.32.2s-.23.07-.37-.02l-.15-.08-.14-.09-.43-.26c-.2-.31-.5-.48-.7-.8a7.75,7.75,0,0,0-.66-1.18l-.12-.46a.16.16,0,0,0-.06-.23l.23-.06c1.15-.3,2.35-.37,3.65-.59l.23.93c.06.23-.03.37.03.6a1.522,1.522,0,0,1-.28.82Zm33.41,53.18c-.36-.22-1.3-.28-1.52.09s-.29,1.31.08,1.53,1.3.27,1.52-.1.65-1.1-.08-1.52Zm5,95c-.36-.22-1.3-.28-1.52.08s-.29,1.32.08,1.54,1.3.28,1.52-.1C121.47,271.81,121.53,270.87,121.17,270.65Zm29.33-21.27c-.37-.22-1.31-.28-1.53.09s-.28,1.32.08,1.53,1.3.28,1.52-.09S151.22,249.81,150.5,249.38ZM4.5,79.98a.635.635,0,0,0-.95-.15.632.632,0,0,0-.16.94.644.644,0,0,0,.95.16.644.644,0,0,0,.16-.95ZM83.97,206.07a6.072,6.072,0,1,1,0,.01ZM49.26,298.08a2.127,2.127,0,1,0,2.03,2.2A2,2,0,0,0,49.26,298.08ZM115.17,29.23a1.734,1.734,0,1,1,.01,0Zm30,46.91a.944.944,0,1,0,.85-1.02A.888.888,0,0,0,145.17,76.14ZM25.51,77.52l-.3-3.41a8.09,8.09,0,0,1-.02-1.72,4.567,4.567,0,0,1,.02-1.33l-.02-.26a1.026,1.026,0,0,0-.23-1.04,1.35,1.35,0,0,0-.85-.58,1.021,1.021,0,0,0-1.04.22,1.355,1.355,0,0,0-.59.85c-.1.4-.06.8-.16,1.2l.09.92c.04.53-.04,1.06,0,1.59l.31,3.54a1.331,1.331,0,0,0,1.44,1.2,1.06,1.06,0,0,0,1.35-1.18Z" fill="#1b1b20"/>
        <path id="Path_109" data-name="Path 109" d="M28.76,73.85a1.132,1.132,0,0,0-.6-.88,1.86,1.86,0,0,0-1.26-.29c-2.1.06-4.05-.04-6.16.02-.87.07-1.7.68-1.62,1.47s.81,1.26,1.86,1.17c2.1-.05,4.03-.1,6.15-.01l.17-.02a1.523,1.523,0,0,0,1.46-1.46Z" fill="#1b1b20"/>
      </g>
    </g>
    <g id="Group_207" data-name="Group 207">
      <g id="Group_137" data-name="Group 137" transform="translate(385.767 4824.133)" clip-path="url(#clip-path-3)">
        <path id="Path_249" data-name="Path 249" d="M767.633,597.1c.062-.949-.442-1.074-1.012-1.2-.062,0-.125,0-.125-.062.254-.125.442.129.949-.758.188-.316.442-.254-.57-.445h-.758v-.188c0-.316.125-.379-.57-.191-.063,0-.317.191-.567.316-.378-.062-1.074.254-1.011,0-.379.063-.758.063-1.137.129a2.482,2.482,0,0,1-.316-.066c-.317-.188-1.453.066-1.266-.188-2.023,0-4.1-.062-6.254-.062l-2.215-.129-4.168-.063h-.695a42.543,42.543,0,0,1-6-.062s2.906-.317-1.453-.254-7.648.441-7.648.441-5.118.254-9.481.129a77.577,77.577,0,0,0-8.023.188l-12.071.445c-1.011.063-1.961.125-2.906.188v-.188H698.5l-1.832.063v-.192a5.331,5.331,0,0,1-2.086,0,13.08,13.08,0,0,0-2.336-.062c-.441,0-1.644-.063-2.719-.063h-.882c-.571,0-.887.063-1.453.063-.7,0-1.2,0-1.961.062a14.565,14.565,0,0,1-1.645.067c-.629,0-1.766,0-2.273.062s.7.063,0,.188a4.489,4.489,0,0,1-1.2.128c-.507,0,0-.191,0-.191H679.1l-1.075.129s-.507.062-2.21.187c-1.075.063-2.086.192-2.657.192l-1.515.187c-2.34-.062-4.8-.062-7.4-.125v.192h-6.887c-1.644.25-5.879.441-5.879.441s1.266-.125.887-.191H652.3l-1.387.129c-.7.062-.949.062-.949,0v-.063l-.949.063c-.7.125-1.262.187-1.262.187l-1.453.067-3.035.187s-.254,0-.95-.062c-.7,0-.757.125-.757.125l1.328.066c-1.516.062-3.1.125-4.676.187l-.758-.125s.442-.128,0-.128a5.869,5.869,0,0,0-1.453.128v.063l-.191.129c-1.2,0-2.34,0-3.477.062l-.566-.129-.95-.062h-1.578a3.054,3.054,0,0,1-.761-.125h-1.454l-.82.062h-1.012c-.5,0-.7.063-.757.125l1.328.067c-1.52.062-2.4.316-3.981.379l-.508-.129-.253-.063s.445-.125,0-.125a6.061,6.061,0,0,0-1.454.125v.063l-.062.066-.125.063c-1.012.062-1.9.125-2.844.187h-.508l-1.324.254-.949-.062-1.516.316a2.912,2.912,0,0,1-.758-.125c-.7,0-1.265.25-1.707.25h-.632l-.063-.125c-.254-.062-.129.063-.379.063-.129,0-.191.062-.316.129-.192-.067-.317-.129-.379,0h-.316c-.125-.067-.254-.129-.379-.192-.571-.191,0,0-.7-.125s-.57.188-1.136-.129a1.859,1.859,0,0,0-.887-.254,3.969,3.969,0,0,1-.442.129.551.551,0,0,0-.378.125.346.346,0,0,0-.317.317c-.062.379-.254-.188-.254,0a2.052,2.052,0,0,0-.441,1.582c0,.445.254.379-.063.761-.129.188-.062-.254-.507.567-.125.254-.188.129,0,.508,0,.062.253.191.378.441,0,.191.317.066.192.254l1.265.633.379.316.821.445.125.063c.445-.063,1.136.695,1.136.695s-.691-.062.192.379a4.987,4.987,0,0,0,1.644.508,6.116,6.116,0,0,1,1.832,1.074,3.86,3.86,0,0,0,1.578.887l2.4,1.328.633.254-.129.191v.063l.254.254.379.254-.125.187c.253,0,.441.192.378.317s.254.382.379.445c.063.062.254.316.442.5l.191.129c.125.062.188.062.317.125.187.129.187.129.378.254.188.062.188.125.317.191a1.957,1.957,0,0,0,.441.316c.125.063-.062-.129.125-.129s.192,0,.254.063-.125.129-.125.129l.188.187.254.067a1.47,1.47,0,0,1,.5.187,5.317,5.317,0,0,1,.57.254l.379.063c.379.445.82.886,1.2,1.265l.129-.187,1.008,1.012.129.125a4.457,4.457,0,0,1,1.261.632s-.25-.125-.25,0l.317.129c.187.063.187.063.187.125l-.062.063.187.129a.774.774,0,0,1,.317.062l.316.192.633.378a.8.8,0,0,1,.125.188.14.14,0,0,0,.191.066l-.191-.254.887.7v.254s-.125,0-.063.062c.188.192.316.192.316.192l.063-.067.125-.062.57.57v.191l.125.188.254.316c.063.192,0,.254,0,.254.125.125.188.192.25.254l.192.125a.061.061,0,0,0,.062.063l.063.129c.066.125.128.062.191.062l-.191-.254a6.018,6.018,0,0,1,.886.445v.25s-.125,0-.062.067a.518.518,0,0,0,.316.187l.063-.062h.062l.063-.063c.191.188.441.188.57.379l.063.063.378.062.125.192.446.062c.062.192,0,.254,0,.254.062.125.312.063.379.063a8.408,8.408,0,0,0,0,1.836l.125.445c.125.5-.442.7-.442.7l.125.317v.316s-.125-.129-.187,0c0,.125,0,.125.125.379.125.191.125-.192.187,0a2.242,2.242,0,0,1,.067.695,1.61,1.61,0,0,0,.062.508c0,.254.063.379.063.633a1.245,1.245,0,0,1,.062.441v.254c0,.254-.062.7-.062.824s.062.7-.063.758-.129.379,0,.633h-.191l.062.57v.571h-.187l-.063.441.063.191a1.844,1.844,0,0,1-.254.633l-.188.063a5.321,5.321,0,0,1,.629,1.2c.067.187.129.5.254.82,0,.067.063.129.063.254a2.124,2.124,0,0,0,.129.445l.125.317v.316a.221.221,0,0,0-.125-.062v.25c0,.066.062.129.125.191.125.191.125-.191.191,0a2.416,2.416,0,0,1,.062.7c0,.192.063.254.063.508a2.2,2.2,0,0,1,.062.633c.063.188.063.254.129.441v.254a2.478,2.478,0,0,1-.066.7v.129a2.44,2.44,0,0,1,0,.7l.191.316c.063.188.125.5.254.821a4.017,4.017,0,0,0,.188.636l.125.317v.316s-.125-.129-.188,0c0,.125,0,.125.125.379.129.188.129-.191.192,0v.063a2.192,2.192,0,0,1,.062.632c0,.192.063.254.063.508a2.185,2.185,0,0,1,.062.633c.067.187.067.25.129.441v.125a3.806,3.806,0,0,0,.188.633l.128.317v.316s-.128-.125-.191,0c0,.129,0,.129.125.383.129.187.129-.192.191,0s.063.5.125.695a1.9,1.9,0,0,0,.129.508,2.15,2.15,0,0,1,.063.633c.062.187.062.25.125.441v1.074c0,.129.062.7-.063.762s-.125.379.063.633h-.188l.063.57v.567h-.192l-.062.445.062.187-.187.633c.062.192.125.067.316.317a1.4,1.4,0,0,0,.629.382,2.018,2.018,0,0,0,.067.821c.125.57,0,0,.25.633s.445.445.445,1.015a1.611,1.611,0,0,0,.188.883s.253.254.316.316a2.017,2.017,0,0,0,.254.317s.062.254.441.129-.062.316.125.254a1.825,1.825,0,0,0,.824,0s.125.125.379,0,.063.316-.062.566.25.57.312.7.067.887.446.821a1.255,1.255,0,0,0,.629-.317s.128.508.57.383l.441-.129a11.086,11.086,0,0,0,1.832-.758l.317-.254a.635.635,0,0,1,.758.125l.191-.187c.125-.067.254-.129.254-.129s-.063.191.062.129.125-.067.254-.254-.191-.063-.129-.191.379-.254.508-.317a3.584,3.584,0,0,0,.379-.254c.188-.125.25-.125.441-.25a1.2,1.2,0,0,0,.317-.254l.187-.129a6.429,6.429,0,0,1,.7-.187c.129-.063.508-.254.633-.191.062.128.378,0,.507-.188l.125.188.442-.254.379-.188h.062l.129.188.379-.063.125-.125h.633l.125.125a4.582,4.582,0,0,1,.7-.949,2.255,2.255,0,0,1,.57-.442l.125-.128a1.435,1.435,0,0,1,.317-.25l.191-.192.25-.125v.125h.067c.062,0,.125,0,.125-.062a.787.787,0,0,0,.125-.192c.129-.187-.188-.062-.125-.187s.379-.254.5-.317a4.216,4.216,0,0,0,.378-.254c.192-.128.254-.128.446-.253a1.2,1.2,0,0,0,.316-.254l.188-.125c.191-.067.441-.129.57-.192a.221.221,0,0,0,.125-.062,1.5,1.5,0,0,1,.57-.192l.188-.254a2.254,2.254,0,0,1,.57-.441,1.385,1.385,0,0,0,.441-.379l.192-.191.25-.125s-.063.187.062.125.129-.063.254-.254-.187-.063-.125-.188l.063-.062a1.219,1.219,0,0,1,.5-.254,3.651,3.651,0,0,0,.379-.254c.191-.125.254-.125.445-.254a1.1,1.1,0,0,0,.316-.254l.063-.062a1.385,1.385,0,0,0,.441-.379l.192-.192.25-.125s-.063.192.062.125.129-.062.254-.25-.187-.066-.125-.191a2.214,2.214,0,0,1,.5-.316,3.1,3.1,0,0,0,.379-.254c.191-.125.254-.125.445-.254a1.109,1.109,0,0,0,.313-.25l.191-.129a6.241,6.241,0,0,1,.7-.188c.125-.066.5-.254.633-.191.063.125.379,0,.5-.191l.063.191.445-.254.379-.187h.062l.125.187.379-.062.129-.125h.567c.128-.129,0-.129.128-.321a1.956,1.956,0,0,0,.125-.7,1.55,1.55,0,0,0,.633-.254.064.064,0,0,1,.063.066c.062.063.062.063.125.063a3.681,3.681,0,0,1,.633.441l.378.129c.192.063.571.25.887.379.567.254.758.317.758.317l.379.125a2.8,2.8,0,0,0,.316.191s-.254,0-.066.125.129.129.445.129-.062-.192.125-.192h.063a3.455,3.455,0,0,1,.633.379,3.5,3.5,0,0,0,.5.254,3.511,3.511,0,0,1,.633.379,3.329,3.329,0,0,1,.442.192h.066l.063.062c.566.254.757.316.757.316l.379.129c.192.125.317.188.317.188s-.254,0-.063.129c.125.125.125.125.442.125.254,0-.063-.192.125-.192a3.778,3.778,0,0,1,.7.383,3.822,3.822,0,0,0,.508.25,3.42,3.42,0,0,1,.629.383,3.216,3.216,0,0,1,.445.187l.25.192a9.2,9.2,0,0,1,.762.633c.125.125.7.441.629.57s.253.379.632.441l-.125.192.567.316.508.317.062.062-.125.192.379.316.188.062.441.571c.254.125.191-.067.445,0a1.94,1.94,0,0,0,.758-.192,5.3,5.3,0,0,0,.758.571c.57.379,0,0,.758.254s.7-.067,1.265.378a1.926,1.926,0,0,0,.946.5h.507a.713.713,0,0,0,.442,0s.254.129.441-.25c.192-.316.254.25.317.063a1.688,1.688,0,0,0,.7-.824,6.141,6.141,0,0,0,.7-.571s-.125.7,1.012,0l1.137-.7c1.328-.824,3.1-2.09,4.675-3.164.254-.191.508-.441.825-.7,1.008-.825,1.578-.571,1.578-.571l.57-.57c.379-.254.629-.441.629-.441s-.25.316.066.125a2.025,2.025,0,0,0,.7-.633c.379-.442-.383.129-.129-.125a13.383,13.383,0,0,1,1.39-1.016,4.891,4.891,0,0,0,.95-.758c.5-.379.758-.57,1.2-.886.316-.254.508-.442.82-.7l.571-.379a20.109,20.109,0,0,1,1.707-1.078,9.6,9.6,0,0,1,1.515-.949c.129.067.821-.379,1.266-.883l.125.125,1.137-.824,1.011-.7.125-.063.129.125.945-.57.317-.316,1.391-.633.253.066c.633-.7,1.329-1.457,2.211-2.281.317-.317.887-.82,1.52-1.328a2.976,2.976,0,0,0,.441-.379,5.093,5.093,0,0,0,.821-.762l.57-.566c.379-.254.629-.446.629-.446s-.125.192,0,.192a.2.2,0,0,0,.129-.063c.187-.129.254-.129.316-.254a1.87,1.87,0,0,1,.379-.378c.379-.446-.379.125-.129-.129a8.9,8.9,0,0,1,1.391-1.012,4.916,4.916,0,0,0,.949-.758c.5-.383.758-.57,1.2-.887.317-.254.508-.445.824-.7l.567-.383c.508-.316,1.074-.695,1.453-.949a.842.842,0,0,0,.254-.187,7.371,7.371,0,0,1,1.39-.887l.571-.571a19.112,19.112,0,0,1,1.515-1.328c.95-.824,1.262-1.078,1.262-1.078l.57-.566c.379-.254.633-.445.633-.445s-.254.316.125.128a2.022,2.022,0,0,0,.7-.632c.378-.446-.379.125-.125-.129l.125-.125c.316-.254.886-.7,1.265-.95a8.331,8.331,0,0,0,.946-.761c.507-.379.757-.571,1.2-.887.316-.25.5-.441.82-.695l.062-.063.129-.125c.946-.824,1.262-1.078,1.262-1.078l.57-.57c.379-.25.629-.442.629-.442s-.25.317.129.125a1.942,1.942,0,0,0,.7-.632c.378-.442-.379.128-.129-.125a13.381,13.381,0,0,1,1.39-1.012,4.919,4.919,0,0,0,.949-.762c.5-.379.758-.57,1.2-.887.316-.25.507-.441.824-.7l.566-.379a19.984,19.984,0,0,1,1.707-1.074c.317-.191,1.391-1.016,1.516-.949s.824-.383,1.266-.887l.125.125,1.14-.82,1.008-.7.129-.063.125.191.887-.57.312-.316,1.266-.633c.379-.379.125-.254.5-.7a4.084,4.084,0,0,0,.632-1.2s.508-.316,1.645-1.2,0,0,1.262-1.14.695-1.075,1.961-1.9a10.3,10.3,0,0,0,1.707-1.39s.441-.633.566-.762c.379-.441.57-.7.57-.7l.063-.063c.191,0,.316,0,.191-.062C767.824,597.738,767.824,597.422,767.633,597.1ZM636.5,621.41l-.063-.062s0-.067.063-.067C636.82,621.219,636.758,621.281,636.5,621.41Zm.57-2.406a5.6,5.6,0,0,0-1.39.508c-.192-.192-.254-.192-.254-.192a.7.7,0,0,0-.254-.125.284.284,0,0,0-.317.063l-.125-.125a.462.462,0,0,0,.192-.7l-.317-.442a16.671,16.671,0,0,0-1.453-1.644l-.316-.254a.708.708,0,0,1-.129-.824l-.316-.125a1.161,1.161,0,0,1-.188-.254s.188,0,.125-.125-.062-.129-.316-.192,0,.192-.125.125a3.152,3.152,0,0,1-.5-.441,2.185,2.185,0,0,0-.379-.317,2.291,2.291,0,0,0-.445-.378c-.125-.063-.25-.192-.379-.254l-.188-.192c-.191-.187-.445-.566-.508-.633-.125-.125-.5-.441-.441-.566s-.192-.383-.442-.445l.125-.125-.441-.379-.316-.383-.063-.063.125-.125-.254-.378-.187-.067a5.965,5.965,0,0,1-.254-.633l.062-.187a5.757,5.757,0,0,1-1.261-.383c-.192-.125-.442-.25-.7-.379-.062-.062-.129-.062-.191-.125-.25-.129-.379-.191-.379-.191l-.316-.125c-.125-.129-.188-.192-.188-.192s.125,0,.125-.062v-.063c-.062-.062-.062-.062-.125-.129a.488.488,0,0,1-.254-.062c-.254-.063.063.191-.125.129-.129-.067-.379-.317-.57-.446a2.016,2.016,0,0,0-.379-.253,3.8,3.8,0,0,0-.5-.379,1.224,1.224,0,0,1-.379-.254l-.191-.188c-.125-.129-.379-.379-.5-.508l-.067-.062c-.062-.063-.378-.316-.5-.441l-.317-.129c-.187-.063-.5-.254-.758-.379a4.039,4.039,0,0,0-.632-.317l-.317-.125a1.023,1.023,0,0,0-.25-.191s.188,0,.063-.125-.129-.129-.379-.129.062.191-.129.191h-.063a1.484,1.484,0,0,1-.5-.382,1.413,1.413,0,0,0-.441-.25c-.191-.067-.254-.192-.445-.254H619.7c.5-.063,1.075-.063,1.7-.129,2.086-.125,2.657.445,2.657.445l1.265-.129h1.2s-.633.129,0,.192a6.5,6.5,0,0,0,1.453-.125c.882-.129-.633-.129,0-.192s1.957-.062,2.781-.062c.758,0,1.012-.063,1.957-.063s1.582-.066,2.4-.066a16.035,16.035,0,0,1,1.77-.063h1.137c1.265,0,2.718.063,3.289.063a18.59,18.59,0,0,1,2.843.066,7.809,7.809,0,0,0,2.528,0v.188l2.273-.063h2.274v.192l1.707.062.757-.062c.825.062,1.645.187,2.4.25l.316.191c1.453-.254,3.16-.441,5.055-.633.695-.062,1.9-.125,3.289-.254.379,0,.629-.062.883-.062,1.328-.063,1.769-.125,1.769-.125l1.328-.129h1.2s-.379.062-.188.129h.82c.188,0,.379-.067.821-.129.886-.125-.633-.125,0-.188s1.961-.066,2.781-.066c.758,0,1.012-.063,1.961-.063s1.578-.062,2.4-.062a16.035,16.035,0,0,1,1.77-.063h1.137c1.011,0,2.086.063,2.781.063h3.16a9.46,9.46,0,0,1,1.328-.125c.7-.066,1.9-.129,3.285-.254,2.024-.129,2.657-.191,2.657-.191l1.324-.125h1.2s-.633.125,0,.187a6.487,6.487,0,0,0,1.453-.125c.883-.125-.633-.125,0-.191h.254c.695,0,1.832-.063,2.527-.063.758,0,1.012-.062,1.957-.062s1.582-.063,2.4-.063a16.274,16.274,0,0,1,1.769-.062h.442c2.023-.129,2.656-.192,2.656-.192l1.324-.125h1.2s-.633.125,0,.188a6.487,6.487,0,0,0,1.453-.125c.883-.129-.633-.129,0-.192s1.957-.062,2.782-.062c.757,0,1.011-.063,1.957-.063h1.136l-4.925.887c-.825.188-1.583.379-2.4.567l-.062-.188h-.192l-1.39.188L710,602.1l-.062-.187a3.262,3.262,0,0,1-1.708.25,8.21,8.21,0,0,0-1.96.191c-.379.063-1.391.192-2.274.254l-.758.125a7.6,7.6,0,0,1-1.2.254c-.629.125-1.008.192-1.64.317s-.825.191-1.329.254a16.831,16.831,0,0,0-1.894.378c-.445.129.633-.062.062.192a1.7,1.7,0,0,1-1.011.254c-.442.062,0-.129,0-.129s-.317.062-.821.129l-.886.25s-.442.129-1.832.445c-.883.254-1.707.441-2.211.57l-1.2.379c-1.96.317-4.046.633-6.2.949l.063.188-5.118.887-.57.062c-1.324.508-4.8,1.332-4.8,1.332s1.012-.316.7-.316h-.063l-1.14.316c-.567.188-.758.25-.758.188v-.063l-.758.192c-.5.187-1.012.379-1.012.379l-1.2.316-2.465.633a4.365,4.365,0,0,0-.82.125c-.57.066-.633.254-.633.254l1.074-.188c-1.265.317-2.527.567-3.855.883h-.7s.317-.188,0-.125a4.516,4.516,0,0,0-1.2.379v.062l-.129.129c-.945.188-1.957.379-2.906.633h-.5l-.824.125-1.262.254a1.809,1.809,0,0,1-.695,0c-.508.125-.887.191-1.2.254l-.7.187a1.023,1.023,0,0,0-.312.067c-.129,0-.316.062-.508.062-.441.063-.566.188-.566.254l1.074-.191c-1.266.316-1.9.7-3.223,1.012h-.7s.313-.188,0-.125a4.341,4.341,0,0,0-1.2.378v.063l-.063.062-.062.067c-.82.187-1.516.5-2.34.695l-.441.125-1.012.508-.82.125-1.2.633a1.716,1.716,0,0,1-.691,0c-.57.129-1.012.508-1.328.57a8.331,8.331,0,0,0-.824.192C637.453,619.133,637.137,618.75,637.074,619Zm8.215,17.976-.062.25a.858.858,0,0,1-.129.192s-.063-.192-.125-.063c-.063.063-.063.063-.063.254s.188,0,.188.125-.188.317-.254.442-.125.191-.188.316a1.918,1.918,0,0,1-.191.383c-.063.125-.063.187-.125.316l-.125.188c-.129.129-.379.379-.379.445-.066.063-.254.442-.379.379s-.254.188-.254.379l-.191-.063-.188.379-.191.317-.063.062-.187-.062-.254.254v.125a1.571,1.571,0,0,1-.441.254H641.5a4.926,4.926,0,0,1,.125,1.011c0,.129-.062.383-.062.571v.7a.764.764,0,0,1-.125.191.222.222,0,0,0-.129-.062h-.063c-.062.062-.062.062-.062.125s0,.062.062.191c.063.188.192-.062.192.063a1.344,1.344,0,0,1-.192.441.589.589,0,0,0-.062.317c0,.191-.125.253-.125.382s-.063.188-.063.317l-.066.187a1.9,1.9,0,0,1-.25.379l-.063.067c-.066.062-.129.316-.254.378l.063.254a2.167,2.167,0,0,1-.063.567v.191a4.946,4.946,0,0,0-.254-1.14L639.6,644l-.254-.7h.191V642.8l-.066-.442h.191c-.125-.191-.125-.507,0-.507.125-.063.063-.442.063-.571,0-.062.062-.441.062-.7v-.254c0-.125-.062-.187-.062-.379s-.063-.254-.063-.508a.942.942,0,0,1-.062-.379,1.6,1.6,0,0,0-.063-.57c-.066-.125-.066.192-.191,0s-.125-.187-.125-.316.187,0,.187,0v-.25l-.125-.254a5.421,5.421,0,0,1-.191-.508,3.383,3.383,0,0,0-.25-.633l-.192-.379c0-.633.063-1.265.063-1.9h-.188v-1.774a5.363,5.363,0,0,1-.445-1.39s.129.316.191.187l-.125-.316c-.066-.188-.066-.25,0-.25h.063l-.063-.254a.936.936,0,0,1-.191-.316l-.062-.383L637.7,629a.612.612,0,0,1,.067-.254c0-.187-.129-.187-.129-.187l-.063.378-.191-1.14.129-.188s.125.063.125,0a.57.57,0,0,0-.125-.383h-.063l-.129-.062-.062-.887.125-.125.066-.254v-.379a.878.878,0,0,1,.125-.191v-.379l-.062-.187v-.192c0-.125-.063-.191-.129-.191l-.063.316c-.062-.379-.316-.566-.379-.949l.129-.125.063-.062s.125.125.125,0,0-.192-.063-.254a.981.981,0,0,1,.254-.063s-.57.7,1.2.317c.571-.129,1.137-.192,1.77-.317,2.148-.445,4.93-1.078,7.457-1.582.441-.129.883-.254,1.391-.383,1.707-.5,2.273-.062,2.273-.062l1.012-.317c.633-.125,1.011-.187,1.011-.187s-.441.25.063.125a2.836,2.836,0,0,0,1.2-.379c.7-.316-.57,0-.066-.191a20.408,20.408,0,0,1,2.277-.5c.633-.192.82-.192,1.641-.383.761-.188,1.265-.317,1.961-.442.5-.125.882-.253,1.453-.378l.886-.192c1.075-.187,2.274-.379,2.715-.441a9.976,9.976,0,0,1,2.4-.379,4.586,4.586,0,0,0,2.086-.383l.062.191,1.832-.379,1.645-.316h.187l.063.188,1.457-.188.629-.191c.7-.063,1.39-.063,2.023-.125l.254.125c1.137-.442,2.527-.887,4.043-1.328.57-.129,1.582-.379,2.656-.7.313-.066.5-.129.758-.191,1.074-.254,1.453-.379,1.453-.379l1.074-.316c.633-.129,1.012-.192,1.012-.192s-.316.129-.129.192h.191a1.784,1.784,0,0,1,.5-.063c.129-.066.317-.129.633-.254.7-.254-.57-.062-.062-.191s1.644-.317,2.273-.442.824-.191,1.645-.316,1.261-.254,2.023-.379c.5-.129.883-.191,1.453-.316l.946-.192c.824-.125,1.707-.254,2.339-.316.188,0,.317-.063.442-.063.441-.062,1.707-.316,2.211-.316.379-.129.7-.192,1.074-.317.57-.128,1.582-.382,2.656-.632,1.645-.383,2.211-.508,2.211-.508L710.82,609c.633-.063,1.012-.125,1.012-.125s-.5.187,0,.125a3.748,3.748,0,0,0,1.2-.316c.7-.254-.566-.063-.062-.188l.191-.066c.567-.125,1.516-.25,2.086-.379.442-.063.7-.125,1.074-.188l-1.961.7c-.632.253-1.261.57-1.894.82l-.063-.188h-.129l-1.136.317-1.2.441-.067-.187a2.916,2.916,0,0,1-1.387.441c-.066-.125-1.265.316-1.582.441-.316.067-1.136.321-1.832.508l-.632.192c-.379.125-.567.254-.946.379-.508.191-.762.253-1.328.441-.508.191-.633.254-1.074.383s-1.2.379-1.516.5c-.316.191.5-.125.063.191a4.223,4.223,0,0,1-.758.379c-.316.125-.066-.125-.066-.125s-.25.063-.7.188l-.7.316s-.379.129-1.453.633c-.7.316-1.324.57-1.7.761l-.95.5c-1.644.508-3.285.95-4.992,1.457l.063.192-4.172,1.328-.442.125c-1.011.57-3.793,1.644-3.793,1.644s.758-.378.508-.378h-.062l-.887.378c-.441.192-.633.317-.633.254v-.062l-.629.254a5.773,5.773,0,0,1-.824.441l-.945.379-1.961.824a3.981,3.981,0,0,1-.633.125c-.5.129-.5.317-.5.317l.883-.25c-1.012.379-2.02.758-3.094,1.136h-.57s.254-.187-.063-.125a4.19,4.19,0,0,0-.949.442v.066l-.062.188c-.758.254-1.578.508-2.34.761h-.442l-.632.125-1.075.317a5.219,5.219,0,0,1-.566.062,9.251,9.251,0,0,0-.949.317l-.571.254a1,1,0,0,0-.25.062,1.5,1.5,0,0,0-.441.129c-.383.063-.445.188-.445.25l.886-.25c-1.011.379-1.515.82-2.593,1.2h-.567s.254-.187-.062-.125a4.19,4.19,0,0,0-.949.442v.066l-.125.125c-.7.254-1.2.57-1.832.758l-.317.129-.758.5-.632.129-.95.632a5.118,5.118,0,0,1-.57.063c-.441.129-.758.508-1.074.633a2.539,2.539,0,0,0-.629.191c-.192.379-.57,0-.508.254a1.073,1.073,0,0,0-.441.188c0-.063,0-.063-.063,0,0,0-.129-.188-.758-.063s-.632.191-.632.191a1.038,1.038,0,0,0-.317.125c-.191.125-.191.442.125.571a.157.157,0,0,1,.067.254c-.383.316-.383.379-.383.379a1.479,1.479,0,0,0-.379.379v.062c-.125.129-.125.379-.188.445-.062.125-.82.5-.441.758l.062.063a.239.239,0,0,0-.191.062l-.316.192a6.656,6.656,0,0,0-1.2,1.14l-.125.317A.485.485,0,0,1,645.289,636.98Zm3.031-1.519Zm11.567,8.922a3.074,3.074,0,0,1-.824.316,3.4,3.4,0,0,0-1.516.887l-2.211,1.391-.5.445-.129-.192h-.062l-.317.129-.379.188-.125-.188a.375.375,0,0,1-.445.188c-.062-.125-.441.062-.5.129a4,4,0,0,1-.57.125l-.188.062a.83.83,0,0,1-.254.192c-.125.125-.254.125-.379.187a.788.788,0,0,1-.316.192c-.125.062-.379.125-.441.254s.191,0,.125.187-.063.191-.188.191-.062-.125-.062-.125a.486.486,0,0,0-.192.063l-.125.187a.977.977,0,0,1-.379.317,3.547,3.547,0,0,0-.445.383l-.187.316c-.508.188-1.075.379-1.582.57l.128.188-1.265.508-.125.062a1.3,1.3,0,0,1-.508.508l.129-.57v-.508l.187.062.129-.25.063-.316.187.062a.223.223,0,0,1,.192-.316c.125,0,.191-.254.254-.316a1,1,0,0,0,.25-.379l.066-.129v-.254c0-.125.063-.188.125-.316,0-.125,0-.188.063-.254a.664.664,0,0,0,.125-.317c0-.062-.125.067-.188-.062s-.062-.125,0-.188.125.063.125.063a.221.221,0,0,0,.063-.129l-.063-.188v-.824l-.062-.254a8.4,8.4,0,0,0,.632-.949l-.191-.063.508-.82.062-.066a1.978,1.978,0,0,1,.063-.949s0,.191.125.191v-.191c0-.125,0-.125.066-.125h.063v-.125a.644.644,0,0,1-.063-.254l.063-.192.062-.441a.216.216,0,0,1,.125-.067c.067-.062-.062-.125-.062-.125l-.188.125c.063-.187.188-.441.25-.632h.192s.062.128.125.066a.312.312,0,0,0,0-.254h-.063l-.125-.062c.063-.129.188-.317.25-.446h.191l.125-.062.192-.125h.187l.129-.129v-.125h.063a.061.061,0,0,0,.062-.063.09.09,0,0,0,0-.129l-.187.129c.062-.191-.067-.445.062-.632h.188s.062.125.129.062c.125-.129.062-.191.062-.191l-.062-.063-.067-.062-.062-.063c.062-.129.062-.254.129-.383l.062-.062-.062-.317.125-.062-.063-.316h.188c.066-.063-.063-.254,0-.317s.066-.062.129-.062c-.192-.254.187.062,0-.129,0,0,.062,0,.062-.125l.441.191a.731.731,0,0,1,.442.82l.379.063a3.068,3.068,0,0,0,.316.191s-.187.063-.062.125a.593.593,0,0,0,.441.129c.317,0-.125-.191.067-.191a3.954,3.954,0,0,1,.7.379,3.139,3.139,0,0,0,.5.254c.254.129.379.191.633.316.187.063.316.129.5.191l.254.188c.317.191.633.508.758.57.125.129.7.379.633.508s.254.379.566.379l-.062.191.57.317.442.316.062.063-.062.191.379.317.191.062a3.411,3.411,0,0,1,.441.57Zm92.957-41.961a40.26,40.26,0,0,0-3.6,3.1s-2.465,1.961-4.8,3.418a34.911,34.911,0,0,0-3.98,2.977l-5.941,4.555c-.442.379-.887.824-1.329,1.2l-.125-.125-.128.062-.821.571-.949.7-.125-.129c-.379.383-.949.824-1.074.7-.125-.066-1.012.567-1.266.758-.25.125-.883.57-1.453.887l-.441.316c-.254.188-.442.379-.7.57-.379.25-.566.442-1.011.758a7.178,7.178,0,0,1-.821.633c-.316.254-.883.633-1.136.824-.254.254.378-.191.125.125-.254.379-.254.379-.567.508-.254.188-.129-.129-.129-.129s-.187.129-.5.317l-.441.445s-.254.254-1.012.887c-.508.441-.949.882-1.265,1.136l-.633.7c-1.262.824-2.528,1.648-3.852,2.535l.125.187-3.16,2.153-.379.254c-.7.757-2.719,2.4-2.719,2.4s.571-.566.317-.441l-.633.57a2.142,2.142,0,0,1-.441.379l-.063-.063-.441.379c-.254.317-.571.633-.571.633l-.7.57-1.453,1.2a1.892,1.892,0,0,0-.5.317c-.379.254-.316.379-.316.379l.7-.442c-.758.567-1.52,1.2-2.277,1.77l-.5.129s.125-.254-.063-.129a3.572,3.572,0,0,0-.695.633l.062.062v.192l-1.769,1.265-.379.129-.508.25-.82.508a3.857,3.857,0,0,0-.5.191c-.317.188-.508.379-.758.5l-.379.317a.971.971,0,0,1-.191.129,1.422,1.422,0,0,1-.317.187c-.254.191-.316.316-.316.379l.7-.441c-.758.57-1.011,1.074-1.832,1.707l-.316.128-.188.063s.125-.254-.066-.125a3.745,3.745,0,0,0-.7.633l.066.062v.188c-.508.383-.887.824-1.328,1.14l-.254.192-.5.7-.508.254-.566.82a5.139,5.139,0,0,0-.508.192c-.379.254-.5.633-.695.824-.25.125-.379.25-.5.316l-.254-.254-.945-.7-.129-.129c-.5-.062-1.391-1.011-1.391-1.011s.824.253-.25-.442a6.409,6.409,0,0,0-2.023-.887,11.666,11.666,0,0,1-2.274-1.457,6.069,6.069,0,0,0-2.023-1.14l-3.1-1.645-.82-.316.125-.188-.063-.066-.379-.25-.441-.254.125-.191a.562.562,0,0,1-.5-.379c.063-.125-.379-.379-.508-.446-.062-.062-.379-.316-.566-.5l-.254-.128c-.129-.063-.254-.125-.379-.188-.191-.129-.254-.129-.508-.316-.187-.063-.25-.129-.441-.192a1.03,1.03,0,0,0-.567-.316c-.191-.063.125.191-.128.191s-.254,0-.379-.129.062-.125.062-.125a2.006,2.006,0,0,0-.25-.191l-.316-.063a2.019,2.019,0,0,1-.633-.253,3.481,3.481,0,0,0-.758-.25l-.508-.067-1.769-1.328-.125.191-1.516-1.078-.191-.125a8.478,8.478,0,0,1-1.707-.57s.379.129.316,0l-.379-.125c-.187-.063-.25-.063-.25-.129l.063-.062-.254-.063a2.241,2.241,0,0,1-.442-.062l-.316-.192-.82-.316s-.067-.063-.192-.192c-.191-.125-.254,0-.254,0l.317.254-1.262-.633-.129-.253s.192-.063.063-.125a1.09,1.09,0,0,0-.442-.125v.062l-.125.063-.633-.379c1.137-.379,2.34-.7,3.414-1.078.317-.125.7-.317,1.075-.442,1.324-.57,1.894-.125,1.894-.125l.821-.383a6.085,6.085,0,0,1,.824-.25s-.379.25.062.125a2.476,2.476,0,0,0,.946-.441c.507-.317-.5,0-.063-.192a15.351,15.351,0,0,1,1.832-.632c.508-.192.7-.254,1.328-.508s1.012-.379,1.582-.567c.442-.191.7-.253,1.137-.445l.758-.254c.883-.254,1.832-.5,2.211-.633a7.37,7.37,0,0,1,1.961-.5c.125.125,1.011-.192,1.707-.508l.062.191,1.516-.508,1.328-.441.187-.067.063.192,1.2-.317.5-.253c.57-.063,1.137-.188,1.707-.254l.254.129c.883-.508,1.957-1.079,3.16-1.645.441-.191,1.262-.508,2.082-.887a3.9,3.9,0,0,1,.57-.254c.821-.378,1.137-.507,1.137-.507l.824-.379a5.571,5.571,0,0,1,.821-.254s-.192.191-.063.191h.125a2.97,2.97,0,0,0,.442-.129c.066-.062.253-.125.507-.316.5-.317-.441,0-.062-.188a11.987,11.987,0,0,1,1.832-.632c.5-.192.7-.254,1.324-.508s1.012-.379,1.582-.571c.442-.187.7-.25,1.137-.441l.758-.254c.7-.187,1.39-.379,1.9-.5.125-.066.25-.066.313-.129a14.684,14.684,0,0,1,1.769-.5l.824-.445c.442-.187,1.262-.5,2.086-.887l1.77-.757.82-.379a5.591,5.591,0,0,1,.82-.254s-.378.254.063.125a2.455,2.455,0,0,0,.949-.442c.508-.316-.441,0-.062-.191l.187-.063c.445-.191,1.2-.441,1.645-.57.5-.187.7-.254,1.328-.5s1.012-.383,1.578-.57c.441-.191.7-.254,1.137-.445l.129-.063.187-.062c1.328-.571,1.77-.758,1.77-.758l.824-.383a5.814,5.814,0,0,1,.82-.25s-.379.25.063.125a2.52,2.52,0,0,0,.949-.441c.5-.317-.442,0-.063-.192a12.025,12.025,0,0,1,1.832-.633c.5-.191.7-.254,1.325-.507s1.011-.379,1.582-.571c.441-.187.7-.25,1.136-.441l.758-.254c.887-.254,1.832-.5,2.215-.633a7.39,7.39,0,0,1,1.957-.5c.125.125,1.012-.191,1.707-.508l.063.192,1.515-.508,1.328-.441.192-.067.062.192,1.2-.317.508-.254c.567-.062,1.074-.187,1.578-.254.571-.25.254-.187.758-.5a4.007,4.007,0,0,0,1.137-.949,19.105,19.105,0,0,0,2.215-.695,5.108,5.108,0,0,0,1.261-.57h1.516c.758-.129.317-.192,1.012-.383a5.786,5.786,0,0,0,1.515-.821,15.374,15.374,0,0,0,1.9-.191A2.79,2.79,0,0,0,752.844,602.422Zm.886-.317s.254-.316.379-.441c.125,0,.317-.062.442-.062C754.047,601.918,753.73,602.1,753.73,602.1Zm-129.488,64.3c-.758-.316-2.336.192-1.262-.5.571-.379.883,0,2.149-1.14.379-.379.82-.379-1.074-.317-.317.063-2.024.254-3.664.508-.571-.062-2.465.633-2.149.254-3.351.7-6.762,1.453-10.367,2.4l-3.6.887-6.761,1.961-1.137.316c-2.59,1.079-9.6,3.293-9.6,3.293s4.55-2.027-2.4.633c-6.887,2.785-11.754,5.063-11.754,5.063s-7.773,3.293-14.535,3.988a39.2,39.2,0,0,1-12.07-.254,25,25,0,0,1-3.727-1.078c.633-1.137,1.516-2.719,2.02-3.73a24.8,24.8,0,0,0,1.265-3.547,24.4,24.4,0,0,0,.821-4.618,29.531,29.531,0,0,0,0-3.418,14.073,14.073,0,0,0-.25-2.214,17.807,17.807,0,0,0-1.707-5.446c-.192-.379-.379-.7-.508-.949a12.118,12.118,0,0,0-4.484-4.238,9.941,9.941,0,0,0-3.352-.824,10.65,10.65,0,0,0-7.266,2.277c-3.73,3.164-3.476,4.875-3.664,4.746a14.129,14.129,0,0,0-.824,2.66,16.91,16.91,0,0,0-.441,2.469s0-1.266-.192,0a9.546,9.546,0,0,0,.067,2.973c.25,1.711,0-1.266.187,0,0,.129.063.316.063.507a26.531,26.531,0,0,0,1.074,4.809,24.359,24.359,0,0,0,1.644,3.48,21.811,21.811,0,0,0,2.653,3.735c.824.887,1.39,1.457,2.34,2.344l.253.187.379.317a29.962,29.962,0,0,1-3.793,2.976l.129.188a53.084,53.084,0,0,1-8.535,4.75l-1.008.441c-1.14.633-3.351,1.707-5.183,2.531-1.9.824-3.477,1.4-3.477,1.4s1.832-.762,1.266-.633l-.063.062-2.023.821c-1.012.383-1.391.508-1.453.445v-.062l-1.391.441c-.887.316-1.894.633-1.894.633-.762.191-1.454.316-2.215.441a21.174,21.174,0,0,1-4.485.317s-.379-.063-1.453-.188-1.2,0-1.2,0c.7.125,1.328.188,1.961.254a54.084,54.084,0,0,1-7.332-1.078l-1.262-.442s.758.063,0-.128a13.083,13.083,0,0,0-2.465-.379v.062l-.316.067a49.44,49.44,0,0,0-6.2-.887l-1.008-.192-1.77-.125c-.949,0-1.9,0-2.843.063h-1.457c-1.075.125-1.895.254-2.59.379l-1.516.316a4.322,4.322,0,0,1-.633.129c-.254.063-.632.125-1.074.25a3.236,3.236,0,0,0-1.328.508l-.062.062c.757-.253,1.582-.378,2.339-.57a41.2,41.2,0,0,0-6.824,2.66l-.887.317-.441.187s.633-.441-.062-.125a16.157,16.157,0,0,0-2.34,1.391v.066l-.125.125-.129.192a34.76,34.76,0,0,0-4.235,3.1l-.757.567c-.567.632-1.075,1.14-1.641,1.836-.445.378-.887.824-1.328,1.265-.57.824-1.074,1.582-1.582,2.469-.692.824-.946,1.141-.946,1.141a26.01,26.01,0,0,0-1.328,2.972c-.316.762-.57,1.266-.7,1.711,0,.887-.566,1.266-.379,1.582a6.094,6.094,0,0,0-.254,1.074,12.63,12.63,0,0,0,.129,3.672c.82,3.356,1.262,3.039,1.137,3.039a9.655,9.655,0,0,0,.758,1.075c.57.632.191-.379-.379-2.34-.379-1.965.254-.633.254-.633.062,0-.067-.445-.067-2.852.192-2.339.067.953.7,2.786.7,1.835.761.507.886.57.063.129,1.707,2.09.95-.063a10.267,10.267,0,0,1-.317-4.621c.063,0,.188,1.2,1.074-1.707a12.609,12.609,0,0,1,1.325-2.785c1.835-3.355,5.878-7.027,10.05-9.367a16.291,16.291,0,0,1,2.336-1.266c2.91-1.457,3.985-1.074,3.985-1.074.629-.254,1.261-.508,1.894-.7a11.344,11.344,0,0,1,1.832-.379s-.883.316.063.129.886-.192,2.211-.508-1.008,0,0-.191a29.141,29.141,0,0,1,4.234-.317,27.511,27.511,0,0,1,3.1.129c1.453.125,2.4.316,3.793.5,1.011.191,1.769.316,2.843.508l1.832.379c2.149.508,4.614,1.011,5.563,1.14,1.008.254,5.055.442,5.18.5a14.43,14.43,0,0,0,4.613-.316v.191c1.391-.191,2.719-.508,4.047-.824,1.2-.25,2.336-.633,3.472-.949l.446-.125.062.191,2.906-.949,1.2-.508c1.39-.445,2.718-.887,3.918-1.328h.507c2.211-1.2,4.8-2.6,7.708-4.43,1.074-.636,2.843-1.836,4.867-3.355.508-.445.886-.7,1.265-1.012a30.569,30.569,0,0,0,2.4-2.215c.508-.507.949-1.015,1.457-1.586.062.067.187.067.25.129a20.827,20.827,0,0,0,2.086.887s-1.074-.254-.063.125a12.337,12.337,0,0,0,2.59.7c1.582.254-1.074-.441.063-.187a49.949,49.949,0,0,0,4.929.887,29.487,29.487,0,0,0,3.539.187,31.608,31.608,0,0,0,4.3-.187c1.141-.129,1.9-.254,3.1-.446.633-.125,1.328-.187,1.961-.316,2.273-.379,4.676-.949,5.621-1.2,1.012-.254,4.551-1.453,4.742-1.391a18.708,18.708,0,0,0,4.043-1.457l.063.191,3.539-1.457,3.16-1.265.379-.125.062.187,2.719-1.011,1.137-.508c1.265-.379,2.527-.758,3.6-1.074a18.324,18.324,0,0,0,1.9-1.012,18.511,18.511,0,0,0,2.843-1.645s1.454-.445,5.18-1.711c3.731-1.2,0,0,4.3-1.519,4.3-1.453,2.973-1.266,6.828-2.278,2.086-.507,3.16-.757,5.75-1.519.063,0,1.9-.633,2.336-.82,1.391-.446,2.215-.7,2.215-.7s1.578-.378,1.262-.7,2.086-.316,1.707-.441C626.4,666.914,625.316,666.723,624.242,666.406Zm-85,1.457v2.785a11.886,11.886,0,0,1-.5,3.04,35.873,35.873,0,0,1-1.265,3.605,19.123,19.123,0,0,1-.946,1.961,19.482,19.482,0,0,1-4.363-5.063,18.228,18.228,0,0,1-1.641-3.6l.188-.063-.063-.253a12.394,12.394,0,0,1-.316-2.153,9.7,9.7,0,0,1,.062-2.344h.192a3.328,3.328,0,0,1,.695-2.214,10.224,10.224,0,0,1,1.391-1.707,4.591,4.591,0,0,1,2.086-.825,1.724,1.724,0,0,1,.566,0,1.919,1.919,0,0,1,.824.192,3.16,3.16,0,0,1,1.137,1.011,3.979,3.979,0,0,1,.883,1.458,12.677,12.677,0,0,1,.758,2.656c.129.7-.063-.949.191-.063a3.881,3.881,0,0,1,.254,1.582C539.438,668.559,539.246,667.863,539.246,667.863Zm0,0" fill="#080808"/>
      </g>
      <g id="Group_145" data-name="Group 145" transform="translate(-268 5181.264)" clip-path="url(#clip-path-4)">
        <path id="Path_352" data-name="Path 352" d="M643.109,233.887c.27-.145.52-.3.774-.465L646.3,231.8c1.761-1.172,3.511-2.3,5.113-3.18a56.542,56.542,0,0,0,5.793-4.629c-.637.481-2.637,1.668-1.609.594a21.307,21.307,0,0,1,2.57-2.023c-.078.4,2.746-1.516.812.027.868.18,4.344-3.067,4.661-2.524a16.715,16.715,0,0,1,1.921-1.476c.454-.328.918-.668,1.332-.992.2-.164.4-.321.563-.469l.508-.469c.14-.012.047.106-.145.274a5.38,5.38,0,0,1-.508.429c-.4.317-.839.641-.785.715l1.274-.965.1.16.324-.2.383-.25.7-.468a13.3,13.3,0,0,0,1.09-.891,6,6,0,0,0,1.133-1.645,9.7,9.7,0,0,0,.715-3.214l.059.1a6.332,6.332,0,0,0-.079-1.781,7.332,7.332,0,0,1,.446,2.125,5.978,5.978,0,0,0-.586-3.653,8.162,8.162,0,0,0-2.473-2.945,1.551,1.551,0,0,0-.133-.3,6.407,6.407,0,0,0-1.808-.722c.343.054.472.062.308-.063a13.833,13.833,0,0,1-1.836-.242l-1.043-.207-.808-.129a11.063,11.063,0,0,0-2.617-.242c-.84-.254-1.45-.981-2.676-.817l.332-.543c2.89.52.988.625,4.055,1.055-2.059-1.258-8.372-2.426-12.606-3.016-3.457-.179-9.012-1.523-10.57-.789l.4-.316-2.871-.461-1.441-.215-.176-.027-.106-.027-.211-.043-.406-.125a4.761,4.761,0,0,1-3.265-2.59,3.657,3.657,0,0,1-.211-.477,2.407,2.407,0,0,1-.125-.328l-.145-.4q-.3-.786-.582-1.536c-.394-.992-.793-1.918-1.211-2.753l-.047-1.059c-2.211-3.3-4.664-12.207-6.64-14.207-.454-2.141.652.469.929.6-.429-1.546-2.058-3.82-2.039-5.441.18-.062.9,2.07.68,1.07-.051-1.214-.871-1.461-.93-2.828-.152.668-1.426-1.734-2.14-3.554a1.491,1.491,0,0,1,.113.5c-.168.356-.586-1.035-.891-1.773a.5.5,0,0,1,.192.238c-.481-1.172-.9-2.351-1.477-3.636a10.707,10.707,0,0,0-2.543-3.727,5.539,5.539,0,0,0-2.121-1.2,6.051,6.051,0,0,0-2.441-.125,6.621,6.621,0,0,0-4.137,2.367c-.531.648-.84,1.207-1.238,1.781L604,159.887l-2.242,3.465c-1.469,2.32-2.9,4.636-4.3,6.91l.754-1.836a37.6,37.6,0,0,1-2.52,4.453l.082-.207c-1.859,2.246-1.031,3.094-2.613,4.746l.145-.414c-1.543,3.07-2.977,4.66-4.083,7.863-1.277,2.332-1.425,1.946-2.386,3.539a4.5,4.5,0,0,0-.5,2.336l.3-.672c.613-.621-.356,1.6-.629,2.672.789-.551,1.367.141,3.031-2.472.715-2.141,1.625-1.676,2.566-4.02-.035-1.6,1.969-3.07,2.426-5.4-.109,1.308,1.441-2.348,1.024-.313.742-.672,1.835-4.551,3.117-5.922-.051.309.082.3-.071.7.957-2.343,1.114-1.359,2.024-2.984l-.465-.176c.211-.711.621-.726.867-1.328-.308.41-1.031,1.235-.93.637a16.479,16.479,0,0,1,1.016-2.324c.168.089-.082.695-.25,1.1,0,0,1.051-1.73,1.328-1.73a12.121,12.121,0,0,0-.777,2.2c1.449-2.223.242-.106,1.226-1.024-.679.02.95-2.1,1.594-3.382.278,0-.465.89-.5,1.285,2.289-1.789,1.977-3.571,4.094-6.383a2.4,2.4,0,0,1-.258.687,8.667,8.667,0,0,1,1.266-1.738,3.21,3.21,0,0,0,.808-1.246c.328-.309.481-.191.641-.144.152.078.383.023.711-.133-.235-.215.012-.324.32-.364s.621.02.7-.293a1.616,1.616,0,0,1,.528.629c.332.036.484-.168.668-.324a.315.315,0,0,1,.359-.062c.164.062.355.2.719.781.476,1.133.175,1.23-.141,1.16s-.7-.2-.574.492c.183.129.363.274.551.422l.218,1.328-.1-.2c.394.789.82,2.324.644,2.391-.183-.086-.5-.981-.675-1.063.773,1.262,1.05,5.7,2.449,6.824.121.864.7,2.532.34,2.418.652.6,1.136,3.7,1.765,4.7-.183-.094-.047,1.015.344,1.8-.227-1.152.16-.515.641.157.047,1.07,1.238,3.722.9,4.3.781,1.418.934.746,1.395.961.046,1.071,1.167,4.137.429,3.782-.219-.852-.75-2.743-1-2.266.34,1.648.387.633.891,1.914-.133-.062-.035,1-.282.8a20.15,20.15,0,0,1,.981,2.949c-.344-1.793.762.965.625-.141l-.969-1.5c-.711-1.984.16-.523.035-1.324,1.321,3.461,1.645,2.574,3.043,5.778.063.324.149.773.231,1.187a8.291,8.291,0,0,0,.332,1.184,3.951,3.951,0,0,0-.414-.782c-.1-.1-.184-.14-.258-.117a.247.247,0,0,0-.156.207,1.362,1.362,0,0,0,.062.574c.735,1.25,1.336,2.348,2,3.387a10.743,10.743,0,0,0,2.074,2.43c-.507-.449-.558-.649-.425-.664a2.849,2.849,0,0,1,.925.32,19.139,19.139,0,0,0,2.121,1.07c.4.188.528.266.567.348.09.148-.2.293.824.727a14.045,14.045,0,0,0,1.4.308l1.171.153,1.657.222c1.062.164,2.047.34,3,.512a44.089,44.089,0,0,0,5.718.766l-1.832-.754-.691.379c-1.437-.559.406-1,1.3-1.188.2.188,2.683.449,1.66.57l2.43.161c-.324-.262-1.9-.407-.739-.454.77.262,3.215.762,1.625.786,1.266.21,2.907.335,2.676.015,2.047.336-.312.543-1.254.586,1.61.3,1.332.664.825.711l2.246.34c-.512.039-.547.226-1.051.269,1.433.43,2.574.118,3.75.747l.637-.278,3.726,1.1c.43.125.848.242,1.4.379l.437.109c.059.02.024.012.039.02l.024.023a1.286,1.286,0,0,0,.113-.273c.266-.215.316-.055.2.089-.1.165-.312.25-.179.266.246.059.265.277.753.481-.027.269-.347.125-.511.035a1.179,1.179,0,0,1,.015.117v.066l-.191.2c-.266.265-.566.566-.9.855a8.738,8.738,0,0,1-2.156,1.473c.821-.727,1.477-1.309,2.281-1.938-.5-.219-2.945,1.86-4.453,2.61-.843.828-3.66,3.4-5.175,4.91,1-.215,1,.445-.348,1.808.078-.4-2.274,1.176-3.469,1.735.383-.59-2.789,1.054-.57-.575.742-.328,1.265-.2,2.09-.933a22.546,22.546,0,0,0-3.993,1.613,4.722,4.722,0,0,1,1.5-1.406c-.356.394-.059.3.066.355,2.582-2.136-.965-.156-.75-.726-.684.578-2.293,1.578-1.4,1.3-1.848.386-4.168,3.277-6.055,3.859-.027.1,1.012-.313.023.562-.2.145-.371.27-.527.368l-.691.437a10.963,10.963,0,0,1-1.032.559c-.546.258-.9.351-1.6.738-.328.324-1.367,1.117-2.387,1.863a22.748,22.748,0,0,1,.809,2.965c.4,1.192.414.555.492.086s.211-.758.758.731a10.2,10.2,0,0,1,.625,1.531c.086.269.164.539.238.82.047.192.094.387.141.582a18.872,18.872,0,0,0,.535,2.192c.109,1.769-.656-1.622-.992-2.282l1.433,4.715c.121,1.461-.609-.515-.914-1.937a10.773,10.773,0,0,0,1.6,4.824c.219,1.215.461,1.824.59,2.988-.493-1.066-1.137-.828-1.692-2.551-.687-2.89.77.918.25-1.558l-.445-.11a12.381,12.381,0,0,0-.871-2.988c-.063-.656.179.1.344.508-.278-1.016-.465-1.941-.692-2.789-.117-.438-.23-.809-.39-1.242-.231-.7-.485-1.391-.786-2.09.114.625.254,1.305.414,2.008.09.414.188.843.286,1.277.2.793.414,1.6.625,2.359a13.32,13.32,0,0,1,.687,3.508l1.93,5.328c.183-.047,0-2.019.656-.543-.309.75-.113,2.418.324,4.547.317-.906,1.281,3.258,1.426,2.1a1.985,1.985,0,0,1-.187-1.668c.535,2.035.535.164.835,1.277.8,3.758-.355-.058.352,3.645a31.365,31.365,0,0,1-2.109-4.543c-.188.2.527,2.023.48,2.941-.023-1.265.684.719.555-.293.465,1.449,1.035,3,1.6,4.645.282.816.571,1.656.844,2.515.129.43.262.864.4,1.3.121.41.238.824.351,1.239-.191.027-.433-.438-.668-.981s-.473-1.238-.7-1.871c-.469-1.262-.9-2.309-1.215-1.637.535,1.727.891,1.633,1.168,3.055a4.684,4.684,0,0,0,.106,1.4l.058.285.043.18c.035.125.078.258.125.395.09.164.25.425.18.632a.8.8,0,0,0,.293-.089c.23.339-.164.687-.418.746l-.027-.153a1.115,1.115,0,0,1-.106.3.113.113,0,0,1-.09-.07c-.054.2-.347.266-.633.148s-.5-.371-.773-.488c-.113.152.023.262.2.352s.363.144.5.218a1.406,1.406,0,0,0,.34.321c.145.117.285.254.129.406a3.185,3.185,0,0,1-1.348-.434c-.117-.054-.23-.109-.355-.175-.035-.012-.227-.149-.344-.227l-.406-.281c-.551-.383-1.117-.813-1.727-1.313l.707.723a17.549,17.549,0,0,1-3.09-2.344c-1.933-1.957,1.879.883.747-.347,1.035.429,2.238,1.9,2.757,1.7l-1-1.485c-1.308-.66-2.215-2.043-3.027-2.636l.676.871c-.422.179-.993-.7-1.34-1.075l.172.922c1.136,1.094,2.3,1.383,2.957,2.375-2.266-1.632-2.082-.851-4.668-3.023.035-.277.551.355.929.449-.773-.867-2.007-1.293-3.3-2.664.906.6,2.371,1.543,1.539.41l-1.051-.316c-.606-.625-.223-.52-.481-.762-.871-.875-.093.539-1.48-.832-.156-.254-.574-.758-.3-.644-1.66-1.493-.9-.6-2.6-1.829,1.4,1.243,1,1.8-.5.563-2-1.879-3.641-2.859-4.653-4.551l-1.1-.617c.855.219-1.156-1.266-1.793-1.941.148-.5,3.027,2.812,3.554,2.257-1.281-1.269-.542-.91.02-.668-1.484-1.265-.891-.089-1.734-.453.062-.07-.536-.644-1.016-1.14l-.32-.348a3.439,3.439,0,0,1-.3-.332c-.125-.168-.078-.215.3-.031a5.625,5.625,0,0,0-2.078-1.243c-.571-.2-1.071-.332-1.825-.667.293-.09.661-.188.6-.477a7.591,7.591,0,0,1-1.3-.4,11.824,11.824,0,0,0-1.48-.386c.2.07-.02.14-.028.211s.188.113,1.192.273a2.509,2.509,0,0,1-.965-.035c-.461-.027-1.023-.117-1.574-.109-1.1-.04-2.114.136-2.031.277-.129-.188-1.223-.067-2.45.445a15.323,15.323,0,0,0-3.379,2.008c.411.309,1.043-.387,1.875-1a6.56,6.56,0,0,1,1.27-.777,1.178,1.178,0,0,1,1-.09,18.525,18.525,0,0,0-2.313,1.246,13.05,13.05,0,0,0-1.324.988c-.41.379-.891.852-1.16,1.157a45.49,45.49,0,0,0-3.586,4.21c-2.066,1.926-.277-.257-.937-.089,1.664-2,2.324-2.289,3.753-4.059a47.321,47.321,0,0,0-5.543,6.238c-1.812,1.953-2.742,1.465-4.816,3.891.523-.074.523.027,1.313-.6a18.905,18.905,0,0,1-1.965,1.946c-.262.543,1.187-.821.4.2-.394.308-1.2,1-1.2.7l.133-.168c-2.016,2.293-2.11.941-3.641,3.109.262-.019.551-.543,1.094-.883.527-.148-.438,1.192-1.293,2.047.019-.308-.828.66-1.535,1.125-.661.086,1.562-1.425,1.718-1.886-.6.48-1.2.976-1.812,1.441l.414-.266c-.582.614-1.156,1.246-1.75,1.844,1.309-1.18.949-.164.355.348-1.433,1.031-2.925,1.98-2.984,1.531.059.457-1.727,1.742-2.863,2.387,1.386-.582.34.234-.008.535a6.773,6.773,0,0,1-2.09.262c.981-.27.844-.371.527-.383s-.773-.09-.585-.258a2.377,2.377,0,0,1,1.035-.555,11.1,11.1,0,0,0,1.582-.664,7.768,7.768,0,0,0-2.328.879,3.179,3.179,0,0,1-.832.336.828.828,0,0,1-.707-.1c.062-.184.2-.356.566-.3-.07-.063-.234.011-.484.027a.958.958,0,0,1-.793-.258.574.574,0,0,1-.106-.148,1.39,1.39,0,0,1,.012.258c0,.14-.039.285-.238.277a.67.67,0,0,1-.375-.152,1.81,1.81,0,0,1-.059-1.133c-.031-.543-.1-.625-.27-.707-.148-.11-.386-.02-.339-1.035-.18.41-.336.812-.457,1.05-.473.078.378-2.543-.051-2.668a10.31,10.31,0,0,0-.133,1.664c0,.231-.012.465-.016.719-.011.207-.031.418-.062.625-.211.2-.293-.1-.278-.551a16.239,16.239,0,0,0,.086-1.636,25.6,25.6,0,0,1,1.278-4.207c.683.035.246,3.574,1.191,3.277a65.743,65.743,0,0,1,1.36-8.449c.214-2.469-.356-2.34-.8-2.043a8.27,8.27,0,0,1,.445-2.133l.024,1.176c.292-3.039.355-4.793.906-7.946.183-1.8-.336-1.152-.723-.777l.254-1.945-.137.281c-.355-.5.082-2.2.313-3.48.187.023.1.82.222.765a13.89,13.89,0,0,0,.571-3.8c.187.028.469.883.109,2.223-.066.133-.125.051-.2.188l-.145,2.332c.223-2.688.961-4.184,1.4-4.043.219-2.684-.824,2.078-.461-1.1a18.148,18.148,0,0,0,.859-2.957c.1-.484.188-.957.266-1.418.039-.23.078-.457.113-.683.031-.278.067-.555.1-.825a36.768,36.768,0,0,0-.383-5.664,10.768,10.768,0,0,0-2.852-3.094,12.023,12.023,0,0,0-2.058-1.246l-.578-.269-.489-.207-1.007-.465c-.164.344-1.887-.758-1.825-.211a9.525,9.525,0,0,0,1.852,1.023c.625.274,1.227.458,1.965.778a5.54,5.54,0,0,1,3.058,2.953c.954,1.191.957.621,1.461,1.18.649,1.3.8,2.691.586,2.894a3.945,3.945,0,0,0-.57-1.476,1.589,1.589,0,0,0-.477-.45,2.331,2.331,0,0,1-.515-.562c-.223-.313-.5-.817-1.059-1.578a18.337,18.337,0,0,0,.836,1.926,7.963,7.963,0,0,1,.617,2.621c-.23-.364-.34.062-.472.867-.16-.442-.344-1.125-.641-1.77a6.577,6.577,0,0,0-1-1.6c.3.226.125-.375.336-.176a7.627,7.627,0,0,0-2.457-2.2c-.625-.774-.793-1.137-.191-1.012a18.745,18.745,0,0,0-3.016-1.465c-.988-.437-1.731-.816-1.613-1.074-2.317-1.035.578.656.7.891l-.207-.071,2.429,1.141c-.015.719-2.668-1.484-3.324-1.109-.9.882-3.234-2-5.008-2.661l2.329.188-1.782-.664c1.121.179,1.364-.332,3.012.086-2.328-1.172-5.539-3.032-7.109-3.621-.454-.547-.59-.922-.2-1.055-2.582-.664-3.523-2.031-5.535-3.031-2.285-.762,1.957,1.441.207,1.058a7.846,7.846,0,0,0-2.425-1.14,32.819,32.819,0,0,1,4.371,2.445c-1.164-.586-1.223-.145-1.625-.148l1.918,1.035c-.36.406-2.426-1.141-3.453-1.348.785-.133.472-.305,1.257-.437a31.4,31.4,0,0,1-2.984-1.317l-.379-.2-.3-.16-.543-.313a3.684,3.684,0,0,1-.8-.605c-.406-.469.7.148,1.1.16-.019-.195-.32-.266-.613-.4-.3-.113-.555-.316-.434-.5.422-.039.574.434,1.028.535a2.482,2.482,0,0,1-.668-.433,2.374,2.374,0,0,1-.485-.629,2.318,2.318,0,0,1-.254-.754,2.347,2.347,0,0,1,.008-.793c.211.035.258.758.4,1.195-.043-.445-.039-.8-.086-1.2a5.907,5.907,0,0,1-.063-1.531,2.714,2.714,0,0,1,1.676-.523c.461-.012.687.058.6.234.363-.238.031-.316-.063-.484a8.4,8.4,0,0,0,1.219-.422,6.508,6.508,0,0,0,.906-.485,5.974,5.974,0,0,1,1.613-.816l-1.2-.016c2.453-.324.387-.726,2.547-1.043-.242.446.008.813.461,1.094.246-.445,1.656-.5,2.559-.742-.657-.2,1.859-.84.3-.8,2.028-.836,3.125-.6,4.555-1.437-1.008.129,1.734-.813.824-.86,2.043-.535,3.551-.429,3.086.082-.715.137-1.883.25-1.734.535l3.711-.953c.965-.031,2.175-.215,2.418.16,1.09-.738,3.6-.457,4.39-1.21a5.415,5.415,0,0,1-2.789.421l.563-.207c-.1.02-.2.036-.305.047l1.461-1.066c-1.621.058-.18.527-2.375,1-2.059-.246,4.094-1.961,2.02-1.934-1.676.145-1.25.723-2.54,1.262l.356-.063-2.973.973c-.2-.2.684-.59.684-.59-3.676.852-4.328.629-8.293,1.528.308.011,1.25.507-.477,1.062-1.211.488-1.461.121-2.519.348.6-.242,1.066-.77,1.972-.735l-.191-.461c2.809-1.316,1.141-1.406,5.133-2.554.1-.395,2.984-1.274,5.211-1.664l-1.141-.074c2.137-1.122.543.394,3.34-.766,1.355.371,3.727.644,2.207,1.523,2.094-.289,2.727-.777,4.582-1.156,1.246.289-.449.684-.129,1.168a7.078,7.078,0,0,0,1.891-.7c.433-.278.535-.465,0-.418a8.118,8.118,0,0,0,2.379-1.125c.136.051-.633.644-.977.8a4.6,4.6,0,0,0,1.555-1.242,4.413,4.413,0,0,0,.832-1.418,2.637,2.637,0,0,1-.7.9,7.517,7.517,0,0,0,.91-1.688,2.951,2.951,0,0,0,.266-1.168,2.488,2.488,0,0,1-.731,1.367,6.313,6.313,0,0,0-.98,1.27,1.35,1.35,0,0,1,.488-1.133c-.949.809-1.879,1.527-2.477,1.461a1.71,1.71,0,0,0,.77-.449,1.727,1.727,0,0,0,.457-.766c-.317.27-.777.664-1.254,1s-.953.61-1.2.774c-.078-.125-.3-.129-.586-.075-.149.02-.278.051-.477.09l-.621.141c-.734.176-1.3.312-.937,0a7.191,7.191,0,0,1-2.36.516c.02-.274,1.981-.84,2.774-1.313l1.1-.3a1.876,1.876,0,0,1,.356-.074c.132-.012.089.078-.02.2-.148.219-.934.621-.445.613a6.253,6.253,0,0,0,1.144-.347,5.6,5.6,0,0,0,1.02-.528c-.235.028.519-.793-.68-.066a11.272,11.272,0,0,1,.883-1.086,13.486,13.486,0,0,1,1.125-1.156c-.016-.289-.4.347-.578.5a1.68,1.68,0,0,0-.024-.766c-.1-.219-.273-.215-.746.258.3-.277-.258.7.4.3a2.27,2.27,0,0,1-1,.722c-.383.129-.645.079-.473-.195a4.6,4.6,0,0,1-1.078.66,1.188,1.188,0,0,1-.192.078l-.3.094-.582.18-.938.281c-.343-.211.836-.3,1.313-.527l-3.473.9,1.067.082c-2.618.332-4.094,1.406-6.11,2.086.176-.535,1.879-.961,3.18-1.5-1.422-.285-.789.484-2.949.875-.3-.019-.407-.117-.3-.289l-1.61.8c-.406.047-.324-.051-.168-.129-2.562,1.113.282.6-3.507,1.723,2.406-.321,1.918-.8,3.91-1.215,1.222.074-2.125,1.129-2.649,1.465-1.933.343-2.328-.309-4.64.667,1.64-.648-.043-.457,2.367-1.062,1.293-.57-.766-.035-1.11-.238-.617.246.543.386-1.25.758l.055-.086-2.773,1.242c-2.77.445-5.914,2.2-7.907,2.2l.571.363-1.36.438c-.476.16-.918.277-1.6.543l-1.754.664a2.921,2.921,0,0,0-.7.344,2.863,2.863,0,0,0-.535.363c.027-.215.363-.512.918-.817.589-.269,1.355-.578,2.152-.918l-1.535.536a5.89,5.89,0,0,0-1.4.625,5.45,5.45,0,0,0-1.9,1.961,5.39,5.39,0,0,0-.355,4.468,6.253,6.253,0,0,1,.277-1.953,4.811,4.811,0,0,1,.824-1.656c-.215,1.137-.379,1.746-.551,2.508a3.047,3.047,0,0,0-.074.6,2.435,2.435,0,0,0,.039.692,3.116,3.116,0,0,0,.821,1.656c-.43.3-.9-.684-.95.211a10,10,0,0,0,2.082,1.625,13.214,13.214,0,0,0,2.563,1.043c.09.18.09.305-.012.375a.445.445,0,0,1-.223.062,2.259,2.259,0,0,1-.46-.078,8.473,8.473,0,0,1-1.524-.539,6.114,6.114,0,0,1-1.973-1.336,11.591,11.591,0,0,1-1.058-1.769,8.013,8.013,0,0,1-.606-2,4.668,4.668,0,0,1,.821-3.672,6.188,6.188,0,0,0-.836,1.18,5.956,5.956,0,0,1,1.843-3.086c.211-.172.411-.356.629-.52l.688-.445,1.676-.754-.063.1,1.067-.918-1.422.531c.211-.152.543-.356.953-.6l1.129-.633a10.3,10.3,0,0,1,1.457-.726,10.44,10.44,0,0,0-1.649.68c-.117.054-.168.1-.324.175s-.293.164-.426.243c-.269.16-.488.312-.687.453-.4.289-.7.547-1,.8l-.473.379-.258.192-.242.246a8.162,8.162,0,0,0-3.179,3,4.383,4.383,0,0,0-.61,3.414c-.285.2.008,2.484-.609.722a6.515,6.515,0,0,1,.015-2.851c.176-.707.321-1.145.215-1.3a13.014,13.014,0,0,0-.562,2.1,6.358,6.358,0,0,0,.293,3.129c.332.289.785,1.093,1.613,1.878a8.849,8.849,0,0,0,3.188,2.012c.625.285,1.332.551,1.964.84.446.188.891.387,1.321.594a24.442,24.442,0,0,1,2.258,1.207c-1.586-.731-3.344-1.117-3.09-.641,1.117.043,2.91,1.828,2.726,1.043,1.809.934,4.891,2.426,4.852,3-1.817-.668-3.348-1.781-4.867-2.394.4.207.734.523.441.519l-2.137-1.109a12.882,12.882,0,0,0,3.235,2c-.114-.106-.34-.313-.129-.239l1.707.832-.156.473c1.671.559,4.414,2.6,7.445,3.676l-.3-.035c2.242,1.211,2.859.429,5.4,1.539-.821-.141-.579.2-.551.476,1.347.383,1.836,1.074,3.015,1.8-.652-.48-.355-.48-.011-.437.2.031.285.019.328-.012s.082-.063-.086-.2c.141-.2.484-.184.926.05a2.97,2.97,0,0,1,1.031,1.008c-.133.371-.527-.062-.93-.3s-.742-.355-.558.192c.422.414.781.351.543-.086a3.147,3.147,0,0,1,.722,1.258,2.012,2.012,0,0,0,.211,1.832,1.147,1.147,0,0,1,.039.258l.016.125c.008.035-.008.156-.008.226a5.755,5.755,0,0,0,.145,1.969,4.7,4.7,0,0,0-.008-1.254,2.919,2.919,0,0,1,.078-.926.891.891,0,0,1,.09-.222,4.279,4.279,0,0,1,.25,1.363c-.321,2.082-1,3.664-1.3,5.078l.055-1.535.058.09c-.1-.61.34-2.524-.039-2.364.2,1.426-.4,2.438-.4,4.278l-.063-.082c-.175,3.207-1.621,5.324-1.074,7.472.082-.574.625-1.668.731-1.281-.336.688-.59,2.629-.836,2.516l.023-.66a26.094,26.094,0,0,0-.625,3.507c.231.547.563.082.512,1.4-.735,3.117-.512-1.4-1.149.7l-.168,2.988-.394.6a35.914,35.914,0,0,0-.809,6.117c-.066,1-.125,2.012-.215,3.063-.046.527-.1,1.062-.167,1.613q-.125.9-.254,1.852c-.258.007-.27-1.083-.223-2.008.047-.992.18-2.129.266-2.7a7.677,7.677,0,0,0-.551,2.511c-.051.481-.1.934-.184,1.52l-.148.988c-.063.508-.117.977-.149,1.465a6.891,6.891,0,0,0,1.141,4.121c.586.84,1.066,1.1,1.016.813a15.422,15.422,0,0,0,1.6,1.671c.926.793.391.692.672.961a22.367,22.367,0,0,0,4.121,1.051,10.748,10.748,0,0,0,4.942-.621l.214.246a15.84,15.84,0,0,0,3.211-1.957c-.773.422-.234-.219-.336-.375l.727-.422c-1.527.489-3.125,1.6-5.316,2.215a9.414,9.414,0,0,1-1.708.309,7.663,7.663,0,0,1-1.984-.071,5.972,5.972,0,0,1-3.312-1.636c1.257.625-.254-.446,1,.132,1,.512,1.234.563,1.3.723a11.224,11.224,0,0,0,1.258-.055c.25-.07.1-.07-1.016-.343.157-.3,1.286-.051,2.746-.223a9.762,9.762,0,0,0,3.911-1.254c.941-.246.6.121-.168.625a15.46,15.46,0,0,1-2.653,1.238c1.071-.242,1.817-.738,3.153-1.183l-.121.582c1.582-.895,1.632-1.137,1.507-1.192-.144-.062-.586,0-.375-.378.477-.965,2.379-1.5,3.008-2.02l-.656.613c2-1.179,2.121-1.9,3.781-3.144l1-.317c-2.336,1.258-2.121,2.508-3.492,3.2,3.363-1.911-.047,1.293-.891,2.328a17.585,17.585,0,0,1,3.5-2.243c1.567-1.964,4.172-3.019,5.418-5.14,1.016-.793-.621,1,.407.105a41.465,41.465,0,0,0,5.355-5.57c.949-.945.941-.633,1.348-.758a44.5,44.5,0,0,0,5.1-5.781c.7-.9,1.4-1.813,2.239-2.793l.656-.75a2.659,2.659,0,0,1,.254-.266c.07-.07.133-.144.207-.211a4,4,0,0,1,1.1-.644,5.764,5.764,0,0,0-.339.48c.652-.339,1.25-.351,1.574-.761a6.158,6.158,0,0,0,2.054.4,2.934,2.934,0,0,1,1.118.492c.074.067.144.141.211.211l.093.106.161.187a4.858,4.858,0,0,1,.546.828c2.153,2.2,2.743,1.77,4.614,3.293-.125.141-.9-.09-.035.809l8.871,7.414c1.488,1.23,3,2.473,4.582,3.734l2.425,1.922,1.266.977.481.371a6.419,6.419,0,0,0,.558.406l1.141.75a6.354,6.354,0,0,1-1.1-.547l2.438,1.629a7.586,7.586,0,0,0,7.5-.594,7.708,7.708,0,0,0,2.98-3.879,6.669,6.669,0,0,0,.285-1.171l.094-.586.016-.594a5.523,5.523,0,0,0-.09-1.211c-.055-.406-.106-.809-.16-1.207q-.23-1.032-.453-2.016c-.059-.281-.118-.558-.176-.836-.039-.218-.082-.437-.121-.656-.309-.828-1.067-3.344-1.207-2.484.207,1.07-.168,1.312-.438,1.3-1.308-3.95.125-2.125-.633-4.79.414-1,.817,1.6,1.368,1.469l-1.336-3.8c-.34-2.239-1.227-4.344-1.411-6.325.145.867.536.16.649,1.637-.082-.207-.09-.055-.172-.262.75,3.27.734,1.7,1.586,4.567-.777-2.516-1.789-5.938-2.227-8.227-.3.6-.64-1.789-1.07-2.355l.008-.153c-.176.047-.664-1.324-.828-1.738l.39-.7c-.32-.969-.2.351-.515-.621-.242-.684-.7-2.278-1.035-3.758-.168-.742-.309-1.453-.379-2.016a2.91,2.91,0,0,1-.032-.66.307.307,0,0,1,.157-.164c-.172-.508-.446-.668-.6-1.121a1.312,1.312,0,0,1,.25-.16C643.094,233.742,643.047,233.844,643.109,233.887Zm0,0" fill="#080808"/>
      </g>
      <g id="Group_136" data-name="Group 136" transform="translate(566.437 4909.02)" clip-path="url(#clip-path-5)">
        <path id="Path_241" data-name="Path 241" d="M278.307,243.506c-.125.049-.1-.175-.1-.175s-.049-.074-.2,0c-.125.051,0-.149.074-.272s-.074-.3-.1-.35a1.732,1.732,0,0,0-.024-.3h.024c.125-.049-.024.125.374-.1.125-.074.125-.024.125-.223a1.88,1.88,0,0,1-.1-.3c.051-.1-.149-.125-.049-.2l-.473-.671-.151-.249-.323-.448-.049-.075c-.225-.074-.473-.622-.473-.622s.348.2-.026-.225a2.875,2.875,0,0,0-.771-.622,4.941,4.941,0,0,1-.822-.92,2.725,2.725,0,0,0-.722-.722l-1.145-1.047-.324-.2.074-.074v-.026l-.125-.174-.174-.174.076-.076c-.125-.024-.2-.149-.174-.2.049-.049-.125-.223-.175-.274a3.344,3.344,0,0,0-.2-.3l-.075-.074a.765.765,0,0,1-.149-.125c-.074-.075-.1-.1-.174-.174a.872.872,0,0,1-.149-.125.561.561,0,0,0-.223-.2c-.075-.025.049.1-.075.075-.1-.024-.1-.024-.149-.075-.025-.049.049-.049.049-.049a.457.457,0,0,0-.074-.1l-.125-.049a1.125,1.125,0,0,1-.249-.149,2.065,2.065,0,0,0-.3-.174l-.2-.075c-.2-.25-.4-.523-.6-.747l-.074.074-.523-.6-.049-.074a3.449,3.449,0,0,1-.648-.4s.149.076.149,0l-.149-.1c-.074-.049-.125-.049-.1-.074l.025-.025-.1-.075c-.1-.025-.174-.049-.174-.049l-.149-.125-.324-.225s-.026-.049-.075-.125a.089.089,0,0,0-.125-.025l.1.149-.473-.4-.026-.125s.075,0,.051-.051a.283.283,0,0,0-.174-.1l-.026.024-.049.025-.323-.323v-.1l-.051-.125-.123-.149a.414.414,0,0,1-.026-.125.684.684,0,0,1-.125-.149l-.1-.049a.077.077,0,0,0-.024-.049l-.051-.075c-.049-.049-.074-.049-.1-.025l.1.149c-.149-.125-.323-.1-.473-.249v-.149s.074,0,.049-.049a.278.278,0,0,0-.174-.1l-.024.024-.025.026-.024.025a2.337,2.337,0,0,0-.325-.2l-.049-.049-.2-.024-.051-.125-.249-.024a.45.45,0,0,1-.024-.125c-.049-.049-.174-.024-.223-.049a5.12,5.12,0,0,0,0-.873l-.051-.2c-.049-.249.225-.348.225-.348l-.049-.149v-.149s.074.074.074,0a.273.273,0,0,0-.049-.175c-.051-.1-.075.075-.1,0a1.44,1.44,0,0,1-.024-.324.939.939,0,0,0-.025-.249c0-.123-.026-.174-.026-.3-.025-.074-.025-.149-.049-.2v-.125a3.464,3.464,0,0,0,.049-.4c0-.074-.025-.324.051-.348s.074-.174.024-.3h.1l-.024-.274.024-.249v-.025h.1l.051-.2-.024-.1c.049-.1.1-.2.149-.3l.1-.049a4.413,4.413,0,0,1-.274-.573,2.667,2.667,0,0,1-.1-.374c0-.049,0-.075-.024-.1a.853.853,0,0,0-.051-.2l-.049-.149a.365.365,0,0,1,.024-.149s.049.049.076.024l.024-.024v-.076c0-.024-.024-.049-.051-.1-.074-.1-.074.074-.1,0a.684.684,0,0,1,0-.325.66.66,0,0,0-.026-.223V220.2c0-.075-.025-.125-.025-.2v-.125c.025-.1.051-.249.076-.325V219.5a1.251,1.251,0,0,1,.049-.3l-.049-.149a1.353,1.353,0,0,1-.051-.374,1.878,1.878,0,0,0-.049-.323l-.049-.149a.539.539,0,0,0,.024-.149s.049.075.074,0,.026-.074-.025-.174-.074.074-.1,0v-.024a1.212,1.212,0,0,1,.025-.3.692.692,0,0,0,0-.225c0-.125.024-.174.024-.274v-.249a1.272,1.272,0,0,0-.024-.324l-.025-.149a.529.529,0,0,0,.025-.149s.049.075.074,0,.025-.074-.024-.174-.074.074-.1,0a.791.791,0,0,1,.051-.323.705.705,0,0,0,.024-.225c.025-.125.025-.174.049-.274v-.2l.025-.125c.051-.149.125-.3.151-.374s.074-.324.123-.324c.076,0,.125-.149.076-.274l.1.025.049-.248.076-.225.024-.024.1.024.1-.174v-.1a1.511,1.511,0,0,0,.2-.223c0-.1-.049-.051-.074-.176a.671.671,0,0,0-.225-.272,1.189,1.189,0,0,0,.149-.35c.076-.249,0,0,.026-.323v-.1c.1-.223.074-.223.074-.223a.918.918,0,0,0,.1-.35c.025-.1,0-.125-.075-.1,0-.051.024-.076.024-.151,0,0-.049-.174-.049-.2a1.746,1.746,0,0,0-.049-.2s.025-.125-.174-.174.1-.125-.026-.125a1.222,1.222,0,0,0-.8-.3c-.225-.026-.2.1-.4-.051-.1-.1.125-.025-.274-.274-.125-.074-.074-.1-.25-.024-.025,0-.1.149-.223.225-.1,0-.025.2-.149.125-.125.248-.25.5-.374.722l-.149.248-.225.5-.049.074c.049.225-.274.722-.274.722s-.025-.4-.174.149a1.4,1.4,0,0,0-.075.423.686.686,0,0,0-.123.149c-.847,1.021-1.968,2.366-2.964,3.536-.149.223-.323.448-.523.7-.622.847-1.021.9-1.021.9l-.374.548c-.248.3-.4.473-.4.473s.149-.274-.075-.049a2.415,2.415,0,0,0-.424.622c-.225.374.249-.225.076.049s-.624.8-.873,1.121-.323.423-.622.8-.5.622-.771.97c-.2.274-.325.448-.548.722l-.35.448c-.423.5-.92,1.047-1.095,1.27a7.783,7.783,0,0,1-.972,1.1,3.981,3.981,0,0,0-.822,1l-.074-.05-.722.9-.648.771-.1.1-.074-.051-.6.648-.225.324c-.3.3-.6.6-.871.847l-.174.049c-.374.648-.847,1.37-1.395,2.193-.225.3-.573.8-.972,1.344-.1.149-.2.249-.274.372-.4.548-.523.748-.523.748l-.372.546c-.249.3-.4.474-.4.474s.076-.175,0-.125l-.074.074c-.1.125-.151.175-.2.249s-.1.174-.223.374c-.225.372.248-.225.074.049s-.622.8-.871,1.121-.323.424-.622.8-.5.624-.773.972c-.2.274-.323.448-.548.722l-.348.448c-.324.374-.7.8-.922,1.072-.074.074-.123.149-.174.2-.174.2-.646.822-.871,1.021-.125.2-.249.374-.374.573-.2.3-.573.8-.97,1.344-.624.847-.8,1.121-.8,1.121l-.374.548c-.248.3-.4.473-.4.473s.149-.274-.076-.049a2.391,2.391,0,0,0-.423.622c-.223.374.249-.223.076.051l-.076.1c-.223.274-.573.722-.8,1-.249.324-.325.423-.624.8s-.5.622-.771.97c-.2.274-.325.449-.548.722l-.049.075-.075.125c-.622.847-.8,1.121-.8,1.121l-.372.547c-.249.3-.4.474-.4.474s.149-.274-.074-.051a2.365,2.365,0,0,0-.424.624c-.225.372.248-.225.074.049s-.622.8-.871,1.121-.323.423-.622.8-.5.624-.773.972c-.2.274-.323.448-.548.722l-.348.448c-.423.5-.922,1.045-1.1,1.27a7.706,7.706,0,0,1-.972,1.1,4,4,0,0,0-.821.994l-.075-.049-.722.9-.648.773-.1.1-.075-.074-.6.647-.225.325c-.3.274-.573.573-.845.821-.274.374-.075.2-.3.6a4.372,4.372,0,0,0-.4.947s-.325.348-1.072,1.295a8.845,8.845,0,0,0-.8,1.145,12.928,12.928,0,0,1-1.246,1.819,16.123,16.123,0,0,0-1.121,1.444c-.025.024-.3.547-.374.671s-.149.249-.2.35c-.076.074-.149.174-.249.274-.025.024-.3.448-.373.522a2.847,2.847,0,0,0-.274.4.125.125,0,0,0-.051.1s-.074.1-.125.174c-.1,0-.223,0-.174.025a.5.5,0,0,0-.074.473c-.051.024-.051.051-.026.051-.1.622.249.6.6.6h.049c-.074.149-.174-.05-.323.448-.051.149-.125.125.249.2a3.473,3.473,0,0,1,.348-.024V277c.025.174-.1.225.348,0a1.229,1.229,0,0,0,.2-.149c.125-.024.25-.1.223,0,.624-.125,1.27-.249,1.943-.4l.7-.1,1.295-.272.225-.051a8,8,0,0,1,1.841-.4s-.845.35.474.026a13.106,13.106,0,0,0,2.291-.773s1.544-.5,2.888-.771a14.277,14.277,0,0,0,2.44-.722l3.637-1.121c.3-.1.573-.223.847-.323l.025.1h.074l.5-.125.573-.174.024.1c.249-.125.6-.2.622-.149a3.108,3.108,0,0,0,.724-.125c.123-.025.522-.1.845-.174l.274-.074c.176-.051.274-.1.423-.149.225-.076.35-.1.6-.176.223-.074.3-.1.5-.149a4.729,4.729,0,0,0,.7-.2c.149-.076-.225.024-.024-.1a.652.652,0,0,1,.348-.149c.149-.025.024.075.024.075s.125-.024.3-.075l.3-.149s.174-.074.646-.249c.324-.123.624-.248.8-.3l.423-.2c.747-.174,1.493-.348,2.291-.523l-.024-.1,1.892-.474.223-.049a17.9,17.9,0,0,1,1.744-.673s-.374.149-.249.175h.025l.4-.149c.2-.1.274-.125.3-.076s0,.025,0,.025l.274-.1c.174-.1.374-.2.374-.2l.448-.149.9-.323a3.018,3.018,0,0,1,.3-.051c.225-.049.225-.123.225-.123l-.4.074c.473-.149.921-.3,1.42-.448l.274.024s-.125.1.025.051a.939.939,0,0,0,.423-.175v-.024l.049-.074c.349-.1.722-.2,1.072-.3l.2.025.3-.051.474-.1h.248c.176-.051.325-.076.448-.1l.249-.1a.252.252,0,0,0,.1-.024c.049,0,.1-.025.2-.025a.36.36,0,0,0,.225-.1v-.024l-.4.075c.448-.149.7-.35,1.17-.474h.274s-.125.1.025.051a.928.928,0,0,0,.423-.176v-.024l.026-.025.025-.049c.3-.075.548-.225.847-.3l.149-.051.373-.224.3-.051.424-.272h.249c.225-.051.35-.225.473-.25a2.624,2.624,0,0,0,.3-.075c.1-.174.248.024.248-.1a1.715,1.715,0,0,0,.673-.35,3.974,3.974,0,0,0,.348-.274c.026.024.075.024.125.051.125.049.076.074.25-.051a2.767,2.767,0,0,1,.174-.3c.1-.049,0-.223.125-.174l.225-.9.125-.323.149-.6.024-.1a2.018,2.018,0,0,1,.2-.871s.051.448.174-.2a3.628,3.628,0,0,0,0-1.146,8.428,8.428,0,0,1,.225-1.393,3.3,3.3,0,0,0,.149-1.17l.149-1.793-.025-.424h.1l.025-.024.049-.249.024-.274h.1c-.049-.123,0-.3.075-.3s.1-.274.123-.348c.026-.049.075-.249.125-.4l.025-.125v-.223a1.072,1.072,0,0,0,.026-.3.56.56,0,0,1,.025-.225,2.04,2.04,0,0,1,.423-.049s-.249.223.2.074a2.268,2.268,0,0,0,.722-.448,4.135,4.135,0,0,1,.972-.372,2.175,2.175,0,0,0,.8-.35l1.195-.6.274-.2.049.1h.026l.174-.049.174-.076.049.1c.075-.1.175-.125.225-.074.025.049.224-.026.274-.026a1.85,1.85,0,0,0,.3-.049l.1-.024c.049-.025.074-.049.123-.076.075-.049.125-.049.2-.1s.1-.075.149-.075a.6.6,0,0,0,.223-.1c.051-.049-.074,0-.049-.1.049-.1.049-.1.1-.1s.024.076.024.076a.241.241,0,0,0,.1-.026l.1-.1a1.435,1.435,0,0,1,.2-.149,2.851,2.851,0,0,0,.249-.2l.123-.149c.274-.074.548-.125.8-.2l-.049-.1.646-.2.076-.025a2.141,2.141,0,0,1,.522-.4s-.1.1-.049.125l.125-.1c.049-.049.074-.074.1-.049l.025.025.074-.076a.972.972,0,0,1,.1-.123l.149-.076.274-.2h.1c.074,0,.049-.1.049-.1l-.149.025.473-.223.125.049s-.024.074.025.049a.274.274,0,0,0,.125-.1V246c.125-.049.225-.076.374-.125l.074.049h.125l.174-.049a.271.271,0,0,1,.1.049.943.943,0,0,0,.149-.049l.076-.049h.125c.049,0,.049-.051.049-.075v-.025l-.149.025c.149-.074.2-.223.348-.3l.075.025.025.024s-.025.075.024.051a.281.281,0,0,0,.125-.1v-.1c.1-.049.174-.149.274-.174l.049-.025.076-.174h.125l.1-.2a.282.282,0,0,1,.1.051c.075-.025.075-.174.125-.174a.181.181,0,0,1,.1-.026c0-.149.1.051.074-.074,0,0,.1,0,.175-.249.1-.249.074-.274.074-.274s.024-.024.024-.149C278.53,243.555,278.431,243.48,278.307,243.506Zm-15.167-13.024a.347.347,0,0,1,.075.1c-.024.025-.075.049-.1.074C262.816,230.906,262.941,230.731,263.139,230.482Zm-32.448,26.071,3.76-4.856c.3-.422.573-.821.847-1.2l.074.051.075-.075.548-.647.573-.748.074.051c.225-.374.6-.822.673-.8a8.231,8.231,0,0,0,.8-.9c.149-.174.548-.622.9-1.021l.3-.374c.174-.223.274-.373.448-.6.225-.3.374-.473.624-.8s.3-.4.5-.673c.2-.249.573-.673.722-.9s-.249.274-.074-.051a1.891,1.891,0,0,1,.348-.522c.174-.2.075.049.075.049s.123-.149.324-.4l.3-.448s.149-.223.646-.92c.325-.448.624-.871.8-1.121.149-.225.274-.423.4-.647.771-.922,1.594-1.867,2.441-2.89l-.076-.074,2.018-2.416.223-.274c.423-.722,1.718-2.44,1.718-2.44s-.348.523-.2.4l.025-.025.4-.573c.2-.3.274-.4.3-.374l.025.026.274-.4c.174-.3.348-.573.348-.573l.45-.6.9-1.246s.1-.1.323-.348c.225-.274.2-.35.2-.35l-.449.5c.474-.624.947-1.246,1.445-1.892l.324-.249s-.1.2.049.049a3.277,3.277,0,0,0,.423-.622l-.024-.024v-.125c.374-.473.747-.922,1.121-1.37l.223-.174.325-.348.522-.6a2.6,2.6,0,0,1,.3-.274c.2-.225.35-.4.474-.548l.249-.35.123-.123a2.057,2.057,0,0,0,.2-.225c.174-.2.2-.3.2-.323v-.025l-.448.5c.473-.622.648-1.045,1.146-1.694l.2-.174.1-.074s-.1.2.051.049c.074-.075.123-.174.174-.225a.783.783,0,0,0-.051.2v.125a.41.41,0,0,0,.026.174v.25c0,.1.025.123,0,.2a1.148,1.148,0,0,0,0,.3c.025.076.025-.1.1,0,.051.1.051.1.051.149-.026.076-.075,0-.075,0a.444.444,0,0,1-.025.125l.049.125a1.667,1.667,0,0,1,.051.274,2.616,2.616,0,0,0,.074.348l.075.2c-.051.325-.075.624-.125.947h.1l-.051.771-.025.076a2.633,2.633,0,0,1,.2.722s-.049-.149-.1-.1l.049.174c.025.076.049.125,0,.125H260.8l.024.125c.049.076.1.149.1.149l.024.174.074.374a.441.441,0,0,1-.025.125.075.075,0,0,0,.076.1l.024-.175.074.573-.074.1s-.049-.049-.049,0a.251.251,0,0,0,.049.174h.025l.075.025v.423l-.075.075-.025.125-.024.2a.739.739,0,0,1-.076.1v.174l.025.1a.076.076,0,0,1-.025.049.1.1,0,0,1-.024.075c0,.074.024.074.049.1h.026l.025-.174c.024.174.149.274.174.473l-.049.075-.026.025s-.074-.049-.049,0a.251.251,0,0,0,.049.174h.1c0,.125.075.225.075.35v.074l.149.149-.024.125.174.174a.17.17,0,0,1-.075.1c0,.074.125.149.125.2v.125c.149.051-.074.1.049.1,0,0-.049.1.175.274a1.117,1.117,0,0,0,.248.174.591.591,0,0,0,.151.075c.049.025.1,0,.149-.026a.4.4,0,0,0,.1.075s-.2.1-.125.274c-.248.2-.424.348-.424.348s.125-.424-.622.1l-.747.522c-.9.624-2.068,1.544-3.113,2.342-.174.149-.348.323-.548.5-.673.6-1.021.523-1.021.523l-.4.4c-.274.2-.423.323-.423.323s.149-.225-.049-.075a1.816,1.816,0,0,0-.448.448c-.249.274.248-.123.074.076-.2.2-.647.548-.921.771a8.28,8.28,0,0,1-.648.548c-.323.274-.5.424-.8.673-.2.174-.35.324-.548.5l-.374.3c-.423.325-.946.722-1.121.847a10.043,10.043,0,0,1-.972.747,3.081,3.081,0,0,0-.845.673l-.076-.075-.722.624-.673.548-.1.074-.075-.074-.6.448-.225.223c-.3.2-.6.374-.871.548h-.149c-.4.5-.9,1.021-1.444,1.643-.225.225-.6.573-1,1-.1.1-.2.2-.274.274l-.548.548-.373.4a4.157,4.157,0,0,1-.4.323s.1-.125.024-.1c-.024,0-.024.026-.075.051a1.649,1.649,0,0,0-.2.174c-.049.049-.1.125-.225.274-.223.3.249-.125.076.074-.2.2-.622.573-.871.8s-.323.3-.624.6c-.3.274-.5.448-.771.7-.2.2-.323.323-.548.523l-.348.323c-.323.274-.7.573-.922.747-.074.049-.125.1-.174.125-.174.149-.646.6-.847.722l-.373.448c-.225.223-.573.6-.971,1-.624.622-.8.822-.8.822l-.372.422c-.25.225-.4.349-.4.349s.149-.225-.051-.049a2.086,2.086,0,0,0-.423.473c-.223.3.249-.125.075.074l-.075.076c-.2.223-.573.548-.8.747-.249.225-.323.3-.624.6-.2.174-.348.323-.5.473A4.164,4.164,0,0,0,230.692,256.553Zm31.253-13.247c0,.1-.025.174-.025.249l-.024.149c-.051.174-.125.4-.151.473-.025.1-.074.424-.123.424-.075,0-.125.2-.075.374l-.1-.025-.049.348-.074.3-.026.024-.1-.024-.1.249v.125c-.075.125-.125.248-.2.348l-.1.024a3.541,3.541,0,0,1,.149.8v.921l.025.2c-.025.1-.049.174-.049.174a.054.054,0,0,0-.075-.024.024.024,0,0,0-.025.024.189.189,0,0,0-.024.1.5.5,0,0,1,.024.123c.049.125.075-.1.1,0a1.293,1.293,0,0,1-.051.424,1.136,1.136,0,0,0-.024.3c-.025.149-.025.225-.049.349v.249l-.025.174a1.877,1.877,0,0,1-.125.4c0,.025-.025.049-.025.074a2.239,2.239,0,0,1-.1.374l.025.2a3.4,3.4,0,0,0,.024.473v.4l.025.2c-.025.1-.049.175-.049.175s-.049-.1-.074,0-.026.1.025.223.074-.1.1,0v.025a1.965,1.965,0,0,1-.049.374,1.119,1.119,0,0,0-.025.3c-.024.149-.024.225-.049.348v.722l.025.2c-.025.1-.051.174-.051.174s-.049-.1-.074,0-.024.1.025.225.075-.1.1,0a1.077,1.077,0,0,1-.051.4,1.12,1.12,0,0,0-.025.3c-.024.151-.024.225-.049.35v.249l-.024.174a3.288,3.288,0,0,0-.125.473c-.024.1-.05.4-.125.423-.075,0-.125.2-.075.374h-.1l-.051.324.051.323-.025.025h-.1l-.075.249.026.125-.2.323c0,.125.049.076.1.2a.634.634,0,0,0,.249.3,2.257,2.257,0,0,0-.1.473c-.049.348,0,0,.025.4.024.3.1.323.1.473-.051,0-.1.024-.174.024l-.648.125c-.8.174-1.843.423-2.79.673-.149.049-.324.123-.5.174-.622.223-.871,0-.871,0l-.374.174a2.2,2.2,0,0,0-.373.1s.174-.125-.026-.076a1.224,1.224,0,0,0-.423.174c-.248.125.225,0,.026.1-.2.076-.6.174-.847.249a3.4,3.4,0,0,0-.6.2,6.639,6.639,0,0,0-.747.225c-.2.074-.324.1-.522.174l-.349.1c-.4.074-.847.174-1.021.223s-.847.249-.9.174-.474.051-.773.2l-.024-.1-.673.2-.622.149h-.076l-.024-.1-.548.1-.223.1-.773.051-.123-.075c-.423.225-.9.448-1.446.7-.223.074-.573.224-.97.348a1.177,1.177,0,0,1-.274.1c-.374.149-.523.2-.523.2l-.374.175a2.382,2.382,0,0,0-.372.1s.1-.074.049-.074h-.074a1.131,1.131,0,0,0-.2.049,2.4,2.4,0,0,0-.223.125c-.249.125.223,0,.024.1-.2.074-.6.174-.847.248a3.41,3.41,0,0,0-.6.2,6.585,6.585,0,0,0-.748.223c-.2.076-.323.1-.522.175l-.35.1a7.422,7.422,0,0,1-.871.174.355.355,0,0,1-.149.026c-.149.025-.622.174-.8.2l-.4.174c-.225.075-.573.225-.972.349l-.8.3-.373.174a2.275,2.275,0,0,0-.374.1s.174-.125-.024-.075a1.175,1.175,0,0,0-.424.174c-.249.125.225,0,.025.1l-.074.025a7.107,7.107,0,0,1-.773.225,3.266,3.266,0,0,0-.6.2,6.576,6.576,0,0,0-.747.225c-.2.074-.325.1-.523.174l-.049.024-.075.025-.8.3-.374.175a2.38,2.38,0,0,0-.374.1s.175-.125-.025-.074a1.166,1.166,0,0,0-.423.174c-.249.125.225,0,.024.1-.2.074-.6.174-.847.248a3.482,3.482,0,0,0-.6.2,6.664,6.664,0,0,0-.747.223c-.2.075-.323.1-.523.174l-.348.1c-.4.076-.847.174-1.021.225s-.847.248-.9.174a1.531,1.531,0,0,0-.771.2l-.025-.1-.673.2-.622.149h-.075l-.025-.1-.548.1-.223.1-.474.024a13.7,13.7,0,0,1,1.669-1.519l.076-.049.049-.025c-.149.2-.448.573.448-.274l.773-.473.223-.125a10,10,0,0,1,1.843-1.1s-.8.673.523-.174a19.628,19.628,0,0,0,2.191-1.618s1.5-1.047,2.864-1.818a19.408,19.408,0,0,0,2.391-1.594l3.562-2.441c.274-.223.548-.423.822-.622l.049.074.076-.025.5-.3.548-.374.049.076c.225-.225.573-.424.624-.374s.6-.3.747-.4c.125-.076.523-.3.847-.475l.274-.174a4.426,4.426,0,0,1,.423-.3c.223-.149.348-.223.6-.4a2.329,2.329,0,0,1,.473-.323,7.684,7.684,0,0,0,.673-.448c.149-.125-.225.1-.049-.075.174-.2.174-.2.323-.272s.049.074.049.074a2.289,2.289,0,0,1,.3-.174l.3-.25s.149-.125.624-.473c.3-.249.6-.448.747-.6l.4-.374c.722-.423,1.493-.871,2.291-1.344l-.051-.1,1.894-1.145.223-.125a18.97,18.97,0,0,1,1.669-1.295s-.348.3-.2.249l.025-.025.4-.3c.2-.174.274-.225.274-.2a.024.024,0,0,0,.024.026l.274-.2a2.551,2.551,0,0,1,.348-.323l.423-.3.871-.648.3-.149c.225-.125.2-.2.2-.2l-.423.225c.448-.3.9-.624,1.368-.947l.274-.076s-.1.125.024.051a1.793,1.793,0,0,0,.423-.323l-.024-.026.024-.1,1.047-.673.2-.049.3-.149.475-.274a.932.932,0,0,1,.272-.075,3.766,3.766,0,0,0,.423-.274l.249-.174a1.205,1.205,0,0,1,.125-.049l.2-.1c.151-.1.2-.149.2-.174v-.025l-.423.223c.448-.324.646-.6,1.121-.9l.2-.049.1-.026s-.1.125.025.051a1.842,1.842,0,0,0,.423-.323l-.024-.026v-.049l.024-.049c.3-.2.523-.423.822-.624l.149-.1.323-.374C261.969,243.232,261.969,243.256,261.945,243.306Zm11.007.125-.223.075H272.7l-.025-.1-.2.025-.075.049a1.285,1.285,0,0,1-.3-.049l-.074-.074a2.437,2.437,0,0,1-.424.473c-.075.049-.175.125-.3.223l-.076.051c-.1.074-.174.125-.174.125l-.125.1a1.214,1.214,0,0,0-.125.051s.024-.051,0-.075h-.025a.1.1,0,0,0-.075.024c-.024.026-.024.026-.074.076-.076.1.1.024.049.1a.906.906,0,0,1-.274.123,1.907,1.907,0,0,0-.2.1,2.234,2.234,0,0,0-.249.1,1.454,1.454,0,0,1-.174.1l-.125.051c-.1.024-.225.049-.3.074h-.049a.858.858,0,0,1-.274.076l-.125.125c-.075.049-.174.125-.3.223a1.676,1.676,0,0,0-.249.174l-.125.1a.941.941,0,0,0-.125.051s.024-.1-.025-.076c-.074,0-.074,0-.125.1s.1.025.051.1l-.026.026a1.041,1.041,0,0,1-.248.1,1.486,1.486,0,0,0-.2.1,2.317,2.317,0,0,0-.25.1,1.3,1.3,0,0,1-.174.1H267.1l-.025.025a1.564,1.564,0,0,0-.249.175l-.125.1c-.074.026-.125.051-.125.051s.026-.1-.025-.075c-.074,0-.074,0-.125.1s.1.024.051.1a.942.942,0,0,1-.274.123,1.762,1.762,0,0,0-.2.1c-.125.051-.149.051-.248.1a.689.689,0,0,1-.176.1l-.123.049c-.125.024-.325.074-.374.074-.076.026-.274.125-.324.051,0-.024-.05-.024-.075-.024l.049-.249.026-.1a3.788,3.788,0,0,1-.05-.847s.024.175.075.125v-.2c-.025-.1-.025-.149.024-.125s.025,0,.025,0v-.149a.505.505,0,0,1-.049-.2v-.671a1.186,1.186,0,0,0,.049-.125c.024-.1-.049-.125-.049-.125l-.075.174a5.8,5.8,0,0,1,.075-.671l.1-.1s.049.074.049,0a.525.525,0,0,0,0-.225h-.025l-.051-.049.1-.5.076-.075.074-.125.076-.223a.294.294,0,0,1,.1-.1,1.216,1.216,0,0,0,.051-.2v-.125a.081.081,0,0,1,.024-.051c0-.024.025-.049.025-.074.024-.076,0-.1-.025-.125l-.075.174c.024-.223-.074-.373-.025-.6l.076-.074.024-.026s.049.075.049,0a.508.508,0,0,0,0-.223h-.024l-.025-.025-.024-.026v-.1c.2.049.4.074.546.1l.125-.025c.149-.024.175.249.175.249l.1-.049a.2.2,0,0,0,.075.024s-.051.049,0,.074.049.026.1-.025c.074-.049-.051-.074,0-.1a.274.274,0,0,1,.2.025c.049.024.074,0,.149,0s.125.024.174.024h.125l.075.025a.593.593,0,0,1,.223.125c.049.025.2.049.2.1,0,.074.1.1.174.074l-.025.1.174.024.149.049.024.025-.024.1.125.075.049-.024a.853.853,0,0,1,.125.2v.1a1.213,1.213,0,0,1,.423-.149.784.784,0,0,1,.25,0h.223l.1-.026a.322.322,0,0,1,.074.051s-.049.024-.024.049v.024c.024.025.024.025.051.025s.024,0,.074-.025c.076-.049-.024-.074.025-.1a.336.336,0,0,1,.2.074.271.271,0,0,0,.149.024c.074,0,.125.051.174.051s.1.025.149.025l.075.024c.074.049.149.1.2.125a.024.024,0,0,1,.025.024c.024.025.149.049.2.125l.123-.025a1.215,1.215,0,0,1,.274.025,2.1,2.1,0,0,0,.225.024h.125l.1.049s-.074.051-.024.076.05.024.125,0c.1-.025-.025-.076.024-.1h.026a.662.662,0,0,1,.2.075.94.94,0,0,0,.149.049c.075.025.125.049.2.075.05,0,.1.025.149.025h.051a2.065,2.065,0,0,0,.224.024h.125l.1.049s-.075.051-.024.076c.024.024.024.024.049.024Zm.249,0-.024-.1c0-.025-.051-.049,0-.074a.781.781,0,0,1,.2.049A.452.452,0,0,0,273.2,243.43Zm.025-3.312h-.249l.025-.1-.025-.025-.125-.074-.149-.051.026-.1c-.075.024-.175-.025-.151-.076.026-.074-.123-.125-.149-.125a.8.8,0,0,0-.2-.149l-.074-.025a.226.226,0,0,1-.125-.024c-.051,0-.1-.049-.149-.049a.179.179,0,0,1-.125-.026.271.271,0,0,0-.2-.049c-.049,0,.05.049-.025.1s-.074.049-.125,0c-.025-.024.024-.075.024-.075a.307.307,0,0,0-.074-.049l-.1.025h-.448l-.149.049c-.174-.1-.374-.223-.573-.324l-.025.1-.523-.225-.049-.025a1.408,1.408,0,0,1-.548.025s.125-.025.1-.074h-.125c-.075.025-.1.025-.075-.024v-.026h-.1a.252.252,0,0,1-.125.051h-.4a.338.338,0,0,0-.076-.051c-.049-.024-.074.051-.074.051l.1.049c-.149-.024-.3-.024-.424-.049l-.05-.1s.05-.049,0-.049a.161.161,0,0,0-.149.025v.024l-.025.049c-.1-.024-.2-.049-.323-.074l-.051-.075-.074-.049-.149-.049a.436.436,0,0,1-.076-.1.328.328,0,0,0-.125-.025h-.074a.024.024,0,0,1-.024-.024l-.051-.025c-.049-.026-.074.025-.074.049v.025l.125.049c-.149,0-.225.1-.4.1l-.075-.025-.025-.024s.051-.051,0-.051a.219.219,0,0,0-.149.051v.074c-.1,0-.174.051-.274.051h-.049l-.125.123-.1-.049-.149.149-.074-.074c-.075,0-.125.125-.149.125h-.1c-.024.149-.074-.1-.074.049,0,0-.076-.049-.2.149a1.184,1.184,0,0,1-.1.149.511.511,0,0,1-.149-.049s-.1.025-.125.223c-.025.149-.074.025-.123-.1,0-.049,0-.1-.051-.123v-.051c-.049-.174-.3-.1-.348-.125s-.374-.324-.448-.1a1.4,1.4,0,0,0-.1.473s-.225-.174-.348.125l-.051.174a.977.977,0,0,0-.448.149c-.225.125-.424.249-.673.374-.8.448-1.843,1.095-2.763,1.692-.149.125-.324.225-.5.374-.6.448-.921.3-.921.3l-.374.3-.372.225s.149-.175-.051-.075a1.149,1.149,0,0,0-.423.323c-.223.225.225-.074.05.075s-.6.4-.822.548c-.249.149-.3.2-.6.4s-.448.3-.722.473c-.2.125-.325.223-.523.372l-.324.225c-.4.225-.847.5-1.02.6-.176.125-.822.548-.9.5s-.5.223-.771.473l-.049-.075-.673.448-.624.374-.074.049-.049-.074-.548.3-.2.174c-.274.125-.547.225-.8.35l-.149-.026c-.374.374-.847.773-1.37,1.221-.2.149-.548.423-.947.722a2.207,2.207,0,0,0-.248.2,4.9,4.9,0,0,0-.5.4l-.348.3-.374.225s.076-.1.025-.1c-.025,0-.025,0-.074.025a.7.7,0,0,0-.2.125,2.129,2.129,0,0,1-.223.2c-.225.225.223-.074.049.075s-.6.4-.822.548c-.248.149-.3.2-.6.4s-.448.3-.722.474c-.2.125-.323.223-.523.372l-.323.225c-.3.174-.647.372-.871.5a.809.809,0,0,0-.149.1,6.22,6.22,0,0,1-.822.473l-.372.325c-.2.149-.548.422-.947.722-.573.448-.771.573-.771.573l-.35.3-.372.223s.149-.174-.051-.074a1.116,1.116,0,0,0-.424.324c-.223.223.225-.076.051.074l-.075.051c-.2.149-.548.372-.747.5-.249.149-.3.2-.6.4s-.45.3-.722.473c-.1.075-.176.125-.274.2.274-.3.547-.6.821-.871l.076.074.074-.049.523-.448.573-.548.075.074c.223-.3.6-.6.671-.573s.624-.5.8-.622c.149-.125.548-.448.9-.722l.3-.249c.175-.174.274-.274.423-.448.225-.2.374-.348.624-.573.223-.223.3-.3.5-.473a8.929,8.929,0,0,0,.722-.648c.149-.174-.248.175-.074-.074a1.023,1.023,0,0,1,.348-.374c.174-.125.051.051.051.051s.123-.1.323-.274l.3-.35s.149-.174.647-.671c.325-.35.624-.648.8-.822l.423-.5c.771-.648,1.594-1.321,2.441-2.017l-.074-.076,2.042-1.693.223-.174c.45-.548,1.769-1.767,1.769-1.767s-.374.372-.225.323l.026-.024.422-.424c.2-.225.274-.3.3-.274l.024.025.3-.3a4.956,4.956,0,0,1,.372-.423l.45-.424.946-.9s.1-.074.325-.223c.248-.175.223-.249.223-.249l-.448.323c.5-.423,1-.871,1.494-1.32l.3-.149s-.1.174.049.049a1.884,1.884,0,0,0,.448-.448l-.025-.025.025-.1c.4-.323.771-.646,1.145-.945l.225-.1.348-.225.523-.4a2.116,2.116,0,0,1,.3-.149c.2-.149.348-.274.473-.374l.25-.249s.049-.025.125-.074a1.674,1.674,0,0,0,.223-.149.548.548,0,0,0,.225-.249v-.025l-.448.323c.5-.423.7-.771,1.219-1.195l.3-.149s-.1.149.051.049a2.276,2.276,0,0,0,.448-.423l-.025-.024v-.049l.025-.051c.323-.274.573-.548.921-.821l.175-.125.348-.448.35-.225.422-.523a2.513,2.513,0,0,1,.3-.149c.248-.174.348-.423.5-.547a2.16,2.16,0,0,0,.324-.249c.075-.225.3-.125.249-.249a3.011,3.011,0,0,0,.573-.573.249.249,0,0,0-.025.1l.149.074a.566.566,0,0,1,.1.125s-.1,0-.051.05c.051.074.051.074.175.1s-.026-.1.074-.074c.075.024.2.174.25.223a.578.578,0,0,0,.2.149,1.631,1.631,0,0,0,.225.2c.074.049.125.1.174.125l.1.1c.074.125.223.3.248.35.051.049.249.248.225.3s.076.2.225.248l-.076.075.2.2.176.2.024.025-.075.074.125.2.1.049a1.792,1.792,0,0,1,.1.323l-.051.1a4.174,4.174,0,0,1,.648.249,4.006,4.006,0,0,1,.348.223l.1.076c.125.074.2.125.2.125l.149.074a.928.928,0,0,0,.1.125s-.074,0-.074.025v.026c.025.024.025.049.049.049a.508.508,0,0,0,.125.024c.125.025,0-.1.074-.074a.776.776,0,0,1,.249.248,1.431,1.431,0,0,0,.2.174l.225.225a1.019,1.019,0,0,1,.174.149l.1.1c.074.1.149.223.2.3l.051.049a1.144,1.144,0,0,1,.2.274l.174.076c.075.049.225.149.35.223a2.257,2.257,0,0,1,.274.2l.149.074a.859.859,0,0,0,.1.125s-.1,0-.049.049c.049.075.049.075.174.1s0-.1.076-.075l.024.026a.974.974,0,0,1,.225.223,1.267,1.267,0,0,0,.2.174l.225.225a1.176,1.176,0,0,1,.174.149l.049.049a1.148,1.148,0,0,0,.274.2l.149.074a.8.8,0,0,0,.1.125s-.1,0-.051.049a.234.234,0,0,0,.176.1c.125.024,0-.1.074-.074s.174.174.25.248a1.422,1.422,0,0,0,.2.175c.1.1.125.123.225.223a1.083,1.083,0,0,1,.174.149l.1.1c.025.049.074.1.1.149Zm66.642-19.8-.1-.7c0-.771-.049-1.493-.075-2.117a8.859,8.859,0,0,0-.3-1.17,7.84,7.84,0,0,0-.647-1.718,15.923,15.923,0,0,0-.847-2.938,14.669,14.669,0,0,0-1.047-2.34,33.9,33.9,0,0,0-2.216-3.412,11.912,11.912,0,0,0-2.342-2.516l-1.195-.8c-.8-.448-1.195-.622-1.195-.622s-.847-.4-.822-.176c.049.2-1.046-.522-.922-.348-1.145-.025-.671.374-.3.8.274.3,1.022.647.4.573a2.062,2.062,0,0,0-1.2-.1c-.249.049-.423-.051.348.4a8.621,8.621,0,0,1,1.52.871c.174.223,1,.6.8.622a14.632,14.632,0,0,1,3.336,3.711c.3.522.6,1.045.847,1.594a21.467,21.467,0,0,1,1.27,3.163l.174.546a13.418,13.418,0,0,1,.722,2.915c.174,1.045.225,1.966.225,1.966s-.4-2.414-.026,1.221a41.124,41.124,0,0,1,.051,6.4s-.1,1.072-.374,2.565a25.964,25.964,0,0,1-1.569,5.055,29.643,29.643,0,0,1-3.238,5.727,20.222,20.222,0,0,1-7.544,6.175,23.333,23.333,0,0,1-2.168.946l-.024-.1-.174.049a10.869,10.869,0,0,1-1.295.348c-.5.125-.972.249-1.469.325l-.026-.1a4.268,4.268,0,0,1-1.643.2c-.075-.049-1.469.051-1.867,0-.374.024-1.27-.125-2.117-.2l-.7-.125a8.2,8.2,0,0,1-1.121-.225c-.374-.1-.673-.174-1.021-.3a17.131,17.131,0,0,0,1.594-1.743,14.409,14.409,0,0,0,.947-1.445,7.333,7.333,0,0,0,.522-.97,11.608,11.608,0,0,0,1.121-3.113,24.41,24.41,0,0,0,.2-2.913,6.588,6.588,0,0,0-.5-2.54l.1-.024a10.252,10.252,0,0,0-1.045-2.166,8.482,8.482,0,0,0-1.42-1.718c-.075-.075-.149-.125-.225-.2l.049-.075a8.136,8.136,0,0,0-1.694-1.1,4.794,4.794,0,0,0-.845-.273,7.287,7.287,0,0,0-2.839-.4,2,2,0,0,0-.349-.05,9.481,9.481,0,0,0-4.881,2.863,10.987,10.987,0,0,0-1.943,2.939,6.256,6.256,0,0,0-.348.921,6.046,6.046,0,0,0-.374,1.943,13.13,13.13,0,0,0,0,1.393c.051.822.125,1.27.125,1.27s-.1-.374-.1-.2a.672.672,0,0,0,.026.2c.049.323.074.473.123.673.051.174.125.4.274.821.35.822-.149-.647.1-.025a19.45,19.45,0,0,0,1.17,2.565,8.7,8.7,0,0,0,1.172,1.618,15.911,15.911,0,0,0,1.643,1.743c.2.176.4.325.573.475-.024,0-.049.024-.1.024a3.1,3.1,0,0,0-.448.149,2.449,2.449,0,0,0-.548.223l-.025.026c.35-.076.673-.2,1-.3a14.68,14.68,0,0,1-3.063.945h-.648s.323-.1,0-.049c-.822.1-1.2.149-1.2.149v.025l-.05.024-.1.049a18.335,18.335,0,0,1-2.342.026l-.423-.026H294.12l-.773-.174-1.295-.1a3.375,3.375,0,0,1-.622-.225c-.573-.149-1.071-.149-1.419-.274s-.573-.174-.773-.249c-.4,0-.547-.274-.671-.174a16.412,16.412,0,0,0-1.968-.573,7.046,7.046,0,0,0-1.37-.323,2.231,2.231,0,0,0-.6-.1c-.374-.049,0,.249.871.648.871.373.149.274.149.274a4.833,4.833,0,0,0,1.27.6c1.121.4-.473,0-1.42-.323s-.473.149-.522.174c-.051.049-1.6-.249-.325.373a25.94,25.94,0,0,0,2.714,1.1s-.8,0,1,.673c.6.2,1.2.4,1.843.6a25.759,25.759,0,0,0,8.343,1.021c.5-.024,1.021-.125,1.594-.2a10.36,10.36,0,0,1,2.515-.272c.4-.125.8-.274,1.17-.423a9.6,9.6,0,0,0,1.095-.4s-.522.3.026.074a6.826,6.826,0,0,0,1.27-.647c.722-.423-.6.223-.051-.075a2.338,2.338,0,0,0,.2-.123c.323.149.6.3.847.422a4.01,4.01,0,0,0,.448.176,21.259,21.259,0,0,0,2.416.821,10.138,10.138,0,0,0,1.295.2,21.4,21.4,0,0,0,3.138.248,12.677,12.677,0,0,0,2.565-.149,10.106,10.106,0,0,0,1.219-.2c.722-.1,1.146-.174,1.146-.174s-.548.149.026.074a7.047,7.047,0,0,0,1.344-.373c.771-.249-.6.074-.024-.1a.719.719,0,0,1,.223-.049c.624-.174,1.644-.5,2.266-.722a18.289,18.289,0,0,0,1.718-.747c.8-.423,1.321-.624,2.017-1.072.5-.323.873-.523,1.395-.921l.125-.1.2-.149a19.086,19.086,0,0,0,1.543-1.27c.3-.249.4-.348.4-.348l.847-.9a7.256,7.256,0,0,0,.8-.822s-.325.473.049.049a9.689,9.689,0,0,0,.871-1.07c.448-.673-.423.423-.074-.051.323-.5,1.119-1.469,1.493-2.091a14.138,14.138,0,0,0,.947-1.594c.448-.773.671-1.27,1.021-1.992.25-.548.374-.921.622-1.52.149-.323.249-.647.374-.97.423-1.121.8-2.391.947-2.863.149-.548.547-2.49.6-2.565a8.307,8.307,0,0,0,.324-2.291h.1c.074-.7.1-1.393.149-2.066l.049-1.843v-.223h.1Zm-30.432,22.336a10.977,10.977,0,0,1-1.867,1.992l-.374.248-.373.249a.094.094,0,0,1-.051-.024c-.174-.1-.074-.025.026.049l-.051.024h-.025a2.772,2.772,0,0,1-.8-.5c-.3-.25.051-.076.051-.076s-.2-.174-.6-.473c-.225-.174-.449-.323-.648-.5a8.425,8.425,0,0,1-1.17-1.2,11.813,11.813,0,0,1-1.145-1.643,7.084,7.084,0,0,1-.5-.972,6.17,6.17,0,0,1,.3-4.93l-.1-.049a6.157,6.157,0,0,1,3.013-2.79,2.684,2.684,0,0,1,.4-.125,3.484,3.484,0,0,1,2.066-.2,3.856,3.856,0,0,1,1.17.5c-.174-.1-.547-.249-.4-.149l.025.024a3.751,3.751,0,0,1,.722.448c.323.274.448.4.423.423l-.025.025c.123.149.274.3.4.473a4.071,4.071,0,0,1,.5.722,4.174,4.174,0,0,1,.374.972,7.926,7.926,0,0,1,.372,2.191s-.024.2-.074.7c-.075.5,0,.573,0,.573.049-.323.1-.622.123-.947a7.851,7.851,0,0,1-.821,3.362l-.349.5s.1-.324-.049-.025c-.4.673-.573.972-.573.972l.024.024Zm0,0" transform="translate(-0.125 -0.266)"/>
      </g>
    </g>
  </g>
</svg>
