<svg xmlns="http://www.w3.org/2000/svg" width="90.974" height="68.552" viewBox="0 0 90.974 68.552">
  <g id="Group_201" data-name="Group 201" transform="translate(-153 -810.448)">
    <circle id="Ellipse_16" data-name="Ellipse 16" cx="22.5" cy="22.5" r="22.5" transform="translate(192.374 810.448)" fill="#ffd000"/>
    <g id="elephant" transform="translate(136.82 1244.109)">
      <path id="Path_484" data-name="Path 484" d="M54.047-433.441a20.933,20.933,0,0,0-2.749.777c-1.5.588-2.124.626-5.366.284a19.478,19.478,0,0,0-4.456-.019c-14.3,1.384-22.79,12.305-24.856,31.948a73.7,73.7,0,0,0-.3,12.134c1.138,10.485,5.953,18.714,13.139,22.468,1.517.8,2.142.91,2.673.531.171-.133,1.422-1.725,2.787-3.545,1.858-2.5,2.465-3.451,2.465-3.868,0-.455-.265-.815-1.346-1.82a22.328,22.328,0,0,1-6.845-11.755,15.946,15.946,0,0,1-.284-4.664,16.537,16.537,0,0,1,.588-4.588c.019-.019,1.593-.246,3.527-.512,1.934-.284,3.7-.55,3.944-.588l.417-.095v3.223c0,3.242,0,3.242.493,3.735s.512.493,2.616.36a17.313,17.313,0,0,0,4.152-.607c.3-.095.322.265.322,5.669v5.745l-.891.417a5.617,5.617,0,0,0-2.92,2.73l-.645,1.194-.057,3.356-.076,3.356.493.493.474.474H59.2l.455-.474.474-.455v-10.276c0-9.707.019-10.257.341-10.125a19.472,19.472,0,0,0,8.949,1.687,29.761,29.761,0,0,0,7.849-.872c1.308-.284,1.915-.36,1.953-.209a27.6,27.6,0,0,0,3.792,5.138c1.365,1.4,1.384,1.441,1.384,2.408v1l-.891.133a7.368,7.368,0,0,0-3.223,1.5,7.451,7.451,0,0,0-1.213,1.668l-.645,1.194-.057,3.356-.076,3.356.493.474.474.493h17.86l.455-.474a1.473,1.473,0,0,0,.474-.739c0-.152.341-4.683.758-10.068.645-8.38.834-10.03,1.232-11.433a81.763,81.763,0,0,0,2.579-16.7c.019-.265.133.057.284.739a95.358,95.358,0,0,1,1.213,14.372c0,2.029.019,2.161.474,2.6a1.393,1.393,0,0,0,2.086,0c.455-.436.474-.588.474-2.522a115.022,115.022,0,0,0-.777-11.793q-1.251-9.783-4.569-14.315a12.1,12.1,0,0,1-1.1-1.8q-5.546-14.135-24.326-11.717a17.839,17.839,0,0,1-4.152-.019,37.867,37.867,0,0,1-11.717-2.768A16.73,16.73,0,0,0,54.047-433.441Zm6.579,3.47a38.854,38.854,0,0,0,13.158,2.56c1.308.019,3.659-.076,5.214-.228a20.913,20.913,0,0,1,11.85,1.82,10.473,10.473,0,0,1,3.413,2.522c2.541,2.541,4.038,5.783,4.816,10.428.986,5.991.171,15.168-2.048,23.074-.4,1.422-.588,3.053-1.194,10.9l-.7,9.252H81.33l.076-2.067c.038-1.744.114-2.161.455-2.6.777-1.062,1.289-1.289,3.128-1.4,2.427-.133,2.446-.152,2.446-3.811,0-2.711-.019-2.863-.417-3.2a21.352,21.352,0,0,1-5.574-6.863c-.7-1.384-1.024-1.46-3.451-.834-6.048,1.517-10.693,1.612-14.732.284a10.045,10.045,0,0,1-3.564-1.82,1.5,1.5,0,0,0-2.124.038l-.474.455v21.823H43.41l.076-2.067c.038-1.744.114-2.161.455-2.6a3.149,3.149,0,0,1,2.351-1.384c1.782-.284,1.706.095,1.706-8.248l.019-7.224,1.82-.853a25.6,25.6,0,0,0,9.594-7.774,24.082,24.082,0,0,0,3.83-9.537c.531-3.28.265-8.987-.455-9.783a115.8,115.8,0,0,0-10.769-6.086c-1.232-.379-2.294-.095-5.366,1.422-2.806,1.4-3.223,1.725-3.223,2.616a1.752,1.752,0,0,0,1.422,1.46A17.79,17.79,0,0,0,48-421.022a20.858,20.858,0,0,1,2.977-1.327,50.19,50.19,0,0,1,4.816,2.56c5.2,2.977,4.721,2.351,4.721,6.276,0,9.044-4.645,15.794-13.367,19.434a26.252,26.252,0,0,1-5.821,1.593l-.91.114v-12.741l-.474-.455a1.478,1.478,0,0,0-1.043-.474,1.478,1.478,0,0,0-1.043.474c-.455.436-.474.55-.474,3.09,0,2.6,0,2.654-.417,2.749-.246.057-2.427.379-4.873.72-3.015.417-4.55.72-4.8.929-1.119.91-1.877,8.1-1.213,11.641a25.422,25.422,0,0,0,6.276,12.514l1.384,1.555L32.3-370.456l-1.441,1.934-.91-.512A20.088,20.088,0,0,1,22.725-377c-2.6-5.005-3.7-10.39-3.489-17.026.683-19.851,6.958-31.549,18.638-34.7a28.62,28.62,0,0,1,10.049-.36c1.858.322,1.915.322,2.654-.057a13.971,13.971,0,0,1,6.807-1.479A7.1,7.1,0,0,1,60.626-429.971Z"/>
      <path id="Path_485" data-name="Path 485" d="M112.593-335.526a1.5,1.5,0,0,0,1.043,2.56,1.6,1.6,0,0,0,1.517-1.517A1.6,1.6,0,0,0,113.636-336,1.478,1.478,0,0,0,112.593-335.526Z" transform="translate(-77.771 -79.145)"/>
    </g>
  </g>
</svg>
