<svg xmlns="http://www.w3.org/2000/svg" width="33.798" height="33.798" viewBox="0 0 33.798 33.798">
  <path id="icons8-facebook" d="M30.9,14A16.9,16.9,0,1,0,47.8,30.9,16.906,16.906,0,0,0,30.9,14Zm0,.939a15.961,15.961,0,0,1,2.347,31.748V35.593h4.126L38.36,30.9H33.247V27.346a1.444,1.444,0,0,1,.439-1.226,2.717,2.717,0,0,1,1.7-.4l2.536.016.016-4.4-.167-.051a11.216,11.216,0,0,0-4.368-.553,5.694,5.694,0,0,0-5.324,6.2V30.9H23.858v4.694h4.225V46.608A15.96,15.96,0,0,1,30.9,14.939Zm-1.566,1.532h-.01l-.017,0a14.436,14.436,0,0,0-9.031,4.515.235.235,0,1,0,.343.32,13.962,13.962,0,0,1,8.738-4.368.235.235,0,0,0-.024-.469Zm4.96,4.7a11.753,11.753,0,0,1,3.177.524l-.012,3.57-2.066-.013h0a3.1,3.1,0,0,0-2,.5,1.939,1.939,0,0,0-.612,1.59v4.023h5l-.79,3.755H32.777V46.746a15.839,15.839,0,0,1-4.225-.059V35.124H24.327V31.369h4.225V26.917a5.559,5.559,0,0,1,2.082-4.7A5.882,5.882,0,0,1,34.293,21.17ZM18.474,23.594a.235.235,0,0,0-.206.121,14.557,14.557,0,0,0,2.744,17.817.235.235,0,0,0,.32-.344,14.083,14.083,0,0,1-2.656-17.241.235.235,0,0,0-.2-.353Zm25.763,1.913a.235.235,0,0,0-.22.323,14.137,14.137,0,0,1,.963,5.495q-.012.456-.052.911a.235.235,0,1,0,.468.042q.042-.47.054-.942h0a14.6,14.6,0,0,0-.995-5.676.235.235,0,0,0-.217-.152Zm.506,8.528a.235.235,0,0,0-.233.185,13.759,13.759,0,0,1-.771,2.353q-.126.292-.266.579a.235.235,0,0,0,.423.205c.1-.2.187-.4.274-.6a14.233,14.233,0,0,0,.8-2.433.235.235,0,0,0-.225-.291Zm-2.014,4.751a.235.235,0,0,0-.193.1,14.128,14.128,0,0,1-1.323,1.648,13.973,13.973,0,0,1-4.151,3.06.235.235,0,0,0,.2.424,14.584,14.584,0,0,0,5.657-4.865.235.235,0,0,0-.194-.37Z" transform="translate(-14 -14)"/>
</svg>
