<svg xmlns="http://www.w3.org/2000/svg" width="53.971" height="48.298" viewBox="0 0 53.971 48.298">
  <g id="Group_98" data-name="Group 98" transform="translate(-1732.029 -1275)">
    <circle id="Ellipse_7" data-name="Ellipse 7" cx="15" cy="15" r="15" transform="translate(1756 1275)" fill="#ffd000"/>
    <g id="heart-handshake" transform="translate(1731.947 1761.144)">
      <path id="Path_121" data-name="Path 121" d="M11.238-481.533a13.338,13.338,0,0,0-5.8,2.417c-.738.553-.835.68-.835,1.029a.652.652,0,0,0,.68.68c.243,0,.5-.126,1.029-.534a13.137,13.137,0,0,1,3.67-1.835,12.016,12.016,0,0,1,9.669,1.417,12.893,12.893,0,0,1,4.2,4.631c.184.369.194.466.1.631-.068.117-1.5,1.971-3.155,4.136s-3.107,4.087-3.213,4.272a2.294,2.294,0,0,0-.184.971c0,1.068.553,1.757,1.806,2.252a5.752,5.752,0,0,0,3.378-.068c1.107-.379,1.942-.922,5.194-3.437l2.806-2.165,2.213,2.214c1.922,1.913,2.252,2.2,2.5,2.2a.647.647,0,0,0,.689-.689c0-.32-.136-.485-1.67-2.029l-1.67-1.68h.66a15.418,15.418,0,0,0,3.311-.485c1.019-.291,1.349-.748.913-1.3-.243-.311-.515-.32-1.466-.058a12.472,12.472,0,0,1-4.709.272l-.99-.107-.757.563c-.417.32-1.65,1.272-2.747,2.126a24.885,24.885,0,0,1-4.611,3.165,4.25,4.25,0,0,1-2.777.019,1.013,1.013,0,0,1-.67-.883c0-.107,1.5-2.146,3.349-4.534a41.5,41.5,0,0,0,3.728-5.155,11.621,11.621,0,0,1,9.087-6.621,11.707,11.707,0,0,1,10.572,4.087A11.863,11.863,0,0,1,47.1-463.213a14.161,14.161,0,0,1-3.087,3.942L42.266-457.5l-2.194-2.184c-1.942-1.932-2.233-2.184-2.5-2.184a.673.673,0,0,0-.7.7c0,.282.32.631,3.039,3.378,2.747,2.757,3.058,3.107,3.175,3.514a1.856,1.856,0,0,1-.32,1.65,1.919,1.919,0,0,1-2.514.534c-.233-.136-2.641-2.476-5.359-5.2-4.534-4.563-4.961-4.961-5.252-4.961a.591.591,0,0,0-.524.252c-.437.553-.573.388,4.932,5.912,5.34,5.349,5.349,5.359,5.349,6.116a2.1,2.1,0,0,1-1.126,1.748,2.464,2.464,0,0,1-1.709,0c-.175-.087-2.573-2.437-5.32-5.2-4.815-4.864-5.009-5.048-5.359-5.039a.61.61,0,0,0-.553.252c-.437.553-.573.388,4.932,5.912,5.34,5.349,5.349,5.359,5.349,6.116a1.938,1.938,0,0,1-1.942,1.893c-.7,0-1.029-.175-1.806-.981-.573-.592-.718-.806-.806-1.2a3.383,3.383,0,0,0-3.223-2.65l-.738-.039-.058-.5a3.375,3.375,0,0,0-3.1-2.951l-.66-.049v-.388a3.458,3.458,0,0,0-3.311-3.369h-.553l-.039-.65a3.251,3.251,0,0,0-1.845-2.709,2.783,2.783,0,0,0-1.34-.311c-1.485-.068-1.563-.019-5.1,3.33l-1.427,1.349-2.786-2.806c-2.854-2.874-3.4-3.524-4.107-4.951a10.371,10.371,0,0,1-1.184-5.194,11.268,11.268,0,0,1,1.825-6.407c.612-.942.592-1.447-.068-1.68-.466-.165-1.01.456-1.835,2.116a13.151,13.151,0,0,0,.874,13.388,37.426,37.426,0,0,0,3.34,3.6l2.893,2.922-.252.359a3.48,3.48,0,0,0-.33,3.1A3.414,3.414,0,0,0,11-448.825l.631.01v.35a4.163,4.163,0,0,0,.6,1.854,3.31,3.31,0,0,0,2.553,1.5l.631.058v.369a4.176,4.176,0,0,0,.68,1.971,3.5,3.5,0,0,0,2.971,1.388l.408-.039.058.563a3.459,3.459,0,0,0,2,2.7,2.612,2.612,0,0,0,1.408.252c1.427-.01,1.214.136,5.32-3.728a29.154,29.154,0,0,0,2.311-2.311l.2-.32.5.437a3.4,3.4,0,0,0,1.825.913,3.453,3.453,0,0,0,3.777-2.291,4.5,4.5,0,0,0,.194-1.048v-.408l.515-.019a2.838,2.838,0,0,0,1.563-.437,3.6,3.6,0,0,0,1.68-2.7l.049-.612.583-.019a3.424,3.424,0,0,0,2.874-2.049,3.349,3.349,0,0,0-.01-2.7,3.706,3.706,0,0,0-.612-.922,1.211,1.211,0,0,1-.33-.427,16.323,16.323,0,0,1,1.466-1.553,15.482,15.482,0,0,0,3.893-5.2,13.461,13.461,0,0,0-1.738-13.3,12.789,12.789,0,0,0-7.7-4.854,16.225,16.225,0,0,0-5.262-.058,13.519,13.519,0,0,0-6.728,3.5,14.789,14.789,0,0,0-2.136,2.709c-.107.194-.214.359-.243.35a8.661,8.661,0,0,1-.67-.961,13.241,13.241,0,0,0-8.213-5.534A16.737,16.737,0,0,0,11.238-481.533Zm5.844,23.145a1.8,1.8,0,0,1,.835,1.485c.068.922-.058,1.1-2.34,3.252-3.32,3.126-3.408,3.2-3.99,3.34A1.813,1.813,0,0,1,10-450.679a1.966,1.966,0,0,1-.476-2.427,60.34,60.34,0,0,1,5.631-5.349A2.06,2.06,0,0,1,17.083-458.388Zm3.553,3.553a1.93,1.93,0,0,1,.99,2.612,55.884,55.884,0,0,1-5.806,5.514,1.957,1.957,0,0,1-2.417-.777,1.9,1.9,0,0,1-.029-1.922,67.077,67.077,0,0,1,5.65-5.359A1.942,1.942,0,0,1,20.636-454.835Zm3.786,3.786a1.961,1.961,0,0,1,1.039,2.544,5.237,5.237,0,0,1-.971,1.136c-.7.67-.825.835-.825,1.107a.675.675,0,0,0,.709.7c.262,0,.476-.155,1.359-.961,1.136-1.049,1.466-1.223,2.223-1.155a1.938,1.938,0,0,1,1.534,2.738,58.145,58.145,0,0,1-5.806,5.524,1.6,1.6,0,0,1-.922.126,1.725,1.725,0,0,1-1.563-1.039c-.476-.971-.272-1.65.864-2.738.816-.8.9-1.058.485-1.476-.447-.456-.65-.369-2.107.99a2.285,2.285,0,0,1-1.68.806,2.156,2.156,0,0,1-1.786-1.427c-.3-1.078-.087-1.379,2.932-4.223,1.379-1.3,2.689-2.456,2.9-2.582A1.942,1.942,0,0,1,24.422-451.048Z" transform="translate(0 0)" fill="#080808"/>
    </g>
  </g>
</svg>
