<svg xmlns="http://www.w3.org/2000/svg" width="53.942" height="49" viewBox="0 0 53.942 49">
  <g id="Group_96" data-name="Group 96" transform="translate(-1672.058 -1255)">
    <circle id="Ellipse_6" data-name="Ellipse 6" cx="15" cy="15" r="15" transform="translate(1696 1255)" fill="#ffd000"/>
    <g id="heart" transform="translate(1671.947 1745.849)">
      <path id="Path_117" data-name="Path 117" d="M12.613-485.758A14.225,14.225,0,0,0,.492-474.974c-.841,3.611-.306,7.049,1.758,11.223,1.805,3.658,4.184,6.763,8.453,11.042a82.678,82.678,0,0,0,11.386,9.6c2.359,1.681,2.569,1.681,4.929,0a82.677,82.677,0,0,0,11.386-9.6c4.27-4.279,6.648-7.383,8.453-11.042,2.063-4.174,2.6-7.613,1.758-11.223a14.229,14.229,0,0,0-10.5-10.5,14.35,14.35,0,0,0-4.422-.315,13.828,13.828,0,0,0-8.023,3.381c-1.051.879-1.184.879-2.235,0A14.061,14.061,0,0,0,12.613-485.758Zm4.222,1.614a12.649,12.649,0,0,1,5.76,2.9,2.8,2.8,0,0,0,1.958.917,2.8,2.8,0,0,0,1.958-.917,12.371,12.371,0,0,1,2.34-1.643,12.615,12.615,0,0,1,11.51-.267,12.672,12.672,0,0,1,5.932,5.932c2.283,4.69,1.461,9.924-2.512,15.923a14.161,14.161,0,0,1-.9,1.27c-.048.038-.086-.048-.086-.172a2.985,2.985,0,0,0-.564-1.509,2.429,2.429,0,0,0-1.614-.793l-.611-.105-.325-.955a16.689,16.689,0,0,0-.783-1.882l-.468-.927.287-.267a2.289,2.289,0,0,0,.449-2.674,15.5,15.5,0,0,0-3.611-3.63,2.219,2.219,0,0,0-2.6.334l-.411.363-.946-.468a17.316,17.316,0,0,0-1.872-.783L28.8-473.8l-.115-.688a2.235,2.235,0,0,0-.907-1.633c-.564-.411-1.232-.516-3.228-.516s-2.665.105-3.228.516a2.235,2.235,0,0,0-.907,1.633l-.115.688-.927.306a17.316,17.316,0,0,0-1.872.783l-.946.468-.411-.363a2.219,2.219,0,0,0-2.6-.334,15.5,15.5,0,0,0-3.611,3.63,2.289,2.289,0,0,0,.449,2.674l.287.267-.468.927a16.688,16.688,0,0,0-.783,1.882L9.1-462.6l-.611.105a2.429,2.429,0,0,0-1.614.793,2.986,2.986,0,0,0-.564,1.509c0,.124-.038.21-.086.172a14.162,14.162,0,0,1-.9-1.27c-3.974-6-4.795-11.223-2.512-15.923a12.767,12.767,0,0,1,9.609-7.068A14.888,14.888,0,0,1,16.835-484.144Zm9.972,9.131c.382.182.516.554.516,1.442,0,.707.153.917.783,1.079a16.345,16.345,0,0,1,3.3,1.3c.86.458,1.232.6,1.385.554a2.979,2.979,0,0,0,.745-.573c.621-.583.907-.688,1.289-.487a15.046,15.046,0,0,1,3.066,3.066c.2.382.1.669-.487,1.289a3.514,3.514,0,0,0-.573.726,4.207,4.207,0,0,0,.592,1.481,17.6,17.6,0,0,1,.965,2.292c.478,1.519.516,1.6.936,1.71a4.34,4.34,0,0,0,.955.105c.917,0,1.041.191,1.127,1.834l.067,1.079-.984,1.137a84.627,84.627,0,0,1-14.089,12.551c-1.519,1.1-1.738,1.2-2.1,1.06a67.645,67.645,0,0,1-6.247-4.614,86.174,86.174,0,0,1-9.447-8.988l-.984-1.146.067-1.079c.086-1.643.21-1.834,1.127-1.834a4.34,4.34,0,0,0,.955-.105c.42-.115.458-.191.936-1.71a17.6,17.6,0,0,1,.965-2.292,4.207,4.207,0,0,0,.592-1.481,3.514,3.514,0,0,0-.573-.726c-.583-.621-.688-.907-.487-1.289a15.047,15.047,0,0,1,3.066-3.066c.382-.2.669-.1,1.289.487a2.979,2.979,0,0,0,.745.573c.153.048.525-.1,1.385-.554a16.345,16.345,0,0,1,3.3-1.3c.63-.162.783-.373.783-1.079,0-.764.134-1.223.4-1.395a7,7,0,0,1,2.875-.239A5.338,5.338,0,0,1,26.807-475.012Z" transform="translate(0 0)" fill="#080808"/>
      <path id="Path_118" data-name="Path 118" d="M154.584-309.218a10.555,10.555,0,0,0-8.673,5.865,9.628,9.628,0,0,0-.936,2.808,13.49,13.49,0,0,0-.048,3.668c.325,1.958,1.576,4.528,2.331,4.785a.451.451,0,0,0,.525-.105c.411-.306.392-.688-.067-1.395a9.261,9.261,0,0,1,1.309-11.644,8.866,8.866,0,0,1,6.419-2.569,8.975,8.975,0,0,1,4.919,1.385c.821.516,1.175.564,1.471.191a.908.908,0,0,0,.2-.449c0-.306-.659-.85-1.586-1.328A10.45,10.45,0,0,0,154.584-309.218Z" transform="translate(-130.891 -159.729)"/>
      <path id="Path_119" data-name="Path 119" d="M183.433-277.289a7.652,7.652,0,0,0-6.467,5.664,8.6,8.6,0,0,0,0,3.725,7.476,7.476,0,0,0,7.364,5.7,7.476,7.476,0,0,0,7.364-5.7,8.453,8.453,0,0,0,0-3.725A7.61,7.61,0,0,0,183.433-277.289Zm2.283,1.528a7.582,7.582,0,0,1,1.366.516,5.588,5.588,0,0,1,2.732,2.732,5.386,5.386,0,0,1,.659,2.8,6.136,6.136,0,0,1-5.349,6.065,6.139,6.139,0,0,1-6.228-3.238,5.8,5.8,0,0,1-.707-2.827,5.385,5.385,0,0,1,.659-2.8A6.1,6.1,0,0,1,185.716-275.76Z" transform="translate(-159.778 -188.592)"/>
      <path id="Path_120" data-name="Path 120" d="M201.194-266.652c-.373.3-.325.65.191,1.471a10.377,10.377,0,0,1,1.232,3.057,11.4,11.4,0,0,1,.01,3.735,9.282,9.282,0,0,1-4.976,6.409,9.292,9.292,0,0,1-9.084-.544c-.7-.458-1.079-.5-1.366-.134a.919.919,0,0,0-.2.439c0,.4,1.118,1.213,2.388,1.748a10.674,10.674,0,0,0,13.8-5.158,10.879,10.879,0,0,0,.487-8.052,10.339,10.339,0,0,0-1.49-2.8C201.786-266.9,201.557-266.938,201.194-266.652Z" transform="translate(-169.038 -198.092)"/>
    </g>
  </g>
</svg>
