<svg xmlns="http://www.w3.org/2000/svg" width="49" height="50" viewBox="0 0 49 50">
  <g id="Group_94" data-name="Group 94" transform="translate(-1607 -1249)">
    <circle id="Ellipse_5" data-name="Ellipse 5" cx="15" cy="15" r="15" transform="translate(1626 1249)" fill="#ffd000"/>
    <g id="honest" transform="translate(1606.797 1767.011)">
      <path id="Path_113" data-name="Path 113" d="M11.016-511.924a12.3,12.3,0,0,0-9.1,6.069,10.894,10.894,0,0,0-.989,2.286,5.1,5.1,0,0,0,1.186.4c.009-.017.095-.232.181-.464a11.1,11.1,0,0,1,7.375-6.7c3.825-1.023,7.856.043,11.6,3.086l.92.739.92-.739a13.784,13.784,0,0,1,8.321-3.447,10.885,10.885,0,0,1,10.212,6.034c2.089,4.195,1.53,9.894-1.5,15.18-.4.713-.456.765-.585.645a2.959,2.959,0,0,0-.542-.309l-.4-.172.206-.49a2.554,2.554,0,0,0-1.195-3.249l-.464-.249.275-.387a2.315,2.315,0,0,0,.507-1.6,2.418,2.418,0,0,0-1.427-2.278,2.616,2.616,0,0,0-2.8.318,1.128,1.128,0,0,1-.3.189c-.009-.017-.112-.215-.223-.447a2.508,2.508,0,0,0-2.286-1.375c-1.109,0-.971-.112-5.871,4.779l-4.418,4.4.077-1.461c.12-2.544.1-3.12-.138-3.61a3.2,3.2,0,0,0-1.315-1.324,14.723,14.723,0,0,0-2.759-.6c-.017.017-.688,2.218-1.5,4.891l-1.47,4.857.258,3.18.249,3.172-.55.55c-.4.413-.576.533-.679.481-.069-.043-.688-.593-1.375-1.221-4.874-4.47-8.166-9.361-9.352-13.891a16.493,16.493,0,0,1-.37-6.937l.052-.309-.585-.138a2.97,2.97,0,0,0-.627-.095,9.765,9.765,0,0,0-.318,2.4c-.206,4.453,1.478,9.318,4.788,13.8a44.505,44.505,0,0,0,5.665,6.24l1.289,1.186-.507.524a2.535,2.535,0,0,0-.619.894c-.344,1.169.8,3.4,2.837,5.527a13.75,13.75,0,0,0,3.988,3.086,3.6,3.6,0,0,0,2.08.473c.421-.06.464-.095,2.794-2.415l2.364-2.355,1.805-.447,1.805-.447,1.736-1.728,1.745-1.728-.4-.4a1.82,1.82,0,0,0-.5-.413c-.043,0-.782.7-1.625,1.539l-1.539,1.539-1.814.447L24.3-474l-2.372,2.372-2.381,2.364-.378-.06c-1-.146-2.656-1.264-4.238-2.845s-2.7-3.241-2.845-4.238l-.06-.378,1.668-1.668,1.659-1.659-.258-3.378-.258-3.37,1.1-3.61c.61-1.994,1.178-3.885,1.281-4.2l.172-.585.318.06a2.238,2.238,0,0,1,1.307.516c.55.5.55.559.378,3.627l-.155,2.725-.473.5-.473.5.447.447.447.447,5.527-5.518c4.788-4.779,5.561-5.527,5.862-5.6a1.287,1.287,0,0,1,1.59.937c.189.7.163.739-3.825,4.728-2.011,2.011-3.653,3.688-3.653,3.739a2.09,2.09,0,0,0,.4.49l.4.413,4.607-4.59c4.074-4.074,4.633-4.6,4.925-4.65a1.28,1.28,0,0,1,1.564.774c.309.8.524.542-4.564,5.63-2.527,2.527-4.59,4.642-4.59,4.685a2.164,2.164,0,0,0,.43.516l.43.43,3.722-3.713c2.037-2.037,3.8-3.748,3.9-3.8a1.344,1.344,0,0,1,1.8.928c.146.713.215.636-3.816,4.676l-3.756,3.756.456.447.447.456,3.077-3.069a31.045,31.045,0,0,1,3.4-3.206,1.307,1.307,0,0,1,1.736,1.478c-.06.284-.387.653-2.725,2.991-1.461,1.47-2.656,2.708-2.656,2.759a1.994,1.994,0,0,0,.413.49l.4.4,2.725-2.733a31.948,31.948,0,0,0,2.914-3.112,2.194,2.194,0,0,0,.206-1.16l.009-.774.447-.748a21.721,21.721,0,0,0,3.2-10.762A12.541,12.541,0,0,0,34.182-511.8a14.4,14.4,0,0,0-11.106,2.931,10.378,10.378,0,0,1-.894.636,5.117,5.117,0,0,1-.559-.4A16.109,16.109,0,0,0,15-511.752,17.024,17.024,0,0,0,11.016-511.924Z" fill="#080808"/>
      <path id="Path_114" data-name="Path 114" d="M394-474.355v.645h1.289V-475H394Z" transform="translate(-359.947 -33.83)" fill="#080808"/>
      <path id="Path_115" data-name="Path 115" d="M424-459.355v.645h1.289V-460H424Z" transform="translate(-387.369 -47.541)" fill="#080808"/>
      <path id="Path_116" data-name="Path 116" d="M370.447-137.544l-.447.456.456.447.456.447.447-.456.447-.456-.456-.447-.456-.447Z" transform="translate(-338.01 -341.862)" fill="#080808"/>
    </g>
  </g>
</svg>
