<svg xmlns="http://www.w3.org/2000/svg" width="30.982" height="30.982" viewBox="0 0 30.982 30.982">
  <path id="icons8-instagram" d="M23.572,17A6.579,6.579,0,0,0,17,23.572V41.41a6.579,6.579,0,0,0,6.572,6.572H41.41a6.579,6.579,0,0,0,6.572-6.572V23.572A6.579,6.579,0,0,0,41.41,17Zm0,.939H41.41a5.626,5.626,0,0,1,5.633,5.633V41.41a5.626,5.626,0,0,1-5.633,5.633H23.572a5.626,5.626,0,0,1-5.633-5.633V23.572A5.626,5.626,0,0,1,23.572,17.939ZM27.8,21.225A6.582,6.582,0,0,0,21.225,27.8v9.388A6.582,6.582,0,0,0,27.8,43.757h9.388a6.582,6.582,0,0,0,6.572-6.572V27.8a6.582,6.582,0,0,0-6.572-6.572Zm0,.469h9.388a6.107,6.107,0,0,1,6.1,6.1v9.388a6.107,6.107,0,0,1-6.1,6.1H27.8a6.107,6.107,0,0,1-6.1-6.1V27.8A6.107,6.107,0,0,1,27.8,21.694Zm0,1.408A4.7,4.7,0,0,0,23.1,27.8v9.388A4.7,4.7,0,0,0,27.8,41.879h9.388a4.7,4.7,0,0,0,4.694-4.694V27.8A4.7,4.7,0,0,0,37.185,23.1Zm0,.469h9.388A4.227,4.227,0,0,1,41.41,27.8v9.388a4.227,4.227,0,0,1-4.225,4.225H27.8a4.227,4.227,0,0,1-4.225-4.225V27.8A4.227,4.227,0,0,1,27.8,23.572ZM38.359,24.98a1.612,1.612,0,0,0-1.231.519,1.74,1.74,0,0,0,0,2.248,1.72,1.72,0,0,0,2.463,0,1.74,1.74,0,0,0,0-2.248A1.612,1.612,0,0,0,38.359,24.98Zm0,.469a1.114,1.114,0,0,1,.881.361,1.274,1.274,0,0,1,0,1.625,1.255,1.255,0,0,1-1.762,0,1.274,1.274,0,0,1,0-1.625A1.114,1.114,0,0,1,38.359,25.45Zm-5.868,1.408a5.633,5.633,0,1,0,5.633,5.633A5.637,5.637,0,0,0,32.491,26.858Zm0,.469a5.164,5.164,0,1,1-5.164,5.164A5.16,5.16,0,0,1,32.491,27.327Zm0,1.408a3.755,3.755,0,1,0,3.755,3.755A3.759,3.759,0,0,0,32.491,28.736Zm0,.469a3.286,3.286,0,1,1-3.286,3.286A3.282,3.282,0,0,1,32.491,29.205Z" transform="translate(-17 -17)"/>
</svg>
