<svg xmlns="http://www.w3.org/2000/svg" width="78.3" height="68.552" viewBox="0 0 78.3 68.552">
  <g id="Group_197" data-name="Group 197" transform="translate(-3837.257 -1838.019)">
    <circle id="Ellipse_19" data-name="Ellipse 19" cx="22.5" cy="22.5" r="22.5" transform="translate(3851 1852)" fill="#ffd000"/>
    <g id="kangaroo" transform="translate(3836.757 2318.016)">
      <path id="Path_488" data-name="Path 488" d="M10.45-479.614c-.459.444-.475.857-.153,3.062.352,2.4.367,2.3-.658,2.817-.49.245-2.036,1.209-3.444,2.143-1.393.918-2.832,1.837-3.2,2.021a3.9,3.9,0,0,0-2.1,1.959c-.367.781-.4,1.026-.4,2.771a10.09,10.09,0,0,0,.214,2.48c.352,1.041.367,1.041,5.021,1.041H9.914l.061.337c.046.2.107,1.24.153,2.342.321,7.608,2.817,13.654,6.674,16.226l1.072.719v.811c0,.444-.138,2.143-.321,3.781-.49,4.47-.245,5.832,1.255,7.24l.735.689h2.465c2.235,0,2.48-.031,2.755-.306.566-.566.52-.9-.444-3.475l-.918-2.464.383-1.179.4-1.163,1.332,1.271a12.308,12.308,0,0,0,5.22,3.337c.949.306.811.092,2.311,3.4,1.791,3.934,2.939,7.654,2.863,9.261l-.046.888-1.378-.015c-.75-.015-3-.046-4.975-.077-4-.061-4.5.015-6.353.98-1.714.9-3.9,3.475-3.9,4.577a1.57,1.57,0,0,0,.367.842l.367.429,11.772.046c8.649.031,11.863-.015,12.185-.138.949-.4.949-.383-.046-7.195-.49-3.4-.873-6.2-.842-6.23a1.21,1.21,0,0,1,.505.184,10.409,10.409,0,0,0,1.592.536c3,.8,5.327.429,7.286-1.179.505-.413.827-.582.857-.459.031.107.214.8.4,1.531,1.271,5.067,3.9,9.123,7.424,11.419a21.682,21.682,0,0,0,11.618,2.893c4.21-.23,7.1-2.005,5.71-3.505-.291-.306-.6-.413-1.791-.566-8.266-1.1-13.119-4.439-14.7-10.134a23.071,23.071,0,0,1-.475-7.179c.184-2.954.031-4.011-.781-5.557a14.116,14.116,0,0,0-2.97-3.337,8.069,8.069,0,0,1-1.1-1.822c-4.041-8.358-12.261-13.18-24.37-14.328-.628-.046-2.74-.138-4.7-.2l-3.536-.092-.658-.459a4.182,4.182,0,0,1-1.179-1.424c-.566-1.041-.995-1.332-1.745-1.179-1.929.429-.4,3.934,2.3,5.22.857.413.934.429,4.852.536a44.645,44.645,0,0,1,11.343,1.362c7.409,1.959,12.568,5.863,15.369,11.649.321.658.658,1.408.735,1.653a3.268,3.268,0,0,0,.98,1.056,8.358,8.358,0,0,1,2.51,2.786c.459.918.459.765.383,5.893-.061,3.9.2,5.572,1.316,8.266a15.474,15.474,0,0,0,5.22,6.184A23.724,23.724,0,0,0,70-414.4c1.24.429.9.49-.995.153-5.74-1.01-8.909-3.215-11.236-7.853a26.343,26.343,0,0,1-2.311-8.45c-.153-1.837-.444-2.3-1.408-2.3a1.334,1.334,0,0,0-1.286,1.041,5.9,5.9,0,0,1-2.939,3.567,3.929,3.929,0,0,1-2.021.352,10.012,10.012,0,0,1-4.852-1.47c-1.669-.842-2.051-.857-2.633-.077l-.306.413.949,6.613c.536,3.643.949,6.72.949,6.812,0,.153-1.99.2-9.445.2-9.246,0-9.429,0-9.169-.291a7.338,7.338,0,0,1,2.817-1.378,31.164,31.164,0,0,1,6.536,0c3.184.214,4.072.092,4.99-.735a2.963,2.963,0,0,0,.9-2.6c0-2.128-1.133-5.924-3.062-10.225-1.883-4.179-2.021-4.531-2.311-5.955-.689-3.352-.122-6.506,1.515-8.4.765-.888.9-1.3.582-1.913-.26-.505-.52-.643-1.209-.643-.367,0-.643.168-1.271.827-1.913,1.975-2.832,5.526-2.373,9.2a9.985,9.985,0,0,1,.138,1.546c-.184.168-2.51-1.607-3.6-2.74-1.913-1.99-1.837-1.714-1.117-3.857a18.489,18.489,0,0,0,.612-2.067,64.629,64.629,0,0,0-4.21-6.873,1.192,1.192,0,0,0-1.7,0c-.689.643-.536,1.087,1.408,4.225l1.776,2.878-1.515,4.454c-1.684,5.036-1.623,4.424-.689,6.9l.475,1.271h-.8c-.643,0-.842-.061-.995-.321-.367-.582-.383-1.837-.031-5.113a19.9,19.9,0,0,0-.077-6.95c-.765-3.628-2.036-5.113-3.306-3.857-.52.536-.551.873-.138,1.745l.321.643-.551-.612c-1.822-2.067-3.368-7.042-3.674-11.787-.046-.765-.122-1.806-.153-2.311l-.077-.934.643-.107a2.3,2.3,0,0,0,.995-.429,1.285,1.285,0,0,0,0-1.776c-.352-.337-.429-.337-5.74-.337H3.026v-.98c0-1.454.2-1.868,1.117-2.342.429-.214,1.883-1.133,3.23-2.036a19.866,19.866,0,0,1,3.536-2.143c.046,0,.077.138.077.321a1.7,1.7,0,0,0,1.3,1.209,1.559,1.559,0,0,0,1.286-1.332c0-.23-.092-1.026-.2-1.776a5.268,5.268,0,0,1-.107-1.332,11.746,11.746,0,0,1,1.163,1.316A9.216,9.216,0,0,0,15.9-471.5c1.378.719,2.725,3.628,3.2,6.95.23,1.5.551,2.005,1.3,2.005.719,0,.98-.122,1.24-.643.2-.383.2-.628.061-1.623-.612-4-2.112-7.225-4-8.6a39.129,39.129,0,0,1-3.092-3.4,40.846,40.846,0,0,0-2.786-3.092A1.243,1.243,0,0,0,10.45-479.614Z"/>
      <path id="Path_489" data-name="Path 489" d="M50.545-412.656a1.461,1.461,0,0,0,0,2.694,1.055,1.055,0,0,0,1.041.031,1.29,1.29,0,0,0,.949-1.347A1.5,1.5,0,0,0,50.545-412.656Z" transform="translate(-41.626 -56.947)"/>
      <path id="Path_490" data-name="Path 490" d="M236.316-279.406c-.873.122-1.316.566-1.316,1.316a1.642,1.642,0,0,0,.291.857c.26.337.413.367,1.791.383a17.588,17.588,0,0,1,2.311.138c.75.107.827.092,1.271-.352a1.534,1.534,0,0,0,.459-.857,1.584,1.584,0,0,0-1.3-1.316A13.129,13.129,0,0,0,236.316-279.406Z" transform="translate(-198.604 -169.838)"/>
    </g>
  </g>
</svg>
