<svg xmlns="http://www.w3.org/2000/svg" width="31.895" height="30.646" viewBox="0 0 31.895 30.646">
  <path id="Union_16" data-name="Union 16" d="M-1508.8,26.381a37.28,37.28,0,0,1,1.667-23.734,4.223,4.223,0,0,1,6.949-1.357A35.761,35.761,0,0,0-1482.5,11.313a4.387,4.387,0,0,1,2.128,7.25,35.991,35.991,0,0,1-8.658,6.674,35.251,35.251,0,0,1-15.423,4.39c-.067,0-.133,0-.2,0A4.308,4.308,0,0,1-1508.8,26.381Z" transform="translate(1510.554 0.514)" fill="#080808" stroke="rgba(0,0,0,0)" stroke-width="1"/>
</svg>
