<svg xmlns="http://www.w3.org/2000/svg" width="235.204" height="14.744" viewBox="0 0 235.204 14.744">
  <path id="download_3_" data-name="download (3)" d="M2.8,8.3l16.8-.6L35,7.1l15-.7c2.2-.1,4.5-.3,6.8-.3l10-.2h5.5l10.3.2L98,6.7,129.5,8l15.5.8,15.4.7c9.7.4,19.4.7,29,1.3l8,.5,8.9.7,7.7.7,3.2.3,3.7.5,5.2.6,6.6,1.2.6.1a2.3,2.3,0,0,0,2.3-1.6,2.539,2.539,0,0,0-.2-1.9,2.365,2.365,0,0,0-1.3-1.1l-4.2-.8-4.2-.7q-6.836-.917-13.7-1.6a2.4,2.4,0,0,0,1-2.4,3.307,3.307,0,0,0-1-1.5l-1.1-.5q-1.291-.252-2.6-.4l-2-.3-3.8-.2L195,2l-15.5-.5-15.4-.3L156,1H131.6L115.8.8C106.1.7,96.2.6,86.4.7H71.8C66.6.7,61.4.7,56.2.9L45.9,1,40,1.1l-9.4.4-6.2.3c-7.4.5-14.7,1-22,1.7a1.975,1.975,0,0,0-1.1.6A2.088,2.088,0,0,0,.5,5.7,2.438,2.438,0,0,0,2.8,8.2" transform="translate(-0.5 -0.659)" fill="#080808" fill-rule="evenodd"/>
</svg>
