<svg xmlns="http://www.w3.org/2000/svg" width="30.513" height="30.513" viewBox="0 0 30.513 30.513">
  <path id="icons8-linkedin" d="M23.409,17.654a6.11,6.11,0,0,0-6.1,6.1V42.064a6.11,6.11,0,0,0,6.1,6.1H41.717a6.11,6.11,0,0,0,6.1-6.1V23.757a6.109,6.109,0,0,0-6.1-6.1Zm0,.939H41.717a5.17,5.17,0,0,1,5.164,5.164V42.064a5.17,5.17,0,0,1-5.164,5.164H23.409a5.17,5.17,0,0,1-5.164-5.164V23.757A5.17,5.17,0,0,1,23.409,18.593ZM24.741,20a5.093,5.093,0,0,0-5.088,5.088V40.732a5.093,5.093,0,0,0,5.088,5.087H40.385a5.092,5.092,0,0,0,5.087-5.087v-8.76a.235.235,0,1,0-.469,0v8.76a4.623,4.623,0,0,1-4.617,4.618H24.741a4.624,4.624,0,0,1-4.618-4.618V25.088a4.624,4.624,0,0,1,4.618-4.618h15.8a.235.235,0,0,0,0-.469Zm2.666,6.123a1.634,1.634,0,1,0,1.674,1.627A1.608,1.608,0,0,0,27.407,26.123Zm0,.469a1.13,1.13,0,0,1,1.2,1.164,1.146,1.146,0,0,1-1.238,1.163,1.126,1.126,0,0,1-1.188-1.163A1.142,1.142,0,0,1,27.407,26.593Zm17.83.45a.234.234,0,0,0-.235.235v.939a.235.235,0,0,0,.469,0v-.939A.235.235,0,0,0,45.237,27.043Zm0,1.878a.235.235,0,0,0-.235.235v1.878a.235.235,0,0,0,.469,0V29.155A.235.235,0,0,0,45.237,28.92ZM36.21,30.271a3.253,3.253,0,0,0-2.475.963v-.671a.235.235,0,0,0-.235-.235H30.649a.234.234,0,0,0-.235.246c.038.821,0,8.826,0,8.907a.233.233,0,0,0,.234.236H33.5a.235.235,0,0,0,.235-.235V34.5a1.809,1.809,0,0,1,.083-.635,1.4,1.4,0,0,1,1.306-.937c1.252,0,1.388,1.271,1.388,1.819l.038,4.737a.235.235,0,0,0,.235.233H39.6a.235.235,0,0,0,.235-.235V34.7a4.782,4.782,0,0,0-1.146-3.5A3.371,3.371,0,0,0,36.21,30.271Zm-10.219.058a.235.235,0,0,0-.235.235v8.919a.235.235,0,0,0,.235.235h2.817a.235.235,0,0,0,.235-.235V30.563a.235.235,0,0,0-.235-.235Zm10.212.413h.007a2.923,2.923,0,0,1,2.151.795A4.343,4.343,0,0,1,39.37,34.7v4.544H37.021l-.038-4.5c0-1.411-.711-2.288-1.857-2.288a1.854,1.854,0,0,0-1.742,1.229,2.2,2.2,0,0,0-.117.812v4.747H30.885c.006-1.266.029-7.028,0-8.449h2.377v1.081a.245.245,0,0,0,.02.207.252.252,0,0,0,.215.12.248.248,0,0,0,.216-.171A2.622,2.622,0,0,1,36.2,30.741Zm-9.977.057h2.347v8.45H26.226Z" transform="translate(-17.307 -17.654)"/>
</svg>
