<svg xmlns="http://www.w3.org/2000/svg" xmlns:xlink="http://www.w3.org/1999/xlink" width="270" height="180" viewBox="0 0 270 180">
  <defs>
    <clipPath id="clip-path">
      <rect id="Rectangle_116" data-name="Rectangle 116" width="120" height="60" transform="translate(231 2815)" fill="#fff"/>
    </clipPath>
    <clipPath id="clip-path-2">
      <rect id="Rectangle_118" data-name="Rectangle 118" width="120" height="60" transform="translate(397 2916)" fill="#fff"/>
    </clipPath>
    <clipPath id="clip-path-3">
      <rect id="Rectangle_117" data-name="Rectangle 117" width="120" height="60" transform="translate(243 2873)" fill="#fff"/>
    </clipPath>
    <clipPath id="clip-path-4">
      <rect id="Rectangle_119" data-name="Rectangle 119" width="120" height="60" transform="translate(239 2999)" fill="#fff"/>
    </clipPath>
    <clipPath id="clip-path-5">
      <rect id="Rectangle_120" data-name="Rectangle 120" width="120" height="60" transform="translate(447 2929)" fill="#fff"/>
    </clipPath>
    <clipPath id="clip-path-6">
      <rect id="Rectangle_122" data-name="Rectangle 122" width="120" height="60" transform="translate(615 2742)" fill="#fff"/>
    </clipPath>
  </defs>
  <g id="Group_364" data-name="Group 364" transform="translate(-173 -2160)">
    <g id="Mask_Group_29" data-name="Mask Group 29" transform="translate(-58 -655)" clip-path="url(#clip-path)">
      <g id="Group_16" data-name="Group 16" transform="translate(-473.001 2992.3)">
        <g id="Group_14" data-name="Group 14" transform="translate(704 -135.546)">
          <path id="Path_63" data-name="Path 63" d="M252.107,241.069h-5.668v.6c1.773,0,2.058.38,2.058,2.628v4.053c0,2.248-.284,2.66-2.058,2.66-1.361-.19-2.28-.918-3.546-2.312l-1.456-1.583c1.963-.349,3.008-1.583,3.008-2.977,0-1.741-1.488-3.071-4.275-3.071H234.6v.6c1.773,0,2.058.38,2.058,2.628v4.053c0,2.248-.285,2.66-2.058,2.66v.6h6.3v-.6c-1.773,0-2.058-.412-2.058-2.66v-1.139h.538l3.515,4.4h9.214c4.528,0,6.491-2.406,6.491-5.288S256.636,241.069,252.107,241.069ZM238.84,246.23v-4.211h1.3a2.106,2.106,0,1,1,0,4.212Zm13.362,4.4h-.222c-1.14,0-1.3-.285-1.3-1.741v-6.871h1.52c3.293,0,3.894,2.406,3.894,4.275.006,1.932-.594,4.339-3.894,4.339Z" transform="translate(-202.585 -237.902)" fill="#080808"/>
          <path id="Path_64" data-name="Path 64" d="M166.712,242.432l2.185-6.46c.634-1.868.348-2.406-1.678-2.406v-.634h5.953v.634c-1.995,0-2.47.475-3.262,2.786l-3.61,10.829h-.412l-3.23-9.911-3.293,9.911h-.412l-3.515-10.829c-.76-2.312-1.266-2.786-3.1-2.786v-.634h7.03v.634c-1.868,0-2.375.443-1.71,2.406l2.121,6.46,3.2-9.5h.6Z" transform="translate(-152.337 -232.932)" fill="#080808"/>
          <path id="Path_65" data-name="Path 65" d="M207,251.378c-3.483,0-6.333-2.565-6.333-5.7,0-3.1,2.85-5.668,6.333-5.668s6.333,2.565,6.333,5.668C213.333,248.813,210.484,251.378,207,251.378Zm0-10.385c-2.913,0-3.926,2.628-3.926,4.686,0,2.091,1.013,4.687,3.926,4.687,2.945,0,3.958-2.6,3.958-4.687,0-2.059-1.012-4.687-3.958-4.687Z" transform="translate(-181.86 -237.255)" fill="#080808"/>
          <path id="Path_66" data-name="Path 66" d="M304.988,246.009v.633h-7.251v-.633c2.122,0,2.5-.538,2.5-3.705v-5.066c0-3.167-.38-3.673-2.5-3.673v-.634h6.554c3.261,0,5.067,1.678,5.067,3.927,0,2.185-1.8,3.9-5.067,3.9h-1.8V242.3C302.486,245.471,302.866,246.009,304.988,246.009Zm-.7-11.938h-1.8v5.51h1.8a2.475,2.475,0,0,0,2.6-2.723,2.51,2.51,0,0,0-2.6-2.787Z" transform="translate(-241.154 -232.931)" fill="#080808"/>
          <path id="Path_67" data-name="Path 67" d="M350.495,248.637l-.158.57c-.285,1.045-.634,1.425-2.882,1.425h-.444c-1.646,0-1.931-.38-1.931-2.628v-1.457c2.47,0,2.66.221,2.66,1.868h.6V243.7h-.6c0,1.647-.19,1.868-2.66,1.868v-3.546h1.741c2.249,0,2.6.38,2.882,1.425l.158.6h.506l-.221-2.976h-9.31v.6c1.773,0,2.058.38,2.058,2.628v4.053c0,2.057-.242,2.575-1.64,2.649-1.329-.2-2.241-.927-3.489-2.3l-1.457-1.583c1.963-.349,3.008-1.583,3.008-2.977,0-1.741-1.488-3.071-4.275-3.071H329.47v.6c1.773,0,2.058.38,2.058,2.628v4.053c0,2.248-.285,2.66-2.058,2.66v.6h6.3v-.6c-1.773,0-2.058-.412-2.058-2.66v-1.139h.538l3.515,4.4H350.78l.19-2.976h-.475Zm-16.782-2.407v-4.211h1.3a2.106,2.106,0,1,1,0,4.212Z" transform="translate(-260.538 -237.902)" fill="#080808"/>
          <path id="Path_68" data-name="Path 68" d="M393.8,251.378a4.682,4.682,0,0,1-2.85-1.077,2.277,2.277,0,0,0-.506,1.077h-.6v-4.369h.633a3.514,3.514,0,0,0,3.578,3.325,1.63,1.63,0,0,0,1.836-1.52c0-.823-.728-1.457-2.026-2.058l-1.8-.855a3.445,3.445,0,0,1-2.217-3.04c0-1.52,1.425-2.818,3.388-2.818a3.967,3.967,0,0,1,2.47.823,1.784,1.784,0,0,0,.412-.855h.6v3.737h-.665c-.222-1.489-1.045-2.723-2.723-2.723-.887,0-1.71.507-1.71,1.3,0,.823.665,1.266,2.185,1.963l1.741.855a3.3,3.3,0,0,1,2.121,2.85,3.576,3.576,0,0,1-3.867,3.385Z" transform="translate(-297.416 -237.255)" fill="#080808"/>
          <path id="Path_69" data-name="Path 69" d="M418.861,251.378a4.68,4.68,0,0,1-2.85-1.077,2.274,2.274,0,0,0-.506,1.077h-.6v-4.369h.634a3.514,3.514,0,0,0,3.578,3.325,1.631,1.631,0,0,0,1.837-1.52c0-.823-.728-1.457-2.027-2.058l-1.8-.855a3.446,3.446,0,0,1-2.217-3.04c0-1.52,1.425-2.818,3.388-2.818a3.967,3.967,0,0,1,2.47.823,1.781,1.781,0,0,0,.411-.855h.6v3.737h-.665c-.222-1.489-1.045-2.723-2.723-2.723-.887,0-1.71.507-1.71,1.3,0,.823.665,1.266,2.185,1.963l1.742.855a3.3,3.3,0,0,1,2.121,2.85,3.576,3.576,0,0,1-3.868,3.385Z" transform="translate(-312.724 -237.255)" fill="#080808"/>
        </g>
        <g id="Group_15" data-name="Group 15" transform="translate(742.309 -174.3)">
          <g id="Group_13" data-name="Group 13">
            <path id="Path_70" data-name="Path 70" d="M70.967,241.047a14.016,14.016,0,0,0,7.9,12.612L72.18,235.344A13.962,13.962,0,0,0,70.967,241.047Z" transform="translate(-68.645 -224.713)" fill="#080808"/>
            <path id="Path_71" data-name="Path 71" d="M98.058,227.3a7.379,7.379,0,0,0-1.156-3.865,6.56,6.56,0,0,1-1.376-3.286,2.426,2.426,0,0,1,2.353-2.487c.062,0,.121.008.181.011a14.01,14.01,0,0,0-21.171,2.638c.329.01.639.017.9.017,1.466,0,3.734-.178,3.734-.178a.579.579,0,0,1,.09,1.154s-.759.09-1.6.133l5.1,15.179,3.067-9.2L86,221.434c-.755-.044-1.469-.133-1.469-.133a.579.579,0,0,1,.088-1.154s2.314.178,3.691.178c1.466,0,3.735-.178,3.735-.178a.579.579,0,0,1,.09,1.154s-.761.089-1.6.133L95.593,236.5l1.4-4.671a16.931,16.931,0,0,0,1.065-4.529Z" transform="translate(-72.262 -211.669)" fill="#080808"/>
            <path id="Path_72" data-name="Path 72" d="M101.007,253.149l-4.2,12.217a14.021,14.021,0,0,0,8.612-.223,1.221,1.221,0,0,1-.1-.193Z" transform="translate(-84.427 -235.589)" fill="#080808"/>
            <path id="Path_73" data-name="Path 73" d="M130.329,232.723a10.739,10.739,0,0,1,.1,1.441,13.221,13.221,0,0,1-1.066,5.019l-4.28,12.376a14.015,14.015,0,0,0,5.251-18.836Z" transform="translate(-101.698 -223.112)" fill="#080808"/>
            <path id="Path_74" data-name="Path 74" d="M81.335,208.025A16.335,16.335,0,1,0,97.671,224.36,16.335,16.335,0,0,0,81.335,208.025Zm0,31.921A15.586,15.586,0,1,1,96.92,224.36a15.586,15.586,0,0,1-15.585,15.586Z" transform="translate(-65 -208.025)" fill="#080808"/>
          </g>
        </g>
      </g>
    </g>
    <g id="Mask_Group_31" data-name="Mask Group 31" transform="translate(-224 -696)" clip-path="url(#clip-path-2)">
      <g id="Group_299" data-name="Group 299" transform="translate(397.005 2933)">
        <g id="Group_298" data-name="Group 298" transform="translate(0 3.986)">
          <path id="Path_656" data-name="Path 656" d="M50.55,0H36.025V7.283h7.147a.461.461,0,0,1,.461.461v7.049h7.378V.462A.461.461,0,0,0,50.55,0Z" transform="translate(-28.979)" fill="#080808" fill-rule="evenodd"/>
          <path id="Path_657" data-name="Path 657" d="M7.045,0V7.283H.231a.231.231,0,0,1-.162-.4Zm8,21.688a.231.231,0,0,1-.393-.164V14.793H22.03l-6.985,6.894Z" fill="#080808" fill-rule="evenodd" opacity="0.405"/>
          <path id="Path_658" data-name="Path 658" d="M36.02,37.238H43.4a.23.23,0,0,1,.23.23v7.28H36.482a.461.461,0,0,1-.461-.461V37.238Z" transform="translate(-28.975 -29.955)" fill="#080808" fill-rule="evenodd" opacity="0.405"/>
        </g>
        <path id="Path_659" data-name="Path 659" d="M224.218,3.526a2.006,2.006,0,0,0,1.46.611,2.037,2.037,0,0,0,1.487-.611,1.963,1.963,0,0,0,.618-1.444,2.006,2.006,0,0,0-.618-1.457A2.017,2.017,0,0,0,225.678,0a1.989,1.989,0,0,0-1.46.624,2.009,2.009,0,0,0-.618,1.459A1.963,1.963,0,0,0,224.218,3.526ZM179.481,8.848a.079.079,0,0,1-.078.078h-2.9v5.413a1.281,1.281,0,0,0,.342.989,1.58,1.58,0,0,0,1,.351,14,14,0,0,0,1.468,0h.082a.078.078,0,0,1,.082.078V18.64a.078.078,0,0,1-.069.078l-.053.006q-3.4.358-4.812-.664-1.434-1.041-1.433-3.721V8.926H170.9a.077.077,0,0,1-.077-.078V5.776A.078.078,0,0,1,170.9,5.7h2.212V3.551a.157.157,0,0,1,.094-.143L176.4,2.019a.077.077,0,0,1,.11.071V5.7h2.9a.078.078,0,0,1,.078.078v3.07Zm6.155-.911A3.515,3.515,0,0,1,187.2,6.063a4.763,4.763,0,0,1,2.356-.624.078.078,0,0,1,.078.078V9.046a.127.127,0,0,1-.139.126,4.005,4.005,0,0,0-2.637.639,2.968,2.968,0,0,0-1.223,2.68v6.141a.078.078,0,0,1-.078.078h-3.239a.077.077,0,0,1-.077-.078V5.776a.078.078,0,0,1,.077-.078h3.239a.078.078,0,0,1,.077.078V7.937ZM201.686,5.7a.078.078,0,0,0-.078.078V7.235a5.187,5.187,0,0,0-4.289-1.9,5.991,5.991,0,0,0-4.512,1.991,6.836,6.836,0,0,0-1.882,4.879,6.836,6.836,0,0,0,1.882,4.879,5.991,5.991,0,0,0,4.512,1.991,5.19,5.19,0,0,0,4.289-1.9v1.458a.079.079,0,0,0,.078.078h3.238a.078.078,0,0,0,.078-.078V5.776a.078.078,0,0,0-.078-.078h-3.238Zm-6.34,9.16a3.658,3.658,0,0,0,6.262-2.654,3.646,3.646,0,1,0-7.289,0,3.62,3.62,0,0,0,1.027,2.654Zm24.746-7.533a6.022,6.022,0,0,0-4.539-1.991,5.116,5.116,0,0,0-4.263,1.9V5.776a.077.077,0,0,0-.077-.078h-3.239a.077.077,0,0,0-.077.078v18.06a.078.078,0,0,0,.077.078h3.239a.079.079,0,0,0,.077-.078V17.175a5.116,5.116,0,0,0,4.263,1.9,6.022,6.022,0,0,0,4.539-1.991,6.839,6.839,0,0,0,1.881-4.879,6.839,6.839,0,0,0-1.881-4.88Zm-7.776,7.533a3.659,3.659,0,0,0,6.263-2.654,3.646,3.646,0,1,0-7.289,0,3.624,3.624,0,0,0,1.026,2.654Zm11.757,3.851a.078.078,0,0,1-.078-.078V5.776a.078.078,0,0,1,.078-.078h3.239a.077.077,0,0,1,.078.078V18.633a.078.078,0,0,1-.078.078h-3.239Zm-60.524-8.47q-.7-.325-.7-.846a.889.889,0,0,1,.434-.781,1.946,1.946,0,0,1,1.092-.287,2.139,2.139,0,0,1,1.906.973.112.112,0,0,0,.137.042l2.865-1.254a.077.077,0,0,0,.035-.11q-.049-.082-.1-.164A5.116,5.116,0,0,0,167.3,6.051a6.011,6.011,0,0,0-2.921-.716,5.666,5.666,0,0,0-3.566,1.106,3.62,3.62,0,0,0-1.433,3.031,3.224,3.224,0,0,0,.7,2.121,4.1,4.1,0,0,0,1.7,1.236,17.8,17.8,0,0,0,2,.65,10.06,10.06,0,0,1,1.7.586q.7.325.7.846,0,1.119-1.815,1.119a2.468,2.468,0,0,1-2.4-1.263.156.156,0,0,0-.2-.073L158.9,15.946a.077.077,0,0,0-.039.1l.032.065q1.5,2.959,5.459,2.959A6.339,6.339,0,0,0,168.126,18a3.562,3.562,0,0,0,1.513-3.084,3.466,3.466,0,0,0-.7-2.212,3.878,3.878,0,0,0-1.7-1.261,17.7,17.7,0,0,0-2-.625,9.331,9.331,0,0,1-1.7-.573Z" transform="translate(-127.783)" fill="#080808" fill-rule="evenodd"/>
      </g>
    </g>
    <g id="Mask_Group_32" data-name="Mask Group 32" transform="translate(-70 -593)" clip-path="url(#clip-path-3)">
      <g id="Group_300" data-name="Group 300" transform="translate(221.699 2633.2)">
        <path id="Path_660" data-name="Path 660" d="M27.5,285.558a5.433,5.433,0,0,1-1.733-4.017,5.569,5.569,0,0,1,1.667-4.017,2.263,2.263,0,1,0-3.2-3.2,10.407,10.407,0,0,0-2.933,7.217,10.179,10.179,0,0,0,3,7.218,2.234,2.234,0,0,0,3.2,0,2.4,2.4,0,0,0,0-3.2Z" transform="translate(0 -11.542)" fill="#2d2d2d"/>
        <path id="Path_661" data-name="Path 661" d="M39.125,265.983a5.445,5.445,0,0,1,4.017-1.717,5.6,5.6,0,0,1,4.017,1.667,2.263,2.263,0,1,0,3.2-3.2,10.407,10.407,0,0,0-7.217-2.933,10.18,10.18,0,0,0-7.218,3,2.234,2.234,0,0,0,0,3.2A2.415,2.415,0,0,0,39.125,265.983Z" transform="translate(-11.625)" fill="#080808"/>
        <path id="Path_662" data-name="Path 662" d="M47.158,341.975a5.445,5.445,0,0,1-4.017,1.717,5.6,5.6,0,0,1-4.017-1.667,2.263,2.263,0,1,0-3.2,3.2,10.407,10.407,0,0,0,7.217,2.933,10.18,10.18,0,0,0,7.218-3,2.234,2.234,0,0,0,0-3.2,2.415,2.415,0,0,0-3.2.017Z" transform="translate(-11.625 -67.958)" fill="#080808"/>
        <circle id="Ellipse_28" data-name="Ellipse 28" cx="2.233" cy="2.233" r="2.233" transform="translate(23.667 262.15)" fill="#1d1c1c"/>
        <circle id="Ellipse_29" data-name="Ellipse 29" cx="2.233" cy="2.233" r="2.233" transform="translate(23.667 273.383)" fill="#1d1c1c"/>
        <path id="Path_663" data-name="Path 663" d="M154.237,280.35c.633-.517.767-.183,1.283.317.25.25,1.017.767.517,1.15a4.67,4.67,0,0,1-3.25,1.217,4.777,4.777,0,0,1-4.917-5.117,4.5,4.5,0,0,1,1.6-3.383,4.8,4.8,0,0,1,3.317-1.083,5.316,5.316,0,0,1,1.717.317,3.737,3.737,0,0,1,1.083.567c.633.517.317.767-.133,1.283-.133.133-.183.25-.317.317-.25.25-.45.45-.767.183a2.984,2.984,0,0,0-2.3-.517c-2.55.633-2.433,5.167.7,5.167A1.811,1.811,0,0,0,154.237,280.35Zm70.933,2.5a.735.735,0,0,1-.767-.767V272.05a.735.735,0,0,1,.767-.767H226a.735.735,0,0,1,.767.767v10.033a.735.735,0,0,1-.767.767Zm-4.4-1.15a4.19,4.19,0,0,1-3.067,1.283c-2.617,0-3.833-2.167-3.833-4.533v-4.083a.735.735,0,0,1,.767-.767h.833a.735.735,0,0,1,.767.767v4.083a2.1,2.1,0,0,0,2.167,2.367,2.377,2.377,0,0,0,2.3-2.483v-3.967a.735.735,0,0,1,.767-.767h.833a.735.735,0,0,1,.767.767v7.717a.735.735,0,0,1-.767.767h-.7a.824.824,0,0,1-.767-.767l-.067-.383Zm-9.967-8.05h1.6a.775.775,0,0,1,.767.767v.517a.735.735,0,0,1-.767.767h-1.6v6.383a.735.735,0,0,1-.767.767H209.2a.735.735,0,0,1-.767-.767v-8.75A3.355,3.355,0,0,1,211.5,269.7h1.217a.775.775,0,0,1,.767.767v.517a.735.735,0,0,1-.767.767h-.633c-.95,0-1.333.7-1.333,1.6v.317h.05Zm-5.817,0h1.783a.735.735,0,0,1,.767.767v.517a.735.735,0,0,1-.767.767h-1.783v3.883a1.016,1.016,0,0,0,1.15,1.15h.383a.735.735,0,0,1,.767.767v.567a.735.735,0,0,1-.767.767h-1.083c-1.917-.133-2.75-1.333-2.75-3.25V272.05a.735.735,0,0,1,.767-.767h.833a.735.735,0,0,1,.767.767v1.6Zm-25.6,0h1.783a.735.735,0,0,1,.767.767v.517a.735.735,0,0,1-.767.767h-1.783v3.883a1.065,1.065,0,0,0,1.15,1.217h.383a.735.735,0,0,1,.767.767v.517a.735.735,0,0,1-.767.767H180.4c-2.1,0-3.317-.9-3.317-3.25v-7.533a.735.735,0,0,1,.767-.767h.833a.735.735,0,0,1,.767.767v1.6c0-.019-.063-.019-.063-.019Zm-10.4,1.083a4,4,0,0,1,2.933-1.283c2.617,0,3.967,2.1,3.967,4.533v4.1a.735.735,0,0,1-.767.767h-.833a.735.735,0,0,1-.767-.767V278a2.1,2.1,0,0,0-2.167-2.367,2.338,2.338,0,0,0-2.3,2.483v3.967a.735.735,0,0,1-.767.767h-.833a.735.735,0,0,1-.767-.767V274.35a.735.735,0,0,1,.767-.767h.7a.824.824,0,0,1,.767.767Zm25.667,0a4,4,0,0,1,2.933-1.283c2.617,0,3.967,2.1,3.967,4.533v4.1a.735.735,0,0,1-.767.767h-.833a.735.735,0,0,1-.767-.767V278a2.1,2.1,0,0,0-2.167-2.367,2.338,2.338,0,0,0-2.3,2.483v3.967a.735.735,0,0,1-.767.767h-.833a.735.735,0,0,1-.767-.767V274.35a.735.735,0,0,1,.767-.767h.7a.824.824,0,0,1,.767.767ZM161.12,273.4a4.85,4.85,0,1,0,4.85,4.85,4.639,4.639,0,0,0-4.85-4.85Zm23.383,5.683a2.462,2.462,0,0,0,2.683,1.85,4.039,4.039,0,0,0,1.717-.383c.066-.067.182-.067.249-.133.317-.183.567-.25.833,0l.45.45.383.383c.383.517.133.633-.317.9a6.1,6.1,0,0,1-3.317.95c-3.067,0-5.117-1.85-5.117-4.917a4.645,4.645,0,0,1,4.917-4.85c3,0,4.667,1.717,4.733,4.733,0,.833.067,1.083-.767,1.083H184.5Zm-23.383-3.517a2.538,2.538,0,0,1,2.433,2.683,2.44,2.44,0,1,1-4.867,0,2.5,2.5,0,0,1,2.434-2.682Zm23.433,1.533h4.783c-.183-1.217-1.15-1.667-2.3-1.667a2.414,2.414,0,0,0-2.483,1.668Z" transform="translate(-105.47 -8.25)" fill="#080808"/>
      </g>
    </g>
    <g id="Mask_Group_33" data-name="Mask Group 33" transform="translate(84 -839)" clip-path="url(#clip-path-4)">
      <g id="Group_301" data-name="Group 301" transform="translate(-180 72.996)">
        <path id="Exclusion_2" data-name="Exclusion 2" d="M-6019.865,35.334h0L-6040,31.564l2.683-20.709c.132-.944.17-.956,1.145-1.266l3.185-.978a17.457,17.457,0,0,1,2.257-5.388c1.429-2.13,3.166-3.215,5.161-3.223a2.409,2.409,0,0,1,1.83,1.061h.168c1.655,0,2.9,1.171,3.7,3.482.67-.219,1.042-.333,1.061-.333a1.271,1.271,0,0,1,.335-.047.571.571,0,0,1,.425.147l2.081,2.08.128.009c1.737.122,2.654.189,2.725.2a.351.351,0,0,1,.312.291c.013.113,1.252,8.5,2.345,15.891l.368,2.487.362,2.447c.451,3.05.776,5.254.777,5.265l-10.913,2.354Zm-14.467-10.52-.918,3.062a7.033,7.033,0,0,0,5.043,2.149l.178,0c2.955,0,5.019-2.278,5.019-5.539,0-2.6-1.734-3.869-3.127-4.89-.917-.672-1.64-1.2-1.64-1.921,0-.391.161-1.666,2.227-1.666a6.275,6.275,0,0,1,2.625.629l1.355-4,0-.006a6.156,6.156,0,0,0-2.537-.552c-.077,0-.155,0-.232,0-4.907,0-7.143,3.369-7.143,6.5,0,2.2,1.229,3.189,2.313,4.065.86.695,1.6,1.295,1.6,2.349a1.369,1.369,0,0,1-.411.993,1.353,1.353,0,0,1-.948.386h-.055a6.6,6.6,0,0,1-3.353-1.56Zm8.639-23.57h0c-1.44,0-2.744.832-3.874,2.473a16.421,16.421,0,0,0-2.012,4.441l2.784-.853c.763-3.966,2.637-5.378,3.687-5.866a1.071,1.071,0,0,0-.583-.188Zm1.354,1.273h0v.011c-.806.349-2.275,1.375-3.063,4.323l3.52-1.094V5.569A8.4,8.4,0,0,0-6024.34,2.517Zm1.229-.24a8.224,8.224,0,0,1,.416,2.76v.374c.177-.055.353-.107.524-.158l.132-.04.009,0c.371-.111.721-.216,1.042-.321-.348-1.1-1-2.439-2.122-2.613Z" transform="translate(6459 2938.004)" fill="#080808"/>
        <path id="Path_665" data-name="Path 665" d="M36.722,18.856c-.124-.02-2.854-.209-2.854-.209l-2.081-2.081a.407.407,0,0,0-.291-.124l-1.52,31.149,10.913-2.353L37.034,19.167a.376.376,0,0,0-.311-.311Z" transform="translate(409.163 2925.745)"/>
        <path id="Path_667" data-name="Path 667" d="M50.443,30.877c-.779-.418-1.181-.779-1.181-1.273,0-.626.547-1.031,1.435-1.031a5.091,5.091,0,0,1,1.914.419l.718-2.182a4.545,4.545,0,0,0-2.587-.509c-2.691,0-4.56,1.541-4.56,3.707a3.434,3.434,0,0,0,2.033,2.84c.942.547,1.273.909,1.273,1.48s-.463,1.047-1.345,1.047a6.009,6.009,0,0,1-2.526-.672l-.762,2.182a5.815,5.815,0,0,0,3.035.762c2.764,0,4.753-1.36,4.753-3.819.015-1.331-.987-2.257-2.188-2.96Zm11.032-4.589a4.14,4.14,0,0,0-3.26,1.637l-.046-.015,1.181-6.181H56.273L53.283,37.47h3.08l1.031-5.382c.4-2.033,1.455-3.289,2.436-3.289.686,0,.957.463.957,1.137a7.019,7.019,0,0,1-.134,1.36l-1.165,6.159h3.08l1.211-6.364a11.465,11.465,0,0,0,.224-2c-.015-1.734-.927-2.78-2.526-2.78Zm9.477,0c-3.707,0-6.159,3.349-6.159,7.06a4.022,4.022,0,0,0,4.246,4.306c3.637,0,6.1-3.26,6.1-7.06a4,4,0,0,0-4.181-4.306ZM69.44,35.3c-1.047,0-1.5-.9-1.5-2,0-1.764.909-4.649,2.587-4.649,1.091,0,1.455.942,1.455,1.855,0,1.894-.915,4.793-2.546,4.793Zm13.574-9.014a4.2,4.2,0,0,0-3.26,1.818h-.046l.182-1.637H77.162l-.626,4.082L74.4,41.824h3.066l.853-4.56h.06a3.553,3.553,0,0,0,1.81.4c3.618,0,5.979-3.707,5.979-7.454.015-2.063-.909-3.916-3.154-3.916Zm-2.945,9.059A1.919,1.919,0,0,1,78.8,34.9l.509-2.886c.364-1.914,1.36-3.2,2.436-3.2.942,0,1.225.867,1.225,1.69,0,2.006-1.173,4.846-2.894,4.846Zm10.51-13.482a1.751,1.751,0,0,0-1.256.519,1.7,1.7,0,0,0-.5,1.261,1.426,1.426,0,0,0,1.455,1.541h.046a1.74,1.74,0,0,0,1.809-1.78,1.462,1.462,0,0,0-1.541-1.541Zm-4.3,15.577h3.08l2.092-10.909H88.358M99.3,26.517H97.146l.105-.509c.182-1.047.807-1.989,1.818-1.989a3.351,3.351,0,0,1,.987.149l.6-2.409a4.123,4.123,0,0,0-1.675-.268,4.6,4.6,0,0,0-3.02,1.031A5.873,5.873,0,0,0,94.166,26l-.1.509H92.632l-.449,2.317h1.435l-1.637,8.612h3.091l1.637-8.612h2.124l.418-2.317Zm7.416.015-2.8,7.5h-.046l-.762-7.5H99.863l1.855,10.016a.706.706,0,0,1-.06.509,5.306,5.306,0,0,1-1.675,1.855,6.992,6.992,0,0,1-1.734.867l.853,2.615a7.06,7.06,0,0,0,3.014-1.68,20.7,20.7,0,0,0,4.037-6.116l3.767-8.073h-3.209Z" transform="translate(409.079 2925.717)" fill="#080808"/>
      </g>
    </g>
    <g id="Mask_Group_34" data-name="Mask Group 34" transform="translate(-124 -709)" clip-path="url(#clip-path-5)">
      <g id="Group_302" data-name="Group 302" transform="translate(447 2944)">
        <path id="Path_668" data-name="Path 668" d="M15.058.844H0v30.31H15.058c7.531,0,15.058-6.785,15.058-15.153S22.589.844,15.058.844Zm0,22.041A6.887,6.887,0,1,1,21.948,16a6.887,6.887,0,0,1-6.89,6.885Z" transform="translate(0 -0.521)" fill="#080808"/>
        <path id="Path_669" data-name="Path 669" d="M105.921.328c4.532,0,6.857,2.748,6.857,6.529v3.381c0,3.781-2.325,6.528-6.857,6.528H98.735V.328Zm2.818,6.506c0-2.09-1.1-3.194-3.546-3.194h-2.442v9.814h2.442c2.442,0,3.546-1.1,3.546-3.194Zm16.55,6.88h-5.941l-.916,3.053h-4.039l5.87-16.44H124.4l5.871,16.438h-4.039Zm-4.955-3.241H124.3l-1.973-6.5ZM143.038.328V3.735H138.6V16.767h-4.038V3.734h-4.44V.328ZM152.815,17.1c-4.978,0-7.538-3.194-7.538-7.491V7.491c0-4.3,2.56-7.491,7.538-7.491s7.54,3.194,7.54,7.491V9.6C160.353,13.9,157.794,17.1,152.815,17.1Zm0-13.738c-2.348,0-3.5,1.574-3.5,3.922V9.816c0,2.348,1.151,3.922,3.5,3.922s3.5-1.573,3.5-3.922V7.28c0-2.348-1.15-3.922-3.5-3.922ZM102.337,28.8a1.842,1.842,0,0,0,1.99-1.863h2.279a3.932,3.932,0,0,1-4.242,3.9,4.208,4.208,0,0,1-4.586-4.558V24.958a4.208,4.208,0,0,1,4.586-4.557,3.932,3.932,0,0,1,4.242,3.9h-2.279a1.842,1.842,0,0,0-1.99-1.863c-1.491,0-2.093.989-2.093,2.408v1.548C100.244,27.809,100.848,28.8,102.337,28.8Zm14.182-8.2h2.265V30.633h-2.365v-5.3L114.843,28.4h-1.949l-1.562-3.066v5.3h-2.365V20.6h2.264l2.637,5.46Zm8.713,10.233c-2.408,0-4.027-1.148-4.027-3.168v-.273h2.365v.2c0,.845.545,1.361,1.677,1.361,1.018,0,1.691-.416,1.691-1.19a.823.823,0,0,0-.689-.888l-2.508-.631c-1.562-.387-2.365-1.075-2.365-2.709,0-1.992,1.419-3.138,3.8-3.138,2.25,0,3.683,1.218,3.683,3.052V23.7H126.58v-.172c0-.674-.373-1.233-1.4-1.233-.86,0-1.4.3-1.4,1.017a.763.763,0,0,0,.645.817l2.665.716a2.577,2.577,0,0,1,2.25,2.709c-.009,2-1.786,3.28-4.108,3.28Z" transform="translate(-60.355)" fill="#080808"/>
      </g>
    </g>
    <g id="Mask_Group_35" data-name="Mask Group 35" transform="translate(-292 -462)" clip-path="url(#clip-path-6)">
      <g id="Group_303" data-name="Group 303" transform="translate(614.71 2761.429)">
        <path id="Path_670" data-name="Path 670" d="M364.665,28.82V41.512h-4.089V26.833Z" transform="translate(-289.758 -21.114)" fill="#080808"/>
        <path id="Path_671" data-name="Path 671" d="M85.865,21.541l3.066,2.669,12.919-6.729-1.334-3.208Zm53.776-8.177,10.392-5.395-1.76-3.038-8.631,4.287Z" transform="translate(-68.823 -3.499)" fill="#080808"/>
        <path id="Path_672" data-name="Path 672" d="M110.4,8V21.682h-3.918V2.176ZM85.865,19.325l3.066,2.669L94.837,7.23l-1.9-5.054Z" transform="translate(-68.823 -1.283)" fill="#080808"/>
        <path id="Path_673" data-name="Path 673" d="M121.981,2.176h4.032l7.467,19.506h-4.145Zm18.058,0,8.6,13.316v6.19L135.524,2.176Zm15.985,0h4.06V21.682h-4.06Zm12.663,3.578H162.44V2.176h14.566l2.073,3.578Z" transform="translate(-97.869 -1.283)" fill="#080808"/>
        <path id="Path_674" data-name="Path 674" d="M458.45,63.964v7.411h-4.032V63.964" transform="translate(-365.23 -50.976)" fill="#080808"/>
        <path id="Path_675" data-name="Path 675" d="M461.232,2.176l-6.814,12.1h4.032l7.07-12.1Z" transform="translate(-365.23 -1.283)" fill="#080808"/>
        <path id="Path_676" data-name="Path 676" d="M425.489,14.271l-7.041-12.1h4.429l4.742,8.291Z" transform="translate(-336.301 -1.283)" fill="#080808"/>
        <path id="Path_677" data-name="Path 677" d="M3.892,13.779c0,2.7,1.675,4.316,5.026,5.168l3.549.823c3.18.738,5.111,2.555,5.111,5.508a5.726,5.726,0,0,1-1.164,3.549c0-2.953-1.533-4.543-5.2-5.508l-3.492-.8c-2.811-.625-4.969-2.129-4.969-5.338a5.651,5.651,0,0,1,1.136-3.407" transform="translate(-1.983 -10.615)" fill="#080808"/>
        <path id="Path_678" data-name="Path 678" d="M258.176,14.5V2.176h3.918V21.682h-3.918Z" transform="translate(-207.403 -1.283)" fill="#080808"/>
        <path id="Path_679" data-name="Path 679" d="M12.244,13.925a4.641,4.641,0,0,1,2.186,4.287,7.5,7.5,0,0,1-6.048,2.5c-4.344,0-7.439-2.158-8.092-5.877H4.464c.539,1.7,1.959,2.5,3.89,2.5,2.3.028,3.861-1.221,3.89-3.407M1.908,3.136A7.223,7.223,0,0,1,7.786.58c4.458,0,7.013,2.357,7.666,5.65H11.42A3.458,3.458,0,0,0,7.843,3.9C5.656,3.931,4.18,5.18,4.095,7.167A4.363,4.363,0,0,1,1.908,3.136Z" fill="#080808"/>
      </g>
    </g>
  </g>
</svg>
