<svg xmlns="http://www.w3.org/2000/svg" width="66.163" height="68.552" viewBox="0 0 66.163 68.552">
  <g id="Group_483" data-name="Group 483" transform="translate(-218.432 -694.448)">
    <circle id="Ellipse_44" data-name="Ellipse 44" cx="22.5" cy="22.5" r="22.5" transform="translate(226 694.448)" fill="#ffd000"/>
    <g id="idea" transform="translate(209.432 1206.331)">
      <path id="Path_1012" data-name="Path 1012" d="M168.771-511.7a12.477,12.477,0,0,0-9.254,7.084,12.268,12.268,0,0,0-1.058,3.469,1.144,1.144,0,0,0,1.045,1.031c.643,0,.937-.362,1.3-1.674a9.92,9.92,0,0,1,3.08-5.129,11.285,11.285,0,0,1,4.419-2.451,14.493,14.493,0,0,1,5.37-.214,10.552,10.552,0,0,1,5.678,3.161,7.94,7.94,0,0,1,1.982,2.692,8.939,8.939,0,0,1,1.165,5.156,7.188,7.188,0,0,1-.442,3.254,13.625,13.625,0,0,1-.79,1.875c-.576,1-6.669,10.459-6.709,10.406-.013-.013.054-1.527.174-3.335s.2-3.509.2-3.75v-.442l.87-.08a2.936,2.936,0,0,0,2.638-1.62,3.432,3.432,0,0,0-.228-3.04,2.8,2.8,0,0,0-2.156-1.165,2.255,2.255,0,0,0-1.46.308,2.586,2.586,0,0,0-1.567,2.4l-.147,1.018h-2.906v-.643A2.863,2.863,0,0,0,167.1-496.5a2.926,2.926,0,0,0-2.357,4.58,2.954,2.954,0,0,0,2.4,1.259l.817.094.067.549c.04.295.134,1.808.214,3.361s.174,3.08.214,3.415l.067.6-.254-.469c-.134-.254-1.674-2.692-3.428-5.4s-3.321-5.276-3.509-5.692a15.11,15.11,0,0,1-.67-2.036c-.321-1.312-.6-1.741-1.152-1.741a1.269,1.269,0,0,0-1.1.737c-.174.71.429,2.973,1.219,4.54.174.348,1.768,2.893,3.536,5.625l3.2,5v.991a2.453,2.453,0,0,0,.2,1.272c.147.2.187.723.2,2.37,0,2.317.107,2.719.9,3.469.723.7,1.152.777,3.844.777,2.437,0,2.464,0,3.174-.375A2.548,2.548,0,0,0,175.8-474.6c.388-.629.4-.683.469-2.866a13.546,13.546,0,0,1,.241-2.6,4.125,4.125,0,0,0,.161-1.245v-.871l3.214-5.009c4.527-7.017,4.754-7.607,4.741-11.584a8.889,8.889,0,0,0-.362-3.5,12.91,12.91,0,0,0-1.768-3.8,13.218,13.218,0,0,0-8.169-5.571A18.438,18.438,0,0,0,168.771-511.7Zm4.018,21.454c0,.214-.121,2.3-.268,4.66s-.268,4.339-.268,4.393a1.446,1.446,0,0,1-.763.067l-.777-.04-.228-3.884c-.121-2.143-.241-4.259-.268-4.727l-.054-.83h2.625Zm1.339,12.8c0,2.156.067,2.1-2.638,2.1s-2.585.094-2.585-2.036v-1.58h5.223Z" transform="translate(-129.37)"/>
      <path id="Path_1013" data-name="Path 1013" d="M106.528-466.692a1.185,1.185,0,0,0-.4,1.647,8.79,8.79,0,0,0,3.107,1.165.936.936,0,0,0,1-.951c0-.7-.2-.884-1.674-1.446C107.05-466.866,106.983-466.879,106.528-466.692Z" transform="translate(-83.961 -39.047)"/>
      <path id="Path_1014" data-name="Path 1014" d="M375.828-466.441c-1.781.643-2.263,1.272-1.594,2.116.375.469.951.455,2.384-.067,1.58-.589,2-1.071,1.607-1.9a1.2,1.2,0,0,0-.964-.616A12.457,12.457,0,0,0,375.828-466.441Z" transform="translate(-316.072 -38.949)"/>
      <path id="Path_1015" data-name="Path 1015" d="M93.191-412.732a1.112,1.112,0,0,0,.054,1.594c.308.241.549.281,1.862.281s1.553-.04,1.862-.281a1.149,1.149,0,0,0,.08-1.594c-.241-.241-.442-.268-1.915-.268S93.446-412.973,93.191-412.732Z" transform="translate(-72.647 -85.64)"/>
      <path id="Path_1016" data-name="Path 1016" d="M386.356-412.652a1.094,1.094,0,0,0-.027,1.406c.241.295.375.321,1.754.362,1.661.054,2.156-.067,2.4-.589a.912.912,0,0,0-.187-1.192c-.308-.321-.4-.335-2-.335C386.65-413,386.623-413,386.356-412.652Z" transform="translate(-326.586 -85.64)"/>
      <path id="Path_1017" data-name="Path 1017" d="M107.741-365.325c-1.527.562-1.741.737-1.741,1.42a.937.937,0,0,0,.964,1.045,9.248,9.248,0,0,0,3.027-1.112,1.055,1.055,0,0,0-.054-1.554C109.469-365.9,109.241-365.874,107.741-365.325Z" transform="translate(-84.01 -126.539)"/>
      <path id="Path_1018" data-name="Path 1018" d="M374.643-365.687a1.153,1.153,0,0,0-.187,1.487,8.46,8.46,0,0,0,3.2,1.232,1.085,1.085,0,0,0,.991-.951c0-.737-.295-.964-2.2-1.661C375.366-365.982,375.031-366,374.643-365.687Z" transform="translate(-316.346 -126.431)"/>
      <path id="Path_1019" data-name="Path 1019" d="M154.8-264.524a37.826,37.826,0,0,0-4.62,3.629l-3.911,3.321-8.7.04c-8.477.027-8.745.04-10.044.335a15.89,15.89,0,0,0-4.326,1.62,1.112,1.112,0,0,0,.054,1.594c.469.375.71.362,1.781-.107a16.311,16.311,0,0,1,4.58-1.219c1.808-.187,15.16-.174,15.83.013a3.13,3.13,0,0,1,1.661,1.366,2.557,2.557,0,0,1-.924,3.134l-.549.375-5.223.067-5.21.067-.268.335a1.153,1.153,0,0,0,.174,1.513c.281.228.67.241,5.6.2l5.3-.04.75-.348a6.471,6.471,0,0,0,1.286-.844l.536-.482h4.553c3.8,0,4.647-.04,5.169-.214.469-.161,1.821-1.219,5.665-4.486,2.986-2.518,5.236-4.326,5.5-4.419a1.851,1.851,0,0,1,1.928.737,2.086,2.086,0,0,1,.107,1.741c-.161.348-14.905,12.923-16.111,13.727a10.136,10.136,0,0,1-4.312,1.473,4.658,4.658,0,0,0-1.928.482,1.213,1.213,0,0,0,.013,1.553c.268.268.375.281,1.312.2a12.584,12.584,0,0,0,6.388-2.049c.308-.2,4.058-3.348,8.33-6.977,5.986-5.062,7.861-6.736,8.142-7.2a4.9,4.9,0,0,0,.321-3.214,3.941,3.941,0,0,0-5.973-2l-.71.469-.254-.576a3.976,3.976,0,0,0-4.982-2.116,4.835,4.835,0,0,0-1.125.589l-.388.321-.388-.777a3.6,3.6,0,0,0-3.321-2.089A3.229,3.229,0,0,0,154.8-264.524Zm2.37,2.089a1.7,1.7,0,0,1,.656,2.424c-.174.228-2.089,1.928-4.259,3.763-3.536,2.986-3.964,3.308-4.031,3.04-.04-.161-.147-.589-.241-.951a5.014,5.014,0,0,0-.616-1.353,6.734,6.734,0,0,1-.469-.763c0-.121,7.218-6.187,7.473-6.294A1.944,1.944,0,0,1,157.167-262.435Zm6.643,1.687a1.884,1.884,0,0,1,.83,2.451c-.187.335-6.415,5.718-6.951,6.013-.295.147-.9.187-2.973.161l-2.6-.04,4.888-4.152c2.692-2.29,5.076-4.259,5.3-4.393A1.494,1.494,0,0,1,163.81-260.747Z" transform="translate(-98.63 -214.001)"/>
      <path id="Path_1020" data-name="Path 1020" d="M21.187-179.538c-.857.482-3.067,3.442-3.9,5.236a60.4,60.4,0,0,1-4.352,5.852C9.4-163.976,9-163.427,9-162.985a1.034,1.034,0,0,0,.991,1.071c.536,0,1-.522,4.982-5.558,3-3.8,3.736-4.821,4.433-6.134a12.806,12.806,0,0,1,2.545-3.6c.71-.737.844-.964.844-1.353A1.072,1.072,0,0,0,21.187-179.538Z" transform="translate(0 -287.711)"/>
      <path id="Path_1021" data-name="Path 1021" d="M169.515-84.262a33.9,33.9,0,0,0-5.277.817c-.348.281-6.817,8.049-7,8.4a.936.936,0,0,0,.121,1.165.823.823,0,0,0,.777.348,1.414,1.414,0,0,0,.71-.174c.107-.08,1.58-1.821,3.254-3.844s3.12-3.763,3.214-3.857a33.791,33.791,0,0,1,5.169-.79,38.176,38.176,0,0,0,5.317-.79,1.031,1.031,0,0,0,.415-1.259c-.187-.5-.482-.67-1.152-.656C174.778-84.891,172.287-84.61,169.515-84.262Z" transform="translate(-128.253 -369.796)"/>
    </g>
  </g>
</svg>
