<svg xmlns="http://www.w3.org/2000/svg" xmlns:xlink="http://www.w3.org/1999/xlink" width="270" height="180" viewBox="0 0 270 180">
  <defs>
    <clipPath id="clip-path">
      <rect id="Rectangle_153" data-name="Rectangle 153" width="120" height="60" transform="translate(366 2773)" fill="#fff"/>
    </clipPath>
    <clipPath id="clip-path-2">
      <rect id="Rectangle_154" data-name="Rectangle 154" width="120" height="60" transform="translate(366 2845)" fill="#fff"/>
    </clipPath>
    <clipPath id="clip-path-3">
      <rect id="Rectangle_155" data-name="Rectangle 155" width="120" height="60" transform="translate(366 2923)" fill="#fff"/>
    </clipPath>
    <clipPath id="clip-path-4">
      <rect id="Rectangle_157" data-name="Rectangle 157" width="120" height="60" transform="translate(366 3073)" fill="#fff"/>
    </clipPath>
    <clipPath id="clip-path-5">
      <rect id="Rectangle_168" data-name="Rectangle 168" width="120" height="60" transform="translate(9106 2295)" fill="#fff"/>
    </clipPath>
    <clipPath id="clip-path-6">
      <rect id="Rectangle_170" data-name="Rectangle 170" width="120" height="60" transform="translate(9083 2261)" fill="#fff"/>
    </clipPath>
  </defs>
  <g id="Group_362" data-name="Group 362" transform="translate(-989 -2160)">
    <g id="Mask_Group_54" data-name="Mask Group 54" transform="translate(623 -493)" clip-path="url(#clip-path)">
      <g id="Group_315" data-name="Group 315" transform="translate(58 -148)">
        <circle id="Ellipse_30" data-name="Ellipse 30" cx="26.817" cy="26.817" r="26.817" transform="translate(354.365 2924)" fill="#fff"/>
        <path id="Path_711" data-name="Path 711" d="M287.277,12.944a26.834,26.834,0,0,1-28.141,40.19Zm-2.2-3.111.007.009L270.822,30.21l-2.883-3.247,3.347-3.6h-2.494l-2.735,3.009V18.821h-1.931V30.986h1.931V27.655l2.912,3.331h1.31L255.467,52.138a26.833,26.833,0,0,1-17.934-24.08l1.524,3.313,2.413-5.439,2.446,5.439,3.685-8.013h-1.963L244,27.269l-1.609-3.91h-1.625l-1.657,3.91-1.425-3.533a26.692,26.692,0,0,1,5.888-13.9h41.509Zm-32.89,13.333a4.129,4.129,0,0,0-1.593.306A3.976,3.976,0,0,0,248.43,25.6a4.078,4.078,0,0,0,0,3.138,3.88,3.88,0,0,0,.869,1.271,4.162,4.162,0,0,0,5.786,0,3.889,3.889,0,0,0,.869-1.271,3.988,3.988,0,0,0-2.169-5.27,4.13,4.13,0,0,0-1.6-.306Zm9.429,0a2.1,2.1,0,0,0-1.3.4,2.871,2.871,0,0,0-.8.9v-1.11h-1.834v7.627H259.6V26a2.686,2.686,0,0,1,.644-.7,1.716,1.716,0,0,1,1.094-.33,2.415,2.415,0,0,1,.491.048,1.607,1.607,0,0,1,.394.129l.676-1.738a3.523,3.523,0,0,0-.676-.185,3.756,3.756,0,0,0-.611-.056Zm-9.429,1.8a2.115,2.115,0,0,1,.877.177,1.963,1.963,0,0,1,.668.483,2.152,2.152,0,0,1,.418.7,2.427,2.427,0,0,1,.145.845,2.5,2.5,0,0,1-.145.853,2.046,2.046,0,0,1-.418.7,2.015,2.015,0,0,1-.668.475,2.261,2.261,0,0,1-1.754,0,2.014,2.014,0,0,1-.668-.475,2.047,2.047,0,0,1-.418-.7,2.5,2.5,0,0,1-.145-.853,2.431,2.431,0,0,1,.145-.845,2.151,2.151,0,0,1,.418-.7,1.961,1.961,0,0,1,.668-.483A2.115,2.115,0,0,1,252.187,24.966ZM264.322,0a26.708,26.708,0,0,1,17.219,6.257H247.1A26.708,26.708,0,0,1,264.322,0Z" transform="translate(116.861 2924)" fill="#080808"/>
        <path id="Path_712" data-name="Path 712" d="M17.748,104.42a3.776,3.776,0,0,1,2.51.772,2.574,2.574,0,0,1,.917,2.076v4.972H19.389v-.965a2.836,2.836,0,0,1-1.021.829,3.179,3.179,0,0,1-1.456.33,3.31,3.31,0,0,1-1.054-.169,2.652,2.652,0,0,1-.893-.5,2.416,2.416,0,0,1-.611-.8,2.519,2.519,0,0,1,.008-2.1,2.43,2.43,0,0,1,.644-.813,2.985,2.985,0,0,1,.965-.523,3.771,3.771,0,0,1,1.2-.185,4.628,4.628,0,0,1,1.094.137,3.131,3.131,0,0,1,.981.41v-.434a1.161,1.161,0,0,0-.161-.628,1.279,1.279,0,0,0-.4-.41,1.65,1.65,0,0,0-.539-.217,2.7,2.7,0,0,0-.571-.064,4.822,4.822,0,0,0-.981.129,6.371,6.371,0,0,0-1.271.434l-.628-1.593a7.988,7.988,0,0,1,1.376-.483,6.594,6.594,0,0,1,1.681-.209Zm22.124,0a3.856,3.856,0,0,1,1.488.29,3.724,3.724,0,0,1,1.223.813,3.85,3.85,0,0,1,.829,1.255,4.157,4.157,0,0,1,.306,1.617v.306q0,.193-.016.418H38a1.865,1.865,0,0,0,.684,1.038,2.626,2.626,0,0,0,.652.362,2.279,2.279,0,0,0,.837.145,3.5,3.5,0,0,0,1.046-.177,2.639,2.639,0,0,0,1.014-.6l.965,1.448a5.54,5.54,0,0,1-1.255.74,4.357,4.357,0,0,1-1.8.354,4.232,4.232,0,0,1-1.617-.306,3.938,3.938,0,0,1-2.172-2.14,4.042,4.042,0,0,1-.314-1.593,4.119,4.119,0,0,1,.29-1.545,3.981,3.981,0,0,1,.8-1.263,3.744,3.744,0,0,1,2.743-1.167ZM6.678,100.977v1.834H1.931v2.752H6.356V107.4H1.931v4.843H0V100.977ZM12.2,104.42a3.757,3.757,0,0,1,.611.056,3.521,3.521,0,0,1,.676.185l-.676,1.738a1.626,1.626,0,0,0-.394-.129,2.419,2.419,0,0,0-.491-.048,1.715,1.715,0,0,0-1.094.33,2.681,2.681,0,0,0-.644.7v4.988H8.254v-7.627h1.834v1.11a2.871,2.871,0,0,1,.8-.9,2.1,2.1,0,0,1,1.3-.4Zm19.743,0a2.859,2.859,0,0,1,1.078.2,2.413,2.413,0,0,1,.853.571,2.62,2.62,0,0,1,.555.909,3.508,3.508,0,0,1,.2,1.231v4.907H32.7v-4.409q0-1.609-1.3-1.609a1.462,1.462,0,0,0-1.006.322,2.674,2.674,0,0,0-.555.66v5.036H27.9v-4.409q0-1.609-1.3-1.609a1.463,1.463,0,0,0-1.006.322,2.669,2.669,0,0,0-.555.66v5.036H23.106v-7.627h1.8v1.11a3.1,3.1,0,0,1,.853-.893,2.4,2.4,0,0,1,1.448-.41,2.82,2.82,0,0,1,1.384.346,2.165,2.165,0,0,1,.933.99,2.458,2.458,0,0,1,.346-.483,2.3,2.3,0,0,1,.523-.426,3.134,3.134,0,0,1,.692-.306,2.849,2.849,0,0,1,.853-.121ZM17.57,108.765a2.407,2.407,0,0,0-.515.056,1.735,1.735,0,0,0-.475.177.994.994,0,0,0-.354.33.922.922,0,0,0-.137.515.834.834,0,0,0,.459.8,1.48,1.48,0,0,0,.443.145,2.749,2.749,0,0,0,.45.04,2.006,2.006,0,0,0,1.11-.281,2.883,2.883,0,0,0,.692-.6v-.788a3.192,3.192,0,0,0-.837-.29,4.167,4.167,0,0,0-.837-.1Zm22.3-2.591a2.036,2.036,0,0,0-.8.145,1.88,1.88,0,0,0-.571.37,1.579,1.579,0,0,0-.354.5,1.556,1.556,0,0,0-.137.531h3.781a1.539,1.539,0,0,0-.137-.515,1.674,1.674,0,0,0-.354-.507,1.766,1.766,0,0,0-.587-.378,2.2,2.2,0,0,0-.837-.145Z" transform="translate(308 2842.745)" fill="#080808"/>
      </g>
    </g>
    <g id="Mask_Group_55" data-name="Mask Group 55" transform="translate(773 -685)" clip-path="url(#clip-path-2)">
      <g id="Group_317" data-name="Group 317" transform="translate(0 0)">
        <g id="Group_316" data-name="Group 316" transform="translate(366 2862)">
          <path id="Path_721" data-name="Path 721" d="M0,13.665V0L11.835,6.833v4.555L3.945,6.833v9.11Z" fill="#080808"/>
          <path id="Path_722" data-name="Path 722" d="M225,6.833,236.835,0V13.665l-7.89,4.555L225,15.943l7.89-4.555V6.833L225,11.388Z" transform="translate(-213.165)" fill="#080808"/>
          <path id="Path_723" data-name="Path 723" d="M225,303.1v4.555l7.89,4.555v-4.555Z" transform="translate(-213.165 -287.157)" fill="#080808"/>
          <path id="Path_724" data-name="Path 724" d="M375,25.053l11.835-6.833V9.11l-3.945,2.278v4.555L375,20.5Zm7.89-18.22V2.278L386.835,0V4.555Z" transform="translate(-355.276)" fill="#080808"/>
        </g>
        <path id="Path_725" data-name="Path 725" d="M1.17,0h1.8V-8.535H3L6.18,0H7.5l3.225-8.535h.03V0H12.63V-10.62H9.66L6.93-3.075H6.885L4.125-10.62H1.17ZM19.35,0h1.68V-4.38c0-1.44-.63-3.03-3.21-3.03a4.543,4.543,0,0,0-3.045,1.14l.93,1.095A2.878,2.878,0,0,1,17.67-6c.9,0,1.65.435,1.65,1.32v.18c-2.25,0-4.95.3-4.95,2.445,0,1.68,1.545,2.235,2.7,2.235a2.553,2.553,0,0,0,2.235-1.1h.045Zm-.03-3.03a1.7,1.7,0,0,1-1.89,1.845c-.615,0-1.26-.21-1.26-.9,0-1.065,1.6-1.2,2.745-1.2h.405ZM23.2-5.76V-2.4c0,1.38.435,2.55,2.34,2.55a3.726,3.726,0,0,0,1.2-.2l-.06-1.41a1.882,1.882,0,0,1-.765.15c-.8,0-.945-.465-.945-1.11V-5.76h1.8V-7.2h-1.8V-9.285H23.2V-7.2h-1.26v1.44ZM29.46-4.32a1.922,1.922,0,0,1,1.995-1.74A1.6,1.6,0,0,1,33.15-4.32Zm5.49.81c0-2.595-1.47-3.9-3.48-3.9a3.674,3.674,0,0,0-3.81,3.855A3.618,3.618,0,0,0,31.53.21a3.582,3.582,0,0,0,3.09-1.44l-1.2-.96a2.182,2.182,0,0,1-1.9.93A2,2,0,0,1,29.46-3.03h5.475C34.95-3.2,34.95-3.345,34.95-3.51ZM36.69,0h1.8V-3.855A1.879,1.879,0,0,1,40.425-5.79a2.1,2.1,0,0,1,.555.075v-1.65a2.036,2.036,0,0,0-.435-.045A2.331,2.331,0,0,0,38.445-6h-.03V-7.2H36.69Zm5.49,0h1.8V-7.2h-1.8Zm-.255-9.645a1.109,1.109,0,0,0,1.14,1.08,1.107,1.107,0,0,0,1.17-1.08,1.107,1.107,0,0,0-1.17-1.08A1.109,1.109,0,0,0,41.925-9.645ZM50.64,0h1.68V-4.38c0-1.44-.63-3.03-3.21-3.03a4.543,4.543,0,0,0-3.045,1.14l.93,1.095A2.878,2.878,0,0,1,48.96-6c.9,0,1.65.435,1.65,1.32v.18c-2.25,0-4.95.3-4.95,2.445C45.66-.375,47.2.18,48.36.18a2.553,2.553,0,0,0,2.235-1.1h.045Zm-.03-3.03a1.7,1.7,0,0,1-1.89,1.845c-.615,0-1.26-.21-1.26-.9,0-1.065,1.6-1.2,2.745-1.2h.4ZM54.45,0h1.8V-11.34h-1.8ZM70.74-10.62H68.85v6.645a2.276,2.276,0,0,1-2.385,2.55,2.276,2.276,0,0,1-2.385-2.55V-10.62H62.19V-3.9A4.027,4.027,0,0,0,66.465.27,4.027,4.027,0,0,0,70.74-3.9ZM72.99,0h1.89V-10.62H72.99Z" transform="translate(402.112 2880.34)" fill="#080808"/>
      </g>
    </g>
    <g id="Mask_Group_56" data-name="Mask Group 56" transform="translate(773 -703)" clip-path="url(#clip-path-3)">
      <g id="Group_313" data-name="Group 313" transform="translate(357.373 2921.482)">
        <path id="Path_717" data-name="Path 717" d="M16.91,27.205q1.922-7.687,9.609-7.687c7.687,0,8.649,5.765,12.493,6.727q3.844.962,6.727-2.883-1.922,7.687-9.609,7.687c-7.687,0-8.649-5.765-12.493-6.727Q19.793,23.36,16.91,27.205ZM7.3,38.736q1.922-7.687,9.609-7.687c7.687,0,8.649,5.765,12.493,6.727q3.844.962,6.727-2.883-1.922,7.687-9.609,7.687c-7.687,0-8.649-5.765-12.493-6.727q-3.851-.959-6.734,2.886Z" transform="translate(1.333 0)" fill="#080808" fill-rule="evenodd"/>
        <path id="Path_718" data-name="Path 718" d="M50.159,27.735H47.643v-1.51h6.783v1.507h-2.51v6.836H50.159ZM57.716,33.8a3.2,3.2,0,0,1-.814.666,2.323,2.323,0,0,1-1.164.258,2.817,2.817,0,0,1-.778-.105,1.8,1.8,0,0,1-.644-.327,1.569,1.569,0,0,1-.437-.565,1.929,1.929,0,0,1-.165-.825,1.739,1.739,0,0,1,.281-1.029,1.9,1.9,0,0,1,.737-.619,3.689,3.689,0,0,1,1.023-.315,9.287,9.287,0,0,1,1.154-.113l.783-.035v-.3a.859.859,0,0,0-.31-.77,1.285,1.285,0,0,0-.73-.209q-.973,0-1.111.737l-1.5-.14a1.922,1.922,0,0,1,.841-1.39,3.391,3.391,0,0,1,1.826-.427,3.649,3.649,0,0,1,1.194.17,1.95,1.95,0,0,1,.791.484,1.881,1.881,0,0,1,.433.765,3.511,3.511,0,0,1,.135,1.017v3.856H57.716Zm-.035-1.951-.726.035a4.046,4.046,0,0,0-.831.105,1.447,1.447,0,0,0-.484.2.611.611,0,0,0-.226.286,1.121,1.121,0,0,0-.059.363.591.591,0,0,0,.209.478.891.891,0,0,0,.583.176,1.684,1.684,0,0,0,1.03-.293,1.294,1.294,0,0,0,.363-.415,1.278,1.278,0,0,0,.14-.625Zm2.913-3.377h1.639v6.1H60.595Zm-.024-2.246h1.683v1.47H60.571Zm3.062,0h1.639v8.344H63.633Zm2.374,2.244h1.777l.855,4.042,1.169-3.985h1.428l1.1,4,.855-4.042H74.9l-1.779,6.1H71.527l-1.089-4.02-1.1,4.02H67.783L66,28.481Zm9.637,0h1.639v6.1H75.644Zm-.023-2.244H77.3v1.47H75.621Zm3.052,2.244h1.591v.841a2.261,2.261,0,0,1,.858-.783,2.3,2.3,0,0,1,1.034-.245,2.01,2.01,0,0,1,1.545.544,2.46,2.46,0,0,1,.5,1.711v4.031H82.568V30.762a1.179,1.179,0,0,0-.246-.877.9.9,0,0,0-.655-.233,1.48,1.48,0,0,0-.545.094,1.456,1.456,0,0,0-.427.268,1.43,1.43,0,0,0-.275.391,1.13,1.13,0,0,0-.113.5v3.669h-1.65v-6.1Zm11.086,5.3a2.2,2.2,0,0,1-1.9.994,2.225,2.225,0,0,1-1.922-.865,3.976,3.976,0,0,1-.632-2.4,4.389,4.389,0,0,1,.183-1.3,3.04,3.04,0,0,1,.52-1.017,2.332,2.332,0,0,1,.831-.66,2.672,2.672,0,0,1,2.017-.068,2.17,2.17,0,0,1,.849.632V26.231h1.639v8.344H89.76v-.806Zm-.035-2.314a3.1,3.1,0,0,0-.113-.935,1.4,1.4,0,0,0-.321-.572,1.13,1.13,0,0,0-.462-.275,1.958,1.958,0,0,0-.5-.063,1.254,1.254,0,0,0-.51.105,1.137,1.137,0,0,0-.422.327,1.605,1.605,0,0,0-.286.583,3.73,3.73,0,0,0,0,1.783,1.88,1.88,0,0,0,.275.6,1.017,1.017,0,0,0,.409.327,1.29,1.29,0,0,0,.5.113,1.378,1.378,0,0,0,.96-.339,1.43,1.43,0,0,0,.339-.565,2.815,2.815,0,0,0,.113-.858v-.209Zm12.808.233a3.865,3.865,0,0,1-.31,1.232,3.037,3.037,0,0,1-.69.981,3.069,3.069,0,0,1-1.077.648,4.328,4.328,0,0,1-1.48.233,4.126,4.126,0,0,1-1.667-.315,3.278,3.278,0,0,1-1.205-.887,3.811,3.811,0,0,1-.731-1.386,6.178,6.178,0,0,1-.245-1.793,5.717,5.717,0,0,1,.268-1.823,3.986,3.986,0,0,1,.772-1.378,3.334,3.334,0,0,1,1.216-.877,4.1,4.1,0,0,1,1.618-.3,4.365,4.365,0,0,1,1.386.2,2.732,2.732,0,0,1,1,.572,2.877,2.877,0,0,1,.649.9,4.748,4.748,0,0,1,.362,1.18l-1.733.226a2.363,2.363,0,0,0-.5-1.158A1.47,1.47,0,0,0,99,27.515a1.733,1.733,0,0,0-1.526.754,3.73,3.73,0,0,0-.522,2.132,3.522,3.522,0,0,0,.556,2.139A1.76,1.76,0,0,0,99,33.289a1.539,1.539,0,0,0,1.188-.415,2.083,2.083,0,0,0,.473-1.186Zm2.549.165a1.514,1.514,0,0,0,.5,1.123,2.028,2.028,0,0,0,1.292.352,2.35,2.35,0,0,0,.691-.088,1.338,1.338,0,0,0,.452-.233.825.825,0,0,0,.251-.339,1.188,1.188,0,0,0,.076-.432.92.92,0,0,0-.244-.614,1.566,1.566,0,0,0-.9-.415L106.1,31a6.155,6.155,0,0,1-1.13-.3,2.624,2.624,0,0,1-.825-.484,1.935,1.935,0,0,1-.509-.73,2.738,2.738,0,0,1-.176-1.029,2.233,2.233,0,0,1,.24-1.051,2.156,2.156,0,0,1,.667-.759,3.165,3.165,0,0,1,1.023-.462,5.1,5.1,0,0,1,1.311-.157,4.763,4.763,0,0,1,1.522.209,2.723,2.723,0,0,1,.983.555,2.161,2.161,0,0,1,.555.8,3.843,3.843,0,0,1,.242.946l-1.65.209a1.628,1.628,0,0,0-.5-.994,1.735,1.735,0,0,0-1.118-.3,2.876,2.876,0,0,0-.731.077,1.47,1.47,0,0,0-.462.2.678.678,0,0,0-.246.286.866.866,0,0,0-.07.339.886.886,0,0,0,.265.7,1.967,1.967,0,0,0,.894.363l1.146.226a4,4,0,0,1,1.991.869,2.291,2.291,0,0,1,.632,1.735,2.477,2.477,0,0,1-.2,1.017,2.261,2.261,0,0,1-.609.806,2.86,2.86,0,0,1-1.011.538,4.726,4.726,0,0,1-1.428.192,4.07,4.07,0,0,1-2.615-.73,2.883,2.883,0,0,1-.99-2.2h1.767Zm7.591,0a1.514,1.514,0,0,0,.5,1.123,2.035,2.035,0,0,0,1.292.352,2.366,2.366,0,0,0,.693-.088,1.318,1.318,0,0,0,.452-.233.825.825,0,0,0,.251-.339,1.188,1.188,0,0,0,.076-.432.924.924,0,0,0-.245-.614,1.569,1.569,0,0,0-.9-.415l-1.089-.2a6.155,6.155,0,0,1-1.13-.3,2.624,2.624,0,0,1-.825-.484,1.95,1.95,0,0,1-.51-.73,2.713,2.713,0,0,1-.176-1.029,2.233,2.233,0,0,1,.24-1.051,2.29,2.29,0,0,1,.667-.77,2.951,2.951,0,0,1,1.023-.462,5.1,5.1,0,0,1,1.311-.157,4.763,4.763,0,0,1,1.522.209,2.733,2.733,0,0,1,.983.555,2.137,2.137,0,0,1,.555.8,3.9,3.9,0,0,1,.242.946l-1.65.209a1.628,1.628,0,0,0-.5-.994,1.735,1.735,0,0,0-1.118-.3,2.875,2.875,0,0,0-.731.077,1.47,1.47,0,0,0-.462.2.678.678,0,0,0-.246.286.847.847,0,0,0-.07.339.886.886,0,0,0,.265.7,1.967,1.967,0,0,0,.9.363l1.158.226a4,4,0,0,1,1.991.869,2.291,2.291,0,0,1,.632,1.735,2.464,2.464,0,0,1-.2,1.011,2.261,2.261,0,0,1-.609.806,2.859,2.859,0,0,1-1.017.539,4.7,4.7,0,0,1-1.427.192,4.076,4.076,0,0,1-2.616-.73,2.826,2.826,0,0,1-.977-2.2Z" transform="translate(3.906 0.65)" fill="#080808" fill-rule="evenodd"/>
      </g>
    </g>
    <g id="Mask_Group_58" data-name="Mask Group 58" transform="translate(623 -913)" clip-path="url(#clip-path-4)">
      <g id="Group_319" data-name="Group 319" transform="translate(-221 61)">
        <path id="Exclusion_3" data-name="Exclusion 3" d="M-6009.552,36h-23.9a6.516,6.516,0,0,1-4.634-1.913A6.489,6.489,0,0,1-6040,29.462V6.538a6.489,6.489,0,0,1,1.918-4.625A6.516,6.516,0,0,1-6033.449,0h23.9a6.516,6.516,0,0,1,4.634,1.913A6.489,6.489,0,0,1-6003,6.538V29.462a6.489,6.489,0,0,1-1.918,4.625A6.516,6.516,0,0,1-6009.552,36Zm-3.16-23.123a7.849,7.849,0,0,0-3.9.893,6.384,6.384,0,0,0-2.451,2.384,6.307,6.307,0,0,0-.848,3.245,6.686,6.686,0,0,0,.848,3.508A5.36,5.36,0,0,0-6016.737,25a7.685,7.685,0,0,0,3.2.693h.112a13.606,13.606,0,0,0,2.374-.215,11.78,11.78,0,0,0,2.513-.738.249.249,0,0,0,.153-.246l-.007-.122v-.018c-.013-.228-.027-.486-.053-.752l-.007-.158c-.012-.258-.024-.526-.024-.765V8a.142.142,0,0,0-.129-.108l-.024,0h-3.13c-.1,0-.153.055-.153.168v4.861c-.086-.007-.164-.011-.238-.014s-.166-.008-.241-.016A2.813,2.813,0,0,0-6012.712,12.877Zm-21.615-3.646a.181.181,0,0,0-.154.061c-.03.028-.019.088.03.155l4.672,7.891-4.795,7.846a.215.215,0,0,0-.03.17c0,.044.015.053.038.053l.028,0a.315.315,0,0,1,.042,0h3.391c.163,0,.293-.012.355-.17.233-.414.47-.849.7-1.27l.005-.01.084-.154.276-.5c.316-.6.636-1.2,1.049-1.969l.01-.018c.308-.573.69-1.286,1.022-1.966h.031c.363.661.726,1.315,1.111,2,.409.734.743,1.344,1.047,1.939.154.307.314.615.469.913l0,.008c.177.34.349.673.513,1,.11.158.287.17.524.17h3.531a.262.262,0,0,1,.047,0l.041,0,.037,0a.04.04,0,0,0,.044-.032.268.268,0,0,0-.03-.185l-4.934-8.076,4.625-7.616a.178.178,0,0,0,.05-.1.015.015,0,0,0,0-.012.138.138,0,0,0-.139-.111.153.153,0,0,0-.03,0h-3.253a.307.307,0,0,0-.059-.006.308.308,0,0,0-.141.036.252.252,0,0,0-.093.153c-.136.253-.273.514-.4.758l-.011.021c-.2.382-.41.776-.621,1.16l-.021.039,0,.009c-.34.62-.692,1.261-1.021,1.891-.415.791-.725,1.4-1,1.984h-.03c-.334-.684-.672-1.323-1.033-1.954-.319-.534-.61-1.057-.918-1.61l-.1-.174-.095-.17c-.291-.543-.667-1.259-.987-1.984a.414.414,0,0,0-.155-.138.935.935,0,0,0-.217-.03Zm21.213,13.491a4.025,4.025,0,0,1-1.279-.2,2.682,2.682,0,0,1-1.049-.615,2.986,2.986,0,0,1-.692-1.091,4.26,4.26,0,0,1-.262-1.584,3.4,3.4,0,0,1,.508-1.954,3.429,3.429,0,0,1,1.311-1.138,3.824,3.824,0,0,1,1.742-.4c.169,0,.341.015.507.03a3.718,3.718,0,0,1,.419.078v6.77a1.423,1.423,0,0,1-.456.08c-.033,0-.067,0-.1,0C-6012.677,22.708-6012.885,22.722-6013.114,22.722Z" transform="translate(6627 3024)" fill="#080808"/>
        <path id="Adobe" d="M45.979,12l.847-2.046h4.026L51.71,12h.88L49.246,4.212h-.77L45.11,12Zm4.576-2.772H47.123l1.716-4.136Zm4.912,2.9a2.492,2.492,0,0,0,1.089-.253,2.112,2.112,0,0,0,.858-.748h.022V12h.748V3.684h-.748V7.743h-.022a2.126,2.126,0,0,0-.858-.765,2.449,2.449,0,0,0-1.089-.259,2.761,2.761,0,0,0-1.095.209,2.494,2.494,0,0,0-.836.572A2.583,2.583,0,0,0,53,8.359a3.053,3.053,0,0,0,0,2.134,2.583,2.583,0,0,0,.539.858,2.494,2.494,0,0,0,.836.572A2.761,2.761,0,0,0,55.467,12.132Zm.077-.638a2.032,2.032,0,0,1-.825-.16,1.729,1.729,0,0,1-.611-.44,1.957,1.957,0,0,1-.379-.66,2.542,2.542,0,0,1,0-1.617,1.957,1.957,0,0,1,.379-.66,1.789,1.789,0,0,1,.611-.445,1.973,1.973,0,0,1,.825-.165,1.947,1.947,0,0,1,.792.159,1.9,1.9,0,0,1,.627.44,2.032,2.032,0,0,1,.413.66,2.335,2.335,0,0,1,0,1.639,1.969,1.969,0,0,1-.413.655,1.942,1.942,0,0,1-1.419.594Zm6.5.638a2.951,2.951,0,0,0,1.111-.2A2.539,2.539,0,0,0,64.587,10.5a2.957,2.957,0,0,0,0-2.156,2.594,2.594,0,0,0-.566-.858,2.568,2.568,0,0,0-.869-.566,2.951,2.951,0,0,0-1.111-.2,2.921,2.921,0,0,0-1.1.2,2.539,2.539,0,0,0-1.436,1.424,2.957,2.957,0,0,0,0,2.156,2.539,2.539,0,0,0,1.436,1.425A2.92,2.92,0,0,0,62.041,12.132Zm0-.638a1.965,1.965,0,0,1-.808-.16,1.8,1.8,0,0,1-.611-.44,1.979,1.979,0,0,1-.391-.66,2.446,2.446,0,0,1,0-1.617,1.979,1.979,0,0,1,.391-.66,1.861,1.861,0,0,1,.611-.445,1.908,1.908,0,0,1,.808-.165,1.945,1.945,0,0,1,.814.165,1.848,1.848,0,0,1,.616.445,1.983,1.983,0,0,1,.39.66,2.446,2.446,0,0,1,0,1.617,1.983,1.983,0,0,1-.39.66,1.784,1.784,0,0,1-.616.44A2,2,0,0,1,62.041,11.494Zm6.584.638a2.762,2.762,0,0,0,1.094-.209,2.494,2.494,0,0,0,.836-.572,2.584,2.584,0,0,0,.539-.858,3.053,3.053,0,0,0,0-2.134,2.584,2.584,0,0,0-.539-.858,2.494,2.494,0,0,0-.836-.572,2.761,2.761,0,0,0-1.094-.209,2.449,2.449,0,0,0-1.089.259,2.126,2.126,0,0,0-.858.765h-.022V3.684h-.748V12h.748v-.869h.022a2.112,2.112,0,0,0,.858.748A2.492,2.492,0,0,0,68.625,12.132Zm-.077-.638a1.942,1.942,0,0,1-1.419-.594,1.969,1.969,0,0,1-.412-.655,2.335,2.335,0,0,1,0-1.639,2.032,2.032,0,0,1,.412-.66,1.9,1.9,0,0,1,.627-.44,1.947,1.947,0,0,1,.792-.159,1.973,1.973,0,0,1,.825.165,1.789,1.789,0,0,1,.61.445,1.957,1.957,0,0,1,.38.66,2.542,2.542,0,0,1,0,1.617,1.957,1.957,0,0,1-.38.66,1.729,1.729,0,0,1-.61.44A2.032,2.032,0,0,1,68.548,11.494Zm6.122.638a2.844,2.844,0,0,0,1.194-.253,2.79,2.79,0,0,0,1.018-.836h0l-.561-.44a2.013,2.013,0,0,1-.644.622,1.967,1.967,0,0,1-1.743.121,1.909,1.909,0,0,1-.594-.4,1.836,1.836,0,0,1-.4-.594,2.011,2.011,0,0,1-.154-.726h4.268a1.681,1.681,0,0,0,.011-.187h0V9.272a3.011,3.011,0,0,0-.16-.99,2.361,2.361,0,0,0-.467-.808,2.2,2.2,0,0,0-.77-.55,2.625,2.625,0,0,0-1.067-.2,2.561,2.561,0,0,0-1.023.2,2.53,2.53,0,0,0-.825.566,2.611,2.611,0,0,0-.55.858,2.876,2.876,0,0,0-.2,1.078,2.809,2.809,0,0,0,.2,1.078,2.686,2.686,0,0,0,.555.858,2.488,2.488,0,0,0,.841.566A2.737,2.737,0,0,0,74.67,12.132Zm1.639-3.1H72.8a1.739,1.739,0,0,1,.165-.632,1.861,1.861,0,0,1,.385-.539,1.834,1.834,0,0,1,.561-.374,1.732,1.732,0,0,1,.693-.137,1.586,1.586,0,0,1,1.237.478,1.855,1.855,0,0,1,.467,1.2Z" transform="translate(587 3024)" fill="#080808"/>
        <path id="XD" d="M47.5,30l2.656-4.448L52.92,30h2.544L51.4,24l3.456-5.328h-2.32l-2.3,3.872L47.9,18.672H45.464l3.52,5.28L45.064,30Zm12.553,0a7.881,7.881,0,0,0,2.224-.328,6.086,6.086,0,0,0,2.016-1.016,5.24,5.24,0,0,0,1.456-1.76,5.462,5.462,0,0,0,.56-2.56,5.778,5.778,0,0,0-.56-2.68,4.982,4.982,0,0,0-1.456-1.744,5.758,5.758,0,0,0-2.016-.952,8.9,8.9,0,0,0-2.224-.288H56.033V30Zm-.32-1.76h-1.68V20.4h1.68a7.82,7.82,0,0,1,1.568.16,3.843,3.843,0,0,1,1.416.592,3.216,3.216,0,0,1,1.032,1.2,4.288,4.288,0,0,1,.4,1.984,4.03,4.03,0,0,1-.4,1.9,3.318,3.318,0,0,1-1.032,1.192,4.088,4.088,0,0,1-1.416.624,6.84,6.84,0,0,1-1.568.184Z" transform="translate(587 3024)" fill="#080808"/>
      </g>
    </g>
    <g id="Mask_Group_64" data-name="Mask Group 64" transform="translate(-7967 -15)" clip-path="url(#clip-path-5)">
      <g id="Group_356" data-name="Group 356" transform="translate(0 1)">
        <g id="Group_355" data-name="Group 355" transform="translate(9106 2314)">
          <g id="Group_354" data-name="Group 354" transform="translate(0)">
            <path id="形状结合" d="M10.021.61a3.432,3.432,0,0,1,4.687,1.263h0l8.5,14.773a1.923,1.923,0,0,1-.7,2.619l-.009.005a1.9,1.9,0,0,1-2.595-.694h0L12.259,5.334a.644.644,0,0,0-1.115,0h0L3.484,18.609l-.009.015a1.869,1.869,0,0,1-2.56.661,1.906,1.906,0,0,1-.684-2.593h0L8.758,1.873A3.432,3.432,0,0,1,10.021.61Z" transform="translate(0.023 -0.12)" fill="#080808" fill-rule="evenodd"/>
            <path id="形状结合-2" data-name="形状结合" d="M94.755.954l0,0,5.814,10.029a1.925,1.925,0,0,1-3.322,1.946l0-.005L91.432,2.895A1.924,1.924,0,0,1,94.755.954Z" transform="translate(-71.918 0)" fill="#080808" fill-rule="evenodd"/>
            <path id="椭圆形备份-7" d="M135.735,77.4a1.916,1.916,0,1,0-1.92-1.916A1.918,1.918,0,0,0,135.735,77.4Z" transform="translate(-105.558 -58.038)" fill="#080808" fill-rule="evenodd"/>
            <path id="形状结合-3" data-name="形状结合" d="M55.506,14.707a2.641,2.641,0,0,1,2.387,1.24h0l7,12.178a1.922,1.922,0,0,1-.7,2.619l-.008,0a1.9,1.9,0,0,1-2.6-.7h0L55.056,18.706l-1.119-1.892a.644.644,0,0,0-1.115.013h0l-.008.015Q53.909,14.707,55.506,14.707Z" transform="translate(-41.658 -11.602)" fill="#080808" fill-rule="evenodd"/>
          </g>
        </g>
        <path id="Path_788" data-name="Path 788" d="M-.144-1.155h2.31L3.215-3.809h5.03L9.327-1.155h2.359l-5-11.6H4.9ZM3.919-5.579,5.738-10.3,7.524-5.579Zm8.815,4.424H14.7V-5.48a1.924,1.924,0,0,1,1.835-2.13c1.262,0,1.475,1.163,1.475,2.1v4.358h1.966V-6.07c0-1.606-.852-3.179-2.9-3.179a2.678,2.678,0,0,0-2.441,1.491H14.6V-9.02H12.735Zm9.782-6.292v3.67c0,1.507.475,2.785,2.556,2.785A4.07,4.07,0,0,0,26.383-1.2l-.066-1.54a2.056,2.056,0,0,1-.836.164c-.868,0-1.032-.508-1.032-1.212V-7.447h1.966V-9.02H24.45V-11.3H22.516V-9.02H21.14v1.573Zm9.52,6.292h4.113c3.031,0,6.407-1.737,6.407-5.8,0-4.358-3.375-5.8-6.407-5.8H32.036Zm2.065-1.8v-8.029h1.72c2.13,0,4.522.7,4.522,4.031,0,3.13-2.392,4-4.522,4ZM45.963-5.874a2.1,2.1,0,0,1,2.179-1.9,1.747,1.747,0,0,1,1.852,1.9Zm6,.885c0-2.835-1.606-4.26-3.8-4.26A4.013,4.013,0,0,0,44-5.038,3.952,3.952,0,0,0,48.224-.925,3.913,3.913,0,0,0,51.6-2.5L50.289-3.547a2.383,2.383,0,0,1-2.081,1.016,2.189,2.189,0,0,1-2.245-1.933h5.981C51.96-4.645,51.96-4.809,51.96-4.989Zm7.488-3.064a3.805,3.805,0,0,0-2.949-1.2c-1.557,0-3.13.754-3.13,2.507,0,1.475,1.163,1.95,2.327,2.228,1.2.279,1.8.475,1.8,1.131,0,.7-.688.934-1.262.934a2.562,2.562,0,0,1-2.015-.983L52.927-2.22A4.435,4.435,0,0,0,56.155-.925c1.72,0,3.277-.7,3.277-2.622,0-1.54-1.376-2.065-2.54-2.343-1.1-.262-1.7-.426-1.7-1.032,0-.623.639-.852,1.262-.852a2.227,2.227,0,0,1,1.72.852Zm1.72,6.9h1.966V-9.02H61.169ZM60.89-11.69a1.211,1.211,0,0,0,1.245,1.18,1.21,1.21,0,0,0,1.278-1.18,1.21,1.21,0,0,0-1.278-1.18A1.211,1.211,0,0,0,60.89-11.69ZM71.655-9.02v1.18h-.033a3.059,3.059,0,0,0-2.7-1.409,3.846,3.846,0,0,0-3.85,4.129,3.881,3.881,0,0,0,3.883,4.1A3.1,3.1,0,0,0,71.524-2.2h.033v.573c0,1.557-.59,2.7-2.491,2.7A4.037,4.037,0,0,1,66.313-.041L65.183,1.483a6.591,6.591,0,0,0,3.9,1.294c3.064,0,4.44-1.8,4.44-4.637V-9.02ZM69.328-7.643a2.349,2.349,0,0,1,2.327,2.507,2.356,2.356,0,0,1-2.343,2.491,2.345,2.345,0,0,1-2.245-2.491A2.281,2.281,0,0,1,69.328-7.643Zm6.554,6.488h1.966V-5.48a1.924,1.924,0,0,1,1.835-2.13c1.262,0,1.475,1.163,1.475,2.1v4.358h1.966V-6.07c0-1.606-.852-3.179-2.9-3.179a2.678,2.678,0,0,0-2.441,1.491H77.75V-9.02H75.882Z" transform="translate(9142.876 2328.691)" fill="#080808"/>
      </g>
    </g>
    <g id="Mask_Group_65" data-name="Mask Group 65" transform="translate(-8094 -41)" clip-path="url(#clip-path-6)">
      <g id="onsenui_banner_white" transform="translate(9082.996 2277.994)">
        <path id="Path_789" data-name="Path 789" d="M23.76,15.576a6.022,6.022,0,0,1,1.5,2.406c1.2,4.222-3.252,9.081-9.793,10.943s-12.882.071-14.084-4.155a6.012,6.012,0,0,1,.006-2.836c.33-1.462-2.052,1.693-1.193,4.719,1.391,4.893,8.179,6.814,15.754,4.659s12.7-7.464,11.311-12.354c-.859-3.023-4.543-4.456-3.5-3.385" transform="translate(0 -5.711)" fill="#080808"/>
        <path id="Path_790" data-name="Path 790" d="M30.066.009c-4.1,4.321,1.888,13.574-7.051,17.927C27.83,11.526,24.079,4.264,25.2,2.057S30.066.009,30.066.009M23.5,1.695c-3.36,4.892-.187,12.562-2.278,15.485s-4.247.717-4.551-.022c4.692,2.5-2.964-11.55,6.829-15.463" transform="translate(-6.255 0)" fill="#080808"/>
        <path id="Path_791" data-name="Path 791" d="M16.72,19.579c-2.457,2.593-6.314,2.286-11.013,1.062,2.079-2.49.808-5.846,1.345-8.96.51-2.957,3.528-5.534,6.9-6.527C9.762,8.568,10.2,14.408,10.875,16.69c1.224,4.157,5.846,2.889,5.846,2.889m21.61-.931a4.962,4.962,0,0,0,.512,2.255,3.7,3.7,0,0,0,1.518,1.605,4.161,4.161,0,0,0,2.124.581,4.347,4.347,0,0,0,2.042-.512,5.76,5.76,0,0,0,1.736-1.418,6.752,6.752,0,0,0,1.209-2.235,8.282,8.282,0,0,0,.441-2.611,4.645,4.645,0,0,0-1.164-3.321,3.8,3.8,0,0,0-2.879-1.237,5.055,5.055,0,0,0-3.862,1.867,7.235,7.235,0,0,0-1.674,5.019m-1.84-.093a8.493,8.493,0,0,1,2.157-6.038A6.891,6.891,0,0,1,43.877,10.2a5.636,5.636,0,0,1,4.247,1.7,6.257,6.257,0,0,1,1.643,4.552,8.629,8.629,0,0,1-.831,3.777,8.012,8.012,0,0,1-1.561,2.25,7.213,7.213,0,0,1-2.011,1.462,6.924,6.924,0,0,1-3.029.683,5.954,5.954,0,0,1-3.048-.794,5.184,5.184,0,0,1-2.08-2.232,6.762,6.762,0,0,1-.713-3.047M51.234,24.4l2.111-10.1h1.561l-.372,1.761a8.114,8.114,0,0,1,1.9-1.515,3.764,3.764,0,0,1,1.805-.475,2.683,2.683,0,0,1,1.928.665,2.355,2.355,0,0,1,.7,1.779,10.235,10.235,0,0,1-.25,1.774L59.334,24.4H57.617l1.34-6.4a7.506,7.506,0,0,0,.2-1.38,1.049,1.049,0,0,0-.347-.818,1.45,1.45,0,0,0-1.006-.315,3.369,3.369,0,0,0-2.355.952A6.092,6.092,0,0,0,53.926,19.7l-.974,4.7Zm11.623-3.454,1.723-.1a3.124,3.124,0,0,0,.227,1.266,1.87,1.87,0,0,0,.843.856,2.964,2.964,0,0,0,1.43.333,2.7,2.7,0,0,0,1.718-.459,1.344,1.344,0,0,0,.572-1.074,1.292,1.292,0,0,0-.344-.845,5.39,5.39,0,0,0-1.718-.986,16.2,16.2,0,0,1-1.745-.824,2.825,2.825,0,0,1-.962-.919,2.282,2.282,0,0,1-.325-1.212,2.671,2.671,0,0,1,.952-2.055,3.843,3.843,0,0,1,2.664-.858,4.234,4.234,0,0,1,2.9.881,3.066,3.066,0,0,1,1.037,2.317l-1.686.114a1.923,1.923,0,0,0-.647-1.445,2.521,2.521,0,0,0-1.722-.535,2.128,2.128,0,0,0-1.388.41,1.152,1.152,0,0,0-.493.883,1.073,1.073,0,0,0,.425.839,7.15,7.15,0,0,0,1.474.759,10,10,0,0,1,2.492,1.351,2.579,2.579,0,0,1,.818,1.922,2.7,2.7,0,0,1-.462,1.474,3.151,3.151,0,0,1-1.408,1.155A5.323,5.323,0,0,1,67,24.621a5.028,5.028,0,0,1-2.975-.866,3.061,3.061,0,0,1-1.159-2.817m12.91-2.48h5.673q.009-.266.009-.381a2.82,2.82,0,0,0-.646-1.986,2.2,2.2,0,0,0-1.666-.687,3.067,3.067,0,0,0-2.013.762,4.571,4.571,0,0,0-1.357,2.292m5.007,2.5,1.674.169A5.077,5.077,0,0,1,80.79,23.5a4.568,4.568,0,0,1-3.1,1.123,4.175,4.175,0,0,1-2.06-.517A3.406,3.406,0,0,1,74.208,22.6a5.055,5.055,0,0,1-.487-2.255,7.222,7.222,0,0,1,.762-3.214,5.5,5.5,0,0,1,1.986-2.311,4.905,4.905,0,0,1,2.633-.756,3.827,3.827,0,0,1,2.888,1.121,4.243,4.243,0,0,1,1.081,3.064,9.114,9.114,0,0,1-.134,1.522H75.5a3.98,3.98,0,0,0-.039.531,3.192,3.192,0,0,0,.655,2.165,2.032,2.032,0,0,0,1.591.746,3.064,3.064,0,0,0,1.743-.581,3.761,3.761,0,0,0,1.332-1.674m3.742,3.434,2.113-10.1H88.2l-.37,1.761a8.259,8.259,0,0,1,1.9-1.516,3.783,3.783,0,0,1,1.81-.475,2.676,2.676,0,0,1,1.927.665,2.333,2.333,0,0,1,.7,1.778,9.834,9.834,0,0,1-.25,1.773l-1.283,6.116H90.908l1.343-6.4a7.411,7.411,0,0,0,.2-1.38,1.048,1.048,0,0,0-.344-.818,1.452,1.452,0,0,0-1.007-.315,3.372,3.372,0,0,0-2.351.952,6.087,6.087,0,0,0-1.518,3.265l-.981,4.7Zm18.587-14.034h2.9l-1.6,7.667-.4,1.886a2.955,2.955,0,0,0-.037.453,1.765,1.765,0,0,0,.612,1.38,2.579,2.579,0,0,0,1.778.545,3.421,3.421,0,0,0,1.732-.395,2.62,2.62,0,0,0,1.062-1.174,12.7,12.7,0,0,0,.758-2.648l1.618-7.715h2.9l-1.608,7.723a15.251,15.251,0,0,1-1.174,3.726,5.218,5.218,0,0,1-2.015,2.1,6.567,6.567,0,0,1-3.41.808,5.374,5.374,0,0,1-3.776-1.205,4.04,4.04,0,0,1-1.312-3.109,5.7,5.7,0,0,1,.069-.856c.025-.2.136-.79.337-1.751Zm13.178,14.115,2.959-14.12h2.9L119.194,24.47Z" transform="translate(-2.141 -1.933)" fill="#080808"/>
      </g>
    </g>
  </g>
</svg>
