<svg xmlns="http://www.w3.org/2000/svg" xmlns:xlink="http://www.w3.org/1999/xlink" width="270" height="180" viewBox="0 0 270 180">
  <defs>
    <clipPath id="clip-path">
      <rect id="Rectangle_88" data-name="Rectangle 88" width="120" height="60" transform="translate(518 2174)"/>
    </clipPath>
    <clipPath id="clip-path-2">
      <rect id="Rectangle_89" data-name="Rectangle 89" width="120" height="60" transform="translate(9179 2153)" fill="#fff"/>
    </clipPath>
    <clipPath id="clip-path-3">
      <rect id="Rectangle_164" data-name="Rectangle 164" width="120" height="60" transform="translate(9244 1826)" fill="#fff"/>
    </clipPath>
    <clipPath id="clip-path-4">
      <path id="Path_765" data-name="Path 765" d="M33.983,17.547l-9.767,9.771,9.767,9.771H22.822l-9.771-9.771,9.771-9.771ZM22.822.8,4.682,18.944l5.582,5.582L33.983.8Z" transform="translate(-4.682 -0.804)" fill="#080808"/>
    </clipPath>
    <clipPath id="clip-path-9">
      <rect id="Rectangle_93" data-name="Rectangle 93" width="120" height="60" transform="translate(404 2301)" fill="#fff"/>
    </clipPath>
    <clipPath id="clip-path-10">
      <rect id="Rectangle_163" data-name="Rectangle 163" width="120" height="60" transform="translate(9305 2246)" fill="#fff"/>
    </clipPath>
    <clipPath id="clip-path-11">
      <rect id="Rectangle_166" data-name="Rectangle 166" width="120" height="60" transform="translate(9377 2589)" fill="#fff"/>
    </clipPath>
  </defs>
  <g id="Group_359" data-name="Group 359" transform="translate(-173 -1775)">
    <g id="Mask_Group_5" data-name="Mask Group 5" transform="translate(-345 -399)" clip-path="url(#clip-path)">
      <g id="Group_267" data-name="Group 267" transform="translate(518.83 2187.833)">
        <g id="Group_266" data-name="Group 266">
          <circle id="Ellipse_27" data-name="Ellipse 27" cx="3.412" cy="3.412" r="3.412" transform="translate(14.876 12.735)" fill="#080808"/>
          <g id="Group_265" data-name="Group 265">
            <path id="Path_586" data-name="Path 586" d="M18.33,8.565h0a39.142,39.142,0,0,1,12.315,1.807,15.538,15.538,0,0,1,4.833,2.549,4.641,4.641,0,0,1,1.97,3.412c0,2.352-2.774,4.731-7.24,6.211A39.319,39.319,0,0,1,18.33,24.169,38.756,38.756,0,0,1,6.208,22.53a15.429,15.429,0,0,1-4.995-2.675,4.849,4.849,0,0,1-2-3.522,4.628,4.628,0,0,1,1.9-3.384A14.941,14.941,0,0,1,5.85,10.406,39.25,39.25,0,0,1,18.33,8.565Zm0,13.941a37.645,37.645,0,0,0,11.355-1.54c4.191-1.389,6.1-3.375,6.1-4.633A3.162,3.162,0,0,0,34.413,14.2,13.9,13.9,0,0,0,30.1,11.944a37.457,37.457,0,0,0-11.77-1.716h0A38.117,38.117,0,0,0,6.4,11.976C2.582,13.306.874,15.122.874,16.333c0,1.26,1.837,3.245,5.872,4.624A37.124,37.124,0,0,0,18.33,22.506Z" transform="translate(-0.043 -0.186)" fill="#080808"/>
            <path id="Path_587" data-name="Path 587" d="M26.237-.818a3.462,3.462,0,0,1,1.753.433C30.027.791,30.7,4.383,29.753,8.991a39.3,39.3,0,0,1-4.526,11.1,38.745,38.745,0,0,1-7.475,9.682c-2.482,2.17-5.045,3.414-7.032,3.414a3.619,3.619,0,0,1-1.832-.449A4.626,4.626,0,0,1,6.907,29.4a14.942,14.942,0,0,1,.163-5.374A39.264,39.264,0,0,1,11.709,12.3l.266-.462h0a38.675,38.675,0,0,1,7.448-9.3C21.909.372,24.327-.817,26.237-.818ZM10.72,31.525c1.567,0,3.786-1.123,5.938-3a37.113,37.113,0,0,0,7.129-9.261A37.625,37.625,0,0,0,28.125,8.655c.891-4.325.124-6.971-.966-7.6a1.833,1.833,0,0,0-.922-.211c-1.465,0-3.6,1.1-5.718,2.941a37.458,37.458,0,0,0-7.369,9.342l-.122.211a37.915,37.915,0,0,0-4.325,11C7.949,28.308,8.67,30.7,9.718,31.3A1.992,1.992,0,0,0,10.72,31.525Z" transform="translate(-0.181 -0.014)" fill="#080808"/>
            <path id="Path_588" data-name="Path 588" d="M26.224,33.2c-1.882,0-4.248-1.144-6.662-3.221A39.252,39.252,0,0,1,11.717,20.1,39.149,39.149,0,0,1,7.111,8.541,15.538,15.538,0,0,1,6.9,3.081,4.641,4.641,0,0,1,8.861-.334a3.553,3.553,0,0,1,1.8-.446c2,0,4.622,1.312,7.2,3.6a39.318,39.318,0,0,1,7.357,9.466A38.748,38.748,0,0,1,29.876,23.6a15.429,15.429,0,0,1,.187,5.663,4.848,4.848,0,0,1-2.045,3.5,3.533,3.533,0,0,1-1.794.437ZM10.665.883a1.925,1.925,0,0,0-.971.223,3.162,3.162,0,0,0-1.16,2.258,13.9,13.9,0,0,0,.208,4.858,37.464,37.464,0,0,0,4.413,11.049,38.12,38.12,0,0,0,7.491,9.451c2.082,1.791,4.114,2.819,5.577,2.819a1.9,1.9,0,0,0,.961-.222c1.091-.631,1.888-3.216,1.06-7.4a37.115,37.115,0,0,0-4.463-10.8A37.644,37.644,0,0,0,16.76,4.064C14.516,2.072,12.238.883,10.665.883Z" transform="translate(-0.182 -0.014)" fill="#080808"/>
          </g>
        </g>
        <path id="Path_589" data-name="Path 589" d="M64.409,38.557,60.228,32.24a4.283,4.283,0,0,0,4.018-4.515,4.517,4.517,0,0,0-4.854-4.668H53.168v15.49H55.1V32.391h3.089l3.948,6.155Zm-5.249-7.85H55.1V24.786h4.064a2.965,2.965,0,1,1,0,5.924Zm12.425,8.128a6.1,6.1,0,0,0,4.459-1.718l-.836-1.139a4.9,4.9,0,0,1-3.46,1.416,3.953,3.953,0,0,1-4.041-3.877h9.08v-.442c0-3.367-2-6.015-5.389-6.015a5.609,5.609,0,0,0-5.526,5.876,5.554,5.554,0,0,0,5.713,5.89Zm3.485-6.6H67.708a3.743,3.743,0,0,1,3.669-3.74,3.636,3.636,0,0,1,3.693,3.744Zm13.285,6.318v-7.71c0-2.717-1.973-3.786-4.343-3.786a5.868,5.868,0,0,0-4.482,1.858l.813,1.207a4.457,4.457,0,0,1,3.438-1.556c1.626,0,2.834.859,2.834,2.369v2.02a4.69,4.69,0,0,0-3.715-1.53,3.675,3.675,0,0,0-3.926,3.693A3.736,3.736,0,0,0,82.9,38.834a4.852,4.852,0,0,0,3.716-1.556v1.276Zm-4.829-.976a2.468,2.468,0,1,1,0-4.9,3.757,3.757,0,0,1,3.089,1.394v2.113a3.758,3.758,0,0,1-3.089,1.394Zm13.252,1.254a4.8,4.8,0,0,0,4.111-1.95l-1.161-1.068a3.377,3.377,0,0,1-2.847,1.463c-2.392,0-3.877-1.858-3.877-4.343s1.486-4.319,3.877-4.319a3.3,3.3,0,0,1,2.847,1.463l1.161-1.068a4.8,4.8,0,0,0-4.111-1.95,5.542,5.542,0,0,0-5.6,5.876,5.54,5.54,0,0,0,5.6,5.89Zm9.384,0a2.855,2.855,0,0,0,2.091-.72l-.51-1.3a1.665,1.665,0,0,1-1.185.464c-.766,0-1.139-.6-1.139-1.44V28.872H107.7V27.34h-2.277V24.274h-1.742V27.34h-1.858v1.533h1.858v7.339c0,1.673.836,2.625,2.485,2.625Z" transform="translate(-8.252 -13.695)" fill="#080808" fill-rule="evenodd"/>
      </g>
    </g>
    <g id="Mask_Group_60" data-name="Mask Group 60" transform="translate(-9006 -318)" clip-path="url(#clip-path-2)">
      <g id="Group_343" data-name="Group 343" transform="translate(9172.003 2151.889)">
        <g id="Group_339" data-name="Group 339" transform="translate(6.997 12.111)">
          <path id="Path_759" data-name="Path 759" d="M27.335,53.5a8.509,8.509,0,1,0,8.509,8.509A8.509,8.509,0,0,0,27.335,53.5Z" transform="translate(-8.482 -43.252)" fill="#080808"/>
          <g id="Group_338" data-name="Group 338" transform="translate(27.159 3.233)">
            <circle id="Ellipse_33" data-name="Ellipse 33" cx="3.886" cy="3.886" r="3.886" transform="translate(0 0)" fill="#080808"/>
          </g>
          <path id="Path_760" data-name="Path 760" d="M44.862,54.807l-.153-.355-.254.305a5.926,5.926,0,0,1-2.337,1.6l-.254.1.1.254a14.9,14.9,0,0,1,1.168,5.842,15.252,15.252,0,1,1-8.712-13.792l.229.1.1-.254a5.8,5.8,0,0,1,1.729-2.267l.305-.254-.355-.178A18.749,18.749,0,1,0,44.863,54.8Z" transform="translate(-9.041 -43.801)" fill="#080808"/>
        </g>
        <g id="Group_342" data-name="Group 342" transform="translate(54.121 22.323)">
          <g id="Group_340" data-name="Group 340" transform="translate(0 0.412)">
            <rect id="Rectangle_161" data-name="Rectangle 161" width="3.937" height="16.257" fill="#080808"/>
          </g>
          <g id="Group_341" data-name="Group 341" transform="translate(42.496 0.412)">
            <rect id="Rectangle_162" data-name="Rectangle 162" width="3.937" height="16.257" fill="#080808"/>
          </g>
          <path id="Path_761" data-name="Path 761" d="M85.733,53.5a8.528,8.528,0,0,0-5.385,2.134h0l-.254-1.752H76.817V70.143h3.937V60.3c0-1.93,2.616-3.506,4.546-3.506,1.881,0,3.353,1.829,3.353,4.013v9.322H92.59V61.191C92.566,56.929,90.712,53.5,85.733,53.5Z" transform="translate(-52.331 -53.465)" fill="#080808"/>
          <path id="Path_762" data-name="Path 762" d="M107.792,67.188a5.188,5.188,0,0,1,0-10.364,5.42,5.42,0,0,1,4.064,2.434l2.845-1.9a8.628,8.628,0,0,0-3.073-2.82,7.25,7.25,0,0,0-3.708-1.066,8.51,8.51,0,1,0,0,17.021,7.25,7.25,0,0,0,3.708-1.068A8.628,8.628,0,0,0,114.7,66.6l-2.845-1.9a5.285,5.285,0,0,1-4.064,2.493Z" transform="translate(-51.046 -53.467)" fill="#080808"/>
          <path id="Path_763" data-name="Path 763" d="M67.535,53.5a8.509,8.509,0,1,0,8.509,8.534A8.381,8.381,0,0,0,67.535,53.5Zm.051,3.353a5.18,5.18,0,1,1-4.852,5.156,4.885,4.885,0,0,1,4.852-5.156Z" transform="translate(-53.336 -53.465)" fill="#080808"/>
        </g>
      </g>
    </g>
    <g id="Mask_Group_61" data-name="Mask Group 61" transform="translate(-8921 -51)" clip-path="url(#clip-path-3)">
      <g id="Group_351" data-name="Group 351" transform="translate(9239.879 1829.038)">
        <g id="Group_349" data-name="Group 349" transform="translate(4.121 8.966)">
          <g id="Group_344" data-name="Group 344" clip-path="url(#clip-path-4)">
            <path id="Path_764" data-name="Path 764" d="M19.566,34.763,34.915,19.41H23.754l-9.767,9.771Z" transform="translate(-5.614 -2.667)" fill="#080808"/>
          </g>
          <g id="Group_345" data-name="Group 345" clip-path="url(#clip-path-4)">
            <path id="Path_766" data-name="Path 766" d="M4.682,18.944,22.822.8H33.983L10.264,24.526Z" transform="translate(-4.682 -0.804)" fill="#080808"/>
          </g>
          <g id="Group_346" data-name="Group 346" clip-path="url(#clip-path-4)">
            <path id="Path_768" data-name="Path 768" d="M24.375,40.035H35.536l-9.767-9.767L20.186,35.85Z" transform="translate(-6.235 -3.754)" fill="#080808"/>
          </g>
          <g id="Group_347" data-name="Group 347" clip-path="url(#clip-path-4)">
            <path id="Path_770" data-name="Path 770" d="M25.769,30.268,20.186,35.85l8.279-2.868Z" transform="translate(-6.235 -3.754)" fill="#080808"/>
          </g>
          <g id="Group_348" data-name="Group 348" clip-path="url(#clip-path-4)">
            <path id="Path_772" data-name="Path 772" d="M13.986,29.645l5.582-5.582,5.583,5.582-5.583,5.582Z" transform="translate(-5.614 -3.133)" fill="#080808"/>
          </g>
          <path id="Path_774" data-name="Path 774" d="M33.983,17.547l-9.767,9.771,9.767,9.771H22.822l-9.771-9.771,9.771-9.771ZM22.822.8,4.682,18.944l5.582,5.582L33.983.8Z" transform="translate(-4.682 -0.804)" fill="#080808"/>
        </g>
        <g id="Group_350" data-name="Group 350" transform="translate(36.965 18.692)">
          <path id="Path_775" data-name="Path 775" d="M40.62,19.774h9.754v1.908H42.6v5.772h7.019v1.884H42.6v7.3H40.62Zm12.115,0h2V36.641h-2Zm9.327,17.244a4.282,4.282,0,0,1-3.329-1.272,5.215,5.215,0,0,1-1.123-3.557V24.627h2v7.255a3.528,3.528,0,0,0,.777,2.52,2.77,2.77,0,0,0,2.1.81,3.1,3.1,0,0,0,1.8-.542,3.457,3.457,0,0,0,1.224-1.413,3.976,3.976,0,0,0,.447-1.837V24.635h2V36.648H66.05V34.9h-.094a3.961,3.961,0,0,1-1.579,1.5,4.622,4.622,0,0,1-2.309.612Z" transform="translate(-40.62 -19.774)" fill="#080808"/>
          <path id="Path_776" data-name="Path 776" d="M78.958,36.992a3.9,3.9,0,0,1-1.366-.236,3.132,3.132,0,0,1-1.037-.636,2.889,2.889,0,0,1-.706-1.037,3.872,3.872,0,0,1-.236-1.437V26.6h-2.1V24.789h2.1V21.4h2v3.392h2.921V26.6H77.616v6.549a2.317,2.317,0,0,0,.378,1.46,1.618,1.618,0,0,0,1.3.518,2.44,2.44,0,0,0,1.319-.4v1.955a3.075,3.075,0,0,1-.731.236,4.756,4.756,0,0,1-.918.072Z" transform="translate(-43.915 -19.937)" fill="#080808"/>
          <path id="Path_777" data-name="Path 777" d="M78.958,36.992a3.9,3.9,0,0,1-1.366-.236,3.132,3.132,0,0,1-1.037-.636,2.889,2.889,0,0,1-.706-1.037,3.872,3.872,0,0,1-.236-1.437V26.6h-2.1V24.789h2.1V21.4h2v3.392h2.921V26.6H77.616v6.549a2.317,2.317,0,0,0,.378,1.46,1.618,1.618,0,0,0,1.3.518,2.44,2.44,0,0,0,1.319-.4v1.955a3.075,3.075,0,0,1-.731.236,4.756,4.756,0,0,1-.918.072Z" transform="translate(-35.424 -19.937)" fill="#080808"/>
          <path id="Path_778" data-name="Path 778" d="M98.134,37.516a5.893,5.893,0,0,1-3.086-.824A5.825,5.825,0,0,1,92.9,34.43a7.033,7.033,0,0,1-.754-3.275,7.259,7.259,0,0,1,.706-3.2,5.908,5.908,0,0,1,2.05-2.332,5.421,5.421,0,0,1,3.062-.873,5.658,5.658,0,0,1,3.062.81,5.09,5.09,0,0,1,1.98,2.167,6.924,6.924,0,0,1,.706,3.18,2.3,2.3,0,0,1-.072.612H94.151a4.774,4.774,0,0,0,.66,2.309A3.86,3.86,0,0,0,96.3,35.236a4.124,4.124,0,0,0,1.908.472,3.909,3.909,0,0,0,3.557-2.167l1.7.824a6.022,6.022,0,0,1-2.12,2.309,5.8,5.8,0,0,1-3.2.848ZM101.6,29.86a3.9,3.9,0,0,0-.423-1.507,3.208,3.208,0,0,0-1.2-1.272,3.686,3.686,0,0,0-2.025-.518,3.406,3.406,0,0,0-2.4.918A4.342,4.342,0,0,0,94.28,29.86Zm4.44-4.735h1.908v1.932h.094a3.165,3.165,0,0,1,1.366-1.625,3.952,3.952,0,0,1,3.533-.424v2.167a3.733,3.733,0,0,0-1.7-.378,2.791,2.791,0,0,0-1.6.5,3.566,3.566,0,0,0-1.17,1.343,3.884,3.884,0,0,0-.423,1.8v6.713h-2V25.134Z" transform="translate(-45.781 -20.272)" fill="#080808"/>
        </g>
      </g>
    </g>
    <g id="Mask_Group_7" data-name="Mask Group 7" transform="translate(-81 -466)" clip-path="url(#clip-path-9)">
      <g id="next-js-seeklogo.com" transform="translate(404 2303)">
        <path id="Path_11" data-name="Path 11" d="M22.033,14.692h17.61v1.4h-16V26.627H38.691v1.4H23.647V39.594h16.18v1.4H22.033Zm19.19,0H43.09l8.292,11.567,8.475-11.567L71.39,0,52.449,27.475l9.762,13.519H60.265l-8.879-12.3-8.917,12.3H40.562L50.4,27.475Zm21.684,1.4v-1.4h20.07v1.4H73.73v24.9H72.117v-24.9ZM0,14.692H2.018L29.845,56.333l-11.5-15.339L1.688,16.681,1.613,40.994H0ZM82.814,39.171a.586.586,0,1,1,.577-.586.57.57,0,0,1-.577.586ZM84.4,37.631h.864a.789.789,0,0,0,.856.783c.561,0,.879-.34.879-.971V33.431h.879v4.014a1.626,1.626,0,0,1-1.751,1.8A1.582,1.582,0,0,1,84.4,37.631Zm4.63-.051H89.9c.075.539.6.88,1.358.88.707,0,1.225-.366,1.225-.869,0-.432-.33-.692-1.08-.869l-.73-.177c-1.025-.24-1.492-.735-1.492-1.569,0-1.01.824-1.682,2.061-1.682a1.849,1.849,0,0,1,2.042,1.627H92.43a1.082,1.082,0,0,0-1.2-.849c-.7,0-1.159.334-1.159.849,0,.4.3.637,1.036.81l.624.154c1.162.272,1.642.743,1.642,1.6,0,1.085-.84,1.766-2.183,1.766-1.255,0-2.1-.654-2.163-1.668Z"/>
      </g>
    </g>
    <g id="Mask_Group_62" data-name="Mask Group 62" transform="translate(-9132 -351)" clip-path="url(#clip-path-10)">
      <g id="Group_352" data-name="Group 352" transform="translate(-126.49 -230)">
        <g id="capacitor-js" transform="translate(9431.49 2494)">
          <path id="Path_779" data-name="Path 779" d="M3.656,54.115.028,57.747l5.594,5.611L0,69l3.616,3.634L9.25,66.99l5.6,5.6,3.628-3.632Z" transform="translate(0 -49.152)" fill="#080808"/>
          <path id="Path_780" data-name="Path 780" d="M104.5,154.9l-3.637,3.632,5.6,5.6,3.628-3.632Z" transform="translate(-91.609 -140.69)" fill="#080808"/>
          <path id="Path_781" data-name="Path 781" d="M104.5,154.9l-3.637,3.632,1.4,1.392Z" transform="translate(-91.609 -140.69)" fill="#080808"/>
          <path id="Path_782" data-name="Path 782" d="M67.224,9.262l5.634-5.641L69.229,0,63.6,5.63l-5.6-5.6L54.365,3.661,69.19,18.5l3.628-3.632Z" transform="translate(-49.379)" fill="#080808"/>
          <path id="Path_783" data-name="Path 783" d="M59.959,9.546,63.6,5.914l-5.6-5.6L54.365,3.945Z" transform="translate(-49.379 -0.284)" fill="#080808"/>
          <path id="Path_784" data-name="Path 784" d="M115.359,51.223,119,47.591,117.6,46.2Z" transform="translate(-104.779 -41.961)" fill="#080808"/>
        </g>
        <path id="Path_785" data-name="Path 785" d="M12.944-11.021a6.268,6.268,0,0,0-4.872-2.047c-4.133,0-7.28,2.711-7.28,7.014a6.828,6.828,0,0,0,7.166,7.09,6.342,6.342,0,0,0,5.194-2.351L11.238-2.66A3.941,3.941,0,0,1,7.977-1.106c-2.768,0-4.55-2.028-4.55-4.948a4.625,4.625,0,0,1,4.645-4.91A3.8,3.8,0,0,1,11.124-9.58ZM19.826.7h2.123V-4.84c0-1.82-.8-3.829-4.057-3.829a5.741,5.741,0,0,0-3.848,1.441l1.175,1.384A3.637,3.637,0,0,1,17.7-6.888c1.137,0,2.085.55,2.085,1.668v.227c-2.844,0-6.256.379-6.256,3.09,0,2.123,1.953,2.825,3.412,2.825A3.227,3.227,0,0,0,19.769-.461h.057Zm-.038-3.829A2.151,2.151,0,0,1,17.4-.8c-.777,0-1.592-.265-1.592-1.137,0-1.346,2.028-1.517,3.469-1.517h.512ZM24.6-8.4V5.245h2.275V-.518h.038A3.565,3.565,0,0,0,29.93.961c2.768,0,4.474-2.2,4.474-4.853A4.477,4.477,0,0,0,29.987-8.67,3.6,3.6,0,0,0,26.84-7.134h-.057V-8.4Zm7.488,4.512A2.72,2.72,0,0,1,29.475-.935,2.8,2.8,0,0,1,26.8-3.855a2.828,2.828,0,0,1,2.673-2.957A2.688,2.688,0,0,1,32.091-3.892ZM42.253.7h2.123V-4.84c0-1.82-.8-3.829-4.057-3.829A5.741,5.741,0,0,0,36.47-7.229l1.175,1.384a3.637,3.637,0,0,1,2.483-1.043c1.137,0,2.085.55,2.085,1.668v.227c-2.844,0-6.256.379-6.256,3.09,0,2.123,1.953,2.825,3.412,2.825A3.227,3.227,0,0,0,42.2-.461h.057Zm-.038-3.829A2.151,2.151,0,0,1,39.826-.8c-.777,0-1.592-.265-1.592-1.137,0-1.346,2.028-1.517,3.469-1.517h.512ZM54.8-7.248A4.547,4.547,0,0,0,51.371-8.67,4.673,4.673,0,0,0,46.5-3.855,4.665,4.665,0,0,0,51.428.961a4.591,4.591,0,0,0,3.356-1.27L53.362-1.75a2.548,2.548,0,0,1-1.915.815,2.682,2.682,0,0,1-2.578-2.919,2.659,2.659,0,0,1,2.5-2.919,2.415,2.415,0,0,1,1.877.891ZM56.319.7h2.275V-8.4H56.319ZM56-11.495a1.4,1.4,0,0,0,1.441,1.365,1.4,1.4,0,0,0,1.479-1.365,1.4,1.4,0,0,0-1.479-1.365A1.4,1.4,0,0,0,56-11.495Zm5.649,4.91v4.247c0,1.744.55,3.223,2.957,3.223A4.709,4.709,0,0,0,66.12.638l-.076-1.782a2.379,2.379,0,0,1-.967.19c-1,0-1.194-.588-1.194-1.4V-6.584h2.275V-8.4H63.883V-11.04H61.646V-8.4H60.054v1.82Zm5.63,2.692A4.779,4.779,0,0,0,72.225.961a4.779,4.779,0,0,0,4.948-4.853A4.717,4.717,0,0,0,72.225-8.67,4.717,4.717,0,0,0,67.277-3.892Zm2.313,0a2.68,2.68,0,0,1,2.635-2.919A2.68,2.68,0,0,1,74.86-3.892,2.712,2.712,0,0,1,72.225-.935,2.712,2.712,0,0,1,69.59-3.892ZM79.372.7h2.275V-4.177a2.374,2.374,0,0,1,2.446-2.446,2.653,2.653,0,0,1,.7.095V-8.613a2.574,2.574,0,0,0-.55-.057A2.946,2.946,0,0,0,81.59-6.888h-.038V-8.4h-2.18Z" transform="translate(9459.453 2509.175)" fill="#080808"/>
      </g>
    </g>
    <g id="Mask_Group_63" data-name="Mask Group 63" transform="translate(-9054 -694)" clip-path="url(#clip-path-11)">
      <g id="Group_353" data-name="Group 353" transform="translate(-7 3)">
        <g id="nativescript-seeklogo.com" transform="translate(9384 2603)">
          <path id="Path_786" data-name="Path 786" d="M24.68,1.951a6.636,6.636,0,0,1,1.95,4.707V19.973a6.659,6.659,0,0,1-6.658,6.658H6.658A6.66,6.66,0,0,1,0,19.973V6.658A6.66,6.66,0,0,1,6.658,0H19.973A6.639,6.639,0,0,1,24.68,1.951ZM22.844,12.666A2.21,2.21,0,0,1,22.19,11.1V6.658a2.21,2.21,0,0,0-2.217-2.217H17.756V15.533L8.875,4.441H6.658A2.209,2.209,0,0,0,4.441,6.658V11.1a2.225,2.225,0,0,1-2.223,2.217,2.225,2.225,0,0,1,2.223,2.217v4.441A2.21,2.21,0,0,0,6.658,22.19H8.875V11.1L17.756,22.19h2.217a2.21,2.21,0,0,0,2.217-2.217V15.533a2.225,2.225,0,0,1,2.223-2.217,2.228,2.228,0,0,1-1.57-.65Z" fill="#080808"/>
        </g>
        <path id="Path_787" data-name="Path 787" d="M1.4-1.6H3.4v-8.644h.032L8.736-1.6h2.528V-12.784H9.273v8.375H9.242l-5.2-8.375H1.4Zm16.94,0h1.77V-6.21c0-1.517-.664-3.192-3.382-3.192a4.785,4.785,0,0,0-3.208,1.2l.98,1.154a3.032,3.032,0,0,1,2.07-.869c.948,0,1.738.458,1.738,1.391v.19c-2.37,0-5.215.316-5.215,2.576,0,1.77,1.628,2.355,2.844,2.355A2.69,2.69,0,0,0,18.3-2.56h.047Zm-.032-3.192a1.793,1.793,0,0,1-1.991,1.944c-.648,0-1.327-.221-1.327-.948,0-1.122,1.691-1.264,2.892-1.264h.427Zm4.093-2.876v3.54c0,1.454.458,2.686,2.465,2.686a3.925,3.925,0,0,0,1.264-.205l-.063-1.485a1.983,1.983,0,0,1-.806.158c-.838,0-1-.49-1-1.169V-7.664h1.9V-9.181h-1.9v-2.2H22.405v2.2H21.078v1.517ZM27.572-1.6h1.9V-9.181h-1.9ZM27.3-11.756a1.168,1.168,0,0,0,1.2,1.138,1.167,1.167,0,0,0,1.233-1.138A1.167,1.167,0,0,0,28.5-12.894,1.168,1.168,0,0,0,27.3-11.756ZM33.7-1.6h2.023l3.018-7.585H36.738L34.731-3.65H34.7L32.708-9.181h-2.07Zm7.632-4.551a2.025,2.025,0,0,1,2.1-1.833,1.685,1.685,0,0,1,1.786,1.833Zm5.784.853c0-2.734-1.549-4.109-3.666-4.109A3.87,3.87,0,0,0,39.44-5.341a3.811,3.811,0,0,0,4.077,3.966,3.773,3.773,0,0,0,3.255-1.517L45.508-3.9a2.3,2.3,0,0,1-2.007.98,2.111,2.111,0,0,1-2.165-1.865H47.1C47.12-4.962,47.12-5.12,47.12-5.293Zm8.928-6.574a4.885,4.885,0,0,0-3.255-1.2c-2.023,0-4.093,1.011-4.093,3.287,0,2.086,1.47,2.75,2.829,3.176,1.406.442,2.576.774,2.576,1.944C54.1-3.46,53.014-3,52.081-3a3.186,3.186,0,0,1-2.449-1.233L48.21-2.907a5.1,5.1,0,0,0,3.84,1.6c2.2,0,4.077-1.169,4.077-3.571,0-2.2-1.833-2.829-3.271-3.271-1.264-.4-2.133-.7-2.133-1.722,0-1.09,1.059-1.533,1.975-1.533a2.741,2.741,0,0,1,2.054.964ZM64.5-8.217A3.79,3.79,0,0,0,61.642-9.4a3.9,3.9,0,0,0-4.061,4.014,3.889,3.889,0,0,0,4.109,4.014,3.827,3.827,0,0,0,2.8-1.059L63.3-3.634a2.124,2.124,0,0,1-1.6.679,2.236,2.236,0,0,1-2.149-2.434,2.217,2.217,0,0,1,2.086-2.434,2.013,2.013,0,0,1,1.564.743ZM65.734-1.6h1.9V-5.657A1.979,1.979,0,0,1,69.669-7.7a2.212,2.212,0,0,1,.585.079V-9.355A2.145,2.145,0,0,0,69.8-9.4a2.456,2.456,0,0,0-2.212,1.485h-.032V-9.181H65.734Zm5.784,0h1.9V-9.181h-1.9Zm-.269-10.161a1.168,1.168,0,0,0,1.2,1.138,1.167,1.167,0,0,0,1.233-1.138,1.167,1.167,0,0,0-1.233-1.138A1.168,1.168,0,0,0,71.249-11.756Zm4.472,2.576V2.2h1.9v-4.8h.032a2.972,2.972,0,0,0,2.513,1.233A3.757,3.757,0,0,0,83.891-5.42,3.732,3.732,0,0,0,80.209-9.4a3,3,0,0,0-2.623,1.28h-.047V-9.181ZM81.963-5.42a2.268,2.268,0,0,1-2.181,2.465,2.329,2.329,0,0,1-2.228-2.434,2.357,2.357,0,0,1,2.228-2.465A2.241,2.241,0,0,1,81.963-5.42Zm4-2.244v3.54c0,1.454.458,2.686,2.465,2.686a3.925,3.925,0,0,0,1.264-.205l-.063-1.485a1.983,1.983,0,0,1-.806.158c-.838,0-1-.49-1-1.169V-7.664h1.9V-9.181h-1.9v-2.2H85.961v2.2H84.634v1.517Z" transform="translate(9414.278 2621.776)" fill="#080808"/>
      </g>
    </g>
  </g>
</svg>
