<svg xmlns="http://www.w3.org/2000/svg" xmlns:xlink="http://www.w3.org/1999/xlink" width="270" height="180" viewBox="0 0 270 180">
  <defs>
    <clipPath id="clip-path">
      <rect id="Rectangle_121" data-name="Rectangle 121" width="120" height="60" transform="translate(351 2722)" fill="#fff"/>
    </clipPath>
    <clipPath id="clip-path-2">
      <rect id="Rectangle_130" data-name="Rectangle 130" width="120" height="60" transform="translate(351 2836)" fill="#fff"/>
    </clipPath>
    <clipPath id="clip-path-3">
      <rect id="Rectangle_131" data-name="Rectangle 131" width="120" height="60" transform="translate(351 2924)" fill="#fff"/>
    </clipPath>
    <clipPath id="clip-path-4">
      <rect id="Rectangle_134" data-name="Rectangle 134" width="120" height="60" transform="translate(461 3045)" fill="#fff"/>
    </clipPath>
    <clipPath id="clip-path-5">
      <rect id="Rectangle_135" data-name="Rectangle 135" width="120" height="60" transform="translate(641 3045)" fill="#fff"/>
    </clipPath>
    <clipPath id="clip-path-6">
      <rect id="Rectangle_136" data-name="Rectangle 136" width="120" height="60" transform="translate(787 3045)" fill="#fff"/>
    </clipPath>
  </defs>
  <g id="Group_363" data-name="Group 363" transform="translate(-581 -2160)">
    <g id="Mask_Group_42" data-name="Mask Group 42" transform="translate(230 -562)" clip-path="url(#clip-path)">
      <g id="google-cloud-3" transform="translate(351 2742)">
        <path id="Path" d="M15.082,5.035h.692L17.746,3.06l.1-.838A8.861,8.861,0,0,0,3.421,6.552a1.071,1.071,0,0,1,.692-.042l3.944-.651s.2-.333.3-.312A4.916,4.916,0,0,1,15.1,5.035Z" transform="translate(-0.684 0)" fill="#080808"/>
        <path id="Path-2" data-name="Path" d="M22.575,7.109A8.9,8.9,0,0,0,19.9,2.786L17.128,5.557a4.929,4.929,0,0,1,1.806,3.908v.492a2.467,2.467,0,0,1,0,4.933H14.007l-.491.5v2.959l.491.492h4.927a6.418,6.418,0,0,0,3.64-11.731Z" transform="translate(-2.703 -0.557)" fill="#080808"/>
        <path id="Path-3" data-name="Path" d="M7,21.776h4.927v-3.95H7A2.446,2.446,0,0,1,5.978,17.6l-.692.215L3.3,19.795l-.173.693A6.368,6.368,0,0,0,7,21.776Z" transform="translate(-0.625 -3.521)" fill="#080808"/>
        <path id="Path-4" data-name="Path" d="M6.37,6.8A6.418,6.418,0,0,0,2.5,18.306L5.36,15.445a2.466,2.466,0,1,1,3.259-3.264L11.477,9.32A6.4,6.4,0,0,0,6.37,6.8Z" transform="translate(0 -1.361)" fill="#080808"/>
        <g id="Group" transform="translate(26.924 2.671)">
          <path id="Shape" d="M6.485,12.826a6.3,6.3,0,0,1-4.567-1.878A6.1,6.1,0,0,1,0,6.431,6.108,6.108,0,0,1,1.917,1.913,6.3,6.3,0,0,1,6.485,0a6.113,6.113,0,0,1,4.38,1.767L9.633,3.022A4.433,4.433,0,0,0,6.485,1.774,4.385,4.385,0,0,0,3.232,3.16,4.528,4.528,0,0,0,1.9,6.451,4.528,4.528,0,0,0,3.232,9.7a4.639,4.639,0,0,0,6.477.076,3.688,3.688,0,0,0,.948-2.155H6.505V5.849h5.875A5.627,5.627,0,0,1,12.45,6.93a5.547,5.547,0,0,1-1.515,4.088,5.885,5.885,0,0,1-4.45,1.808Zm13.66-1.178a4.231,4.231,0,0,1-5.861,0,3.952,3.952,0,0,1-1.2-2.945,3.959,3.959,0,0,1,1.2-2.945,4.238,4.238,0,0,1,5.861,0,3.959,3.959,0,0,1,1.2,2.945,3.952,3.952,0,0,1-1.2,2.945Zm-4.567-1.157a2.24,2.24,0,0,0,3.273,0A2.468,2.468,0,0,0,19.543,8.7a2.475,2.475,0,0,0-.692-1.795,2.275,2.275,0,0,0-3.287,0A2.475,2.475,0,0,0,14.872,8.7a2.468,2.468,0,0,0,.7,1.788Zm13.577,1.157a4.231,4.231,0,0,1-5.861,0A3.952,3.952,0,0,1,22.1,8.7a3.959,3.959,0,0,1,1.2-2.945,4.231,4.231,0,0,1,5.861,0,3.959,3.959,0,0,1,1.2,2.945,3.952,3.952,0,0,1-1.2,2.945Zm-4.567-1.157a2.24,2.24,0,0,0,3.273,0A2.469,2.469,0,0,0,28.553,8.7a2.476,2.476,0,0,0-.692-1.795,2.275,2.275,0,0,0-3.287,0A2.476,2.476,0,0,0,23.882,8.7a2.468,2.468,0,0,0,.7,1.788Zm10.491,6.035a3.623,3.623,0,0,1-2.3-.734,4.246,4.246,0,0,1-1.343-1.7l1.578-.658a2.661,2.661,0,0,0,.782,1.032,1.971,1.971,0,0,0,1.294.436,2.074,2.074,0,0,0,1.612-.624,2.531,2.531,0,0,0,.574-1.8v-.6H37.21a2.635,2.635,0,0,1-2.166.935,3.755,3.755,0,0,1-2.768-1.206,3.987,3.987,0,0,1-1.183-2.9,4.029,4.029,0,0,1,1.183-2.924,3.748,3.748,0,0,1,2.768-1.213,2.973,2.973,0,0,1,1.273.284,2.561,2.561,0,0,1,.9.658h.062V4.851H39V12.23a4.306,4.306,0,0,1-1.1,3.222,3.872,3.872,0,0,1-2.816,1.074ZM35.2,11.2a2.012,2.012,0,0,0,1.564-.693,2.566,2.566,0,0,0,.63-1.774,2.621,2.621,0,0,0-.63-1.808A2.006,2.006,0,0,0,35.2,6.237a2.137,2.137,0,0,0-1.619.693,2.531,2.531,0,0,0-.692,1.795,2.483,2.483,0,0,0,.692,1.774A2.144,2.144,0,0,0,35.2,11.2ZM42.047.465V12.577H40.241V.465ZM47,12.826a3.928,3.928,0,0,1-2.913-1.185A4.015,4.015,0,0,1,42.919,8.7a4.063,4.063,0,0,1,1.128-2.966,3.707,3.707,0,0,1,2.768-1.157,3.491,3.491,0,0,1,1.384.27,3.26,3.26,0,0,1,1.059.693,4.852,4.852,0,0,1,.692.838,4.954,4.954,0,0,1,.408.811l.187.471-5.536,2.28A2.076,2.076,0,0,0,47,11.191a2.359,2.359,0,0,0,2.028-1.143l1.384.935a4.562,4.562,0,0,1-1.329,1.261A3.76,3.76,0,0,1,47,12.826ZM44.691,8.579l3.681-1.531a1.274,1.274,0,0,0-.574-.631,1.873,1.873,0,0,0-.948-.243,2.137,2.137,0,0,0-1.488.658,2.2,2.2,0,0,0-.671,1.746Zm15.314,4.247a5.706,5.706,0,0,1-5.8-5.841,5.706,5.706,0,0,1,5.8-5.841,5.16,5.16,0,0,1,4.1,1.829l-1,.97a3.763,3.763,0,0,0-3.1-1.42,4.225,4.225,0,0,0-3.079,1.233A4.327,4.327,0,0,0,55.68,6.985a4.327,4.327,0,0,0,1.253,3.229,4.225,4.225,0,0,0,3.079,1.233,4.4,4.4,0,0,0,3.46-1.621l1,1a5.441,5.441,0,0,1-1.917,1.462,5.862,5.862,0,0,1-2.547.54Zm7.142-.249H65.714V1.386h1.432Zm2.339-6.735a4,4,0,0,1,5.647,0,4.057,4.057,0,0,1,1.107,2.91,4.056,4.056,0,0,1-1.107,2.91,4,4,0,0,1-5.647,0,4.056,4.056,0,0,1-1.107-2.91,4.056,4.056,0,0,1,1.107-2.91Zm1.066,4.92a2.413,2.413,0,0,0,3.509,0,2.774,2.774,0,0,0,.74-2.009,2.774,2.774,0,0,0-.74-2.009,2.413,2.413,0,0,0-3.509,0,2.774,2.774,0,0,0-.74,2.009,2.773,2.773,0,0,0,.747,2Zm13.626,1.815H82.793v-1.06h-.042a2.662,2.662,0,0,1-1.01.956,2.817,2.817,0,0,1-1.418.381,2.69,2.69,0,0,1-2.173-.873,3.468,3.468,0,0,1-.74-2.342V4.927h1.432V9.375q0,2.141,1.889,2.141a1.757,1.757,0,0,0,1.454-.693,2.619,2.619,0,0,0,.561-1.656V4.927h1.432Zm4.865.249a3.361,3.361,0,0,1-2.56-1.171,4.161,4.161,0,0,1-1.073-2.9,4.161,4.161,0,0,1,1.073-2.9,3.361,3.361,0,0,1,2.56-1.171,3.241,3.241,0,0,1,1.564.374,2.657,2.657,0,0,1,1.038.935h.062l-.062-1.06V1.386h1.432v11.19H91.692v-1.06H91.63a2.65,2.65,0,0,1-1.038.935,3.242,3.242,0,0,1-1.55.374Zm.235-1.31A2.281,2.281,0,0,0,91,10.768a2.806,2.806,0,0,0,.692-2.016A2.806,2.806,0,0,0,91,6.736a2.337,2.337,0,0,0-3.46,0,2.776,2.776,0,0,0-.692,2.009,2.776,2.776,0,0,0,.692,2.009,2.283,2.283,0,0,0,1.737.762Z" transform="translate(0 0)" fill="#080808"/>
        </g>
      </g>
    </g>
    <g id="Mask_Group_43" data-name="Mask Group 43" transform="translate(230 -616)" clip-path="url(#clip-path-2)">
      <g id="amazon_aws-ar21" transform="translate(351 2849)">
        <path id="Shape-2" data-name="Shape" d="M6.09,30.865v-7.6L11.2,25.036v7.69Zm11.166,0v-7.6l-5.115,1.766v7.69ZM11.79,21.224l4.8,1.568-4.8,1.651L6.622,22.7ZM0,20.254V12.648l5.114,1.765V22.1Zm11.168,0V12.648L6.053,14.413V22.1ZM5.7,10.61l4.8,1.569L5.7,13.83.534,12.087Zm6.232,9.643V12.648l5.114,1.765V22.1Zm11.166,0V12.648l-5.114,1.765V22.1ZM17.644,10.61l4.8,1.569-4.8,1.651-5.169-1.743Zm.388-.97v-7.6L23.146,3.81V11.5Zm11.159,0v-7.6L24.077,3.81V11.5ZM23.725,0l4.8,1.568-4.8,1.651L18.556,1.476Zm6.232,9.64v-7.6L35.072,3.81V11.5Zm11.158,0v-7.6L36,3.81V11.5ZM35.658,0l4.8,1.568-4.8,1.651L30.489,1.476Z" fill="#080808" fill-rule="evenodd"/>
        <path id="Shape-3" data-name="Shape" d="M32.47,27.776l-1.718,6.048h-.746l-1.356-4.493-1.227,4.493h-.761l-1.785-6.048h.932l1.3,4.508,1.237-4.508h.681L30.374,32.3l1.337-4.522h.759Zm4.752,4.243.864.172a2.463,2.463,0,0,1-.92,1.284,2.626,2.626,0,0,1-1.61.508,2.487,2.487,0,0,1-1.976-.872,3.374,3.374,0,0,1-.763-2.287,3.369,3.369,0,0,1,.785-2.336,2.51,2.51,0,0,1,1.97-.89,2.364,2.364,0,0,1,1.879.82,3.717,3.717,0,0,1,.729,2.452H33.848a2.366,2.366,0,0,0,.566,1.851,1.828,1.828,0,0,0,1.2.479,1.637,1.637,0,0,0,1.6-1.191Zm-.051-1.841a2.667,2.667,0,0,0-.165-.9,1.538,1.538,0,0,0-.519-.673,1.409,1.409,0,0,0-.879-.278,1.557,1.557,0,0,0-1.17.5,2.074,2.074,0,0,0-.54,1.352h3.273Zm2.686,3.646h-.446V25.667h.93v3.125A1.95,1.95,0,0,1,42.1,27.616a2.162,2.162,0,0,1,1.718.822,3.609,3.609,0,0,1,.692,2.385,3.692,3.692,0,0,1-.681,2.262A2.111,2.111,0,0,1,42.053,34a2.026,2.026,0,0,1-1.864-1.168l-.339,1Zm.483-2.37a1.85,1.85,0,0,0,.563,1.351,1.626,1.626,0,0,0,1.054.429,1.333,1.333,0,0,0,1.142-.623,2.944,2.944,0,0,0,.434-1.707,3.454,3.454,0,0,0-.419-1.837,1.3,1.3,0,0,0-1.162-.668,1.451,1.451,0,0,0-1.054.476,1.972,1.972,0,0,0-.557,1.23v1.35Zm6.535.8.886-.186q.295,1.14,1.868,1.139a1.756,1.756,0,0,0,.981-.263.836.836,0,0,0,.4-.741q0-.708-1.023-.9l-1.257-.242a2.286,2.286,0,0,1-1.175-.563,1.47,1.47,0,0,1-.436-1.116,1.6,1.6,0,0,1,.6-1.272,2.379,2.379,0,0,1,1.606-.512,2.19,2.19,0,0,1,2.4,1.539l-.851.185a1.454,1.454,0,0,0-1.5-.942,1.743,1.743,0,0,0-.93.235.74.74,0,0,0-.363.658q0,.667.927.84l1.161.216q1.825.335,1.824,1.793a1.6,1.6,0,0,1-.68,1.346,2.927,2.927,0,0,1-1.808.513,2.4,2.4,0,0,1-2.623-1.734Zm10.054-.237.864.172a2.459,2.459,0,0,1-.92,1.284,2.625,2.625,0,0,1-1.61.508,2.487,2.487,0,0,1-1.976-.872,3.839,3.839,0,0,1,.022-4.622,2.511,2.511,0,0,1,1.97-.89,2.364,2.364,0,0,1,1.879.82,3.722,3.722,0,0,1,.729,2.452H53.556a2.37,2.37,0,0,0,.565,1.851,1.827,1.827,0,0,0,1.2.479,1.637,1.637,0,0,0,1.6-1.191Zm-.051-1.841a2.689,2.689,0,0,0-.165-.9A1.529,1.529,0,0,0,56.2,28.6a1.409,1.409,0,0,0-.879-.278,1.557,1.557,0,0,0-1.171.5,2.068,2.068,0,0,0-.539,1.352Zm2.946,3.646H58.9V27.776h.813v1.41a3.01,3.01,0,0,1,.864-1.284,1.589,1.589,0,0,1,.888-.294q.183,0,.366.022v.9h-.188a1.624,1.624,0,0,0-1.273.577,2.356,2.356,0,0,0-.542,1.516v3.2ZM67.6,27.776l-2.061,6.048H64.58L62.45,27.776h1.029l1.656,4.916,1.644-4.916Zm1.737-2.119V26.7h-.993V25.656h.993Zm-.022,2.118v6.048H68.4V27.775h.92Zm4.858,3.931.836.149a2.727,2.727,0,0,1-.785,1.57,2.141,2.141,0,0,1-1.525.567,2.169,2.169,0,0,1-1.881-.923,3.775,3.775,0,0,1-.646-2.254,3.726,3.726,0,0,1,.682-2.293,2.2,2.2,0,0,1,1.864-.914,2.075,2.075,0,0,1,1.562.6,2.677,2.677,0,0,1,.729,1.527l-.836.161q-.236-1.5-1.428-1.5a1.31,1.31,0,0,0-1.179.661,3.19,3.19,0,0,0-.413,1.714,3.339,3.339,0,0,0,.41,1.8,1.292,1.292,0,0,0,1.153.643q1.15,0,1.457-1.505Zm6.08.313.864.172a2.463,2.463,0,0,1-.92,1.284,2.626,2.626,0,0,1-1.61.508,2.487,2.487,0,0,1-1.977-.872,3.379,3.379,0,0,1-.763-2.287,3.369,3.369,0,0,1,.785-2.336,2.51,2.51,0,0,1,1.97-.89,2.362,2.362,0,0,1,1.879.82,3.727,3.727,0,0,1,.729,2.452H76.884a2.366,2.366,0,0,0,.566,1.851,1.828,1.828,0,0,0,1.2.479,1.637,1.637,0,0,0,1.6-1.191Zm-.051-1.841a2.669,2.669,0,0,0-.165-.9,1.536,1.536,0,0,0-.519-.673,1.409,1.409,0,0,0-.879-.278,1.549,1.549,0,0,0-1.169.5,2.082,2.082,0,0,0-.54,1.352h3.271Zm1.542,2.078.886-.186q.295,1.14,1.868,1.139a1.759,1.759,0,0,0,.981-.263.836.836,0,0,0,.4-.741q0-.708-1.023-.9l-1.257-.242a2.286,2.286,0,0,1-1.175-.563,1.47,1.47,0,0,1-.436-1.116,1.6,1.6,0,0,1,.6-1.272A2.379,2.379,0,0,1,84.2,27.6a2.19,2.19,0,0,1,2.4,1.539l-.851.185a1.454,1.454,0,0,0-1.5-.942,1.769,1.769,0,0,0-.93.235.74.74,0,0,0-.363.658q0,.667.927.84l1.161.216q1.825.335,1.824,1.793a1.6,1.6,0,0,1-.68,1.346,2.927,2.927,0,0,1-1.808.513,2.4,2.4,0,0,1-2.622-1.734Z" fill="#080808" stroke="#080808" stroke-width="0.5"/>
        <path id="Shape-4" data-name="Shape" d="M60.79,14.849V13.4a.363.363,0,0,1,.1-.264.354.354,0,0,1,.26-.106h6.425a.361.361,0,0,1,.371.367v1.245a2.058,2.058,0,0,1-.483.915L64.14,20.369a7.039,7.039,0,0,1,3.665.8.663.663,0,0,1,.341.567v1.55c0,.215-.23.461-.473.332a7.312,7.312,0,0,0-6.789.012c-.224.12-.458-.123-.458-.337V21.818a1.772,1.772,0,0,1,.239-1l3.855-5.607H61.162a.354.354,0,0,1-.264-.1.363.363,0,0,1-.108-.264ZM37.8,23.924H35.841a.37.37,0,0,1-.349-.343V13.414a.371.371,0,0,1,.377-.366h1.82a.372.372,0,0,1,.356.342v1.328h.036a2.674,2.674,0,0,1,5.109,0,2.869,2.869,0,0,1,4.963-.77c.62.855.493,2.1.493,3.188l0,6.416a.371.371,0,0,1-.377.366H46.317a.37.37,0,0,1-.351-.365V18.169a13.154,13.154,0,0,0-.055-1.9,1.026,1.026,0,0,0-1.149-.878,1.3,1.3,0,0,0-1.169.835,6.2,6.2,0,0,0-.182,1.948v5.389a.371.371,0,0,1-.377.366H41.081a.369.369,0,0,1-.351-.365l0-5.39c0-1.133.182-2.8-1.2-2.8-1.4,0-1.351,1.625-1.351,2.8v5.389a.371.371,0,0,1-.377.366ZM72.672,12.841c2.878,0,4.435,2.524,4.435,5.734,0,3.1-1.72,5.562-4.435,5.562-2.824,0-4.364-2.524-4.364-5.67C68.308,15.3,69.865,12.841,72.672,12.841Zm.019,2.337c-1.43,0-1.521,1.99-1.521,3.23s-.017,3.632,1.5,3.632c1.5,0,1.576-1.878,1.576-3.183a9.639,9.639,0,0,0-.288-2.7,1.219,1.219,0,0,0-1.268-.984Zm8.582,8.745H79.325a.37.37,0,0,1-.351-.365l0-10.171a.365.365,0,0,1,.375-.332h1.813a.374.374,0,0,1,.347.285v1.545h.037a2.663,2.663,0,0,1,2.664-2.054,2.554,2.554,0,0,1,2.281,1.2A6.545,6.545,0,0,1,87,17.2v6.4a.38.38,0,0,1-.374.32h-1.96a.354.354,0,0,1-.339-.32V18.073c0-1.112.127-2.748-1.223-2.748a1.28,1.28,0,0,0-1.131.813,4.576,4.576,0,0,0-.311,1.926v5.475a.376.376,0,0,1-.381.366Z" fill="#080808"/>
        <path id="Combined-Shape" d="M54.832,12.742a4.377,4.377,0,0,1,2.944.987c.952.9.859,2.1.859,3.409v3.086a2.733,2.733,0,0,0,.737,1.836.377.377,0,0,1-.007.526l-1.5,1.316,0,0a.4.4,0,0,1-.462.046,4.8,4.8,0,0,1-1.12-1.321,3.827,3.827,0,0,1-3.222,1.44,2.8,2.8,0,0,1-2.926-3.088,3.364,3.364,0,0,1,2.084-3.237,13.343,13.343,0,0,1,3.676-.687v-.258a2.572,2.572,0,0,0-.237-1.437,1.3,1.3,0,0,0-1.1-.515,1.492,1.492,0,0,0-1.572,1.19.416.416,0,0,1-.339.364l-1.895-.208a.341.341,0,0,1-.292-.414C50.9,13.446,52.971,12.742,54.832,12.742Zm1.057,5.9c-1.412,0-2.906.307-2.906,1.994,0,.858.439,1.437,1.189,1.437a1.587,1.587,0,0,0,1.353-.9,3.923,3.923,0,0,0,.366-2.1h0l0,0Z" fill="#080808"/>
        <path id="Combined-Shape-2" data-name="Combined-Shape" d="M29.428,12.742a4.38,4.38,0,0,1,2.944.987c.951.9.859,2.1.859,3.409v3.086a2.733,2.733,0,0,0,.737,1.836.378.378,0,0,1-.006.526L32.472,23.9l-.005-.005h-.009a.4.4,0,0,1-.462.046,4.787,4.787,0,0,1-1.12-1.321,3.827,3.827,0,0,1-3.222,1.44,2.8,2.8,0,0,1-2.926-3.088,3.364,3.364,0,0,1,2.084-3.237,13.344,13.344,0,0,1,3.676-.687v-.258a2.571,2.571,0,0,0-.237-1.437,1.3,1.3,0,0,0-1.1-.515,1.492,1.492,0,0,0-1.572,1.19.424.424,0,0,1-.339.364l-1.895-.208a.341.341,0,0,1-.291-.414C25.491,13.446,27.567,12.742,29.428,12.742Zm1.057,5.9c-1.413,0-2.906.307-2.906,1.994,0,.858.439,1.437,1.189,1.437a1.587,1.587,0,0,0,1.353-.9,3.923,3.923,0,0,0,.366-2.1h0l0,0Z" fill="#080808"/>
      </g>
    </g>
    <g id="Mask_Group_44" data-name="Mask Group 44" transform="translate(230 -644)" clip-path="url(#clip-path-3)">
      <g id="digitalocean-ar21" transform="translate(351 2938)">
        <path id="Path-5" data-name="Path" d="M15.98,31.738V25.585a9.775,9.775,0,0,0,9.131-13.316A9.244,9.244,0,0,0,19.585,6.8a9.834,9.834,0,0,0-13.407,9.07H0A16.019,16.019,0,0,1,21.071.787,15.416,15.416,0,0,1,31.163,10.811,15.944,15.944,0,0,1,15.98,31.739Z" fill="#080808"/>
        <path id="Shape-5" data-name="Shape" d="M16,19.484v6.136H9.82V19.484ZM9.82,25.619v4.688H5.091v-4.7Zm-4.729,0H1.124V21.679H5.091Z" fill="#080808"/>
        <path id="Shape-6" data-name="Shape" d="M47.711,1.892A9.01,9.01,0,0,0,42.474.436H38.012V14.523h4.5a8.652,8.652,0,0,0,5.237-1.551,5.522,5.522,0,0,0,1.817-2.248A8.356,8.356,0,0,0,50.206,7.4a8.182,8.182,0,0,0-.637-3.292A5.117,5.117,0,0,0,47.72,1.892Zm-7.076.917h1.4a7.233,7.233,0,0,1,3.817.917c1.083.665,1.624,1.9,1.624,3.672,0,1.836-.533,3.134-1.624,3.83a6.917,6.917,0,0,1-3.793.917H40.627V2.8ZM53.288.246A1.6,1.6,0,0,0,52.173.69a1.45,1.45,0,0,0-.446,1.076,1.577,1.577,0,0,0,.446,1.108,1.544,1.544,0,0,0,1.116.443A1.657,1.657,0,0,0,54.4,2.874a1.523,1.523,0,0,0,.446-1.108A1.45,1.45,0,0,0,54.4.69,1.676,1.676,0,0,0,53.288.246ZM52.012,4.583H54.53v9.94H52.012Zm11.666.822A3.831,3.831,0,0,0,61.16,4.33a4.516,4.516,0,0,0-3.442,1.425,4.955,4.955,0,0,0-1.37,3.577,5.015,5.015,0,0,0,1.339,3.546,4.656,4.656,0,0,0,3.442,1.393,3.885,3.885,0,0,0,2.485-.792v.22a2.556,2.556,0,0,1-.669,1.9,2.465,2.465,0,0,1-1.817.665,3.172,3.172,0,0,1-2.773-1.646l-1.722,1.646.032.064a6.069,6.069,0,0,0,1.689,1.488,5.11,5.11,0,0,0,2.8.728,4.8,4.8,0,0,0,3.6-1.361A4.955,4.955,0,0,0,66.1,13.574V4.552H63.613v.855Zm-.66,5.888a2.164,2.164,0,0,1-1.722.728,2.223,2.223,0,0,1-1.722-.728,2.785,2.785,0,0,1-.637-1.939,2.959,2.959,0,0,1,.637-1.962A2.125,2.125,0,0,1,61.3,6.664a2.223,2.223,0,0,1,1.722.728,2.879,2.879,0,0,1,.669,1.962A2.829,2.829,0,0,1,63.018,11.294ZM68.3,4.583h2.518v9.94H68.3ZM69.574.246A1.6,1.6,0,0,0,68.459.69a1.45,1.45,0,0,0-.447,1.076,1.577,1.577,0,0,0,.447,1.108,1.544,1.544,0,0,0,1.116.443,1.657,1.657,0,0,0,1.116-.443,1.523,1.523,0,0,0,.446-1.108A1.45,1.45,0,0,0,70.69.69,1.6,1.6,0,0,0,69.574.246Zm6.757,1.646H73.846V4.582H72.412V6.861h1.434v4.115a3.959,3.959,0,0,0,.765,2.754,3.691,3.691,0,0,0,2.709.792l1.212-.032h.128V12.212l-.861.032a1.546,1.546,0,0,1-1.181-.317,2.142,2.142,0,0,1-.287-1.329V6.831H78.69V4.553H76.331V1.892ZM90.482.4H93V14.523H90.482Z" fill="#080808"/>
        <path id="A" d="M87.327,5.342A4.783,4.783,0,0,0,84.2,4.36a5.343,5.343,0,0,0-2.326.529,4.126,4.126,0,0,0-1.722,1.582l.032.032,1.624,1.52A2.622,2.622,0,0,1,84.2,6.6a1.974,1.974,0,0,1,1.307.412,1.393,1.393,0,0,1,.51,1.076v.476a6.418,6.418,0,0,0-1.849-.285,4.911,4.911,0,0,0-3.018.855A2.979,2.979,0,0,0,80,11.633a2.771,2.771,0,0,0,.988,2.248,3.787,3.787,0,0,0,2.423.823,4.249,4.249,0,0,0,2.677-1.045v.823h2.485V8.088a3.811,3.811,0,0,0-1.243-2.754Zm-4.462,5.381a2.233,2.233,0,0,1,1.212-.285,6.142,6.142,0,0,1,1.913.348v.981a3.046,3.046,0,0,1-2.167.76,1.631,1.631,0,0,1-1.021-.285.9.9,0,0,1-.351-.728.871.871,0,0,1,.414-.792Z" fill="#080808"/>
        <path id="Shape-7" data-name="Shape" d="M60.508,28.192a6.852,6.852,0,0,1-1.275,1.172,2.419,2.419,0,0,1-1.306.348,2.24,2.24,0,0,1-1.817-.823,3.072,3.072,0,0,1-.733-2.089,3.035,3.035,0,0,1,.733-2.089,2.339,2.339,0,0,1,1.817-.823,3.374,3.374,0,0,1,2.39,1.361l1.657-1.582A5.065,5.065,0,0,0,52.827,26.8a5.116,5.116,0,0,0,1.466,3.7A4.88,4.88,0,0,0,57.861,32a5.091,5.091,0,0,0,4.3-2.216l-1.658-1.592Zm10.358-5a3.508,3.508,0,0,0-1.434-1.172,4.824,4.824,0,0,0-2.072-.444,4.268,4.268,0,0,0-3.41,1.52,5.708,5.708,0,0,0-1.275,3.735,5.21,5.21,0,0,0,1.371,3.7,4.842,4.842,0,0,0,3.634,1.425,5.11,5.11,0,0,0,4.143-2.026l.064-.063-1.657-1.582c-.16.189-.382.379-.573.569a3.282,3.282,0,0,1-.733.529,2.8,2.8,0,0,1-1.275.285,2.418,2.418,0,0,1-1.722-.6,2.3,2.3,0,0,1-.733-1.52h6.661l.032-.917a6.935,6.935,0,0,0-.255-1.836,5.32,5.32,0,0,0-.765-1.613Zm-5.514,2.342a2.385,2.385,0,0,1,.669-1.173,1.785,1.785,0,0,1,1.306-.507,1.816,1.816,0,0,1,1.4.507,1.907,1.907,0,0,1,.51,1.173H65.352Z" fill="#080808"/>
        <g id="A-link" transform="translate(73.2 21.568)">
          <path id="A-2" data-name="A" d="M7.322.981A4.783,4.783,0,0,0,4.2,0,5.343,5.343,0,0,0,1.873.529,4.126,4.126,0,0,0,.151,2.111l.032.032,1.624,1.52A2.622,2.622,0,0,1,4.2,2.238,1.974,1.974,0,0,1,5.5,2.65a1.393,1.393,0,0,1,.51,1.076V4.2a6.418,6.418,0,0,0-1.849-.285,4.912,4.912,0,0,0-3.018.855A2.979,2.979,0,0,0,0,7.273,2.771,2.771,0,0,0,.988,9.521a3.788,3.788,0,0,0,2.423.823A4.249,4.249,0,0,0,6.088,9.3v.823H8.573V3.728A3.811,3.811,0,0,0,7.33.974ZM2.861,6.362a2.232,2.232,0,0,1,1.212-.285,6.142,6.142,0,0,1,1.913.348v.981a3.046,3.046,0,0,1-2.167.76A1.631,1.631,0,0,1,2.8,7.882a.9.9,0,0,1-.351-.728.871.871,0,0,1,.414-.792Z" fill="#080808"/>
        </g>
        <path id="Shape-8" data-name="Shape" d="M91.358,22.739a3.731,3.731,0,0,0-2.933-1.173A3.427,3.427,0,0,0,86,22.422v-.6H83.548v9.909h2.518V26.252a2.682,2.682,0,0,1,.533-1.763,1.858,1.858,0,0,1,1.5-.633,1.586,1.586,0,0,1,1.307.569,2.376,2.376,0,0,1,.479,1.552v5.761H92.4V25.977a4.643,4.643,0,0,0-1.052-3.229ZM44.222,31.951a7.281,7.281,0,1,1,7.331-7.281,7.307,7.307,0,0,1-7.331,7.281Zm0-11.989a4.716,4.716,0,1,0,4.749,4.716A4.744,4.744,0,0,0,44.222,19.962Z" fill="#080808"/>
      </g>
    </g>
    <g id="Mask_Group_45" data-name="Mask Group 45" transform="translate(270 -885)" clip-path="url(#clip-path-4)">
      <path id="vercel-logotype-dark" d="M55.124,6.2c-4.276,0-7.359,2.789-7.359,6.972s3.467,6.972,7.747,6.972A7.993,7.993,0,0,0,61.783,17.4L58.82,15.686a4.432,4.432,0,0,1-3.308,1.356A4.137,4.137,0,0,1,51.5,14.524H62.348a7.009,7.009,0,0,0,.136-1.356C62.483,8.986,59.4,6.2,55.124,6.2Zm-3.66,5.616a3.92,3.92,0,0,1,7.321,0Zm-.875-9.877L39.856,20.528,29.119,1.937h4.024l6.709,11.62L46.56,1.937ZM14.312,0,28.623,24.789H0ZM78.054,13.169a3.919,3.919,0,0,0,7.282,1.968l2.975,1.716a7.171,7.171,0,0,1-6.383,3.288c-4.28,0-7.359-2.789-7.359-6.972S77.651,6.2,81.927,6.2A7.175,7.175,0,0,1,88.31,9.486L85.335,11.2a3.919,3.919,0,0,0-7.282,1.968ZM110,1.937V19.754h-3.486V1.937ZM96.831,6.2c-4.276,0-7.359,2.789-7.359,6.972s3.47,6.972,7.746,6.972a7.993,7.993,0,0,0,6.271-2.746l-2.963-1.712a4.432,4.432,0,0,1-3.308,1.356A4.137,4.137,0,0,1,93.2,14.521h10.853a7.009,7.009,0,0,0,.135-1.356C104.19,8.986,101.111,6.2,96.831,6.2Zm-3.66,5.616a3.92,3.92,0,0,1,7.321,0ZM73.406,6.585v3.753a4.415,4.415,0,0,0-1.239-.19,3.7,3.7,0,0,0-3.873,3.873v5.732H64.807V6.585h3.486v3.563C68.293,8.18,70.582,6.585,73.406,6.585Z" transform="translate(461 3063)"/>
    </g>
    <g id="Mask_Group_46" data-name="Mask Group 46" transform="translate(90 -825)" clip-path="url(#clip-path-5)">
      <path id="Path_706" data-name="Path 706" d="M118.788,34.646c0-7.111-3.444-12.724-10.029-12.724-6.61,0-10.612,5.611-10.612,12.667,0,8.362,4.722,12.584,11.5,12.584a15.482,15.482,0,0,0,7.7-1.805V39.812a14.742,14.742,0,0,1-6.805,1.527c-2.695,0-5.083-.945-5.389-4.222H118.73c0-.362.056-1.805.056-2.472Zm-13.711-2.638c0-3.139,1.916-4.444,3.667-4.444,1.694,0,3.5,1.3,3.5,4.444ZM87.439,21.925a7.849,7.849,0,0,0-5.445,2.167l-.363-1.722H75.509V54.759l6.944-1.472.028-7.861a7.823,7.823,0,0,0,4.918,1.75c4.972,0,9.5-3.987,9.5-12.806-.028-8.056-4.611-12.446-9.473-12.446Zm-1.667,19.14a4.159,4.159,0,0,1-3.278-1.3l-.028-10.307A4.133,4.133,0,0,1,85.772,28.1c2.528,0,4.277,2.834,4.277,6.472C90.049,38.286,88.327,41.065,85.772,41.065ZM65.955,20.286l6.972-1.5V13.15l-6.972,1.472Zm0,2.111h6.972V46.7H65.955Zm-7.474,2.054L58.037,22.4h-6V46.705h6.944V30.231a4.9,4.9,0,0,1,5.278-1.444V22.4a4.715,4.715,0,0,0-5.778,2.054Zm-13.889-8.1L37.816,17.8l-.028,22.25a6.98,6.98,0,0,0,7.194,7.139,10.706,10.706,0,0,0,4.861-.918V40.633c-.889.363-5.278,1.638-5.278-2.472V28.315h5.278V22.4h-5.28ZM25.816,29.439c0-1.084.889-1.5,2.361-1.5a15.527,15.527,0,0,1,6.887,1.776V23.2a18.282,18.282,0,0,0-6.887-1.277c-5.639,0-9.389,2.945-9.389,7.861,0,7.667,10.556,6.444,10.556,9.751,0,1.277-1.112,1.694-2.667,1.694a17.284,17.284,0,0,1-7.583-2.223v6.61a19.227,19.227,0,0,0,7.583,1.571c5.778,0,9.751-2.861,9.751-7.834-.028-8.277-10.612-6.805-10.612-9.917Z" transform="translate(622.212 3040.85)" fill="#080808" fill-rule="evenodd"/>
    </g>
    <g id="Mask_Group_47" data-name="Mask Group 47" transform="translate(-56 -765)" clip-path="url(#clip-path-6)">
      <path id="Path_707" data-name="Path 707" d="M4.037,37.92v-2H5.716V26.193H4.037v-2h6.594c3,0,4.867,1.333,4.867,3.732a3.037,3.037,0,0,1-2.144,2.933,3.448,3.448,0,0,1,2.933,3.2c0,2.533-2,3.934-5.333,3.934H4.037ZM7.971,26.188v3.735h2.466c1.866,0,2.8-.667,2.8-1.866,0-1.265-1-1.866-2.867-1.866Zm0,9.732h2.8c2.2,0,3.266-.667,3.266-2s-1.133-2-3.4-2H7.959ZM28.3,30.789a1.7,1.7,0,0,0-1.667-1.265,3.605,3.605,0,0,0-3.666,3.8v2.6h3.666v2h-8.2V35.926h2.332V29.858h-1.8v-2h4v1.734a4.188,4.188,0,0,1,3.8-2.067,3.526,3.526,0,0,1,3.666,2.734l-2.144.532m11.074,1.265v-.6c0-1.4-1.2-2-2.465-2a4.513,4.513,0,0,0-3.066,1.2l-1.4-1.466a6.6,6.6,0,0,1,4.532-1.667c2.666,0,4.666,1.333,4.666,3.934v4.466h1.533v2h-3.8V36.852a4.51,4.51,0,0,1-3.6,1.4c-2.2,0-4.066-1.067-4.066-3.2,0-2.465,2.533-3.466,4.867-3.466a13.518,13.518,0,0,1,2.8.466m0,1.8a7.984,7.984,0,0,0-2.666-.4c-1.4,0-2.734.4-2.734,1.667,0,.933.866,1.333,2,1.333,1.6,0,3.4-.8,3.4-2.266v-.321m16.93,2.063v2h-10.6V35.934h4.4V29.867H46.774v-2H52.31v8.065ZM49.83,22.736h2.465V25.8H49.83ZM58.9,35.924h1.6v-6.07H58.962V27.848h3.666v1.333a4.256,4.256,0,0,1,3.6-1.667,3.642,3.642,0,0,1,4,3.732v4.666h1.6V37.92H66.356v-2h1.667V31.788a2.026,2.026,0,0,0-2.144-2.266,3.183,3.183,0,0,0-3.323,3v3.4h1.667v2H58.755v-2m16.079-6.063H72.1v-2h2.734V24.192h2.2v3.666h5.13v2H77.038v4.266c0,1.6,1.133,2.2,2.465,2.2a4.4,4.4,0,0,0,3-1.4l1.463,1.468A6.088,6.088,0,0,1,79.5,38.322c-2.666,0-4.61-1.4-4.61-4.133V29.859m20.862.933a1.7,1.7,0,0,0-1.667-1.265,3.605,3.605,0,0,0-3.666,3.8v2.6h3.666V37.92H85.957V35.926H88.29V29.858h-1.8v-2h4v1.734a4.188,4.188,0,0,1,3.8-2.067,3.526,3.526,0,0,1,3.666,2.734l-2.2.532m14.6,5.6a7.478,7.478,0,0,1-5.136,1.866c-3.533,0-5.995-2.266-5.995-5.4a5.382,5.382,0,0,1,5.733-5.4,5.477,5.477,0,0,1,5.6,5.789v.321h-9.07a3.588,3.588,0,0,0,3.732,2.734,5.014,5.014,0,0,0,3.666-1.4Zm-8.732-4.532h6.466a3.141,3.141,0,0,0-3.133-2.4,3.091,3.091,0,0,0-3.324,2.4Zm22.2,4.531a7.478,7.478,0,0,1-5.133,1.866c-3.533,0-5.995-2.266-5.995-5.4a5.382,5.382,0,0,1,5.733-5.4,5.477,5.477,0,0,1,5.6,5.789v.321h-9.074a3.588,3.588,0,0,0,3.732,2.734,5.014,5.014,0,0,0,3.666-1.4Zm-8.732-4.532h6.466a3.37,3.37,0,0,0-6.456,0Z" transform="translate(782.963 3046.264)" fill="#080808"/>
    </g>
  </g>
</svg>
