<svg xmlns="http://www.w3.org/2000/svg" xmlns:xlink="http://www.w3.org/1999/xlink" width="270" height="180" viewBox="0 0 270 180">
  <defs>
    <clipPath id="clip-path">
      <rect id="Rectangle_97" data-name="Rectangle 97" width="120" height="60" transform="translate(461 2272)" fill="#fff"/>
    </clipPath>
    <clipPath id="clip-path-2">
      <path id="Path_6" data-name="Path 6" d="M204.1,226.073l-9.192,5.306a1.109,1.109,0,0,0-.555.965v10.617a1.109,1.109,0,0,0,.555.965l9.193,5.309a1.113,1.113,0,0,0,1.111,0l9.191-5.309a1.112,1.112,0,0,0,.555-.965V232.344a1.109,1.109,0,0,0-.556-.965l-9.19-5.306a1.118,1.118,0,0,0-1.113,0" transform="translate(-194.354 -225.925)" fill="#080808"/>
    </clipPath>
    <clipPath id="clip-path-3">
      <path id="Path_8" data-name="Path 8" d="M195.4,243.745a1.112,1.112,0,0,0,.327.287l7.885,4.555,1.316.755a1.115,1.115,0,0,0,.641.145,1.141,1.141,0,0,0,.218-.039l9.695-17.751a1.1,1.1,0,0,0-.258-.205l-6.019-3.475-3.189-1.831a1.161,1.161,0,0,0-.288-.116Zm0,0" transform="translate(-195.4 -226.068)" fill="#171717"/>
    </clipPath>
    <clipPath id="clip-path-4">
      <path id="Path_10" data-name="Path 10" d="M206.631,225.938a1.122,1.122,0,0,0-.444.142l-9.166,5.29,9.883,18a1.1,1.1,0,0,0,.395-.136l9.192-5.309a1.113,1.113,0,0,0,.537-.758l-10.075-17.213a1.153,1.153,0,0,0-.225-.022h-.088" transform="translate(-197.021 -225.934)" fill="#080808"/>
    </clipPath>
    <clipPath id="clip-path-5">
      <rect id="Rectangle_98" data-name="Rectangle 98" width="120" height="60" transform="translate(610 2268)" fill="#fff"/>
    </clipPath>
    <clipPath id="clip-path-6">
      <rect id="Rectangle_99" data-name="Rectangle 99" width="120" height="60" transform="translate(641 2353)" fill="#fff"/>
    </clipPath>
    <clipPath id="clip-path-7">
      <rect id="Rectangle_100" data-name="Rectangle 100" width="120" height="60" transform="translate(590 2353)" fill="#fff"/>
    </clipPath>
    <clipPath id="clip-path-8">
      <rect id="Rectangle_101" data-name="Rectangle 101" width="120" height="60" transform="translate(615 2350)" fill="#fff"/>
    </clipPath>
    <clipPath id="clip-path-9">
      <rect id="Rectangle_102" data-name="Rectangle 102" width="120" height="60" transform="translate(720 2417)" fill="#fff"/>
    </clipPath>
  </defs>
  <g id="Group_360" data-name="Group 360" transform="translate(-581 -1775)">
    <g id="Mask_Group_11" data-name="Mask Group 11" transform="translate(120 -497)" clip-path="url(#clip-path)">
      <g id="node-node-js-seeklogo.com" transform="translate(461 2272)">
        <path id="Path_1" data-name="Path 1" d="M180.826,185.693a1.835,1.835,0,0,1-.914-.244L177,183.727c-.439-.243-.223-.329-.079-.378a5.877,5.877,0,0,0,1.316-.6.221.221,0,0,1,.217.015l2.236,1.327a.3.3,0,0,0,.27,0l8.716-5.031a.275.275,0,0,0,.133-.236V168.765a.28.28,0,0,0-.135-.24l-8.713-5.027a.269.269,0,0,0-.268,0l-8.711,5.027a.278.278,0,0,0-.138.238V178.82a.268.268,0,0,0,.135.233l2.387,1.379c1.3.648,2.088-.116,2.088-.884v-9.927a.248.248,0,0,1,.253-.251h1.1a.249.249,0,0,1,.251.251v9.932a2.416,2.416,0,0,1-2.581,2.72,3.736,3.736,0,0,1-2.009-.546l-2.287-1.316a1.843,1.843,0,0,1-.914-1.591V168.762a1.831,1.831,0,0,1,.914-1.588l8.725-5.034a1.911,1.911,0,0,1,1.833,0l8.714,5.036a1.843,1.843,0,0,1,.914,1.588v10.058a1.843,1.843,0,0,1-.914,1.588l-8.714,5.034a1.832,1.832,0,0,1-.919.244" transform="translate(-133.123 -126.582)" fill="#080808"/>
        <path id="Path_2" data-name="Path 2" d="M214.456,195.379c-3.814,0-4.613-1.755-4.613-3.219a.251.251,0,0,1,.253-.251h1.126a.252.252,0,0,1,.249.213c.17,1.147.677,1.726,2.983,1.726,1.837,0,2.618-.415,2.618-1.389,0-.561-.223-.977-3.076-1.256-2.387-.236-3.861-.762-3.861-2.671,0-1.755,1.484-2.808,3.969-2.808,2.79,0,4.174.965,4.348,3.05a.255.255,0,0,1-.068.194.263.263,0,0,1-.185.081h-1.133a.25.25,0,0,1-.245-.2c-.273-1.206-.932-1.593-2.72-1.593-2,0-2.238.7-2.238,1.221,0,.635.275.82,2.983,1.178,2.68.355,3.948.857,3.948,2.74s-1.584,2.983-4.346,2.983m10.617-10.667h.292a.254.254,0,0,0,.286-.263c0-.257-.175-.257-.275-.257h-.3Zm-.355-.825h.648c.223,0,.659,0,.659.5a.433.433,0,0,1-.355.462c.263.018.277.188.312.427a1.844,1.844,0,0,0,.1.5h-.4c-.011-.088-.072-.568-.072-.593-.026-.107-.063-.16-.2-.16h-.333v.755h-.364Zm-.779.938a1.408,1.408,0,1,0,1.4-1.4,1.408,1.408,0,0,0-1.4,1.4m3.089.006a1.68,1.68,0,1,1-1.68-1.68,1.68,1.68,0,0,1,1.68,1.68" transform="translate(-164.059 -143.198)" fill="#080808"/>
        <path id="Path_3" data-name="Path 3" d="M20.713,19.756a1.116,1.116,0,0,0-.558-.97l-9.241-5.317a1.079,1.079,0,0,0-.508-.147h-.1a1.1,1.1,0,0,0-.511.147L.559,18.787A1.125,1.125,0,0,0,0,19.758L.02,34.079a.55.55,0,0,0,.277.483.526.526,0,0,0,.555,0l5.494-3.15a1.127,1.127,0,0,0,.559-.965V23.755a1.113,1.113,0,0,1,.557-.965L9.8,21.443a1.11,1.11,0,0,1,.559-.15,1.09,1.09,0,0,1,.555.15l2.334,1.345a1.113,1.113,0,0,1,.559.965v6.693a1.13,1.13,0,0,0,.56.965l5.49,3.144a.546.546,0,0,0,.559,0,.561.561,0,0,0,.276-.483Zm43.608,7.458a.277.277,0,0,1-.14.241l-3.175,1.829a.28.28,0,0,1-.279,0l-3.175-1.83a.276.276,0,0,1-.14-.241V23.548a.281.281,0,0,1,.138-.242l3.173-1.833a.282.282,0,0,1,.282,0l3.175,1.833a.278.278,0,0,1,.14.242ZM65.178.071a.558.558,0,0,0-.83.488V14.741a.39.39,0,0,1-.585.338l-2.315-1.334a1.114,1.114,0,0,0-1.115,0L51.088,19.08a1.113,1.113,0,0,0-.559.965V30.719a1.117,1.117,0,0,0,.559.965l9.244,5.344a1.12,1.12,0,0,0,1.116,0l9.245-5.341a1.119,1.119,0,0,0,.559-.965V4.116a1.119,1.119,0,0,0-.574-.976ZM95.961,23.452a1.116,1.116,0,0,0,.555-.965V19.9a1.117,1.117,0,0,0-.555-.965L86.777,13.6a1.115,1.115,0,0,0-1.12,0l-9.242,5.335a1.114,1.114,0,0,0-.559.965V30.569a1.12,1.12,0,0,0,.563.971L85.6,36.778a1.113,1.113,0,0,0,1.1.006L92.251,33.7a.557.557,0,0,0,0-.971l-9.3-5.336a.554.554,0,0,1-.282-.483V23.561a.554.554,0,0,1,.279-.483l2.9-1.667a.552.552,0,0,1,.556,0l2.9,1.667a.556.556,0,0,1,.279.483v2.632a.556.556,0,0,0,.838.483Zm0,0" transform="translate(0 0)" fill="#080808" fill-rule="evenodd"/>
        <path id="Path_4" data-name="Path 4" d="M387.795,105.1a.211.211,0,0,1,.214,0l1.774,1.023a.214.214,0,0,1,.107.185v2.049a.214.214,0,0,1-.107.185l-1.776,1.024a.211.211,0,0,1-.214,0l-1.772-1.023a.213.213,0,0,1-.109-.185v-2.049a.212.212,0,0,1,.107-.185Zm0,0" transform="translate(-301.715 -82.143)" fill="#080808" fill-rule="evenodd"/>
        <g id="Group_1" data-name="Group 1" transform="translate(25.32 13.507)" clip-path="url(#clip-path-2)">
          <path id="Path_5" data-name="Path 5" d="M190.96,201.3l-25.9-12.7L151.778,215.7l25.9,12.7Zm0,0" transform="translate(-161.067 -196.746)" fill="#080808"/>
        </g>
        <g id="Group_2" data-name="Group 2" transform="translate(25.549 13.538)" clip-path="url(#clip-path-3)">
          <path id="Path_7" data-name="Path 7" d="M144.07,199.97l18.289,24.753,24.187-17.87L168.256,182.1Zm0,0" transform="translate(-155.27 -191.693)" fill="#171717"/>
        </g>
        <g id="Group_3" data-name="Group 3" transform="translate(25.902 13.51)" clip-path="url(#clip-path-4)">
          <path id="Path_9" data-name="Path 9" d="M197.02,225.934v23.439h20.005V225.934Zm0,0" transform="translate(-197.02 -225.934)" fill="#080808"/>
        </g>
      </g>
    </g>
    <g id="Mask_Group_12" data-name="Mask Group 12" transform="translate(-29 -433)" clip-path="url(#clip-path-5)">
      <g id="original-wordmark" transform="translate(608.187 2243.281)">
        <path id="path4" d="M34.492,67.264V43.2H35.8v3.786a4.952,4.952,0,0,0,.427-.533,6.47,6.47,0,0,1,5.9-3.661,6.931,6.931,0,0,1,6.816,3.661,11.766,11.766,0,0,1,.284,10.789c-1.324,2.968-4.6,4.444-8.1,3.9A6.55,6.55,0,0,1,35.9,57.693v9.571ZM35.8,51.712c.116,1.173.16,2.008.293,2.826.515,3.217,2.417,5.128,5.4,5.474a6.141,6.141,0,0,0,6.745-3.9,10.46,10.46,0,0,0-.231-8.6,6.017,6.017,0,0,0-6.336-3.5,5.857,5.857,0,0,0-5.234,4.328,29.68,29.68,0,0,0-.64,3.377Z" transform="translate(1.447 0.003)"/>
        <path id="path6" d="M75.893,54.983A7.039,7.039,0,0,1,69.014,61.2c-5.474.275-8.043-3.359-8.452-7.554a12.1,12.1,0,0,1,1.066-6.665,7.438,7.438,0,0,1,7.741-4.15,7.11,7.11,0,0,1,6.31,5.412,36.516,36.516,0,0,1,.613,4H61.9c-.267,3.8,1.777,6.861,4.675,7.6,3.608.889,6.692-.675,7.812-4.106C74.64,54.859,75.093,54.735,75.893,54.983ZM61.9,51.029H74.76c-.08-4.052-2.6-6.985-6.025-7.03C64.864,43.937,62.073,46.763,61.9,51.029Z" transform="translate(2.597 0.002)"/>
        <path id="path8" d="M77.775,55.074h1.262A5.057,5.057,0,0,0,82,59.429a7.758,7.758,0,0,0,6.736-.178,3.031,3.031,0,0,0,1.777-2.977,2.746,2.746,0,0,0-1.849-2.746c-1.386-.515-2.862-.8-4.275-1.253a31.325,31.325,0,0,1-4.3-1.573c-2.275-1.111-2.417-5.439.16-6.807a9.074,9.074,0,0,1,8.674-.133,4.568,4.568,0,0,1,2.311,4.657h-1.08c0-.053-.1-.1-.1-.151-.133-3.457-3.03-4.524-6.141-4.221a8.15,8.15,0,0,0-2.666.809,2.846,2.846,0,0,0,.231,5.172c1.369.5,2.8.818,4.2,1.209,1.129.311,2.3.515,3.395.889a4.008,4.008,0,0,1,2.755,3.617,4.275,4.275,0,0,1-2.3,4.444c-2.968,1.68-7.856,1.235-10.033-.889a5.928,5.928,0,0,1-1.724-4.221Z" transform="translate(3.364)"/>
        <path id="path10" d="M107.126,48.417h-1.182a2.93,2.93,0,0,0-.08-.435,3.866,3.866,0,0,0-3.146-3.715,7.758,7.758,0,0,0-4.986.24,3.031,3.031,0,0,0-2.2,2.888A2.791,2.791,0,0,0,97.67,50.2c1.777.551,3.6.889,5.4,1.386a15.109,15.109,0,0,1,1.724.524,4.444,4.444,0,0,1,.24,8.274,9.891,9.891,0,0,1-8,.08A5.546,5.546,0,0,1,93.7,55.082h1.155a6.479,6.479,0,0,0,9.865,4.124,3.173,3.173,0,0,0,1.706-2.968,2.746,2.746,0,0,0-1.875-2.728c-1.386-.515-2.862-.791-4.275-1.244a31.486,31.486,0,0,1-4.328-1.555c-2.222-1.093-2.4-5.386.133-6.754a8.949,8.949,0,0,1,8.816-.1,4.648,4.648,0,0,1,2.231,4.559Z" transform="translate(4.068 0.001)"/>
        <path id="path12" d="M33.081,60.755a2.035,2.035,0,0,1-2.524-.96c-1.449-2.168-3.048-4.239-4.586-6.354l-.667-.889c-1.831,2.453-3.661,4.808-5.332,7.252a1.955,1.955,0,0,1-2.4.942l6.87-9.216L18.053,43.2a2.124,2.124,0,0,1,2.533.889c1.484,2.168,3.128,4.239,4.763,6.434,1.644-2.177,3.27-4.257,4.79-6.408a1.911,1.911,0,0,1,2.382-.889l-2.479,3.288c-1.111,1.466-2.2,2.942-3.359,4.372a.889.889,0,0,0,0,1.324C28.807,55.032,30.913,57.858,33.081,60.755Z" transform="translate(0.698 0.016)"/>
        <path id="path14" d="M60.7,43.113v1.244a6.443,6.443,0,0,0-6.861,6.656v9.776H52.568V43.184h1.244v3.608c1.537-2.631,3.91-3.608,6.887-3.679Z" transform="translate(2.247 0.017)"/>
        <path id="path16" d="M1.813,51.431c.187-.889.3-1.857.56-2.764,1.537-5.466,7.8-7.741,12.113-4.355,2.524,1.982,3.155,4.79,3.03,7.954H3.3c-.231,5.652,3.848,9.065,9.065,7.323a5.412,5.412,0,0,0,3.439-3.83c.276-.889.72-1.04,1.564-.782a7.216,7.216,0,0,1-3.448,5.27A8.354,8.354,0,0,1,4.186,59,8.754,8.754,0,0,1,2,53.866a4.258,4.258,0,0,0-.178-.889Q1.813,52.186,1.813,51.431Zm1.5-.382h12.86c-.08-4.1-2.666-7-6.114-7.03C6.22,43.966,3.474,46.81,3.3,51.031Z"/>
      </g>
    </g>
    <g id="Mask_Group_13" data-name="Mask Group 13" transform="translate(-60 -458)" clip-path="url(#clip-path-6)">
      <g id="socketio-ar21" transform="translate(634.715 2353.436)">
        <path id="Path_616" data-name="Path 616" d="M45.2,29.57a19.468,19.468,0,1,0-8.739,16.657A19.5,19.5,0,0,0,45.2,29.57Zm-18.377,17c-8.844.874-17.4-6.62-17.636-15.5a16.573,16.573,0,0,1,10.857-16.7C29.55,10.557,41.228,17.6,42.208,27.8c1.536,9.162-6.1,18.483-15.385,18.775ZM21,29.015l12.8-10.46L26.9,29.041c-1.96,0-3.92,0-5.88-.026Zm3.6,1.933,5.88.026L17.677,41.46l6.9-10.513Z" fill="#010101"/>
        <path id="Path_617" data-name="Path 617" d="M51.065,35.91a5.666,5.666,0,0,0,2.7.627c2.356,0,3.61-1.167,3.61-2.766-.022-1.318-.756-2.14-2.356-2.7-1.124-.41-1.556-.67-1.556-1.232,0-.54.432-.93,1.232-.93a3.8,3.8,0,0,1,1.88.52l.432-1.578a5.152,5.152,0,0,0-2.356-.52c-2.053,0-3.35,1.2-3.35,2.788-.022,1.037.713,1.988,2.442,2.593,1.1.39,1.448.692,1.448,1.3,0,.583-.432.972-1.426.972a5.012,5.012,0,0,1-2.27-.627Zm11.39-8.623a4.377,4.377,0,0,0-4.582,4.7,4.278,4.278,0,0,0,4.43,4.56,4.381,4.381,0,0,0,4.538-4.71A4.226,4.226,0,0,0,62.454,27.3Zm-.043,1.642c1.534,0,2.14,1.578,2.14,2.96,0,1.794-.886,3.047-2.16,3.047-1.36,0-2.2-1.3-2.2-3,0-1.47.627-3,2.226-3Zm11.735,5.49a4.49,4.49,0,0,1-1.772.346,2.616,2.616,0,0,1-2.7-2.853,2.632,2.632,0,0,1,2.7-2.874,3.793,3.793,0,0,1,1.686.346l.41-1.664a5.575,5.575,0,0,0-2.16-.41,4.579,4.579,0,0,0-4.927,4.733,4.255,4.255,0,0,0,4.56,4.517,6.552,6.552,0,0,0,2.507-.454Zm3.436-10.978H75.335V36.364h2.248V33.34l.756-.886,2.55,3.912h2.745l-3.74-5.23,3.285-3.63h-2.7l-2.14,2.853c-.238.3-.5.692-.713,1.037h-.043Zm13.657,9.1a4.962,4.962,0,0,0,.065-.95c0-1.945-.95-4.322-3.825-4.322-2.83,0-4.322,2.312-4.322,4.776a4.19,4.19,0,0,0,4.56,4.473,8.551,8.551,0,0,0,3.1-.54l-.324-1.556a6.563,6.563,0,0,1-2.464.41c-1.426,0-2.68-.692-2.723-2.29Zm-5.92-1.556a2.179,2.179,0,0,1,2.053-2.16,1.9,1.9,0,0,1,1.837,2.16Zm7.413-5.49v2H91.48v1.664h1.275v4.17a3.462,3.462,0,0,0,.692,2.464,2.567,2.567,0,0,0,1.923.735,4.829,4.829,0,0,0,1.62-.216L96.947,34.6a2.9,2.9,0,0,1-.864.108c-.864,0-1.145-.562-1.145-1.642V29.158h2.14V27.494h-2.14v-2.55ZM99,36.56a1.45,1.45,0,1,0-1.383-1.448A1.356,1.356,0,0,0,99,36.56Zm4.668-.216v-8.86H101.42v8.86Zm-1.124-12.556a1.2,1.2,0,1,0,1.254,1.2,1.2,1.2,0,0,0-1.253-1.2Zm6.786,3.5a4.377,4.377,0,0,0-4.582,4.7,4.278,4.278,0,0,0,4.43,4.56,4.381,4.381,0,0,0,4.538-4.71,4.226,4.226,0,0,0-4.387-4.538Zm-.043,1.642c1.534,0,2.14,1.578,2.14,2.96,0,1.794-.886,3.047-2.16,3.047-1.36,0-2.2-1.3-2.2-3,0-1.47.627-3,2.226-3Z"/>
      </g>
    </g>
    <g id="Mask_Group_14" data-name="Mask Group 14" transform="translate(141 -458)" clip-path="url(#clip-path-7)">
      <g id="_-Symbols-_-Components" data-name="💎-Symbols-&amp;-Components" transform="translate(590 2369)">
        <g id="Assets-_-Logo-_-Dark" data-name="Assets-/-Logo-/-Dark">
          <g id="Logo">
            <path id="Shape" d="M120,33.528h-4.571l-3.857-5.654h-3v5.654h-4V16h9.715a5.534,5.534,0,0,1,5.234,5.914,6.212,6.212,0,0,1-3.806,5.536Zm-6.754-14.3H108.5v5.124h5.176s1.978,0,1.978-2.563A2.334,2.334,0,0,0,113.246,19.227ZM60.286,16H73.714v3.39H64.286v3.678h8.143V26.46H64.286v3.675h9.429v3.392H60.286ZM50.143,33.528h-4V19.393H40.857V16H55.429v3.393H50.143ZM22.571,16H36v3.39H26.571v3.678h8.143V26.46H26.571v3.675H36v3.392H22.571Zm-8.857,6.5L8.854,29.57,4,22.5V33.528H0V16H4l4.857,7.209L13.714,16h4V33.528h-4Z" transform="translate(0 -5.213)" fill="#080808" fill-rule="evenodd"/>
            <path id="Shape-2" data-name="Shape" d="M135.426,19.166a.83.83,0,0,1-1.067.071L120.844,4.715l14.689,13.46A.783.783,0,0,1,135.426,19.166Zm-1.511-4.706-6.125-6.6,6.707,6.1a.352.352,0,0,1-.053.465A.429.429,0,0,1,133.914,14.461Zm1,8.759a1.188,1.188,0,0,1-1.527.1L114.043,2.535,135.068,21.8A1.12,1.12,0,0,1,134.916,23.22Zm-1.985,3.5a1.189,1.189,0,0,1-1.528.1L106,0l27.084,25.3A1.122,1.122,0,0,1,132.931,26.718Zm-3.665,1.927a1.188,1.188,0,0,1-1.527.1L108.393,7.959l21.025,19.266A1.122,1.122,0,0,1,129.265,28.645Zm-4.429.053a.83.83,0,0,1-1.067.071L110.255,14.246l14.689,13.46A.783.783,0,0,1,124.837,28.7Zm-4.547-1.19a.427.427,0,0,1-.527.033l-6.125-6.6,6.706,6.1A.353.353,0,0,1,120.289,27.507Z" transform="translate(-34.539)" fill="#080808" fill-rule="evenodd"/>
          </g>
        </g>
      </g>
    </g>
    <g id="Mask_Group_15" data-name="Mask Group 15" transform="translate(116 -575)" clip-path="url(#clip-path-8)">
      <g id="nestjs-ar21" transform="translate(612.884 2357.383)">
        <path id="Path_619" data-name="Path 619" d="M25.737,2.617a2.429,2.429,0,0,0-.807.15,2.3,2.3,0,0,1,.965,1.352c.011.075.03.124.038.2a1.816,1.816,0,0,1,.023.188c.038.912-.237,1.025-.436,1.566a2.215,2.215,0,0,0,.146,2.039,1.239,1.239,0,0,0,.124.229c-.394-2.621,1.791-3.015,2.2-3.83a1.874,1.874,0,0,0-1.025-1.524,2.29,2.29,0,0,0-1.224-.353Zm3.293.589a1.566,1.566,0,0,0-.023.3l-.023.27-.075.248a2.328,2.328,0,0,1-.083.248l-.113.237c-.03.038-.053.083-.083.124l-.064.094-.15.207a1.478,1.478,0,0,1-.188.188c-.075.053-.124.124-.2.176-.218.165-.466.289-.695.451a1.544,1.544,0,0,0-.207.15c-.056.056-.135.105-.2.165s-.124.124-.188.2a1.024,1.024,0,0,0-.15.207l-.15.218-.113.237-.083.237-.075.263c-.011.038-.011.094-.023.135s-.011.083-.023.124l-.011.263a1.127,1.127,0,0,0,.011.188,1.376,1.376,0,0,0,.03.263c.019.1.03.165.053.248l.083.248c.023.053.053.105.075.15l-2.38-.924-1.2-.312-.653-.15q-.935-.186-1.885-.278a17.459,17.459,0,0,0-1.907-.105L17,7.322q-.953.068-1.9.229l-.466.083L13.7,7.84l-.466.124-.451.2-.338.15-.338.165c-.03.011-.053.023-.075.03l-.323.165a2.1,2.1,0,0,0-.207.105c-.03.023-.075.038-.094.053l-.27.15c-.094.053-.176.105-.248.15l-.207.15-.225.165-.176.15c-.113.083-.165.135-.218.176l-.225.218-.207.2-.176.188c-.023.023-.053.038-.075.064-.053.064-.113.124-.176.188l-.278.3-.563.537a5.9,5.9,0,0,1-.578.454l-.623.394a6.308,6.308,0,0,1-.653.312c-.218.094-.451.176-.676.248a11.086,11.086,0,0,1-1.265.3c-.083,0-.176.023-.263.03l-.263.064-.248.094c-.083.03-.165.075-.248.113a1.239,1.239,0,0,0-.225.15,1.69,1.69,0,0,0-.207.176,1.242,1.242,0,0,0-.207.188l-.176.207a1.784,1.784,0,0,0-.15.237c-.038.086-.105.15-.15.237l-.113.27-.094.27-.053.248a2.119,2.119,0,0,0-.038.312,1.738,1.738,0,0,0-.023.207.564.564,0,0,0,.011.135c.011.075.023.135.038.2l.075.188a1.21,1.21,0,0,0,.113.2l.135.188.176.165a1.623,1.623,0,0,0,.2.165,2.309,2.309,0,0,0,.631.451c.053.03.105.053.165.083a2.467,2.467,0,0,1,.094.312,1.475,1.475,0,0,0,.083.248l.083.188.15.278.15.218.176.2c.064.064.124.113.2.176l.207.15a1.652,1.652,0,0,0,.229.135,1.97,1.97,0,0,0,.237.113,1.674,1.674,0,0,0,.207.075c.071.023.135.038.176.053a4.394,4.394,0,0,0,.038,1.277c.094.207.548-.424,1.006-1.149a6.162,6.162,0,0,0,0,1.8c.105.248.736-.548,1.277-1.442A11.982,11.982,0,0,1,22.718,30.905a2.029,2.029,0,0,0-2.14-1.584,5.429,5.429,0,0,1-1.69,2.365,6.646,6.646,0,0,0-.105-2.073,6.716,6.716,0,0,1-1.284,2.61A2.891,2.891,0,0,1,15.013,31.1c-.038-.03-.053-.094-.083-.135l-.109-.255a1.081,1.081,0,0,1-.064-.218,1.46,1.46,0,0,1-.011-.225v-.15A1.318,1.318,0,0,1,14.8,29.9l.075-.218A1.552,1.552,0,0,1,15,29.467c.176-.5.176-.9-.15-1.138a1.613,1.613,0,0,0-.2-.105c-.038-.011-.094-.03-.135-.038l-.083-.03-.218-.053a.788.788,0,0,0-.218-.03,1.689,1.689,0,0,0-.229-.023c-.053,0-.105.011-.15.011a.882.882,0,0,0-.225.03l-.218.038-.218.075-.207.094-.2.105c-2.414,1.577-.976,5.257.676,6.33a5.029,5.029,0,0,0-1.427.383,10.275,10.275,0,0,0,1.378.751l1.678.5a9.612,9.612,0,0,0,2.61.2,9.855,9.855,0,0,0,9.034-8.411l.064.27.094.578a2.2,2.2,0,0,1,.038.278l.023.312.023.338v.165c0,.053.011.113.011.165s-.011.124-.011.188v.15c0,.075-.011.135-.011.207a.612.612,0,0,1-.011.135l-.011.225a.268.268,0,0,0-.011.094l-.03.237a.268.268,0,0,1-.011.094l-.038.3V31.9l-.064.289L26.5,32.5l-.165.638-.105.33-.225.6-.124.3-.15.289c-.011.03-.023.053-.03.075a9.912,9.912,0,0,1-2.932,3.511c-.083.053-.165.113-.248.176-.023.023-.053.03-.075.053l-.225.15.03.064h.011l.436-.064H22.7l.807-.15a1.629,1.629,0,0,0,.225-.053l.15-.03.218-.038.188-.053a19.637,19.637,0,0,0,3-.995,16.6,16.6,0,0,1-6.432,5.253,17.047,17.047,0,0,0,3.533-.612,16.543,16.543,0,0,0,9.789-7.821A16.552,16.552,0,0,1,31.4,40.791a16.232,16.232,0,0,0,7.123-11.1,16.647,16.647,0,0,1,.3,4.994c7.479-10.431.623-21.244-2.253-24.094a.916.916,0,0,0-.06.323l-.105.695-.176.683-.248.665-.312.631-.375.589-.424.563a6.408,6.408,0,0,1-.488.518l-.3.263-.237.207a5.782,5.782,0,0,1-.578.406l-.612.353L32,16.772q-.331.125-.672.218l-.695.15c-.237.038-.477.064-.706.083l-.5.023c-.237,0-.477-.023-.706-.038a5.182,5.182,0,0,1-.706-.1,4.955,4.955,0,0,1-.695-.176h-.011L28,16.847l.695-.15.676-.218a6.477,6.477,0,0,0,.653-.289q.32-.155.623-.342l.578-.375a5.669,5.669,0,0,0,.529-.466,5.632,5.632,0,0,0,.488-.507l.436-.563c.023-.03.038-.075.064-.105l.3-.5.312-.631.248-.665a6.868,6.868,0,0,0,.176-.676l.105-.695.038-.706-.019-.5-.083-.695-.15-.695-.225-.665c-.083-.218-.188-.436-.289-.638L32.8,6.165l-.375-.571-.477-.526-.27-.263L30.239,3.792c-.075-.038-.135-.075-.207-.105a4.054,4.054,0,0,0-.984-.436Z" transform="translate(0 0)" fill="#080808" fill-rule="evenodd"/>
        <path id="Path_620" data-name="Path 620" d="M14.806,20.93a3.267,3.267,0,0,1,.755-.252,3.811,3.811,0,0,0,1.006-.237.778.778,0,0,0,.315-.345,6.315,6.315,0,0,0,.094-1.4v-1.37l.015-1.119-.049-1.671v-.987a6.614,6.614,0,0,0-.158-1.622.869.869,0,0,0-.394-.473,4.5,4.5,0,0,0-1.494-.631l-.015-.751.36-.075c.113-.015.537-.128,1.277-.315l1.119-.439L17.9,9.1a4.017,4.017,0,0,1,.424-.315,6.5,6.5,0,0,0,1.134-1.149l.834-.064-.03,1.78c-.015.173-.015.315-.015.424l.015.725a9.429,9.429,0,0,1,2.4-1.577,6.834,6.834,0,0,1,2.666-.582,4.656,4.656,0,0,1,2.613.74,3.826,3.826,0,0,1,1.5,1.69,12.77,12.77,0,0,1,.345,3.89l-.064,5.167a1.352,1.352,0,0,0,.128.6,2.741,2.741,0,0,0,.882.237l.773.143a.864.864,0,0,1,.143.5l-.015.518-3.1-.225-.912.03h-.725l-2.1.158H24.26a2.715,2.715,0,0,1-.015-.315l.03-.616c.143-.03.518-.075,1.1-.158a4.333,4.333,0,0,0,.537-.113.6.6,0,0,0,.36-.252,2.989,2.989,0,0,0,.128-1.025l-.03-2.046.015-1.829a13.283,13.283,0,0,0-.375-4.156,1.9,1.9,0,0,0-1.81-1.2,4.28,4.28,0,0,0-1.829.458,7.847,7.847,0,0,0-1.967,1.37l-.03.263.03.991-.015,1.051.064,2.534-.03.394a9.874,9.874,0,0,0,.207,2.914,3.278,3.278,0,0,0,1.577.725l.049.394a3.123,3.123,0,0,1-.113.582l-.834.015a8.787,8.787,0,0,1-1.04-.094l-1.735-.015-3.653.113a.826.826,0,0,1-.064-.33l.015-.5Zm18.6-7.532a6.521,6.521,0,0,1,.74-1.78A8.8,8.8,0,0,1,36.024,9.59a5.307,5.307,0,0,1,1.81-.961,6.308,6.308,0,0,1,1.7-.3,9.612,9.612,0,0,1,2.4.237,4.468,4.468,0,0,1,1.543.646,8.148,8.148,0,0,1,1.416,1.243,5.182,5.182,0,0,1,.867,1.494,6.008,6.008,0,0,1,.394,2.061l-1.765-.03q-1.6-.037-3.2-.143l-1.262-.064-1.7.015h-1.37l-.03.375a8.73,8.73,0,0,0,.207,1.78,5.424,5.424,0,0,0,.616,1.622,4.431,4.431,0,0,0,1.025,1.2,3.814,3.814,0,0,0,1.262.74l.912.3,1.637-.075a7.81,7.81,0,0,0,1.322-.394,8.3,8.3,0,0,0,1.4-.849l.961.751a10.076,10.076,0,0,1-2.9,2.253,7.515,7.515,0,0,1-3.379.676,7.267,7.267,0,0,1-2.046-.225,6.2,6.2,0,0,1-1.907-.864,7.021,7.021,0,0,1-1.5-1.449,5.65,5.65,0,0,1-.927-1.795,7.019,7.019,0,0,1-.394-1.922,12.5,12.5,0,0,1,.225-2.489Zm9.2-.676a4.857,4.857,0,0,0-.345-1.7,2.458,2.458,0,0,0-1.04-1.239,2.421,2.421,0,0,0-3.323.469,4.056,4.056,0,0,0-.961,2.534l3.6.015.976-.049.661-.049.424.015Zm6.008,4.588a3.943,3.943,0,0,1,.695-.094l.33.015.143.158,1.134,1.829a5.465,5.465,0,0,0,1.126,1.04,4.907,4.907,0,0,0,1.134.518,3.267,3.267,0,0,0,1.119.188,2.441,2.441,0,0,0,1.7-.631,1.963,1.963,0,0,0,.751-1.4,1.416,1.416,0,0,0-.263-.849,3.226,3.226,0,0,0-1.07-.751,17.509,17.509,0,0,0-2-.563l-1.832-.518a4.28,4.28,0,0,1-1.322-.788,3.567,3.567,0,0,1-.882-1.149,3.921,3.921,0,0,1-.375-1.5,5.05,5.05,0,0,1,.345-1.967,4.355,4.355,0,0,1,.991-1.355,3.933,3.933,0,0,1,1.37-.8,5.482,5.482,0,0,1,1.983-.36,14.568,14.568,0,0,1,2.647.207,7.1,7.1,0,0,1,1.922.616,15.577,15.577,0,0,1,.282,1.671l.173,1.558a.607.607,0,0,1-.049.237,2.7,2.7,0,0,1-.695.128c-.094,0-.252-.015-.458-.03q-.2-.322-.375-.661a5.613,5.613,0,0,0-1.558-1.982A3.135,3.135,0,0,0,53.7,9.485a2.756,2.756,0,0,0-1.829.631,1.577,1.577,0,0,0-.537,1.262,1.5,1.5,0,0,0,.563,1.051,3.934,3.934,0,0,0,1.922.834,15.806,15.806,0,0,1,3.056.912,4.574,4.574,0,0,1,2,1.577,3.816,3.816,0,0,1,.582,2.08,3.937,3.937,0,0,1-1.4,3.071,5.878,5.878,0,0,1-4.033,1.213q-.908-.043-1.81-.158a11.1,11.1,0,0,1-1.558-.315q-.592-.2-1.164-.458a.826.826,0,0,1-.252-.225,11.635,11.635,0,0,1-.207-1.322l-.263-2.317ZM61.59,9.748a10.89,10.89,0,0,0,2.692-1.5,9.26,9.26,0,0,0,1.78-2.478h.9a2.7,2.7,0,0,1,.143.867l-.015,1.292-.049.927.015.36.36.015L68.9,9.166l1.183-.03a3.642,3.642,0,0,1,.109.755,3.554,3.554,0,0,1-.128.849,5.894,5.894,0,0,1-.788.064,4.049,4.049,0,0,1-.5-.03H67.95l-.285-.015-.751.03-.03,6.008.064,2.189a2.215,2.215,0,0,0,.379.834,1.877,1.877,0,0,0,.8.173,2.157,2.157,0,0,0,.631-.075,2.913,2.913,0,0,0,.695-.458c.064-.064.173-.128.3-.225a3.3,3.3,0,0,1,.631.6l.064.188a3.83,3.83,0,0,1-1.573,1.37,4.684,4.684,0,0,1-2.125.488,3.243,3.243,0,0,1-2.4-.927,3.967,3.967,0,0,1-.912-2.9l.064-2.771V10.769l-.488-.015-1.149.015-.207-.049a.451.451,0,0,1-.094-.263l.03-.751Z" transform="translate(34.957 8.68)" fill="#080808"/>
      </g>
    </g>
    <g id="Mask_Group_16" data-name="Mask Group 16" transform="translate(11 -582)" clip-path="url(#clip-path-9)">
      <g id="graphql-ar21" transform="translate(715.4 2419.228)">
        <path id="Path_621" data-name="Path 621" d="M44.424,21.18a4.735,4.735,0,0,0-1.46.213,2.762,2.762,0,0,0-1.122.66,3.252,3.252,0,0,0-.748,1.158,5.416,5.416,0,0,0-.3,1.7q-.056,1.6,0,3.206a5.351,5.351,0,0,0,.3,1.7,3.458,3.458,0,0,0,.748,1.176,3.057,3.057,0,0,0,1.122.66,5.116,5.116,0,0,0,1.46.2,4.821,4.821,0,0,0,1.46-.213,3.273,3.273,0,0,0,1.158-.674,3.194,3.194,0,0,0,.786-1.176,4.49,4.49,0,0,0,.285-1.674V27.2h-3.1a.35.35,0,0,1-.392-.4v-.25a.35.35,0,0,1,.392-.4h3.81a.354.354,0,0,1,.4.4v1.567a5.756,5.756,0,0,1-.32,1.96,4.248,4.248,0,0,1-.944,1.516,4.116,4.116,0,0,1-1.516,1,5.742,5.742,0,0,1-2.03.338,5.6,5.6,0,0,1-2.03-.338,4.278,4.278,0,0,1-1.478-.98,4.344,4.344,0,0,1-.908-1.478,6.5,6.5,0,0,1-.338-1.924q-.036-.8-.036-1.692t.036-1.692a6,6,0,0,1,.356-1.906,4.31,4.31,0,0,1,.908-1.5,4.094,4.094,0,0,1,1.478-.962,5.979,5.979,0,0,1,4.114.018,4.758,4.758,0,0,1,1.425.9,3.609,3.609,0,0,1,.82,1.087,2.653,2.653,0,0,1,.285.944.308.308,0,0,1-.09.267.428.428,0,0,1-.285.09h-.392a.324.324,0,0,1-.232-.07,1.107,1.107,0,0,1-.142-.285,3.865,3.865,0,0,0-.4-.8,2.593,2.593,0,0,0-.674-.712,3.569,3.569,0,0,0-1.015-.517,4.409,4.409,0,0,0-1.39-.2Zm8.408,3.543a2.474,2.474,0,0,1,2.422-1.23h.66a.346.346,0,0,1,.392.392v.25a.346.346,0,0,1-.392.392h-.766a2.15,2.15,0,0,0-2.315,2.315v5.52a.356.356,0,0,1-.125.285.385.385,0,0,1-.285.107h-.285a.346.346,0,0,1-.392-.392V23.9a.385.385,0,0,1,.107-.285.356.356,0,0,1,.285-.125h.285a.428.428,0,0,1,.41.41v.82Zm11,8.036a.346.346,0,0,1-.392-.392V31.53a2.66,2.66,0,0,1-.427.5,2.531,2.531,0,0,1-.623.445,3.842,3.842,0,0,1-.9.32,4.6,4.6,0,0,1-1.21.142,3.876,3.876,0,0,1-1.23-.2,3.65,3.65,0,0,1-1.015-.57,2.938,2.938,0,0,1-.694-.837,2.239,2.239,0,0,1-.25-1.05,2.326,2.326,0,0,1,.25-1.087,2.726,2.726,0,0,1,.73-.837,3.778,3.778,0,0,1,1.1-.6,6.541,6.541,0,0,1,1.443-.356l2.814-.392v-.623a1.918,1.918,0,0,0-.588-1.5,3.344,3.344,0,0,0-3.384-.142,1.64,1.64,0,0,0-.674.82.652.652,0,0,1-.178.3.4.4,0,0,1-.25.07h-.25a.368.368,0,0,1-.392-.392,1.52,1.52,0,0,1,.178-.623,2.4,2.4,0,0,1,.57-.73,3.424,3.424,0,0,1,1.033-.6,3.844,3.844,0,0,1,1.516-.267,4.493,4.493,0,0,1,1.728.285,2.775,2.775,0,0,1,1.087.748,2.4,2.4,0,0,1,.534,1,3.892,3.892,0,0,1,.16,1.087v5.93a.346.346,0,0,1-.392.392h-.3ZM60.466,31.9a3.288,3.288,0,0,0,1.14-.2,2.738,2.738,0,0,0,.962-.623,2.88,2.88,0,0,0,.64-1.033,4.178,4.178,0,0,0,.232-1.46v-.6l-2.3.32q-2.956.4-2.956,1.888a1.442,1.442,0,0,0,.2.766,1.9,1.9,0,0,0,.534.534,2.4,2.4,0,0,0,.73.32,3.724,3.724,0,0,0,.82.09Zm10.956,1.033a3.719,3.719,0,0,1-1.834-.4,3.655,3.655,0,0,1-1.158-1v4.22a.346.346,0,0,1-.392.392h-.3a.346.346,0,0,1-.392-.392V23.885a.346.346,0,0,1,.392-.392h.3a.346.346,0,0,1,.392.392v.837a3.512,3.512,0,0,1,1.158-1,4.332,4.332,0,0,1,3.579-.026,3.137,3.137,0,0,1,1.176.962,3.749,3.749,0,0,1,.64,1.354,6.734,6.734,0,0,1,.25,1.532q.018.267.018.588t-.018.588a6.9,6.9,0,0,1-.25,1.55,3.972,3.972,0,0,1-.64,1.354,3.37,3.37,0,0,1-1.176.962,3.874,3.874,0,0,1-1.745.356Zm-2.992-5.45q-.018.267-.018.694t.018.694a4.441,4.441,0,0,0,.178,1.087,2.949,2.949,0,0,0,.534.962,2.915,2.915,0,0,0,.9.712,2.839,2.839,0,0,0,1.282.267,2.807,2.807,0,0,0,1.3-.267,2.3,2.3,0,0,0,.855-.712,2.928,2.928,0,0,0,.48-1.05,6.228,6.228,0,0,0,.2-1.247q.018-.5,0-1a5.967,5.967,0,0,0-.2-1.23,2.754,2.754,0,0,0-.48-1.033,2.225,2.225,0,0,0-.855-.73,2.668,2.668,0,0,0-1.3-.285,2.73,2.73,0,0,0-1.3.285,2.834,2.834,0,0,0-.9.748,3.336,3.336,0,0,0-.517,1,4.477,4.477,0,0,0-.178,1.1Zm10.333-2.764a3.935,3.935,0,0,1,1.158-1.015,3.649,3.649,0,0,1,1.834-.392,3.851,3.851,0,0,1,1.585.3,3.1,3.1,0,0,1,1.122.837,3.527,3.527,0,0,1,.694,1.265,5.207,5.207,0,0,1,.232,1.585v5.058a.346.346,0,0,1-.392.392h-.3a.346.346,0,0,1-.392-.392v-4.97a3.29,3.29,0,0,0-.694-2.226,2.511,2.511,0,0,0-2.03-.82,2.7,2.7,0,0,0-2.048.8,3.118,3.118,0,0,0-.766,2.247v4.97a.346.346,0,0,1-.392.392h-.3a.346.346,0,0,1-.392-.392V20.5a.346.346,0,0,1,.392-.392h.3a.346.346,0,0,1,.392.392v4.22Zm13.89-4.612a5.619,5.619,0,0,1,1.888.3A3.748,3.748,0,0,1,96,21.34a4.021,4.021,0,0,1,.962,1.532,6.41,6.41,0,0,1,.392,2.155q.036.8.036,1.5t-.036,1.5a5.341,5.341,0,0,1-1.3,3.74l1.14,1.6.036.07a.305.305,0,0,1,.018.125.366.366,0,0,1-.357.357H96.5a.438.438,0,0,1-.338-.16q-.142-.142-.232-.25l-.786-1.087a5.671,5.671,0,0,1-2.494.517,4.69,4.69,0,0,1-3.437-1.193,5.3,5.3,0,0,1-1.265-3.722q-.036-.8-.036-1.5t.036-1.5a6.745,6.745,0,0,1,.374-2.155,4.326,4.326,0,0,1,.962-1.532,3.932,3.932,0,0,1,1.46-.926,5.676,5.676,0,0,1,1.906-.3Zm0,1.07a4.06,4.06,0,0,0-1.39.232,2.837,2.837,0,0,0-1.122.694,3.447,3.447,0,0,0-.766,1.23,5.928,5.928,0,0,0-.3,1.78q-.018.4-.036.748V27.2q.018.338.036.73a6.006,6.006,0,0,0,.3,1.8,3.606,3.606,0,0,0,.748,1.21,3.018,3.018,0,0,0,1.122.712,4.734,4.734,0,0,0,2.808,0,2.878,2.878,0,0,0,1.1-.712,3.28,3.28,0,0,0,.748-1.21,5.593,5.593,0,0,0,.32-1.8q.018-.392.018-.73V25.865q0-.338-.018-.748a5.563,5.563,0,0,0-.32-1.78,3.262,3.262,0,0,0-.748-1.23,2.833,2.833,0,0,0-1.122-.694,4.049,4.049,0,0,0-1.39-.232Zm8.693,10.506h6.144a.354.354,0,0,1,.4.4v.267a.35.35,0,0,1-.4.392h-6.874a.346.346,0,0,1-.392-.392V20.68a.346.346,0,0,1,.392-.392h.338a.346.346,0,0,1,.392.392V31.686ZM7.247,36.7l-1.2-.694,13.378-23.17,1.2.694Z" fill="#080808"/>
        <path id="Path_622" data-name="Path 622" d="M5.774,34.156H32.53v1.387H5.774Z" fill="#080808"/>
        <path id="Path_623" data-name="Path 623" d="M19.687,42.662,6.3,34.935,7,33.735,20.38,41.46Zm11.626-20.14L17.93,14.8l.694-1.2,13.383,7.727Z" fill="#080808"/>
        <path id="Path_624" data-name="Path 624" d="M7,22.518l-.694-1.2L19.7,13.6l.694,1.2Z" fill="#080808"/>
        <path id="Path_625" data-name="Path 625" d="M31.066,36.7,17.687,13.53l1.2-.694,13.378,23.17ZM6.835,20.4H8.22V35.852H6.835Zm23.256,0h1.387V35.852H30.09Z" fill="#080808"/>
        <path id="Path_626" data-name="Path 626" d="M19.45,42.075l-.606-1.05,11.64-6.72.606,1.05Z" fill="#080808"/>
        <path id="Path_627" data-name="Path 627" d="M33.316,36.3a2.917,2.917,0,1,1-1.069-3.985A2.92,2.92,0,0,1,33.316,36.3M10.044,22.863a2.917,2.917,0,1,1-1.069-3.985,2.92,2.92,0,0,1,1.069,3.985M5,36.3a2.918,2.918,0,1,1,3.985,1.07A2.922,2.922,0,0,1,5,36.3m23.273-13.44a2.918,2.918,0,1,1,3.985,1.07,2.922,2.922,0,0,1-3.985-1.07m-9.117,21.62a2.915,2.915,0,1,1,2.915-2.915,2.912,2.912,0,0,1-2.915,2.915m0-26.882a2.91,2.91,0,1,1,2.063-.852,2.912,2.912,0,0,1-2.063.852" fill="#080808"/>
      </g>
    </g>
  </g>
</svg>
