<svg xmlns="http://www.w3.org/2000/svg" width="73.197" height="73.224" viewBox="0 0 73.197 73.224">
  <g id="Group_358" data-name="Group 358" transform="translate(-9127.401 -1272.105)">
    <circle id="Ellipse_34" data-name="Ellipse 34" cx="23.403" cy="23.403" r="23.403" transform="translate(9132 1277.105)" fill="#ffd000"/>
    <g id="diamond" transform="translate(9127.401 1784.293)">
      <path id="Path_792" data-name="Path 792" d="M245.543-511.8a2,2,0,0,0-.457.9c-.043.286-.086,2.3-.086,4.46s.043,4.174.086,4.46a1.387,1.387,0,0,0,1.487,1.258,1.213,1.213,0,0,0,1.058-.372l.372-.386V-511.4l-.372-.386A1.587,1.587,0,0,0,245.543-511.8Z" transform="translate(-209.974 0)"/>
      <path id="Path_793" data-name="Path 793" d="M146.372-491.628a1.27,1.27,0,0,0-.372,1.1v.729l3.188,3.188,3.188,3.188h.729c1.015,0,1.473-.458,1.473-1.473v-.729l-3.188-3.188L148.2-492h-.729A1.27,1.27,0,0,0,146.372-491.628Z" transform="translate(-125.127 -17.302)"/>
      <path id="Path_794" data-name="Path 794" d="M309.188-488.812,306-485.624v.729a1.27,1.27,0,0,0,.372,1.1,1.27,1.27,0,0,0,1.1.372h.729l3.188-3.188,3.188-3.188v-.729a1.27,1.27,0,0,0-.372-1.1,1.27,1.27,0,0,0-1.1-.372h-.729Z" transform="translate(-262.253 -17.302)"/>
      <path id="Path_795" data-name="Path 795" d="M11.766-391.543c-.243.257-3,3.66-6.1,7.548C.029-376.946,0-376.917,0-376.246v.658L17.1-356.66c9.407,10.408,17.484,19.314,17.956,19.815.829.843.9.886,1.544.886s.715-.043,1.544-.886c.472-.5,8.549-9.421,17.956-19.815l17.1-18.928v-.658c0-.672-.029-.715-5.661-7.749-3.1-3.889-5.861-7.291-6.1-7.548L60.988-392H12.209Zm13.51,2.53c-.014.057-1.558,2.631-3.4,5.719l-3.36,5.59H11.537c-6.734,0-6.977-.014-6.791-.257.1-.143,2.144-2.716,4.546-5.719l4.36-5.461h5.833C22.731-389.141,25.3-389.084,25.276-389.012Zm22.331,5.461c1.844,3.088,3.388,5.661,3.4,5.719s-6.3.129-14.411.129-14.439-.057-14.411-.129,1.558-2.631,3.4-5.719l3.36-5.59h15.3Zm16.3-.129c2.4,3,4.446,5.576,4.546,5.719.186.243-.057.257-6.791.257H54.683l-3.36-5.59c-1.844-3.088-3.374-5.661-3.4-5.719s2.545-.129,5.79-.129h5.833ZM20.129-370.956c7.963,18.028,11.18,25.333,11.137,25.347-.029.043-25.076-27.62-25.962-28.664l-.486-.572h13.6Zm31.152-3.488c-1.158,2.731-14.625,33.182-14.682,33.182S23.231-371.37,21.916-374.444l-.172-.4H51.452Zm16.612.172c-.858,1-25.933,28.707-25.962,28.678s2.345-5.433,5.261-12.037S53-370.8,53.64-372.243l1.144-2.6h13.6Z" transform="translate(0 -103.005)"/>
      <path id="Path_796" data-name="Path 796" d="M192.022-251.786a1.617,1.617,0,0,0-.472,1.716c.315.958.143.929,6.734.929h5.947l.386-.372a1.609,1.609,0,0,0,0-2.116l-.386-.372h-5.947C193.223-252,192.279-251.971,192.022-251.786Z" transform="translate(-164.101 -222.991)"/>
      <path id="Path_797" data-name="Path 797" d="M306.372-251.628A1.212,1.212,0,0,0,306-250.57a1.213,1.213,0,0,0,.372,1.058,1.213,1.213,0,0,0,1.058.372,1.213,1.213,0,0,0,1.058-.372,1.213,1.213,0,0,0,.372-1.058,1.212,1.212,0,0,0-.372-1.058A1.213,1.213,0,0,0,307.43-252,1.213,1.213,0,0,0,306.372-251.628Z" transform="translate(-262.253 -222.991)"/>
    </g>
  </g>
</svg>
