<svg xmlns="http://www.w3.org/2000/svg" width="59.461" height="68.552" viewBox="0 0 59.461 68.552">
  <g id="Group_335" data-name="Group 335" transform="translate(-9362 -1005.776)">
    <circle id="Ellipse_21" data-name="Ellipse 21" cx="22.5" cy="22.5" r="22.5" transform="translate(9365 1005.776)" fill="#ffd000"/>
    <g id="thumbs-up" transform="translate(9328 1517.776)">
      <path id="Path_731" data-name="Path 731" d="M291.638-511.679a2.736,2.736,0,0,0-.335,1.46,11.406,11.406,0,0,1-3.576,7.808,9.653,9.653,0,0,1-5.424,1.795.93.93,0,0,0-.924.415,1.053,1.053,0,0,0,.027,1.58c.321.335.482.375,1.58.455a8.2,8.2,0,0,1,5.852,2.853,12.952,12.952,0,0,1,2.464,6.736c.107,1.393.362,1.754,1.245,1.754a1.114,1.114,0,0,0,1.205-1.232,15.993,15.993,0,0,1,.737-3.977c1.272-3.763,3.937-5.906,7.62-6.134,1.1-.08,1.259-.121,1.58-.455a1.069,1.069,0,0,0,.214-1.366c-.254-.482-.509-.589-1.634-.683a7.71,7.71,0,0,1-5.5-2.411,7.511,7.511,0,0,1-1.647-2.236,14.5,14.5,0,0,1-1.312-4.861c-.121-1.513-.335-1.821-1.259-1.821C292.013-512,291.852-511.933,291.638-511.679Zm1.192,7.339a12.244,12.244,0,0,0,3.9,4.46,2.95,2.95,0,0,1,.643.469,3.424,3.424,0,0,1-.683.469,11.031,11.031,0,0,0-3.79,4.326,1.393,1.393,0,0,1-.348.562,1.34,1.34,0,0,1-.308-.522,11.307,11.307,0,0,0-3.71-4.3l-.83-.562.723-.469a12.353,12.353,0,0,0,3.844-4.433c.107-.241.228-.429.281-.429S292.723-504.581,292.83-504.34Z" transform="translate(-213.953)"/>
      <path id="Path_732" data-name="Path 732" d="M179.429-486.639a.943.943,0,0,0-.429.9c0,.5.094.629,1.1,1.661,1.205,1.245,1.647,1.446,2.357,1.071.455-.241.562-.442.562-1.112,0-.415-.134-.616-1.1-1.607C180.594-487.068,180.138-487.242,179.429-486.639Z" transform="translate(-125.581 -21.678)"/>
      <path id="Path_733" data-name="Path 733" d="M218.245-485.773c-1.058,1.071-1.245,1.312-1.245,1.687a1.145,1.145,0,0,0,.388.83,1.125,1.125,0,0,0,1.46.2A10.742,10.742,0,0,0,221-485.237a1.21,1.21,0,0,0-.482-1.634C219.8-487.193,219.558-487.072,218.245-485.773Z" transform="translate(-158.492 -21.633)"/>
      <path id="Path_734" data-name="Path 734" d="M181.611-448.82a8.411,8.411,0,0,0-1.433,1.219c-1.071,1.058-1.178,1.205-1.178,1.674a1.108,1.108,0,0,0,1.205,1.165c.5,0,.629-.094,1.607-1.018,1.192-1.152,1.473-1.687,1.192-2.357a1.129,1.129,0,0,0-.6-.589,3.953,3.953,0,0,0-.482-.174C181.893-448.887,181.759-448.86,181.611-448.82Z" transform="translate(-125.581 -54.65)"/>
      <path id="Path_735" data-name="Path 735" d="M217.723-448.55a1.285,1.285,0,0,0-.723,1.192c0,.4.147.616,1.179,1.647,1.085,1.085,1.219,1.179,1.714,1.179a1.085,1.085,0,0,0,1.112-.656c.321-.589.08-1.085-1.1-2.25C218.781-448.55,218.312-448.791,217.723-448.55Z" transform="translate(-158.492 -54.879)"/>
      <path id="Path_736" data-name="Path 736" d="M83.4-409.7a1.6,1.6,0,0,0-.388.964c-.295,2.558-.9,4.1-2.009,5.21a4.828,4.828,0,0,1-3.08,1.433c-.924.121-1.138.2-1.446.536a.931.931,0,0,0-.174,1.3c.228.455.683.643,1.768.723,2.652.214,4.446,2.451,4.861,6.12.161,1.379.429,1.741,1.272,1.741s1.112-.362,1.272-1.741c.415-3.7,2.21-5.919,4.915-6.12a4.606,4.606,0,0,0,1.259-.254,1.282,1.282,0,0,0,.6-1.326c-.147-.562-.549-.79-1.741-.964a4.881,4.881,0,0,1-3.107-1.446,7.573,7.573,0,0,1-1.928-4.821c-.107-.9-.174-1.125-.469-1.379A1.192,1.192,0,0,0,83.4-409.7Zm2.544,8.223.723.67-.656.549a7.94,7.94,0,0,0-1.219,1.406l-.562.87-.643-.924a8.891,8.891,0,0,0-1.245-1.406l-.6-.5.83-.777a8.379,8.379,0,0,0,1.219-1.433l.4-.656.509.763A9.653,9.653,0,0,0,85.94-401.478Z" transform="translate(-36.472 -88.318)"/>
      <path id="Path_737" data-name="Path 737" d="M65.364-370.576a4.811,4.811,0,0,0-3.281,2.866,8.23,8.23,0,0,0-.013,3.723,7.994,7.994,0,0,1-.187,3.964c-.937,2.6-3.4,5.25-7.312,7.875a11.661,11.661,0,0,1-5.143,2.236l-.683.107-.214-.576a5.072,5.072,0,0,0-2.1-2.263l-.71-.4-4.031-.04c-3.884-.04-4.058-.027-4.821.254a4.788,4.788,0,0,0-2.571,2.571c-.295.777-.295.79-.295,13.151,0,12.16,0,12.388.281,13.111a4.965,4.965,0,0,0,2.156,2.424l.71.4h8.571l.71-.4a5.147,5.147,0,0,0,2.116-2.277c.254-.616.254-.616.79-.522a10.5,10.5,0,0,1,3.4,1.326,12.711,12.711,0,0,0,4.285,1.674c1.312.268,1.674.268,13.312.241l11.946-.04.67-.348a4.706,4.706,0,0,0,2.1-6.16l-.241-.5.442-.214a5.215,5.215,0,0,0,2.129-2.263,4.87,4.87,0,0,0,.08-3.629,5.392,5.392,0,0,1-.295-.737,1.124,1.124,0,0,1,.442-.281,4.574,4.574,0,0,0,1.045-.763,4.634,4.634,0,0,0-.027-6.669l-.643-.6.429-.817a3.4,3.4,0,0,0,.429-2.116,3.551,3.551,0,0,0-.335-1.955,5.515,5.515,0,0,0-2.25-2.25c-.616-.295-.723-.295-8.424-.335-4.3-.013-7.808-.054-7.808-.08s.308-.683.683-1.473a24.008,24.008,0,0,0,2.357-8.812c.161-3.482-.7-6.08-2.611-7.9A5.146,5.146,0,0,0,65.364-370.576Zm2.518,2.6a5.278,5.278,0,0,1,1.085.9c2.143,2.29,2.277,6.4.375,11.624-.241.656-.937,2.2-1.553,3.4a15.48,15.48,0,0,0-1.112,2.5,1.363,1.363,0,0,0,.321.683l.321.375,8.892.067c6.8.054,8.946.107,9.174.241a2.448,2.448,0,0,1,1.085,1.754,2.169,2.169,0,0,1-1,2.022c-.482.335-.5.335-4.54.4-3.669.067-4.071.094-4.312.308a1.287,1.287,0,0,0-.348.576,1.4,1.4,0,0,0,.656,1.393,42.056,42.056,0,0,0,4.634.134c4.687,0,4.875.027,5.5.777a2.05,2.05,0,0,1,.013,2.853c-.656.763-.8.79-5.651.79H77l-.375.321a.942.942,0,0,0-.375.884.942.942,0,0,0,.375.884c.375.321.388.321,3.616.321,2.866,0,3.308.04,3.79.254a2.116,2.116,0,0,1,.777,3.361c-.656.777-.8.8-4.339.8-3.616,0-3.884.054-4.138.844a1.181,1.181,0,0,0,.335,1.326c.214.187.643.228,2.531.268,2.089.04,2.317.067,2.759.348a2.165,2.165,0,0,1-.147,3.844c-.362.188-1.795.2-12.227.174L57.771-323.6,56.74-323.9a18.391,18.391,0,0,1-2.732-1.245,11.734,11.734,0,0,0-4.111-1.58l-.9-.161v-20.463l.308-.054c.161-.04.683-.134,1.165-.228a17.393,17.393,0,0,0,6.884-3.442c3.576-2.665,5.893-5.424,6.843-8.169a10.8,10.8,0,0,0,.268-5.169,8.983,8.983,0,0,1-.161-2,1.366,1.366,0,0,1,.616-1.179A2.434,2.434,0,0,1,67.882-367.978Zm-22.5,17.57a2.411,2.411,0,0,1,1.071,1.527c.161.683.161,22.86,0,23.543a2.352,2.352,0,0,1-1.071,1.513c-.429.295-.536.308-3.951.308s-3.522-.013-3.964-.308a3.321,3.321,0,0,1-.75-.75l-.308-.455v-24.159l.308-.455a3.32,3.32,0,0,1,.75-.75c.442-.295.536-.308,3.964-.308S44.955-350.689,45.383-350.408Z" transform="translate(0 -122.326)"/>
      <path id="Path_738" data-name="Path 738" d="M426.49-332.771c-.4.375-.455.71-.4,2.33.04,1.594.2,1.9,1.058,2.036a.9.9,0,0,0,.9-.281l.429-.362v-1.661c0-1.594-.013-1.687-.335-2A1.262,1.262,0,0,0,426.49-332.771Z" transform="translate(-339.564 -154.989)"/>
      <path id="Path_739" data-name="Path 739" d="M392.591-298.826a1.191,1.191,0,0,0-.134,1.848c.388.388.415.388,1.928.388,1.473,0,1.567-.013,1.955-.348a1.14,1.14,0,0,0,.08-1.728c-.308-.321-.4-.335-1.969-.335A5.606,5.606,0,0,0,392.591-298.826Z" transform="translate(-310.125 -184.475)"/>
      <path id="Path_740" data-name="Path 740" d="M443.473-298.6c-.348.362-.4.482-.335.911a1.474,1.474,0,0,0,.429.79c.321.281.482.308,1.821.308,2.009,0,2.4-.214,2.4-1.286a1.023,1.023,0,0,0-.335-.79c-.308-.321-.4-.335-1.942-.335h-1.634Z" transform="translate(-354.324 -184.475)"/>
      <path id="Path_741" data-name="Path 741" d="M426.388-281.681c-.388.388-.388.415-.388,1.955s0,1.567.388,1.955a1.273,1.273,0,0,0,.75.388,1.542,1.542,0,0,0,1.192-.6,13.551,13.551,0,0,0,.08-1.821c0-1.527-.013-1.62-.335-1.928A1.145,1.145,0,0,0,426.388-281.681Z" transform="translate(-339.503 -199.129)"/>
    </g>
  </g>
</svg>
