<svg xmlns="http://www.w3.org/2000/svg" width="79.1" height="68.552" viewBox="0 0 79.1 68.552">
  <g id="Group_500" data-name="Group 500" transform="translate(-234 -648)">
    <circle id="Ellipse_58" data-name="Ellipse 58" cx="22.5" cy="22.5" r="22.5" transform="translate(234 648)" fill="#ffd000"/>
    <g id="hassle-free" transform="translate(234 1125.942)">
      <path id="Path_1110" data-name="Path 1110" d="M15.754-477.7a10.12,10.12,0,0,0-6.5,5.39c-.865,1.838-.911,2.27-.911,8.386a53.182,53.182,0,0,0,.154,5.915,2.081,2.081,0,0,0,1.39.757,1.794,1.794,0,0,0,1.483-1c.17-.417.216-1.575.216-5.7,0-4.556.031-5.267.278-6.07A6.669,6.669,0,0,1,16.2-474.4c.927-.309,1.174-.309,27.569-.309H70.412l1,.371a6.735,6.735,0,0,1,4.417,5.576c.2,1.467.185,29.484,0,30.951a6.79,6.79,0,0,1-5.5,5.869c-.525.108-3.027.17-6.023.17a41.2,41.2,0,0,0-5.514.17c-.51.232-.68.587-.958,1.869a10.118,10.118,0,0,1-2.888,5.143,13.124,13.124,0,0,1-1.529,1.467,25.415,25.415,0,0,1-.139-3.753c0-3.444-.031-3.784-.309-4.232a1.289,1.289,0,0,0-.649-.571c-.2-.046-3.413-.124-7.151-.17-6.085-.077-6.811-.108-6.95-.34a7.068,7.068,0,0,0-2.008-1.946c-.587-.324-.88-.34-5.282-.417l-4.664-.077.788-1.39c1.467-2.595,1.575-2.981,1.591-5.174,0-1.853-.015-1.977-.479-2.95a6.176,6.176,0,0,0-2.3-2.61c-1.668-1.143-2.626-1.282-3.351-.479-.216.216-1.853,2.811-3.66,5.761-1.807,2.965-3.49,5.545-3.738,5.761-.865.71-2.394.927-2.749.371-.633-1.035-.7-1.5-.788-6.039-.077-4.185-.093-4.448-.4-4.865a1.671,1.671,0,0,0-2.626.046c-.355.541-.247,9.576.124,10.518l.263.664H.9l-.448.448L0-434.119v18.981l.4.4.4.4,5.5.046c4.7.046,5.591.077,6.054.293a26.3,26.3,0,0,1,2.487,1.714,14.673,14.673,0,0,0,4.386,2.533c.7.263,1.39.293,6.456.34,6.379.062,6.626.015,7.815-.988a4.555,4.555,0,0,0,1.436-4.247c-.139-.541-.124-.571.664-1.266a4.218,4.218,0,0,0,1.359-4.618c-.309-.88-.309-.9,0-1.158a5.551,5.551,0,0,0,.7-1.05,5.09,5.09,0,0,0,.124-3.753l-.293-.649.417-.618a3.015,3.015,0,0,0,.4-.772c0-.17,9.529-.216,10.935-.062l.8.108v4.51c0,4.294.015,4.541.309,4.911a2.068,2.068,0,0,0,.849.571c.633.216,1.313-.046,2.965-1.127a15.886,15.886,0,0,0,6.471-7.83l.324-1,5-.093c3.954-.077,5.189-.139,5.854-.34a10.3,10.3,0,0,0,7.027-7.135c.34-1.359.34-33.021,0-34.488a9.913,9.913,0,0,0-5.375-6.518c-2.116-.988-.154-.927-29.839-.911C20.387-477.936,16.479-477.9,15.754-477.7Zm9,34.349a3.225,3.225,0,0,1,.68,2.564,4.972,4.972,0,0,1-.819,2.332c-1.884,3.444-1.9,3.491-1.915,4.263a2.892,2.892,0,0,0,1.112,2.3c.51.355.571.355,5.637.432l5.112.077.4.371c.865.819.293,1.776-1.112,1.9a1.618,1.618,0,0,0-1.668,1.313,1.58,1.58,0,0,0,1.483,1.9,1.779,1.779,0,0,1,1.236,1.236,1.226,1.226,0,0,1-.386.7c-.309.324-.525.386-1.236.386-1.019,0-1.637.278-1.9.849a1.628,1.628,0,0,0,1.405,2.394,1.1,1.1,0,0,1,.741,1.9c-.293.293-.556.355-2.023.417-1.5.062-1.73.124-2.039.432a1.278,1.278,0,0,0-.355,1.1,1.476,1.476,0,0,0,1.421,1.653,1.352,1.352,0,0,1,.973.494.85.85,0,0,1-.077,1.344l-.371.386H26.132c-6.394,0-6.209.046-9.761-2.61-2.07-1.56-3.321-2.178-4.355-2.178h-.432v-14.363h1.081a6.62,6.62,0,0,0,5.1-1.961,64.691,64.691,0,0,0,3.552-5.421c1.575-2.564,2.9-4.664,2.965-4.664A1.869,1.869,0,0,1,24.758-443.355ZM8.34-424.667v7.1H3.089v-14.209H8.34Z" transform="translate(0 0)"/>
      <path id="Path_1111" data-name="Path 1111" d="M100.973-424.266a1.277,1.277,0,0,0-.664.448c-.293.386-.309.618-.309,5.529,0,5.112,0,5.128.355,5.437a1.283,1.283,0,0,0,1.56.293c.741-.309.865-.7.865-2.811v-1.761h3.089v1.946a9.7,9.7,0,0,0,.154,2.224,1.52,1.52,0,0,0,1.683.448c.9-.309.942-.633.942-5.823,0-4.757-.077-5.452-.618-5.745a1.738,1.738,0,0,0-1.822.2c-.309.324-.34.525-.34,2.162v1.807H102.78v-1.622a5.107,5.107,0,0,0-.232-2.085,2.813,2.813,0,0,0-.278-.463c-.015,0-.247-.062-.494-.124A2.5,2.5,0,0,0,100.973-424.266Z" transform="translate(-84.555 -45.376)"/>
      <path id="Path_1112" data-name="Path 1112" d="M171.99-424.112a1.466,1.466,0,0,0-.726.479c-.124.185-1.035,2.456-2.023,5.05-1.915,5-1.977,5.344-1.3,5.962a1.58,1.58,0,0,0,1.807,0,3.608,3.608,0,0,0,.649-1.112l.355-.849,1.761.046,1.776.046.309.772c.417,1.066.757,1.39,1.529,1.39a1.075,1.075,0,0,0,1-.432,1.6,1.6,0,0,0,.371-.819,106.368,106.368,0,0,0-3.83-10.147A1.889,1.889,0,0,0,171.99-424.112Z" transform="translate(-141.673 -45.468)"/>
      <path id="Path_1113" data-name="Path 1113" d="M242.629-424.176a3.412,3.412,0,0,0-3.027,4.247c.293,1.112.973,1.7,2.873,2.471.942.386,1.853.8,2.054.927.463.309.432.772-.077,1.1-.788.525-2.085.247-3.182-.664a1.347,1.347,0,0,0-2.27,1.035c0,1.529,2.857,2.95,5.267,2.61a3.525,3.525,0,0,0,3.351-3.8c-.108-1.745-1-2.626-3.768-3.691-1.544-.6-1.653-.68-1.514-1.066.216-.571,1.514-.571,2.456-.015,1.344.772,2.548.34,2.548-.911C247.34-423.326,244.9-424.484,242.629-424.176Z" transform="translate(-202.087 -45.42)"/>
      <path id="Path_1114" data-name="Path 1114" d="M306.628-424.4a3.4,3.4,0,0,0-2.8,1.884,3.656,3.656,0,0,0,.093,3.135c.463.819.757,1,2.734,1.792a8.356,8.356,0,0,1,1.946.973l.355.34-.324.4c-.618.8-1.9.7-3.1-.263-.88-.695-1.529-.726-2.162-.093-.7.71-.618,1.3.309,2.193,2.24,2.162,6.332,1.822,7.583-.633a3.137,3.137,0,0,0-.68-3.938,5.976,5.976,0,0,0-2.517-1.452c-1.282-.51-1.745-.757-1.745-.942,0-.741,1.3-.865,2.425-.247,1.2.68,2.209.51,2.517-.432.278-.849-.077-1.467-1.174-2.054a5.86,5.86,0,0,0-2.456-.726A4.156,4.156,0,0,0,306.628-424.4Z" transform="translate(-256.124 -45.206)"/>
      <path id="Path_1115" data-name="Path 1115" d="M370.973-424.252c-.927.247-.973.479-.973,5.823a47.078,47.078,0,0,0,.154,5.174c.278.726.9.9,3.12.834,1.977-.046,2.008-.046,2.378-.479a1.341,1.341,0,0,0,.139-1.637c-.278-.571-.479-.633-1.869-.633H372.78v-4.155c0-3.892-.015-4.17-.309-4.525A1.251,1.251,0,0,0,370.973-424.252Z" transform="translate(-312.855 -45.328)"/>
      <path id="Path_1116" data-name="Path 1116" d="M418.4-423.521l-.4.479v4.85c0,4.958.031,5.3.6,5.73a8.252,8.252,0,0,0,2.517.2h2.27l.309-.4a1.452,1.452,0,0,0-.062-1.915c-.324-.293-.6-.371-1.622-.432l-1.236-.077v-1.653h1.081c.958,0,1.143-.046,1.467-.386a1.557,1.557,0,0,0,.093-1.946c-.247-.309-.463-.371-1.467-.417l-1.174-.062v-1.668h.988c1.653,0,2.239-.371,2.255-1.436a1.184,1.184,0,0,0-.386-.958c-.355-.371-.448-.386-2.61-.386H418.8Z" transform="translate(-353.441 -45.611)"/>
      <path id="Path_1117" data-name="Path 1117" d="M54.3-319.619a1.6,1.6,0,0,0,.618,2.656,1.587,1.587,0,0,0,1.529-2.718A1.558,1.558,0,0,0,54.3-319.619Z" transform="translate(-45.51 -133.481)"/>
      <path id="Path_1118" data-name="Path 1118" d="M280.757-319.606a1.483,1.483,0,0,0-.587.71,60.9,60.9,0,0,0-.17,6.765c0,5.668.031,6.317.278,6.8a1.338,1.338,0,0,0,2.116.417c.278-.2.324-.448.386-2.27l.077-2.054,1.992,2.27c2.116,2.394,2.456,2.641,3.367,2.286.51-.185.741-.6.741-1.313,0-.587-.046-.649-2.209-3.1l-1.344-1.529.571-.232a4.418,4.418,0,0,0,2.981-4.2,4.234,4.234,0,0,0-1.3-3.321c-1.112-1.1-1.822-1.328-4.417-1.405C281.591-319.838,281.066-319.792,280.757-319.606ZM285-316.842a1.744,1.744,0,0,1,.093,3.259,3.522,3.522,0,0,1-1.282.232h-.834l-.108-.587a16.862,16.862,0,0,1-.093-1.853v-1.266h.849A4.273,4.273,0,0,1,285-316.842Z" transform="translate(-236.755 -133.711)"/>
      <path id="Path_1119" data-name="Path 1119" d="M219.8-318.572c-.726.4-.772.865-.71,7.753l.046,6.348.371.4a1.457,1.457,0,0,0,1.931.077l.4-.309v-5.545h1.39a6.585,6.585,0,0,0,1.915-.216,1.373,1.373,0,0,0,.4-2.255c-.278-.278-.525-.309-2.008-.309h-1.7v-3.4H223.7c1.776,0,1.884-.015,2.239-.386a1.37,1.37,0,0,0-.015-1.946c-.386-.355-.479-.371-3.043-.4C220.745-318.788,220.143-318.757,219.8-318.572Z" transform="translate(-185.238 -134.591)"/>
      <path id="Path_1120" data-name="Path 1120" d="M354.834-317.608c-.834.34-.834.309-.834,7.537v6.688l.386.371c.371.386.4.386,3.12.386a10.243,10.243,0,0,0,3-.2,1.5,1.5,0,0,0,.124-2.209c-.278-.247-.618-.309-2.085-.34l-1.761-.062V-308.8h1.544c1.452,0,1.591-.031,1.931-.386a1.184,1.184,0,0,0,.386-.958c-.015-1.112-.587-1.436-2.564-1.436h-1.3v-3.4h1.683a13.751,13.751,0,0,0,1.946-.093,1.557,1.557,0,0,0,.633-1.529c-.185-.988-.448-1.081-3.321-1.112A18.037,18.037,0,0,0,354.834-317.608Z" transform="translate(-299.326 -135.477)"/>
      <path id="Path_1121" data-name="Path 1121" d="M414.84-317.572c-.71.4-.757.927-.71,7.815l.046,6.348.432.371c.417.355.494.371,3.212.371,2.749,0,2.78,0,3.151-.386A1.321,1.321,0,0,0,420.91-305c-.448-.448-.479-.448-2.239-.448h-1.792v-3.4h1.668c1.544,0,1.7-.031,1.992-.355a1.282,1.282,0,0,0,.293-1.56c-.309-.726-.71-.865-2.5-.865h-1.452v-3.4h1.853c1.776,0,1.884-.015,2.239-.386a1.365,1.365,0,0,0,.015-1.884l-.371-.432-2.687-.031C415.783-317.788,415.18-317.757,414.84-317.572Z" transform="translate(-350.158 -135.436)"/>
    </g>
  </g>
</svg>
