<svg xmlns="http://www.w3.org/2000/svg" width="61.017" height="68.552" viewBox="0 0 61.017 68.552">
  <g id="Group_502" data-name="Group 502" transform="translate(-1218.809 -691.5)">
    <circle id="Ellipse_60" data-name="Ellipse 60" cx="22.5" cy="22.5" r="22.5" transform="translate(1220.433 697.5)" fill="#ffd000"/>
    <g id="link" transform="translate(1190.336 1203.25)">
      <path id="Path_1127" data-name="Path 1127" d="M57.278-511.6a5.553,5.553,0,0,0-3.687,6.128c.121.67.121.872-.013.952-.08.054-3.594,2.078-7.8,4.505l-7.643,4.425-.563-.456a5.622,5.622,0,0,0-4.479-1.274A5.452,5.452,0,0,0,30-488.144a5.7,5.7,0,0,0,2.467,1.5l.362.094v18.169l-.563.161a5.108,5.108,0,0,0-2.306,1.475,5.466,5.466,0,0,0,3.164,9.145,5.556,5.556,0,0,0,4.452-1.3l.5-.456,7.8,4.505c4.291,2.481,7.817,4.519,7.831,4.532a7.154,7.154,0,0,1-.121.872,5.527,5.527,0,0,0,3.084,5.873,3.87,3.87,0,0,0,2.306.375,3.87,3.87,0,0,0,2.306-.375,5.527,5.527,0,0,0,3.084-5.873,7.153,7.153,0,0,1-.121-.872c.013-.013,3.54-2.052,7.831-4.532l7.8-4.505.5.456a5.556,5.556,0,0,0,4.452,1.3,5.436,5.436,0,0,0,3.057-1.542,5.465,5.465,0,0,0,.107-7.6,5.142,5.142,0,0,0-2.293-1.475l-.577-.161v-18.169l.362-.094a5.7,5.7,0,0,0,2.467-1.5,5.452,5.452,0,0,0-3.084-9.172,5.622,5.622,0,0,0-4.479,1.274l-.563.456-7.643-4.425c-4.2-2.427-7.723-4.452-7.8-4.505-.134-.08-.134-.282-.013-.952a5.572,5.572,0,0,0-3.111-5.9,4.309,4.309,0,0,0-2.078-.375A6.313,6.313,0,0,0,57.278-511.6Zm3.111,2.239a3.579,3.579,0,0,1,1.77,2.092,3.27,3.27,0,0,1-1.5,3.728,2.359,2.359,0,0,1-1.676.4,2.359,2.359,0,0,1-1.676-.4,3.337,3.337,0,0,1-1.569-2.239,2.349,2.349,0,0,1,.067-1.488,3.626,3.626,0,0,1,1.73-2.078A3.7,3.7,0,0,1,60.389-509.357Zm-4.975,7.147a6.015,6.015,0,0,0,2.266,1.153c.2,0,.228.188.228,2.145,0,2.105.013,2.159.335,2.481a1.045,1.045,0,0,0,.737.335,1.045,1.045,0,0,0,.737-.335c.322-.322.335-.375.335-2.481,0-1.958.027-2.145.241-2.145a6.211,6.211,0,0,0,2.266-1.153,1.87,1.87,0,0,1,.67-.416c.067.027,3.58,2.052,7.831,4.505l7.737,4.452-.134.563a10.018,10.018,0,0,0,.04,2.762c.04.121-.55.536-1.622,1.167a13.876,13.876,0,0,0-1.917,1.274,1.087,1.087,0,0,0,.134,1.354c.416.469,1.046.308,2.8-.7a18.308,18.308,0,0,1,1.716-.939,3.5,3.5,0,0,1,.67.456,6.016,6.016,0,0,0,2.266,1.153c.215,0,.228.523.228,9.118s-.013,9.118-.228,9.118a6.016,6.016,0,0,0-2.266,1.153,4.377,4.377,0,0,1-.644.456c-.04,0-.818-.429-1.73-.939-1.757-1.006-2.4-1.167-2.816-.711a1.138,1.138,0,0,0-.188,1.247,7.394,7.394,0,0,0,1.9,1.354c1.126.657,1.73,1.086,1.69,1.207a10.018,10.018,0,0,0-.04,2.762l.134.563-7.737,4.452c-4.251,2.454-7.764,4.479-7.831,4.505a1.87,1.87,0,0,1-.67-.416,6.211,6.211,0,0,0-2.266-1.153c-.215,0-.241-.188-.241-2.145,0-2.105-.013-2.159-.335-2.481a.985.985,0,0,0-1.475,0c-.322.322-.335.375-.335,2.481,0,1.958-.027,2.145-.228,2.145a6.152,6.152,0,0,0-2.279,1.153,1.87,1.87,0,0,1-.67.416c-.067-.027-3.58-2.052-7.831-4.505l-7.737-4.452.134-.563a10.018,10.018,0,0,0-.04-2.762c-.04-.121.563-.55,1.689-1.207a7.394,7.394,0,0,0,1.9-1.354,1.138,1.138,0,0,0-.188-1.247c-.416-.456-1.059-.295-2.816.711-.912.523-1.689.939-1.73.939a4.378,4.378,0,0,1-.644-.456,6.072,6.072,0,0,0-2.253-1.153c-.228,0-.241-.523-.241-9.118s.013-9.118.241-9.118a6.072,6.072,0,0,0,2.253-1.153,3.5,3.5,0,0,1,.67-.456,18.306,18.306,0,0,1,1.716.939c1.8,1.032,2.373,1.167,2.829.67a1.208,1.208,0,0,0,.027-1.435,21.481,21.481,0,0,0-1.864-1.193c-1.059-.617-1.636-1.019-1.6-1.14a10.018,10.018,0,0,0,.04-2.762l-.134-.563,7.8-4.505c4.277-2.467,7.8-4.492,7.831-4.492A6.393,6.393,0,0,1,55.414-502.21ZM35.4-494.889a3.32,3.32,0,0,1,1.395,4.626,3.319,3.319,0,0,1-5.913-.4A3.326,3.326,0,0,1,35.4-494.889Zm49.545-.2a3.3,3.3,0,0,1,1.488,5.4,3.274,3.274,0,0,1-5.256-.577,3.348,3.348,0,0,1,2.145-4.908A2.521,2.521,0,0,1,84.94-495.09ZM35.583-465.872a3.327,3.327,0,0,1-.188,5.846,3.306,3.306,0,0,1-4.747-2.937,3.28,3.28,0,0,1,1.984-3.057A3.236,3.236,0,0,1,35.583-465.872Zm49.746-.134a3.268,3.268,0,0,1,.831,5.511,3.231,3.231,0,0,1-4.492-.215,2.879,2.879,0,0,1-.9-2.333,2.467,2.467,0,0,1,.375-1.569A3.216,3.216,0,0,1,85.329-466.007ZM60.671-451.378a3.362,3.362,0,0,1,1.555,2.239,3.259,3.259,0,0,1-3.245,3.862,3.243,3.243,0,0,1-3.138-2.253,2.6,2.6,0,0,1-.013-1.984,3.252,3.252,0,0,1,1.7-2A3.262,3.262,0,0,1,60.671-451.378Z" transform="translate(0)"/>
      <path id="Path_1128" data-name="Path 1128" d="M144.244-377.812a6.37,6.37,0,0,0-3.982,3.392,4.27,4.27,0,0,0-.5,2.655A5.07,5.07,0,0,0,140.892-368l.523.7-.737.51a8.917,8.917,0,0,0-3.62,6.3c-.107,1.26,0,1.636.51,1.85.872.362,1.6-.174,1.6-1.18a7.2,7.2,0,0,1,3.58-5.726l.684-.349.992.255a5.434,5.434,0,0,0,1.8.2l.818-.054.308.617a7.111,7.111,0,0,0,.67,1.086l.389.483-.925.711a9,9,0,0,0-3.433,6.275c-.107,1.006.08,1.555.6,1.783a1.062,1.062,0,0,0,1.274-.322,3.3,3.3,0,0,0,.268-1.167,7.016,7.016,0,0,1,3.553-5.471c.724-.375.764-.375,1.287-.174a9.118,9.118,0,0,0,3.9,0c.536-.215.563-.2,1.274.174a7.156,7.156,0,0,1,3.553,5.444,3.4,3.4,0,0,0,.268,1.193,1.06,1.06,0,0,0,1.8-.228c.362-.872-.255-3.54-1.167-5.055a10.614,10.614,0,0,0-2.561-2.735l-.577-.389.4-.5a7.724,7.724,0,0,0,.684-1.113l.308-.617.818.054a5.434,5.434,0,0,0,1.8-.2l.992-.255.684.349a7.756,7.756,0,0,1,2.735,2.776,7.038,7.038,0,0,1,.845,2.963c0,.63.4,1.22.872,1.26.939.08,1.274-.268,1.274-1.3a8.967,8.967,0,0,0-3.5-6.812l-.885-.657.523-.684a5.123,5.123,0,0,0,1.113-3.768,4.27,4.27,0,0,0-.5-2.655,6.138,6.138,0,0,0-5.766-3.58,6.224,6.224,0,0,0-5.524,3.339l-.349.684H151.9l-.349-.7a6.719,6.719,0,0,0-4.09-3.178A8.941,8.941,0,0,0,144.244-377.812Zm3.473,2.347a4.8,4.8,0,0,1,1.877,1.73l.295.536-.456.295a7.351,7.351,0,0,0-2.092,2.347,6.986,6.986,0,0,0-.67,2.44c0,.523-.295.644-1.18.51a4.284,4.284,0,0,1-3.312-2.494,3.026,3.026,0,0,1-.308-1.85,3.75,3.75,0,0,1,1.26-2.776,3.717,3.717,0,0,1,3-1.086A3.739,3.739,0,0,1,147.717-375.466Zm13.771-.107a4.324,4.324,0,0,1,2.333,2.333,4.177,4.177,0,0,1-3.366,5.632c-.885.134-1.18.013-1.18-.51a6.948,6.948,0,0,0-.684-2.467A9.079,9.079,0,0,0,156.405-373c-.751-.4.925-2.266,2.467-2.735A4.9,4.9,0,0,1,161.487-375.573Zm-6.7,4.184a4.2,4.2,0,0,1,2.306,3.929,4.176,4.176,0,0,1-2.347,3.5,4.119,4.119,0,0,1-4.787-.925,3.718,3.718,0,0,1-1.073-2.856,3.027,3.027,0,0,1,.322-1.676,4.692,4.692,0,0,1,2.7-2.293A4.937,4.937,0,0,1,154.783-371.389Z" transform="translate(-93.992 -115.816)"/>
      <path id="Path_1129" data-name="Path 1129" d="M185.822-178.714a.872.872,0,0,0-.322.818.872.872,0,0,0,.322.818,1.068,1.068,0,0,0,1.757-.818A1.068,1.068,0,0,0,185.822-178.714Z" transform="translate(-135.972 -288.164)"/>
      <path id="Path_1130" data-name="Path 1130" d="M211.32-178.614a1.058,1.058,0,0,0,1.462,1.529.834.834,0,0,0,.349-.791A1.048,1.048,0,0,0,211.32-178.614Z" transform="translate(-158.037 -288.184)"/>
      <path id="Path_1131" data-name="Path 1131" d="M237.32-178.614a1.058,1.058,0,0,0,1.462,1.529.834.834,0,0,0,.349-.791A1.048,1.048,0,0,0,237.32-178.614Z" transform="translate(-180.551 -288.184)"/>
      <path id="Path_1132" data-name="Path 1132" d="M289.192-178.732a1.113,1.113,0,0,0,.054,1.6c.322.255.536.282,2.2.282,2.2,0,2.481-.121,2.481-1.073a.872.872,0,0,0-.322-.818c-.268-.228-.55-.255-2.212-.255C289.661-179,289.46-178.973,289.192-178.732Z" transform="translate(-225.491 -288.133)"/>
      <path id="Path_1133" data-name="Path 1133" d="M185.724-149.623A1.271,1.271,0,0,0,185-148.6a1.264,1.264,0,0,0,.282.644l.268.349h17.941l.268-.349a.944.944,0,0,0-.04-1.354l-.322-.375-8.7-.027C189.921-149.73,185.872-149.69,185.724-149.623Z" transform="translate(-135.539 -313.488)"/>
    </g>
  </g>
</svg>
