<svg xmlns="http://www.w3.org/2000/svg" width="68.54" height="68.552" viewBox="0 0 68.54 68.552">
  <g id="Group_503" data-name="Group 503" transform="translate(-1144 -691.5)">
    <circle id="Ellipse_20" data-name="Ellipse 20" cx="22.5" cy="22.5" r="22.5" transform="translate(1148.433 691.5)" fill="#ffd000"/>
    <g id="productivity" transform="translate(1143.912 1203.5)">
      <path id="Path_1134" data-name="Path 1134" d="M12.072-511.8a16.656,16.656,0,0,0-6.132,2.731,18.561,18.561,0,0,0-3.334,3.495,16.155,16.155,0,0,0-2.4,6.052,20.311,20.311,0,0,0,.241,6A14.972,14.972,0,0,0,5.9-485.3a15.055,15.055,0,0,0,7.337,2.959l.5.08v8.93c0,8.69.013,8.944.281,9.533a3.892,3.892,0,0,0,1.66,1.781c.469.254.79.295,2.785.335,2.584.054,2.959-.027,3.254-.736a.9.9,0,0,0,0-.9,1.4,1.4,0,0,0-.455-.6,9.949,9.949,0,0,0-2.3-.147H16.919l-.388-.388-.388-.388v-17.419l.509-.08a14.706,14.706,0,0,0,7.27-2.946,14.685,14.685,0,0,0,5.811-10.149l.08-.5H38.9v.415c0,1.044.75,1.741,2.008,1.861l.723.067.348.937c.2.509.428,1.071.522,1.245.147.268.121.362-.254.79a2.12,2.12,0,0,0-.482,2.423,17.812,17.812,0,0,0,3.2,3.093,2.3,2.3,0,0,0,2.464-.683c.241-.228.321-.241.6-.094.161.094.736.321,1.245.522l.937.348.067.723c.121,1.259.79,2.008,1.794,2.008h.482v17.433l-.388.388-.388.388H49.749a9.949,9.949,0,0,0-2.3.147,1.4,1.4,0,0,0-.455.6.9.9,0,0,0,0,.9c.295.71.669.79,3.254.736,1.995-.04,2.316-.08,2.785-.335a3.892,3.892,0,0,0,1.66-1.781c.268-.589.281-.844.281-9.546v-8.931h.509c.991,0,1.633-.71,1.754-1.915l.08-.79,1.138-.455c.629-.254,1.218-.509,1.312-.549s.375.107.6.321a1.868,1.868,0,0,0,2.2.562,17.812,17.812,0,0,0,3.2-3.093,2.138,2.138,0,0,0-.576-2.531l-.335-.361.308-.576c.161-.321.388-.884.522-1.259l.228-.669.8-.08a1.848,1.848,0,0,0,1.66-.884c.214-.321.254-.656.254-2.584,0-1.955-.027-2.263-.268-2.638-.335-.562-.7-.736-1.66-.83l-.79-.08-.228-.669a12.012,12.012,0,0,0-.522-1.245l-.295-.576.415-.482a2.12,2.12,0,0,0,.482-2.423,21.972,21.972,0,0,0-3.12-3.093,2.451,2.451,0,0,0-1.553-.027,3.3,3.3,0,0,0-.8.549l-.482.415-.576-.295a12.023,12.023,0,0,0-1.245-.522l-.669-.228-.08-.79c-.094-.964-.268-1.326-.83-1.66-.375-.241-.683-.268-2.638-.268-1.928,0-2.263.04-2.584.254a1.848,1.848,0,0,0-.884,1.66l-.08.8-.669.228a12.024,12.024,0,0,0-1.245.522l-.576.295-.482-.415a2.12,2.12,0,0,0-2.423-.482,21.972,21.972,0,0,0-3.093,3.12,2.19,2.19,0,0,0,.683,2.437c.295.2.308.187-.335,1.754l-.469,1.138-.79.08c-1.205.12-1.915.763-1.915,1.754v.509H29.813l-.08-.509a15.059,15.059,0,0,0-2.959-7.324,14.925,14.925,0,0,0-8.221-5.449A22.362,22.362,0,0,0,12.072-511.8Zm6.346,2.678a12.5,12.5,0,0,1,5.141,3,12.732,12.732,0,0,1,3.387,5.6,8.761,8.761,0,0,1,.362,3.32,9.061,9.061,0,0,1-.295,3.2,12.5,12.5,0,0,1-6.654,8.047,9.863,9.863,0,0,1-5.49,1.192,8.761,8.761,0,0,1-3.32-.362,12.432,12.432,0,0,1-5.235-3.026,12.8,12.8,0,0,1-3.374-5.5A8.015,8.015,0,0,1,2.566-497a9.513,9.513,0,0,1,.817-4.82,13.1,13.1,0,0,1,4.807-5.8,13.971,13.971,0,0,1,3.936-1.687c.4-.08.857-.174,1-.2s1.138-.04,2.209-.027A8.828,8.828,0,0,1,18.419-509.121Zm36.418,0a2.307,2.307,0,0,0,.683,1.62,5.13,5.13,0,0,0,1.259.629c.522.187,1.326.522,1.808.75,1.285.616,2.008.549,2.852-.228l.375-.348.75.763.763.75-.348.375c-.777.844-.844,1.567-.228,2.852.228.482.562,1.285.75,1.807a5.128,5.128,0,0,0,.629,1.259,2.307,2.307,0,0,0,1.62.683h.469v2.142h-.455a2.251,2.251,0,0,0-2.236,1.861,18.109,18.109,0,0,1-.75,1.821c-.643,1.352-.589,2.062.2,2.919l.348.375-.763.75-.763.763-.455-.442a1.574,1.574,0,0,0-1.192-.522,2.467,2.467,0,0,0-1.647.415,16.55,16.55,0,0,1-1.794.75,4.672,4.672,0,0,0-1.178.549,2.4,2.4,0,0,0-.7,1.674v.469H52.695v-.536a2.166,2.166,0,0,0-.9-1.754,7.452,7.452,0,0,0-1.111-.455,16.632,16.632,0,0,1-1.633-.683c-1.326-.669-2.089-.616-2.959.187l-.375.348-.75-.763-.763-.75.348-.375c.8-.87.857-1.633.187-2.959a16.635,16.635,0,0,1-.683-1.633,7.672,7.672,0,0,0-.482-1.151,2.254,2.254,0,0,0-1.794-.857h-.469v-2.142h.469a2.4,2.4,0,0,0,1.674-.7,4.67,4.67,0,0,0,.549-1.178,16.558,16.558,0,0,1,.75-1.794,2.466,2.466,0,0,0,.415-1.647,1.574,1.574,0,0,0-.522-1.192l-.442-.455.763-.763.75-.763.375.348c.857.79,1.567.844,2.919.2a17.926,17.926,0,0,1,1.808-.75A4.67,4.67,0,0,0,52-507.448a2.4,2.4,0,0,0,.7-1.674v-.469h2.142Z" transform="translate(0)"/>
      <path id="Path_1135" data-name="Path 1135" d="M42.087-477.643a9.953,9.953,0,0,0-5.074,2.825,9.751,9.751,0,0,0-3.013,7.3,9.817,9.817,0,0,0,2.946,7.244,10.321,10.321,0,0,0,4.124,2.571,7.115,7.115,0,0,0,3.106.415,8.419,8.419,0,0,0,4.753-1,9.853,9.853,0,0,0,4.606-4.606,9.183,9.183,0,0,0,1.044-4.084,10.227,10.227,0,0,0-7.123-10.39A13.223,13.223,0,0,0,42.087-477.643Zm3.856,2.37a10.346,10.346,0,0,1,1.821.683,8.286,8.286,0,0,1,3.307,2.972A7.882,7.882,0,0,1,48.688-461a6.857,6.857,0,0,1-4.445,1.312,7.1,7.1,0,0,1-5.5-2.29,7.647,7.647,0,0,1-2.33-5.583,8.053,8.053,0,0,1,5.972-7.645A9.959,9.959,0,0,1,45.943-475.273Z" transform="translate(-29.372 -29.617)"/>
      <path id="Path_1136" data-name="Path 1136" d="M102.348-443.677l-.348.361v5.5l1.513,1.513c1.312,1.312,1.567,1.513,1.955,1.513A1.332,1.332,0,0,0,106.686-436c0-.348-.187-.616-1.138-1.58l-1.138-1.165v-2.182c0-2.182-.067-2.571-.522-2.919A1.306,1.306,0,0,0,102.348-443.677Z" transform="translate(-88.267 -58.871)"/>
      <path id="Path_1137" data-name="Path 1137" d="M347.338-460.678a9.585,9.585,0,0,0-3.347,1.767,8.986,8.986,0,0,0-2.316,3.562,9.767,9.767,0,0,0,.027,5.008,8.141,8.141,0,0,0,5.128,5.128,9.767,9.767,0,0,0,5.008.027A8.985,8.985,0,0,0,355.4-447.5a9.163,9.163,0,0,0,1.781-3.414,9.974,9.974,0,0,0,0-3.883,8.205,8.205,0,0,0-5.891-5.891A10.315,10.315,0,0,0,347.338-460.678Zm3.655,2.464a5.321,5.321,0,0,1,2.8,1.982,5.485,5.485,0,0,1,.054,6.681,5.591,5.591,0,0,1-5.771,2.142,5.6,5.6,0,0,1-2.1-9.908A5.55,5.55,0,0,1,350.993-458.215Z" transform="translate(-295.58 -44.279)"/>
      <path id="Path_1138" data-name="Path 1138" d="M392.388-409.58a1.118,1.118,0,0,0-.388.817,1.342,1.342,0,0,0,1.205,1.205,1.4,1.4,0,0,0,1.205-1.125A1.166,1.166,0,0,0,392.388-409.58Z" transform="translate(-339.439 -88.375)"/>
      <path id="Path_1139" data-name="Path 1139" d="M247.6-281.712a1.039,1.039,0,0,0-.442.455,18.492,18.492,0,0,0,0,4.633,1.4,1.4,0,0,0,.6.455.92.92,0,0,0,.91,0,1.4,1.4,0,0,0,.6-.455,18.386,18.386,0,0,0,0-4.619A1.246,1.246,0,0,0,247.6-281.712Z" transform="translate(-213.864 -199.332)"/>
      <path id="Path_1140" data-name="Path 1140" d="M157.563-244.76a1.244,1.244,0,0,0-.763,1.165c0,.455.134.629,1.54,2.022,1.406,1.419,1.567,1.54,2.022,1.54a1.173,1.173,0,0,0,1.151-1.58,14.83,14.83,0,0,0-3.013-3.066C158.005-244.907,157.938-244.907,157.563-244.76Z" transform="translate(-135.73 -231.37)"/>
      <path id="Path_1141" data-name="Path 1141" d="M322.834-244.319a13.973,13.973,0,0,0-3.16,3.039,1.158,1.158,0,0,0,1.084,1.7c.455,0,.616-.12,2.022-1.54s1.54-1.567,1.54-2.022A1.179,1.179,0,0,0,322.834-244.319Z" transform="translate(-276.686 -231.825)"/>
      <path id="Path_1142" data-name="Path 1142" d="M187.192-221.551a10.436,10.436,0,0,0-7.391,6.333,9.369,9.369,0,0,0-.656,4.311,9.8,9.8,0,0,0,2.49,6.293,6.876,6.876,0,0,1,1.955,4.231c.268,2.1.777,2.946,2.142,3.561.469.214.924.254,3.7.254,3.12,0,3.16,0,3.843-.348,1.285-.629,1.727-1.486,2.022-3.789a6.714,6.714,0,0,1,1.874-3.9,11.356,11.356,0,0,0,2.223-4.084,14.076,14.076,0,0,0,.214-4.566,10.464,10.464,0,0,0-7.043-8.033,7.723,7.723,0,0,0-2.812-.4A11.029,11.029,0,0,0,187.192-221.551Zm4.084,2.437a8.023,8.023,0,0,1,6.038,7.685,7.776,7.776,0,0,1-2.089,5.315,8.838,8.838,0,0,0-2.41,5.436c-.08.884-.161,1.151-.4,1.392-.308.295-.375.308-3,.308-2.678,0-2.691,0-3.013-.335a1.048,1.048,0,0,1-.335-.857,9.359,9.359,0,0,0-2.276-5.7,7.971,7.971,0,0,1-2.236-6.025,7.413,7.413,0,0,1,2.3-5.1,7.961,7.961,0,0,1,3.682-2.115A8.783,8.783,0,0,1,191.276-219.115Z" transform="translate(-155.063 -251.433)"/>
      <path id="Path_1143" data-name="Path 1143" d="M159.867-81.657a13.117,13.117,0,0,0-3,3.16c-.054.977.321,1.446,1.138,1.446.522,0,.629-.08,2.035-1.513a15.141,15.141,0,0,0,1.58-1.754,1.223,1.223,0,0,0-.669-1.366C160.4-81.911,160.389-81.911,159.867-81.657Z" transform="translate(-135.784 -372.556)"/>
      <path id="Path_1144" data-name="Path 1144" d="M320.149-81.684a1.187,1.187,0,0,0-.629,1.312,9.8,9.8,0,0,0,1.566,1.808c1.406,1.433,1.513,1.513,2.035,1.513.817,0,1.192-.469,1.138-1.446a12.336,12.336,0,0,0-3.026-3.16A.9.9,0,0,0,320.149-81.684Z" transform="translate(-276.639 -372.556)"/>
      <path id="Path_1145" data-name="Path 1145" d="M213.635-17.875A1.138,1.138,0,0,0,213.261-16l.321.335h10.2l.321-.335a1.143,1.143,0,0,0-.4-1.888A61.657,61.657,0,0,0,213.635-17.875Z" transform="translate(-184.331 -427.782)"/>
    </g>
  </g>
</svg>
