<svg xmlns="http://www.w3.org/2000/svg" xmlns:xlink="http://www.w3.org/1999/xlink" width="570" height="180" viewBox="0 0 570 180">
  <defs>
    <clipPath id="clip-path">
      <rect id="Rectangle_214" data-name="Rectangle 214" width="120" height="60" transform="translate(1044 2062)" fill="#dcd5d5"/>
    </clipPath>
    <clipPath id="clip-path-2">
      <rect id="Rectangle_215" data-name="Rectangle 215" width="120" height="60" transform="translate(1044 2141)" fill="#dcd5d5"/>
    </clipPath>
    <clipPath id="clip-path-3">
      <rect id="Rectangle_216" data-name="Rectangle 216" width="120" height="60" transform="translate(1044 2056)" fill="#dcd5d5"/>
    </clipPath>
    <clipPath id="clip-path-4">
      <rect id="Rectangle_217" data-name="Rectangle 217" width="120" height="60" transform="translate(1044 2137)" fill="#dcd5d5"/>
    </clipPath>
    <clipPath id="clip-path-5">
      <rect id="Rectangle_218" data-name="Rectangle 218" width="120" height="60" transform="translate(1072 2015)" fill="#dcd5d5"/>
    </clipPath>
    <clipPath id="clip-path-6">
      <rect id="Rectangle_219" data-name="Rectangle 219" width="120" height="60" transform="translate(1087 2129)" fill="#dcd5d5"/>
    </clipPath>
    <clipPath id="clip-path-7">
      <rect id="Rectangle_221" data-name="Rectangle 221" width="120" height="60" transform="translate(15100 2111)" fill="#dcd5d5"/>
    </clipPath>
    <clipPath id="clip-path-8">
      <rect id="Rectangle_224" data-name="Rectangle 224" width="120" height="60" transform="translate(15159 2146)" fill="#dcd5d5"/>
    </clipPath>
    <clipPath id="clip-path-9">
      <rect id="Rectangle_223" data-name="Rectangle 223" width="100" height="25" transform="translate(0.094 -0.244)" fill="#fff"/>
    </clipPath>
    <clipPath id="clip-path-10">
      <rect id="Rectangle_186" data-name="Rectangle 186" width="120" height="60" transform="translate(15515 1996)" fill="#dcd5d5"/>
    </clipPath>
    <clipPath id="clip-path-11">
      <rect id="Rectangle_225" data-name="Rectangle 225" width="120" height="60" transform="translate(15518 2078)" fill="#dcd5d5"/>
    </clipPath>
    <clipPath id="clip-path-12">
      <rect id="Rectangle_226" data-name="Rectangle 226" width="120" height="60" transform="translate(15560 1980)" fill="#dcd5d5"/>
    </clipPath>
    <clipPath id="clip-path-13">
      <rect id="Rectangle_227" data-name="Rectangle 227" width="120" height="60" transform="translate(15567 2090)" fill="#dcd5d5"/>
    </clipPath>
  </defs>
  <g id="Group_463" data-name="Group 463" transform="translate(-435 -1775)">
    <g id="Mask_Group_96" data-name="Mask Group 96" transform="translate(-609 -287)" clip-path="url(#clip-path)">
      <g id="Group_449" data-name="Group 449" transform="translate(1044 2078.852)">
        <path id="Path_928" data-name="Path 928" d="M75.662,22.1l1.321-3.088A8.863,8.863,0,0,0,82.2,20.654c1.384,0,2.265-.535,2.265-1.355-.032-2.269-8.335-.5-8.4-6.209-.032-2.9,2.548-5.137,6.2-5.137A9.5,9.5,0,0,1,88.15,9.718l-1.235,3.154a9.278,9.278,0,0,0-4.836-1.547c-1.132,0-1.887.535-1.887,1.229.032,2.238,8.4,1.008,8.493,6.461,0,2.962-2.517,5.043-6.1,5.043a11.846,11.846,0,0,1-6.92-1.954M128.275,17.9a3.845,3.845,0,1,1,0-3.783l3.674-2.039a8.052,8.052,0,1,0,0,7.861ZM91.068,23.742h4.592V1.25H91.069Zm43.2-22.492V23.742h4.592V17l5.442,6.739h5.87l-6.92-8.005,6.417-7.47H144.05l-5.19,6.21V1.25ZM109.809,8.268V10.1a5.411,5.411,0,0,0-4.561-2.143c-4.026,0-7.2,3.562-7.2,8.037s3.177,8.068,7.2,8.068a5.411,5.411,0,0,0,4.561-2.143v1.828H114.4V8.268Zm0,9.66a4.226,4.226,0,0,1-3.585,1.922,3.845,3.845,0,0,1,0-7.689,4.207,4.207,0,0,1,3.585,1.985Z" transform="translate(-41.53 -0.605)" fill="#080808"/>
        <path id="Path_929" data-name="Path 929" d="M9.88.148a2.7,2.7,0,0,0,0,5.4h2.695v-2.7A2.7,2.7,0,0,0,9.88.148m0,7.2H2.694a2.7,2.7,0,0,0,0,5.4H9.881a2.7,2.7,0,0,0,0-5.4" transform="translate(0 0)" fill="#080808"/>
        <path id="Path_930" data-name="Path 930" d="M44.433,10.048a2.695,2.695,0,1,0-5.389,0v2.7h2.694a2.7,2.7,0,0,0,2.695-2.7m-7.186,0v-7.2a2.695,2.695,0,1,0-5.389,0v7.2a2.695,2.695,0,1,0,5.389,0" transform="translate(-17.486)" fill="#080808"/>
        <path id="Path_931" data-name="Path 931" d="M34.552,44.669a2.7,2.7,0,0,0,0-5.4H31.858v2.7a2.7,2.7,0,0,0,2.694,2.7m0-7.2h7.186a2.7,2.7,0,0,0,0-5.4H34.552a2.7,2.7,0,0,0,0,5.4" transform="translate(-17.486 -17.521)" fill="#080808"/>
        <g id="Group_448" data-name="Group 448" transform="translate(0 14.548)">
          <path id="Path_932" data-name="Path 932" d="M0,34.769a2.695,2.695,0,1,0,5.389,0v-2.7H2.694A2.7,2.7,0,0,0,0,34.769m7.186,0v7.2a2.695,2.695,0,1,0,5.389,0v-7.2a2.695,2.695,0,1,0-5.389,0" transform="translate(0 -32.069)" fill="#080808"/>
        </g>
      </g>
    </g>
    <g id="Mask_Group_97" data-name="Mask Group 97" transform="translate(-609 -306)" clip-path="url(#clip-path-2)">
      <path id="path833" d="M80.021,6.623a4.766,4.766,0,0,1,.539,2.215l.053,1.105V17.67l.054,1.106a3.393,3.393,0,0,0,3.262,3.256l1.1.054V9.943l.054-1.105a4.838,4.838,0,0,1,.548-2.224,4.413,4.413,0,0,1,7.641.014,4.862,4.862,0,0,1,.538,2.21l.054,1.1V17.67l.054,1.106a3.378,3.378,0,0,0,3.262,3.256l1.1.054V8.838A8.832,8.832,0,0,0,82.825,3,8.826,8.826,0,0,0,71.251,1.519,6.093,6.093,0,0,0,67.361,0V22.087l1.105-.054a3.327,3.327,0,0,0,3.256-3.256l.059-1.106V9.943l.054-1.105a4.842,4.842,0,0,1,.539-2.219,4.418,4.418,0,0,1,7.645,0Zm-75.6,15.41,1.105.053H22.085l-.055-1.1a3.418,3.418,0,0,0-3.257-3.261l-1.105-.054H7.732L20.98,4.417l-.054-1.1A3.34,3.34,0,0,0,17.669.056L16.564.006,0,0,.054,1.106A3.424,3.424,0,0,0,3.31,4.363l1.106.054h9.937L1.105,17.671l.054,1.1a3.371,3.371,0,0,0,3.257,3.256Zm58.609-18.8A11.049,11.049,0,1,1,55.208,0a11.042,11.042,0,0,1,7.817,3.234ZM59.9,6.361a6.626,6.626,0,1,1-9.371,0A6.629,6.629,0,0,1,59.9,6.361ZM32.032,0a11.05,11.05,0,1,1-.014,0ZM36.71,6.359a6.627,6.627,0,1,1-9.371,0,6.629,6.629,0,0,1,9.371,0Z" transform="translate(1044 2160)" fill="#080808" fill-rule="evenodd"/>
    </g>
    <g id="Mask_Group_98" data-name="Mask Group 98" transform="translate(-609 -161)" clip-path="url(#clip-path-3)">
      <g id="_94-945585_github-logo-png-transparent-png" data-name="94-945585_github-logo-png-transparent-png" transform="translate(1023.807 2273.994)">
        <path id="Path_933" data-name="Path 933" d="M30.868-200.783a12.923,12.923,0,0,0-5.476,2.394,12.906,12.906,0,0,0-4.418,14.761,13.013,13.013,0,0,0,7.169,7.513c.833.344,1.111.41,1.389.3.357-.119.357-.145.4-1.508l.04-1.389h-1.3A3.412,3.412,0,0,1,26.821-179a3.152,3.152,0,0,1-1.415-1.693,5.659,5.659,0,0,0-1.018-1.283c-.45-.41-.767-.82-.714-.886.251-.41,1.667.093,2.2.767.82,1.071,1.151,1.389,1.64,1.614a2.411,2.411,0,0,0,1.865.106c.516-.132.6-.212.714-.635a3.525,3.525,0,0,1,.384-.886l.251-.41-1.018-.2c-3.174-.635-4.775-2.659-4.775-6.045a5.06,5.06,0,0,1,.833-3.016c.331-.489.41-.727.344-.966-.251-.9-.013-2.95.357-3.1a4.738,4.738,0,0,1,2.46.727l1.018.542.966-.172a17.106,17.106,0,0,1,4.735.04l.714.172,1.27-.622a8.4,8.4,0,0,1,1.812-.7L40-195.73l.2.7a4.59,4.59,0,0,1,.093,2.341c-.106.37-.066.5.331,1.1a5.065,5.065,0,0,1,.847,2.963,6.9,6.9,0,0,1-.727,3.333c-.727,1.481-1.944,2.315-4.061,2.778l-1.018.212.357.608c.344.6.357.661.4,3.148.053,2.95.066,2.963,1.045,2.7A9.632,9.632,0,0,0,39-176.472a13.1,13.1,0,0,0,6.865-8.65,14.289,14.289,0,0,0-.079-6.124A13.059,13.059,0,0,0,30.868-200.783Z"/>
        <path id="Path_934" data-name="Path 934" d="M261.45-169.491a6.856,6.856,0,0,0-4.762,3.677,15.949,15.949,0,0,0-.093,12.235,7.357,7.357,0,0,0,2.831,2.9,9.4,9.4,0,0,0,4.868.992,9.982,9.982,0,0,0,4.934-.966l.82-.384v-10.066H263.3v3.571h2.645v3.836l-.331.079a12.081,12.081,0,0,1-1.759.04,3.436,3.436,0,0,1-2.05-.423c-1.561-.913-2.368-3.333-2.156-6.442.185-2.857,1.124-4.5,2.9-5.119a11.927,11.927,0,0,1,4.894.013,3.728,3.728,0,0,0,1.1.185,16.329,16.329,0,0,0,.45-1.64c.3-1.3.331-1.6.2-1.759a5.138,5.138,0,0,0-1.283-.5,10.03,10.03,0,0,0-3.346-.384A13.63,13.63,0,0,0,261.45-169.491Z" transform="translate(-204.114 -27.191)"/>
        <path id="Path_935" data-name="Path 935" d="M505.207-164.728c-.04.093-.053,4.365-.04,9.5l.04,9.325h3.968l.04-4.074.026-4.061,2.751.026,2.738.04-.04,3.9A35.714,35.714,0,0,0,514.77-146c.079.119.6.159,2.09.132l1.971-.04.04-9.312c.013-6.865-.013-9.352-.119-9.5s-.556-.172-2.024-.145l-1.865.04-.066,3.505-.066,3.505-2.738.04-2.751.026-.026-3.532-.04-3.545-1.958-.04C505.736-164.887,505.247-164.86,505.207-164.728Z" transform="translate(-420.822 -31.346)"/>
        <path id="Path_936" data-name="Path 936" d="M726.207-164.728c-.04.093-.053,4.365-.04,9.5l.04,9.325h2.884l.146-.423.146-.423.529.331a6.966,6.966,0,0,0,6.2.344c1.627-.873,2.447-3.082,2.46-6.6,0-2.447-.476-4.061-1.521-5.185-.926-.992-1.667-1.27-3.439-1.257a5.94,5.94,0,0,0-3.135.648c-.212.093-.238-.132-.265-3.122l-.04-3.227-1.958-.04C726.736-164.887,726.247-164.86,726.207-164.728Zm7.3,9.166a2.571,2.571,0,0,1,.6.767c.278.5.3.727.3,2.54,0,1.786-.026,2.037-.291,2.526a1.636,1.636,0,0,1-.688.714,4.976,4.976,0,0,1-2.685-.172l-.5-.212v-5.939l.635-.212c.344-.106.741-.225.886-.265A3.228,3.228,0,0,1,733.509-155.562Z" transform="translate(-612.59 -31.346)"/>
        <path id="Path_937" data-name="Path 937" d="M382-161.407a2.28,2.28,0,0,0-1.19,3.664,2.244,2.244,0,0,0,3.928-.886A2.3,2.3,0,0,0,382-161.407Z" transform="translate(-312.456 -34.296)"/>
        <path id="Path_938" data-name="Path 938" d="M425.55-145.109v1.891l-1.018.251-1.032.265v2.778l1.018.04,1.018.04.04,3.465c.04,3.294.053,3.505.344,4.127a3.489,3.489,0,0,0,1.8,1.812,4.973,4.973,0,0,0,2.46.3c2.46,0,2.394.04,2.354-1.759l-.04-1.415-1.1-.066c-.966-.066-1.138-.119-1.455-.436l-.357-.357-.04-2.844-.04-2.844h1.376c1.018,0,1.429-.053,1.534-.185a4.211,4.211,0,0,0,.119-1.68l-.04-1.508-1.455-.066-1.455-.066-.04-1.825-.04-1.812H425.55Z" transform="translate(-349.961 -46.852)"/>
        <path id="Path_939" data-name="Path 939" d="M381.034-118.672c-.146.37-.093,12.222.053,12.5.132.225.3.251,1.971.251,1.389,0,1.865-.04,1.984-.185a51.153,51.153,0,0,0,.119-6.442l-.04-6.27-2-.04C381.378-118.883,381.114-118.857,381.034-118.672Z" transform="translate(-313.038 -71.265)"/>
        <path id="Path_940" data-name="Path 940" d="M622.136-118.828c-.04.106-.053,2.473-.026,5.264.04,4.854.053,5.106.317,5.688a3.806,3.806,0,0,0,1.534,1.653,8.44,8.44,0,0,0,2.817.582,8.891,8.891,0,0,0,3.346-.794c.463-.212.873-.4.886-.4a1.166,1.166,0,0,1,.185.4l.132.4h2.659V-119h-1.971c-1.68,0-1.984.026-2.05.212-.04.119-.079,2.222-.079,4.7v4.471l-.423.225a5.3,5.3,0,0,1-2.407.265,1.06,1.06,0,0,1-.569-.436c-.212-.317-.251-.847-.3-4.868l-.066-4.5-1.958-.04C622.586-119,622.2-118.974,622.136-118.828Z" transform="translate(-522.289 -71.148)"/>
      </g>
    </g>
    <g id="Mask_Group_99" data-name="Mask Group 99" transform="translate(-459 -302)" clip-path="url(#clip-path-4)">
      <g id="trello-ar21" transform="translate(1034.244 2139.136)">
        <path id="Path_941" data-name="Path 941" d="M67.162,20.062v2.4H61.094V38.411H58.58V22.463H53.426v-2.4Zm1.226,4.383h2.346V26.9c.81-1.648,2.223-2.822,4.945-2.655v2.346c-3.073-.318-4.945.616-4.945,3.574V38.42H68.4ZM84.151,38.691c-5.225,0-7.513-3.016-7.513-7.3,0-4.218,2.346-7.234,6.593-7.234,4.3,0,6.031,3,6.031,7.234V32.48H79.07c.335,2.374,1.872,3.911,5.168,3.911a12.326,12.326,0,0,0,4.247-.756v2.223a10.03,10.03,0,0,1-4.332.834Zm-5.11-8.253h7.792c-.139-2.6-1.323-4.078-3.713-4.078-2.543-.012-3.828,1.634-4.078,4.062Zm16.816,8.056c-2.291,0-3.742-1.088-3.742-3.66V18.6h2.4V34.55c0,1.27.838,1.7,1.872,1.7a6.086,6.086,0,0,0,.7-.028v2.148a5.115,5.115,0,0,1-1.231.111Zm7.288,0c-2.291,0-3.742-1.088-3.742-3.66V18.6h2.4V34.55c0,1.27.838,1.7,1.872,1.7a6.086,6.086,0,0,0,.7-.028v2.148a5.115,5.115,0,0,1-1.231.111Zm2.571-7.094c0-4.189,2.456-7.234,6.647-7.234s6.593,3.043,6.593,7.234-2.432,7.3-6.593,7.3S105.716,35.59,105.716,31.4Zm2.346,0c0,2.655,1.323,5.056,4.3,5.056s4.247-2.4,4.247-5.056-1.27-5-4.244-5-4.3,2.346-4.3,5Z" transform="translate(-5.155 -0.913)" fill="#080808" fill-rule="evenodd"/>
        <path id="Path_942" data-name="Path 942" d="M29.526.91H4.218A4.218,4.218,0,0,0,0,5.134V30.441a4.218,4.218,0,0,0,4.218,4.218H29.526a4.218,4.218,0,0,0,4.2-4.218V5.139a4.218,4.218,0,0,0-4.2-4.218ZM14.677,26.475a2.023,2.023,0,0,1-2.023,2H6.423a2.023,2.023,0,0,1-2.034-2V7.334A2.023,2.023,0,0,1,6.423,5.3h6.231a2.023,2.023,0,0,1,2.023,2.023ZM29.36,18.039a2.023,2.023,0,0,1-2.023,2.023H21.09a2.023,2.023,0,0,1-2.023-2.023V7.334A2.023,2.023,0,0,1,21.09,5.3h6.247A2.023,2.023,0,0,1,29.36,7.328Z" transform="translate(9.756 9.954)" fill="#080808" fill-rule="evenodd"/>
      </g>
    </g>
    <g id="Mask_Group_100" data-name="Mask Group 100" transform="translate(-487 -240)" clip-path="url(#clip-path-5)">
      <g id="Group_451" data-name="Group 451" transform="translate(66.689 -14)">
        <path id="Path_943" data-name="Path 943" d="M31.733,46.786a2,2,0,1,0-1.991,2.139A2.033,2.033,0,0,0,31.733,46.786Zm1.55,0a3.54,3.54,0,1,1-3.54-3.53A3.487,3.487,0,0,1,33.283,46.786Zm6.089,0a2,2,0,1,0-1.991,2.139A2.033,2.033,0,0,0,39.372,46.786Zm1.55,0a3.541,3.541,0,1,1-3.541-3.53,3.487,3.487,0,0,1,3.541,3.53Zm5.95.013a1.988,1.988,0,0,0-1.884-2.151,2.146,2.146,0,0,0,0,4.277A1.972,1.972,0,0,0,46.872,46.8Zm1.363-3.329v6.337c0,2.606-1.538,3.67-3.354,3.67a3.359,3.359,0,0,1-3.128-2.08l1.341-.561a1.951,1.951,0,0,0,1.777,1.253c1.163,0,1.884-.718,1.884-2.07v-.508H46.7a2.406,2.406,0,0,1-1.859.8,3.532,3.532,0,0,1,0-7.057,2.444,2.444,0,0,1,1.859.789h.054V43.47h1.472Zm.915-3.714h1.512V50.1H49.149Zm3.7,6.922L56,45.368a1.366,1.366,0,0,0-1.31-.747,1.935,1.935,0,0,0-1.844,2.057Zm3.7,1.27,1.2.8a3.509,3.509,0,0,1-2.933,1.565,3.454,3.454,0,0,1-3.5-3.53,3.354,3.354,0,0,1,3.329-3.53A3.277,3.277,0,0,1,57.67,45.5l.161.4-4.718,1.954a1.8,1.8,0,0,0,1.711,1.069,2.015,2.015,0,0,0,1.738-.977ZM20.469,45.865V44.37h5.046a4.875,4.875,0,0,1,.075.9,4.946,4.946,0,0,1-1.3,3.5,5.015,5.015,0,0,1-3.823,1.538,5.479,5.479,0,1,1,0-10.957,5.221,5.221,0,0,1,3.756,1.51l-1.056,1.056a3.816,3.816,0,0,0-2.7-1.069,3.983,3.983,0,0,0,0,7.966,3.671,3.671,0,0,0,2.768-1.1,3.1,3.1,0,0,0,.811-1.854ZM61.5,50.1V40.558h2.919a4.755,4.755,0,0,1,3.511,1.32,5.165,5.165,0,0,1,0,6.912A4.772,4.772,0,0,1,64.417,50.1H61.5Zm1.225-8.37v7.2h1.693a3.738,3.738,0,0,0,2.625-6.238,3.523,3.523,0,0,0-2.619-.95H62.734Zm8.73,8.37H70.229V43.568H71.4v1.066h.053a1.77,1.77,0,0,1,.767-.887,2.126,2.126,0,0,1,1.14-.366,2.3,2.3,0,0,1,.907.159l-.373,1.186a2.036,2.036,0,0,0-.721-.094,1.593,1.593,0,0,0-1.207.56,1.867,1.867,0,0,0-.514,1.307v3.6Zm5.207-8.783a.864.864,0,1,1-.253-.613A.836.836,0,0,1,76.661,41.316Zm-.253,2.252V50.1H75.183V43.568Zm4.77,6.53H79.954l-2.64-6.531h1.341l1.917,5.065H80.6l1.946-5.065h1.307Zm6.2.214A3.118,3.118,0,0,1,85,49.326a3.49,3.49,0,0,1-.935-2.492,3.546,3.546,0,0,1,.907-2.486,3.261,3.261,0,0,1,4.632-.054,3.756,3.756,0,0,1,.86,2.633l-.013.134h-5.13a2.127,2.127,0,0,0,.639,1.546,2.066,2.066,0,0,0,3.306-.587l1.093.533a3.256,3.256,0,0,1-1.219,1.293,3.374,3.374,0,0,1-1.766.467Zm-1.959-4.274h3.746a1.634,1.634,0,0,0-.553-1.128,1.925,1.925,0,0,0-1.339-.447,1.775,1.775,0,0,0-1.192.427,2.04,2.04,0,0,0-.659,1.146Z" transform="translate(1022.821 2011.673)" fill="#080808"/>
        <g id="Group_450" data-name="Group 450" transform="translate(1005.311 2046)">
          <path id="Path_944" data-name="Path 944" d="M-25.256-39.89l-4.9-8.476,9.164-15.88,4.9,8.476Z" transform="translate(30.152 64.246)" fill="#080808"/>
          <path id="Path_945" data-name="Path 945" d="M-24.31-36.82l4.9-8.476H-1.087l-4.9,8.476Z" transform="translate(29.205 61.175)" fill="#080808"/>
          <path id="Path_946" data-name="Path 946" d="M-.262-48.366h-9.791l-9.164-15.88h9.791Z" transform="translate(28.38 64.246)" fill="#080808"/>
          <path id="Path_947" data-name="Path 947" d="M-15.146-46.012h-4.268l2.124-3.7L-24.31-37.536Z" transform="translate(29.205 61.891)" fill="#272525"/>
          <path id="Path_948" data-name="Path 948" d="M-8.692-46.012H1.1l-11.915-3.7Z" transform="translate(27.019 61.891)" fill="#272525"/>
          <path id="Path_949" data-name="Path 949" d="M-16.465-52.068l2.144-3.7-4.9-8.476Z" transform="translate(28.38 64.246)" fill="#272525"/>
        </g>
      </g>
    </g>
    <g id="Mask_Group_101" data-name="Mask Group 101" transform="translate(-502 -234)" clip-path="url(#clip-path-6)">
      <g id="ezgif.com-gif-maker-_1_" transform="translate(1087 2391)">
        <path id="Path_950" data-name="Path 950" d="M2.485-238.6C1.167-237.28.1-236.174.121-236.136s0,.061-.038.061c-.061,0-.083,1.682-.083,5.515v5.515l.2.394a1.306,1.306,0,0,0,.515.583l.326.189h14.53l.28-.174c.682-.409.758-.712.727-2.758-.023-1.417-.008-1.591.091-1.508.667.576,3.121,2.545,3.25,2.614a.681.681,0,0,0,.773-.189l.182-.2v-12.545l-.182-.2a.681.681,0,0,0-.773-.189c-.129.068-2.576,2.038-3.25,2.614-.1.083-.114-.1-.091-1.568a12.381,12.381,0,0,0-.061-1.962,1.465,1.465,0,0,0-.8-.917c-.288-.129-.621-.144-5.568-.144H4.894Zm9.333,4.235a10.713,10.713,0,0,0,.083,1.939c.061.114.061.144,0,.106s-.083.462-.083,1.765v1.826l-3.485.015-3.485.023-.015-3.735-.023-3.727h7.007Z"/>
        <path id="Path_951" data-name="Path 951" d="M389.117-207.507a6.226,6.226,0,0,0-4.856,4.651,4.531,4.531,0,0,0-.121,1.568,5.572,5.572,0,0,0,1.735,3.962,5.939,5.939,0,0,0,4.439,1.833,5.38,5.38,0,0,0,2.659-.583,4.093,4.093,0,0,0,1.371-.992,4.839,4.839,0,0,0,.932-1.2,6.336,6.336,0,0,0,.621-3.311l-.053-.5h-5.591v1.667h4.03l-.053.25a3.391,3.391,0,0,1-1.068,2.015,4.49,4.49,0,0,1-5.227.4,4.334,4.334,0,0,1-1.553-1.72,4.418,4.418,0,0,1,.8-5.22,3.959,3.959,0,0,1,3.083-1.273,4.072,4.072,0,0,1,2.659.871l.348.265.545-.553c.636-.644.644-.6-.121-1.144a6.46,6.46,0,0,0-1.886-.9A8.234,8.234,0,0,0,389.117-207.507Z" transform="translate(-355.027 -30.887)"/>
        <path id="Path_952" data-name="Path 952" d="M889-196.28v5.72h1.742V-202H889Z" transform="translate(-821.653 -36.046)"/>
        <path id="Path_953" data-name="Path 953" d="M1082-187.714v5.379h1.288v-4.114c.008-3.265.023-4.083.1-3.985.053.068.826,1.409,1.72,2.977l1.621,2.848h.78l1.689-2.954c.924-1.629,1.7-2.954,1.735-2.954s.038,1.841.023,4.091l-.023,4.091h1.371V-193.1l-.689.023-.7.023-1.864,3.273c-1.023,1.8-1.894,3.265-1.939,3.25s-.909-1.485-1.932-3.273l-1.864-3.25-.659-.023L1082-193.1Z" transform="translate(-1000.032 -44.271)"/>
        <path id="Path_954" data-name="Path 954" d="M1440.288-175.9v1.1H1439v1.288h1.28l.023,2.4c.023,2.318.03,2.424.189,2.72a2.138,2.138,0,0,0,2.182,1.061c.667-.053.871-.114.871-.235a3.73,3.73,0,0,0-.182-.576l-.182-.485-.493.023c-.447.023-.507.008-.727-.189-.326-.288-.386-.727-.386-2.962v-1.758h1.818V-174.8h-1.818V-177h-1.288Z" transform="translate(-1329.987 -59.152)"/>
        <path id="Path_955" data-name="Path 955" d="M551.543-150.466a3.875,3.875,0,0,0-2.909,2.144,3.9,3.9,0,0,0,2.477,5.47,5,5,0,0,0,2.121-.008,3.845,3.845,0,0,0,1.72-1.045,3.6,3.6,0,0,0,1.076-2.689,3.523,3.523,0,0,0-.386-1.788,3.721,3.721,0,0,0-2.182-1.9A4.447,4.447,0,0,0,551.543-150.466Zm1.523,1.674a2.257,2.257,0,0,1,1.151,1.273,3.072,3.072,0,0,1-.061,1.985,2.184,2.184,0,0,1-3.621.583,2.642,2.642,0,0,1-.341-2.864,3.58,3.58,0,0,1,.856-.909A2.285,2.285,0,0,1,553.066-148.791Z" transform="translate(-506.711 -83.641)"/>
        <path id="Path_956" data-name="Path 956" d="M664.523-150.466a3.865,3.865,0,0,0-3.258,3.273,3.9,3.9,0,0,0,2.826,4.341,5,5,0,0,0,2.121-.008,3.845,3.845,0,0,0,1.72-1.045,3.6,3.6,0,0,0,1.076-2.689,3.522,3.522,0,0,0-.386-1.788,3.721,3.721,0,0,0-2.182-1.9A4.447,4.447,0,0,0,664.523-150.466Zm1.523,1.674a2.258,2.258,0,0,1,1.151,1.273,3.072,3.072,0,0,1-.061,1.985,2.184,2.184,0,0,1-3.621.583,2.642,2.642,0,0,1-.341-2.864,3.579,3.579,0,0,1,.856-.909A2.286,2.286,0,0,1,666.046-148.791Z" transform="translate(-611.13 -83.641)"/>
        <path id="Path_957" data-name="Path 957" d="M777.3-150.573a4,4,0,0,0-3.3,3.894,3.956,3.956,0,0,0,2.242,3.538,2.446,2.446,0,0,0,1.318.311,2.631,2.631,0,0,0,1.917-.553,2.125,2.125,0,0,1,.4-.265,5.126,5.126,0,0,1-.167,1.576,1.781,1.781,0,0,1-1.212,1.2,2.528,2.528,0,0,1-1.667-.106,3.075,3.075,0,0,1-.939-.9.346.346,0,0,0-.068-.159c-.045-.083-.2-.045-.735.174a7.1,7.1,0,0,0-.735.333c-.091.091.492.917.924,1.318a3.74,3.74,0,0,0,5.7-.856c.462-.955.462-.962.492-5.326l.038-3.992h-1.606v.341a.765.765,0,0,1-.038.341,4.221,4.221,0,0,1-.432-.3,3.109,3.109,0,0,0-.742-.417A4.113,4.113,0,0,0,777.3-150.573Zm1.167,1.591a2.3,2.3,0,0,1,1.3,1.189,2.191,2.191,0,0,1,.182,1.114,2.146,2.146,0,0,1-.7,1.826,1.784,1.784,0,0,1-1.394.545,2.1,2.1,0,0,1-1.955-1.3,2.028,2.028,0,0,1-.2-1.076,1.847,1.847,0,0,1,.265-1.167,1.981,1.981,0,0,1,1.227-1.106A1.7,1.7,0,0,1,778.462-148.982Z" transform="translate(-715.365 -83.564)"/>
        <path id="Path_958" data-name="Path 958" d="M926.816-150.789a3.72,3.72,0,0,0-2.8,2.788,5.775,5.775,0,0,0-.008,1.977,3.934,3.934,0,0,0,1.97,2.515,3.586,3.586,0,0,0,1.826.4,3.586,3.586,0,0,0,2.106-.614,4.056,4.056,0,0,0,1.068-1.045,10.581,10.581,0,0,0-1.22-.826c-.03-.015-.182.114-.333.28a2.126,2.126,0,0,1-1.651.7,2.52,2.52,0,0,1-.848-.121,2.536,2.536,0,0,1-.985-.886l-.106-.189,2.515-1.038c1.386-.576,2.561-1.068,2.614-1.106.076-.045.068-.136-.061-.455a4.438,4.438,0,0,0-1.811-2.129,4.834,4.834,0,0,0-1.561-.371A4.558,4.558,0,0,0,926.816-150.789Zm1.568,1.545c.326.152.7.485.7.636a35.129,35.129,0,0,1-3.432,1.485c-.121,0-.038-.674.129-1.023A2.037,2.037,0,0,1,928.384-149.243Z" transform="translate(-853.931 -83.272)"/>
        <path id="Path_959" data-name="Path 959" d="M1238.694-150.621a3.64,3.64,0,0,0-2.636,2.659,6.273,6.273,0,0,0-.046,2.159,3.813,3.813,0,0,0,1.462,2.227,3.867,3.867,0,0,0,4.3.023,3.76,3.76,0,0,0,1.136-1.235,1.679,1.679,0,0,0-.561-.356l-.561-.28-.311.409a2.024,2.024,0,0,1-.8.652,1.634,1.634,0,0,1-1.114.2,2.211,2.211,0,0,1-1.7-.773,2.617,2.617,0,0,1-.561-1.371v-.265h5.758v-.477a3.658,3.658,0,0,0-1.735-3.227A3.855,3.855,0,0,0,1238.694-150.621Zm1.644,1.25a1.963,1.963,0,0,1,1.288,1.492v.174h-4.25l.053-.174A2.212,2.212,0,0,1,1240.338-149.371Z" transform="translate(-1142.309 -83.447)"/>
        <path id="Path_960" data-name="Path 960" d="M1342.007-150.676a3.592,3.592,0,0,0-1.78.962,4.156,4.156,0,0,0-1,4,3.384,3.384,0,0,0,.962,1.712,3.281,3.281,0,0,0,2.659,1.053,3.5,3.5,0,0,0,2.712-1.152c.341-.371.6-.727.553-.78-.015-.015-.28-.144-.591-.3l-.553-.265-.242.318a2.7,2.7,0,0,1-1.167.886,3.3,3.3,0,0,1-1.561-.045,2.471,2.471,0,0,1-1.515-1.947l-.053-.356h5.841v-.341a5.512,5.512,0,0,0-.47-1.985,3.658,3.658,0,0,0-1.515-1.5A4.105,4.105,0,0,0,1342.007-150.676Zm1.689,1.379a1.718,1.718,0,0,1,.954.932c.326.689.47.644-1.939.644-1.644,0-2.121-.023-2.121-.1a2.49,2.49,0,0,1,1.038-1.424A2.449,2.449,0,0,1,1343.7-149.3Z" transform="translate(-1237.637 -83.43)"/>
      </g>
    </g>
    <g id="Mask_Group_102" data-name="Mask Group 102" transform="translate(-14365 -336)" clip-path="url(#clip-path-7)">
      <g id="Jira__Software__logo" data-name="Jira_(Software)_logo" transform="translate(15100 2122)">
        <path id="path7981" d="M278.128,6.7c-4.838,0-7.19,2.851-7.19,7.051v2.466h-3.661V19.81h3.676v19h3.795v-19h5.829V16.216h-5.829l-.035-2.353c0-2.033,1.2-3.436,3.594-3.436a12.772,12.772,0,0,1,2.439.227v-3.6a9.354,9.354,0,0,0-2.618-.36ZM164.62,7.537a2.54,2.54,0,0,0-2.438,2.715,2.712,2.712,0,1,0,5.423,0,2.537,2.537,0,0,0-2.711-2.71,2.559,2.559,0,0,0-.274-.005Zm64.815,1.135c-6.918,0-10.441,3.42-10.441,8.041,0,4.88,2.994,7.184,9.671,8.812,5.648,1.356,7.276,2.752,7.276,5.377s-1.69,4.386-6.163,4.386A25.316,25.316,0,0,1,218.846,32.8v4.155c2.305,1.176,4.971,2.3,10.712,2.3,7.368,0,10.441-3.482,10.471-8.632,0-5.351-3.527-7.364-9.808-8.947-5.238-1.308-7.139-2.531-7.139-4.97,0-2.711,2.306-4.067,6.193-4.067a18.224,18.224,0,0,1,9.244,2.26V10.838A17.7,17.7,0,0,0,229.435,8.672Zm-76.018.456.01,20.916c0,2.963-1.187,5.018-4.621,5.018a11.368,11.368,0,0,1-4.2-.77v3.953a14.473,14.473,0,0,0,4.878.772c5.608,0,8-3.775,8-9.244V9.128h-4.067Zm132.928,2.3v4.811h-3.663v3.6h3.677V31.755c0,4.206,2.353,7.051,7.19,7.051a9.354,9.354,0,0,0,2.619-.36V34.7a12.32,12.32,0,0,1-2.439.318c-2.394,0-3.57-1.355-3.591-3.344V19.81h6.009V16.216h-6.009V11.424h-3.793Zm100.928,4.324c-6.87,0-10.665,4.878-10.665,11.7,0,6.932,3.7,11.811,12.156,11.811a16.1,16.1,0,0,0,7.009-1.349v-3.6a20.013,20.013,0,0,1-6.87,1.222c-5.332,0-7.817-2.486-8.36-6.327H397.03v-1.76c0-6.867-2.8-11.7-9.758-11.7Zm-191.788.016c-6.327,0-9.49,5.376-9.49,11.748,0,6.645,3.03,11.75,9.038,11.75a7.962,7.962,0,0,0,7.637-4.519l0,4.067h3.888V16.216h-3.888V20.19a7.416,7.416,0,0,0-7.19-4.426Zm58.7,0c-6.779,0-10.754,4.925-10.754,11.7s4.021,11.812,10.754,11.812,10.665-5.033,10.665-11.812-3.888-11.7-10.665-11.7Zm92.142,0c-6.327,0-9.489,5.376-9.489,11.748,0,6.645,3.03,11.75,9.038,11.75a7.961,7.961,0,0,0,7.637-4.519l0,4.067h3.889V16.216h-3.889V20.19a7.415,7.415,0,0,0-7.189-4.426Zm-162.671.107a7.3,7.3,0,0,0-7.2,4.319V16.216h-3.8v22.61h3.8V25.474c0-4.786,3.03-6.3,8-5.782V15.9q-.413-.026-.8-.026Zm190.612,0a7.3,7.3,0,0,0-7.2,4.319V16.216h-3.8v22.61h3.8V25.474c0-4.786,3.03-6.3,8-5.782V15.9q-.413-.026-.8-.026Zm-77.014.345,8.314,22.595h4.971l3.939-10.932,2.055-6.96,2.054,6.96,3.889,10.932h4.97l8.314-22.595h-4.294l-6.513,19.159-6.6-19.159h-3.708l-6.594,19.159-6.506-19.159h-4.294Zm-134.349.005V38.816h3.886V16.221h-3.886Zm224.175,3.091c3.883,0,5.783,2.4,6.009,6.6h-12.6v-.025c.406-3.918,2.485-6.594,6.587-6.573Zm-190.576.047c3.318,0,6.163,2.214,6.163,7.231v1.827c0,5.015-3.115,7.229-6.594,7.231-4.027,0-6.193-2.713-6.214-8.157C189.861,22.249,192.12,19.359,196.506,19.359Zm150.845,0c3.318,0,6.163,2.214,6.163,7.231v1.827c0,5.014-3.114,7.229-6.594,7.231-4.027,0-6.209-2.713-6.209-8.136C340.711,22.27,342.986,19.4,347.351,19.359Zm-93.165.041c4.79,0,6.87,3.775,6.87,8.067s-2.038,8.182-6.87,8.182-6.959-3.888-6.959-8.182h.019c0-4.292,2.147-8.067,6.939-8.067Z" transform="translate(-97.299 -4.508)" fill="#080808"/>
        <path id="path8005" d="M37.178,18.363,20.436,1.621,18.814,0,.45,18.363a1.541,1.541,0,0,0,0,2.177L11.964,32.054,18.814,38.9,37.178,20.54a1.54,1.54,0,0,0,0-2.177ZM18.814,25.2l-5.751-5.75L18.814,13.7l5.752,5.752Z" transform="translate(0)" fill="#080808"/>
        <path id="path8015" d="M31.538,13.793A9.686,9.686,0,0,1,31.5.137L18.911,12.72l6.851,6.851Z" transform="translate(-12.725 -0.093)" fill="#080808"/>
        <path id="path8025" d="M63.278,59.414,57.51,65.18a9.684,9.684,0,0,1,0,13.7L70.127,66.265Z" transform="translate(-38.696 -39.977)" fill="#080808"/>
      </g>
    </g>
    <g id="Mask_Group_103" data-name="Mask Group 103" transform="translate(-14424 -311)" clip-path="url(#clip-path-8)">
      <g id="clockify-logo" transform="translate(15158.905 2164.244)" clip-path="url(#clip-path-9)">
        <rect id="Rectangle_222" data-name="Rectangle 222" width="100" height="25" transform="translate(0.094 -0.244)" fill="rgba(0,0,0,0)"/>
        <path id="Path_961" data-name="Path 961" d="M76.694,33.956l4.235-4.234,1.212,1.211-4.235,4.234Zm-1.716,4.327a1.506,1.506,0,1,1,1.5-1.506A1.5,1.5,0,0,1,74.979,38.282Zm7.182,4.373-1.212,1.212-4.235-4.234,1.212-1.212Z" transform="translate(-65.734 -26.569)" fill="#222" fill-rule="evenodd"/>
        <path id="Path_962" data-name="Path 962" d="M93.682,21.8a4.881,4.881,0,0,1-1.675,2.081,4.121,4.121,0,0,1-2.411.762,4.889,4.889,0,0,1-3.35-1.345l1.294-2.309a2.678,2.678,0,0,0,1.84.838,1.956,1.956,0,0,0,1.548-.686,2.236,2.236,0,0,0,.6-1.5q0-.356-5.457-13.881h3.045l4.035,9.947L97.186,5.76h3.045ZM83.21,2.537a1.8,1.8,0,0,0-1.421.571,2.224,2.224,0,0,0-.508,1.536V5.76h3.554V8.044H81.281V19.261H78.439V8.044h-1.7V5.76h1.7V4.72a4.524,4.524,0,0,1,1.282-3.387,4.258,4.258,0,0,1,3.1-1.257,4.849,4.849,0,0,1,3.312,1.345l-1.168,2A2.422,2.422,0,0,0,83.21,2.537ZM72.323,3.6a1.736,1.736,0,0,1-1.27-.533A1.733,1.733,0,0,1,70.52,1.8,1.733,1.733,0,0,1,71.053.533a1.778,1.778,0,0,1,2.539,0A1.733,1.733,0,0,1,74.124,1.8a1.733,1.733,0,0,1-.533,1.269A1.734,1.734,0,0,1,72.323,3.6ZM64.947,19.261l-4.01-5.913L58.88,15.428v3.832H56.037V.431H58.88V11.495L64.363,5.76h3.654l-5.127,5.354L68.4,19.261ZM49.175,16.875a4.2,4.2,0,0,0,1.95-.493L52.939,18.2a7.467,7.467,0,0,1-4.209,1.267,6.817,6.817,0,0,1-4.848-1.916,6.573,6.573,0,0,1-2.031-5.012A6.519,6.519,0,0,1,43.971,7.5a7.369,7.369,0,0,1,5.165-1.942,7.118,7.118,0,0,1,3.7.969L50.8,8.556a4.495,4.495,0,0,0-4.8.82A3.913,3.913,0,0,0,44.7,12.421a4.418,4.418,0,0,0,4.48,4.453ZM32.461,19.463a6.914,6.914,0,0,1-5.076-2.017,6.691,6.691,0,0,1-2.031-4.936,6.689,6.689,0,0,1,2.031-4.935,6.911,6.911,0,0,1,5.076-2.018,6.911,6.911,0,0,1,5.076,2.018,6.689,6.689,0,0,1,2.031,4.935,6.691,6.691,0,0,1-2.031,4.936A6.914,6.914,0,0,1,32.461,19.463ZM35.52,9.326a4.415,4.415,0,0,0-6.117,0A4.356,4.356,0,0,0,28.2,12.51,4.353,4.353,0,0,0,29.4,15.694a4.415,4.415,0,0,0,6.117,0,4.359,4.359,0,0,0,1.205-3.184A4.362,4.362,0,0,0,35.52,9.326ZM19.554.431H22.4v18.83H19.554ZM9.215,16.67a6.4,6.4,0,0,0,2.412-.473L13.7,18.266a9.213,9.213,0,1,1-.04-16.122L11.623,4.179A6.474,6.474,0,1,0,9.215,16.67Zm64.5,2.591H70.876V5.76h2.843Z" transform="translate(0.073 0.05)" fill="#080808" fill-rule="evenodd"/>
      </g>
    </g>
    <g id="Mask_Group_104" data-name="Mask Group 104" transform="translate(-14780 -101)" clip-path="url(#clip-path-10)">
      <g id="Group_456" data-name="Group 456" transform="translate(92.666 42)">
        <g id="Group_455" data-name="Group 455" transform="translate(0 0.246)">
          <path id="Exclusion_8" data-name="Exclusion 8" d="M23.889,36.246H2.471A2.474,2.474,0,0,1,0,33.774V2.471A2.474,2.474,0,0,1,2.471,0h14l4.118,5.766L26.36,9.886V33.774A2.474,2.474,0,0,1,23.889,36.246ZM7.825,16.475A1.237,1.237,0,0,0,6.59,17.711V28.42a1.237,1.237,0,0,0,1.236,1.236H18.535A1.237,1.237,0,0,0,19.77,28.42V17.711a1.237,1.237,0,0,0-1.236-1.236Zm10.3,9.473H8.238V20.183h9.885v5.765Z" transform="translate(15422.334 1965.754)" fill="#080808"/>
          <g id="Clipped" transform="translate(15439.532 1974.917)">
            <path id="Path" d="M30.881,16.452l9.162,9.16V17.175Z" transform="translate(-30.881 -16.452)" fill="#242325"/>
          </g>
          <g id="Clipped-2" data-name="Clipped" transform="translate(15438.81 1965.754)">
            <g id="Group">
              <g id="Group_454" data-name="Group 454" transform="translate(0)">
                <path id="Path-2" data-name="Path" d="M2.958,2.958v7.414A2.471,2.471,0,0,0,5.43,12.843h7.414Z" transform="translate(-2.958 -2.958)" fill="#333"/>
              </g>
            </g>
          </g>
          <g id="Clipped-3" data-name="Clipped" transform="translate(15438.81 1965.754)">
            <path id="Path-3" data-name="Path" d="M29.583,0V.206l9.679,9.679h.206Z" transform="translate(-29.583)" fill="rgba(255,255,255,0.1)"/>
          </g>
          <g id="Clipped-4" data-name="Clipped" transform="translate(15422.334 1965.754)">
            <path id="Path-4" data-name="Path" d="M2.471,0A2.479,2.479,0,0,0,0,2.471v.206A2.479,2.479,0,0,1,2.471.206h14V0Z" fill="rgba(255,255,255,0.2)"/>
          </g>
          <g id="Clipped-5" data-name="Clipped" transform="translate(15422.334 1999.323)">
            <path id="Path-5" data-name="Path" d="M23.889,62.747H2.471A2.479,2.479,0,0,1,0,60.276v.206a2.479,2.479,0,0,0,2.471,2.471H23.889a2.479,2.479,0,0,0,2.471-2.471v-.206A2.479,2.479,0,0,1,23.889,62.747Z" transform="translate(0 -60.276)" fill="rgba(191,54,12,0.2)"/>
          </g>
          <g id="Clipped-6" data-name="Clipped" transform="translate(15438.81 1973.168)">
            <path id="Path-6" data-name="Path" d="M32.055,15.784a2.471,2.471,0,0,1-2.471-2.471v.206a2.471,2.471,0,0,0,2.471,2.471h7.414v-.206Z" transform="translate(-29.583 -13.313)" fill="rgba(191,54,12,0.1)"/>
          </g>
        </g>
        <path id="Path_963" data-name="Path 963" d="M8.853-8.2A4.556,4.556,0,0,0,5.525-9.438,4.684,4.684,0,0,0,.728-4.6,4.661,4.661,0,0,0,5.525.234a6.661,6.661,0,0,0,3.432-.9V-4.81H5.876v.819H8.021v2.8a4.747,4.747,0,0,1-2.483.6,3.8,3.8,0,0,1-3.822-4A3.808,3.808,0,0,1,5.538-8.619,3.509,3.509,0,0,1,8.2-7.553Zm8.489,5.161a3.122,3.122,0,0,0-3.25-3.2,3.118,3.118,0,0,0-3.237,3.2,3.118,3.118,0,0,0,3.237,3.2A3.122,3.122,0,0,0,17.342-3.042Zm-.936,0A2.288,2.288,0,0,1,14.092-.6a2.285,2.285,0,0,1-2.3-2.444,2.3,2.3,0,0,1,2.3-2.457A2.3,2.3,0,0,1,16.406-3.042Zm8.879,0a3.122,3.122,0,0,0-3.25-3.2,3.118,3.118,0,0,0-3.237,3.2,3.118,3.118,0,0,0,3.237,3.2A3.122,3.122,0,0,0,25.285-3.042Zm-.936,0A2.288,2.288,0,0,1,22.035-.6a2.285,2.285,0,0,1-2.3-2.444,2.3,2.3,0,0,1,2.3-2.457A2.3,2.3,0,0,1,24.349-3.042ZM26.871,1.9A4.094,4.094,0,0,0,29.8,3.12,2.962,2.962,0,0,0,33.1-.052V-6.084h-.884v1.053h-.026a2.73,2.73,0,0,0-2.3-1.209,3.053,3.053,0,0,0-3.146,3.146A2.983,2.983,0,0,0,29.887,0a2.765,2.765,0,0,0,2.3-1.2h.026V-.052A2.156,2.156,0,0,1,29.835,2.34a3.085,3.085,0,0,1-2.327-1.118Zm.806-5.018a2.244,2.244,0,0,1,2.3-2.379,2.338,2.338,0,0,1,2.34,2.379,2.252,2.252,0,0,1-2.34,2.366A2.233,2.233,0,0,1,27.677-3.12Zm8.632-6.708h-.884V0h.884Zm2.86,6.318A2.155,2.155,0,0,1,41.3-5.5,1.918,1.918,0,0,1,43.316-3.51Zm5.044.286A2.789,2.789,0,0,0,41.3-6.24a3.072,3.072,0,0,0-3.068,3.2,3.089,3.089,0,0,0,3.146,3.2,3.173,3.173,0,0,0,2.613-1.287l-.663-.52A2.3,2.3,0,0,1,41.379-.6a2.219,2.219,0,0,1-2.223-2.21H44.2C44.213-2.964,44.213-3.107,44.213-3.224ZM8.336,7.6a4.946,4.946,0,0,0-3.3-1.216C2.992,6.384.9,7.408.9,9.712c0,2.112,1.488,2.784,2.864,3.216,1.424.448,2.608.784,2.608,1.968,0,1.216-1.1,1.68-2.048,1.68a3.226,3.226,0,0,1-2.48-1.248L.4,16.672a5.162,5.162,0,0,0,3.888,1.616c2.224,0,4.128-1.184,4.128-3.616,0-2.224-1.856-2.864-3.312-3.312-1.28-.4-2.16-.7-2.16-1.744,0-1.1,1.072-1.552,2-1.552a2.775,2.775,0,0,1,2.08.976ZM10.368,18h1.92V5.9h-1.92Zm4.288,0h1.92V10.32h-1.92ZM14.384,7.712A1.235,1.235,0,1,0,15.6,6.56,1.183,1.183,0,0,0,14.384,7.712ZM26.72,5.9H24.8V11.3h-.048a3.145,3.145,0,0,0-2.576-1.2,3.779,3.779,0,0,0-3.728,4.032,3.8,3.8,0,0,0,3.776,4.1,3.056,3.056,0,0,0,2.64-1.376H24.9V18H26.72ZM20.4,14.128a2.269,2.269,0,0,1,2.208-2.464,2.387,2.387,0,0,1,2.256,2.5,2.359,2.359,0,0,1-2.256,2.464A2.3,2.3,0,0,1,20.4,14.128Zm10.128-.736a2.05,2.05,0,0,1,2.128-1.856,1.706,1.706,0,0,1,1.808,1.856Zm5.856.864c0-2.768-1.568-4.16-3.712-4.16a3.919,3.919,0,0,0-4.064,4.112,3.859,3.859,0,0,0,4.128,4.016,3.821,3.821,0,0,0,3.3-1.536l-1.28-1.024a2.327,2.327,0,0,1-2.032.992,2.137,2.137,0,0,1-2.192-1.888h5.84C36.384,14.592,36.384,14.432,36.384,14.256ZM43.7,11.264a3.716,3.716,0,0,0-2.88-1.168c-1.52,0-3.056.736-3.056,2.448,0,1.44,1.136,1.9,2.272,2.176,1.168.272,1.76.464,1.76,1.1,0,.688-.672.912-1.232.912a2.5,2.5,0,0,1-1.968-.96L37.328,16.96a4.331,4.331,0,0,0,3.152,1.264c1.68,0,3.2-.688,3.2-2.56,0-1.5-1.344-2.016-2.48-2.288-1.072-.256-1.664-.416-1.664-1.008,0-.608.624-.832,1.232-.832a2.175,2.175,0,0,1,1.68.832Z" transform="translate(15458 1979.828)" fill="#080808"/>
      </g>
    </g>
    <g id="Mask_Group_105" data-name="Mask Group 105" transform="translate(-14633 -303)" clip-path="url(#clip-path-11)">
      <g id="Group_458" data-name="Group 458" transform="translate(112.958 108)">
        <g id="Group_457" data-name="Group 457">
          <path id="Exclusion_9" data-name="Exclusion 9" d="M23.728,35.8H2.454A2.458,2.458,0,0,1,0,33.34V2.454A2.457,2.457,0,0,1,2.454,0h13.91l4.09,5.728,5.728,4.09V33.34A2.458,2.458,0,0,1,23.728,35.8ZM6.546,17.59V29.454H19.637V17.59ZM18,27.818H13.91V25.772H18v2.045Zm-5.728,0H8.182V25.772h4.091v2.045ZM18,24.546H13.91V22.5H18v2.045Zm-5.728,0H8.182V22.5h4.091v2.045ZM18,21.272H13.91V19.228H18v2.044Zm-5.728,0H8.182V19.228h4.091v2.044Z" transform="translate(15405.042 1982)" fill="#080808"/>
          <g id="Clipped-7" data-name="Clipped" transform="translate(15422.124 1991.1)">
            <path id="Path-7" data-name="Path" d="M30.881,16.452l9.1,9.1V17.17Z" transform="translate(-30.881 -16.452)" fill="#1d1c21"/>
          </g>
          <g id="Clipped-8" data-name="Clipped" transform="translate(15421.405 1982)">
            <g id="Group-2" data-name="Group">
              <g id="Group_453" data-name="Group 453" transform="translate(0)">
                <path id="Path-8" data-name="Path" d="M2.958,2.958v7.364a2.454,2.454,0,0,0,2.455,2.455h7.364Z" transform="translate(-2.958 -2.958)" fill="#343434"/>
              </g>
            </g>
          </g>
          <g id="Clipped-9" data-name="Clipped" transform="translate(15405.042 1982)">
            <path id="Path-9" data-name="Path" d="M2.455,0A2.462,2.462,0,0,0,0,2.455v.2A2.462,2.462,0,0,1,2.455.2H16.364V0Z" fill="rgba(255,255,255,0.2)"/>
          </g>
          <g id="Clipped-10" data-name="Clipped" transform="translate(15421.405 1989.364)">
            <path id="Path-10" data-name="Path" d="M32.038,15.767a2.454,2.454,0,0,1-2.455-2.455v.2a2.454,2.454,0,0,0,2.455,2.455H39.4v-.2Z" transform="translate(-29.583 -13.313)" fill="rgba(38,50,56,0.1)"/>
          </g>
        </g>
        <path id="Path_964" data-name="Path 964" d="M8.853-8.2A4.556,4.556,0,0,0,5.525-9.438,4.684,4.684,0,0,0,.728-4.6,4.661,4.661,0,0,0,5.525.234a6.661,6.661,0,0,0,3.432-.9V-4.81H5.876v.819H8.021v2.8a4.747,4.747,0,0,1-2.483.6,3.8,3.8,0,0,1-3.822-4A3.808,3.808,0,0,1,5.538-8.619,3.509,3.509,0,0,1,8.2-7.553Zm8.489,5.161a3.122,3.122,0,0,0-3.25-3.2,3.118,3.118,0,0,0-3.237,3.2,3.118,3.118,0,0,0,3.237,3.2A3.122,3.122,0,0,0,17.342-3.042Zm-.936,0A2.288,2.288,0,0,1,14.092-.6a2.285,2.285,0,0,1-2.3-2.444,2.3,2.3,0,0,1,2.3-2.457A2.3,2.3,0,0,1,16.406-3.042Zm8.879,0a3.122,3.122,0,0,0-3.25-3.2,3.118,3.118,0,0,0-3.237,3.2,3.118,3.118,0,0,0,3.237,3.2A3.122,3.122,0,0,0,25.285-3.042Zm-.936,0A2.288,2.288,0,0,1,22.035-.6a2.285,2.285,0,0,1-2.3-2.444,2.3,2.3,0,0,1,2.3-2.457A2.3,2.3,0,0,1,24.349-3.042ZM26.871,1.9A4.094,4.094,0,0,0,29.8,3.12,2.962,2.962,0,0,0,33.1-.052V-6.084h-.884v1.053h-.026a2.73,2.73,0,0,0-2.3-1.209,3.053,3.053,0,0,0-3.146,3.146A2.983,2.983,0,0,0,29.887,0a2.765,2.765,0,0,0,2.3-1.2h.026V-.052A2.156,2.156,0,0,1,29.835,2.34a3.085,3.085,0,0,1-2.327-1.118Zm.806-5.018a2.244,2.244,0,0,1,2.3-2.379,2.338,2.338,0,0,1,2.34,2.379,2.252,2.252,0,0,1-2.34,2.366A2.233,2.233,0,0,1,27.677-3.12Zm8.632-6.708h-.884V0h.884Zm2.86,6.318A2.155,2.155,0,0,1,41.3-5.5,1.918,1.918,0,0,1,43.316-3.51Zm5.044.286A2.789,2.789,0,0,0,41.3-6.24a3.072,3.072,0,0,0-3.068,3.2,3.089,3.089,0,0,0,3.146,3.2,3.173,3.173,0,0,0,2.613-1.287l-.663-.52A2.3,2.3,0,0,1,41.379-.6a2.219,2.219,0,0,1-2.223-2.21H44.2C44.213-2.964,44.213-3.107,44.213-3.224ZM8.336,7.6a4.946,4.946,0,0,0-3.3-1.216C2.992,6.384.9,7.408.9,9.712c0,2.112,1.488,2.784,2.864,3.216,1.424.448,2.608.784,2.608,1.968,0,1.216-1.1,1.68-2.048,1.68a3.226,3.226,0,0,1-2.48-1.248L.4,16.672a5.162,5.162,0,0,0,3.888,1.616c2.224,0,4.128-1.184,4.128-3.616,0-2.224-1.856-2.864-3.312-3.312-1.28-.4-2.16-.7-2.16-1.744,0-1.1,1.072-1.552,2-1.552a2.775,2.775,0,0,1,2.08.976Zm6.272,2.5a2.537,2.537,0,0,0-2.288,1.3h-.032V5.9h-1.92V18h1.92V13.808A1.877,1.877,0,0,1,14.1,11.744c1.232,0,1.424,1.12,1.424,2.032V18h1.92V13.2A2.8,2.8,0,0,0,14.608,10.1Zm6.544,3.3a2.05,2.05,0,0,1,2.128-1.856,1.706,1.706,0,0,1,1.808,1.856Zm5.856.864c0-2.768-1.568-4.16-3.712-4.16a3.919,3.919,0,0,0-4.064,4.112,3.859,3.859,0,0,0,4.128,4.016,3.821,3.821,0,0,0,3.3-1.536l-1.28-1.024a2.327,2.327,0,0,1-2.032.992,2.137,2.137,0,0,1-2.192-1.888h5.84C27.008,14.592,27.008,14.432,27.008,14.256Zm3.328-.864a2.05,2.05,0,0,1,2.128-1.856,1.706,1.706,0,0,1,1.808,1.856Zm5.856.864c0-2.768-1.568-4.16-3.712-4.16a3.919,3.919,0,0,0-4.064,4.112,3.859,3.859,0,0,0,4.128,4.016,3.821,3.821,0,0,0,3.3-1.536l-1.28-1.024a2.327,2.327,0,0,1-2.032.992,2.137,2.137,0,0,1-2.192-1.888h5.84C36.192,14.592,36.192,14.432,36.192,14.256Zm2.1-2.4V15.44c0,1.472.464,2.72,2.5,2.72a3.974,3.974,0,0,0,1.28-.208L42,16.448a2.007,2.007,0,0,1-.816.16c-.848,0-1.008-.5-1.008-1.184V11.856H42.1V10.32h-1.92V8.1H38.288V10.32H36.944v1.536Zm10.656-.592a3.716,3.716,0,0,0-2.88-1.168c-1.52,0-3.056.736-3.056,2.448,0,1.44,1.136,1.9,2.272,2.176,1.168.272,1.76.464,1.76,1.1,0,.688-.672.912-1.232.912a2.5,2.5,0,0,1-1.968-.96L42.576,16.96a4.331,4.331,0,0,0,3.152,1.264c1.68,0,3.2-.688,3.2-2.56,0-1.5-1.344-2.016-2.48-2.288-1.072-.256-1.664-.416-1.664-1.008,0-.608.624-.832,1.232-.832a2.175,2.175,0,0,1,1.68.832Z" transform="translate(15440 1995.828)" fill="#080808"/>
      </g>
    </g>
    <g id="Mask_Group_106" data-name="Mask Group 106" transform="translate(-14675 -145)" clip-path="url(#clip-path-12)">
      <g id="Group_460" data-name="Group 460" transform="translate(135 19)">
        <g id="Group_459" data-name="Group 459">
          <path id="Path-11" data-name="Path" d="M16.269,0H2.44A2.455,2.455,0,0,0,0,2.455V33.545A2.455,2.455,0,0,0,2.44,36H23.59a2.455,2.455,0,0,0,2.44-2.455V9.818L20.337,5.727Z" transform="translate(15425 1973)" fill="#080808"/>
          <path id="Path-12" data-name="Path" d="M30.664,16.431l9.048,9.1v-8.38Z" transform="translate(15411.319 1965.669)" fill="#1b1a20"/>
          <path id="Shape" d="M11.75,40.682H24.765V39.045H11.75Zm0,3.273h9.762V42.318H11.75Zm0-11.455v1.636H24.765V32.5Zm0,4.909H24.765V35.773H11.75Z" transform="translate(15419.758 1958.5)" fill="#f1f1f1"/>
          <g id="Group-3" data-name="Group" transform="translate(15441.27 1973)">
            <g id="Group_452" data-name="Group 452">
              <path id="Path-13" data-name="Path" d="M2.938,2.955v7.364a2.447,2.447,0,0,0,2.44,2.455H12.7Z" transform="translate(-2.938 -2.955)" fill="#333"/>
            </g>
          </g>
          <path id="Path-14" data-name="Path" d="M2.44,0A2.455,2.455,0,0,0,0,2.455v.2A2.455,2.455,0,0,1,2.44.2H16.269V0Z" transform="translate(15425 1973)" fill="rgba(255,255,255,0.2)"/>
          <path id="Path-15" data-name="Path" d="M23.59,62.653H2.44A2.455,2.455,0,0,1,0,60.2v.2a2.455,2.455,0,0,0,2.44,2.455H23.59a2.455,2.455,0,0,0,2.44-2.455v-.2A2.455,2.455,0,0,1,23.59,62.653Z" transform="translate(15425 1946.142)" fill="rgba(26,35,126,0.2)"/>
          <path id="Path-16" data-name="Path" d="M31.815,15.75a2.447,2.447,0,0,1-2.44-2.455v.2a2.447,2.447,0,0,0,2.44,2.455h7.321v-.2Z" transform="translate(15411.895 1967.068)" fill="rgba(26,35,126,0.1)"/>
        </g>
        <path id="Path_965" data-name="Path 965" d="M8.853-8.2A4.556,4.556,0,0,0,5.525-9.438,4.684,4.684,0,0,0,.728-4.6,4.661,4.661,0,0,0,5.525.234a6.661,6.661,0,0,0,3.432-.9V-4.81H5.876v.819H8.021v2.8a4.747,4.747,0,0,1-2.483.6,3.8,3.8,0,0,1-3.822-4A3.808,3.808,0,0,1,5.538-8.619,3.509,3.509,0,0,1,8.2-7.553Zm8.489,5.161a3.122,3.122,0,0,0-3.25-3.2,3.118,3.118,0,0,0-3.237,3.2,3.118,3.118,0,0,0,3.237,3.2A3.122,3.122,0,0,0,17.342-3.042Zm-.936,0A2.288,2.288,0,0,1,14.092-.6a2.285,2.285,0,0,1-2.3-2.444,2.3,2.3,0,0,1,2.3-2.457A2.3,2.3,0,0,1,16.406-3.042Zm8.879,0a3.122,3.122,0,0,0-3.25-3.2,3.118,3.118,0,0,0-3.237,3.2,3.118,3.118,0,0,0,3.237,3.2A3.122,3.122,0,0,0,25.285-3.042Zm-.936,0A2.288,2.288,0,0,1,22.035-.6a2.285,2.285,0,0,1-2.3-2.444,2.3,2.3,0,0,1,2.3-2.457A2.3,2.3,0,0,1,24.349-3.042ZM26.871,1.9A4.094,4.094,0,0,0,29.8,3.12,2.962,2.962,0,0,0,33.1-.052V-6.084h-.884v1.053h-.026a2.73,2.73,0,0,0-2.3-1.209,3.053,3.053,0,0,0-3.146,3.146A2.983,2.983,0,0,0,29.887,0a2.765,2.765,0,0,0,2.3-1.2h.026V-.052A2.156,2.156,0,0,1,29.835,2.34a3.085,3.085,0,0,1-2.327-1.118Zm.806-5.018a2.244,2.244,0,0,1,2.3-2.379,2.338,2.338,0,0,1,2.34,2.379,2.252,2.252,0,0,1-2.34,2.366A2.233,2.233,0,0,1,27.677-3.12Zm8.632-6.708h-.884V0h.884Zm2.86,6.318A2.155,2.155,0,0,1,41.3-5.5,1.918,1.918,0,0,1,43.316-3.51Zm5.044.286A2.789,2.789,0,0,0,41.3-6.24a3.072,3.072,0,0,0-3.068,3.2,3.089,3.089,0,0,0,3.146,3.2,3.173,3.173,0,0,0,2.613-1.287l-.663-.52A2.3,2.3,0,0,1,41.379-.6a2.219,2.219,0,0,1-2.223-2.21H44.2C44.213-2.964,44.213-3.107,44.213-3.224ZM1.248,18H5.264c2.96,0,6.256-1.7,6.256-5.664,0-4.256-3.3-5.664-6.256-5.664H1.248Zm2.016-1.76V8.4h1.68c2.08,0,4.416.688,4.416,3.936,0,3.056-2.336,3.9-4.416,3.9Zm9.664-2.112a4.033,4.033,0,0,0,4.176,4.1,4.033,4.033,0,0,0,4.176-4.1A3.981,3.981,0,0,0,17.1,10.1,3.981,3.981,0,0,0,12.928,14.128Zm1.952,0a2.236,2.236,0,1,1,4.448,0,2.239,2.239,0,1,1-4.448,0ZM29.7,11.3a3.838,3.838,0,0,0-2.9-1.2,3.944,3.944,0,0,0-4.112,4.064,3.938,3.938,0,0,0,4.16,4.064,3.875,3.875,0,0,0,2.832-1.072l-1.2-1.216a2.15,2.15,0,0,1-1.616.688,2.264,2.264,0,0,1-2.176-2.464A2.245,2.245,0,0,1,26.8,11.7a2.038,2.038,0,0,1,1.584.752Zm6.7-.032A3.716,3.716,0,0,0,33.52,10.1c-1.52,0-3.056.736-3.056,2.448,0,1.44,1.136,1.9,2.272,2.176,1.168.272,1.76.464,1.76,1.1,0,.688-.672.912-1.232.912a2.5,2.5,0,0,1-1.968-.96L30.032,16.96a4.331,4.331,0,0,0,3.152,1.264c1.68,0,3.2-.688,3.2-2.56,0-1.5-1.344-2.016-2.48-2.288-1.072-.256-1.664-.416-1.664-1.008,0-.608.624-.832,1.232-.832a2.175,2.175,0,0,1,1.68.832Z" transform="translate(15460 1986.828)" fill="#080808"/>
      </g>
    </g>
    <g id="Mask_Group_107" data-name="Mask Group 107" transform="translate(-14682 -195)" clip-path="url(#clip-path-13)">
      <g id="Group_461" data-name="Group 461" transform="translate(332 -68)">
        <path id="Exclusion_10" data-name="Exclusion 10" d="M29.355,35H5.645A5.645,5.645,0,0,1,0,29.355V5.645A5.645,5.645,0,0,1,5.645,0h23.71A5.645,5.645,0,0,1,35,5.645v23.71A5.645,5.645,0,0,1,29.355,35ZM23.144,11.293h0L20.323,29.355H23.71L29.919,9.6,23.71,5.645H20.323l2.823,5.081-6.21-5.081H13.548l3.105,6.21-6.492-6.21H6.774l3.387,7.9L6.774,29.355h3.387l6.492-16.936L13.548,29.355h3.387Z" transform="translate(15235 2171)" fill="#080808"/>
        <path id="Path_968" data-name="Path 968" d="M217.327,12.063c5.512,0,8.82,4.115,8.82,9.371,0,5.237-3.307,9.371-8.82,9.371s-8.82-4.115-8.82-9.371S211.815,12.063,217.327,12.063Zm-24.8,1.1V30.254h-3.859V13.717Zm14.332-.551v3.859l-2.2.276c-1.929.276-3.307,1.378-3.307,3.572v9.933h-3.859V20.321c0-4.718,2.756-6.879,7.166-7.43Zm-38.585,0a5.267,5.267,0,0,1,4.41,2.2,5.964,5.964,0,0,1,4.961-2.2c2.756,0,6.063,1.654,6.063,7.166V30.254h-3.859V19.781a3.043,3.043,0,1,0-6.063,0V30.254h-3.859V19.781a3.043,3.043,0,1,0-6.063,0V30.254H160V13.717l3.859-.551V14.82A5.1,5.1,0,0,1,168.268,12.615Zm49.059,3.307c-3.307,0-4.961,2.468-4.961,5.512s1.654,5.512,4.961,5.512,4.961-2.48,4.961-5.512S220.634,15.922,217.327,15.922ZM190.593,6a2.313,2.313,0,0,1,2.48,2.48,2.48,2.48,0,1,1-4.961,0A2.313,2.313,0,0,1,190.593,6Z" transform="translate(15119.098 2166.654)" fill="#080808" fill-rule="evenodd"/>
      </g>
    </g>
  </g>
</svg>
