<svg xmlns="http://www.w3.org/2000/svg" width="59.783" height="68.552" viewBox="0 0 59.783 68.552">
  <g id="Group_499" data-name="Group 499" transform="translate(-221.894 -604)">
    <circle id="Ellipse_57" data-name="Ellipse 57" cx="22.5" cy="22.5" r="22.5" transform="translate(223.433 611)" fill="#ffd000"/>
    <g id="grow" transform="translate(161.08 1084)">
      <path id="Path_1103" data-name="Path 1103" d="M224.265-477.735c-2.112,2.112-2.265,2.3-2.265,2.831a1.265,1.265,0,0,0,1.316,1.331c.474,0,.7-.138,1.607-1.025l1.056-1.01v4.835c0,4.652.015,4.866.306,5.157a1.252,1.252,0,0,0,.918.306,1.252,1.252,0,0,0,.918-.306c.291-.291.306-.5.306-5.157v-4.835l1.056,1.01c.9.887,1.132,1.025,1.607,1.025a1.265,1.265,0,0,0,1.316-1.331c0-.536-.153-.719-2.265-2.831-2.234-2.234-2.265-2.265-2.938-2.265S226.5-479.969,224.265-477.735Z" transform="translate(-136.521 0)"/>
      <path id="Path_1104" data-name="Path 1104" d="M65.127-381.366c-3.994,1.1-3.978,1.1-4.208,1.653-.2.49-.168.719.566,3.474.872,3.351,1.086,3.734,2.066,3.7a1.085,1.085,0,0,0,.918-.428c.428-.49.428-.689.031-2.158a6.586,6.586,0,0,1-.26-1.194c.015-.031,1.806.979,3.948,2.219,4.177,2.433,4.621,2.6,5.371,1.989a1.5,1.5,0,0,0,.168-1.729c-.092-.122-1.974-1.255-4.147-2.509a41.611,41.611,0,0,1-3.871-2.372,7.3,7.3,0,0,1,1.331-.413c1.377-.367,1.76-.7,1.76-1.515a1.241,1.241,0,0,0-1.255-1.255A22.531,22.531,0,0,0,65.127-381.366Z" transform="translate(0 -83.087)"/>
      <path id="Path_1105" data-name="Path 1105" d="M371.058-381.617a1.15,1.15,0,0,0-.383.872c0,.842.321,1.117,1.714,1.5a10.331,10.331,0,0,1,1.377.428,35.915,35.915,0,0,1-3.871,2.4c-2.188,1.255-4.055,2.387-4.162,2.494a1.732,1.732,0,0,0,.107,1.7,1.122,1.122,0,0,0,.918.321c.52-.015,1.255-.383,4.529-2.28,2.142-1.239,3.917-2.249,3.948-2.234a7.238,7.238,0,0,1-.26,1.27c-.4,1.53-.4,1.607.031,2.1a1.245,1.245,0,0,0,1.851.061,26.161,26.161,0,0,0,1.79-5.845c.214-.857-.122-1.392-1.041-1.7-1.5-.474-5.386-1.469-5.769-1.469A1.258,1.258,0,0,0,371.058-381.617Z" transform="translate(-258.113 -83.004)"/>
      <path id="Path_1106" data-name="Path 1106" d="M173.848-365.645c-1.959,1.056-13.236,7.651-13.5,7.9l-.352.306v16.74l.352.306c.383.367,13.221,7.8,13.894,8.049a1.119,1.119,0,0,0,.887,0c.658-.245,13.5-7.682,13.909-8.049l.337-.306v-16.74l-.337-.306c-.306-.275-12.15-7.192-13.542-7.911A1.569,1.569,0,0,0,173.848-365.645Zm6.366,5.738c2.938,1.683,5.325,3.091,5.31,3.106-.031.015-2.479,1.423-5.432,3.122l-5.4,3.076-5.356-3.091a38.957,38.957,0,0,1-5.218-3.229c.245-.245,10.344-6.06,10.543-6.06C174.766-363,177.26-361.605,180.214-359.907Zm-11.752,8.768,5,2.892v12.486l-.734-.413c-.4-.245-2.877-1.668-5.509-3.183l-4.774-2.754v-12.5l.5.291C163.213-354.168,165.692-352.73,168.462-351.139Zm18.469,2.785v6.243l-4.774,2.754c-2.617,1.515-5.1,2.938-5.509,3.183l-.734.413v-12.486l5.478-3.152c3-1.744,5.478-3.167,5.509-3.167C186.916-354.582,186.931-351.781,186.931-348.354Z" transform="translate(-84.009 -96.651)"/>
      <path id="Path_1107" data-name="Path 1107" d="M68.214-193.705c-2.142,1.239-3.933,2.249-3.948,2.219a6.584,6.584,0,0,1,.26-1.194,8.658,8.658,0,0,0,.321-1.561,1.3,1.3,0,0,0-1.27-1.132c-.979,0-1.117.26-2.02,3.642-.7,2.6-.8,3.167-.658,3.55a1.127,1.127,0,0,0,.428.612c.367.2,5.876,1.683,6.243,1.683a1.414,1.414,0,0,0,.7-.321c.321-.245.4-.444.4-.979,0-.842-.352-1.148-1.79-1.53a6.565,6.565,0,0,1-1.148-.367,44.279,44.279,0,0,1,3.871-2.372,46.012,46.012,0,0,0,4.132-2.555,1.535,1.535,0,0,0-.214-1.637C72.835-196.307,72.422-196.154,68.214-193.705Z" transform="translate(-0.026 -240.558)"/>
      <path id="Path_1108" data-name="Path 1108" d="M366.31-195.67a1.407,1.407,0,0,0-.061,1.76c.153.153,2,1.27,4.116,2.494,2.112,1.209,3.81,2.249,3.78,2.3a4.284,4.284,0,0,1-1.148.367c-1.392.352-1.852.719-1.852,1.53a1.023,1.023,0,0,0,.413.949,1.31,1.31,0,0,0,.719.352c.321,0,4.346-1.056,5.677-1.484.6-.184.8-.337.964-.734.184-.474.153-.7-.566-3.366-.413-1.576-.826-3-.918-3.152a1.331,1.331,0,0,0-2.357.306,4.9,4.9,0,0,0,.214,1.484,6.206,6.206,0,0,1,.245,1.255c-.031.046-1.821-.933-3.963-2.173C367.366-196.205,366.953-196.358,366.31-195.67Z" transform="translate(-258.46 -240.521)"/>
      <path id="Path_1109" data-name="Path 1109" d="M226.285-127.694c-.291.291-.306.5-.306,5.157v4.835l-1.056-1.01c-.9-.888-1.132-1.025-1.607-1.025A1.265,1.265,0,0,0,222-118.406c0,.536.153.719,2.265,2.831,2.234,2.234,2.265,2.265,2.938,2.265s.7-.031,2.938-2.265c2.112-2.112,2.265-2.3,2.265-2.831a1.265,1.265,0,0,0-1.316-1.331c-.474,0-.7.138-1.607,1.025l-1.056,1.01v-4.835c0-4.652-.015-4.866-.306-5.157A1.252,1.252,0,0,0,227.2-128,1.252,1.252,0,0,0,226.285-127.694Z" transform="translate(-136.521 -298.138)"/>
    </g>
  </g>
</svg>
