<svg xmlns="http://www.w3.org/2000/svg" width="70.823" height="68.552" viewBox="0 0 70.823 68.552">
  <g id="Group_504" data-name="Group 504" transform="translate(-1141.177 -691.5)">
    <circle id="Ellipse_62" data-name="Ellipse 62" cx="22.5" cy="22.5" r="22.5" transform="translate(1146.433 699.052)" fill="#ffd000"/>
    <g id="conversation" transform="translate(1141.277 1195.275)">
      <path id="Path_1146" data-name="Path 1146" d="M8.828-503.543a8.5,8.5,0,0,0-1.383.608,7.468,7.468,0,0,0-2.5,2.835l-.442.926v14.933l.442.94a6.276,6.276,0,0,0,3.913,3.484l.83.249v4.508l.36.277c.733.581.885.47,3.581-2.2l2.5-2.489h14.38l.387.9a5.415,5.415,0,0,0,2.779,2.682c.719.263,1.051.29,4.632.29h3.858l.277-.36a.969.969,0,0,0,.014-1.341l-.277-.346-3.637-.055c-4.107-.055-4.231-.083-5.144-1.092l-.539-.608.747-.1c2.669-.373,4.134-1.2,5.268-3,.871-1.369.954-1.936.954-6.665v-4.273H48.8c6.333,0,9.1.042,9.43.152a3.1,3.1,0,0,1,1.687,1.41c.3.567.3.691.346,5.946.041,6.208.014,6.485-.94,7.342a2.658,2.658,0,0,1-1.825.83c-1.023.152-1.217.5-1.217,2.143v1.327l-1.7-1.7L52.9-477.672H49.328c-3.374,0-3.567.014-3.83.277a1.173,1.173,0,0,0,0,1.521c.263.263.456.277,3.277.277h3l2.5,2.475a20.745,20.745,0,0,0,2.848,2.572,1.2,1.2,0,0,0,1.3-.664c.041-.166.083-1.231.111-2.364l.028-2.046.719-.277a5.209,5.209,0,0,0,3.028-3.554,88.19,88.19,0,0,0-.014-12.389,5.173,5.173,0,0,0-2.918-3.415l-.678-.318-9.416-.042-9.43-.041-.055-1.687a7.384,7.384,0,0,0-.36-2.447A6.87,6.87,0,0,0,35.86-503.4l-.8-.332-12.721-.028C10.335-503.792,9.575-503.778,8.828-503.543Zm26.064,2.171a4.643,4.643,0,0,1,2.282,2.046l.373.705.041,6.692c.028,5.863.014,6.775-.18,7.356a4.983,4.983,0,0,1-2.309,2.489l-.733.332-9.638.069-9.651.069L13.5-480.037l-1.576,1.576-.041-1.327c-.069-1.6-.138-1.715-1.48-1.964a4.456,4.456,0,0,1-3.374-2.323c-.318-.581-.318-.622-.36-7.342-.041-7.882-.069-7.66,1.2-8.946,1.3-1.3.3-1.2,14.2-1.217C32.8-501.593,34.325-501.566,34.892-501.372Z" transform="translate(-3.964 0)"/>
      <path id="Path_1147" data-name="Path 1147" d="M55.261-463.71a1.186,1.186,0,0,0-.083,1.645c.277.277.456.277,10.343.277H75.6l.29-.318a1.109,1.109,0,0,0-.055-1.6c-.36-.29-.456-.29-10.288-.29S55.62-464,55.261-463.71Z" transform="translate(-47.382 -34.275)"/>
      <path id="Path_1148" data-name="Path 1148" d="M55.233-423.723a1.252,1.252,0,0,0,.014,1.6c.277.249.65.263,10.384.263H75.725l.263-.332a1.244,1.244,0,0,0-.014-1.535C75.7-424,75.518-424,65.6-424S55.509-424,55.233-423.723Z" transform="translate(-47.437 -68.744)"/>
      <path id="Path_1149" data-name="Path 1149" d="M55.261-384.71a1.186,1.186,0,0,0-.083,1.645c.263.263.456.277,5.531.277h5.268l.332-.346a1.078,1.078,0,0,0,.346-.76,1.078,1.078,0,0,0-.346-.761L65.977-385H60.805C55.772-385,55.62-384.986,55.261-384.71Z" transform="translate(-47.382 -102.351)"/>
      <path id="Path_1150" data-name="Path 1150" d="M4.339-282.824a4.425,4.425,0,0,0-2.655,2.268c-.3.553-.318.747-.36,4.522-.055,4.3.014,4.936.664,6.25l.387.788-.539.373A4.91,4.91,0,0,0,.315-266.77c-.332.608-.332.678-.373,5.13L-.1-257.119l.373.29a.969.969,0,0,0,1.341.014l.346-.277.055-4.121.041-4.107.387-.65a3,3,0,0,1,.954-1l.581-.346.705.4a6.842,6.842,0,0,0,6.513.014c.9-.484,1.12-.512,1.549-.221.166.124,1.549,1.881,3.083,3.913s2.931,3.83,3.125,4c.332.318.387.318,4.231.318,3.443,0,3.955.028,4.383.249a2.076,2.076,0,0,1,1.106,1.618,2.076,2.076,0,0,1-1.106,1.618c-.429.221-.982.249-5.047.249s-4.618-.028-5.047-.249c-.346-.166-1.175-1.148-2.973-3.54a26.633,26.633,0,0,0-2.821-3.415,1.211,1.211,0,0,0-1.535,1.065,14.774,14.774,0,0,0,1.867,2.779l1.867,2.475v8.9H1.988v-3.18c0-3-.014-3.194-.277-3.457a1.108,1.108,0,0,0-.761-.277,1.108,1.108,0,0,0-.761.277c-.263.263-.277.456-.277,4.286s.014,4.024.277,4.286.456.277,35.121.277,34.845,0,35.121-.277.277-.456.277-4.286-.014-4.024-.277-4.286a1.108,1.108,0,0,0-.76-.277,1.108,1.108,0,0,0-.76.277c-.263.263-.277.456-.277,3.457v3.18H56.744v-8.9l1.867-2.461a14.488,14.488,0,0,0,1.867-2.793,1.206,1.206,0,0,0-1.549-1.065,28.827,28.827,0,0,0-2.807,3.415c-1.811,2.42-2.613,3.374-2.973,3.54-.429.221-.982.249-5.047.249-5.088,0-5.213-.014-5.835-.954a1.535,1.535,0,0,1,0-1.825c.608-.913.816-.954,5.171-.954,3.844,0,3.9,0,4.231-.318.194-.166,1.6-1.963,3.125-4s2.918-3.789,3.083-3.913c.429-.29.65-.263,1.549.221a6.842,6.842,0,0,0,6.513-.014l.705-.4.581.346a3,3,0,0,1,.954,1l.387.65.041,4.107.055,4.121.346.277a.969.969,0,0,0,1.341-.014l.373-.29-.041-4.522c-.041-4.452-.041-4.522-.373-5.13a4.91,4.91,0,0,0-1.521-1.853L68.248-269l.387-.788c.65-1.314.719-1.95.664-6.25l-.041-3.941-.373-.691a4.326,4.326,0,0,0-1.908-1.88c-.608-.318-.705-.332-4.356-.332H58.887l-.747.415a4.371,4.371,0,0,0-1.853,2c-.29.581-.3.83-.346,4.273-.055,3.982.041,5.006.608,6.236l.346.747-.539.456a51.906,51.906,0,0,0-3.263,4.051l-2.724,3.6H46.4l-.055-2.53c-.041-2.406-.069-2.544-.415-3.208a7.7,7.7,0,0,0-3.623-3.125l-.885-.415.194-.719a36.575,36.575,0,0,0,.194-5.987v-5.268l-.332-.3c-.318-.3-.318-.3-5.213-.263l-4.895.042-.747.415a4.371,4.371,0,0,0-1.853,2c-.29.595-.3.816-.346,4.4-.041,3.484,0,4.162.332,5.517.069.263-.041.359-.733.719a7.519,7.519,0,0,0-3.332,2.987c-.346.664-.373.8-.415,3.208l-.055,2.53H20.254l-2.724-3.6a51.906,51.906,0,0,0-3.263-4.051l-.539-.456.346-.747c.567-1.231.664-2.254.608-6.236-.041-3.443-.055-3.692-.346-4.273a4.371,4.371,0,0,0-1.853-2l-.747-.415-3.526-.028C6.274-282.921,4.532-282.879,4.339-282.824Zm7.052,2.351a2.5,2.5,0,0,1,1.106,2.268v.83l-.691-.069a3.626,3.626,0,0,1-1.507-.581c-.954-.581-1.244-.608-1.742-.18-.3.249-.387.484-.5,1.41-.221,1.756-.871,2.9-1.881,3.332a5.9,5.9,0,0,1-2.447.111c-.194-.069-.221-.47-.221-2.945,0-3.194.083-3.54.954-4.121.456-.3.581-.318,3.457-.318C10.575-280.736,10.962-280.708,11.39-280.473ZM39.6-279.422v1.314H30.61v-.456a2.523,2.523,0,0,1,1.106-1.922c.429-.221.871-.249,4.176-.249H39.6Zm26.562-1c.871.581.954.926.954,4.121,0,2.475-.028,2.876-.221,2.945a5.9,5.9,0,0,1-2.447-.111c-1.009-.429-1.659-1.576-1.881-3.332-.111-.926-.194-1.161-.5-1.41-.5-.429-.788-.4-1.742.18a3.626,3.626,0,0,1-1.507.581l-.691.069v-.83a2.5,2.5,0,0,1,1.106-2.268c.429-.235.816-.263,3.471-.263C65.58-280.736,65.7-280.722,66.16-280.418Zm-26.59,6.623c-.041,1.95-.069,2.171-.4,2.876a4.467,4.467,0,0,1-5.545,2.351,5,5,0,0,1-2.558-2.323c-.346-.733-.373-.94-.429-2.9l-.055-2.1h9.029Zm-27.931-1.452.857.083v1.41c0,2.157-.456,3.36-1.673,4.4a4.4,4.4,0,0,1-5.918-.207,4.269,4.269,0,0,1-.982-1.369,4.269,4.269,0,0,1,1.286-.152,4.333,4.333,0,0,0,3.222-1.244,6.511,6.511,0,0,0,1.576-2.752c0-.318.166-.429.484-.332C10.644-275.371,11.155-275.3,11.639-275.247Zm49.045.387a5.81,5.81,0,0,0,1.521,2.544,4.334,4.334,0,0,0,3.222,1.231,4.223,4.223,0,0,1,1.272.152,4.269,4.269,0,0,1-.982,1.369,4.419,4.419,0,0,1-4.618.982,4.1,4.1,0,0,1-1.6-1.092c-1.037-1.037-1.369-2.019-1.369-4.093v-1.438l.595-.014a6.293,6.293,0,0,0,1-.124C60.381-275.509,60.505-275.454,60.685-274.859Zm-19.358,6.914a6.2,6.2,0,0,1,2.641,2.24,8.461,8.461,0,0,1,.194,2.5v2.06l-.774.1a4.061,4.061,0,0,0-3.457,5.241l.194.65H30.5l.194-.65a3.941,3.941,0,0,0-.843-3.885,3.942,3.942,0,0,0-2.627-1.355l-.76-.1v-2.06a8.4,8.4,0,0,1,.194-2.5,5.759,5.759,0,0,1,2.475-2.171l.926-.456.608.567a6.713,6.713,0,0,0,9-.1,4.973,4.973,0,0,1,.608-.553A9.936,9.936,0,0,1,41.327-267.946Zm13.205,17.906v2.9H16.092v-5.807h38.44Z" transform="translate(0 -190.299)"/>
    </g>
  </g>
</svg>
