<svg xmlns="http://www.w3.org/2000/svg" width="104.47" height="68.552" viewBox="0 0 104.47 68.552">
  <g id="Group_195" data-name="Group 195" transform="translate(-3715.001 -1821.019)">
    <circle id="Ellipse_18" data-name="Ellipse 18" cx="22.5" cy="22.5" r="22.5" transform="translate(3762 1825)" fill="#ffd000"/>
    <g id="tiger" transform="translate(3713.093 2243.862)">
      <path id="Path_486" data-name="Path 486" d="M16.734-422.69a6.625,6.625,0,0,0-3.907,3.763c-.432,1.09-.535,1.172-1.4,1.4a7.212,7.212,0,0,0-5.265,5.738c-.288,1.254-.74,1.995-2.941,4.936-1.789,2.365-1.769,2.653.165,5.779a34.059,34.059,0,0,0,1.995,2.941,4.9,4.9,0,0,0,6.581.226l.679-.535,1.378.9c4.689,3.126,9.748,8.514,11.681,12.4a17.358,17.358,0,0,1,1.44,6.334c.144,1.871.494,2.406,1.584,2.406a1.441,1.441,0,0,0,1.44-1.09,25.112,25.112,0,0,0-.576-6.149,20.8,20.8,0,0,0-1.234-3.146l-.9-1.851-.062-3.661-.062-3.681-.576-.494a1.233,1.233,0,0,0-1.913-.021c-.494.432-.555.658-.658,2.015l-.082,1.542L22.2-394.8c-1.028-1.028-2.591-2.427-3.476-3.147-.884-.7-1.481-1.275-1.337-1.275a13.445,13.445,0,0,0,3.928-2.056,1.616,1.616,0,0,0,.35-2.468c-.6-.6-1.357-.514-2.55.267A7.391,7.391,0,0,1,14.061-402c-2.18.041-3.085.185-3.085.514a3.508,3.508,0,0,1-.72.925,1.838,1.838,0,0,1-2.406.452A26.876,26.876,0,0,1,5.218-404.2a23.721,23.721,0,0,1,1.748-2.571,17.341,17.341,0,0,0,1.954-3.188c.123-.432.308-1.172.432-1.666a5.077,5.077,0,0,1,.72-1.5,4.527,4.527,0,0,1,2.9-1.522c.884,0,1.851-.37,2.015-.781.082-.185.267-.843.432-1.46a3.845,3.845,0,0,1,1.727-2.591c.514-.267.6-.247.884.062a4.758,4.758,0,0,1,.7,3.352c-.165,1.913-.72,3.105-1.769,3.763-.967.617-1.254,1.378-.823,2.159a1.741,1.741,0,0,0,1.933.761c.9-.226,2.653-2.139,3.126-3.414a3.356,3.356,0,0,1,.6-1.131c.1,0,1.275.267,2.612.617l2.427.617.391,1.275A18.986,18.986,0,0,1,27.531-402c-.391,1.645-.391,1.686.206,2.262a1.4,1.4,0,0,0,2.118.041c1.069-1.152,1.563-7.486.823-10.735a12.088,12.088,0,0,1-.288-1.481,8.578,8.578,0,0,1,1.152.185c.617.1,2.344.35,3.8.555l2.673.329.35,1.09a13.076,13.076,0,0,1-1.09,10.879,12.242,12.242,0,0,0-1.008,2.18,1.9,1.9,0,0,0,.432.843,1.506,1.506,0,0,0,2.324.021c1.4-1.522,2.879-5.553,3.105-8.576a18.481,18.481,0,0,0-.617-5.738c-.1-.267.165-.288,1.789-.144,1.049.082,3.5.226,5.45.329a25.829,25.829,0,0,1,3.661.288,12.964,12.964,0,0,1,.864,4.38,15.219,15.219,0,0,1-2.242,9.049c-.967,1.625-1.069,2.447-.391,3.023a1.565,1.565,0,0,0,2.2-.185,23.039,23.039,0,0,0,2.982-6.334,23.958,23.958,0,0,0,.144-8.72l-.329-1.316,4.031.123c2.2.082,4.689.144,5.491.144h1.481l.391,1.584a18.445,18.445,0,0,1,.391,4.586,15.045,15.045,0,0,1-1.666,7.794,11.837,11.837,0,0,0-.9,2.324,1.48,1.48,0,0,0,2.1,1.378c1.008-.411,2.715-4.278,3.332-7.589a26.086,26.086,0,0,0-.308-9.666c-.144-.6,3.907-.206,6.54.637l1.3.432.452,1.46c.411,1.275.473,1.913.473,4.771,0,3.146-.041,3.373-.679,5.244a19.676,19.676,0,0,1-3,5.655c-.864,1.152-.925,1.789-.226,2.468a1.37,1.37,0,0,0,1.913.206c1.254-.884,3.578-5.038,4.5-8.062.514-1.666.555-2.077.555-5.553l.021-3.743.7.658c.37.37,1.234,1.337,1.913,2.139,1.09,1.337,1.3,1.5,1.933,1.5,1.6,0,1.974-1.419.781-3.023a20.216,20.216,0,0,0-9.254-6.93c-3.023-1.049-3.969-1.152-13.347-1.357-16.39-.37-22.354-.72-29.717-1.769a76.731,76.731,0,0,1-10.632-2.18l-2.283-.638-.144-.74c-.391-2.3-1.4-3.907-2.859-4.565A2.584,2.584,0,0,0,16.734-422.69Z" transform="translate(0 0)"/>
      <path id="Path_487" data-name="Path 487" d="M160.427-300.163a1.225,1.225,0,0,0-.781.781,41.7,41.7,0,0,0,.8,5.532l.925,4.977-1.316,2.262a74.453,74.453,0,0,0-4.4,9.151,10.5,10.5,0,0,0-.35,5.573,11.938,11.938,0,0,0,1.871,3.373c.226.288-2.838,7.547-3.414,8.062-.37.329-.925.37-5.943.432-5.306.062-5.532.041-5.532-.329a5.954,5.954,0,0,1,1.666-2.447,7.05,7.05,0,0,1,1.522-.9,9.9,9.9,0,0,0,1.584-.843,5.973,5.973,0,0,0,1.81-2.982,53.79,53.79,0,0,0-.494-9.131c-.679-4.319-3.661-7.835-8.843-10.488-2.982-1.522-3.023-1.542-4.4-2.9a11.79,11.79,0,0,1-2.92-4.895c-.411-1.254-.617-1.583-1.111-1.83a.954.954,0,0,0-1.131,0,2.484,2.484,0,0,0-.823.843c-.288.494-.267.679.267,2.242a14.387,14.387,0,0,0,3.517,5.82l1.316,1.337-1.378.411c-3.6,1.069-8.082,1.995-8.617,1.789-.288-.123-.308-.452-.185-2.55.082-1.316.185-2.756.247-3.167a1.465,1.465,0,0,0-2.468-1.337c-.6.6-1.008,3.167-.9,5.738l.062,1.769-.72.123a65.212,65.212,0,0,1-8.02,0l-.658-.144.123-1.152c.062-.637.185-2.283.267-3.661.1-2.118.062-2.591-.206-3.023a1.317,1.317,0,0,0-1.769-.535c-.72.288-1.049.967-1.049,2.118,0,1.748-2.077,27.825-2.283,28.586a1.813,1.813,0,0,1-.864,1.172c-.6.37-1.069.411-5.676.411h-5l.123-.658c.267-1.337,1.954-2.55,4.442-3.229a3.685,3.685,0,0,0,2.139-1.069l.6-.679-.123-4.01c-.144-4.586-.288-5-1.625-5.121a1.065,1.065,0,0,0-1.172.514c-.432.535-.452.679-.308,3.866l.144,3.332-1.522.473c-2.838.925-4.956,2.838-5.553,5a8,8,0,0,0-.144,2.056,2.279,2.279,0,0,0,.74,1.851l.658.658h9.316c9.131,0,9.316,0,10.118-.452a5.522,5.522,0,0,0,2.879-3.887c.062-.452.329-4.36.617-8.72s.555-8.493.638-9.213l.123-1.275h1.049a64.945,64.945,0,0,0,11.969-1.625l1.625-.391.638.535a13.794,13.794,0,0,1,2.817,3.578c.658,1.316.967,3.29,1.131,7.506.144,3.661.165,3.6-1.892,4.586a8.719,8.719,0,0,0-4.792,6.581c-.082,1.131-.041,1.234.638,1.974l.72.8h11.393c11.352,0,11.373,0,12.216-.452a6,6,0,0,0,1.542-1.275c.781-.9,4.3-8.925,4.3-9.789a3.1,3.1,0,0,0-1.028-2.057,5.852,5.852,0,0,1-.946-1.378c-.637-1.275-.637-2.632.021-4.607a59.99,59.99,0,0,1,3.332-7.239l.411-.658.884,3.434a40.428,40.428,0,0,0,1.275,4.236,7.734,7.734,0,0,0,3.229,3.167,5.218,5.218,0,0,0,3,.576,5.312,5.312,0,0,0,3.229-.679,6.939,6.939,0,0,0,3.414-3.517c.473-1.008.555-1.46.617-3.743.082-2.838-.041-3.352-.925-3.7a1.538,1.538,0,0,0-1.892.761,10.955,10.955,0,0,0-.226,2.612c0,2.447-.37,3.475-1.481,4.319a4.015,4.015,0,0,1-6.108-1.172c-.473-.967-2.961-11.5-4.134-17.357-.781-3.948-1.028-4.607-1.83-4.833A1.985,1.985,0,0,0,160.427-300.163ZM139.7-283.587a14.465,14.465,0,0,1,4.792,4.812c.761,1.44.987,2.673,1.275,7.321.267,3.948.226,4.072-1.707,5a9.025,9.025,0,0,0-4.792,5.388l-.35,1.09h-2.941c-1.892,0-2.941-.082-2.941-.206a5.523,5.523,0,0,1,1.481-2.406,6.8,6.8,0,0,1,1.707-1.111,5.1,5.1,0,0,0,2.673-2.056c.823-1.3.925-2.2.7-6.046-.391-6.108-.884-7.856-3.085-10.591l-1.008-1.234.555-.226c.329-.123.761-.308.987-.391C137.806-284.574,138.237-284.451,139.7-283.587Zm-25.624,3.146c.041.021-.226,4.3-.576,9.481-.679,10.159-.679,10.118-1.871,10.714-.7.37-2.118.35-1.974-.021.206-.555.35-2.18.864-9.995.288-4.36.555-8.514.638-9.234l.123-1.3,1.357.144A9.979,9.979,0,0,1,114.073-280.441Z" transform="translate(-71.674 -97.294)"/>
    </g>
  </g>
</svg>
