<svg xmlns="http://www.w3.org/2000/svg" width="37.554" height="31.921" viewBox="0 0 37.554 31.921">
  <path id="icons8-twitter" d="M35.584,16a8.222,8.222,0,0,0-8.215,8.215,7.806,7.806,0,0,0,.207,1.5c-10.121-.894-15.017-7.179-15.7-8.114a.469.469,0,0,0-.787.041A8.628,8.628,0,0,0,10,21.868a8.12,8.12,0,0,0,2.958,6.2,8.351,8.351,0,0,1-1.284-.308,4.174,4.174,0,0,1-.944-.414.469.469,0,0,0-.73.391,7.981,7.981,0,0,0,5.142,7.437c-.155.008-.289.074-.447.074a11.287,11.287,0,0,1-1.379-.09.469.469,0,0,0-.5.644l.039.1v0A9.351,9.351,0,0,0,20.1,41.153a14.967,14.967,0,0,1-8.927,3.013h-.7a.469.469,0,0,0-.26.86,19.726,19.726,0,0,0,10.822,2.9A22.774,22.774,0,0,0,43.8,25.154s0,0,0,0,0-.287-.006-.587c0-.183,0-.282-.006-.413a14.284,14.284,0,0,0,3.675-3.174.469.469,0,0,0-.508-.732,29,29,0,0,1-3.12.547,9.017,9.017,0,0,0,2.524-3.235.469.469,0,0,0-.67-.561,12.74,12.74,0,0,1-4.416,1.325A8.168,8.168,0,0,0,35.584,16Zm0,.939a7.245,7.245,0,0,1,5.208,2.2.469.469,0,0,0,.347.141,10.214,10.214,0,0,0,3.721-.883,8.379,8.379,0,0,1-2.43,2.332.469.469,0,0,0-.175.581c.025.056.052.144.1.255a.469.469,0,0,0,.447.3,16.9,16.9,0,0,0,2.923-.365,12.9,12.9,0,0,1-2.637,2,.469.469,0,0,0-.238.428s.006.351.009.65.006.585.006.585A21.821,21.821,0,0,1,21.031,46.982a19.9,19.9,0,0,1-8.872-1.968,15.71,15.71,0,0,0,9.42-3.784.469.469,0,0,0-.3-.82,8.716,8.716,0,0,1-7.169-4.263c.2.01.41.038.584.038a8.846,8.846,0,0,0,2.973-.5.469.469,0,0,0-.128-.911,7.024,7.024,0,0,1-6.528-6.291,2.238,2.238,0,0,0,.366.164,10.5,10.5,0,0,0,3.317.493.469.469,0,0,0,.2-.894,7.178,7.178,0,0,1-3.956-6.382,7.8,7.8,0,0,1,.705-3.1c1.455,1.822,6.534,7.32,16.446,7.966a.469.469,0,0,0,.483-.593,7.254,7.254,0,0,1,7.01-9.2Zm0,1.408A5.852,5.852,0,0,0,31.222,20.3a.235.235,0,1,0,.349.314,5.367,5.367,0,0,1,7.611-.413.235.235,0,1,0,.314-.348A5.816,5.816,0,0,0,35.584,18.347ZM30.475,21.63a.235.235,0,0,0-.219.139,5.817,5.817,0,0,0-.452,1.467.235.235,0,1,0,.463.079,5.35,5.35,0,0,1,.415-1.35.235.235,0,0,0-.207-.336Zm-.528,2.346a.235.235,0,0,0-.231.238c0,.174.021.338.034.49a.235.235,0,1,0,.468-.04c-.014-.162-.032-.314-.032-.449a.235.235,0,0,0-.238-.238Zm9.415,9.389a.235.235,0,0,0-.218.138A20.054,20.054,0,0,1,27.526,44.012a.235.235,0,1,0,.154.444A20.517,20.517,0,0,0,39.569,33.7a.235.235,0,0,0-.207-.336ZM24.782,44.748a.234.234,0,0,0-.039,0,19.868,19.868,0,0,1-2.32.3.235.235,0,1,0,.033.468,20.335,20.335,0,0,0,2.375-.305.235.235,0,0,0-.049-.466Zm-4.216.343a.235.235,0,0,0-.009.469c.15,0,.306.014.474.014a.235.235,0,1,0,0-.469C20.883,45.1,20.731,45.094,20.567,45.091Z" transform="translate(-10 -16)" fill="#fff"/>
</svg>
