<svg xmlns="http://www.w3.org/2000/svg" width="69.239" height="69.552" viewBox="0 0 69.239 69.552">
  <g id="Group_478" data-name="Group 478" transform="translate(-1232 -639)">
    <circle id="Ellipse_40" data-name="Ellipse 40" cx="22.5" cy="22.5" r="22.5" transform="translate(1235 639)" fill="#ffd000"/>
    <g id="conversion" transform="translate(1232 1150.777)">
      <path id="Path_990" data-name="Path 990" d="M101.606-511.64a5.22,5.22,0,0,0-3.055,2.674,4.909,4.909,0,0,0-.448,2.579,7.509,7.509,0,0,0,.679,4.154c1.195,2.389,3.557,3.489,5.743,2.675a6.155,6.155,0,0,0,3.326-4.29,11.979,11.979,0,0,0,.109-2.539,4.908,4.908,0,0,0-.448-2.579,5.1,5.1,0,0,0-2.267-2.335,3.692,3.692,0,0,0-2.009-.421A7.845,7.845,0,0,0,101.606-511.64Zm2.471,2.322c.244,0,1.127.937,1.344,1.426a8.565,8.565,0,0,1,.068,3.91c-.38,1.263-1.548,2.4-2.457,2.4s-2-1.045-2.457-2.335a8.527,8.527,0,0,1,.068-3.978,2.658,2.658,0,0,1,2.865-1.548A4.424,4.424,0,0,0,104.077-509.319Z" transform="translate(-84.772 0)" fill="#080808"/>
      <path id="Path_991" data-name="Path 991" d="M340.507-511.64a5,5,0,0,0-3.313,3.394,13,13,0,0,0-.014,4.7c.652,2.471,2.647,4.277,4.752,4.277a5.028,5.028,0,0,0,4.249-2.96,7.509,7.509,0,0,0,.679-4.154,4.909,4.909,0,0,0-.448-2.579,5.1,5.1,0,0,0-2.267-2.335,3.692,3.692,0,0,0-2.009-.421A7.845,7.845,0,0,0,340.507-511.64Zm2.471,2.322c.244,0,1.127.937,1.344,1.426a8.715,8.715,0,0,1,.068,3.978c-.462,1.29-1.561,2.335-2.457,2.335s-2.077-1.14-2.457-2.4a8.56,8.56,0,0,1,.068-3.91,2.658,2.658,0,0,1,2.865-1.548A4.426,4.426,0,0,0,342.978-509.319Z" transform="translate(-291.226 0)" fill="#080808"/>
      <path id="Path_992" data-name="Path 992" d="M11.594-440.614a9.93,9.93,0,0,0-3.937,4.168c-.774,1.6-.869,2.308-.869,7.06v4.222l-1.86.054c-1.711.041-1.928.081-2.566.407A4.809,4.809,0,0,0,.38-422.979l-.38.611v2.865c0,2.81.014,2.878.3,3.15.584.53.855.584,3,.584H5.39L15.083-404c5.335,6.476,9.775,11.879,9.87,12.015s.57,2.186,1.045,4.575.95,4.494,1.059,4.711a3.832,3.832,0,0,0,1.616,1.466c.76.326,10.861.326,11.621,0A3.832,3.832,0,0,0,41.91-382.7c.109-.217.584-2.335,1.059-4.711s.95-4.439,1.045-4.575,4.534-5.539,9.87-12.015l9.693-11.771H65.7c2.376,0,2.742-.109,3.272-.977.244-.394.272-.692.272-2.579a7.52,7.52,0,0,0-.272-2.878,5.194,5.194,0,0,0-2.308-2.471c-.692-.353-.882-.394-2.607-.434l-1.874-.054v-4.222c0-4.752-.1-5.458-.869-7.06a9.765,9.765,0,0,0-3.991-4.181c-.91-.448-1.792-.041-1.792.842,0,.6.19.882.991,1.385a9.135,9.135,0,0,1,2.593,2.783c.692,1.371.76,1.914.76,6.367v4.114H57.156v-6.123l-.339-.326a1.131,1.131,0,0,0-1.629,0l-.339.326v6.123H46.567v-6.123l-.339-.326a1.131,1.131,0,0,0-1.629,0l-.339.326v6.123H41.543v-4.114c0-4.453.068-5,.76-6.367A9.135,9.135,0,0,1,44.9-438.4a3.432,3.432,0,0,0,.855-.706,1.3,1.3,0,0,0-.136-1.371c-.611-.611-1.263-.462-2.675.6a9.77,9.77,0,0,0-3.313,4.562c-.285.842-.312,1.127-.367,5.526l-.054,4.657H29.759l-.054-4.657c-.054-4.412-.068-4.684-.367-5.526a14.207,14.207,0,0,0-.557-1.358c-1.032-2.009-3.815-4.412-4.833-4.154a1.133,1.133,0,0,0-.869,1.045c0,.6.19.882.991,1.385a9.135,9.135,0,0,1,2.593,2.783c.692,1.371.76,1.914.76,6.367v4.114H24.709v-6.123l-.339-.326a1.047,1.047,0,0,0-.815-.339,1.047,1.047,0,0,0-.815.339l-.339.326v6.123H14.119v-6.123l-.339-.326a1.047,1.047,0,0,0-.815-.339,1.047,1.047,0,0,0-.815.339l-.339.326v6.123H9.1v-4.114c0-4.453.068-5,.76-6.367a9.135,9.135,0,0,1,2.593-2.783c.774-.489.991-.787.991-1.317a.9.9,0,0,0-.557-.964C12.382-440.94,12.259-440.94,11.594-440.614Zm54.291,18.192c.828.57,1.073,1.168,1.154,2.865l.068,1.48H1.86l.068-1.466a5.948,5.948,0,0,1,.285-1.86A3.125,3.125,0,0,1,3.53-422.68c.217-.081,10.9-.122,31.1-.109l30.75.027ZM51.413-404.678c-5.023,6.109-9.273,11.282-9.436,11.513-.231.312-.5,1.453-1.181,4.806-.489,2.417-.964,4.535-1.073,4.7a1.172,1.172,0,0,1-.638.394c-.557.109-8.648.109-9.2,0a1.172,1.172,0,0,1-.638-.394c-.109-.163-.584-2.267-1.073-4.684s-.964-4.521-1.073-4.684-4.358-5.349-9.436-11.513L8.431-415.77H60.537Z" transform="translate(0 -61.237)" fill="#080808"/>
      <path id="Path_993" data-name="Path 993" d="M193.939-238.851c-.434.339-.5.91-.5,4.4V-231h-1.887c-1.7,0-1.914.027-2.24.285a.834.834,0,0,0-.353.787c0,.611-.367.109,4.249,5.716a40.63,40.63,0,0,0,4.1,4.657c.462.244.489.244.95,0a40.628,40.628,0,0,0,4.1-4.657c4.616-5.607,4.249-5.1,4.249-5.716a.834.834,0,0,0-.353-.787c-.326-.258-.543-.285-2.24-.285h-1.887v-3.448c0-3.543-.081-4.181-.543-4.426a1.488,1.488,0,0,0-1.493.136c-.258.258-.272.448-.272,4.806,0,5.512-.136,5.132,1.819,5.24l1.317.068-2.525,3.055c-1.385,1.683-2.579,3.055-2.647,3.055s-1.263-1.371-2.647-3.055l-2.525-3.055,1.317-.068c1.955-.109,1.819.272,1.819-5.24,0-4.358-.014-4.548-.272-4.806A1.486,1.486,0,0,0,193.939-238.851Z" transform="translate(-163.297 -235.685)" fill="#080808"/>
    </g>
  </g>
</svg>
