<svg xmlns="http://www.w3.org/2000/svg" width="65.615" height="68.552" viewBox="0 0 65.615 68.552">
  <g id="Group_482" data-name="Group 482" transform="translate(-1106 -733)">
    <circle id="Ellipse_43" data-name="Ellipse 43" cx="22.5" cy="22.5" r="22.5" transform="translate(1106 738)" fill="#ffd000"/>
    <g id="smartphone" transform="translate(1085 1234.775)">
      <path id="Path_1002" data-name="Path 1002" d="M35.891-501.541a6.841,6.841,0,0,0-4.35,4.462c-.181.627-.223,1.576-.223,5.41v4.643H23.7l-.725.363a3.486,3.486,0,0,0-1.715,1.8c-.237.516-.265,1.1-.265,8.017s.028,7.5.265,8.017a3.486,3.486,0,0,0,1.715,1.8l.725.363h7.613v14c0,13.358.014,14.041.265,14.85a6.767,6.767,0,0,0,4.49,4.392c.683.209,2.231.223,14.013.2l13.232-.042,1.088-.516a6.747,6.747,0,0,0,3.263-3.263,4.562,4.562,0,0,0,.572-2.315,4.438,4.438,0,0,1,.153-1.227c.042.014.46.1.92.209a14.571,14.571,0,0,0,4.8,0,57.769,57.769,0,0,0,6.274-2.022,11.1,11.1,0,0,0,6.149-8.728c.237-2.147.07-2.984-2.036-9.83-1.032-3.4-1.966-6.372-2.064-6.609a4.158,4.158,0,0,0-3.221-2.259,3.843,3.843,0,0,0-2.9.92l-.586.544-.669-.613a3.986,3.986,0,0,0-5.759.474,6.835,6.835,0,0,0-.5.739c-.028.084-.153.1-.293.056-.223-.1-.237-1.06-.265-14.626L68.2-496.856l-.516-1.088a6.8,6.8,0,0,0-3.277-3.277l-1.088-.516L50-501.764C37.4-501.792,36.644-501.778,35.891-501.541Zm27.426,1.813A4.933,4.933,0,0,1,65-498.543c1.129,1.129,1.436,1.938,1.548,4.085l.084,1.576H32.949l.084-1.576c.112-2.064.432-2.956,1.45-4.016a4.769,4.769,0,0,1,2.9-1.52c.39-.07,6.191-.1,12.9-.084l12.2.014Zm3.277,20.022v11.5h-.446a4.492,4.492,0,0,0-2.161.92l-.446.335-.363-1.213c-2.064-6.762-3.291-10.681-3.458-11.015a4.074,4.074,0,0,0-3.388-1.994,3.806,3.806,0,0,0-3.625,2.161c-.683,1.422-.641,1.715,1.464,8.575,1.018,3.332,1.938,6.2,2.05,6.372a.679.679,0,0,0,.683.321.8.8,0,0,0,.906-.795c0-.2-.823-3.026-1.827-6.288s-1.827-6.191-1.827-6.47a2.146,2.146,0,0,1,2.008-2.064,2.108,2.108,0,0,1,1.8.92c.153.265,1.785,5.382,3.625,11.392,3.4,11.127,3.5,11.392,4.155,11.392a.891.891,0,0,0,.851-.892,36.166,36.166,0,0,0-1.046-3.862,33.007,33.007,0,0,1-1.046-3.96A2.065,2.065,0,0,1,66.5-466.39a2.3,2.3,0,0,1,1.771.837,36.112,36.112,0,0,1,1.339,3.848c1.311,4.267,1.283,4.239,1.994,4.239a.851.851,0,0,0,.851-.837c0-.209-.5-2.022-1.115-4.044-1.213-3.974-1.227-4.085-.572-5.006a2.355,2.355,0,0,1,2.036-.795,2.53,2.53,0,0,1,1.576,1.3c.084.223.6,1.868,1.157,3.667s1.074,3.416,1.185,3.6a.91.91,0,0,0,1.59-.488,25.87,25.87,0,0,0-.781-2.872,20.971,20.971,0,0,1-.781-3.068,2.167,2.167,0,0,1,2.468-1.994,2.53,2.53,0,0,1,1.576,1.3c.558,1.394,3.82,12.479,3.932,13.316a9.317,9.317,0,0,1-4.81,9.133,30.646,30.646,0,0,1-3.695,1.38l-2.579.809H71.684a6.28,6.28,0,0,1-2.97-.362,9.011,9.011,0,0,1-3.583-2.287c-1.52-1.506-1.854-2.273-3.9-8.979a61.939,61.939,0,0,0-1.98-5.968,1.07,1.07,0,0,0-1.213.056c-.4.39-.307.878.948,4.866.028.084-.488.139-1.366.139a3.979,3.979,0,0,0-2.315.432,4.972,4.972,0,0,0-2.231,1.8c-.474.683-.544,1.325-.167,1.631.125.112,1.185.795,2.329,1.506s2.147,1.353,2.231,1.422-5.41.112-12.172.112h-12.3v-18.963h1.115v.739a7.613,7.613,0,0,0,4.044,6.344c1.352.655,1.59.683,2.036.237a.742.742,0,0,0,.279-.809c-.558-2.719-.321-4.852.655-5.786.572-.558,1.394-.725,3.569-.725a4.857,4.857,0,0,0,2.175-.265,3.486,3.486,0,0,0,1.8-1.715l.363-.725v-14.947l-.363-.725a3.486,3.486,0,0,0-1.8-1.715c-.488-.223-.962-.265-3.569-.265a11.228,11.228,0,0,0-3.165.167,1.421,1.421,0,0,0,.014,1.339,15.241,15.241,0,0,0,2.886.2c3.054.042,3.416.153,3.974,1.088.265.474.279.7.279,7.39s-.014,6.916-.279,7.39c-.53.878-.962,1.018-3.472,1.115-2.593.1-3,.237-3.974,1.339a5.854,5.854,0,0,0-1.185,3.974,5.551,5.551,0,0,1-.1,1.38,5.357,5.357,0,0,1-.864-.837,5.332,5.332,0,0,1-1.478-3.806c-.167-2.147.376-1.966-6.191-2.05-5.173-.07-5.494-.084-5.954-.349a2.866,2.866,0,0,1-.767-.767c-.265-.474-.279-.7-.279-7.39s.014-6.916.279-7.39a2.866,2.866,0,0,1,.767-.767c.46-.265.753-.279,6.065-.321a45.263,45.263,0,0,0,5.745-.2,1.421,1.421,0,0,0,.014-1.339,3.122,3.122,0,0,0-1.394-.167H32.991v-4.183h33.6Zm-7.515,27.134a5.834,5.834,0,0,1,.683.335c0,.042,1.213,4.016,1.339,4.378.042.153,0,.153-.251-.014-.181-.112-1.6-1.018-3.165-2.008l-2.83-1.785.46-.39A3.8,3.8,0,0,1,59.079-452.572Zm2.468,7.32A16.73,16.73,0,0,1,63.82-443.4a11.241,11.241,0,0,0,1.924,1.548l.864.488-.084,1.227A4.826,4.826,0,0,1,65-436.468a4.933,4.933,0,0,1-1.687,1.185l-.837.335H37.1l-.837-.335a5.736,5.736,0,0,1-2.858-2.872c-.307-.781-.335-1.088-.39-4.364l-.056-3.514H60.32Z" fill="#080808"/>
      <path id="Path_1003" data-name="Path 1003" d="M120.167-464.833a1.14,1.14,0,0,0-.167.669c0,.655.209.837.976.837s.976-.181.976-.837a1.14,1.14,0,0,0-.167-.669A2.038,2.038,0,0,0,120.167-464.833Z" transform="translate(-85.196 -31.647)" fill="#080808"/>
      <path id="Path_1004" data-name="Path 1004" d="M142.167-464.9a1.14,1.14,0,0,0-.167.669,1.14,1.14,0,0,0,.167.669,141.218,141.218,0,0,0,14.166,0,1.141,1.141,0,0,0,.167-.669,1.14,1.14,0,0,0-.167-.669A141.181,141.181,0,0,0,142.167-464.9Z" transform="translate(-104.129 -31.583)" fill="#080808"/>
      <path id="Path_1005" data-name="Path 1005" d="M51.291-352.641a.881.881,0,0,0,.014,1.2c.237.209.669.223,3.946.2l3.667-.042.223-.39a.609.609,0,0,0,0-.767l-.223-.376-3.695-.042C51.779-352.892,51.5-352.878,51.291-352.641Z" transform="translate(-25.871 -128.139)" fill="#080808"/>
      <path id="Path_1006" data-name="Path 1006" d="M122.309-352.777a1,1,0,0,0,0,1.227c.181.2.809.223,4.643.223,4.113,0,4.448-.014,4.657-.251a.877.877,0,0,0-.014-1.185c-.223-.209-.767-.237-4.671-.237C123.1-353,122.49-352.972,122.309-352.777Z" transform="translate(-87.003 -128.031)" fill="#080808"/>
      <path id="Path_1007" data-name="Path 1007" d="M51.291-326.641a.881.881,0,0,0,.014,1.2c.237.209.892.223,7.153.2l6.888-.042.181-.39a.7.7,0,0,0,0-.767l-.181-.376-6.916-.042C51.876-326.892,51.5-326.878,51.291-326.641Z" transform="translate(-25.871 -150.513)" fill="#080808"/>
      <path id="Path_1008" data-name="Path 1008" d="M168.167-326.924a1.14,1.14,0,0,0-.167.669c0,.753.167.837,1.6.837,1.06,0,1.325-.042,1.506-.251a.877.877,0,0,0-.014-1.185A5.118,5.118,0,0,0,168.167-326.924Z" transform="translate(-126.503 -150.314)" fill="#080808"/>
      <path id="Path_1009" data-name="Path 1009" d="M51.322-300.749a.877.877,0,0,0,.014,1.185c.223.209.725.237,4.169.237,3.6,0,3.918-.014,4.127-.251a.877.877,0,0,0-.014-1.185c-.223-.209-.725-.237-4.169-.237C51.852-301,51.532-300.986,51.322-300.749Z" transform="translate(-25.902 -172.78)" fill="#080808"/>
      <path id="Path_1010" data-name="Path 1010" d="M126.322-300.749a.877.877,0,0,0,.014,1.185c.223.209.739.237,4.378.237,3.807,0,4.127-.014,4.336-.251a.877.877,0,0,0-.014-1.185c-.223-.209-.739-.237-4.378-.237C126.852-301,126.532-300.986,126.322-300.749Z" transform="translate(-90.445 -172.78)" fill="#080808"/>
      <path id="Path_1011" data-name="Path 1011" d="M211.562-80.7a2.376,2.376,0,0,0,1.185,4.462,2.778,2.778,0,0,0,1.9-1.018,3.042,3.042,0,0,0,0-2.691A2.4,2.4,0,0,0,211.562-80.7Z" transform="translate(-162.913 -362.124)" fill="#080808"/>
    </g>
  </g>
</svg>
