<svg xmlns="http://www.w3.org/2000/svg" width="70.569" height="68.552" viewBox="0 0 70.569 68.552">
  <g id="Group_476" data-name="Group 476" transform="translate(-157.783 -695.73)">
    <circle id="Ellipse_20" data-name="Ellipse 20" cx="22.5" cy="22.5" r="22.5" transform="translate(157.783 697.73)" fill="#ffd000"/>
    <g id="research" transform="translate(159.813 1207.73)">
      <path id="Path_974" data-name="Path 974" d="M2.772-511.8A4.859,4.859,0,0,0,.79-510.286C0-509.2,0-509.228,0-502.012c0,6.2.013,6.654.254,7.284a4.08,4.08,0,0,0,2.129,2.3l.9.442,6.253.04,6.266.04v-2.946l-5.918-.04c-5.409-.04-5.958-.067-6.279-.281a1.563,1.563,0,0,1-.5-.576,47.1,47.1,0,0,1-.161-6.36v-6.038L3.4-508.6l.455-.455H27.582l.428.388.442.388.054,1.754.04,1.754h2.919v-1.874a6.459,6.459,0,0,0-.281-2.624,4.319,4.319,0,0,0-2.2-2.343l-.8-.388-12.452.013C5.382-511.987,3.2-511.946,2.772-511.8Z" fill="#080808"/>
      <path id="Path_975" data-name="Path 975" d="M279.477-511.625a4.388,4.388,0,0,0-2.2,2.356,6.459,6.459,0,0,0-.281,2.624v1.874h2.919l.04-1.754.054-1.754.442-.388.428-.388h23.725l.455.455.455.455v6.038a47.1,47.1,0,0,1-.161,6.36,1.563,1.563,0,0,1-.5.576c-.321.214-.87.241-6.266.281l-5.931.04v2.946l6.266-.04,6.253-.04.91-.442a3.949,3.949,0,0,0,1.433-1.111c.964-1.218.951-1.125.91-8.7-.04-6.748-.04-6.748-.348-7.377a4.84,4.84,0,0,0-2.008-2.008l-.629-.308-12.586-.04L280.28-512Z" transform="translate(-239.912)" fill="#080808"/>
      <path id="Path_976" data-name="Path 976" d="M42-468.527v1.473H62.084V-470H42Z" transform="translate(-36.377 -36.377)" fill="#080808"/>
      <path id="Path_977" data-name="Path 977" d="M320-468.527v1.473h20.084V-470H320Z" transform="translate(-277.155 -36.377)" fill="#080808"/>
      <path id="Path_978" data-name="Path 978" d="M133.669-437.492a18.639,18.639,0,0,0-16,13.536,21.99,21.99,0,0,0-.669,4.338v.736h2.919l.094-.977a15.084,15.084,0,0,1,1.7-6.159,15.455,15.455,0,0,1,4.5-5.409,15.625,15.625,0,0,1,18.825.027,15.771,15.771,0,0,1,6.119,13.885,15.7,15.7,0,0,1-14.366,14.125l-1.178.08v2.946l1.379-.08a17.965,17.965,0,0,0,9.975-3.749l.71-.536,1.058,1.044,1.058,1.058-.656.7c-.616.643-.669.763-.669,1.352v.643L155-393.4c7.431,7.444,7.2,7.257,9.131,7.257a3.481,3.481,0,0,0,1.874-.348,4.608,4.608,0,0,0,2.008-1.861,4.812,4.812,0,0,0-.013-4.177c-.295-.589-11.983-12.465-13.028-13.242-.844-.629-1.392-.549-2.3.308l-.736.7-1.058-1.058-1.058-1.044.576-.75a18.814,18.814,0,0,0,1.406-20.566,18.846,18.846,0,0,0-10.363-8.489A21.3,21.3,0,0,0,133.669-437.492Zm31.8,47.009a1.043,1.043,0,0,1-.362.951,1.263,1.263,0,0,1-1.366.362c-.187-.08-2.892-2.678-6-5.784l-5.664-5.65.977-.977.964-.964,5.717,5.731,5.731,5.731Z" transform="translate(-101.335 -64.466)" fill="#080808"/>
      <path id="Path_979" data-name="Path 979" d="M42-425.527v1.473H54.987V-427H42Z" transform="translate(-36.377 -73.619)" fill="#080808"/>
      <path id="Path_980" data-name="Path 980" d="M373-425.527v1.473h12.987V-427H373Z" transform="translate(-323.059 -73.619)" fill="#080808"/>
      <path id="Path_981" data-name="Path 981" d="M256-393.827v1.473l1.125.147a10.734,10.734,0,0,1,3.682,1.192,10.089,10.089,0,0,1,5.061,7.766l.08.977h2.946l-.08-1.245a12.88,12.88,0,0,0-11.742-11.7L256-395.3Z" transform="translate(-221.724 -101.075)" fill="#080808"/>
      <path id="Path_982" data-name="Path 982" d="M93.936-277.617a4.294,4.294,0,0,0-2.946,2.638c-.228.616-.254,1.1-.254,6,0,4.512.027,5.449.214,6.065a7.269,7.269,0,0,0,4.874,4.954l.736.241H93.735a15.018,15.018,0,0,0-3.548.228,7.419,7.419,0,0,0-5.061,5.382,96.319,96.319,0,0,0,0,10.778,1.8,1.8,0,0,0,.442.522c.268.214,1.111.241,12.291.241h12.023l.428-.388.442-.388.04-4.807c.04-5.356-.013-6-.723-7.511a5.674,5.674,0,0,0-1.433-1.955c-1.834-1.808-2.745-2.089-6.654-2.089l-2.745-.013.87-.295a6.805,6.805,0,0,0,2.919-1.834,7.315,7.315,0,0,0,1.9-3.548c.094-.536.134-2.531.107-5.958l-.04-5.155-.348-.736a4.444,4.444,0,0,0-2.129-2.129c-.736-.348-.763-.348-4.351-.375A23.766,23.766,0,0,0,93.936-277.617Zm7.485,3.039c.536.361.7.924.7,2.531v1.486H93.681v-1.54c0-1.968.147-2.29,1.205-2.664.107-.04,1.553-.054,3.213-.04C100.51-274.779,101.179-274.739,101.42-274.578Zm.669,8.8a5.365,5.365,0,0,1-.4,2.611,4.121,4.121,0,0,1-6.748,1.259c-1.018-1.031-1.259-1.781-1.259-3.963v-1.741h8.462Zm2.932,11.3a4.678,4.678,0,0,1,2.3,2.062c.442.9.549,1.9.549,5.583v3.321h-2.812V-247.8h-2.946v4.285H93.681V-247.8H90.736v4.285H87.911l.04-3.977c.04-3.495.067-4.057.281-4.526a4.518,4.518,0,0,1,1.5-1.928c1.125-.8,1.018-.8,8.06-.8C104.085-254.762,104.272-254.749,105.022-254.481Z" transform="translate(-73.598 -202.878)" fill="#080808"/>
    </g>
  </g>
</svg>
