<svg xmlns="http://www.w3.org/2000/svg" width="78.913" height="69.5" viewBox="0 0 78.913 69.5">
  <g id="Group_480" data-name="Group 480" transform="translate(-1232 -674.276)">
    <circle id="Ellipse_41" data-name="Ellipse 41" cx="22.5" cy="22.5" r="22.5" transform="translate(1249 688)" fill="#ffd000"/>
    <g id="denver" transform="translate(1232 1155.276)">
      <path id="Path_994" data-name="Path 994" d="M244.536-480.676a5.674,5.674,0,0,0-2.651,2.527,4.026,4.026,0,0,0-.385,2.234,4.29,4.29,0,0,0,.4,2.312,5.1,5.1,0,0,0,4.361,2.913,3,3,0,0,1,1.711.555,2.626,2.626,0,0,1,1.171,2.188,10.08,10.08,0,0,0,.324,1.587,5.046,5.046,0,0,0,2.974,3.067c.878.324,1.017.339,8.768.293l7.875-.046.755-.385a5.335,5.335,0,0,0,2.373-2.435,4.2,4.2,0,0,0,.416-2.265,4.177,4.177,0,0,0-.4-2.234,5.2,5.2,0,0,0-4.284-2.928,3.07,3.07,0,0,1-2.2-.894,3.08,3.08,0,0,1-.817-2.111A5.078,5.078,0,0,0,262-480.553c-.894-.431-1.017-.447-3.252-.447-2.142,0-2.342.031-2.6.308a1.371,1.371,0,0,0,.046,1.741c.308.308.539.339,2.466.416a10.413,10.413,0,0,1,2.435.262,3.336,3.336,0,0,1,1.449,2.774,5.321,5.321,0,0,0,1.325,2.974c1,1.079,1.741,1.387,4.269,1.772a2.947,2.947,0,0,1,1.9,1.572,2.71,2.71,0,0,1-1.171,3.39l-.663.354h-7.212c-4.731,0-7.351-.062-7.643-.17a3,3,0,0,1-1.741-2.712,5.11,5.11,0,0,0-1.418-3.221,4.771,4.771,0,0,0-2.974-1.526c-1.587-.2-1.788-.262-2.342-.74a3.072,3.072,0,0,1-.755-.986A2.881,2.881,0,0,1,245-478.1c.493-.339.632-.354,4.238-.431s3.745-.092,4.084-.416a1.371,1.371,0,0,0,.046-1.741c-.262-.293-.431-.308-4.145-.293C245.722-480.985,245.276-480.954,244.536-480.676Z" transform="translate(-204.284)"/>
      <path id="Path_995" data-name="Path 995" d="M61.1-328.776c-8.984,2.866-16.35,5.193-16.366,5.193,0-.015.17-1.479.385-3.282l.4-3.267-.37-.4a1.136,1.136,0,0,0-.878-.385c-1.125,0-26.167,3.714-26.49,3.93a1.184,1.184,0,0,0-.431.647,29.543,29.543,0,0,0,.755,4.592c.478,2.281.832,4.238.817,4.361a30.74,30.74,0,0,1-3.9,1.973,36.267,36.267,0,0,0-4.161,2.111,20.628,20.628,0,0,0-1.294,2.99l-.986,2.651-3.976.046c-3.637.046-3.991.077-4.284.339a1.092,1.092,0,0,0-.324.848c0,.354,1.171,3.56,3.144,8.645l3.144,8.09-2.312.077c-2.188.077-2.327.092-2.6.447a1.2,1.2,0,0,0,.092,1.633l.37.385h76.4l.324-.354a1.236,1.236,0,0,0-.062-1.788c-.4-.324-.524-.324-11.111-.324-9.554,0-10.71-.031-10.618-.231.046-.139,1.217-3.914,2.589-8.414,2.373-7.751,2.481-8.2,2.265-8.583-.354-.647-.832-.8-2.574-.8H57.48l4.037-4.638c2.234-2.543,4.145-4.823,4.238-5.07a1.128,1.128,0,0,0-.478-1.464c-.724-.478-1.187-.216-2.882,1.711a19.289,19.289,0,0,1-1.664,1.757c-.123,0-3.791-9.385-3.7-9.462.108-.108,16.551-5.317,16.6-5.255.031.031-1.541,1.88-3.5,4.115a40.927,40.927,0,0,0-3.652,4.484,1.319,1.319,0,0,0,.724,1.341c.771.431.986.231,6.457-6.025,4.947-5.671,5.239-6.041,5.239-6.611a.959.959,0,0,0-.4-.909,1.452,1.452,0,0,0-.74-.324C77.591-333.985,70.086-331.642,61.1-328.776ZM40.3-308.7c-1.31,10.294-2.389,18.8-2.389,18.908,0,.123-.509.169-1.88.139l-1.88-.046-2.281-15.333c-1.248-8.429-2.265-15.487-2.281-15.688,0-.324.709-.709,6.5-3.575,3.591-1.772,6.534-3.19,6.565-3.174C42.671-327.435,41.623-318.99,40.3-308.7Zm-7.875-16.566-4.176,2.1-2.481-1.063a26.582,26.582,0,0,1-2.5-1.14c0-.062,12.467-1.942,13.1-1.973C36.491-327.358,34.719-326.418,32.423-325.262Zm22.622,2.435c.216.586,1.171,3.036,2.1,5.44l1.7,4.361-3.406,3.9c-1.88,2.142-3.483,3.914-3.575,3.93-.139.031-6.873-15.718-6.781-15.826.123-.139,8.984-2.928,9.246-2.913C54.552-323.906,54.722-323.629,55.045-322.828Zm-31.36.416c2.527,1.094,3.313,1.51,3.359,1.741.092.447,4.546,30.666,4.546,30.882,0,.123-.663.169-2.234.169a11.478,11.478,0,0,1-2.234-.108c0-.154-6.781-33.671-6.858-33.918-.031-.092-.015-.185.031-.185C20.357-323.829,21.883-323.182,23.686-322.411ZM47.14-309.544l2.82,6.673L46.832-299.3c-4.978,5.717-6.041,6.9-6.072,6.873-.031-.046,3.1-24.379,3.159-24.626C43.935-317.157,43.919-317.187,47.14-309.544Zm-26.891-1.664c.4,1.9.693,3.483.663,3.514s-2.219.031-4.839.015l-4.793-.046L12-309.652l.709-1.926,3.39-1.556c1.865-.863,3.406-1.556,3.406-1.541C19.525-314.676,19.864-313.1,20.249-311.208Zm2.8,13.838,1.572,7.751H22.206l-.046-4.407-.046-4.407-.447-.37-.431-.385-3.544.046c-3.514.046-3.544.046-3.837.416-.277.339-.293.663-.293,4.731v4.376H8.984L7.2-294.288c-1-2.558-2.358-6.056-3.02-7.782l-1.217-3.113,9.262.031,9.262.046Zm35.721-7.474c-.062.2-1.125,3.668-2.373,7.721-1.248,4.037-2.3,7.4-2.342,7.428-.046.046-2.82.062-6.18.046l-6.087-.046,6.765-7.751,6.765-7.736H57.11C58.883-305.183,58.883-305.183,58.775-304.844Zm-39.2,11.681v3.544H16.027v-7.089h3.544Z" transform="translate(0 -124.347)"/>
    </g>
  </g>
</svg>
