<svg xmlns="http://www.w3.org/2000/svg" xmlns:xlink="http://www.w3.org/1999/xlink" width="570" height="180" viewBox="0 0 570 180">
  <defs>
    <clipPath id="clip-path">
      <rect id="Rectangle_173" data-name="Rectangle 173" width="120" height="60" transform="translate(472 2303)" fill="#dcd5d5"/>
    </clipPath>
    <clipPath id="clip-path-2">
      <rect id="Rectangle_174" data-name="Rectangle 174" width="120" height="60" transform="translate(294 2412)" fill="#dcd5d5"/>
    </clipPath>
    <clipPath id="clip-path-3">
      <rect id="Rectangle_175" data-name="Rectangle 175" width="120" height="60" transform="translate(343 2293)" fill="#dcd5d5"/>
    </clipPath>
    <clipPath id="clip-path-4">
      <rect id="Rectangle_176" data-name="Rectangle 176" width="120" height="60" transform="translate(425 2187)" fill="#dcd5d5"/>
    </clipPath>
    <clipPath id="clip-path-5">
      <rect id="Rectangle_178" data-name="Rectangle 178" width="120" height="60" transform="translate(424 2166)" fill="#dcd5d5"/>
    </clipPath>
    <clipPath id="clip-path-6">
      <rect id="Rectangle_179" data-name="Rectangle 179" width="120" height="60" transform="translate(533 2126)" fill="#dcd5d5"/>
    </clipPath>
    <clipPath id="clip-path-7">
      <rect id="Rectangle_177" data-name="Rectangle 177" width="120" height="60" transform="translate(425 2317)" fill="#dcd5d5"/>
    </clipPath>
    <clipPath id="clip-path-8">
      <rect id="Rectangle_181" data-name="Rectangle 181" width="100" height="25" transform="translate(-0.243 -0.04)" fill="#080808"/>
    </clipPath>
    <clipPath id="clip-path-9">
      <rect id="Rectangle_182" data-name="Rectangle 182" width="120" height="60" transform="translate(425 2252)" fill="#dcd5d5"/>
    </clipPath>
    <clipPath id="clip-path-10">
      <rect id="Rectangle_183" data-name="Rectangle 183" width="120" height="60" transform="translate(425 2335)" fill="#dcd5d5"/>
    </clipPath>
    <clipPath id="clip-path-11">
      <rect id="Rectangle_186" data-name="Rectangle 186" width="120" height="60" transform="translate(430 2284)" fill="#dcd5d5"/>
    </clipPath>
    <linearGradient id="linear-gradient" x1="0.5" y1="0.086" x2="0.5" y2="1" gradientUnits="objectBoundingBox">
      <stop offset="0" stop-color="#6a6a6a" stop-opacity="0.2"/>
      <stop offset="1" stop-color="#311b92" stop-opacity="0.02"/>
    </linearGradient>
    <radialGradient id="radial-gradient" cx="0.032" cy="0.027" r="1.612" gradientUnits="objectBoundingBox">
      <stop offset="0" stop-color="#fff" stop-opacity="0.102"/>
      <stop offset="1" stop-color="#fff" stop-opacity="0"/>
    </radialGradient>
    <clipPath id="clip-path-12">
      <rect id="Rectangle_187" data-name="Rectangle 187" width="120" height="60" transform="translate(430 2292)" fill="#dcd5d5"/>
    </clipPath>
    <clipPath id="clip-path-13">
      <rect id="Rectangle_184" data-name="Rectangle 184" width="120" height="60" transform="translate(425 2437)" fill="#dcd5d5"/>
    </clipPath>
  </defs>
  <g id="Group_380" data-name="Group 380" transform="translate(-435 -1775)">
    <g id="Mask_Group_66" data-name="Mask Group 66" transform="translate(-37 -528)" clip-path="url(#clip-path)">
      <g id="photoshop" transform="translate(472 2315)">
        <g id="Adobe_Photoshop_CC_icon">
          <g id="Surfaces">
            <g id="Outline_no_shadow">
              <path id="Path" d="M6.552,0h23.9A6.54,6.54,0,0,1,37,6.538V29.462A6.54,6.54,0,0,1,30.448,36H6.552A6.54,6.54,0,0,1,0,29.462V6.538A6.54,6.54,0,0,1,6.552,0Z" fill="#080808"/>
            </g>
          </g>
          <g id="Ps" transform="translate(8.325 9.154)">
            <path id="Shape" d="M0,16.092V.262C0,.154.046.092.154.092c.262,0,.509,0,.863-.015.37-.015.755-.015,1.172-.031S3.053.031,3.53.015,4.471,0,4.933,0A9.082,9.082,0,0,1,8.109.477a5.507,5.507,0,0,1,2.066,1.262A4.9,4.9,0,0,1,11.3,3.492a5.876,5.876,0,0,1,.355,2,5.492,5.492,0,0,1-.925,3.277,5.281,5.281,0,0,1-2.482,1.877,10.011,10.011,0,0,1-3.469.523c-.37,0-.617,0-.771-.015s-.37-.015-.663-.015v4.938a.192.192,0,0,1-.17.215H.185C.062,16.292,0,16.231,0,16.092ZM3.361,3.062V8.231c.216.015.416.031.6.031h.817a5.77,5.77,0,0,0,1.773-.277,2.652,2.652,0,0,0,1.264-.815,2.374,2.374,0,0,0,.478-1.585A2.528,2.528,0,0,0,7.94,4.215,2.235,2.235,0,0,0,6.86,3.338a4.532,4.532,0,0,0-1.819-.308c-.4,0-.755,0-1.048.015a3.537,3.537,0,0,0-.632.015Z" fill="#fff"/>
            <path id="Path-2" data-name="Path" d="M21.275,7.292a5.463,5.463,0,0,0-1.48-.523,8.143,8.143,0,0,0-1.727-.2,3.111,3.111,0,0,0-.925.108.792.792,0,0,0-.478.308.814.814,0,0,0-.123.415.684.684,0,0,0,.154.4,1.738,1.738,0,0,0,.524.415c.355.185.725.354,1.095.508a11.177,11.177,0,0,1,2.374,1.123,3.583,3.583,0,0,1,1.218,1.277,3.316,3.316,0,0,1,.355,1.585,3.574,3.574,0,0,1-.6,2.046,3.862,3.862,0,0,1-1.727,1.369,7.077,7.077,0,0,1-2.791.492,10.645,10.645,0,0,1-2.1-.2,6.23,6.23,0,0,1-1.572-.492.3.3,0,0,1-.17-.292V12.954a.167.167,0,0,1,.062-.138.117.117,0,0,1,.139.015,6.606,6.606,0,0,0,1.912.754,7.188,7.188,0,0,0,1.819.231,2.947,2.947,0,0,0,1.28-.215.715.715,0,0,0,.416-.646.815.815,0,0,0-.37-.615,6.545,6.545,0,0,0-1.511-.723,9.441,9.441,0,0,1-2.189-1.108A3.986,3.986,0,0,1,13.69,9.2a3.3,3.3,0,0,1-.355-1.569,3.612,3.612,0,0,1,.524-1.862,3.8,3.8,0,0,1,1.619-1.415,5.989,5.989,0,0,1,2.729-.538,13.316,13.316,0,0,1,1.912.138,5.434,5.434,0,0,1,1.326.354.27.27,0,0,1,.154.138.767.767,0,0,1,.031.185V7.138a.189.189,0,0,1-.077.154A.412.412,0,0,1,21.275,7.292Z" fill="#fff"/>
          </g>
        </g>
        <path id="Adobe" d="M45.979,12l.847-2.046h4.026L51.71,12h.88L49.246,4.212h-.77L45.11,12Zm4.576-2.772H47.123l1.716-4.136Zm4.912,2.9a2.492,2.492,0,0,0,1.089-.253,2.112,2.112,0,0,0,.858-.748h.022V12h.748V3.684h-.748V7.743h-.022a2.126,2.126,0,0,0-.858-.765,2.449,2.449,0,0,0-1.089-.259,2.761,2.761,0,0,0-1.095.209,2.494,2.494,0,0,0-.836.572A2.583,2.583,0,0,0,53,8.359a3.053,3.053,0,0,0,0,2.134,2.583,2.583,0,0,0,.539.858,2.494,2.494,0,0,0,.836.572A2.761,2.761,0,0,0,55.467,12.132Zm.077-.638a2.032,2.032,0,0,1-.825-.16,1.729,1.729,0,0,1-.611-.44,1.957,1.957,0,0,1-.379-.66,2.542,2.542,0,0,1,0-1.617,1.957,1.957,0,0,1,.379-.66,1.789,1.789,0,0,1,.611-.445,1.973,1.973,0,0,1,.825-.165,1.947,1.947,0,0,1,.792.159,1.9,1.9,0,0,1,.627.44,2.032,2.032,0,0,1,.413.66,2.335,2.335,0,0,1,0,1.639,1.969,1.969,0,0,1-.413.655,1.942,1.942,0,0,1-1.419.594Zm6.5.638a2.951,2.951,0,0,0,1.111-.2A2.539,2.539,0,0,0,64.587,10.5a2.957,2.957,0,0,0,0-2.156,2.594,2.594,0,0,0-.566-.858,2.568,2.568,0,0,0-.869-.566,2.951,2.951,0,0,0-1.111-.2,2.921,2.921,0,0,0-1.1.2,2.539,2.539,0,0,0-1.436,1.424,2.957,2.957,0,0,0,0,2.156,2.539,2.539,0,0,0,1.436,1.425A2.92,2.92,0,0,0,62.041,12.132Zm0-.638a1.965,1.965,0,0,1-.808-.16,1.8,1.8,0,0,1-.611-.44,1.979,1.979,0,0,1-.391-.66,2.446,2.446,0,0,1,0-1.617,1.979,1.979,0,0,1,.391-.66,1.861,1.861,0,0,1,.611-.445,1.908,1.908,0,0,1,.808-.165,1.945,1.945,0,0,1,.814.165,1.848,1.848,0,0,1,.616.445,1.983,1.983,0,0,1,.39.66,2.446,2.446,0,0,1,0,1.617,1.983,1.983,0,0,1-.39.66,1.784,1.784,0,0,1-.616.44A2,2,0,0,1,62.041,11.494Zm6.584.638a2.762,2.762,0,0,0,1.094-.209,2.494,2.494,0,0,0,.836-.572,2.584,2.584,0,0,0,.539-.858,3.053,3.053,0,0,0,0-2.134,2.584,2.584,0,0,0-.539-.858,2.494,2.494,0,0,0-.836-.572,2.761,2.761,0,0,0-1.094-.209,2.449,2.449,0,0,0-1.089.259,2.126,2.126,0,0,0-.858.765h-.022V3.684h-.748V12h.748v-.869h.022a2.112,2.112,0,0,0,.858.748A2.492,2.492,0,0,0,68.625,12.132Zm-.077-.638a1.942,1.942,0,0,1-1.419-.594,1.969,1.969,0,0,1-.412-.655,2.335,2.335,0,0,1,0-1.639,2.032,2.032,0,0,1,.412-.66,1.9,1.9,0,0,1,.627-.44,1.947,1.947,0,0,1,.792-.159,1.973,1.973,0,0,1,.825.165,1.789,1.789,0,0,1,.61.445,1.957,1.957,0,0,1,.38.66,2.542,2.542,0,0,1,0,1.617,1.957,1.957,0,0,1-.38.66,1.729,1.729,0,0,1-.61.44A2.032,2.032,0,0,1,68.548,11.494Zm6.122.638a2.844,2.844,0,0,0,1.194-.253,2.79,2.79,0,0,0,1.018-.836h0l-.561-.44a2.013,2.013,0,0,1-.644.622,1.967,1.967,0,0,1-1.743.121,1.909,1.909,0,0,1-.594-.4,1.836,1.836,0,0,1-.4-.594,2.011,2.011,0,0,1-.154-.726h4.268a1.681,1.681,0,0,0,.011-.187h0V9.272a3.011,3.011,0,0,0-.16-.99,2.361,2.361,0,0,0-.467-.808,2.2,2.2,0,0,0-.77-.55,2.625,2.625,0,0,0-1.067-.2,2.561,2.561,0,0,0-1.023.2,2.53,2.53,0,0,0-.825.566,2.611,2.611,0,0,0-.55.858,2.876,2.876,0,0,0-.2,1.078,2.809,2.809,0,0,0,.2,1.078,2.686,2.686,0,0,0,.555.858,2.488,2.488,0,0,0,.841.566A2.737,2.737,0,0,0,74.67,12.132Zm1.639-3.1H72.8a1.739,1.739,0,0,1,.165-.632,1.861,1.861,0,0,1,.385-.539,1.834,1.834,0,0,1,.561-.374,1.732,1.732,0,0,1,.693-.137,1.586,1.586,0,0,1,1.237.478,1.855,1.855,0,0,1,.467,1.2Z" fill="#080808"/>
        <path id="Photoshop-2" data-name="Photoshop" d="M48.264,30V25.312h1.552a7.88,7.88,0,0,0,1.7-.176,4.175,4.175,0,0,0,1.4-.568,2.856,2.856,0,0,0,.952-1.032,3.251,3.251,0,0,0,.352-1.584,3.406,3.406,0,0,0-.3-1.5,2.682,2.682,0,0,0-.864-1.024,3.664,3.664,0,0,0-1.344-.576,8.061,8.061,0,0,0-1.76-.176h-3.7V30Zm1.408-6.384H48.264V20.368h1.472a7.161,7.161,0,0,1,.9.056,2.364,2.364,0,0,1,.784.232,1.34,1.34,0,0,1,.76,1.3,1.5,1.5,0,0,1-.208.832,1.463,1.463,0,0,1-.56.5,2.608,2.608,0,0,1-.8.256,5.947,5.947,0,0,1-.944.072ZM57.121,30V25.808a2.571,2.571,0,0,1,.112-.752,2.108,2.108,0,0,1,.336-.664,1.657,1.657,0,0,1,.56-.472,1.7,1.7,0,0,1,.8-.176,1.293,1.293,0,0,1,.744.192,1.309,1.309,0,0,1,.432.488,2,2,0,0,1,.2.656,5.267,5.267,0,0,1,.048.7h0V30h1.92V25.2a4.171,4.171,0,0,0-.16-1.152,2.813,2.813,0,0,0-.5-.992,2.538,2.538,0,0,0-.88-.7,2.889,2.889,0,0,0-1.288-.264,2.735,2.735,0,0,0-.8.112,2.639,2.639,0,0,0-.656.3,2.587,2.587,0,0,0-.5.416,1.845,1.845,0,0,0-.328.472h-.032V17.9H55.2V30Zm10.377.224a4.393,4.393,0,0,0,1.632-.3,4.056,4.056,0,0,0,1.328-.84,3.941,3.941,0,0,0,.888-1.288,4.119,4.119,0,0,0,.328-1.664,4.063,4.063,0,0,0-.328-1.656,3.873,3.873,0,0,0-.888-1.272,3.914,3.914,0,0,0-1.328-.816,4.768,4.768,0,0,0-3.264,0,3.914,3.914,0,0,0-1.328.816,3.873,3.873,0,0,0-.888,1.272,4.061,4.061,0,0,0-.328,1.656,4.118,4.118,0,0,0,.328,1.664,3.942,3.942,0,0,0,.888,1.288,4.056,4.056,0,0,0,1.328.84A4.393,4.393,0,0,0,67.5,30.224Zm0-1.6a2.065,2.065,0,0,1-.992-.224,2.135,2.135,0,0,1-.688-.576,2.469,2.469,0,0,1-.408-.8,3.069,3.069,0,0,1-.136-.9,2.99,2.99,0,0,1,.136-.888,2.484,2.484,0,0,1,.408-.792,2.049,2.049,0,0,1,.688-.568,2.386,2.386,0,0,1,1.984,0,2.049,2.049,0,0,1,.688.568,2.484,2.484,0,0,1,.408.792,2.99,2.99,0,0,1,.136.888,3.069,3.069,0,0,1-.136.9,2.469,2.469,0,0,1-.408.8,2.135,2.135,0,0,1-.688.576A2.065,2.065,0,0,1,67.5,28.624Zm8.025,1.536A4.284,4.284,0,0,0,76.2,30.1a3.152,3.152,0,0,0,.608-.152h0l-.064-1.5a1.679,1.679,0,0,1-.4.12,2.373,2.373,0,0,1-.416.04q-.64,0-.824-.336a1.752,1.752,0,0,1-.184-.848h0V23.856h1.92V22.32h-1.92V20.1H73.027V22.32H71.683v1.536h1.344V27.44a5.026,5.026,0,0,0,.1,1.048,2.194,2.194,0,0,0,.384.864,1.892,1.892,0,0,0,.76.592A3.066,3.066,0,0,0,75.523,30.16Zm5.689.064a4.393,4.393,0,0,0,1.632-.3,4.057,4.057,0,0,0,1.328-.84,3.941,3.941,0,0,0,.888-1.288,4.119,4.119,0,0,0,.328-1.664,4.063,4.063,0,0,0-.328-1.656,3.873,3.873,0,0,0-.888-1.272,3.915,3.915,0,0,0-1.328-.816,4.768,4.768,0,0,0-3.264,0,3.914,3.914,0,0,0-1.328.816,3.87,3.87,0,0,0-.888,1.272,4.061,4.061,0,0,0-.328,1.656,4.118,4.118,0,0,0,.328,1.664,3.938,3.938,0,0,0,.888,1.288,4.056,4.056,0,0,0,1.328.84A4.393,4.393,0,0,0,81.213,30.224Zm0-1.6a2.065,2.065,0,0,1-.992-.224,2.134,2.134,0,0,1-.688-.576,2.465,2.465,0,0,1-.408-.8,3.069,3.069,0,0,1-.136-.9,2.99,2.99,0,0,1,.136-.888,2.48,2.48,0,0,1,.408-.792,2.048,2.048,0,0,1,.688-.568,2.386,2.386,0,0,1,1.984,0,2.05,2.05,0,0,1,.688.568,2.484,2.484,0,0,1,.408.792,2.994,2.994,0,0,1,.136.888,3.073,3.073,0,0,1-.136.9,2.469,2.469,0,0,1-.408.8,2.136,2.136,0,0,1-.688.576A2.065,2.065,0,0,1,81.213,28.624Zm7.529,1.6a5.307,5.307,0,0,0,1.208-.136,2.964,2.964,0,0,0,1.024-.44,2.245,2.245,0,0,0,.7-.792,2.476,2.476,0,0,0,.264-1.192,1.89,1.89,0,0,0-.224-.952,2.089,2.089,0,0,0-.584-.656,3.186,3.186,0,0,0-.8-.424,6.98,6.98,0,0,0-.872-.256A7.756,7.756,0,0,1,88.222,25a.642.642,0,0,1-.424-.632.662.662,0,0,1,.384-.64,1.869,1.869,0,0,1,.848-.192,1.982,1.982,0,0,1,.976.248,2.216,2.216,0,0,1,.7.584h0l1.248-1.1a2.742,2.742,0,0,0-1.256-.88,4.717,4.717,0,0,0-1.624-.288,4.358,4.358,0,0,0-1.12.144,3.127,3.127,0,0,0-.976.44,2.267,2.267,0,0,0-.7.76,2.2,2.2,0,0,0-.264,1.1,1.956,1.956,0,0,0,.192.912,1.854,1.854,0,0,0,.512.616,2.741,2.741,0,0,0,.728.4,6.352,6.352,0,0,0,.84.248,7.091,7.091,0,0,1,1.32.416.709.709,0,0,1,.44.688.788.788,0,0,1-.112.432.827.827,0,0,1-.3.28,1.446,1.446,0,0,1-.4.152,1.951,1.951,0,0,1-.424.048,2.383,2.383,0,0,1-1.136-.272,2.525,2.525,0,0,1-.832-.688h0L85.59,28.96A3.689,3.689,0,0,0,87,29.9,4.794,4.794,0,0,0,88.742,30.224ZM94.815,30V25.808a2.568,2.568,0,0,1,.112-.752,2.1,2.1,0,0,1,.336-.664,1.656,1.656,0,0,1,.56-.472,1.7,1.7,0,0,1,.8-.176,1.293,1.293,0,0,1,.744.192,1.311,1.311,0,0,1,.432.488,2,2,0,0,1,.2.656,5.268,5.268,0,0,1,.048.7h0V30h1.92V25.2a4.175,4.175,0,0,0-.16-1.152,2.817,2.817,0,0,0-.5-.992,2.54,2.54,0,0,0-.88-.7,2.89,2.89,0,0,0-1.288-.264,2.735,2.735,0,0,0-.8.112,2.637,2.637,0,0,0-.656.3,2.587,2.587,0,0,0-.5.416,1.842,1.842,0,0,0-.328.472h-.032V17.9h-1.92V30Zm10.377.224a4.393,4.393,0,0,0,1.632-.3,4.053,4.053,0,0,0,1.328-.84,3.951,3.951,0,0,0,.888-1.288,4.113,4.113,0,0,0,.328-1.664,4.056,4.056,0,0,0-.328-1.656,3.816,3.816,0,0,0-2.216-2.088,4.768,4.768,0,0,0-3.264,0,3.816,3.816,0,0,0-2.216,2.088,4.056,4.056,0,0,0-.328,1.656,4.113,4.113,0,0,0,.328,1.664,3.951,3.951,0,0,0,.888,1.288,4.053,4.053,0,0,0,1.328.84A4.393,4.393,0,0,0,105.192,30.224Zm0-1.6a2.064,2.064,0,0,1-.992-.224,2.135,2.135,0,0,1-.688-.576,2.481,2.481,0,0,1-.408-.8,3.06,3.06,0,0,1-.136-.9,2.981,2.981,0,0,1,.136-.888,2.5,2.5,0,0,1,.408-.792,2.049,2.049,0,0,1,.688-.568,2.386,2.386,0,0,1,1.984,0,2.049,2.049,0,0,1,.688.568,2.5,2.5,0,0,1,.408.792,2.98,2.98,0,0,1,.136.888,3.059,3.059,0,0,1-.136.9,2.481,2.481,0,0,1-.408.8,2.135,2.135,0,0,1-.688.576A2.064,2.064,0,0,1,105.192,28.624ZM112.4,33.84V28.976h.032a2.547,2.547,0,0,0,1.048.912,3.329,3.329,0,0,0,1.5.336,3.652,3.652,0,0,0,1.576-.328,3.616,3.616,0,0,0,1.184-.88,3.91,3.91,0,0,0,.752-1.3,4.726,4.726,0,0,0,.264-1.592,4.542,4.542,0,0,0-.272-1.584,3.855,3.855,0,0,0-.768-1.28,3.582,3.582,0,0,0-2.688-1.168,3.5,3.5,0,0,0-.952.12,3.635,3.635,0,0,0-.76.3,2.49,2.49,0,0,0-.568.416,2.766,2.766,0,0,0-.376.456h-.048V22.32h-1.84V33.84Zm2.192-5.216a2.017,2.017,0,0,1-.944-.216,2.312,2.312,0,0,1-.712-.568,2.476,2.476,0,0,1-.448-.792,2.712,2.712,0,0,1-.152-.888,2.783,2.783,0,0,1,.152-.9,2.458,2.458,0,0,1,.448-.8,2.417,2.417,0,0,1,.712-.576,1.959,1.959,0,0,1,.944-.224,2.09,2.09,0,0,1,.976.216,2.049,2.049,0,0,1,.688.568,2.5,2.5,0,0,1,.408.792,2.981,2.981,0,0,1,.136.888,3.06,3.06,0,0,1-.136.9,2.481,2.481,0,0,1-.408.8,2.135,2.135,0,0,1-.688.576A2.029,2.029,0,0,1,114.593,28.624Z" fill="#080808"/>
      </g>
    </g>
    <g id="Mask_Group_67" data-name="Mask Group 67" transform="translate(141 -577)" clip-path="url(#clip-path-2)">
      <g id="xd" transform="translate(294 2424)">
        <g id="Adobe_XD_CC_icon">
          <g id="Surfaces-2" data-name="Surfaces">
            <g id="Outline_no_shadow-2" data-name="Outline_no_shadow">
              <path id="Path-3" data-name="Path" d="M6.552,0h23.9A6.54,6.54,0,0,1,37,6.538V29.462A6.54,6.54,0,0,1,30.448,36H6.552A6.54,6.54,0,0,1,0,29.462V6.538A6.54,6.54,0,0,1,6.552,0Z" fill="#080808"/>
            </g>
          </g>
          <g id="Xd-2" data-name="Xd" transform="translate(5.39 7.89)">
            <path id="Path-4" data-name="Path" d="M14.066,1.572,9.441,9.187l4.933,8.077a.265.265,0,0,1,.031.185c-.015.062-.077.015-.17.031h-3.53c-.247,0-.416-.015-.524-.169-.324-.646-.663-1.277-.987-1.923-.324-.631-.678-1.277-1.048-1.939s-.74-1.323-1.11-2H7.005c-.324.662-.678,1.323-1.033,1.985S5.263,14.756,4.924,15.4c-.355.646-.709,1.308-1.064,1.939-.062.154-.185.169-.355.169H.114c-.062,0-.108.031-.108-.046a.213.213,0,0,1,.031-.169L4.831,9.449.16,1.556C.114,1.495.1,1.433.129,1.4a.179.179,0,0,1,.154-.062h3.5A.912.912,0,0,1,4,1.372a.437.437,0,0,1,.154.138c.293.662.632,1.323.987,1.985.37.662.725,1.308,1.11,1.954.37.646.709,1.292,1.033,1.954h.031c.324-.677.663-1.338,1-1.985s.694-1.292,1.048-1.938.694-1.308,1.033-1.938a.261.261,0,0,1,.092-.154.294.294,0,0,1,.2-.031h3.253a.142.142,0,0,1,.17.108c.015.015-.015.077-.046.108Z" fill="#fff"/>
            <path id="Shape-2" data-name="Shape" d="M21.188,17.8a7.678,7.678,0,0,1-3.314-.692,5.371,5.371,0,0,1-2.328-2.092A6.646,6.646,0,0,1,14.7,11.51a6.309,6.309,0,0,1,.848-3.246A6.4,6.4,0,0,1,18,5.879a7.9,7.9,0,0,1,3.9-.892A2.761,2.761,0,0,1,22.222,5c.139.015.293.015.478.031V.172c0-.108.046-.169.154-.169h3.13a.138.138,0,0,1,.154.108V14.787c0,.277.015.585.031.923.031.323.046.631.062.892a.25.25,0,0,1-.154.246,11.787,11.787,0,0,1-2.513.739A13.622,13.622,0,0,1,21.188,17.8ZM22.7,14.726V7.956a3.953,3.953,0,0,0-.416-.077c-.17-.015-.339-.031-.509-.031a3.807,3.807,0,0,0-1.742.4,3.453,3.453,0,0,0-1.31,1.138,3.4,3.4,0,0,0-.509,1.954,4.28,4.28,0,0,0,.262,1.585,3.006,3.006,0,0,0,.694,1.092,2.665,2.665,0,0,0,1.048.615,4.045,4.045,0,0,0,1.28.2c.231,0,.447-.015.647-.031A1.351,1.351,0,0,0,22.7,14.726Z" fill="#fff"/>
          </g>
        </g>
        <path id="Adobe-2" data-name="Adobe" d="M45.979,12l.847-2.046h4.026L51.71,12h.88L49.246,4.212h-.77L45.11,12Zm4.576-2.772H47.123l1.716-4.136Zm4.912,2.9a2.492,2.492,0,0,0,1.089-.253,2.112,2.112,0,0,0,.858-.748h.022V12h.748V3.684h-.748V7.743h-.022a2.126,2.126,0,0,0-.858-.765,2.449,2.449,0,0,0-1.089-.259,2.761,2.761,0,0,0-1.095.209,2.494,2.494,0,0,0-.836.572A2.583,2.583,0,0,0,53,8.359a3.053,3.053,0,0,0,0,2.134,2.583,2.583,0,0,0,.539.858,2.494,2.494,0,0,0,.836.572A2.761,2.761,0,0,0,55.467,12.132Zm.077-.638a2.032,2.032,0,0,1-.825-.16,1.729,1.729,0,0,1-.611-.44,1.957,1.957,0,0,1-.379-.66,2.542,2.542,0,0,1,0-1.617,1.957,1.957,0,0,1,.379-.66,1.789,1.789,0,0,1,.611-.445,1.973,1.973,0,0,1,.825-.165,1.947,1.947,0,0,1,.792.159,1.9,1.9,0,0,1,.627.44,2.032,2.032,0,0,1,.413.66,2.335,2.335,0,0,1,0,1.639,1.969,1.969,0,0,1-.413.655,1.942,1.942,0,0,1-1.419.594Zm6.5.638a2.951,2.951,0,0,0,1.111-.2A2.539,2.539,0,0,0,64.587,10.5a2.957,2.957,0,0,0,0-2.156,2.594,2.594,0,0,0-.566-.858,2.568,2.568,0,0,0-.869-.566,2.951,2.951,0,0,0-1.111-.2,2.921,2.921,0,0,0-1.1.2,2.539,2.539,0,0,0-1.436,1.424,2.957,2.957,0,0,0,0,2.156,2.539,2.539,0,0,0,1.436,1.425A2.92,2.92,0,0,0,62.041,12.132Zm0-.638a1.965,1.965,0,0,1-.808-.16,1.8,1.8,0,0,1-.611-.44,1.979,1.979,0,0,1-.391-.66,2.446,2.446,0,0,1,0-1.617,1.979,1.979,0,0,1,.391-.66,1.861,1.861,0,0,1,.611-.445,1.908,1.908,0,0,1,.808-.165,1.945,1.945,0,0,1,.814.165,1.848,1.848,0,0,1,.616.445,1.983,1.983,0,0,1,.39.66,2.446,2.446,0,0,1,0,1.617,1.983,1.983,0,0,1-.39.66,1.784,1.784,0,0,1-.616.44A2,2,0,0,1,62.041,11.494Zm6.584.638a2.762,2.762,0,0,0,1.094-.209,2.494,2.494,0,0,0,.836-.572,2.584,2.584,0,0,0,.539-.858,3.053,3.053,0,0,0,0-2.134,2.584,2.584,0,0,0-.539-.858,2.494,2.494,0,0,0-.836-.572,2.761,2.761,0,0,0-1.094-.209,2.449,2.449,0,0,0-1.089.259,2.126,2.126,0,0,0-.858.765h-.022V3.684h-.748V12h.748v-.869h.022a2.112,2.112,0,0,0,.858.748A2.492,2.492,0,0,0,68.625,12.132Zm-.077-.638a1.942,1.942,0,0,1-1.419-.594,1.969,1.969,0,0,1-.412-.655,2.335,2.335,0,0,1,0-1.639,2.032,2.032,0,0,1,.412-.66,1.9,1.9,0,0,1,.627-.44,1.947,1.947,0,0,1,.792-.159,1.973,1.973,0,0,1,.825.165,1.789,1.789,0,0,1,.61.445,1.957,1.957,0,0,1,.38.66,2.542,2.542,0,0,1,0,1.617,1.957,1.957,0,0,1-.38.66,1.729,1.729,0,0,1-.61.44A2.032,2.032,0,0,1,68.548,11.494Zm6.122.638a2.844,2.844,0,0,0,1.194-.253,2.79,2.79,0,0,0,1.018-.836h0l-.561-.44a2.013,2.013,0,0,1-.644.622,1.967,1.967,0,0,1-1.743.121,1.909,1.909,0,0,1-.594-.4,1.836,1.836,0,0,1-.4-.594,2.011,2.011,0,0,1-.154-.726h4.268a1.681,1.681,0,0,0,.011-.187h0V9.272a3.011,3.011,0,0,0-.16-.99,2.361,2.361,0,0,0-.467-.808,2.2,2.2,0,0,0-.77-.55,2.625,2.625,0,0,0-1.067-.2,2.561,2.561,0,0,0-1.023.2,2.53,2.53,0,0,0-.825.566,2.611,2.611,0,0,0-.55.858,2.876,2.876,0,0,0-.2,1.078,2.809,2.809,0,0,0,.2,1.078,2.686,2.686,0,0,0,.555.858,2.488,2.488,0,0,0,.841.566A2.737,2.737,0,0,0,74.67,12.132Zm1.639-3.1H72.8a1.739,1.739,0,0,1,.165-.632,1.861,1.861,0,0,1,.385-.539,1.834,1.834,0,0,1,.561-.374,1.732,1.732,0,0,1,.693-.137,1.586,1.586,0,0,1,1.237.478,1.855,1.855,0,0,1,.467,1.2Z" fill="#080808"/>
        <path id="XD-3" data-name="XD" d="M47.5,30l2.656-4.448L52.92,30h2.544L51.4,24l3.456-5.328h-2.32l-2.3,3.872L47.9,18.672H45.464l3.52,5.28L45.064,30Zm12.553,0a7.881,7.881,0,0,0,2.224-.328,6.086,6.086,0,0,0,2.016-1.016,5.24,5.24,0,0,0,1.456-1.76,5.462,5.462,0,0,0,.56-2.56,5.778,5.778,0,0,0-.56-2.68,4.982,4.982,0,0,0-1.456-1.744,5.758,5.758,0,0,0-2.016-.952,8.9,8.9,0,0,0-2.224-.288H56.033V30Zm-.32-1.76h-1.68V20.4h1.68a7.82,7.82,0,0,1,1.568.16,3.843,3.843,0,0,1,1.416.592,3.216,3.216,0,0,1,1.032,1.2,4.288,4.288,0,0,1,.4,1.984,4.03,4.03,0,0,1-.4,1.9,3.318,3.318,0,0,1-1.032,1.192,4.088,4.088,0,0,1-1.416.624,6.84,6.84,0,0,1-1.568.184Z" fill="#080808"/>
      </g>
    </g>
    <g id="Mask_Group_68" data-name="Mask Group 68" transform="translate(92 -398)" clip-path="url(#clip-path-3)">
      <g id="illustrator" transform="translate(343 2305)">
        <g id="Group-57">
          <g id="Adobe-Illustrator-CC-logo">
            <g id="vlpb">
              <g id="vlpd">
                <path id="Path-5" data-name="Path" d="M6.552,0h23.9A6.54,6.54,0,0,1,37,6.538V29.462A6.54,6.54,0,0,1,30.448,36H6.552A6.54,6.54,0,0,1,0,29.462V6.538A6.54,6.54,0,0,1,6.552,0Z" fill="#080808"/>
              </g>
            </g>
            <g id="vlpf" transform="translate(7.599 7.985)">
              <path id="Shape-3" data-name="Shape" d="M10.284,13.554H4.549L3.378,17.169a.27.27,0,0,1-.293.215H.186c-.17,0-.216-.092-.17-.277L4.981,2.846c.046-.154.093-.323.154-.508a5.363,5.363,0,0,0,.092-1,.152.152,0,0,1,.123-.169H9.344c.123,0,.185.046.2.123l5.627,15.846c.046.169,0,.246-.154.246H11.8a.233.233,0,0,1-.247-.169l-1.264-3.662ZM5.444,10.431H9.359c-.093-.323-.216-.708-.355-1.108C8.866,8.908,8.727,8.462,8.589,8c-.154-.477-.293-.938-.447-1.415s-.293-.923-.416-1.369c-.123-.431-.231-.831-.339-1.2H7.355A18.859,18.859,0,0,1,6.831,6c-.231.738-.463,1.508-.709,2.277-.216.785-.447,1.508-.678,2.154Z" fill="#fff"/>
              <path id="Shape-4" data-name="Shape" d="M18.609,3.862a1.91,1.91,0,0,1-1.372-.538,2,2,0,0,1-.524-1.415A1.808,1.808,0,0,1,17.268.538,1.977,1.977,0,0,1,18.64,0a1.848,1.848,0,0,1,1.4.538,1.94,1.94,0,0,1,.509,1.369,1.945,1.945,0,0,1-.54,1.415A1.815,1.815,0,0,1,18.609,3.862ZM16.883,17.215V5.369c0-.154.062-.215.2-.215h3.052c.139,0,.2.077.2.215V17.215c0,.169-.062.246-.2.246H17.114a.215.215,0,0,1-.231-.246Z" fill="#fff"/>
            </g>
          </g>
          <path id="Adobe-3" data-name="Adobe" d="M45.979,12l.847-2.046h4.026L51.71,12h.88L49.246,4.212h-.77L45.11,12Zm4.576-2.772H47.123l1.716-4.136Zm4.912,2.9a2.492,2.492,0,0,0,1.089-.253,2.112,2.112,0,0,0,.858-.748h.022V12h.748V3.684h-.748V7.743h-.022a2.126,2.126,0,0,0-.858-.765,2.449,2.449,0,0,0-1.089-.259,2.761,2.761,0,0,0-1.095.209,2.494,2.494,0,0,0-.836.572A2.583,2.583,0,0,0,53,8.359a3.053,3.053,0,0,0,0,2.134,2.583,2.583,0,0,0,.539.858,2.494,2.494,0,0,0,.836.572A2.761,2.761,0,0,0,55.467,12.132Zm.077-.638a2.032,2.032,0,0,1-.825-.16,1.729,1.729,0,0,1-.611-.44,1.957,1.957,0,0,1-.379-.66,2.542,2.542,0,0,1,0-1.617,1.957,1.957,0,0,1,.379-.66,1.789,1.789,0,0,1,.611-.445,1.973,1.973,0,0,1,.825-.165,1.947,1.947,0,0,1,.792.159,1.9,1.9,0,0,1,.627.44,2.032,2.032,0,0,1,.413.66,2.335,2.335,0,0,1,0,1.639,1.969,1.969,0,0,1-.413.655,1.942,1.942,0,0,1-1.419.594Zm6.5.638a2.951,2.951,0,0,0,1.111-.2A2.539,2.539,0,0,0,64.587,10.5a2.957,2.957,0,0,0,0-2.156,2.594,2.594,0,0,0-.566-.858,2.568,2.568,0,0,0-.869-.566,2.951,2.951,0,0,0-1.111-.2,2.921,2.921,0,0,0-1.1.2,2.539,2.539,0,0,0-1.436,1.424,2.957,2.957,0,0,0,0,2.156,2.539,2.539,0,0,0,1.436,1.425A2.92,2.92,0,0,0,62.041,12.132Zm0-.638a1.965,1.965,0,0,1-.808-.16,1.8,1.8,0,0,1-.611-.44,1.979,1.979,0,0,1-.391-.66,2.446,2.446,0,0,1,0-1.617,1.979,1.979,0,0,1,.391-.66,1.861,1.861,0,0,1,.611-.445,1.908,1.908,0,0,1,.808-.165,1.945,1.945,0,0,1,.814.165,1.848,1.848,0,0,1,.616.445,1.983,1.983,0,0,1,.39.66,2.446,2.446,0,0,1,0,1.617,1.983,1.983,0,0,1-.39.66,1.784,1.784,0,0,1-.616.44A2,2,0,0,1,62.041,11.494Zm6.584.638a2.762,2.762,0,0,0,1.094-.209,2.494,2.494,0,0,0,.836-.572,2.584,2.584,0,0,0,.539-.858,3.053,3.053,0,0,0,0-2.134,2.584,2.584,0,0,0-.539-.858,2.494,2.494,0,0,0-.836-.572,2.761,2.761,0,0,0-1.094-.209,2.449,2.449,0,0,0-1.089.259,2.126,2.126,0,0,0-.858.765h-.022V3.684h-.748V12h.748v-.869h.022a2.112,2.112,0,0,0,.858.748A2.492,2.492,0,0,0,68.625,12.132Zm-.077-.638a1.942,1.942,0,0,1-1.419-.594,1.969,1.969,0,0,1-.412-.655,2.335,2.335,0,0,1,0-1.639,2.032,2.032,0,0,1,.412-.66,1.9,1.9,0,0,1,.627-.44,1.947,1.947,0,0,1,.792-.159,1.973,1.973,0,0,1,.825.165,1.789,1.789,0,0,1,.61.445,1.957,1.957,0,0,1,.38.66,2.542,2.542,0,0,1,0,1.617,1.957,1.957,0,0,1-.38.66,1.729,1.729,0,0,1-.61.44A2.032,2.032,0,0,1,68.548,11.494Zm6.122.638a2.844,2.844,0,0,0,1.194-.253,2.79,2.79,0,0,0,1.018-.836h0l-.561-.44a2.013,2.013,0,0,1-.644.622,1.967,1.967,0,0,1-1.743.121,1.909,1.909,0,0,1-.594-.4,1.836,1.836,0,0,1-.4-.594,2.011,2.011,0,0,1-.154-.726h4.268a1.681,1.681,0,0,0,.011-.187h0V9.272a3.011,3.011,0,0,0-.16-.99,2.361,2.361,0,0,0-.467-.808,2.2,2.2,0,0,0-.77-.55,2.625,2.625,0,0,0-1.067-.2,2.561,2.561,0,0,0-1.023.2,2.53,2.53,0,0,0-.825.566,2.611,2.611,0,0,0-.55.858,2.876,2.876,0,0,0-.2,1.078,2.809,2.809,0,0,0,.2,1.078,2.686,2.686,0,0,0,.555.858,2.488,2.488,0,0,0,.841.566A2.737,2.737,0,0,0,74.67,12.132Zm1.639-3.1H72.8a1.739,1.739,0,0,1,.165-.632,1.861,1.861,0,0,1,.385-.539,1.834,1.834,0,0,1,.561-.374,1.732,1.732,0,0,1,.693-.137,1.586,1.586,0,0,1,1.237.478,1.855,1.855,0,0,1,.467,1.2Z" fill="#080808"/>
          <path id="Illustrator-2" data-name="Illustrator" d="M48.264,30V18.672H46.248V30Zm3.609,0V17.9h-1.92V30Zm3.545,0V17.9H53.5V30Zm4.361.224a2.552,2.552,0,0,0,1.5-.44,2.482,2.482,0,0,0,.888-1.016H62.2V30h1.824V22.32H62.1v4.224a2.648,2.648,0,0,1-.112.76,2.088,2.088,0,0,1-.328.664,1.675,1.675,0,0,1-.56.472,1.653,1.653,0,0,1-.792.184,1.293,1.293,0,0,1-.744-.192,1.381,1.381,0,0,1-.44-.488,1.9,1.9,0,0,1-.208-.664,5.448,5.448,0,0,1-.048-.7h0V22.32h-1.92v4.8a4.175,4.175,0,0,0,.16,1.152,2.817,2.817,0,0,0,.5.992,2.54,2.54,0,0,0,.88.7A2.89,2.89,0,0,0,59.779,30.224Zm8.041,0a5.308,5.308,0,0,0,1.208-.136,2.965,2.965,0,0,0,1.024-.44,2.245,2.245,0,0,0,.7-.792,2.476,2.476,0,0,0,.264-1.192,1.891,1.891,0,0,0-.224-.952,2.09,2.09,0,0,0-.584-.656,3.186,3.186,0,0,0-.8-.424,6.985,6.985,0,0,0-.872-.256A7.753,7.753,0,0,1,67.3,25a.642.642,0,0,1-.424-.632.662.662,0,0,1,.384-.64,1.869,1.869,0,0,1,.848-.192,1.983,1.983,0,0,1,.976.248,2.217,2.217,0,0,1,.7.584h0l1.248-1.1a2.742,2.742,0,0,0-1.256-.88,4.718,4.718,0,0,0-1.624-.288,4.358,4.358,0,0,0-1.12.144,3.127,3.127,0,0,0-.976.44,2.267,2.267,0,0,0-.7.76,2.2,2.2,0,0,0-.264,1.1,1.956,1.956,0,0,0,.192.912,1.853,1.853,0,0,0,.512.616,2.741,2.741,0,0,0,.728.4,6.352,6.352,0,0,0,.84.248,7.1,7.1,0,0,1,1.32.416.709.709,0,0,1,.44.688.789.789,0,0,1-.112.432.829.829,0,0,1-.3.28,1.446,1.446,0,0,1-.4.152,1.951,1.951,0,0,1-.424.048,2.383,2.383,0,0,1-1.136-.272,2.524,2.524,0,0,1-.832-.688h0L64.669,28.96a3.687,3.687,0,0,0,1.408.936A4.794,4.794,0,0,0,67.821,30.224Zm6.857-.064a4.285,4.285,0,0,0,.672-.056,3.154,3.154,0,0,0,.608-.152h0l-.064-1.5a1.679,1.679,0,0,1-.4.12,2.373,2.373,0,0,1-.416.04q-.64,0-.824-.336a1.752,1.752,0,0,1-.184-.848h0V23.856h1.92V22.32H74.07V20.1H72.182V22.32H70.838v1.536h1.344V27.44a5.026,5.026,0,0,0,.1,1.048,2.191,2.191,0,0,0,.384.864,1.892,1.892,0,0,0,.76.592A3.066,3.066,0,0,0,74.678,30.16ZM78.559,30V25.888a2.673,2.673,0,0,1,.08-.56,2.06,2.06,0,0,1,.3-.688,1.919,1.919,0,0,1,.624-.576,2.037,2.037,0,0,1,1.056-.24,2.253,2.253,0,0,1,.264.016,2.689,2.689,0,0,1,.328.064h0v-1.76a.886.886,0,0,0-.224-.04q-.128-.008-.24-.008a2.235,2.235,0,0,0-1.344.416,2.8,2.8,0,0,0-.9,1.088h-.032V22.32h-1.84V30Zm5.289.192a3.147,3.147,0,0,0,1.456-.328,2.143,2.143,0,0,0,.928-.84h.048V30h1.792V25.328a4.5,4.5,0,0,0-.152-1.152,2.689,2.689,0,0,0-.536-1.04,2.749,2.749,0,0,0-1.048-.752,4.266,4.266,0,0,0-1.688-.288,5.153,5.153,0,0,0-1.736.3,4.333,4.333,0,0,0-1.512.912h0l.992,1.168a3.146,3.146,0,0,1,.928-.624,2.778,2.778,0,0,1,1.168-.256,2.2,2.2,0,0,1,1.24.344,1.186,1.186,0,0,1,.52,1.064h0V25.2q-.9,0-1.832.088a7.083,7.083,0,0,0-1.7.36,3.155,3.155,0,0,0-1.256.784,1.912,1.912,0,0,0-.488,1.376,2.119,2.119,0,0,0,.28,1.128,2.326,2.326,0,0,0,.7.736,2.881,2.881,0,0,0,.928.4A4.178,4.178,0,0,0,83.848,30.192Zm.384-1.456a2.442,2.442,0,0,1-.48-.048,1.392,1.392,0,0,1-.432-.16.921.921,0,0,1-.312-.3.818.818,0,0,1-.12-.456.85.85,0,0,1,.288-.68,2.016,2.016,0,0,1,.72-.384,4.238,4.238,0,0,1,.944-.176q.512-.04.976-.04h.432v.272a1.981,1.981,0,0,1-.512,1.44A2,2,0,0,1,84.232,28.736Zm7.913,1.424a4.284,4.284,0,0,0,.672-.056,3.152,3.152,0,0,0,.608-.152h0l-.064-1.5a1.679,1.679,0,0,1-.4.12,2.373,2.373,0,0,1-.416.04q-.64,0-.824-.336a1.752,1.752,0,0,1-.184-.848h0V23.856h1.92V22.32h-1.92V20.1H89.649V22.32H88.305v1.536h1.344V27.44a5.026,5.026,0,0,0,.1,1.048,2.194,2.194,0,0,0,.384.864,1.892,1.892,0,0,0,.76.592A3.066,3.066,0,0,0,92.145,30.16Zm5.689.064a4.393,4.393,0,0,0,1.632-.3,4.052,4.052,0,0,0,1.328-.84,3.92,3.92,0,0,0,.888-1.288,4.113,4.113,0,0,0,.328-1.664,4.056,4.056,0,0,0-.328-1.656,3.852,3.852,0,0,0-.888-1.272,3.91,3.91,0,0,0-1.328-.816,4.768,4.768,0,0,0-3.264,0,3.914,3.914,0,0,0-1.328.816,3.873,3.873,0,0,0-.888,1.272,4.061,4.061,0,0,0-.328,1.656,4.118,4.118,0,0,0,.328,1.664,3.942,3.942,0,0,0,.888,1.288,4.056,4.056,0,0,0,1.328.84A4.393,4.393,0,0,0,97.834,30.224Zm0-1.6a2.065,2.065,0,0,1-.992-.224,2.134,2.134,0,0,1-.688-.576,2.469,2.469,0,0,1-.408-.8,3.069,3.069,0,0,1-.136-.9,2.99,2.99,0,0,1,.136-.888,2.484,2.484,0,0,1,.408-.792,2.048,2.048,0,0,1,.688-.568,2.386,2.386,0,0,1,1.984,0,2.049,2.049,0,0,1,.688.568,2.484,2.484,0,0,1,.408.792,2.99,2.99,0,0,1,.136.888,3.069,3.069,0,0,1-.136.9,2.469,2.469,0,0,1-.408.8,2.135,2.135,0,0,1-.688.576A2.065,2.065,0,0,1,97.834,28.624ZM105.043,30V25.888a2.7,2.7,0,0,1,.08-.56,2.083,2.083,0,0,1,.3-.688,1.933,1.933,0,0,1,.624-.576,2.039,2.039,0,0,1,1.056-.24,2.235,2.235,0,0,1,.264.016,2.674,2.674,0,0,1,.328.064h0v-1.76a.88.88,0,0,0-.224-.04q-.127-.008-.24-.008a2.235,2.235,0,0,0-1.344.416A2.807,2.807,0,0,0,105,23.6h-.032V22.32h-1.84V30Z" fill="#080808"/>
        </g>
      </g>
    </g>
    <g id="Mask_Group_69" data-name="Mask Group 69" transform="translate(160 -412)" clip-path="url(#clip-path-4)">
      <g id="Group_367" data-name="Group 367" transform="translate(423.8 2192.26)">
        <path id="Path_799" data-name="Path 799" d="M9.156,20.46a7.956,7.956,0,0,0,7.953-7.953V4.554H9.156a7.953,7.953,0,1,0,0,15.906Z" transform="translate(0.007 28.014)" fill="#080808"/>
        <path id="Path_800" data-name="Path 800" d="M1.2,10.6A7.956,7.956,0,0,1,9.155,2.647h7.953V18.561H9.155A7.956,7.956,0,0,1,1.2,10.609Z" transform="translate(0 14.007)" fill="#080808"/>
        <path id="Path_801" data-name="Path 801" d="M1.2,8.693A7.956,7.956,0,0,1,9.155.74h7.953V16.654H9.155A7.956,7.956,0,0,1,1.2,8.7Z" fill="#080808"/>
        <path id="Path_802" data-name="Path 802" d="M3.1.74h7.953a7.953,7.953,0,1,1,0,15.906H3.1Z" transform="translate(13.941)" fill="#333232"/>
        <path id="Path_803" data-name="Path 803" d="M19.089,10.6a8,8,0,1,0-.083,0Z" transform="translate(13.941 14.007)" fill="#080808"/>
        <path id="Path_804" data-name="Path 804" d="M6.058,2.32V18.994H8.2V11.032h5.16V8.963H8.2V4.406h6.7V2.32ZM18.784,5.708a1.4,1.4,0,0,0,1.4-1.4,1.336,1.336,0,0,0-1.4-1.319,1.4,1.4,0,0,0-1.4,1.4,1.43,1.43,0,0,0,.417,1,1.368,1.368,0,0,0,1,.417ZM17.7,7.811V18.994h2.061V7.811H17.633Zm10.114-.334a5.041,5.041,0,0,0-4.84,5.274,5.037,5.037,0,0,0,4.84,5.257,4.256,4.256,0,0,0,3.163-1.327v1.485a3.5,3.5,0,0,1-.968,2.4,3.338,3.338,0,0,1-2.387,1,3.5,3.5,0,0,1-1.9-.634l-1.085,1.861a5.508,5.508,0,0,0,8.487-4.648V7.794H30.977v1a4.256,4.256,0,0,0-3.163-1.327Zm-2.687,5.274a2.94,2.94,0,1,1,5.858,0,2.94,2.94,0,1,1-5.858,0Z" transform="translate(35.668 11.605)" fill="#080808"/>
        <path id="Path_805" data-name="Path 805" d="M14.165,5.125a2.337,2.337,0,0,0-2.328,2.328V14.53H9.692V3.348h2.145v.943a3.4,3.4,0,0,1,2.771-1.352,3.723,3.723,0,0,1,3.321,1.894,4.212,4.212,0,0,1,3.338-1.894c2.445,0,3.964,1.969,3.972,4.406v7.118H23.094V7.37a2.326,2.326,0,1,0-4.6,0v7.077H16.435V7.379A2.337,2.337,0,0,0,14.107,5.05ZM36.7,4.541a5.174,5.174,0,0,0-3.78-1.594A5.57,5.57,0,0,0,27.5,8.789a5.586,5.586,0,0,0,5.424,5.842,5.174,5.174,0,0,0,3.78-1.594V14.3h2.145V3.123H36.7Zm-7.1,4.34a3.558,3.558,0,1,1,7.093,0,3.558,3.558,0,1,1-7.093,0Z" transform="translate(62.36 16.144)" fill="#080808"/>
      </g>
    </g>
    <g id="Mask_Group_70" data-name="Mask Group 70" transform="translate(161 -331)" clip-path="url(#clip-path-5)">
      <g id="Group_368" data-name="Group 368" transform="translate(409.8 2163.7)">
        <path id="Path_806" data-name="Path 806" d="M25.11,27.01H36.039V16.3H14.4v.109Z" transform="translate(0.019)" fill="#080808" fill-rule="evenodd"/>
        <path id="Path_807" data-name="Path 807" d="M25.129,26.1H14.2V36.81H35.839V36.7Z" transform="translate(0 0.91)" fill="#080808" fill-rule="evenodd"/>
        <path id="Path_808" data-name="Path 808" d="M14.3,35.8H25.12V46.62Z" transform="translate(0.009 1.811)" fill="#080808" fill-rule="evenodd"/>
        <path id="Path_809" data-name="Path 809" d="M48.069,37.11v-5.9h6.448V28.476H48.069V24.542h6.995V21.7H44.9V37h3.169Z" transform="translate(2.852 0.502)" fill="#080808"/>
        <path id="Path_810" data-name="Path 810" d="M62.176,25.619a2.925,2.925,0,0,0-1.2-.219,3.05,3.05,0,0,0-2.514,1.311V25.619H55.4V36.766h3.06V29.881a2.014,2.014,0,0,1,2.077-1.53,3.491,3.491,0,0,1,1.53.328v-3.06Z" transform="translate(3.827 0.845)" fill="#080808"/>
        <path id="Path_811" data-name="Path 811" d="M71.827,36.766v-7.1c0-2.623-1.749-4.262-4.7-4.262a4.476,4.476,0,0,0-4.7,3.607h2.951a1.588,1.588,0,0,1,1.639-1.093,1.694,1.694,0,0,1,1.858,1.749v.765a4.948,4.948,0,0,0-2.514-.656c-2.4,0-4.262,1.421-4.262,3.607,0,2.3,1.858,3.607,4.153,3.607a5.093,5.093,0,0,0,2.732-.765v.546Zm-2.951-3.06a2.323,2.323,0,0,1-1.967.984c-.984,0-1.967-.437-1.967-1.421s.984-1.421,1.967-1.421c.874,0,1.749.328,1.967.984Z" transform="translate(4.45 0.845)" fill="#080808"/>
        <path id="Path_812" data-name="Path 812" d="M81.752,26.821A3.529,3.529,0,0,0,78.8,25.4a3.469,3.469,0,0,0-2.842,1.2v-.874H72.9V36.875h3.06V29.662a1.73,1.73,0,0,1,1.749-1.421c1.093,0,1.53.765,1.53,1.967v6.667H82.3V29.662a1.657,1.657,0,0,1,1.749-1.421c1.093,0,1.639.765,1.639,1.967v6.667h3.06V29.553c0-2.514-1.421-4.153-3.716-4.153a4.586,4.586,0,0,0-3.28,1.421Z" transform="translate(5.453 0.845)" fill="#080808"/>
        <path id="Path_813" data-name="Path 813" d="M96.132,33.16a1.858,1.858,0,0,1-2.076,1.421c-1.421,0-2.3-.984-2.4-2.623h7.432v-.984c0-3.279-1.749-5.574-5.027-5.574A5.473,5.473,0,0,0,88.7,31.192c0,3.388,2.186,5.792,5.355,5.792a4.541,4.541,0,0,0,4.918-3.934H96.132Zm-2.076-5.246a1.867,1.867,0,0,1,1.967,2.077H91.76a2.336,2.336,0,0,1,2.295-2.077Z" transform="translate(6.921 0.845)" fill="#080808"/>
        <path id="Path_814" data-name="Path 814" d="M106.276,25.619a2.925,2.925,0,0,0-1.2-.219,3.05,3.05,0,0,0-2.514,1.311V25.619H99.5V36.766h3.06V29.881a2.014,2.014,0,0,1,2.077-1.53,3.491,3.491,0,0,1,1.53.328v-3.06Z" transform="translate(7.924 0.845)" fill="#080808"/>
      </g>
    </g>
    <g id="Mask_Group_71" data-name="Mask Group 71" transform="translate(52 -231)" clip-path="url(#clip-path-6)">
      <g id="google_analytics-ar21" transform="translate(499.899 2153.354)">
        <g id="Group_17" data-name="Group 17" transform="translate(68.324 -17.353)">
          <path id="Path_84" data-name="Path 84" d="M74.155,7.249l2.412,6.333H71.893l2.263-6.333Zm-.9-2.121L67.973,19h1.96l1.357-3.768h5.879L78.524,19h1.96L75.207,5.128h-1.96Zm28.484,13.88h1.818V5.138h-1.818V19.006ZM83.2,10.857A3.859,3.859,0,0,1,86.214,9.2c2.412,0,3.618,1.659,3.618,4.071V19.15H88.014V13.57c0-1.96-1.056-2.714-2.412-2.714a2.808,2.808,0,0,0-2.563,2.865V19H81.221V9.362h1.818l.152,1.508Zm8.141,5.287c0-2.121,1.96-3.317,4.222-3.317a4.118,4.118,0,0,1,2.563.6v-.3a2.253,2.253,0,0,0-2.412-2.263,2.21,2.21,0,0,0-2.263,1.357l-1.659-.754c.3-.9,1.508-2.263,3.919-2.263a3.912,3.912,0,0,1,4.222,4.071V19H98.274V17.648h-.152a3.632,3.632,0,0,1-3.166,1.659c-1.96,0-3.618-1.206-3.618-3.166m6.784-1.206a3.789,3.789,0,0,0-2.263-.6c-1.818,0-2.563,1.056-2.563,1.818,0,1.056,1.056,1.508,1.96,1.508a2.94,2.94,0,0,0,2.865-2.714" transform="translate(-67.973 17.579)" fill="#080808"/>
          <path id="Path_85" data-name="Path 85" d="M105.751,23.193l2.121-4.975L104.1,9.474h1.818l2.865,6.633,2.865-6.633h1.818l-5.879,13.719h-1.818Zm26.535-10.555a2.861,2.861,0,0,0-2.563-1.96A3.084,3.084,0,0,0,126.859,14a3.084,3.084,0,0,0,2.865,3.317,2.917,2.917,0,0,0,2.563-1.818l1.508.9a4.429,4.429,0,0,1-4.071,2.714,4.907,4.907,0,0,1-4.674-5.126,4.82,4.82,0,0,1,4.674-5.126A4.418,4.418,0,0,1,133.8,11.58l-1.508,1.056Z" transform="translate(-67.609 17.617)" fill="#080808" fill-rule="evenodd"/>
          <path id="Path_86" data-name="Path 86" d="M138.593,19.27c2.412,0,3.618-1.357,3.618-3.015,0-3.618-5.277-2.263-5.277-4.372,0-.754.6-1.206,1.659-1.206a3,3,0,0,1,2.563,1.206l1.056-1.056a5.611,5.611,0,0,0-3.768-1.818c-2.263,0-3.468,1.357-3.468,3.015,0,3.468,5.427,2.263,5.427,4.071,0,.905-.6,1.508-1.818,1.508a2.962,2.962,0,0,1-2.412-1.508l-1.339,1.066c.9.905,2.263,2.121,3.768,2.121Zm-17.186-.3h1.818V9.321h-1.818Z" transform="translate(-67.435 17.619)" fill="#080808"/>
          <path id="Path_87" data-name="Path 87" d="M122.236,4.7a1.206,1.206,0,1,1,0,2.412,1.3,1.3,0,0,1-1.206-1.206A1.3,1.3,0,0,1,122.236,4.7Zm-2.563,12.815.3,1.357h-1.818c-1.659,0-2.412-1.206-2.412-3.015V11.164h-1.818V9.346h1.818V6.5h1.818V9.365h2.121v1.818h-2.121v4.975c0,1.357,1.056,1.357,2.121,1.357Z" transform="translate(-67.51 17.575)" fill="#080808" fill-rule="evenodd"/>
          <path id="Path_88" data-name="Path 88" d="M77.129-9.968v2.263h5.277A4.53,4.53,0,0,1,81.2-4.992a5.415,5.415,0,0,1-4.071,1.659,5.761,5.761,0,0,1-4.1-1.74A5.761,5.761,0,0,1,71.4-9.212a5.856,5.856,0,0,1,5.729-5.879,5.829,5.829,0,0,1,3.919,1.508l1.508-1.508a7.84,7.84,0,0,0-5.427-2.263,8.173,8.173,0,0,0-8.141,7.98,8.171,8.171,0,0,0,8.141,7.98,7.046,7.046,0,0,0,5.578-2.263,7.12,7.12,0,0,0,1.96-5.126,3.722,3.722,0,0,0-.152-1.357H77.128Zm13.416-1.818a5,5,0,0,0-3.663,1.463A5,5,0,0,0,85.419-6.66,5,5,0,0,0,86.882-3a5,5,0,0,0,3.663,1.463,5.081,5.081,0,0,0,3.638-1.488A5.081,5.081,0,0,0,95.671-6.66a4.993,4.993,0,0,0-1.461-3.665A4.993,4.993,0,0,0,90.545-11.786Zm0,8.283A3.036,3.036,0,0,1,87.68-6.669a3.027,3.027,0,0,1,2.865-3.155,2.946,2.946,0,0,1,2.111.967,2.946,2.946,0,0,1,.755,2.2,2.949,2.949,0,0,1-.756,2.194,2.949,2.949,0,0,1-2.109.968Zm24.716-7.228a3.913,3.913,0,0,0-2.865-1.206,5.028,5.028,0,0,0-4.824,5.126A5.029,5.029,0,0,0,112.4-1.686a3.55,3.55,0,0,0,2.714-1.206h.152v.754c0,1.96-1.056,3.015-2.714,3.015a2.877,2.877,0,0,1-2.563-1.818l-1.96.754a4.989,4.989,0,0,0,4.523,3.015c2.714,0,4.975-1.508,4.975-5.427v-9.346H115.4v1.206ZM112.7-3.5a2.922,2.922,0,0,1-2.021-1.014,2.922,2.922,0,0,1-.693-2.152,2.922,2.922,0,0,1,.695-2.149A2.922,2.922,0,0,1,112.7-9.827a2.922,2.922,0,0,1,2.021,1.014,2.922,2.922,0,0,1,.693,2.152,2.922,2.922,0,0,1-.695,2.149A2.922,2.922,0,0,1,112.7-3.5Zm-11.007-8.283A5,5,0,0,0,98.03-10.32a5,5,0,0,0-1.463,3.663A5,5,0,0,0,98.03-2.994a5,5,0,0,0,3.663,1.463,5.081,5.081,0,0,0,3.638-1.488,5.081,5.081,0,0,0,1.488-3.638,4.908,4.908,0,0,0-1.435-3.691,4.908,4.908,0,0,0-3.692-1.43Zm0,8.283a3.036,3.036,0,0,1-2.865-3.166,3.036,3.036,0,0,1,2.865-3.166,2.943,2.943,0,0,1,2.113.967,2.943,2.943,0,0,1,.752,2.2,2.943,2.943,0,0,1-.753,2.2,2.943,2.943,0,0,1-2.113.967ZM119.2-17.2h2.263V-1.526H119.2Zm8.442,13.719a2.917,2.917,0,0,1-2.563-1.508l6.935-2.865-.3-.6a4.856,4.856,0,0,0-4.372-3.317,4.846,4.846,0,0,0-3.515,1.525,4.846,4.846,0,0,0-1.309,3.6A5.081,5.081,0,0,0,124-3.014a5.081,5.081,0,0,0,3.638,1.488,5.484,5.484,0,0,0,4.372-2.263L130.2-4.995a2.917,2.917,0,0,1-2.563,1.508Zm-.152-6.333a2.019,2.019,0,0,1,1.96,1.206l-4.674,1.96C124.776-8.911,126.284-9.814,127.49-9.814Z" transform="translate(-67.963 17.353)" fill="#080808"/>
        </g>
        <g id="Group_19" data-name="Group 19" transform="translate(33.101 -16.49)">
          <path id="Path_89" data-name="Path 89" d="M25.821,5.8V32.284A4.273,4.273,0,0,0,30.034,36.9c2.006,0,4.213-1.4,4.213-4.614V6a4.218,4.218,0,0,0-4.213-4.414A4.282,4.282,0,0,0,25.821,5.8Z" transform="translate(-3.752 -1.589)" fill="#080808"/>
          <g id="Group_18" data-name="Group 18" transform="translate(0 13.442)">
            <path id="Path_90" data-name="Path 90" d="M14.9,19.11V32.15a4.273,4.273,0,0,0,4.213,4.614c2.006,0,4.213-1.4,4.213-4.614V19.31A4.218,4.218,0,0,0,19.11,14.9a4.282,4.282,0,0,0-4.21,4.21Z" transform="translate(-3.862 -14.896)" fill="#080808"/>
            <circle id="Ellipse_1" data-name="Ellipse 1" cx="4.213" cy="4.213" r="4.213" transform="translate(0 13.442)" fill="#080808"/>
          </g>
        </g>
      </g>
    </g>
    <g id="Mask_Group_72" data-name="Mask Group 72" transform="translate(310 -542)" clip-path="url(#clip-path-7)">
      <g id="Group_369" data-name="Group 369" transform="translate(425.243 2335.04)" clip-path="url(#clip-path-8)">
        <path id="Path_815" data-name="Path 815" d="M238.1,19.725V.255h3.026V7.931A4.819,4.819,0,0,1,245.412,5.8a4.87,4.87,0,0,1,3.768,1.443,5.706,5.706,0,0,1,1.331,4.02v8.46h-3.025v-8.04q0-3.333-2.969-3.334a3.412,3.412,0,0,0-2.437.9,3.3,3.3,0,0,0-.952,2.521v7.956Z" transform="translate(-212.075 -0.178)" fill="#080808"/>
        <path id="Path_816" data-name="Path 816" d="M382.981,63.192a7.211,7.211,0,1,1,.043-10.2,7.21,7.21,0,0,1-.043,10.2Zm-7.942-1.709a3.9,3.9,0,0,0,5.743,0,5.087,5.087,0,0,0,1.078-3.418,5,5,0,0,0-1.092-3.39,3.9,3.9,0,0,0-5.729-.014,5.029,5.029,0,0,0-1.078,3.4,5.083,5.083,0,0,0,1.078,3.422Z" transform="translate(-330.251 -45.326)" fill="#080808"/>
        <path id="Path_817" data-name="Path 817" d="M513.541,35.332q-4.174,0-4.174-4.482V23.958h-2.1V21.409h2.185l.7-4.006h2.269v4.006h5.407v2.549H512.42v6.807q0,1.877,1.373,1.877,1.288,0,2.325-2.353l2.353,1.2Q516.734,35.333,513.541,35.332Z" transform="translate(-451.79 -15.45)" fill="#080808"/>
        <path id="Path_818" data-name="Path 818" d="M591.426,25.715a4.964,4.964,0,0,1-3.334-1.121l1.121-2.381a2.323,2.323,0,0,0,1.765.952q1.261,0,1.261-1.625V5.91h3.026V21.6a4.044,4.044,0,0,1-1.079,3.151,3.982,3.982,0,0,1-2.76.964Zm2.325-22.1a1.877,1.877,0,0,1-1.345-.5,1.7,1.7,0,0,1-.532-1.289,1.743,1.743,0,0,1,.532-1.3,1.986,1.986,0,0,1,2.675,0,1.721,1.721,0,0,1,.546,1.3,1.688,1.688,0,0,1-.546,1.275,1.861,1.861,0,0,1-1.331.518Z" transform="translate(-523.773 0.05)" fill="#080808"/>
        <path id="Path_819" data-name="Path 819" d="M679.893,65.206a5.818,5.818,0,0,1-3.768-1.163,3.963,3.963,0,0,1,.056-6.163,5.691,5.691,0,0,1,3.768-1.247,5.545,5.545,0,0,1,3.922,1.485V56.466a3.189,3.189,0,0,0-.742-2.255,2.745,2.745,0,0,0-2.115-.8,3.263,3.263,0,0,0-3.446,2.829l-2.773-.588a6.082,6.082,0,0,1,2.213-3.446,6.594,6.594,0,0,1,4.118-1.261,6.069,6.069,0,0,1,4.244,1.415,5.3,5.3,0,0,1,1.555,4.132V64.87h-2.942V63.161A4.778,4.778,0,0,1,679.893,65.206Zm.56-2.241a4.084,4.084,0,0,0,3.418-2.017v-.42a4.294,4.294,0,0,0-3.418-1.681,2.988,2.988,0,0,0-1.9.574,1.791,1.791,0,0,0-.728,1.471,1.832,1.832,0,0,0,.714,1.5,2.973,2.973,0,0,0,1.919.573Z" transform="translate(-600.888 -45.323)" fill="#080808"/>
        <path id="Path_820" data-name="Path 820" d="M813.477,65.78V52.194h2.941v2.353a3.925,3.925,0,0,1,3.866-2.577,3.646,3.646,0,0,1,2.689,1.065,3.858,3.858,0,0,1,1.065,2.857,6.644,6.644,0,0,1-.364,2.1l-2.773-.28a10.7,10.7,0,0,0,.112-1.12q0-2.1-1.737-2.1a2.318,2.318,0,0,0-1.975,1.247,6.03,6.03,0,0,0-.8,3.292V65.78Z" transform="translate(-724.497 -46.234)" fill="#080808"/>
        <path id="Path_821" data-name="Path 821" d="M7.162,8.217C9.416,6.964,12.5,5.249,12.5.255H8.765c0,2.794-1.36,3.55-3.419,4.693C3.092,6.2,0,7.916,0,12.91H3.743C3.743,10.116,5.1,9.361,7.162,8.217Z" transform="translate(-0.029 -0.178)" fill="#080808"/>
        <path id="Path_822" data-name="Path 822" d="M53.248,62.536c0,2.794-1.36,3.549-3.419,4.693-2.254,1.253-5.342,2.968-5.342,7.962h3.739c0-2.794,1.36-3.55,3.419-4.694,2.254-1.252,5.342-2.968,5.342-7.962Z" transform="translate(-39.645 -55.644)" fill="#080808"/>
      </g>
    </g>
    <g id="Mask_Group_73" data-name="Mask Group 73" transform="translate(310 -417)" clip-path="url(#clip-path-9)">
      <g id="Group_370" data-name="Group 370" transform="translate(421.914 2268.499)">
        <path id="Path_823" data-name="Path 823" d="M4.663,24.031c-1.135-1.74-2.04-3.973-1.32-6.02s1.671-3.492,3.309-4.079c.858-.307,3.441-1.459,5.451.322A8.683,8.683,0,0,1,15.2,19.8c.206,4.279-5.447,6.033-6.441,6.033a5.392,5.392,0,0,1-4.093-1.8Z" transform="translate(0 -2.874)" fill="#080808" fill-rule="evenodd"/>
        <path id="Path_824" data-name="Path 824" d="M15.023,2.62c-.771-1.08-3.24,5.519-2.071,6.332C13.249,9.157,16.7,4.955,15.023,2.62Z" transform="translate(-2.544)" fill="#080808" fill-rule="evenodd"/>
        <path id="Path_825" data-name="Path 825" d="M10.491,10.122c.182.96-2.053-2.247-1.593-2.836C9.948,5.941,10.383,9.56,10.491,10.122Z" transform="translate(-1.529 -1.197)" fill="#080808" fill-rule="evenodd"/>
        <path id="Path_826" data-name="Path 826" d="M28.659,22.355h2.4V9.291h-2.4Z" transform="translate(-6.812 -1.809)" fill="#080808" fill-rule="evenodd"/>
        <path id="Path_827" data-name="Path 827" d="M42.771,14.935v8.924h-2.31v-.72a3.561,3.561,0,0,1-2.416.9A3.922,3.922,0,0,1,35,22.6a4.421,4.421,0,0,1-.9-2.944V14.935h2.4v4.821a2.093,2.093,0,0,0,.443,1.527,1.8,1.8,0,0,0,1.346.552,2.76,2.76,0,0,0,2.084-1.1v-5.8Z" transform="translate(-8.264 -3.313)" fill="#080808" fill-rule="evenodd"/>
        <path id="Path_828" data-name="Path 828" d="M56.208,21.97a4.745,4.745,0,0,1-4.057,2.006,4.648,4.648,0,1,1,.018-9.292,4.777,4.777,0,0,1,3.757,1.784l-1.7,1.49a2.593,2.593,0,0,0-2.066-1.068,2.4,2.4,0,0,0-2.415,2.446,2.361,2.361,0,0,0,2.472,2.428,2.622,2.622,0,0,0,2.139-1.178Z" transform="translate(-11.792 -3.247)" fill="#080808" fill-rule="evenodd"/>
        <path id="Path_829" data-name="Path 829" d="M147.3,18.269a2.749,2.749,0,0,0-2.214-1.1,2.44,2.44,0,0,0,.055,4.876,2.622,2.622,0,0,0,2.16-1.1Zm2.391,4.724a5.392,5.392,0,0,1-.811,3.312,4.765,4.765,0,0,1-3.96,1.785,5.879,5.879,0,0,1-4.3-1.839l1.513-1.56a3.618,3.618,0,0,0,2.785,1.287,2.311,2.311,0,0,0,1.826-.72,2.955,2.955,0,0,0,.553-1.817,3.692,3.692,0,0,1-2.4.81,4.543,4.543,0,0,1-3.393-1.509,4.772,4.772,0,0,1-1.125-3.128,4.484,4.484,0,0,1,4.389-4.655,4.1,4.1,0,0,1,2.618.9v-.72H149.7Z" transform="translate(-36.58 -3.319)" fill="#080808" fill-rule="evenodd"/>
        <path id="Path_830" data-name="Path 830" d="M109.139,16.866a3.341,3.341,0,0,0-.866-.092,2.656,2.656,0,0,0-2.173,1.289v5.612h-2.4V14.75H106v.9a3.36,3.36,0,0,1,2.6-1.08,4.888,4.888,0,0,1,.811.073Z" transform="translate(-26.806 -3.214)" fill="#080808" fill-rule="evenodd"/>
        <path id="Path_831" data-name="Path 831" d="M118.453,17.878a2.751,2.751,0,0,0-2.214-1.1,2.44,2.44,0,0,0,.055,4.876,2.622,2.622,0,0,0,2.16-1.1Zm2.393,5.8H118.54v-.72a3.745,3.745,0,0,1-2.49.9,4.5,4.5,0,0,1-3.374-1.509,4.781,4.781,0,0,1-1.143-3.128,4.484,4.484,0,0,1,4.389-4.655,4.1,4.1,0,0,1,2.619.9v-.72h2.306Z" transform="translate(-28.891 -3.216)" fill="#080808" fill-rule="evenodd"/>
        <path id="Path_832" data-name="Path 832" d="M126.9,23.673V14.75h2.3v.72a3.95,3.95,0,0,1,2.527-.9,4.034,4.034,0,0,1,3.1,1.44,4.5,4.5,0,0,1,.922,3.128v4.545h-2.4V18.945a2.16,2.16,0,0,0-.535-1.68,1.89,1.89,0,0,0-1.346-.5,2.86,2.86,0,0,0-2.177,1.1v5.8Z" transform="translate(-32.987 -3.214)" fill="#080808" fill-rule="evenodd"/>
        <path id="Path_833" data-name="Path 833" d="M161.291,18.148a1.977,1.977,0,0,0-1.964-1.741,2.153,2.153,0,0,0-2.13,1.736Zm2.03,4.109a4.858,4.858,0,0,1-3.67,1.6,4.468,4.468,0,0,1-4.679-4.637,4.4,4.4,0,0,1,4.352-4.655,4.336,4.336,0,0,1,4.223,4.559,3.928,3.928,0,0,1-.055.68h-6.2a2.348,2.348,0,0,0,2.416,2.117,3.168,3.168,0,0,0,2.25-1.031Z" transform="translate(-40.466 -3.215)" fill="#080808" fill-rule="evenodd"/>
        <path id="Path_834" data-name="Path 834" d="M93.239,21.6a2.586,2.586,0,1,0-2.508-2.577A2.473,2.473,0,0,0,93.239,21.6Zm0-7.509A4.933,4.933,0,1,1,89.683,15.5a4.925,4.925,0,0,1,3.557-1.406Z" transform="translate(-22.675 -3.088)" fill="#080808" fill-rule="evenodd"/>
        <path id="Path_835" data-name="Path 835" d="M75.295,13.43,73.4,17.87,71.5,13.43H65.8L63.01,16.32V9.291h-2.4V22.355h2.4V18.491L66.5,22.355H69.73l-4.636-4.913,3.825-3.758L72.053,21,70.07,25.59h2.69L77.98,13.434Z" transform="translate(-15.327 -1.809)" fill="#080808" fill-rule="evenodd"/>
      </g>
    </g>
    <g id="Mask_Group_74" data-name="Mask Group 74" transform="translate(310 -440)" clip-path="url(#clip-path-10)">
      <g id="Group_373" data-name="Group 373" transform="translate(425 2339)">
        <path id="Path_836" data-name="Path 836" d="M197.068,13.625C197.068,6.1,190.238,0,186.914,0s-10.156,6.1-10.156,13.625A16.31,16.31,0,0,0,179.551,23,28.572,28.572,0,0,0,182,26.878a26.175,26.175,0,0,1,2.831,4.655,2.246,2.246,0,0,0-1.272,1.268,16.416,16.416,0,0,0,1.778.3,11,11,0,0,0,4.1-.176c-.551.45-2.2.695-4.139.565a14.18,14.18,0,0,1-1.871-.247,2.242,2.242,0,0,0-.032.376v2.8c0,1.24,1,1.57,2.242,1.57h3.117c1.237,0,2.242-.331,2.242-1.57v-2.8a2.241,2.241,0,0,0-1.738-2.179c.389-.9.844-1.793,1.288-2.662l.44-.865.317-.634c.247-.5.654-1.314,1.076-2.141h-.039C195.181,22.721,197.068,18.471,197.068,13.625ZM190.746,27l-.315.632-.439.859c-.48.939-.969,1.9-1.383,2.885h-1.383V27.249H186.6v4.127h-.963c-.066,0-.126.014-.19.019a25.875,25.875,0,0,0-2.94-4.878q-.45-.631-.872-1.248a8.293,8.293,0,0,0,5.275,1.979,8.044,8.044,0,0,0,4.368-1.323C191.117,26.257,190.939,26.612,190.746,27Zm-.131-1.063a19.061,19.061,0,0,0,4.125-8.365,7.245,7.245,0,0,1-5.6,2.408c-3.684,0-6.672-2.351-6.672-5.251s2.988-5.252,6.672-5.252a7.3,7.3,0,0,1,5.51,2.291C192.712,3.754,184,1.747,184,1.747A3.5,3.5,0,0,1,185.723.712a3.247,3.247,0,0,1,2.131-.027c.723.215,8.415,4.5,8.415,12.683a16.606,16.606,0,0,1-5.655,12.569Z" transform="translate(-97.067)" fill="#080808"/>
        <g id="Group_371" data-name="Group 371" transform="translate(0.001 36.349)">
          <path id="Path_837" data-name="Path 837" d="M5.5,80.624c1.465,0,3.871.418,3.871,2.155a1.413,1.413,0,0,1-1.339,1.528c-.837,0-1.067-.544-2.344-.544-1.653,0-2.427,1.256-2.427,2.762s.8,2.762,2.239,2.762a10.465,10.465,0,0,0,2.532-.565,1.457,1.457,0,0,1,1.339,1.444c0,1.632-2.573,2.26-3.871,2.26-3.306,0-5.5-2.615-5.5-5.9S2.2,80.624,5.5,80.624Z" transform="translate(-0.001 -80.624)" fill="#080808"/>
          <path id="Path_838" data-name="Path 838" d="M22.465,82.528A1.623,1.623,0,0,1,24.1,80.834a1.76,1.76,0,0,1,1.633,1.045,3.111,3.111,0,0,1,2.26-1.255,1.681,1.681,0,0,1,1.674,1.694c0,1.13-.858,1.4-2.051,1.757-1.423.419-1.883.8-1.883,2.47V90.52a1.633,1.633,0,1,1-3.265,0V82.528Z" transform="translate(-12.337 -80.624)" fill="#080808"/>
          <path id="Path_839" data-name="Path 839" d="M48.833,90.521a1.624,1.624,0,0,1-1.633,1.7,1.688,1.688,0,0,1-1.527-1.046,3.258,3.258,0,0,1-2.8,1.255c-2.846,0-5.043-2.615-5.043-5.9s2.2-5.9,5.043-5.9a3.258,3.258,0,0,1,2.8,1.255A1.688,1.688,0,0,1,47.2,80.834a1.623,1.623,0,0,1,1.633,1.694Zm-7.742-4c0,1.507.8,2.762,2.239,2.762s2.239-1.256,2.239-2.762-.8-2.762-2.239-2.762-2.239,1.259-2.239,2.766Z" transform="translate(-20.773 -80.624)" fill="#080808"/>
          <path id="Path_840" data-name="Path 840" d="M68.227,84.378H65.361c-1.046,0-1.716-.46-1.716-1.507s.669-1.508,1.716-1.508h6.278a1.5,1.5,0,0,1,1.234.4,1.052,1.052,0,0,1,.292.774,1.655,1.655,0,0,1-.418.941l-4.478,6H71.72c1.046,0,1.716.46,1.716,1.507s-.669,1.51-1.716,1.51H65.109a1.786,1.786,0,0,1-1.088-.231,1.086,1.086,0,0,1-.481-.921,1.867,1.867,0,0,1,.5-1.213Z" transform="translate(-34.894 -81.03)" fill="#080808"/>
          <path id="Path_841" data-name="Path 841" d="M88.735,91.279l-2.784-6.633a7.571,7.571,0,0,1-.69-2.03,1.522,1.522,0,0,1,1.59-1.528,1.7,1.7,0,0,1,1.674,1.234l1.926,4.98,1.82-4.437c.419-1,.879-1.778,1.778-1.778a1.565,1.565,0,0,1,1.674,1.654,3.892,3.892,0,0,1-.4,1.423L90.492,95.442c-.377.858-.649,1.549-1.779,1.549A1.522,1.522,0,0,1,87.1,95.527a4.218,4.218,0,0,1,.544-1.8Z" transform="translate(-46.822 -80.878)" fill="#080808"/>
          <path id="Path_842" data-name="Path 842" d="M112.681,87.592c0,.689.523,1.82,2.616,1.82,1.611,0,2.6-1.025,3.349-1.025a1.355,1.355,0,0,1,1.361,1.4c0,1.589-2.658,2.637-5.127,2.637a5.575,5.575,0,0,1-5.713-5.9,5.76,5.76,0,0,1,5.713-5.9,5.365,5.365,0,0,1,5.294,5.545c0,1.152-.544,1.423-1.59,1.423Zm4.227-2.24a2.119,2.119,0,0,0-4.227,0Z" transform="translate(-59.95 -80.624)" fill="#080808"/>
          <path id="Path_843" data-name="Path 843" d="M145.977,91c0,4.164-2.72,5.733-5.922,5.733-1.7,0-4.875-.648-4.875-2.427a1.506,1.506,0,0,1,1.361-1.423c.941,0,1.549.963,3.453.963,2.03,0,2.719-1.067,2.719-2.887h-.042A3.436,3.436,0,0,1,139.7,92.22c-3.16,0-4.729-2.741-4.729-5.692,0-3.285,2.2-5.9,5.044-5.9a3.26,3.26,0,0,1,2.8,1.255,1.687,1.687,0,0,1,1.528-1.045,1.622,1.622,0,0,1,1.632,1.694v8.474Zm-5.5-7.241c-1.444,0-2.239,1.256-2.239,2.762,0,1.589.8,2.8,2.239,2.8s2.239-1.212,2.239-2.8c0-1.506-.8-2.762-2.243-2.762Z" transform="translate(-74.12 -80.626)" fill="#080808"/>
          <path id="Path_844" data-name="Path 844" d="M172.618,91c0,4.164-2.72,5.733-5.922,5.733-1.7,0-4.875-.648-4.875-2.427a1.506,1.506,0,0,1,1.361-1.423c.942,0,1.55.963,3.453.963,2.03,0,2.72-1.067,2.72-2.887h-.041a3.437,3.437,0,0,1-2.972,1.256c-3.16,0-4.728-2.741-4.728-5.692,0-3.285,2.2-5.9,5.043-5.9a3.259,3.259,0,0,1,2.8,1.255,1.688,1.688,0,0,1,1.528-1.045,1.623,1.623,0,0,1,1.633,1.694v8.475h0Zm-5.5-7.241c-1.444,0-2.24,1.256-2.24,2.762,0,1.589.8,2.8,2.24,2.8s2.238-1.212,2.238-2.8c0-1.506-.8-2.762-2.241-2.762Z" transform="translate(-88.75 -80.626)" fill="#080808"/>
        </g>
        <g id="Group_372" data-name="Group 372" transform="translate(88.216 11.541)">
          <path id="Path_845" data-name="Path 845" d="M201.928,27.369c-.594,0-1.123-.31-1.885-.31-1.355,0-2,.809-2,1.628a1.784,1.784,0,0,0,2,1.606c.6,0,1.487-.33,1.769-.33.562,0,1.024.32,1.024.7,0,.819-2.049,1.1-2.907,1.1-2.564,0-4.263-1.405-4.263-3.068,0-1.617,1.752-3.088,4.263-3.088.94,0,2.907.231,2.907,1.008a.865.865,0,0,1-.908.754Z" transform="translate(-195.667 -25.599)" fill="#080808"/>
        </g>
      </g>
    </g>
    <g id="Mask_Group_75" data-name="Mask Group 75" transform="translate(455 -509)" clip-path="url(#clip-path-11)">
      <g id="Group_376" data-name="Group 376" transform="translate(-5 4)">
        <g id="Group_375" data-name="Group 375">
          <path id="Path_846" data-name="Path 846" d="M16.364,0H2.455A2.462,2.462,0,0,0,0,2.455V33.546A2.461,2.461,0,0,0,2.455,36H23.73a2.461,2.461,0,0,0,2.455-2.454V9.818L20.457,5.725Z" transform="translate(435 2292)" fill="#080808"/>
          <path id="Path_847" data-name="Path 847" d="M15.592,42.029h9V40.392h-9Zm0-9.818v1.636h9V32.21Zm-2.047.818A1.227,1.227,0,1,1,12.32,31.8a1.227,1.227,0,0,1,1.226,1.229Zm0,4.093a1.227,1.227,0,1,1-1.226-1.229,1.227,1.227,0,0,1,1.226,1.229Zm0,4.093a1.227,1.227,0,1,1-1.227-1.227,1.227,1.227,0,0,1,1.227,1.227Zm2.047-3.273h9V36.3h-9Z" transform="translate(430.044 2277.79)" fill="#f1f1f1"/>
          <path id="Path_848" data-name="Path 848" d="M30.881,16.452l9.1,9.1V17.17Z" transform="translate(421.2 2284.648)" fill="url(#linear-gradient)"/>
          <g id="Group_374" data-name="Group 374" transform="translate(451.363 2292)">
            <path id="Path_849" data-name="Path 849" d="M2.958,2.958v7.364a2.454,2.454,0,0,0,2.457,2.454h7.361Z" transform="translate(-2.958 -2.958)" fill="#272727"/>
          </g>
          <path id="Path_850" data-name="Path 850" d="M2.455,0A2.462,2.462,0,0,0,0,2.455v.2A2.462,2.462,0,0,1,2.455.2H16.364V0Z" transform="translate(435 2292)" fill="rgba(255,255,255,0.2)"/>
          <path id="Path_851" data-name="Path 851" d="M23.73,62.731H2.455A2.462,2.462,0,0,1,0,60.276v.2a2.461,2.461,0,0,0,2.455,2.454H23.73a2.461,2.461,0,0,0,2.455-2.454v-.2a2.461,2.461,0,0,1-2.455,2.455Z" transform="translate(435 2265.065)" fill="rgba(49,27,146,0.2)"/>
          <path id="Path_852" data-name="Path 852" d="M32.038,15.767a2.454,2.454,0,0,1-2.455-2.454v.2a2.454,2.454,0,0,0,2.455,2.455H39.4v-.2Z" transform="translate(421.78 2286.051)" fill="rgba(49,27,146,0.1)"/>
          <path id="Path_853" data-name="Path 853" d="M16.364,0H2.455A2.462,2.462,0,0,0,0,2.455V33.546A2.461,2.461,0,0,0,2.455,36H23.73a2.461,2.461,0,0,0,2.455-2.454V9.818Z" transform="translate(435 2292)" fill="url(#radial-gradient)"/>
        </g>
        <path id="Path_854" data-name="Path 854" d="M7.909-7.625a4.058,4.058,0,0,0-2.964-1.1A4.172,4.172,0,0,0,.672-4.417,4.152,4.152,0,0,0,4.945-.11,5.933,5.933,0,0,0,8-.909V-4.6H5.257v.73H7.168v2.49a4.228,4.228,0,0,1-2.212.533,3.382,3.382,0,0,1-3.4-3.566A3.392,3.392,0,0,1,4.956-8a3.125,3.125,0,0,1,2.374.95Zm7.561,4.6a2.78,2.78,0,0,0-2.895-2.849A2.777,2.777,0,0,0,9.692-3.028,2.777,2.777,0,0,0,12.576-.179,2.78,2.78,0,0,0,15.47-3.028Zm-.834,0A2.038,2.038,0,0,1,12.576-.851a2.036,2.036,0,0,1-2.05-2.177,2.045,2.045,0,0,1,2.05-2.189A2.048,2.048,0,0,1,14.637-3.028Zm7.909,0a2.78,2.78,0,0,0-2.895-2.849,2.777,2.777,0,0,0-2.883,2.849A2.777,2.777,0,0,0,19.651-.179,2.78,2.78,0,0,0,22.545-3.028Zm-.834,0A2.038,2.038,0,0,1,19.651-.851,2.036,2.036,0,0,1,17.6-3.028a2.045,2.045,0,0,1,2.05-2.189A2.048,2.048,0,0,1,21.712-3.028Zm2.246,4.4a3.647,3.647,0,0,0,2.605,1.088A2.638,2.638,0,0,0,29.5-.364V-5.737h-.787V-4.8h-.023a2.432,2.432,0,0,0-2.05-1.077,2.719,2.719,0,0,0-2.8,2.8,2.657,2.657,0,0,0,2.8,2.756,2.463,2.463,0,0,0,2.05-1.065h.023V-.364A1.92,1.92,0,0,1,26.6,1.766a2.748,2.748,0,0,1-2.073-1Zm.718-4.47a2,2,0,0,1,2.05-2.119A2.083,2.083,0,0,1,28.81-3.1,2.006,2.006,0,0,1,26.726-.99,1.989,1.989,0,0,1,24.676-3.1Zm7.689-5.975h-.787V-.318h.787Zm2.547,5.628a1.919,1.919,0,0,1,1.9-1.772,1.708,1.708,0,0,1,1.795,1.772ZM39.4-3.19a2.484,2.484,0,0,0-2.594-2.686,2.737,2.737,0,0,0-2.733,2.849,2.751,2.751,0,0,0,2.8,2.849,2.826,2.826,0,0,0,2.327-1.146l-.591-.463a2.053,2.053,0,0,1-1.737.938A1.977,1.977,0,0,1,34.9-2.819h4.493C39.4-2.958,39.4-3.085,39.4-3.19ZM1.378,18.981H3.567V13.8H8.986V11.964H3.567V8.594H9.316V6.684H1.378Zm8.528-4.2a4.378,4.378,0,0,0,4.533,4.446,4.378,4.378,0,0,0,4.533-4.446A4.322,4.322,0,0,0,14.44,10.4,4.322,4.322,0,0,0,9.907,14.778Zm2.119,0a2.427,2.427,0,1,1,4.829,0,2.43,2.43,0,1,1-4.829,0Zm8.962,4.2h2.084V14.517a2.175,2.175,0,0,1,2.241-2.241,2.431,2.431,0,0,1,.643.087V10.453a2.358,2.358,0,0,0-.5-.052,2.7,2.7,0,0,0-2.432,1.633h-.035v-1.39h-2ZM37.263,10.4a2.968,2.968,0,0,0-2.744,1.581,2.923,2.923,0,0,0-5.193,0H29.29V10.644H27.31v8.337h2.084V14.4c0-1.112.573-2.258,1.824-2.258,1.06,0,1.546.782,1.546,1.806v5.037h2.084V14.43c0-1.077.538-2.293,1.841-2.293,1.337,0,1.563,1.233,1.563,2.223v4.62h2.084V13.77C40.337,12.068,39.434,10.4,37.263,10.4Z" transform="translate(470.438 2305.072)" fill="#080808"/>
      </g>
    </g>
    <g id="Mask_Group_76" data-name="Mask Group 76" transform="translate(455 -457)" clip-path="url(#clip-path-12)">
      <g id="Group_377" data-name="Group 377" transform="translate(-5 7)">
        <g id="google-optimize" transform="translate(435 2297)">
          <path id="Path_855" data-name="Path 855" d="M358.721,899.94a4.979,4.979,0,0,0-5.036-4.864H340.7V904.8h8.41v8.18a4.773,4.773,0,0,0,4.5,5.03c.057,0,.115.006.172.006a4.986,4.986,0,0,0,4.937-5.036h0V899.94Z" transform="translate(-335.73 -882.018)" fill="#080808"/>
          <circle id="Ellipse_35" data-name="Ellipse 35" cx="4.913" cy="4.913" r="4.913" transform="translate(0 13.067)" fill="#1e1e1e"/>
          <path id="Path_856" data-name="Path 856" d="M867.062,4.889A4.937,4.937,0,0,0,862.125,0H848.844a4.937,4.937,0,0,0,0,9.825h8.508V18a4.863,4.863,0,1,0,9.719.4c.006-.131.006-.264,0-.4Z" transform="translate(-832.081)" fill="#080808"/>
        </g>
        <path id="Path_857" data-name="Path 857" d="M.792-6.408A6.528,6.528,0,0,0,7.614.324,6.542,6.542,0,0,0,14.49-6.408c0-4.086-2.9-6.66-6.876-6.66C3.69-13.068.792-10.494.792-6.408Zm2.466,0A4.363,4.363,0,0,1,7.632-11.07a4.367,4.367,0,0,1,4.392,4.662,4.368,4.368,0,0,1-4.392,4.7A4.365,4.365,0,0,1,3.258-6.408ZM16.578-8.64V4.32h2.16V-1.152h.036a3.385,3.385,0,0,0,2.862,1.4c2.628,0,4.248-2.088,4.248-4.608A4.251,4.251,0,0,0,21.69-8.892,3.421,3.421,0,0,0,18.7-7.434h-.054V-8.64Zm7.11,4.284A2.583,2.583,0,0,1,21.2-1.548,2.653,2.653,0,0,1,18.666-4.32,2.685,2.685,0,0,1,21.2-7.128,2.552,2.552,0,0,1,23.688-4.356Zm4.554-2.556V-2.88c0,1.656.522,3.06,2.808,3.06a4.471,4.471,0,0,0,1.44-.234l-.072-1.692a2.258,2.258,0,0,1-.918.18c-.954,0-1.134-.558-1.134-1.332V-6.912h2.16V-8.64h-2.16v-2.5H28.242v2.5H26.73v1.728ZM34.128,0h2.16V-8.64h-2.16Zm-.306-11.574a1.331,1.331,0,0,0,1.368,1.3,1.329,1.329,0,0,0,1.4-1.3,1.329,1.329,0,0,0-1.4-1.3A1.331,1.331,0,0,0,33.822-11.574ZM49.23-8.892a3.076,3.076,0,0,0-2.844,1.638,2.85,2.85,0,0,0-2.7-1.638A2.851,2.851,0,0,0,41-7.254h-.036V-8.64H38.916V0h2.16V-4.752c0-1.152.594-2.34,1.89-2.34,1.1,0,1.6.81,1.6,1.872V0h2.16V-4.716c0-1.116.558-2.376,1.908-2.376,1.386,0,1.62,1.278,1.62,2.3V0h2.16V-5.4C52.416-7.164,51.48-8.892,49.23-8.892ZM54.972,0h2.16V-8.64h-2.16Zm-.306-11.574a1.331,1.331,0,0,0,1.368,1.3,1.329,1.329,0,0,0,1.4-1.3,1.329,1.329,0,0,0-1.4-1.3A1.331,1.331,0,0,0,54.666-11.574ZM59.076,0h7.452V-1.764h-4.9l4.68-4.968V-8.64h-7.02v1.728h4.446l-4.662,5ZM70.092-5.184a2.307,2.307,0,0,1,2.394-2.088A1.92,1.92,0,0,1,74.52-5.184Zm6.588.972c0-3.114-1.764-4.68-4.176-4.68a4.409,4.409,0,0,0-4.572,4.626A4.341,4.341,0,0,0,72.576.252a4.3,4.3,0,0,0,3.708-1.728l-1.44-1.152a2.618,2.618,0,0,1-2.286,1.116,2.4,2.4,0,0,1-2.466-2.124h6.57C76.68-3.834,76.68-4.014,76.68-4.212Z" transform="translate(478 2319.068)" fill="#080808"/>
      </g>
    </g>
    <g id="Mask_Group_77" data-name="Mask Group 77" transform="translate(460 -542)" clip-path="url(#clip-path-13)">
      <g id="Group_379" data-name="Group 379" transform="translate(424.7 2453.3)">
        <g id="Group_378" data-name="Group 378" transform="translate(0.3 0.7)">
          <path id="Path_858" data-name="Path 858" d="M43.909,17.765V4.674A3.976,3.976,0,0,0,39.935.7H4.274A3.976,3.976,0,0,0,.3,4.674V17.765a3.976,3.976,0,0,0,3.974,3.974H30.1l7,4.668-1.4-4.668h4.27a3.971,3.971,0,0,0,3.948-3.974ZM7.836,13.856a2.029,2.029,0,0,0,.823.823,2.29,2.29,0,0,0,1.145.283,2.347,2.347,0,0,0,1.157-.3,2.176,2.176,0,0,0,.823-.849,2.542,2.542,0,0,0,.309-1.26V6.68a.266.266,0,0,1,.283-.283H13.8a.3.3,0,0,1,.219.077.391.391,0,0,1,.064.09.182.182,0,0,1,.013.116v5.864a4.513,4.513,0,0,1-.579,2.366,3.524,3.524,0,0,1-1.543,1.4,4.981,4.981,0,0,1-2.173.45A5.027,5.027,0,0,1,7.63,16.3a3.592,3.592,0,0,1-1.556-1.415A4.433,4.433,0,0,1,5.5,12.531V6.68a.262.262,0,0,1,.077-.193.341.341,0,0,1,.077-.064.242.242,0,0,1,.1-.026h1.5a.253.253,0,0,1,.206.077.327.327,0,0,1,.064.206v5.877a2.588,2.588,0,0,0,.312,1.3Zm7.613,1.016a.457.457,0,0,0,.026.129l.077.154a3.389,3.389,0,0,0,1.3,1.183,3.916,3.916,0,0,0,1.839.424,4.356,4.356,0,0,0,1.569-.3,2.9,2.9,0,0,0,1.222-.913,2.323,2.323,0,0,0,.463-1.466,2.538,2.538,0,0,0-.579-1.633,3.434,3.434,0,0,0-1.749-1.08c-.1-.039-.193-.064-.283-.09s-.167-.051-.231-.064a6.784,6.784,0,0,1-.849-.27,1.414,1.414,0,0,1-.437-.27.592.592,0,0,1-.167-.45.7.7,0,0,1,.309-.592,1.386,1.386,0,0,1,.849-.231,1.9,1.9,0,0,1,.862.18,2.35,2.35,0,0,1,.669.553c.077.09.141.141.219.141a.265.265,0,0,0,.18-.09l.81-.669c.09-.077.141-.141.141-.206a.546.546,0,0,0-.1-.231A3.9,3.9,0,0,0,20.432,8.1a3.251,3.251,0,0,0-1.672-.4,3.351,3.351,0,0,0-1.595.36A2.825,2.825,0,0,0,16.1,9a2.166,2.166,0,0,0-.373,1.17A2.571,2.571,0,0,0,16,11.438a2.464,2.464,0,0,0,.862.887,6.293,6.293,0,0,0,1.517.656c.27.077.437.129.476.141a5.7,5.7,0,0,1,.682.231.728.728,0,0,1,.347.257.748.748,0,0,1,.129.476.774.774,0,0,1-.219.527,1.583,1.583,0,0,1-.566.36,2.14,2.14,0,0,1-.694.129,1.641,1.641,0,0,1-.965-.27,3.007,3.007,0,0,1-.72-.733.311.311,0,0,0-.244-.154.366.366,0,0,0-.154.051l-.887.63a.337.337,0,0,0-.115.246Zm14.519-.733a.174.174,0,0,1,.167.09l.707.862a.4.4,0,0,1,.09.206.29.29,0,0,1-.1.206,5.36,5.36,0,0,1-1.53.977,4.548,4.548,0,0,1-1.633.3,4.415,4.415,0,0,1-2.225-.6,4.625,4.625,0,0,1-1.659-1.646,4.327,4.327,0,0,1-.617-2.251,4.526,4.526,0,0,1,.579-2.263,4.354,4.354,0,0,1,1.6-1.646,4.309,4.309,0,0,1,2.276-.6,4.463,4.463,0,0,1,2.019.5A4.161,4.161,0,0,1,31.3,9.791a4.551,4.551,0,0,1,.656,2.508,1.168,1.168,0,0,1-.077.489.307.307,0,0,1-.206.18,1.261,1.261,0,0,1-.412.026H25.081a2.633,2.633,0,0,0,.514,1.08,2.5,2.5,0,0,0,.913.72,2.72,2.72,0,0,0,1.157.257,3.23,3.23,0,0,0,.836-.1,2.461,2.461,0,0,0,.579-.231,3.472,3.472,0,0,0,.5-.347l.206-.154A.281.281,0,0,1,29.968,14.139ZM26.56,9.676a2.771,2.771,0,0,0-.862.682,3,3,0,0,0-.553.965h4.9a3.123,3.123,0,0,0-.952-1.376,2.277,2.277,0,0,0-1.479-.514,2.189,2.189,0,0,0-1.054.243ZM34.8,7.824h-.99q-.27,0-.27.3v8.2c0,.193.09.283.27.283h1.415a.247.247,0,0,0,.283-.283v-4.81a2.182,2.182,0,0,1,.244-1.093,1.582,1.582,0,0,1,.643-.656,1.725,1.725,0,0,1,.836-.219,2.179,2.179,0,0,1,.823.154,5.035,5.035,0,0,1,.733.4.44.44,0,0,0,.219.09.244.244,0,0,0,.193-.116l.643-.913a.309.309,0,0,0,.077-.193.42.42,0,0,0-.154-.283,5.016,5.016,0,0,0-1-.643,2.817,2.817,0,0,0-1.312-.309,2.368,2.368,0,0,0-1.2.309,2.472,2.472,0,0,0-.887.862l-.141-.759c-.026-.141-.064-.231-.141-.27A.555.555,0,0,0,34.8,7.824Z" transform="translate(-0.3 -0.7)" fill="#080808" fill-rule="evenodd"/>
          <path id="Path_859" data-name="Path 859" d="M357.183,45h7.356a.239.239,0,0,1,.27.27v1.3a.248.248,0,0,1-.27.283h-2.713v8.089a.239.239,0,0,1-.27.27h-1.479a.239.239,0,0,1-.27-.27v-8.1H357.17c-.18,0-.27-.09-.27-.283V45.27a.254.254,0,0,1,.283-.27Z" transform="translate(-311.041 -39.303)" fill="#080808"/>
          <path id="Path_860" data-name="Path 860" d="M423.4,61.979a.175.175,0,0,1,.167.09l.707.862a.4.4,0,0,1,.09.206.29.29,0,0,1-.1.206,5.361,5.361,0,0,1-1.53.977,4.332,4.332,0,0,1-1.633.3,4.415,4.415,0,0,1-2.225-.6,4.625,4.625,0,0,1-1.659-1.646,4.327,4.327,0,0,1-.617-2.251,4.526,4.526,0,0,1,.579-2.263,4.354,4.354,0,0,1,1.6-1.646,4.309,4.309,0,0,1,2.276-.6,4.423,4.423,0,0,1,2.019.5,4.161,4.161,0,0,1,1.659,1.517,4.551,4.551,0,0,1,.656,2.508,1.168,1.168,0,0,1-.077.489.307.307,0,0,1-.206.18,1.639,1.639,0,0,1-.412.039h-6.16a2.633,2.633,0,0,0,.514,1.08,2.5,2.5,0,0,0,.913.72,2.735,2.735,0,0,0,1.17.257,3.23,3.23,0,0,0,.836-.1,2.46,2.46,0,0,0,.579-.231,3.469,3.469,0,0,0,.5-.347l.206-.154A.139.139,0,0,1,423.4,61.979Zm-3.421-4.462a2.771,2.771,0,0,0-.862.682,2.993,2.993,0,0,0-.553.965h4.913a3.122,3.122,0,0,0-.952-1.376,2.287,2.287,0,0,0-1.492-.514,2.156,2.156,0,0,0-1.054.244Z" transform="translate(-363.063 -48.54)" fill="#080808"/>
          <path id="Path_861" data-name="Path 861" d="M489.326,62.23a.458.458,0,0,1-.026-.129.337.337,0,0,1,.116-.244l.874-.669a.165.165,0,0,1,.154-.051.293.293,0,0,1,.244.154,3.008,3.008,0,0,0,.72.733,1.641,1.641,0,0,0,.964.27,1.8,1.8,0,0,0,.694-.129,1.478,1.478,0,0,0,.566-.36.774.774,0,0,0,.219-.527.748.748,0,0,0-.129-.476.878.878,0,0,0-.347-.257,5.7,5.7,0,0,0-.682-.231c-.051-.013-.206-.051-.476-.141a6.293,6.293,0,0,1-1.517-.656,2.463,2.463,0,0,1-.862-.887,2.571,2.571,0,0,1-.283-1.26,2.166,2.166,0,0,1,.373-1.17A2.731,2.731,0,0,1,491,55.26a3.351,3.351,0,0,1,1.6-.36,3.284,3.284,0,0,1,1.672.4,4.1,4.1,0,0,1,1.157.977.358.358,0,0,1,.1.231.288.288,0,0,1-.141.206l-.81.669a.387.387,0,0,1-.18.09.334.334,0,0,1-.219-.141,2.392,2.392,0,0,0-.669-.553,1.94,1.94,0,0,0-.862-.18,1.386,1.386,0,0,0-.849.231.7.7,0,0,0-.309.592.592.592,0,0,0,.167.45,1.148,1.148,0,0,0,.437.27c.18.077.476.154.849.27a1.553,1.553,0,0,1,.232.064c.09.026.18.051.283.09a3.352,3.352,0,0,1,1.749,1.08,2.563,2.563,0,0,1,.579,1.633,2.374,2.374,0,0,1-.463,1.466,2.922,2.922,0,0,1-1.222.913,3.869,3.869,0,0,1-1.569.3,3.916,3.916,0,0,1-1.839-.424,3.484,3.484,0,0,1-1.3-1.183.741.741,0,0,1-.064-.116Z" transform="translate(-426.414 -47.93)" fill="#080808"/>
          <path id="Path_862" data-name="Path 862" d="M548.777,41.7a.265.265,0,0,1,.3.3v1.132a.265.265,0,0,1-.09.219.359.359,0,0,1-.231.077h-.99V47.7a1.425,1.425,0,0,0,.167.746.681.681,0,0,0,.579.3l.219.013c.154.013.257.051.3.129a.444.444,0,0,1,.051.257v.977c0,.231-.18.347-.527.347a3.151,3.151,0,0,1-1.427-.309,2.258,2.258,0,0,1-.977-.887,2.574,2.574,0,0,1-.347-1.35V43.435H545a.292.292,0,0,1-.206-.077.265.265,0,0,1-.09-.219V42.021a.32.32,0,0,1,.09-.244A.292.292,0,0,1,545,41.7h.8V40.26a.344.344,0,0,1,.051-.219.489.489,0,0,1,.219-.116l1.4-.412a.163.163,0,0,1,.077-.013.237.237,0,0,1,.09.026.154.154,0,0,1,.064.064.368.368,0,0,1,.052.219v1.878Z" transform="translate(-474.69 -34.51)" fill="#080808"/>
          <path id="Path_863" data-name="Path 863" d="M590.424,31.7h1.2c.257,0,.386.141.386.437v1.209a.371.371,0,0,1-.09.3.476.476,0,0,1-.3.09h-1.2q-.424,0-.424-.386V32.137C590,31.841,590.141,31.7,590.424,31.7Zm-.283,3.215a.262.262,0,0,1,.193-.077h1.453a.262.262,0,0,1,.193.077.271.271,0,0,1,.077.206v8.218a.248.248,0,0,1-.27.283h-1.453c-.18,0-.27-.09-.27-.283V35.121a.272.272,0,0,1,.077-.206Z" transform="translate(-514.164 -27.713)" fill="#080808"/>
          <path id="Path_864" data-name="Path 864" d="M620.026,64.283a.506.506,0,0,1-.27.077H618.5a.265.265,0,0,1-.3-.3v-8.2a.265.265,0,0,1,.3-.3h.926a.382.382,0,0,1,.257.1.5.5,0,0,1,.154.244l.116.99a3.146,3.146,0,0,1,1.209-1.055,3.451,3.451,0,0,1,1.517-.347,3.21,3.21,0,0,1,1.543.4,3.278,3.278,0,0,1,1.247,1.235,4.076,4.076,0,0,1,.489,2.07v4.848c0,.193-.09.283-.27.283h-1.376c-.193,0-.3-.09-.3-.283V59.268a1.862,1.862,0,0,0-.244-.939,2.033,2.033,0,0,0-.682-.72,1.866,1.866,0,0,0-1.89-.026,1.967,1.967,0,0,0-.746.707,1.987,1.987,0,0,0-.3,1.067v4.681a.329.329,0,0,1-.124.245Z" transform="translate(-538.738 -48.453)" fill="#080808"/>
          <path id="Path_865" data-name="Path 865" d="M696.142,64.835a3.874,3.874,0,0,1-1.569,1.582,4.787,4.787,0,0,1-2.3.527,5.126,5.126,0,0,1-1.7-.3,4.444,4.444,0,0,1-1.44-.8.265.265,0,0,1-.116-.206.379.379,0,0,1,.09-.206l.579-.836a.291.291,0,0,1,.244-.141.411.411,0,0,1,.244.09,3.823,3.823,0,0,0,2.263.63,2.444,2.444,0,0,0,1.234-.309,2.076,2.076,0,0,0,.849-.849,2.444,2.444,0,0,0,.309-1.235v-.026a4.209,4.209,0,0,1-1.222.926,3.4,3.4,0,0,1-1.492.309,4.147,4.147,0,0,1-2.135-.566,4.476,4.476,0,0,1-1.594-6.07,4.656,4.656,0,0,1,1.595-1.646,3.994,3.994,0,0,1,2.135-.617,3.735,3.735,0,0,1,2.816,1.26l.116-.81a.44.44,0,0,1,.1-.27.314.314,0,0,1,.232-.077h1.106c.167,0,.257.1.257.3V62.25a5.853,5.853,0,0,1-.6,2.585Zm-1.62-6.571a2.671,2.671,0,0,0-.939-.99,2.492,2.492,0,0,0-1.337-.373,2.549,2.549,0,0,0-1.363.373,2.581,2.581,0,0,0-.926,1,2.941,2.941,0,0,0-.334,1.376,2.8,2.8,0,0,0,.347,1.4,2.539,2.539,0,0,0,.952.965,2.625,2.625,0,0,0,1.337.347,2.4,2.4,0,0,0,1.312-.36,2.743,2.743,0,0,0,.926-.99,2.927,2.927,0,0,0,.334-1.363,2.636,2.636,0,0,0-.309-1.389Z" transform="translate(-599.383 -48.104)" fill="#080808"/>
          <path id="Path_866" data-name="Path 866" d="M763.3,56.1a1,1,0,1,0,1,1A1,1,0,0,0,763.3,56.1Zm0,1.8a.8.8,0,0,1,0-1.595.79.79,0,0,1,.784.8.8.8,0,0,1-.784.8Z" transform="translate(-664.306 -48.976)" fill="#080808"/>
          <path id="Path_867" data-name="Path 867" d="M767.043,59.613a.045.045,0,0,1,.026-.013h.463a.3.3,0,0,1,.18.051.61.61,0,0,1,.129.129.42.42,0,0,1,.051.18.322.322,0,0,1-.051.18.343.343,0,0,1-.141.129l.206.4V60.7h-.232a.045.045,0,0,1-.013-.026l-.18-.36h-.219v.347c0,.026-.013.026-.026.026h-.154c-.026,0-.026-.013-.026-.026V59.613C767.03,59.626,767.03,59.613,767.043,59.613Zm.206.527h.231a.186.186,0,0,0,.09-.026.155.155,0,0,0,.064-.064.185.185,0,0,0,.026-.09.237.237,0,0,0-.026-.09.155.155,0,0,0-.064-.064.186.186,0,0,0-.09-.026h-.231Z" transform="translate(-668.432 -52.025)" fill="#080808"/>
        </g>
      </g>
    </g>
  </g>
</svg>
