<svg xmlns="http://www.w3.org/2000/svg" width="71.016" height="68.552" viewBox="0 0 71.016 68.552">
  <g id="Group_477" data-name="Group 477" transform="translate(-199 -718.73)">
    <circle id="Ellipse_20" data-name="Ellipse 20" cx="22.5" cy="22.5" r="22.5" transform="translate(199 724)" fill="#ffd000"/>
    <g id="prototyping" transform="translate(191 1220.489)">
      <path id="Path_983" data-name="Path 983" d="M54.356-501.6a6.712,6.712,0,0,0-4.105,3.545l-.518,1.093-.042,9.472L49.648-478l-1.289.056a4.734,4.734,0,0,0-2.242.49,6.372,6.372,0,0,0-2.942,2.942l-.448.953-.07,7.006c-.056,5.282-.126,7.1-.252,7.426a3.446,3.446,0,0,1-2.158,1.962l-.378.1-.042-9.43-.042-9.444-.518-1.093a6.506,6.506,0,0,0-3.153-3.153l-1.093-.518H15.264l-1.093.518a6.506,6.506,0,0,0-3.153,3.153l-.518,1.093v37.971l.518,1.093a6.506,6.506,0,0,0,3.153,3.153l1.093.518H35.02l1.093-.518a6.506,6.506,0,0,0,3.153-3.153l.518-1.093.042-8.071.042-8.085.659-.084a6.255,6.255,0,0,0,4.414-3.4l.448-.953.07-7.006c.07-6.978.07-7.006.392-7.664a3.03,3.03,0,0,1,2.956-1.793h.841l.042,8.015.042,8.029.518,1.093a6.506,6.506,0,0,0,3.153,3.153l1.093.518H74.252l1.093-.518a6.506,6.506,0,0,0,3.153-3.153l.518-1.093v-37.971l-.518-1.093a6.506,6.506,0,0,0-3.153-3.153l-1.093-.518-9.668-.028C57.032-501.778,54.79-501.736,54.356-501.6Zm19.56,2.97a4.437,4.437,0,0,1,1.962,1.934,4.47,4.47,0,0,1,.266,1.934v1.373H52.422l.084-1.331a8.137,8.137,0,0,1,.308-1.849,3.74,3.74,0,0,1,2.83-2.284c.378-.056,4.484-.1,9.149-.1C73.117-498.92,73.285-498.92,73.916-498.626Zm2.228,20.653v12.61H52.464v-9.668H62.721l-.238.364a1.611,1.611,0,0,0,.378,2.144,1.926,1.926,0,0,0,1.765-.1c.21-.154,1.023-.939,1.821-1.751,1.415-1.471,1.429-1.485,1.429-2.158v-.687L66.083-479c-1.723-1.709-1.821-1.779-2.382-1.779a1.473,1.473,0,0,0-1.163,2.4l.308.406H52.464v-12.61H76.144Zm-41.46.364a4.438,4.438,0,0,1,1.962,1.934,4.47,4.47,0,0,1,.266,1.934v1.373H13.19l.084-1.331a8.136,8.136,0,0,1,.308-1.849,3.74,3.74,0,0,1,2.83-2.284c.378-.056,4.484-.1,9.149-.1C33.885-477.9,34.053-477.9,34.684-477.609Zm2.228,14.348v6.305H29.976l-.238-.673a5.993,5.993,0,0,0-3.6-3.349,6.784,6.784,0,0,0-4.161.308,6.337,6.337,0,0,0-2.662,2.662,4.143,4.143,0,0,0-.406,2.452,4.143,4.143,0,0,0,.406,2.452,6.214,6.214,0,0,0,2.676,2.662,6.851,6.851,0,0,0,4.147.308,5.976,5.976,0,0,0,3.6-3.363l.238-.659h6.936v9.808H13.232v-25.221H36.912Zm39.2,2.13c-.056,1.625-.238,2.158-1.051,2.956-1.051,1.065-.462,1.009-10.551,1.051-10.13.042-9.71.084-10.789-.981a4.027,4.027,0,0,1-1.219-3.111l-.084-1.345H76.172Zm-50.4,3.195a2.736,2.736,0,0,1,1.037,3.727,2.671,2.671,0,0,1-4.974-1.331,2.542,2.542,0,0,1,2.634-2.676A2.97,2.97,0,0,1,25.716-457.937Zm11.167,17.823c-.056,1.625-.238,2.158-1.051,2.956-1.051,1.065-.462,1.009-10.551,1.051-10.13.042-9.71.084-10.789-.981a4.027,4.027,0,0,1-1.219-3.111l-.084-1.345H36.94Z" transform="translate(0 0)"/>
      <path id="Path_984" data-name="Path 984" d="M160.925-461.734A1.969,1.969,0,0,0,160-459.9a1.917,1.917,0,0,0,2.1,2.1,1.917,1.917,0,0,0,2.1-2.1,1.917,1.917,0,0,0-2.1-2.1A2.122,2.122,0,0,0,160.925-461.734Z" transform="translate(-128.553 -34.188)"/>
      <path id="Path_985" data-name="Path 985" d="M40.364-451.636A1.188,1.188,0,0,0,40-450.6a1.246,1.246,0,0,0,1.4,1.4,1.246,1.246,0,0,0,1.4-1.4,1.246,1.246,0,0,0-1.4-1.4A1.188,1.188,0,0,0,40.364-451.636Z" transform="translate(-25.367 -42.787)"/>
      <path id="Path_986" data-name="Path 986" d="M240.364-411.636A1.188,1.188,0,0,0,240-410.6a1.188,1.188,0,0,0,.364,1.037,1.188,1.188,0,0,0,1.037.364,1.188,1.188,0,0,0,1.037-.364,1.188,1.188,0,0,0,.364-1.037,1.188,1.188,0,0,0-.364-1.037A1.188,1.188,0,0,0,241.4-412,1.188,1.188,0,0,0,240.364-411.636Z" transform="translate(-197.344 -77.182)"/>
      <path id="Path_987" data-name="Path 987" d="M260.364-121.786a1.188,1.188,0,0,0-.364,1.037,1.188,1.188,0,0,0,.364,1.037,1.188,1.188,0,0,0,1.037.364,1.246,1.246,0,0,0,1.4-1.4,1.188,1.188,0,0,0-.364-1.037A1.577,1.577,0,0,0,260.364-121.786Z" transform="translate(-214.541 -326.398)"/>
      <path id="Path_988" data-name="Path 988" d="M450.925-121.734A1.969,1.969,0,0,0,450-119.9a1.917,1.917,0,0,0,2.1,2.1,1.917,1.917,0,0,0,2.1-2.1,1.917,1.917,0,0,0-2.1-2.1A2.123,2.123,0,0,0,450.925-121.734Z" transform="translate(-377.92 -326.549)"/>
      <path id="Path_989" data-name="Path 989" d="M370.364-41.636A1.188,1.188,0,0,0,370-40.6a1.246,1.246,0,0,0,1.4,1.4,1.246,1.246,0,0,0,1.4-1.4,1.246,1.246,0,0,0-1.4-1.4A1.188,1.188,0,0,0,370.364-41.636Z" transform="translate(-309.129 -395.34)"/>
    </g>
  </g>
</svg>
