<svg xmlns="http://www.w3.org/2000/svg" width="68.564" height="68.552" viewBox="0 0 68.564 68.552">
  <g id="Group_481" data-name="Group 481" transform="translate(-1185.718 -597)">
    <circle id="Ellipse_42" data-name="Ellipse 42" cx="22.5" cy="22.5" r="22.5" transform="translate(1187 600)" fill="#ffd000"/>
    <g id="memory" transform="translate(1185.681 1108.876)">
      <path id="Path_996" data-name="Path 996" d="M27.969-511.678a17.18,17.18,0,0,0-8.585,4.353l-.817.79H16.96a16.478,16.478,0,0,0-11.718,4.781A16.856,16.856,0,0,0,.233-492.38a23.174,23.174,0,0,0,0,6.013A18.411,18.411,0,0,0,2.938-479.7a23.215,23.215,0,0,0,4.553,4.54,18.1,18.1,0,0,0,6.736,2.719,21.263,21.263,0,0,0,7.152-.268l1.326-.348,1.152.777a12.232,12.232,0,0,0,4.728,1.955l1.446.281v1.339c0,2.263.335,2.92,1.875,3.75a3.951,3.951,0,0,1,2.129,2.625,2.928,2.928,0,0,1,.013,2.4,3.342,3.342,0,0,0,.027,2.665,12.906,12.906,0,0,0,3.254,3.295,3.273,3.273,0,0,0,2.585.08,3.059,3.059,0,0,1,2.678.107,3.628,3.628,0,0,1,2.37,2.009c.817,1.634,1.634,2.022,4.245,2.022a12.74,12.74,0,0,0,2.17-.147,3.066,3.066,0,0,0,1.942-1.714A3.586,3.586,0,0,1,55.4-453.5a3.37,3.37,0,0,1,2.946-.281,3.476,3.476,0,0,0,2.745-.013,13.127,13.127,0,0,0,3.295-3.254,3.068,3.068,0,0,0,.08-2.478,3.128,3.128,0,0,1,.054-2.612,3.807,3.807,0,0,1,2-2.478c1.687-.83,2.089-1.687,2.089-4.419s-.4-3.589-2.076-4.419a4.1,4.1,0,0,1-1.071-.71c-.161-.228-.134-.335.335-1.018a17.982,17.982,0,0,0,2.625-6.669,20.888,20.888,0,0,0-.254-7.031,17.484,17.484,0,0,0-3.415-6.79,20.319,20.319,0,0,0-3.268-3.067c-.348-.2-.375-.281-.375-1.045a11.07,11.07,0,0,0-2.451-6.174,10.5,10.5,0,0,0-8.263-3.79,10.579,10.579,0,0,0-6.562,2.156l-.683.536-.75-.683a17.377,17.377,0,0,0-8.3-3.951A24.63,24.63,0,0,0,27.969-511.678Zm6.763,2.451A16.709,16.709,0,0,1,41-505.906l.576.509-.482.884a4.166,4.166,0,0,0-.482,1.152,1.317,1.317,0,0,0,1.607,1.045,4.177,4.177,0,0,0,.951-1.152,8.451,8.451,0,0,1,12.5-2.183,8.537,8.537,0,0,1,2.491,10.031c-.348.817-.335,1.3.04,1.634.911.83,1.768.335,2.317-1.366a3.555,3.555,0,0,1,.321-.777c.147-.161,1.634,1.259,2.464,2.37a15.222,15.222,0,0,1,2.638,5.437,17.828,17.828,0,0,1,.147,6.428,14.95,14.95,0,0,1-9.589,11.2,14.932,14.932,0,0,1-15.12-3.053l-.643-.576.429-.522a8.441,8.441,0,0,0,1.728-3.161.993.993,0,0,0-1.045-1.138c-.656,0-.9.2-1.326,1.058a11.924,11.924,0,0,1-2.625,3.294,13.628,13.628,0,0,1-4.513,2.21,12.109,12.109,0,0,1-4.553,0,11.893,11.893,0,0,1-3.482-1.513,3.409,3.409,0,0,1,.911-.67c1.326-.79,1.768-1.232,1.768-1.808a1.2,1.2,0,0,0-1.1-1.165,3.656,3.656,0,0,0-1.406.683,15.022,15.022,0,0,1-12.147,2.076A15.085,15.085,0,0,1,2.751-485.59a10.572,10.572,0,0,1-.375-3.736,11.3,11.3,0,0,1,.321-3.616A15.156,15.156,0,0,1,13.358-503.8c1.232-.335,3.281-.576,3.281-.388a3.524,3.524,0,0,1-.4.75,5,5,0,0,0-.469.964,1.127,1.127,0,0,0,1.46,1.3c.348-.107.589-.375,1.125-1.245a15.036,15.036,0,0,1,9.093-6.777,10.8,10.8,0,0,1,4.058-.348A11.571,11.571,0,0,1,34.732-509.228Zm6.04,38.048a3.165,3.165,0,0,1-.013,1.112,8.521,8.521,0,0,0,4.527,8.651,7.739,7.739,0,0,0,4.031.951,7.787,7.787,0,0,0,4.085-.978,8,8,0,0,0,3.589-3.723,7.474,7.474,0,0,0,.9-3.12c0-.4.054-.455.964-.9a18.565,18.565,0,0,0,4.071-2.705l.817-.75.308.321a5.831,5.831,0,0,0,1.152.763c1.031.536,1.125.737,1.125,2.518s-.094,1.982-1.138,2.518a5.448,5.448,0,0,0-2.478,2.745,5.868,5.868,0,0,0-.536,4.661c.268.777.268.83.054,1.179a9.72,9.72,0,0,1-2.25,2.1,3.115,3.115,0,0,1-1.125-.2,6.076,6.076,0,0,0-4.781.589,5.176,5.176,0,0,0-2.612,2.4c-.281.549-.536.884-.723.937a16.33,16.33,0,0,1-3.134,0c-.214-.067-.429-.335-.683-.911a5.5,5.5,0,0,0-2.866-2.625,5.642,5.642,0,0,0-4.58-.522c-.857.254-.911.254-1.245.04a10.294,10.294,0,0,1-2.1-2.21,2.553,2.553,0,0,1,.187-1.058,6.214,6.214,0,0,0-.616-4.928,5.134,5.134,0,0,0-2.357-2.5,2.532,2.532,0,0,1-.9-.616,5.014,5.014,0,0,1-.134-1.433v-1.205l.643-.08a14.2,14.2,0,0,0,5.451-2.129l.67-.469.8.75C40.316-471.595,40.718-471.233,40.772-471.18Zm4.553,2.545a18.84,18.84,0,0,0,9.843.723l.442-.08-.214.71a6.133,6.133,0,0,1-1.58,2.638,5.9,5.9,0,0,1-4.567,1.915,5.915,5.915,0,0,1-4.513-2,5.968,5.968,0,0,1-1.728-4.687l.013-.295.79.4C44.254-469.091,44.923-468.783,45.325-468.635Z" transform="translate(0 0)"/>
      <path id="Path_997" data-name="Path 997" d="M208.268-423.732a1.1,1.1,0,0,0-.268.8c0,.8.335,1.071,1.339,1.071h.8V-415c0,7.66-.013,7.446.951,8.37.911.857.777.844,8,.844h6.549l2.732-2.156c1.5-1.179,2.839-2.277,2.973-2.424.214-.254.228-.737.228-5.879v-5.611h.8c1,0,1.339-.268,1.339-1.071a1.1,1.1,0,0,0-.268-.8C233.178-424,233-424,220.857-424S208.536-424,208.268-423.732Zm6.16,3.75c0,1.7.027,1.9.268,2.143s.442.268,5.625.268,5.37-.013,5.625-.268.268-.442.268-2.143v-1.875h3.08v5.116l-.013,5.129-1.5,1.179-1.5,1.192-.067-2.37c-.067-2.143-.094-2.384-.321-2.558-.214-.147-1.205-.187-5.6-.187-5.156,0-5.344.013-5.6.268s-.268.442-.268,3.214v2.946h-.455a3.393,3.393,0,0,1-.884-.147c-.79-.281-.8-.348-.8-7.419v-6.361h2.143Zm9.509-.8v1.071h-7.232v-2.143h7.232Zm0,10.714v2.143h-7.232v-4.286h7.232Z" transform="translate(-180.112 -76.107)"/>
      <path id="Path_998" data-name="Path 998" d="M95.5-391.845c-.348.268-.5.857-.5,1.955a6.342,6.342,0,0,0,4.46,6.2l.87.281.161.991a6.348,6.348,0,0,0,6.107,5.411c1.058,0,1.393-.254,1.393-1.071,0-.737-.321-1.031-1.3-1.138a4.353,4.353,0,0,1-3.951-3.683l-.04-.562.763-.241a5,5,0,0,0,2.183-1.232,1.128,1.128,0,0,0-.067-1.353c-.455-.576-.844-.562-2.062.04a3.691,3.691,0,0,1-1.9.562,3.993,3.993,0,0,1-2.5-.71,4.186,4.186,0,0,1-1.835-3.67c.027-1.366.027-1.379-.268-1.674A1.466,1.466,0,0,0,95.5-391.845Z" transform="translate(-82.245 -103.816)"/>
      <path id="Path_999" data-name="Path 999" d="M378.642-335.789c-.214.161-.268.415-.335,1.714-.08,1.728-.295,2.29-1.205,3.2a4.012,4.012,0,0,1-2.96,1.219,3.271,3.271,0,0,1-2.022-.549,5.307,5.307,0,0,0-1.326-.549,1.285,1.285,0,0,0-.656.388,1.088,1.088,0,0,0-.254,1.339,5.145,5.145,0,0,0,2.25,1.353l.763.241-.027.549a4.273,4.273,0,0,1-2.25,3.214,6.825,6.825,0,0,1-1.54.442c-1.1.161-1.379.4-1.379,1.179,0,.817.308,1.071,1.3,1.071a6.332,6.332,0,0,0,6.134-5.4l.161-1.018.884-.281a6.246,6.246,0,0,0,2.705-1.714,5.837,5.837,0,0,0,1.687-4.741c-.04-1.219-.067-1.366-.362-1.594A1.533,1.533,0,0,0,378.642-335.789Z" transform="translate(-318.424 -152.345)"/>
      <path id="Path_1000" data-name="Path 1000" d="M93.866-191.645a8.335,8.335,0,0,0-3.549,1.969A6.618,6.618,0,0,0,88-184.494a10.677,10.677,0,0,0,.147,1.875,7.852,7.852,0,0,0,4.152,4.942,7.486,7.486,0,0,0,3.736.817,7.486,7.486,0,0,0,3.736-.817,7.852,7.852,0,0,0,4.152-4.942,10.678,10.678,0,0,0,.147-1.875,6.639,6.639,0,0,0-2.357-5.223,8.482,8.482,0,0,0-3.562-1.942A12.446,12.446,0,0,0,93.866-191.645Zm4.058,2.33a5.82,5.82,0,0,1,3.482,2.946,3.439,3.439,0,0,1,.321,2.009,3.914,3.914,0,0,1-1.1,3.187,6.214,6.214,0,0,1-9.187,0,3.914,3.914,0,0,1-1.1-3.187,3.433,3.433,0,0,1,.375-2.116,5.784,5.784,0,0,1,3.415-2.853A7.139,7.139,0,0,1,97.924-189.315Z" transform="translate(-76.182 -277.178)"/>
      <path id="Path_1001" data-name="Path 1001" d="M20.923-87.592a6.926,6.926,0,0,0-3.87,2.6,5.12,5.12,0,0,0-.924,3.536,4.864,4.864,0,0,0,1.768,3.79A6.017,6.017,0,0,0,22.53-75.9a6.017,6.017,0,0,0,4.634-1.768,4.864,4.864,0,0,0,1.768-3.79,5.12,5.12,0,0,0-.924-3.536,6.873,6.873,0,0,0-2.933-2.3,5.911,5.911,0,0,0-2.277-.335A16.164,16.164,0,0,0,20.923-87.592Zm2.612,2.25a3.623,3.623,0,0,1,2.826,4.969c-1.353,2.92-6.187,2.946-7.634.027a3.437,3.437,0,0,1,1.9-4.687,5.152,5.152,0,0,1,2.1-.429C22.878-85.45,23.24-85.383,23.534-85.342Z" transform="translate(-13.926 -367.423)"/>
    </g>
  </g>
</svg>
