<svg xmlns="http://www.w3.org/2000/svg" width="69.903" height="69.968" viewBox="0 0 69.903 69.968">
  <g id="Group_251" data-name="Group 251" transform="translate(-7898.87 -1500.584)">
    <circle id="Ellipse_24" data-name="Ellipse 24" cx="22.5" cy="22.5" r="22.5" transform="translate(7898.87 1500.585)" fill="#ffd000"/>
    <g id="user-experience" transform="translate(7897.87 2012.252)">
      <path id="Path_577" data-name="Path 577" d="M16.525-511.631c-4.5.465-7.824,1.86-10.464,4.391A13.655,13.655,0,0,0,3-503.164c-2.654,5.321-2.64,12.2.041,20.093l.424,1.217-.7.752a6.379,6.379,0,0,0,0,8.809l.7.752-.424,1.217c-3.064,9.028-2.613,17.016,1.245,22.2a15.64,15.64,0,0,0,10.04,6.059,30.812,30.812,0,0,0,8.412.055A45.41,45.41,0,0,0,33.869-445.4l2.161-.971,1.19.561c8.59,3.98,16.359,5.1,22.555,3.228a15.1,15.1,0,0,0,4.131-1.915,15.7,15.7,0,0,0,6.675-10.218,42.1,42.1,0,0,0,0-9.465,47.135,47.135,0,0,0-3.72-11.38l-.52-1.135.7-1.532a43.586,43.586,0,0,0,3.638-11.75,37.36,37.36,0,0,0,0-8.207,16.073,16.073,0,0,0-4.582-8.946,16.025,16.025,0,0,0-8.672-4.254,31.041,31.041,0,0,0-8.125,0,44.494,44.494,0,0,0-11.613,3.6L36-507.021l-1.532-.7a43.2,43.2,0,0,0-11.763-3.652A41.3,41.3,0,0,0,16.525-511.631Zm5.02,2.175a39.874,39.874,0,0,1,11.394,3.269l.807.369-1.491.889A73.87,73.87,0,0,0,9.412-483.016a7.6,7.6,0,0,1-.93-.1,7.892,7.892,0,0,0-2.859.192c-.369.1-.369.082-.916-1.614-2.175-6.8-2.2-12.817-.1-17.276a11.473,11.473,0,0,1,2.23-3.351C10.11-508.676,15.266-510.195,21.545-509.456Zm35.782.137c8.617,1.669,12.858,8.85,11.312,19.15a42.282,42.282,0,0,1-1.436,5.95,53.388,53.388,0,0,1-2.038,5.1c-.055.055-.4-.4-.766-1.026a72.26,72.26,0,0,0-5.95-8.535l-.547-.7.533-1.012a6.371,6.371,0,0,0,.15-5.813c-.6-1.231-.657-1.258-1.518-.588-.41.315-.752.588-.766.588a6.5,6.5,0,0,0,.41.889,4.472,4.472,0,0,1,.191,3.392,5.138,5.138,0,0,1-2.2,2.476,3.262,3.262,0,0,1-2,.369,3.167,3.167,0,0,1-2.024-.4,5.014,5.014,0,0,1-1.97-2.024,3.348,3.348,0,0,1-.315-1.888,3.685,3.685,0,0,1,.315-1.942,5.021,5.021,0,0,1,2.216-2.147,4.626,4.626,0,0,1,3.447-.055l.643.287.492-.889a4.121,4.121,0,0,0,.451-.93,7.775,7.775,0,0,0-2.189-.752,6.538,6.538,0,0,0-4.473.889l-.588.356-.7-.561a74.876,74.876,0,0,0-7.988-5.622c-.889-.533-1.641-1-1.669-1.012a20.09,20.09,0,0,1,3.406-1.5,41.533,41.533,0,0,1,9.1-2.257A32.593,32.593,0,0,1,57.327-509.319ZM37.795-503.7a73.59,73.59,0,0,1,9.1,6.319l.383.3-.465,1a4.661,4.661,0,0,0-.506,2.257,6.03,6.03,0,0,0,.93,3.83,6.587,6.587,0,0,0,3.748,2.831,7.064,7.064,0,0,0,4.186-.26c.492-.205.985-.4,1.094-.438.219-.055.616.424,2.517,2.954,2,2.681,5.143,7.7,5.143,8.221a39.4,39.4,0,0,1-3.228,5.458,66.894,66.894,0,0,1-8.426,10.259l-1.888,1.9-.7-.479a6.663,6.663,0,0,0-6.62-.246c-1.012.588-.985.506-.4,1.245.287.356.561.711.629.78s.41-.041.821-.274a3.167,3.167,0,0,1,2.024-.4,3.262,3.262,0,0,1,2,.369,5.034,5.034,0,0,1,2.189,2.476,4.735,4.735,0,0,1-.123,3.283,4.118,4.118,0,0,1-2.12,2.175,4.366,4.366,0,0,1-5.143-.916,4.176,4.176,0,0,1-1.176-3.119,3.566,3.566,0,0,1,.287-1.6c.15-.328.219-.629.164-.657a9.26,9.26,0,0,1-.862-.506c-.889-.547-.916-.533-1.368.834a6.944,6.944,0,0,0,0,4.021,3.752,3.752,0,0,1,.246.889A32.867,32.867,0,0,1,36-448.793c-.506,0-5.718-3.255-8.248-5.157A74.963,74.963,0,0,1,15.5-465.617c-1.067-1.272-3.064-3.912-3.748-4.938l-.506-.78.739-.7a6.544,6.544,0,0,0,2.011-4.5c0-.807.027-.793-1.313-.629l-.7.082-.082.821a4.433,4.433,0,0,1-6.825,3.269,4.943,4.943,0,0,1-1.71-2.065,5.37,5.37,0,0,1,.082-3.433,4.488,4.488,0,0,1,2.134-2.189,4.336,4.336,0,0,1,3.748-.055,5.029,5.029,0,0,1,2.038,1.792c.137.246.178.246,1.053-.191l.889-.438-.219-.438a8.907,8.907,0,0,0-1.026-1.286l-.807-.834.67-.957a72.966,72.966,0,0,1,15.539-16.14c2.8-2.106,7.988-5.376,8.549-5.376A11.3,11.3,0,0,1,37.795-503.7ZM65.89-472.7a41.772,41.772,0,0,1,2.695,9.069,27.078,27.078,0,0,1,0,8.412c-.985,4.6-3.42,7.92-7.195,9.807a19.7,19.7,0,0,1-4.445,1.423,32.491,32.491,0,0,1-7.455-.068,44.982,44.982,0,0,1-10.245-3.091c-1.081-.492-1.176-.328.9-1.559l1.327-.793.725.547a6.392,6.392,0,0,0,6.743.711,6.51,6.51,0,0,0,3.146-8.481l-.342-.752,2.134-2.189A68.574,68.574,0,0,0,62.47-470.2c.862-1.286,1.792-2.736,2.079-3.242s.561-.875.616-.821A15.27,15.27,0,0,1,65.89-472.7Zm-59.1,2.435a7.063,7.063,0,0,0,1.7-.014,7.6,7.6,0,0,1,.93-.1c.588.944,2.189,3.16,3.119,4.35a73.177,73.177,0,0,0,19.71,17.549l1.491.9-.807.356c-5.635,2.531-11.736,3.8-16.222,3.379a16.118,16.118,0,0,1-7.455-2.38c-6.155-4.021-7.824-12.351-4.541-22.638.547-1.7.547-1.71.916-1.614A11.256,11.256,0,0,0,6.786-470.268Z" transform="translate(0 0)"/>
      <path id="Path_578" data-name="Path 578" d="M372-385.06v1.026h2.065l-.041-1-.041-.985-.985-.041-1-.041Z" transform="translate(-320.254 -108.392)"/>
      <path id="Path_579" data-name="Path 579" d="M149.32-404.641a7.3,7.3,0,0,0-5.376,4.9c-.274.875-.3,1.258-.3,3.707,0,2.613.014,2.777.369,3.72a8.22,8.22,0,0,0,2.161,3.187l.547.438v2.777l-3.83,1.081c-4.227,1.176-4.787,1.45-5.745,2.708-.93,1.231-1,1.587-1.067,5.129l-.055,3.187H134v2.052h12.447V-373.8l-1.258-.041-1.272-.041-.041-1.409-.041-1.4H141.8v2.886l-1.806-.041-1.819-.041v-2.941c0-2.886.014-2.968.342-3.625.574-1.122,1.094-1.368,5.211-2.517l3.638-1,.629.479a4.74,4.74,0,0,0,5.718-.041l.561-.451,2.052.574a8.674,8.674,0,0,0,2.161.465,5.681,5.681,0,0,0,.465-1.806c-.041-.041-.971-.328-2.079-.643l-2.011-.561-.041-1.272-.041-1.258.93-.916a7.661,7.661,0,0,0,2.038-3.365,22.436,22.436,0,0,0,.068-6.5,7.253,7.253,0,0,0-5.553-5.4A5.791,5.791,0,0,0,149.32-404.641Zm2.489,1.983a4.888,4.888,0,0,1,3.228,2.175,4.214,4.214,0,0,1,.821,2.913l-.041.93-1.026-1.368-1.012-1.381h-3.871c-2.134,0-3.871-.027-3.871-.068a3.443,3.443,0,0,1,.287-.629,5.52,5.52,0,0,1,3.461-2.585A4.222,4.222,0,0,1,151.809-402.658Zm2.435,7.318c.821,1.094,1.5,2.038,1.5,2.106a5.121,5.121,0,0,1-1.231,2.106,4.653,4.653,0,0,1-3.365,1.559,4.872,4.872,0,0,1-4.4-1.97,5.623,5.623,0,0,1-1.081-3.707,12.889,12.889,0,0,1,0-1.874c.082-.191.506-.219,3.57-.219h3.488Zm-1.5,8.9v1.122l-.588.356a2.75,2.75,0,0,1-3.132-.315c-.191-.164-.246-.424-.246-1.245v-1.04h3.967Z" transform="translate(-114.808 -92.217)"/>
      <path id="Path_580" data-name="Path 580" d="M41.138-263.809a4.394,4.394,0,0,0-.027,1.053l.041.875,1,.041.985.041V-264h-.957C41.493-264,41.192-263.945,41.138-263.809Z" transform="translate(-34.612 -213.791)"/>
      <path id="Path_581" data-name="Path 581" d="M252.516-253.3a12.643,12.643,0,0,0-.479,1.682c0,.082.26.219.588.315a3.152,3.152,0,0,1,1.956,1.559l.4.711v5.882l-1.806.041-1.819.041v-2.886h-2.038l-.041,1.4-.041,1.409-4.61.041-4.623.027v2.052h19.15v-2.052H257.1v-2.64c0-3.693-.233-4.692-1.409-6.059C254.937-252.625,252.666-253.719,252.516-253.3Z" transform="translate(-206.309 -222.95)"/>
      <path id="Path_582" data-name="Path 582" d="M276.537-236.1a2.026,2.026,0,0,0-.123,1,7.442,7.442,0,0,0,1.217.41c.6.164,1.19.328,1.313.369.164.041.274-.137.438-.766a8.269,8.269,0,0,0,.233-1c0-.123-.451-.328-1.272-.561-.7-.192-1.34-.356-1.409-.356S276.674-236.59,276.537-236.1Z" transform="translate(-237.717 -237.098)"/>
      <path id="Path_583" data-name="Path 583" d="M311.566-226.22c-.123.438-.26.862-.287.957s.3.274.916.451a4.858,4.858,0,0,0,1.026.246,11.971,11.971,0,0,0,.479-1.778,3.636,3.636,0,0,0-1.778-.657C311.854-227,311.689-226.644,311.566-226.22Z" transform="translate(-267.835 -245.73)"/>
      <path id="Path_584" data-name="Path 584" d="M324-96.974v1.04l1-.041.985-.041.041-1,.041-.985H324Z" transform="translate(-278.819 -357.085)"/>
    </g>
  </g>
</svg>
