<svg xmlns="http://www.w3.org/2000/svg" width="69.95" height="69.968" viewBox="0 0 69.95 69.968">
  <g id="Group_252" data-name="Group 252" transform="translate(-7773 -1610.585)">
    <circle id="Ellipse_23" data-name="Ellipse 23" cx="22.5" cy="22.5" r="22.5" transform="translate(7785.475 1610.585)" fill="#ffd000"/>
    <g id="rocket-_2_" transform="translate(7772.893 2122.447)">
      <path id="Path_572" data-name="Path 572" d="M98.427-511.786c-2.3.506-5.689,1.422-7.576,2.024a71.438,71.438,0,0,0-26.639,15.713l-1.272,1.2-6.318.328c-3.487.178-6.55.356-6.81.4-.41.082-1.463,1.067-7.3,6.879-4.089,4.089-6.892,6.974-7.015,7.262a1.328,1.328,0,0,0,.328,1.573c.465.465.533.465,9.067-.123,3.8-.26,6.92-.479,6.933-.479s-.274.656-.643,1.463c-.944,2.147-1.149,2.79-1.039,3.255.068.287,1.6,1.915,5.115,5.443,2.762,2.776,5.183,5.128,5.388,5.238a1.918,1.918,0,0,0,.766.191,26.875,26.875,0,0,0,4.116-1.627c.246-.137.287-.123.287.082,0,.137-.219,3.378-.479,7.221s-.479,7.262-.479,7.617A1.4,1.4,0,0,0,66.81-446.7c.52-.219,13.976-13.689,14.1-14.1.041-.15.191-2.762.342-5.812s.315-6.044.369-6.646l.082-1.121,1.244-1.34A70.3,70.3,0,0,0,93.859-491.3a67.731,67.731,0,0,0,5.88-15.494c.848-3.405.9-3.788.547-4.376A1.545,1.545,0,0,0,98.427-511.786Zm-1.3,3.419c0,.315-1.19,4.458-1.723,6.044-4.089,12.1-11.159,22.578-20.048,29.7a56.647,56.647,0,0,1-12.376,7.48l-1.244.533L57.5-468.859l-4.239-4.253.711-1.573a56.1,56.1,0,0,1,17.313-21.7A70.725,70.725,0,0,1,94.8-507.929C96.745-508.462,97.128-508.531,97.128-508.367ZM59.9-489.618c-.1.137-.6.78-1.135,1.45A55.838,55.838,0,0,0,54.516-482c-.588.971-1.08,1.805-1.108,1.832-.041.055-12.663.957-12.718.916-.014-.014,2.229-2.284,5.005-5.06l5.019-5.019,4.513-.246c2.475-.137,4.581-.26,4.677-.274C60.054-489.864,60.054-489.823,59.9-489.618Zm18.421,23.344-.219,4.376-5.019,5.019c-2.749,2.762-5.019,5.005-5.046,4.991-.082-.1.834-12.759.93-12.882.055-.082.957-.643,2-1.272a58.6,58.6,0,0,0,6.318-4.417c1.176-.944,1.176-.944,1.217-.574C78.529-470.814,78.447-468.681,78.324-466.274Z" transform="translate(-30.436 0)"/>
      <path id="Path_573" data-name="Path 573" d="M329.945-418.8a6.636,6.636,0,0,0-5.21,4.622,8.586,8.586,0,0,0,0,3.542,6.537,6.537,0,0,0,7.139,4.622,6.461,6.461,0,0,0,4.868-9.245A6.538,6.538,0,0,0,329.945-418.8Zm2.462,3.145a4.071,4.071,0,0,1,1.819,1.805,3.837,3.837,0,0,1,.273,1.436,3.4,3.4,0,0,1-1.805,3.145,3.56,3.56,0,0,1-5.306-2.708A3.613,3.613,0,0,1,332.406-415.658Z" transform="translate(-280.074 -80.265)"/>
      <path id="Path_574" data-name="Path 574" d="M7.368-208.848C.585-202.065.2-201.668.134-201.121c-.068.52-.027.615.41,1.053a1.209,1.209,0,0,0,1.012.479,1.822,1.822,0,0,0,.862-.219c.492-.328,13.361-13.156,13.826-13.785a1.426,1.426,0,0,0,0-1.983A1.119,1.119,0,0,0,15.19-216h-.656Z" transform="translate(0 -255.402)"/>
      <path id="Path_575" data-name="Path 575" d="M15.715-123.48a1.627,1.627,0,0,0-.492.232c-.109.082-3.432,3.391-7.357,7.371L.7-108.67l.082.588a1.431,1.431,0,0,0,2.079,1.149c.15-.1,3.487-3.405,7.426-7.357l7.139-7.18v-.615a1.186,1.186,0,0,0-.356-1,1.273,1.273,0,0,0-.547-.356,1.731,1.731,0,0,1-.356-.055A1.28,1.28,0,0,0,15.715-123.48Z" transform="translate(-0.512 -335.245)"/>
      <path id="Path_576" data-name="Path 576" d="M110.427-120.7c-.219.109-3.569,3.35-7.412,7.221-7,7-7.015,7.029-7.015,7.59a1.418,1.418,0,0,0,2,1.368c.465-.246,14.045-13.839,14.263-14.277a1.44,1.44,0,0,0-.738-1.9C110.961-120.933,110.947-120.933,110.427-120.7Z" transform="translate(-82.779 -337.519)"/>
    </g>
  </g>
</svg>
