<svg xmlns="http://www.w3.org/2000/svg" width="59.568" height="73.552" viewBox="0 0 59.568 73.552">
  <g id="Group_239" data-name="Group 239" transform="translate(-7947 -1071.474)">
    <circle id="Ellipse_20" data-name="Ellipse 20" cx="22.5" cy="22.5" r="22.5" transform="translate(7947 1071.474)" fill="#ffd000"/>
    <g id="creativity" transform="translate(7913.596 1588.774)">
      <path id="Path_559" data-name="Path 559" d="M89.111-511.784c-.388.227-.509.482-.683,1.472A4.488,4.488,0,0,1,87-507.582a4.759,4.759,0,0,1-2.489,1.124,1.768,1.768,0,0,0-1.352.535,1.424,1.424,0,0,0,0,1.191c.147.294.669.509,1.512.6a4.466,4.466,0,0,1,3.787,3.975,1.659,1.659,0,0,0,.428,1.124c.723.723,1.673.228,1.833-.95.348-2.6,1.673-3.854,4.5-4.269a1.021,1.021,0,0,0,.883-1.445,1.458,1.458,0,0,0-1.405-.763,4.644,4.644,0,0,1-3.252-1.981,4.724,4.724,0,0,1-.723-2.222C90.57-511.7,89.86-512.212,89.111-511.784Zm1.352,5.554.923.91-.9.9-.91.9-.87-.883-.87-.9.8-.79a5.18,5.18,0,0,0,.8-.91C89.445-507.207,89.512-507.153,90.463-506.23Z" transform="translate(-42.981 -0.315)"/>
      <path id="Path_560" data-name="Path 560" d="M122.822-511.845c0,.254.04.763.08,1.138l.08.682,2.3.08a24.824,24.824,0,0,1,3.64.348,23.22,23.22,0,0,1,12.674,7.2,22.569,22.569,0,0,1,5.982,15.511,22.583,22.583,0,0,1-5.915,15.538,27.719,27.719,0,0,1-4.644,4.042,18.847,18.847,0,0,0-2.115,1.807,16.814,16.814,0,0,0-2.462,3.654l-.147.442H116.585l-.361-.749a14.039,14.039,0,0,0-4.7-5.393,24.224,24.224,0,0,1-6.357-6.37,22.681,22.681,0,0,1-3.868-11.777l-.094-1.874-1.111-.04-1.1-.04v.87a28.2,28.2,0,0,0,1.325,7.976,25.57,25.57,0,0,0,9.381,12.66,15.434,15.434,0,0,1,4.055,4.055l.375.683h-2.958v2.141h3.854l.214.923c.321,1.432.375,1.352-.856,1.352H113.32v2.141h2.275v1.86c0,2.315.067,2.449,1.365,2.556l.843.067.08.736a6.633,6.633,0,0,0,8.057,5.688,6.8,6.8,0,0,0,3.894-2.65,7.248,7.248,0,0,0,1.151-2.971c0-.79.08-.87.937-.87.682,0,.816-.04,1.057-.348s.281-.535.281-2.208v-1.86h2.275v-2.141h-2.168l.094-.642a11.534,11.534,0,0,1,.214-1.138l.134-.5h3.868V-461.4H136.2a7.233,7.233,0,0,1-1.472-.08,12.808,12.808,0,0,1,1.914-2.61c.388-.375,1.512-1.3,2.5-2.034a25.587,25.587,0,0,0,10.332-16.394,30.009,30.009,0,0,0,.054-8.19,29.891,29.891,0,0,0-1.338-5.045,25.355,25.355,0,0,0-15.912-15.216A25.684,25.684,0,0,0,125-512.22l-2.181-.08Zm8.592,52.648a1.4,1.4,0,0,1-.04.642c-.054.308-.134.79-.187,1.057l-.08.509h-13.37l-.054-.308c-.04-.161-.107-.535-.147-.83s-.12-.669-.161-.843l-.067-.294h7.013C128.188-459.264,131.373-459.237,131.413-459.2Zm-.321,5.514.04,1.111H117.87v-2.275l6.6.027,6.584.04Zm-2.3,3.881a4.581,4.581,0,0,1-2.436,3.386,3.445,3.445,0,0,1-1.927.335,3.426,3.426,0,0,1-1.9-.321,4.6,4.6,0,0,1-2.449-3.4l-.094-.629h8.9Z" transform="translate(-56.818)"/>
      <path id="Path_561" data-name="Path 561" d="M146.855-470.541a6.087,6.087,0,0,0-1.258.5,4.826,4.826,0,0,0-1.686,1.619c-.2.268-.281.294-.6.174a4.566,4.566,0,0,0-2.288.013,5.467,5.467,0,0,0-2.3,1.539,4.663,4.663,0,0,0-.8,3.6l.094.549-.709.4a6.188,6.188,0,0,0-2.315,2.516,5.679,5.679,0,0,0-.214,3.935,4.4,4.4,0,0,1,.254.87c-.027.027-.321.187-.656.388a3.877,3.877,0,0,0-1.686,1.927,4.206,4.206,0,0,0,.4,4.269,5.329,5.329,0,0,0,1.847,1.552c.094.027.054.321-.134.87a5.664,5.664,0,0,0,.468,4.537,6.689,6.689,0,0,0,2.181,2.061c.535.268.562.308.468.709a4.462,4.462,0,0,0,3.145,5.273,4.811,4.811,0,0,0,2.436-.027c.161-.054.348.107.683.575a4.4,4.4,0,0,0,7.869-1.833c.214-1.151.174-31.57-.04-32.627A4.444,4.444,0,0,0,146.855-470.541Zm2.088,2.5a3.434,3.434,0,0,1,.616.629c.281.361.281.442.321,16.381.027,10.987,0,16.167-.107,16.514a2.291,2.291,0,0,1-1.539,1.392,2.256,2.256,0,0,1-2.409-1.138c-.161-.335-.147-.442.281-1.271a3.875,3.875,0,0,0,.455-1.432v-.522h-2.114l-.08.468a2.238,2.238,0,0,1-.442.87,2.2,2.2,0,0,1-3.868-1.807,2.278,2.278,0,0,1,1.82-1.673c.254,0,.268-.08.268-1.138,0-1.017-.027-1.138-.241-1.138a5.064,5.064,0,0,0-2.061.736l-.535.361-.749-.388a3.232,3.232,0,0,1-.027-5.835,3.264,3.264,0,0,1,4.684,2.275l.147.709h2.168l-.08-.749a5.782,5.782,0,0,0-.482-1.593,5.418,5.418,0,0,0-7.428-2.61c-.937.482-1.285.5-1.954.12a2.254,2.254,0,0,1-.857-2.877c.428-.91,1.686-1.445,2.315-1a5.6,5.6,0,0,0,5.367.321,5.822,5.822,0,0,0,3.025-4.229l.094-.763h-2.181l-.08.535a3.768,3.768,0,0,1-1.552,2.315,2.789,2.789,0,0,1-1.539.455,2.284,2.284,0,0,1-1.646-.321,3.232,3.232,0,0,1,.027-5.835l.749-.388.535.361a6.1,6.1,0,0,0,2.141.736c.12,0,.161-.321.161-1.138,0-1.057-.013-1.138-.268-1.138a2.278,2.278,0,0,1-1.82-1.673,2.3,2.3,0,0,1,1.619-2.61,2.27,2.27,0,0,1,2.636,1.552l.161.589h2.088v-.522a3.755,3.755,0,0,0-.455-1.419c-.335-.669-.428-.99-.348-1.191a2.763,2.763,0,0,1,1.2-1.138A2.606,2.606,0,0,1,148.943-468.038Z" transform="translate(-85.642 -36.098)"/>
      <path id="Path_562" data-name="Path 562" d="M300.6-470.458a4.537,4.537,0,0,0-3.506,3.6c-.187.99-.187,31.423,0,32.413a4.389,4.389,0,0,0,7.842,1.86c.428-.6.522-.656.83-.562a7.265,7.265,0,0,0,1.3.094,4.356,4.356,0,0,0,4.175-5.3c-.094-.482-.094-.5.6-.9a6.07,6.07,0,0,0,2.315-2.5,5.88,5.88,0,0,0,.214-4,5.266,5.266,0,0,1-.254-.816c.027-.013.321-.174.656-.375a3.877,3.877,0,0,0,1.686-1.927,4.3,4.3,0,0,0-1.887-5.621c-.228-.107-.428-.228-.455-.241a4.143,4.143,0,0,1,.254-.883,5.875,5.875,0,0,0-.174-3.894,6.369,6.369,0,0,0-2.355-2.556c-.669-.375-.709-.415-.616-.816a4.431,4.431,0,0,0-1.833-4.657,4.6,4.6,0,0,0-3.747-.616c-.12.027-.455-.268-.8-.7A4.553,4.553,0,0,0,300.6-470.458Zm1.7,2.355a2.128,2.128,0,0,1,.9.736l.361.522-.428.8a4.829,4.829,0,0,0-.509,1.472l-.08.669h2.128l.161-.589a2.286,2.286,0,0,1,2.583-1.566,2.036,2.036,0,0,1,1.472,1.191,2.192,2.192,0,0,1-.107,2.155,2.508,2.508,0,0,1-1.459.95c-.308,0-.321.027-.321,1.138,0,.816.04,1.138.174,1.138a5.97,5.97,0,0,0,2.115-.736l.535-.348.629.281a3.153,3.153,0,0,1,1.847,3.894,3.17,3.17,0,0,1-1.767,2.074,2.341,2.341,0,0,1-1.566.294,3.254,3.254,0,0,1-3.091-2.958c-.08-.361-.094-.361-1.151-.361h-1.071v.361a5.569,5.569,0,0,0,1.659,3.573,5.384,5.384,0,0,0,6.357.977c.977-.482,1.338-.482,2.034-.027a2.19,2.19,0,0,1-.736,3.908,2.165,2.165,0,0,1-1.3-.348,5.42,5.42,0,0,0-6.21.816,5.9,5.9,0,0,0-1.807,3.747v.375h1.071c1.178,0,1.044.094,1.271-.99a4.093,4.093,0,0,1,.5-.964,3.28,3.28,0,0,1,5.795.883,3.228,3.228,0,0,1-1.833,4.015l-.629.281-.535-.348a5.012,5.012,0,0,0-2.048-.736c-.214,0-.241.12-.241,1.138,0,1.057.013,1.138.268,1.138a2.088,2.088,0,0,1,1.378.8,2.168,2.168,0,0,1-.736,3.292,2.478,2.478,0,0,1-1.954,0,2.569,2.569,0,0,1-1.178-1.526l-.08-.428h-2.155l.08.683a4.658,4.658,0,0,0,.5,1.405c.468.843.415,1.111-.321,1.767a2.076,2.076,0,0,1-2.73.08c-.883-.683-.83.348-.83-17.17,0-10.947.04-16.033.147-16.3A2.142,2.142,0,0,1,302.3-468.1Z" transform="translate(-228.276 -36.181)"/>
      <path id="Path_563" data-name="Path 563" d="M39.332-428.846a1.9,1.9,0,0,0-.5,1.312,4.686,4.686,0,0,1-1.151,2.543,4.48,4.48,0,0,1-2.7,1.392,5.241,5.241,0,0,0-1.111.281,1.1,1.1,0,0,0-.08,1.74,4.359,4.359,0,0,0,1.218.335,4.063,4.063,0,0,1,2.65,1.365,4.342,4.342,0,0,1,1.178,2.529c0,1.017.763,1.753,1.512,1.472.482-.187.642-.468.763-1.338a4.6,4.6,0,0,1,2.757-3.747,4.017,4.017,0,0,1,1.03-.281c.99,0,1.7-.509,1.7-1.218,0-.642-.375-.923-1.5-1.124a4.443,4.443,0,0,1-3.921-3.654c-.134-1.03-.2-1.231-.468-1.5A1.237,1.237,0,0,0,39.332-428.846Zm1.539,5.527.9.87-.9.91-.883.9-.91-.91-.91-.923.375-.294a8.107,8.107,0,0,0,.883-.843c.294-.321.535-.575.535-.575S40.389-423.8,40.871-423.318Z" transform="translate(0 -72.146)"/>
    </g>
  </g>
</svg>
