<svg xmlns="http://www.w3.org/2000/svg" width="102.123" height="72.776" viewBox="0 0 102.123 72.776">
  <g id="Group_241" data-name="Group 241" transform="translate(-7830.374 -1167.474)">
    <circle id="Ellipse_21" data-name="Ellipse 21" cx="22.5" cy="22.5" r="22.5" transform="translate(7830.374 1167.474)" fill="#ffd000"/>
    <g id="futuristic" transform="translate(7835 1607.698)">
      <path id="Path_564" data-name="Path 564" d="M38.085-432.192v3.789l-1.466.057-1.485.057-.057,3.275c-.038,2.875-.1,3.294-.343,3.294a18.6,18.6,0,0,0-2.3.666c-1.1.362-2.038.666-2.076.666s-.076-3.18-.076-7.046v-7.046H3.047v21.327H5.9l.038-9.2L6-431.525l1.581-.057,1.561-.057v21.727H0v42.464H97.5v-24.184h-4.57v-3.237H97.5V-406.2l-7.617-6.074-7.617-6.094v-15.062l-7.522,7.522-7.522,7.522-.038,4.189-.057,4.189-3.751.057-3.77.038-.038,5.294-.057,5.275-3.751.057-3.77.038v13.52h2.856v-10.664h7.617v-10.664h4.761V-370.3H65.353l-.133-.9a17.748,17.748,0,0,0-.666-2.4,13.929,13.929,0,0,0-8.664-8.264,9.825,9.825,0,0,0-4.094-.514,9.876,9.876,0,0,0-4.094.514,15.606,15.606,0,0,1-1.542.457c0-.019-.419-5.446-.914-12.035-.5-6.608-.952-12.492-1.009-13.1-.114-1.047-.1-1.085.343-1.085a18.091,18.091,0,0,0,5.408-2.095c2.209-1.428,3.18-2.952,3.18-4.97,0-2.913-2.761-5.389-7.465-6.722l-1.619-.457-.057-3.256-.038-3.256H40.941V-436H38.085Zm-10.664,7.217v6.646l-.647,1.066c-1.733,2.875-.59,5.846,3.028,7.922a19.96,19.96,0,0,0,4.856,1.714c.4,0,.4.057.286,1.181-.114,1.162-2.761,35.647-2.761,35.971,0,.1-.419.171-.952.171h-.952v-36.752H27.421V-370.3H24.184v-45.7H21.651c-2.3,0-2.59.038-2.894.381a1.178,1.178,0,0,1-.514.381c-.076,0-.152-2.952-.152-6.57v-6.57H15.234v16.3L14.129-411c-.8.781-1.238,1.085-1.619,1.085H12v-10.721c0-5.9.057-10.8.133-10.854.057-.076,3.542-.133,7.712-.133h7.579Zm51.985,19.728V-384.2h2.856L82.3-399.42l.057-15.215,6.132,4.894,6.132,4.875v3.561l.019,3.58H90.07v8.95h4.57V-370.3H88.356v-36.752H85.5V-370.3H82.263l-.038-5.37-.057-5.389L80.8-381.12l-1.39-.057V-370.3H70.076v-9.331h6.094v-33.324H70.076v-4.285l4.513-4.513c2.495-2.495,4.589-4.532,4.665-4.532C79.349-426.288,79.406-416.824,79.406-405.247ZM41.131-423.718v1.638l-1.561-.057-1.581-.057-.057-1.581-.057-1.561h3.256Zm3.713,5.027a12.452,12.452,0,0,1,4.494,2.228l.419.457h-20.3l.362-.4c.895-1.009,2.875-1.923,5.408-2.476A28.065,28.065,0,0,1,44.845-418.691ZM21.327-408.484v4.665h-9.14v2.856h9.14v3.237h-9.14v2.856h9.14v3.237h-9.14v2.856h9.14v3.237h-9.14v2.856h9.14v3.237h-9.14v2.856h9.14v6.284H2.856v-36.752h11.33l3.047-3.047c2.456-2.456,3.142-3.047,3.561-3.047h.533ZM49.7-413.073a8.832,8.832,0,0,1-1.143.838c-4,2.685-11.844,3.009-16.662.686a11.8,11.8,0,0,1-1.9-1.1l-.571-.476,10.15-.019C45.13-413.149,49.7-413.111,49.7-413.073Zm23.574,4.532-.057,1.581-1.561.057-1.581.057V-410.1h3.256ZM41.4-406.008c.057.628.552,6.8,1.066,13.71l.971,12.568L42.122-378.4a13.979,13.979,0,0,0-3.751,7.2l-.133.9H35l.114-1.181c.057-.666.666-8.531,1.352-17.481.666-8.95,1.276-16.719,1.333-17.233l.114-.952h3.37Zm31.915,3.618v1.619H70.076v-3.237h3.237Zm0,6.094v1.619H70.076v-3.237h3.237Zm0,6.094v1.619H70.076v-3.237h3.237Zm0,6.094v1.619H70.076v-3.237h3.237Zm-19.176,4.761a12.042,12.042,0,0,1,4.608,2.285l.762.647H44.083l.762-.666a14.2,14.2,0,0,1,4.761-2.323A12.1,12.1,0,0,1,54.137-379.349Zm7.884,7.141c.724,2.133,1.942,1.9-10.226,1.9-5.865,0-10.664-.057-10.664-.152a12.517,12.517,0,0,1,.666-2.38l.286-.7,9.769.038,9.75.057Z"/>
      <path id="Path_565" data-name="Path 565" d="M112-394.558v1.542l1.485-.057,1.466-.057v-2.856l-1.466-.057L112-396.1Z" transform="translate(-90.673 -32.302)"/>
      <path id="Path_566" data-name="Path 566" d="M112-361.572v1.447l1.485-.057,1.466-.057.057-1.39.057-1.371H112Z" transform="translate(-90.673 -59.099)"/>
      <path id="Path_567" data-name="Path 567" d="M304-201.572v1.428h3.047V-203H304Z" transform="translate(-246.111 -188.631)"/>
      <path id="Path_568" data-name="Path 568" d="M304-169.572v1.428h3.047V-171H304Z" transform="translate(-246.111 -214.538)"/>
    </g>
  </g>
</svg>
