<svg xmlns="http://www.w3.org/2000/svg" width="99.74" height="69.968" viewBox="0 0 99.74 69.968">
  <g id="Group_254" data-name="Group 254" transform="translate(-7783 -1597.585)">
    <circle id="Ellipse_26" data-name="Ellipse 26" cx="22.5" cy="22.5" r="22.5" transform="translate(7783 1597.585)" fill="#ffd000"/>
    <g id="simplify" transform="translate(7783 2033.204)">
      <path id="Path_585" data-name="Path 585" d="M3.955-435.5a4.914,4.914,0,0,0-3.546,2.923C.019-431.7,0-431.466,0-400.624v31.076l.468.974a4.686,4.686,0,0,0,4.4,2.864,4.788,4.788,0,0,0,4.345-2.669l.429-.779L9.7-397.565l.039-28.387H23.165l.39-.507a1.166,1.166,0,0,0-.058-1.773l-.468-.546-7.287-.058c-3.994-.039-7.462,0-7.715.058a2.122,2.122,0,0,0-.818.487c-.39.39-.39.779-.39,29.264,0,22.639-.058,28.991-.253,29.381a2.41,2.41,0,0,1-.955.838,1.28,1.28,0,0,1-1.383.078c-1.422-.6-1.305,2.241-1.305-31.913,0-30.686,0-30.705.409-31.212a2.452,2.452,0,0,1,1.111-.721c.507-.156,9.917-.195,31.076-.156l30.374.058.565.643.565.623v25.913h-3.9v-11.183c0-10.716-.019-11.2-.37-11.631l-.37-.468H28.6l-.37.468a1.506,1.506,0,0,0,.019,1.968c.39.39.643.39,16.171.39H60.2v20.457h-5.26v-5.319c0-5.942-.117-6.683-1.208-8.008a5.316,5.316,0,0,0-1.6-1.208l-.994-.468h-32.4l-1.033.546a4.7,4.7,0,0,0-2.494,3.156c-.156.682-.214,8.066-.214,23.847,0,25.289-.058,24.042,1.266,25.581a5.683,5.683,0,0,0,1.617,1.266l.916.448H42.473c23.614,0,23.672,0,24.549-.409a5.364,5.364,0,0,0,2.474-2.4c.312-.623.351-1.442.409-8.047l.058-7.326-.526-.409a1.294,1.294,0,0,0-1.929.078l-.487.468v13.853l-.565.623-.565.643-22.834.058c-15.723.02-23.068-.019-23.594-.156a1.789,1.789,0,0,1-1.15-.838c-.37-.6-.39-1.169-.39-23.458,0-13.755.078-23.029.175-23.3a3.1,3.1,0,0,1,.623-.9c.448-.409.468-.409,16.229-.409,14.671,0,15.84.039,16.21.351.818.643.857.974.857,6.449v5.28h-3.9v-3.585c0-3.312-.019-3.6-.409-4.091l-.39-.507H22.62l-.39.507c-.409.526-.409.584-.409,20.068v19.542l.468.546.468.546H26.75c3.643,0,4.033-.039,4.4-.37a1.651,1.651,0,0,0,.058-2.124c-.292-.253-.916-.331-3.351-.37l-3.02-.058-.058-17.691-.039-17.671H45.2v5.241l-5.787.058c-5.533.058-5.845.078-6.6.487a5.8,5.8,0,0,0-2.338,2.513c-.214.526-.273,2.4-.273,9.371,0,8.027.039,8.787.37,9.508a5.87,5.87,0,0,0,2.864,2.611c.487.136,3.8.214,9.235.214h8.475l.994-.468a5.317,5.317,0,0,0,1.6-1.208c1.091-1.325,1.208-2.065,1.208-8.008v-5.319H60.2V-375.3H48.26c-11.339,0-11.982.019-12.274.351a1.7,1.7,0,0,0,.078,2.1c.39.351.9.37,13.365.37H62.385l.37-.468c.351-.429.37-.916.37-11.631v-11.183h3.9v3.117c0,3.059.019,3.137.487,3.6a1.249,1.249,0,0,0,1.948,0c.468-.468.487-.546.487-3.6v-3.117H83.057l-1.968,2.026c-1.715,1.773-2.007,2.143-2.28,3.137a4.79,4.79,0,0,0,6.059,6.04c1.13-.312,1.286-.468,7.54-6.683,6.7-6.683,7.131-7.209,7.306-9,.156-1.734-.37-2.767-2.572-5.027-2.2-2.279-2.786-2.669-3.487-2.4a1.878,1.878,0,0,0-1.111,1.442,11.53,11.53,0,0,0,2.026,2.455c2.065,2.124,2.416,2.708,2.163,3.663-.136.6-11.5,12.158-12.411,12.645a1.662,1.662,0,0,1-2.221-.39c-1.305-1.305-.994-1.89,3.215-6.059,2.4-2.377,2.747-2.806,2.747-3.351a1.187,1.187,0,0,0-.507-1.013c-.526-.409-.526-.409-25.094-.409-24.471,0-24.588,0-25.016.39-.409.39-.429.526-.429,5.163,0,4.52.019,4.793.39,5.163s.643.39,5.144.39h4.773l.39-.507c.39-.487.409-.779.409-4.091v-3.585h3.9v5.28c0,5.475-.039,5.806-.857,6.449-.37.312-1.13.351-8.651.351H34.251l-.565-.565-.565-.565v-16.58l.468-.546.468-.546,26.595-.1c25.8-.1,26.614-.117,27-.468a1.353,1.353,0,0,0,.409-.974c0-.526-.39-.994-2.747-3.332-3.176-3.156-3.877-4.014-3.877-4.832a2.424,2.424,0,0,1,1.851-1.89c.818,0,1.227.292,3.351,2.4,1.637,1.617,2.085,1.948,2.572,1.948a1.3,1.3,0,0,0,1.383-1.4c0-.624-.214-.916-2.28-2.961-1.948-1.909-2.455-2.318-3.351-2.611a4.829,4.829,0,0,0-6.157,6.04c.273.994.565,1.364,2.28,3.137l1.968,2.026H69.945L69.906-418.8c-.058-12.333-.078-13.346-.409-13.989a5.364,5.364,0,0,0-2.474-2.4l-.877-.409-30.686-.019C18.587-435.635,4.4-435.577,3.955-435.5ZM45.2-393.123v2.63h-5.26v-5.26H45.2Z" transform="translate(0)"/>
    </g>
  </g>
</svg>
