<svg xmlns="http://www.w3.org/2000/svg" width="79.037" height="72.776" viewBox="0 0 79.037 72.776">
  <g id="Group_248" data-name="Group 248" transform="translate(-7680 -1170.282)">
    <circle id="Ellipse_25" data-name="Ellipse 25" cx="23.403" cy="23.403" r="23.403" transform="translate(7680 1170.282)" fill="#ffd000"/>
    <g id="rating-_1_" transform="translate(7686.241 1170.282)">
      <path id="Path_569" data-name="Path 569" d="M41.991-503.647a13.192,13.192,0,0,0-9.643,8.043,15.07,15.07,0,0,0-.866,5.386c0,1.658-.015,1.747-.294,1.747a4.062,4.062,0,0,0-2.73,2.1,3.894,3.894,0,0,0,.734,4.726,4.13,4.13,0,0,0,3.376,1.247h1.042l.587,1.057a13.551,13.551,0,0,0,1.864,2.392l1.292,1.321v2.275H35.71a16.283,16.283,0,0,0-2.671.22,9.533,9.533,0,0,0-6.37,4.917c-.983,1.952-1.057,2.539-1.057,8.468v5.181H24.8c-.675,0-.881.059-1.174.367-.367.352-.367.352-.367,3.522v3.155H8.719l-.352.367L8-446.8v15l.367.352.352.367H80.077l.352-.367.367-.352v-15l-.367-.352-.352-.367H65.533v-3.155c0-3.17,0-3.17-.367-3.522-.294-.308-.5-.367-1.159-.367H63.2l-.044-5.607c-.059-5.313-.073-5.68-.382-6.575a9.839,9.839,0,0,0-4.726-5.548,9.854,9.854,0,0,0-4.946-1.057H51.443v-2.275l1.292-1.321a13.515,13.515,0,0,0,1.864-2.378l.587-1.042,1.321-.059a4,4,0,0,0,3.86-2.246,4.265,4.265,0,0,0,0-3.684,4.152,4.152,0,0,0-2.759-2.113c-.279,0-.294-.088-.294-1.747a14.859,14.859,0,0,0-.9-5.43A12.959,12.959,0,0,0,41.991-503.647Zm5.562,2.612a9.907,9.907,0,0,1,4.256,2.656,9.961,9.961,0,0,1,2.656,4.256,10.326,10.326,0,0,1,.47,3.361l.073,2.187-.793-.1a6.533,6.533,0,0,1-3.009-1.336,13.681,13.681,0,0,1-1.541-1.747c-1.482-2.011-2.011-2.011-3.493-.015a6.847,6.847,0,0,1-2.95,2.627l-.954.455-4.242.044-4.242.044.073-2.172a10.291,10.291,0,0,1,.47-3.346,9.953,9.953,0,0,1,2.656-4.271,10.29,10.29,0,0,1,5.577-2.994A13.11,13.11,0,0,1,47.554-501.035Zm1,11.668a8.424,8.424,0,0,0,4.506,2.847l.778.176-.088,1.541a10.519,10.519,0,0,1-.382,2.5,9.859,9.859,0,0,1-6.252,6.208,7.853,7.853,0,0,1-2.789.323,6.947,6.947,0,0,1-2.833-.4,9.523,9.523,0,0,1-6.487-9.026v-1.042l3.787-.059c3.361-.059,3.86-.1,4.594-.367a8.468,8.468,0,0,0,3.9-2.7,3.608,3.608,0,0,1,.631-.719A3.608,3.608,0,0,1,48.552-489.367ZM32.657-485.14a16.47,16.47,0,0,0,.132,1.791l.132.631-.807-.059a1.616,1.616,0,0,1-1.262-.543,1.282,1.282,0,0,1-.47-1.174,1.669,1.669,0,0,1,1.805-1.761l.47-.015Zm25.3-.558a1.321,1.321,0,0,1,.455,1.189,1.3,1.3,0,0,1-.47,1.189,1.616,1.616,0,0,1-1.262.543l-.807.059.132-.631a16.486,16.486,0,0,0,.132-1.805v-1.159l.675.088A1.648,1.648,0,0,1,57.959-485.7ZM42.314-473.56a11.607,11.607,0,0,0,6.017-.5l.763-.293v1.761l-2.3,2.774c-1.277,1.526-2.348,2.774-2.392,2.774s-1.115-1.247-2.392-2.774l-2.3-2.774v-1.761l.778.293A13.541,13.541,0,0,0,42.314-473.56Zm-2.1,5.225c1.218,1.468,2.216,2.7,2.246,2.745a34.5,34.5,0,0,1-4.418,2.216c-.029-.044-.631-1.776-1.321-3.86l-1.248-3.772,1.262.015h1.277Zm11.859,1.1c-.69,2.084-1.292,3.816-1.321,3.86a34.5,34.5,0,0,1-4.418-2.216c.029-.059,1.042-1.292,2.246-2.745l2.2-2.656h1.277l1.262-.015ZM34.712-465.8c1.7,5.107,1.82,5.357,2.6,5.357a8.687,8.687,0,0,0,1.805-.734l1.468-.734.675,1.35.675,1.35-.925,2.319-.91,2.319H27.96v-5.108c0-5.621.059-6.091.91-7.691A7.7,7.7,0,0,1,32-470.287a7.3,7.3,0,0,1,.983-.426C33.024-470.713,33.816-468.5,34.712-465.8Zm22.367-4.374a7.861,7.861,0,0,1,2.862,2.818c.837,1.585.9,2.055.9,7.676v5.108H48.7l-.91-2.319-.925-2.319.675-1.35.675-1.35,1.468.734a8.687,8.687,0,0,0,1.805.734c.778,0,.9-.25,2.6-5.357C55.934-471.344,55.626-470.9,57.079-470.17Zm-11.873,6.751a2.676,2.676,0,0,1,.807.514,10.355,10.355,0,0,1-.587,1.292c-.543,1.071-.631,1.174-1.027,1.174s-.484-.1-1.027-1.174a10.356,10.356,0,0,1-.587-1.292,7.182,7.182,0,0,1,1.57-.9A6.132,6.132,0,0,1,45.205-463.419Zm.205,6.9c.352.881.66,1.673.7,1.761.059.147-.338.191-1.717.191s-1.776-.044-1.717-.191c.044-.088.352-.881.7-1.761.572-1.453.646-1.57,1.013-1.57S44.839-457.974,45.411-456.521Zm17.773,13.693v9.393H25.612V-452.22H63.184ZM23.264-439.3v5.871H10.348v-11.741H23.264Zm55.184,0v5.871H65.533v-11.741H78.448Z" transform="translate(-8 503.862)"/>
      <path id="Path_570" data-name="Path 570" d="M15.735-463.75c-.338.117-.6.543-1.526,2.363-.6,1.233-1.13,2.26-1.145,2.275s-1.071.308-2.3.616c-2.436.616-2.759.822-2.759,1.658,0,.367.279.734,1.717,2.172l1.7,1.732-.4,2.231c-.352,2.055-.367,2.26-.161,2.583a1.227,1.227,0,0,0,1.277.572,13.952,13.952,0,0,0,2.143-1.556,22.1,22.1,0,0,1,1.937-1.468,20.724,20.724,0,0,1,2.055,1.541c1.981,1.585,2.3,1.732,2.906,1.306s.616-.763.22-3.053l-.382-2.157,1.7-1.732c1.438-1.438,1.717-1.805,1.717-2.172,0-.837-.323-1.042-2.759-1.658-1.233-.308-2.275-.587-2.3-.616s-.543-1.042-1.145-2.26c-.983-1.967-1.174-2.246-1.585-2.392a2.774,2.774,0,0,0-.484-.147C16.146-463.911,15.955-463.838,15.735-463.75Zm1.218,5.122a5.984,5.984,0,0,0,.954,1.526,9.108,9.108,0,0,0,1.658.514l1.365.338-1.174,1.2c-1.277,1.306-1.321,1.424-1.027,2.7a3.673,3.673,0,0,1,.1.675,6.894,6.894,0,0,1-1.13-.822c-1.2-.969-1.644-1.071-2.319-.528-1.879,1.526-1.864,1.526-1.761,1.13.044-.206.132-.719.191-1.13l.1-.778-1.2-1.233-1.2-1.218,1.365-.338a9.108,9.108,0,0,0,1.658-.514,5.984,5.984,0,0,0,.954-1.526,7.906,7.906,0,0,1,.734-1.336A7.906,7.906,0,0,1,16.953-458.627Z" transform="translate(-8 469.776)"/>
      <path id="Path_571" data-name="Path 571" d="M399.641-463.751a13.217,13.217,0,0,0-1.218,2.246,21.534,21.534,0,0,1-1.071,2.143,10.991,10.991,0,0,1-2.275.47c-2.231.338-2.745.543-2.891,1.115-.147.616.088,1,1.747,2.7l1.629,1.658-.338,2.084c-.191,1.145-.367,2.26-.411,2.48-.059.308.029.5.367.851a1.58,1.58,0,0,0,.778.44,13.1,13.1,0,0,0,2.363-1.115l2.025-1.115,2.025,1.115a13.176,13.176,0,0,0,2.348,1.115,1.339,1.339,0,0,0,1.115-1.115c0-.235-.147-1.394-.352-2.583l-.352-2.158,1.644-1.688c1.688-1.747,1.952-2.187,1.658-2.818-.235-.514-.822-.719-3.023-1.013a9.831,9.831,0,0,1-2.069-.426,21.559,21.559,0,0,1-1.071-2.143c-.969-2.1-1.277-2.5-1.923-2.5A1.319,1.319,0,0,0,399.641-463.751Zm1.321,4.99a5.949,5.949,0,0,0,.822,1.409,9.9,9.9,0,0,0,3.023.69,4.651,4.651,0,0,1-.91,1.071,6.448,6.448,0,0,0-1.13,1.438,7.35,7.35,0,0,0,.147,1.732,9.262,9.262,0,0,1,.191,1.409,6.594,6.594,0,0,1-1.145-.6,4.416,4.416,0,0,0-1.57-.631,4.16,4.16,0,0,0-1.6.631,6.421,6.421,0,0,1-1.2.6,9.269,9.269,0,0,1,.191-1.409,7.348,7.348,0,0,0,.147-1.732,6.446,6.446,0,0,0-1.13-1.438,4.649,4.649,0,0,1-.91-1.071,9.9,9.9,0,0,0,3.023-.69,5.95,5.95,0,0,0,.822-1.409,4.676,4.676,0,0,1,.616-1.13A4.676,4.676,0,0,1,400.962-458.76Z" transform="translate(-335.768 469.85)"/>
    </g>
  </g>
</svg>
