<svg xmlns="http://www.w3.org/2000/svg" xmlns:xlink="http://www.w3.org/1999/xlink" width="270" height="180" viewBox="0 0 270 180">
  <defs>
    <clipPath id="clip-path">
      <rect id="Rectangle_157" data-name="Rectangle 157" width="120" height="60" transform="translate(366 3073)" fill="#fff"/>
    </clipPath>
    <clipPath id="clip-path-2">
      <rect id="Rectangle_153" data-name="Rectangle 153" width="120" height="60" transform="translate(366 2773)" fill="#fff"/>
    </clipPath>
    <clipPath id="clip-path-3">
      <rect id="Rectangle_154" data-name="Rectangle 154" width="120" height="60" transform="translate(366 2845)" fill="#fff"/>
    </clipPath>
    <clipPath id="clip-path-4">
      <rect id="Rectangle_155" data-name="Rectangle 155" width="120" height="60" transform="translate(366 2923)" fill="#fff"/>
    </clipPath>
    <clipPath id="clip-path-5">
      <rect id="Rectangle_156" data-name="Rectangle 156" width="120" height="60" transform="translate(366 3001)" fill="#fff"/>
    </clipPath>
    <clipPath id="clip-path-6">
      <rect id="Rectangle_152" data-name="Rectangle 152" width="120" height="60" transform="translate(366 2682)" fill="#fff"/>
    </clipPath>
  </defs>
  <g id="Group_331" data-name="Group 331" transform="translate(-989 -2160)">
    <g id="Mask_Group_58" data-name="Mask Group 58" transform="translate(623 -913)" clip-path="url(#clip-path)">
      <g id="Group_319" data-name="Group 319" transform="translate(-221 61)">
        <path id="Exclusion_3" data-name="Exclusion 3" d="M-6009.552,36h-23.9a6.516,6.516,0,0,1-4.634-1.913A6.489,6.489,0,0,1-6040,29.462V6.538a6.489,6.489,0,0,1,1.918-4.625A6.516,6.516,0,0,1-6033.449,0h23.9a6.516,6.516,0,0,1,4.634,1.913A6.489,6.489,0,0,1-6003,6.538V29.462a6.489,6.489,0,0,1-1.918,4.625A6.516,6.516,0,0,1-6009.552,36Zm-3.16-23.123a7.849,7.849,0,0,0-3.9.893,6.384,6.384,0,0,0-2.451,2.384,6.307,6.307,0,0,0-.848,3.245,6.686,6.686,0,0,0,.848,3.508A5.36,5.36,0,0,0-6016.737,25a7.685,7.685,0,0,0,3.2.693h.112a13.606,13.606,0,0,0,2.374-.215,11.78,11.78,0,0,0,2.513-.738.249.249,0,0,0,.153-.246l-.007-.122v-.018c-.013-.228-.027-.486-.053-.752l-.007-.158c-.012-.258-.024-.526-.024-.765V8a.142.142,0,0,0-.129-.108l-.024,0h-3.13c-.1,0-.153.055-.153.168v4.861c-.086-.007-.164-.011-.238-.014s-.166-.008-.241-.016A2.813,2.813,0,0,0-6012.712,12.877Zm-21.615-3.646a.181.181,0,0,0-.154.061c-.03.028-.019.088.03.155l4.672,7.891-4.795,7.846a.215.215,0,0,0-.03.17c0,.044.015.053.038.053l.028,0a.315.315,0,0,1,.042,0h3.391c.163,0,.293-.012.355-.17.233-.414.47-.849.7-1.27l.005-.01.084-.154.276-.5c.316-.6.636-1.2,1.049-1.969l.01-.018c.308-.573.69-1.286,1.022-1.966h.031c.363.661.726,1.315,1.111,2,.409.734.743,1.344,1.047,1.939.154.307.314.615.469.913l0,.008c.177.34.349.673.513,1,.11.158.287.17.524.17h3.531a.262.262,0,0,1,.047,0l.041,0,.037,0a.04.04,0,0,0,.044-.032.268.268,0,0,0-.03-.185l-4.934-8.076,4.625-7.616a.178.178,0,0,0,.05-.1.015.015,0,0,0,0-.012.138.138,0,0,0-.139-.111.153.153,0,0,0-.03,0h-3.253a.307.307,0,0,0-.059-.006.308.308,0,0,0-.141.036.252.252,0,0,0-.093.153c-.136.253-.273.514-.4.758l-.011.021c-.2.382-.41.776-.621,1.16l-.021.039,0,.009c-.34.62-.692,1.261-1.021,1.891-.415.791-.725,1.4-1,1.984h-.03c-.334-.684-.672-1.323-1.033-1.954-.319-.534-.61-1.057-.918-1.61l-.1-.174-.095-.17c-.291-.543-.667-1.259-.987-1.984a.414.414,0,0,0-.155-.138.935.935,0,0,0-.217-.03Zm21.213,13.491a4.025,4.025,0,0,1-1.279-.2,2.682,2.682,0,0,1-1.049-.615,2.986,2.986,0,0,1-.692-1.091,4.26,4.26,0,0,1-.262-1.584,3.4,3.4,0,0,1,.508-1.954,3.429,3.429,0,0,1,1.311-1.138,3.824,3.824,0,0,1,1.742-.4c.169,0,.341.015.507.03a3.718,3.718,0,0,1,.419.078v6.77a1.423,1.423,0,0,1-.456.08c-.033,0-.067,0-.1,0C-6012.677,22.708-6012.885,22.722-6013.114,22.722Z" transform="translate(6627 3024)" fill="#080808"/>
        <path id="Adobe" d="M45.979,12l.847-2.046h4.026L51.71,12h.88L49.246,4.212h-.77L45.11,12Zm4.576-2.772H47.123l1.716-4.136Zm4.912,2.9a2.492,2.492,0,0,0,1.089-.253,2.112,2.112,0,0,0,.858-.748h.022V12h.748V3.684h-.748V7.743h-.022a2.126,2.126,0,0,0-.858-.765,2.449,2.449,0,0,0-1.089-.259,2.761,2.761,0,0,0-1.095.209,2.494,2.494,0,0,0-.836.572A2.583,2.583,0,0,0,53,8.359a3.053,3.053,0,0,0,0,2.134,2.583,2.583,0,0,0,.539.858,2.494,2.494,0,0,0,.836.572A2.761,2.761,0,0,0,55.467,12.132Zm.077-.638a2.032,2.032,0,0,1-.825-.16,1.729,1.729,0,0,1-.611-.44,1.957,1.957,0,0,1-.379-.66,2.542,2.542,0,0,1,0-1.617,1.957,1.957,0,0,1,.379-.66,1.789,1.789,0,0,1,.611-.445,1.973,1.973,0,0,1,.825-.165,1.947,1.947,0,0,1,.792.159,1.9,1.9,0,0,1,.627.44,2.032,2.032,0,0,1,.413.66,2.335,2.335,0,0,1,0,1.639,1.969,1.969,0,0,1-.413.655,1.942,1.942,0,0,1-1.419.594Zm6.5.638a2.951,2.951,0,0,0,1.111-.2A2.539,2.539,0,0,0,64.587,10.5a2.957,2.957,0,0,0,0-2.156,2.594,2.594,0,0,0-.566-.858,2.568,2.568,0,0,0-.869-.566,2.951,2.951,0,0,0-1.111-.2,2.921,2.921,0,0,0-1.1.2,2.539,2.539,0,0,0-1.436,1.424,2.957,2.957,0,0,0,0,2.156,2.539,2.539,0,0,0,1.436,1.425A2.92,2.92,0,0,0,62.041,12.132Zm0-.638a1.965,1.965,0,0,1-.808-.16,1.8,1.8,0,0,1-.611-.44,1.979,1.979,0,0,1-.391-.66,2.446,2.446,0,0,1,0-1.617,1.979,1.979,0,0,1,.391-.66,1.861,1.861,0,0,1,.611-.445,1.908,1.908,0,0,1,.808-.165,1.945,1.945,0,0,1,.814.165,1.848,1.848,0,0,1,.616.445,1.983,1.983,0,0,1,.39.66,2.446,2.446,0,0,1,0,1.617,1.983,1.983,0,0,1-.39.66,1.784,1.784,0,0,1-.616.44A2,2,0,0,1,62.041,11.494Zm6.584.638a2.762,2.762,0,0,0,1.094-.209,2.494,2.494,0,0,0,.836-.572,2.584,2.584,0,0,0,.539-.858,3.053,3.053,0,0,0,0-2.134,2.584,2.584,0,0,0-.539-.858,2.494,2.494,0,0,0-.836-.572,2.761,2.761,0,0,0-1.094-.209,2.449,2.449,0,0,0-1.089.259,2.126,2.126,0,0,0-.858.765h-.022V3.684h-.748V12h.748v-.869h.022a2.112,2.112,0,0,0,.858.748A2.492,2.492,0,0,0,68.625,12.132Zm-.077-.638a1.942,1.942,0,0,1-1.419-.594,1.969,1.969,0,0,1-.412-.655,2.335,2.335,0,0,1,0-1.639,2.032,2.032,0,0,1,.412-.66,1.9,1.9,0,0,1,.627-.44,1.947,1.947,0,0,1,.792-.159,1.973,1.973,0,0,1,.825.165,1.789,1.789,0,0,1,.61.445,1.957,1.957,0,0,1,.38.66,2.542,2.542,0,0,1,0,1.617,1.957,1.957,0,0,1-.38.66,1.729,1.729,0,0,1-.61.44A2.032,2.032,0,0,1,68.548,11.494Zm6.122.638a2.844,2.844,0,0,0,1.194-.253,2.79,2.79,0,0,0,1.018-.836h0l-.561-.44a2.013,2.013,0,0,1-.644.622,1.967,1.967,0,0,1-1.743.121,1.909,1.909,0,0,1-.594-.4,1.836,1.836,0,0,1-.4-.594,2.011,2.011,0,0,1-.154-.726h4.268a1.681,1.681,0,0,0,.011-.187h0V9.272a3.011,3.011,0,0,0-.16-.99,2.361,2.361,0,0,0-.467-.808,2.2,2.2,0,0,0-.77-.55,2.625,2.625,0,0,0-1.067-.2,2.561,2.561,0,0,0-1.023.2,2.53,2.53,0,0,0-.825.566,2.611,2.611,0,0,0-.55.858,2.876,2.876,0,0,0-.2,1.078,2.809,2.809,0,0,0,.2,1.078,2.686,2.686,0,0,0,.555.858,2.488,2.488,0,0,0,.841.566A2.737,2.737,0,0,0,74.67,12.132Zm1.639-3.1H72.8a1.739,1.739,0,0,1,.165-.632,1.861,1.861,0,0,1,.385-.539,1.834,1.834,0,0,1,.561-.374,1.732,1.732,0,0,1,.693-.137,1.586,1.586,0,0,1,1.237.478,1.855,1.855,0,0,1,.467,1.2Z" transform="translate(587 3024)" fill="#080808"/>
        <path id="XD" d="M47.5,30l2.656-4.448L52.92,30h2.544L51.4,24l3.456-5.328h-2.32l-2.3,3.872L47.9,18.672H45.464l3.52,5.28L45.064,30Zm12.553,0a7.881,7.881,0,0,0,2.224-.328,6.086,6.086,0,0,0,2.016-1.016,5.24,5.24,0,0,0,1.456-1.76,5.462,5.462,0,0,0,.56-2.56,5.778,5.778,0,0,0-.56-2.68,4.982,4.982,0,0,0-1.456-1.744,5.758,5.758,0,0,0-2.016-.952,8.9,8.9,0,0,0-2.224-.288H56.033V30Zm-.32-1.76h-1.68V20.4h1.68a7.82,7.82,0,0,1,1.568.16,3.843,3.843,0,0,1,1.416.592,3.216,3.216,0,0,1,1.032,1.2,4.288,4.288,0,0,1,.4,1.984,4.03,4.03,0,0,1-.4,1.9,3.318,3.318,0,0,1-1.032,1.192,4.088,4.088,0,0,1-1.416.624,6.84,6.84,0,0,1-1.568.184Z" transform="translate(587 3024)" fill="#080808"/>
      </g>
    </g>
    <g id="Group_330" data-name="Group 330">
      <g id="Mask_Group_54" data-name="Mask Group 54" transform="translate(623 -493)" clip-path="url(#clip-path-2)">
        <g id="Group_315" data-name="Group 315" transform="translate(58 -148)">
          <circle id="Ellipse_30" data-name="Ellipse 30" cx="26.817" cy="26.817" r="26.817" transform="translate(354.365 2924)" fill="#fff"/>
          <path id="Path_711" data-name="Path 711" d="M287.277,12.944a26.834,26.834,0,0,1-28.141,40.19Zm-2.2-3.111.007.009L270.822,30.21l-2.883-3.247,3.347-3.6h-2.494l-2.735,3.009V18.821h-1.931V30.986h1.931V27.655l2.912,3.331h1.31L255.467,52.138a26.833,26.833,0,0,1-17.934-24.08l1.524,3.313,2.413-5.439,2.446,5.439,3.685-8.013h-1.963L244,27.269l-1.609-3.91h-1.625l-1.657,3.91-1.425-3.533a26.692,26.692,0,0,1,5.888-13.9h41.509Zm-32.89,13.333a4.129,4.129,0,0,0-1.593.306A3.976,3.976,0,0,0,248.43,25.6a4.078,4.078,0,0,0,0,3.138,3.88,3.88,0,0,0,.869,1.271,4.162,4.162,0,0,0,5.786,0,3.889,3.889,0,0,0,.869-1.271,3.988,3.988,0,0,0-2.169-5.27,4.13,4.13,0,0,0-1.6-.306Zm9.429,0a2.1,2.1,0,0,0-1.3.4,2.871,2.871,0,0,0-.8.9v-1.11h-1.834v7.627H259.6V26a2.686,2.686,0,0,1,.644-.7,1.716,1.716,0,0,1,1.094-.33,2.415,2.415,0,0,1,.491.048,1.607,1.607,0,0,1,.394.129l.676-1.738a3.523,3.523,0,0,0-.676-.185,3.756,3.756,0,0,0-.611-.056Zm-9.429,1.8a2.115,2.115,0,0,1,.877.177,1.963,1.963,0,0,1,.668.483,2.152,2.152,0,0,1,.418.7,2.427,2.427,0,0,1,.145.845,2.5,2.5,0,0,1-.145.853,2.046,2.046,0,0,1-.418.7,2.015,2.015,0,0,1-.668.475,2.261,2.261,0,0,1-1.754,0,2.014,2.014,0,0,1-.668-.475,2.047,2.047,0,0,1-.418-.7,2.5,2.5,0,0,1-.145-.853,2.431,2.431,0,0,1,.145-.845,2.151,2.151,0,0,1,.418-.7,1.961,1.961,0,0,1,.668-.483A2.115,2.115,0,0,1,252.187,24.966ZM264.322,0a26.708,26.708,0,0,1,17.219,6.257H247.1A26.708,26.708,0,0,1,264.322,0Z" transform="translate(116.861 2924)" fill="#080808"/>
          <path id="Path_712" data-name="Path 712" d="M17.748,104.42a3.776,3.776,0,0,1,2.51.772,2.574,2.574,0,0,1,.917,2.076v4.972H19.389v-.965a2.836,2.836,0,0,1-1.021.829,3.179,3.179,0,0,1-1.456.33,3.31,3.31,0,0,1-1.054-.169,2.652,2.652,0,0,1-.893-.5,2.416,2.416,0,0,1-.611-.8,2.519,2.519,0,0,1,.008-2.1,2.43,2.43,0,0,1,.644-.813,2.985,2.985,0,0,1,.965-.523,3.771,3.771,0,0,1,1.2-.185,4.628,4.628,0,0,1,1.094.137,3.131,3.131,0,0,1,.981.41v-.434a1.161,1.161,0,0,0-.161-.628,1.279,1.279,0,0,0-.4-.41,1.65,1.65,0,0,0-.539-.217,2.7,2.7,0,0,0-.571-.064,4.822,4.822,0,0,0-.981.129,6.371,6.371,0,0,0-1.271.434l-.628-1.593a7.988,7.988,0,0,1,1.376-.483,6.594,6.594,0,0,1,1.681-.209Zm22.124,0a3.856,3.856,0,0,1,1.488.29,3.724,3.724,0,0,1,1.223.813,3.85,3.85,0,0,1,.829,1.255,4.157,4.157,0,0,1,.306,1.617v.306q0,.193-.016.418H38a1.865,1.865,0,0,0,.684,1.038,2.626,2.626,0,0,0,.652.362,2.279,2.279,0,0,0,.837.145,3.5,3.5,0,0,0,1.046-.177,2.639,2.639,0,0,0,1.014-.6l.965,1.448a5.54,5.54,0,0,1-1.255.74,4.357,4.357,0,0,1-1.8.354,4.232,4.232,0,0,1-1.617-.306,3.938,3.938,0,0,1-2.172-2.14,4.042,4.042,0,0,1-.314-1.593,4.119,4.119,0,0,1,.29-1.545,3.981,3.981,0,0,1,.8-1.263,3.744,3.744,0,0,1,2.743-1.167ZM6.678,100.977v1.834H1.931v2.752H6.356V107.4H1.931v4.843H0V100.977ZM12.2,104.42a3.757,3.757,0,0,1,.611.056,3.521,3.521,0,0,1,.676.185l-.676,1.738a1.626,1.626,0,0,0-.394-.129,2.419,2.419,0,0,0-.491-.048,1.715,1.715,0,0,0-1.094.33,2.681,2.681,0,0,0-.644.7v4.988H8.254v-7.627h1.834v1.11a2.871,2.871,0,0,1,.8-.9,2.1,2.1,0,0,1,1.3-.4Zm19.743,0a2.859,2.859,0,0,1,1.078.2,2.413,2.413,0,0,1,.853.571,2.62,2.62,0,0,1,.555.909,3.508,3.508,0,0,1,.2,1.231v4.907H32.7v-4.409q0-1.609-1.3-1.609a1.462,1.462,0,0,0-1.006.322,2.674,2.674,0,0,0-.555.66v5.036H27.9v-4.409q0-1.609-1.3-1.609a1.463,1.463,0,0,0-1.006.322,2.669,2.669,0,0,0-.555.66v5.036H23.106v-7.627h1.8v1.11a3.1,3.1,0,0,1,.853-.893,2.4,2.4,0,0,1,1.448-.41,2.82,2.82,0,0,1,1.384.346,2.165,2.165,0,0,1,.933.99,2.458,2.458,0,0,1,.346-.483,2.3,2.3,0,0,1,.523-.426,3.134,3.134,0,0,1,.692-.306,2.849,2.849,0,0,1,.853-.121ZM17.57,108.765a2.407,2.407,0,0,0-.515.056,1.735,1.735,0,0,0-.475.177.994.994,0,0,0-.354.33.922.922,0,0,0-.137.515.834.834,0,0,0,.459.8,1.48,1.48,0,0,0,.443.145,2.749,2.749,0,0,0,.45.04,2.006,2.006,0,0,0,1.11-.281,2.883,2.883,0,0,0,.692-.6v-.788a3.192,3.192,0,0,0-.837-.29,4.167,4.167,0,0,0-.837-.1Zm22.3-2.591a2.036,2.036,0,0,0-.8.145,1.88,1.88,0,0,0-.571.37,1.579,1.579,0,0,0-.354.5,1.556,1.556,0,0,0-.137.531h3.781a1.539,1.539,0,0,0-.137-.515,1.674,1.674,0,0,0-.354-.507,1.766,1.766,0,0,0-.587-.378,2.2,2.2,0,0,0-.837-.145Z" transform="translate(308 2842.745)" fill="#080808"/>
        </g>
      </g>
      <g id="Mask_Group_55" data-name="Mask Group 55" transform="translate(773 -685)" clip-path="url(#clip-path-3)">
        <g id="Group_317" data-name="Group 317" transform="translate(0 0)">
          <g id="Group_316" data-name="Group 316" transform="translate(366 2862)">
            <path id="Path_721" data-name="Path 721" d="M0,13.665V0L11.835,6.833v4.555L3.945,6.833v9.11Z" fill="#080808"/>
            <path id="Path_722" data-name="Path 722" d="M225,6.833,236.835,0V13.665l-7.89,4.555L225,15.943l7.89-4.555V6.833L225,11.388Z" transform="translate(-213.165)" fill="#080808"/>
            <path id="Path_723" data-name="Path 723" d="M225,303.1v4.555l7.89,4.555v-4.555Z" transform="translate(-213.165 -287.157)" fill="#080808"/>
            <path id="Path_724" data-name="Path 724" d="M375,25.053l11.835-6.833V9.11l-3.945,2.278v4.555L375,20.5Zm7.89-18.22V2.278L386.835,0V4.555Z" transform="translate(-355.276)" fill="#080808"/>
          </g>
          <path id="Path_725" data-name="Path 725" d="M1.17,0h1.8V-8.535H3L6.18,0H7.5l3.225-8.535h.03V0H12.63V-10.62H9.66L6.93-3.075H6.885L4.125-10.62H1.17ZM19.35,0h1.68V-4.38c0-1.44-.63-3.03-3.21-3.03a4.543,4.543,0,0,0-3.045,1.14l.93,1.095A2.878,2.878,0,0,1,17.67-6c.9,0,1.65.435,1.65,1.32v.18c-2.25,0-4.95.3-4.95,2.445,0,1.68,1.545,2.235,2.7,2.235a2.553,2.553,0,0,0,2.235-1.1h.045Zm-.03-3.03a1.7,1.7,0,0,1-1.89,1.845c-.615,0-1.26-.21-1.26-.9,0-1.065,1.6-1.2,2.745-1.2h.405ZM23.2-5.76V-2.4c0,1.38.435,2.55,2.34,2.55a3.726,3.726,0,0,0,1.2-.2l-.06-1.41a1.882,1.882,0,0,1-.765.15c-.8,0-.945-.465-.945-1.11V-5.76h1.8V-7.2h-1.8V-9.285H23.2V-7.2h-1.26v1.44ZM29.46-4.32a1.922,1.922,0,0,1,1.995-1.74A1.6,1.6,0,0,1,33.15-4.32Zm5.49.81c0-2.595-1.47-3.9-3.48-3.9a3.674,3.674,0,0,0-3.81,3.855A3.618,3.618,0,0,0,31.53.21a3.582,3.582,0,0,0,3.09-1.44l-1.2-.96a2.182,2.182,0,0,1-1.9.93A2,2,0,0,1,29.46-3.03h5.475C34.95-3.2,34.95-3.345,34.95-3.51ZM36.69,0h1.8V-3.855A1.879,1.879,0,0,1,40.425-5.79a2.1,2.1,0,0,1,.555.075v-1.65a2.036,2.036,0,0,0-.435-.045A2.331,2.331,0,0,0,38.445-6h-.03V-7.2H36.69Zm5.49,0h1.8V-7.2h-1.8Zm-.255-9.645a1.109,1.109,0,0,0,1.14,1.08,1.107,1.107,0,0,0,1.17-1.08,1.107,1.107,0,0,0-1.17-1.08A1.109,1.109,0,0,0,41.925-9.645ZM50.64,0h1.68V-4.38c0-1.44-.63-3.03-3.21-3.03a4.543,4.543,0,0,0-3.045,1.14l.93,1.095A2.878,2.878,0,0,1,48.96-6c.9,0,1.65.435,1.65,1.32v.18c-2.25,0-4.95.3-4.95,2.445C45.66-.375,47.2.18,48.36.18a2.553,2.553,0,0,0,2.235-1.1h.045Zm-.03-3.03a1.7,1.7,0,0,1-1.89,1.845c-.615,0-1.26-.21-1.26-.9,0-1.065,1.6-1.2,2.745-1.2h.4ZM54.45,0h1.8V-11.34h-1.8ZM70.74-10.62H68.85v6.645a2.276,2.276,0,0,1-2.385,2.55,2.276,2.276,0,0,1-2.385-2.55V-10.62H62.19V-3.9A4.027,4.027,0,0,0,66.465.27,4.027,4.027,0,0,0,70.74-3.9ZM72.99,0h1.89V-10.62H72.99Z" transform="translate(402.112 2880.34)" fill="#080808"/>
        </g>
      </g>
      <g id="Mask_Group_56" data-name="Mask Group 56" transform="translate(773 -703)" clip-path="url(#clip-path-4)">
        <g id="Group_313" data-name="Group 313" transform="translate(357.373 2921.482)">
          <path id="Path_717" data-name="Path 717" d="M16.91,27.205q1.922-7.687,9.609-7.687c7.687,0,8.649,5.765,12.493,6.727q3.844.962,6.727-2.883-1.922,7.687-9.609,7.687c-7.687,0-8.649-5.765-12.493-6.727Q19.793,23.36,16.91,27.205ZM7.3,38.736q1.922-7.687,9.609-7.687c7.687,0,8.649,5.765,12.493,6.727q3.844.962,6.727-2.883-1.922,7.687-9.609,7.687c-7.687,0-8.649-5.765-12.493-6.727q-3.851-.959-6.734,2.886Z" transform="translate(1.333 0)" fill="#080808" fill-rule="evenodd"/>
          <path id="Path_718" data-name="Path 718" d="M50.159,27.735H47.643v-1.51h6.783v1.507h-2.51v6.836H50.159ZM57.716,33.8a3.2,3.2,0,0,1-.814.666,2.323,2.323,0,0,1-1.164.258,2.817,2.817,0,0,1-.778-.105,1.8,1.8,0,0,1-.644-.327,1.569,1.569,0,0,1-.437-.565,1.929,1.929,0,0,1-.165-.825,1.739,1.739,0,0,1,.281-1.029,1.9,1.9,0,0,1,.737-.619,3.689,3.689,0,0,1,1.023-.315,9.287,9.287,0,0,1,1.154-.113l.783-.035v-.3a.859.859,0,0,0-.31-.77,1.285,1.285,0,0,0-.73-.209q-.973,0-1.111.737l-1.5-.14a1.922,1.922,0,0,1,.841-1.39,3.391,3.391,0,0,1,1.826-.427,3.649,3.649,0,0,1,1.194.17,1.95,1.95,0,0,1,.791.484,1.881,1.881,0,0,1,.433.765,3.511,3.511,0,0,1,.135,1.017v3.856H57.716Zm-.035-1.951-.726.035a4.046,4.046,0,0,0-.831.105,1.447,1.447,0,0,0-.484.2.611.611,0,0,0-.226.286,1.121,1.121,0,0,0-.059.363.591.591,0,0,0,.209.478.891.891,0,0,0,.583.176,1.684,1.684,0,0,0,1.03-.293,1.294,1.294,0,0,0,.363-.415,1.278,1.278,0,0,0,.14-.625Zm2.913-3.377h1.639v6.1H60.595Zm-.024-2.246h1.683v1.47H60.571Zm3.062,0h1.639v8.344H63.633Zm2.374,2.244h1.777l.855,4.042,1.169-3.985h1.428l1.1,4,.855-4.042H74.9l-1.779,6.1H71.527l-1.089-4.02-1.1,4.02H67.783L66,28.481Zm9.637,0h1.639v6.1H75.644Zm-.023-2.244H77.3v1.47H75.621Zm3.052,2.244h1.591v.841a2.261,2.261,0,0,1,.858-.783,2.3,2.3,0,0,1,1.034-.245,2.01,2.01,0,0,1,1.545.544,2.46,2.46,0,0,1,.5,1.711v4.031H82.568V30.762a1.179,1.179,0,0,0-.246-.877.9.9,0,0,0-.655-.233,1.48,1.48,0,0,0-.545.094,1.456,1.456,0,0,0-.427.268,1.43,1.43,0,0,0-.275.391,1.13,1.13,0,0,0-.113.5v3.669h-1.65v-6.1Zm11.086,5.3a2.2,2.2,0,0,1-1.9.994,2.225,2.225,0,0,1-1.922-.865,3.976,3.976,0,0,1-.632-2.4,4.389,4.389,0,0,1,.183-1.3,3.04,3.04,0,0,1,.52-1.017,2.332,2.332,0,0,1,.831-.66,2.672,2.672,0,0,1,2.017-.068,2.17,2.17,0,0,1,.849.632V26.231h1.639v8.344H89.76v-.806Zm-.035-2.314a3.1,3.1,0,0,0-.113-.935,1.4,1.4,0,0,0-.321-.572,1.13,1.13,0,0,0-.462-.275,1.958,1.958,0,0,0-.5-.063,1.254,1.254,0,0,0-.51.105,1.137,1.137,0,0,0-.422.327,1.605,1.605,0,0,0-.286.583,3.73,3.73,0,0,0,0,1.783,1.88,1.88,0,0,0,.275.6,1.017,1.017,0,0,0,.409.327,1.29,1.29,0,0,0,.5.113,1.378,1.378,0,0,0,.96-.339,1.43,1.43,0,0,0,.339-.565,2.815,2.815,0,0,0,.113-.858v-.209Zm12.808.233a3.865,3.865,0,0,1-.31,1.232,3.037,3.037,0,0,1-.69.981,3.069,3.069,0,0,1-1.077.648,4.328,4.328,0,0,1-1.48.233,4.126,4.126,0,0,1-1.667-.315,3.278,3.278,0,0,1-1.205-.887,3.811,3.811,0,0,1-.731-1.386,6.178,6.178,0,0,1-.245-1.793,5.717,5.717,0,0,1,.268-1.823,3.986,3.986,0,0,1,.772-1.378,3.334,3.334,0,0,1,1.216-.877,4.1,4.1,0,0,1,1.618-.3,4.365,4.365,0,0,1,1.386.2,2.732,2.732,0,0,1,1,.572,2.877,2.877,0,0,1,.649.9,4.748,4.748,0,0,1,.362,1.18l-1.733.226a2.363,2.363,0,0,0-.5-1.158A1.47,1.47,0,0,0,99,27.515a1.733,1.733,0,0,0-1.526.754,3.73,3.73,0,0,0-.522,2.132,3.522,3.522,0,0,0,.556,2.139A1.76,1.76,0,0,0,99,33.289a1.539,1.539,0,0,0,1.188-.415,2.083,2.083,0,0,0,.473-1.186Zm2.549.165a1.514,1.514,0,0,0,.5,1.123,2.028,2.028,0,0,0,1.292.352,2.35,2.35,0,0,0,.691-.088,1.338,1.338,0,0,0,.452-.233.825.825,0,0,0,.251-.339,1.188,1.188,0,0,0,.076-.432.92.92,0,0,0-.244-.614,1.566,1.566,0,0,0-.9-.415L106.1,31a6.155,6.155,0,0,1-1.13-.3,2.624,2.624,0,0,1-.825-.484,1.935,1.935,0,0,1-.509-.73,2.738,2.738,0,0,1-.176-1.029,2.233,2.233,0,0,1,.24-1.051,2.156,2.156,0,0,1,.667-.759,3.165,3.165,0,0,1,1.023-.462,5.1,5.1,0,0,1,1.311-.157,4.763,4.763,0,0,1,1.522.209,2.723,2.723,0,0,1,.983.555,2.161,2.161,0,0,1,.555.8,3.843,3.843,0,0,1,.242.946l-1.65.209a1.628,1.628,0,0,0-.5-.994,1.735,1.735,0,0,0-1.118-.3,2.876,2.876,0,0,0-.731.077,1.47,1.47,0,0,0-.462.2.678.678,0,0,0-.246.286.866.866,0,0,0-.07.339.886.886,0,0,0,.265.7,1.967,1.967,0,0,0,.894.363l1.146.226a4,4,0,0,1,1.991.869,2.291,2.291,0,0,1,.632,1.735,2.477,2.477,0,0,1-.2,1.017,2.261,2.261,0,0,1-.609.806,2.86,2.86,0,0,1-1.011.538,4.726,4.726,0,0,1-1.428.192,4.07,4.07,0,0,1-2.615-.73,2.883,2.883,0,0,1-.99-2.2h1.767Zm7.591,0a1.514,1.514,0,0,0,.5,1.123,2.035,2.035,0,0,0,1.292.352,2.366,2.366,0,0,0,.693-.088,1.318,1.318,0,0,0,.452-.233.825.825,0,0,0,.251-.339,1.188,1.188,0,0,0,.076-.432.924.924,0,0,0-.245-.614,1.569,1.569,0,0,0-.9-.415l-1.089-.2a6.155,6.155,0,0,1-1.13-.3,2.624,2.624,0,0,1-.825-.484,1.95,1.95,0,0,1-.51-.73,2.713,2.713,0,0,1-.176-1.029,2.233,2.233,0,0,1,.24-1.051,2.29,2.29,0,0,1,.667-.77,2.951,2.951,0,0,1,1.023-.462,5.1,5.1,0,0,1,1.311-.157,4.763,4.763,0,0,1,1.522.209,2.733,2.733,0,0,1,.983.555,2.137,2.137,0,0,1,.555.8,3.9,3.9,0,0,1,.242.946l-1.65.209a1.628,1.628,0,0,0-.5-.994,1.735,1.735,0,0,0-1.118-.3,2.875,2.875,0,0,0-.731.077,1.47,1.47,0,0,0-.462.2.678.678,0,0,0-.246.286.847.847,0,0,0-.07.339.886.886,0,0,0,.265.7,1.967,1.967,0,0,0,.9.363l1.158.226a4,4,0,0,1,1.991.869,2.291,2.291,0,0,1,.632,1.735,2.464,2.464,0,0,1-.2,1.011,2.261,2.261,0,0,1-.609.806,2.859,2.859,0,0,1-1.017.539,4.7,4.7,0,0,1-1.427.192,4.076,4.076,0,0,1-2.616-.73,2.826,2.826,0,0,1-.977-2.2Z" transform="translate(3.906 0.65)" fill="#080808" fill-rule="evenodd"/>
        </g>
      </g>
      <g id="Mask_Group_57" data-name="Mask Group 57" transform="translate(773 -721)" clip-path="url(#clip-path-5)">
        <g id="Group_318" data-name="Group 318" transform="translate(0 -2)">
          <g id="Page-1" transform="translate(365.344 3014.361)">
            <g id="logo" transform="translate(0.656 0.639)">
              <g id="Group-28-Copy-5" transform="translate(0 0)">
                <g id="Group-27-Copy-3" transform="translate(0)">
                  <g id="Group-25">
                    <g id="_2" data-name="2">
                      <path id="Shape" d="M17.017,1.276,1.29,16.991a2.156,2.156,0,0,0,0,3.054L17.017,35.76a2.16,2.16,0,0,0,3.057,0l6.594-6.589a1.938,1.938,0,0,0-2.742-2.74l-5,4.995a.513.513,0,0,1-.74,0L5.627,18.876a.512.512,0,0,1,0-.74L18.187,5.587a.513.513,0,0,1,.74,0l5,5a1.938,1.938,0,0,0,2.742-2.74L20.075,1.254A2.181,2.181,0,0,0,17.017,1.276Z" transform="translate(-0.656 -0.639)" fill="#080808"/>
                      <path id="Shape-2" data-name="Shape" d="M17.017,1.276,1.29,16.991a2.156,2.156,0,0,0,0,3.054L17.017,35.76a2.16,2.16,0,0,0,3.057,0l6.594-6.589a1.938,1.938,0,0,0-2.742-2.74l-5,4.995a.513.513,0,0,1-.74,0L5.627,18.876a.512.512,0,0,1,0-.74L18.187,5.587a5.453,5.453,0,0,1,2.635-1.581,3.973,3.973,0,0,1,3.061,1.05l-3.807-3.8A2.181,2.181,0,0,0,17.017,1.276Z" transform="translate(-0.656 -0.639)" fill="#080808"/>
                    </g>
                    <path id="Shape-3" data-name="Shape" d="M150.892,74.938a1.94,1.94,0,0,0,2.742,0l4.864-4.86a2.156,2.156,0,0,0,0-3.054l-4.907-4.885a1.94,1.94,0,0,0-2.745,2.742l3.314,3.311a.512.512,0,0,1,0,.74L150.892,72.2A1.936,1.936,0,0,0,150.892,74.938Z" transform="translate(-123.357 -50.608)" fill="#080808"/>
                  </g>
                  <ellipse id="Combined-Shape" cx="4.246" cy="4.243" rx="4.246" ry="4.243" transform="translate(13.722 13.714)" fill="#080808"/>
                </g>
              </g>
            </g>
          </g>
          <path id="Path_726" data-name="Path 726" d="M-.12,0H2l.96-2.43h4.6L8.55,0h2.16L6.135-10.62H4.5ZM3.6-4.05,5.265-8.37,6.9-4.05ZM11.67,0h1.8V-3.96a1.761,1.761,0,0,1,1.68-1.95c1.155,0,1.35,1.065,1.35,1.92V0h1.8V-4.5a2.621,2.621,0,0,0-2.655-2.91A2.451,2.451,0,0,0,13.41-6.045h-.03V-7.2H11.67Zm8.955-5.76V-2.4c0,1.38.435,2.55,2.34,2.55a3.726,3.726,0,0,0,1.2-.2l-.06-1.41a1.882,1.882,0,0,1-.765.15c-.8,0-.945-.465-.945-1.11V-5.76h1.8V-7.2H22.4V-9.285h-1.77V-7.2h-1.26v1.44ZM29.34,0H33.1C35.88,0,38.97-1.59,38.97-5.31c0-3.99-3.09-5.31-5.865-5.31H29.34Zm1.89-1.65V-9h1.575c1.95,0,4.14.645,4.14,3.69,0,2.865-2.19,3.66-4.14,3.66ZM42.09-4.32a1.922,1.922,0,0,1,2-1.74A1.6,1.6,0,0,1,45.78-4.32Zm5.49.81c0-2.595-1.47-3.9-3.48-3.9a3.674,3.674,0,0,0-3.81,3.855A3.618,3.618,0,0,0,44.16.21a3.582,3.582,0,0,0,3.09-1.44l-1.2-.96a2.182,2.182,0,0,1-1.905.93A2,2,0,0,1,42.09-3.03h5.475C47.58-3.2,47.58-3.345,47.58-3.51Zm6.855-2.805a3.484,3.484,0,0,0-2.7-1.095c-1.425,0-2.865.69-2.865,2.3,0,1.35,1.065,1.785,2.13,2.04,1.1.255,1.65.435,1.65,1.035,0,.645-.63.855-1.155.855a2.346,2.346,0,0,1-1.845-.9L48.465-.975A4.06,4.06,0,0,0,51.42.21c1.575,0,3-.645,3-2.4,0-1.41-1.26-1.89-2.325-2.145-1.005-.24-1.56-.39-1.56-.945,0-.57.585-.78,1.155-.78a2.039,2.039,0,0,1,1.575.78ZM56.01,0h1.8V-7.2h-1.8Zm-.255-9.645a1.109,1.109,0,0,0,1.14,1.08,1.107,1.107,0,0,0,1.17-1.08,1.107,1.107,0,0,0-1.17-1.08A1.109,1.109,0,0,0,55.755-9.645ZM65.61-7.2v1.08h-.03a2.8,2.8,0,0,0-2.475-1.29A3.521,3.521,0,0,0,59.58-3.63,3.553,3.553,0,0,0,63.135.12,2.834,2.834,0,0,0,65.49-.96h.03v.525c0,1.425-.54,2.475-2.28,2.475a3.7,3.7,0,0,1-2.52-1.02l-1.035,1.4A6.034,6.034,0,0,0,63.255,3.6c2.805,0,4.065-1.65,4.065-4.245V-7.2ZM63.48-5.94a2.15,2.15,0,0,1,2.13,2.3,2.157,2.157,0,0,1-2.145,2.28,2.147,2.147,0,0,1-2.055-2.28A2.088,2.088,0,0,1,63.48-5.94Zm6,5.94h1.8V-3.96a1.761,1.761,0,0,1,1.68-1.95c1.155,0,1.35,1.065,1.35,1.92V0h1.8V-4.5a2.621,2.621,0,0,0-2.655-2.91A2.451,2.451,0,0,0,71.22-6.045h-.03V-7.2H69.48Z" transform="translate(407 3036.725)" fill="#080808"/>
        </g>
      </g>
      <g id="Mask_Group_59" data-name="Mask Group 59" transform="translate(623 -462)" clip-path="url(#clip-path-6)">
        <g id="Group_314" data-name="Group 314" transform="translate(2 -285)">
          <path id="Path_710" data-name="Path 710" d="M8.334,0A4,4,0,0,0,4.426,4.177a22.463,22.463,0,0,1-.7,7C3.041,13.385,1.886,14.786,0,14.966V17c1.886.18,3.041,1.581,3.723,3.793a22.461,22.461,0,0,1,.7,7,4,4,0,0,0,3.908,4.177H31.793a4,4,0,0,0,3.907-4.18,22.464,22.464,0,0,1,.7-7c.683-2.211,1.835-3.613,3.721-3.793v-2.03c-1.886-.18-3.038-1.581-3.721-3.793a22.461,22.461,0,0,1-.7-7A4,4,0,0,0,31.793,0H8.33ZM27.2,19.675c0,2.993-2.232,4.807-5.936,4.807H14.961a.68.68,0,0,1-.681-.682V8.161a.68.68,0,0,1,.68-.68H21.23c3.088,0,5.116,1.673,5.116,4.241a3.8,3.8,0,0,1-3.1,3.7v.094A4.131,4.131,0,0,1,27.2,19.675ZM20.58,9.636h-3.6v5.078h3.028c2.341,0,3.632-.943,3.632-2.627C23.644,10.509,22.533,9.636,20.58,9.636Zm-3.6,7.094v5.6h3.728c2.437,0,3.728-.98,3.728-2.816s-1.33-2.78-3.885-2.78h-3.57Z" transform="translate(364 2981)" fill="#080808" fill-rule="evenodd"/>
          <path id="Path_720" data-name="Path 720" d="M1.17,0H4.995c2.01,0,4.02-.78,4.02-3.09A2.45,2.45,0,0,0,6.72-5.6v-.03A2.362,2.362,0,0,0,8.565-7.95c0-1.935-1.65-2.67-3.255-2.67H1.17ZM3.06-9.06H4.575c1.425,0,2.1.375,2.1,1.32C6.675-6.825,6-6.3,4.74-6.3H3.06Zm0,4.38H4.83c1.53,0,2.3.39,2.3,1.5,0,1.4-1.395,1.59-2.37,1.59H3.06Zm7.3,1.05A3.781,3.781,0,0,0,14.28.21a3.781,3.781,0,0,0,3.915-3.84A3.733,3.733,0,0,0,14.28-7.41,3.733,3.733,0,0,0,10.365-3.63Zm1.83,0A2.12,2.12,0,0,1,14.28-5.94a2.12,2.12,0,0,1,2.085,2.31A2.146,2.146,0,0,1,14.28-1.29,2.146,2.146,0,0,1,12.195-3.63Zm7.32,0A3.781,3.781,0,0,0,23.43.21a3.781,3.781,0,0,0,3.915-3.84A3.733,3.733,0,0,0,23.43-7.41,3.733,3.733,0,0,0,19.515-3.63Zm1.83,0A2.12,2.12,0,0,1,23.43-5.94a2.12,2.12,0,0,1,2.085,2.31A2.146,2.146,0,0,1,23.43-1.29,2.146,2.146,0,0,1,21.345-3.63ZM29.31-5.76V-2.4c0,1.38.435,2.55,2.34,2.55a3.726,3.726,0,0,0,1.2-.2l-.06-1.41a1.882,1.882,0,0,1-.765.15c-.795,0-.945-.465-.945-1.11V-5.76h1.8V-7.2h-1.8V-9.285H29.31V-7.2H28.05v1.44Zm9.99-.555A3.484,3.484,0,0,0,36.6-7.41c-1.425,0-2.865.69-2.865,2.3,0,1.35,1.065,1.785,2.13,2.04,1.1.255,1.65.435,1.65,1.035,0,.645-.63.855-1.155.855a2.346,2.346,0,0,1-1.845-.9L33.33-.975A4.06,4.06,0,0,0,36.285.21c1.575,0,3-.645,3-2.4,0-1.41-1.26-1.89-2.325-2.145-1.005-.24-1.56-.39-1.56-.945,0-.57.585-.78,1.155-.78a2.039,2.039,0,0,1,1.575.78Zm1.77.555V-2.4c0,1.38.435,2.55,2.34,2.55a3.726,3.726,0,0,0,1.2-.2l-.06-1.41a1.882,1.882,0,0,1-.765.15c-.8,0-.945-.465-.945-1.11V-5.76h1.8V-7.2h-1.8V-9.285H41.07V-7.2H39.81v1.44ZM45.945,0h1.8V-3.855A1.879,1.879,0,0,1,49.68-5.79a2.1,2.1,0,0,1,.555.075v-1.65A2.036,2.036,0,0,0,49.8-7.41,2.331,2.331,0,0,0,47.7-6h-.03V-7.2H45.945ZM55.68,0h1.68V-4.38c0-1.44-.63-3.03-3.21-3.03A4.543,4.543,0,0,0,51.1-6.27l.93,1.095A2.878,2.878,0,0,1,54-6c.9,0,1.65.435,1.65,1.32v.18c-2.25,0-4.95.3-4.95,2.445C50.7-.375,52.245.18,53.4.18a2.553,2.553,0,0,0,2.235-1.1h.045Zm-.03-3.03a1.7,1.7,0,0,1-1.89,1.845c-.615,0-1.26-.21-1.26-.9,0-1.065,1.6-1.2,2.745-1.2h.4ZM59.46-7.2V3.6h1.8V-.96h.03A2.821,2.821,0,0,0,63.675.21a3.566,3.566,0,0,0,3.54-3.84A3.543,3.543,0,0,0,63.72-7.41,2.851,2.851,0,0,0,61.23-6.2h-.045V-7.2Zm5.925,3.57a2.153,2.153,0,0,1-2.07,2.34A2.211,2.211,0,0,1,61.2-3.6a2.238,2.238,0,0,1,2.115-2.34A2.127,2.127,0,0,1,65.385-3.63Z" transform="translate(409 3000.62)" fill="#080808"/>
        </g>
      </g>
    </g>
  </g>
</svg>
