<svg xmlns="http://www.w3.org/2000/svg" xmlns:xlink="http://www.w3.org/1999/xlink" width="270" height="180" viewBox="0 0 270 180">
  <defs>
    <clipPath id="clip-path">
      <rect id="Rectangle_88" data-name="Rectangle 88" width="120" height="60" transform="translate(518 2174)"/>
    </clipPath>
    <clipPath id="clip-path-2">
      <rect id="Rectangle_89" data-name="Rectangle 89" width="120" height="60" transform="translate(513 2456)"/>
    </clipPath>
    <clipPath id="clip-path-3">
      <rect id="Rectangle_93" data-name="Rectangle 93" width="120" height="60" transform="translate(404 2301)" fill="#fff"/>
    </clipPath>
    <clipPath id="clip-path-4">
      <rect id="Rectangle_95" data-name="Rectangle 95" width="120" height="60" transform="translate(272 2488)"/>
    </clipPath>
    <clipPath id="clip-path-5">
      <rect id="Rectangle_94" data-name="Rectangle 94" width="120" height="60" transform="translate(244 2463)" fill="#fff"/>
    </clipPath>
    <clipPath id="clip-path-6">
      <rect id="Rectangle_96" data-name="Rectangle 96" width="120" height="60" transform="translate(443 2356)" fill="#fff"/>
    </clipPath>
  </defs>
  <g id="Group_327" data-name="Group 327" transform="translate(-173 -1775)">
    <g id="Mask_Group_5" data-name="Mask Group 5" transform="translate(-345 -399)" clip-path="url(#clip-path)">
      <g id="Group_267" data-name="Group 267" transform="translate(518.83 2187.833)">
        <g id="Group_266" data-name="Group 266">
          <circle id="Ellipse_27" data-name="Ellipse 27" cx="3.412" cy="3.412" r="3.412" transform="translate(14.876 12.735)" fill="#080808"/>
          <g id="Group_265" data-name="Group 265">
            <path id="Path_586" data-name="Path 586" d="M18.33,8.565h0a39.142,39.142,0,0,1,12.315,1.807,15.538,15.538,0,0,1,4.833,2.549,4.641,4.641,0,0,1,1.97,3.412c0,2.352-2.774,4.731-7.24,6.211A39.319,39.319,0,0,1,18.33,24.169,38.756,38.756,0,0,1,6.208,22.53a15.429,15.429,0,0,1-4.995-2.675,4.849,4.849,0,0,1-2-3.522,4.628,4.628,0,0,1,1.9-3.384A14.941,14.941,0,0,1,5.85,10.406,39.25,39.25,0,0,1,18.33,8.565Zm0,13.941a37.645,37.645,0,0,0,11.355-1.54c4.191-1.389,6.1-3.375,6.1-4.633A3.162,3.162,0,0,0,34.413,14.2,13.9,13.9,0,0,0,30.1,11.944a37.457,37.457,0,0,0-11.77-1.716h0A38.117,38.117,0,0,0,6.4,11.976C2.582,13.306.874,15.122.874,16.333c0,1.26,1.837,3.245,5.872,4.624A37.124,37.124,0,0,0,18.33,22.506Z" transform="translate(-0.043 -0.186)" fill="#080808"/>
            <path id="Path_587" data-name="Path 587" d="M26.237-.818a3.462,3.462,0,0,1,1.753.433C30.027.791,30.7,4.383,29.753,8.991a39.3,39.3,0,0,1-4.526,11.1,38.745,38.745,0,0,1-7.475,9.682c-2.482,2.17-5.045,3.414-7.032,3.414a3.619,3.619,0,0,1-1.832-.449A4.626,4.626,0,0,1,6.907,29.4a14.942,14.942,0,0,1,.163-5.374A39.264,39.264,0,0,1,11.709,12.3l.266-.462h0a38.675,38.675,0,0,1,7.448-9.3C21.909.372,24.327-.817,26.237-.818ZM10.72,31.525c1.567,0,3.786-1.123,5.938-3a37.113,37.113,0,0,0,7.129-9.261A37.625,37.625,0,0,0,28.125,8.655c.891-4.325.124-6.971-.966-7.6a1.833,1.833,0,0,0-.922-.211c-1.465,0-3.6,1.1-5.718,2.941a37.458,37.458,0,0,0-7.369,9.342l-.122.211a37.915,37.915,0,0,0-4.325,11C7.949,28.308,8.67,30.7,9.718,31.3A1.992,1.992,0,0,0,10.72,31.525Z" transform="translate(-0.181 -0.014)" fill="#080808"/>
            <path id="Path_588" data-name="Path 588" d="M26.224,33.2c-1.882,0-4.248-1.144-6.662-3.221A39.252,39.252,0,0,1,11.717,20.1,39.149,39.149,0,0,1,7.111,8.541,15.538,15.538,0,0,1,6.9,3.081,4.641,4.641,0,0,1,8.861-.334a3.553,3.553,0,0,1,1.8-.446c2,0,4.622,1.312,7.2,3.6a39.318,39.318,0,0,1,7.357,9.466A38.748,38.748,0,0,1,29.876,23.6a15.429,15.429,0,0,1,.187,5.663,4.848,4.848,0,0,1-2.045,3.5,3.533,3.533,0,0,1-1.794.437ZM10.665.883a1.925,1.925,0,0,0-.971.223,3.162,3.162,0,0,0-1.16,2.258,13.9,13.9,0,0,0,.208,4.858,37.464,37.464,0,0,0,4.413,11.049,38.12,38.12,0,0,0,7.491,9.451c2.082,1.791,4.114,2.819,5.577,2.819a1.9,1.9,0,0,0,.961-.222c1.091-.631,1.888-3.216,1.06-7.4a37.115,37.115,0,0,0-4.463-10.8A37.644,37.644,0,0,0,16.76,4.064C14.516,2.072,12.238.883,10.665.883Z" transform="translate(-0.182 -0.014)" fill="#080808"/>
          </g>
        </g>
        <path id="Path_589" data-name="Path 589" d="M64.409,38.557,60.228,32.24a4.283,4.283,0,0,0,4.018-4.515,4.517,4.517,0,0,0-4.854-4.668H53.168v15.49H55.1V32.391h3.089l3.948,6.155Zm-5.249-7.85H55.1V24.786h4.064a2.965,2.965,0,1,1,0,5.924Zm12.425,8.128a6.1,6.1,0,0,0,4.459-1.718l-.836-1.139a4.9,4.9,0,0,1-3.46,1.416,3.953,3.953,0,0,1-4.041-3.877h9.08v-.442c0-3.367-2-6.015-5.389-6.015a5.609,5.609,0,0,0-5.526,5.876,5.554,5.554,0,0,0,5.713,5.89Zm3.485-6.6H67.708a3.743,3.743,0,0,1,3.669-3.74,3.636,3.636,0,0,1,3.693,3.744Zm13.285,6.318v-7.71c0-2.717-1.973-3.786-4.343-3.786a5.868,5.868,0,0,0-4.482,1.858l.813,1.207a4.457,4.457,0,0,1,3.438-1.556c1.626,0,2.834.859,2.834,2.369v2.02a4.69,4.69,0,0,0-3.715-1.53,3.675,3.675,0,0,0-3.926,3.693A3.736,3.736,0,0,0,82.9,38.834a4.852,4.852,0,0,0,3.716-1.556v1.276Zm-4.829-.976a2.468,2.468,0,1,1,0-4.9,3.757,3.757,0,0,1,3.089,1.394v2.113a3.758,3.758,0,0,1-3.089,1.394Zm13.252,1.254a4.8,4.8,0,0,0,4.111-1.95l-1.161-1.068a3.377,3.377,0,0,1-2.847,1.463c-2.392,0-3.877-1.858-3.877-4.343s1.486-4.319,3.877-4.319a3.3,3.3,0,0,1,2.847,1.463l1.161-1.068a4.8,4.8,0,0,0-4.111-1.95,5.542,5.542,0,0,0-5.6,5.876,5.54,5.54,0,0,0,5.6,5.89Zm9.384,0a2.855,2.855,0,0,0,2.091-.72l-.51-1.3a1.665,1.665,0,0,1-1.185.464c-.766,0-1.139-.6-1.139-1.44V28.872H107.7V27.34h-2.277V24.274h-1.742V27.34h-1.858v1.533h1.858v7.339c0,1.673.836,2.625,2.485,2.625Z" transform="translate(-8.252 -13.695)" fill="#080808" fill-rule="evenodd"/>
      </g>
    </g>
    <g id="Mask_Group_6" data-name="Mask Group 6" transform="translate(-340 -621)" clip-path="url(#clip-path-2)">
      <g id="Group_271" data-name="Group 271" transform="translate(506.832 2457.127)">
        <path id="Path_594" data-name="Path 594" d="M68.936,27.287h2.61v9.32h-2.61V35.4a3.172,3.172,0,0,1-2.889,1.491,4.7,4.7,0,0,1-4.753-4.939,4.612,4.612,0,0,1,4.567-4.939A3.226,3.226,0,0,1,68.843,28.5V27.287Zm-4.846,4.66a2.5,2.5,0,0,0,2.61,2.61,2.544,2.544,0,0,0,2.61-2.61,2.5,2.5,0,0,0-2.61-2.61,2.544,2.544,0,0,0-2.61,2.61Zm12.582-2.423v7.083h-2.61V29.524H73.037V27.287h1.025V24.119h2.61v3.169h1.771v2.237Zm7.922,0a2.346,2.346,0,0,0-1.491-.652c-.652,0-1.025.28-1.025.746,0,.28.093.559.839.839l.652.186c.746.28,1.864.559,2.33,1.3a2.666,2.666,0,0,1,.466,1.584,2.99,2.99,0,0,1-1.025,2.33,4.125,4.125,0,0,1-2.8,1.025A4.758,4.758,0,0,1,78.908,35.3l1.4-1.584a3.239,3.239,0,0,0,2.05,1.118c.746,0,1.3-.373,1.3-1.025a1,1,0,0,0-.839-.932l-.559-.186A5.913,5.913,0,0,1,80.3,31.573a2.386,2.386,0,0,1-.746-1.771,3.069,3.069,0,0,1,.932-2.144,3.982,3.982,0,0,1,2.423-.652A4.7,4.7,0,0,1,85.9,28.033ZM90.278,28.5a3.537,3.537,0,0,1,2.982-1.491,4.612,4.612,0,0,1,4.567,4.939,4.63,4.63,0,0,1-4.66,4.939A3.578,3.578,0,0,1,90.185,35.4v1.212H87.669V20.95h2.61ZM90,31.947a2.5,2.5,0,0,0,2.61,2.61,2.544,2.544,0,0,0,2.61-2.61,2.61,2.61,0,1,0-5.219,0Zm12.116,3.262-4.473-7.922h3.076l2.889,5.312,2.61-5.312H109.2l-7.456,14.259H98.759ZM60.642,28.872H54.118v2.61h3.448a4.067,4.067,0,0,1-4.287,2.982,4.739,4.739,0,0,1-4.66-4.939,4.747,4.747,0,0,1,4.567-5.033A5.036,5.036,0,0,1,57.1,26.449l2.144-1.4a7.378,7.378,0,0,0-6.058-3.076,7.5,7.5,0,1,0,7.456,7.549,1.523,1.523,0,0,0,0-.652Z" transform="translate(-2.691 -0.549)" fill="#080808"/>
        <path id="Path_595" data-name="Path 595" d="M34.921,29.085h-7.98v2.281h5.473a10.338,10.338,0,0,1-6.614,7.41L12.689,25.664a10.249,10.249,0,0,1,9.691-6.831,10.524,10.524,0,0,1,8.437,4.334l1.71-1.491A12.541,12.541,0,0,0,10.171,26.35L25.22,41.4a12.828,12.828,0,0,0,9.7-12.315ZM9.838,29.2a12.178,12.178,0,0,0,3.649,8.665,12.375,12.375,0,0,0,8.665,3.649Z" transform="translate(-0.25 -0.25)" fill="#fff"/>
        <path id="Path_596" data-name="Path 596" d="M22.13,12.873A15.962,15.962,0,1,0,38.092,28.835,15.962,15.962,0,0,0,22.13,12.873ZM13.237,37.729a12.373,12.373,0,0,1-3.649-8.665L22.015,41.377a12.944,12.944,0,0,1-8.779-3.649Zm11.628,3.315L9.93,26.1a12.541,12.541,0,0,1,22.356-4.674l-1.71,1.491a10.527,10.527,0,0,0-8.437-4.334,10.369,10.369,0,0,0-9.691,6.841L25.56,38.534a10.333,10.333,0,0,0,6.612-7.411h-5.48V28.835h7.98a12.6,12.6,0,0,1-9.8,12.209Z" fill="#080808"/>
      </g>
    </g>
    <g id="Mask_Group_7" data-name="Mask Group 7" transform="translate(-81 -526)" clip-path="url(#clip-path-3)">
      <g id="next-js-seeklogo.com" transform="translate(404 2303)">
        <path id="Path_11" data-name="Path 11" d="M22.033,14.692h17.61v1.4h-16V26.627H38.691v1.4H23.647V39.594h16.18v1.4H22.033Zm19.19,0H43.09l8.292,11.567,8.475-11.567L71.39,0,52.449,27.475l9.762,13.519H60.265l-8.879-12.3-8.917,12.3H40.562L50.4,27.475Zm21.684,1.4v-1.4h20.07v1.4H73.73v24.9H72.117v-24.9ZM0,14.692H2.018L29.845,56.333l-11.5-15.339L1.688,16.681,1.613,40.994H0ZM82.814,39.171a.586.586,0,1,1,.577-.586.57.57,0,0,1-.577.586ZM84.4,37.631h.864a.789.789,0,0,0,.856.783c.561,0,.879-.34.879-.971V33.431h.879v4.014a1.626,1.626,0,0,1-1.751,1.8A1.582,1.582,0,0,1,84.4,37.631Zm4.63-.051H89.9c.075.539.6.88,1.358.88.707,0,1.225-.366,1.225-.869,0-.432-.33-.692-1.08-.869l-.73-.177c-1.025-.24-1.492-.735-1.492-1.569,0-1.01.824-1.682,2.061-1.682a1.849,1.849,0,0,1,2.042,1.627H92.43a1.082,1.082,0,0,0-1.2-.849c-.7,0-1.159.334-1.159.849,0,.4.3.637,1.036.81l.624.154c1.162.272,1.642.743,1.642,1.6,0,1.085-.84,1.766-2.183,1.766-1.255,0-2.1-.654-2.163-1.668Z"/>
      </g>
    </g>
    <g id="Mask_Group_8" data-name="Mask Group 8" transform="translate(51 -653)" clip-path="url(#clip-path-4)">
      <g id="Group_275" data-name="Group 275" transform="translate(-6815.526 -3565.005)">
        <path id="Exclusion_1" data-name="Exclusion 1" d="M13.6,31.375a5.035,5.035,0,0,1-2.508-.67L2.681,25.862A5.364,5.364,0,0,1,0,21.226V10.81a5.477,5.477,0,0,1,2.615-4.69l8.27-5.105a5.19,5.19,0,0,1,5.334-.07l9.2,5.353a4.64,4.64,0,0,1,2.3,4V21.274a4.954,4.954,0,0,1-2.52,4.31l-9.136,5.144A5.036,5.036,0,0,1,13.6,31.375Zm.009-30.047a4.1,4.1,0,0,0-2.155.611L3.186,7.045a4.424,4.424,0,0,0-2.1,3.765V21.226a4.264,4.264,0,0,0,2.137,3.7l8.413,4.842a3.942,3.942,0,0,0,3.9.018l9.136-5.144a3.867,3.867,0,0,0,1.967-3.364V10.3a3.54,3.54,0,0,0-1.76-3.06l-9.2-5.353A4.108,4.108,0,0,0,13.611,1.328Zm92.282,29.9a4.469,4.469,0,0,1-2.228-.6l-8.547-4.92A5.686,5.686,0,0,1,92.276,20.8V11.1A6.265,6.265,0,0,1,95.313,5.75L103.2,1.038a5.43,5.43,0,0,1,5.485-.051l9.031,5.173A4.556,4.556,0,0,1,120,10.105V21.548a4.3,4.3,0,0,1-2.228,3.77l-9.725,5.357A4.478,4.478,0,0,1,105.893,31.229Zm.09-29.873a4.347,4.347,0,0,0-2.229.615L95.87,6.682a5.148,5.148,0,0,0-2.508,4.42v9.7a4.585,4.585,0,0,0,2.3,3.974l8.547,4.92a3.38,3.38,0,0,0,3.316.031l9.725-5.357a3.218,3.218,0,0,0,1.665-2.819V10.105a3.459,3.459,0,0,0-1.74-3L108.143,1.93A4.351,4.351,0,0,0,105.983,1.356Zm-30.9,29.839a4.631,4.631,0,0,1-2.327-.628l-8.513-4.956a5.609,5.609,0,0,1-2.779-4.832V11.212a6.587,6.587,0,0,1,3.2-5.635L72.557.882A4.948,4.948,0,0,1,77.535.835l9.437,5.372a4.393,4.393,0,0,1,2.216,3.811V21.241a4.71,4.71,0,0,1-2.417,4.112L77.333,30.61A4.635,4.635,0,0,1,75.083,31.195Zm0-29.922a3.864,3.864,0,0,0-1.975.543L65.223,6.51a5.47,5.47,0,0,0-2.673,4.7v9.567a4.5,4.5,0,0,0,2.239,3.894L73.3,29.628a3.54,3.54,0,0,0,3.5.033L86.243,24.4A3.623,3.623,0,0,0,88.1,21.241V10.018a3.3,3.3,0,0,0-1.667-2.867L77,1.779h0A3.868,3.868,0,0,0,75.087,1.273ZM44.271,31.182a4.712,4.712,0,0,1-2.367-.639L33.39,25.588a5.529,5.529,0,0,1-2.739-4.762v-9.9A6.116,6.116,0,0,1,33.57,5.69L41.558.751A5.028,5.028,0,0,1,46.75.694l9.431,5.543A4.323,4.323,0,0,1,58.3,9.924l.059,11.156a4.947,4.947,0,0,1-2.54,4.35l-9.263,5.158A4.717,4.717,0,0,1,44.271,31.182ZM44.2,1.086a3.94,3.94,0,0,0-2.073.589L34.141,6.614a5.068,5.068,0,0,0-2.4,4.311v9.9a4.425,4.425,0,0,0,2.2,3.824L42.45,29.6a3.621,3.621,0,0,0,3.583.034l9.262-5.158a3.862,3.862,0,0,0,1.982-3.4L57.218,9.93a3.218,3.218,0,0,0-1.587-2.757L46.2,1.63A3.945,3.945,0,0,0,44.2,1.086ZM13.6,29.2a2.861,2.861,0,0,1-1.425-.381L3.765,23.98a3.186,3.186,0,0,1-1.593-2.754V10.81A3.317,3.317,0,0,1,3.757,7.969l8.27-5.105a3.017,3.017,0,0,1,3.1-.041l9.2,5.353a2.461,2.461,0,0,1,1.22,2.121V21.274a2.778,2.778,0,0,1-1.413,2.418L15,28.835A2.861,2.861,0,0,1,13.6,29.2Zm92.291-.146a2.3,2.3,0,0,1-1.144-.306L96.2,23.831A3.509,3.509,0,0,1,94.448,20.8V11.1a4.082,4.082,0,0,1,1.979-3.488L104.312,2.9a3.257,3.257,0,0,1,3.291-.03l9.031,5.173a2.379,2.379,0,0,1,1.194,2.059V21.548a2.132,2.132,0,0,1-1.1,1.867L107,28.772A2.3,2.3,0,0,1,105.893,29.057Zm-30.811-.034a2.457,2.457,0,0,1-1.234-.333l-8.513-4.956a3.429,3.429,0,0,1-1.7-2.955V11.212a4.4,4.4,0,0,1,2.143-3.768l7.889-4.694a2.774,2.774,0,0,1,2.792-.026L85.9,8.1a2.217,2.217,0,0,1,1.118,1.923V21.241a2.536,2.536,0,0,1-1.3,2.215l-9.438,5.256A2.459,2.459,0,0,1,75.083,29.022ZM44.271,29.01A2.536,2.536,0,0,1,43,28.666L34.483,23.71a3.349,3.349,0,0,1-1.659-2.885v-9.9a3.957,3.957,0,0,1,1.888-3.388L42.7,2.6a2.856,2.856,0,0,1,2.949-.033l9.431,5.543a2.141,2.141,0,0,1,1.052,1.826l.059,11.156a2.775,2.775,0,0,1-1.424,2.44L45.5,28.69A2.54,2.54,0,0,1,44.271,29.01Z" transform="translate(7087.526 6067.005)" fill="#080808"/>
        <path id="Path_604" data-name="Path 604" d="M192.607,89.15a8.569,8.569,0,1,1-8.57,8.569A8.573,8.573,0,0,1,192.607,89.15Zm0,3.183a5.385,5.385,0,1,1-5.385,5.385,5.388,5.388,0,0,1,5.385-5.385Zm-22.832,5.254c0,3.8-.719,4.9-2.157,6.483a7.251,7.251,0,0,1-5.72,2.218,7.914,7.914,0,0,1-5.439-2.11,8.557,8.557,0,0,1,5.608-15.028,8.835,8.835,0,0,1,7.276,3.824l-2.553,2.158c-1.082-2.014-2.65-2.692-4.893-2.756a5.162,5.162,0,0,0-5.008,5.451,5.379,5.379,0,0,0,4.9,5.356c2.084.292,4.454-1.932,4.454-3.141h-3.916V97.024h7.442v.562Zm-45.261-7.615h3.4V99a19.778,19.778,0,0,0,.118,2.784,2.454,2.454,0,0,0,.9,1.569,2.946,2.946,0,0,0,2,.53,2.066,2.066,0,0,0,1.662-.531,2.1,2.1,0,0,0,.827-1.33,16.489,16.489,0,0,0,.247-2.83V89.973h3.4v8.751a23.723,23.723,0,0,1-.258,4.239,4.54,4.54,0,0,1-2.8,3.45,7.664,7.664,0,0,1-3.029.505,8.281,8.281,0,0,1-3.421-.551,4.918,4.918,0,0,1-1.842-1.432,4.69,4.69,0,0,1-.891-1.847,21.372,21.372,0,0,1-.312-4.228V89.973h0Zm-30.6,16.133V89.436H97.4v6.072h5.786V89.436h3.5v16.671h-3.5v-7.29H97.4v7.29Z" transform="translate(7001.092 5984.97)" fill="#fff" fill-rule="evenodd"/>
      </g>
    </g>
    <g id="Mask_Group_9" data-name="Mask Group 9" transform="translate(-71 -568)" clip-path="url(#clip-path-5)">
      <g id="Group_277" data-name="Group 277" transform="translate(235.011 2463.055)">
        <path id="Path_608" data-name="Path 608" d="M41.9,11.952H50L29.561,47.171,8.989,11.952h8.278l12.294,21.2Z" fill="#080808" fill-rule="evenodd"/>
        <path id="Path_609" data-name="Path 609" d="M34.651,11.945h7.7l-12.4,21.247-12.3-21.247H25.22l4.726,8.18Z" transform="translate(-0.396)" fill="#080808" fill-rule="evenodd" opacity="0.91"/>
        <path id="Path_610" data-name="Path 610" d="M57.026,19.188a.755.755,0,0,1,.433-.65,1.732,1.732,0,0,1,.9-.26.746.746,0,0,1,.813.494L63.792,34.2l4.589-15.433a.752.752,0,0,1,.787-.494,1.658,1.658,0,0,1,.931.286.8.8,0,0,1,.433.65.348.348,0,0,1-.013.078.421.421,0,0,0-.013.1L65.182,36.673a1.31,1.31,0,0,1-1.39.753q-1.1,0-1.337-.753L57.079,19.4a.844.844,0,0,1-.052-.208Zm13.712,13.3V25.735a.667.667,0,0,1,.328-.546,1.3,1.3,0,0,1,.774-.234,1.21,1.21,0,0,1,.747.247.683.683,0,0,1,.328.533V32.49a2.975,2.975,0,0,0,.892,2.1,2.863,2.863,0,0,0,4.222.013,2.96,2.96,0,0,0,.892-2.118V25.709a.651.651,0,0,1,.328-.52,1.3,1.3,0,0,1,.774-.234,1.276,1.276,0,0,1,.774.221.646.646,0,0,1,.3.533V32.49a4.727,4.727,0,0,1-1.534,3.495,5.194,5.194,0,0,1-7.29,0,4.727,4.727,0,0,1-1.534-3.5Zm12.138-.052V29.71a4.6,4.6,0,0,1,1.534-3.456A5.164,5.164,0,0,1,88.094,24.8a5.077,5.077,0,0,1,3.54,1.364,4.432,4.432,0,0,1,1.495,3.417,3.288,3.288,0,0,1-.184,1.208,1.2,1.2,0,0,1-.564.65,2.394,2.394,0,0,1-.708.247,5.871,5.871,0,0,1-.879.052H85.052v.779A2.818,2.818,0,0,0,86.088,34.8a4.077,4.077,0,0,0,2.688.857,4.006,4.006,0,0,0,1.508-.26,6.745,6.745,0,0,0,1.036-.507,1.308,1.308,0,0,1,.629-.247.786.786,0,0,1,.629.325,1.049,1.049,0,0,1,.262.663q0,.6-1.193,1.221a6.317,6.317,0,0,1-2.95.624,6.23,6.23,0,0,1-4.2-1.39,4.57,4.57,0,0,1-1.626-3.65Zm2.177-2.156H89.9a1.714,1.714,0,0,0,.918-.169.77.77,0,0,0,.236-.663,2.986,2.986,0,0,0-2.989-2.936,3.034,3.034,0,0,0-2.124.818,2.626,2.626,0,0,0-.892,2.014Zm9.175,5.794a1.343,1.343,0,0,1,.393-.974,1.3,1.3,0,0,1,.97-.4,1.273,1.273,0,0,1,.944.4,1.343,1.343,0,0,1,.393.974,1.313,1.313,0,0,1-.393.948,1.273,1.273,0,0,1-.944.4,1.359,1.359,0,0,1-1.364-1.351Zm1.937,6.21a.954.954,0,0,1,.262-.689.842.842,0,0,1,.629-.273,1.293,1.293,0,0,0,1.337-.753,6.172,6.172,0,0,0,.315-2.26v-12.6a.635.635,0,0,1,.3-.546,1.334,1.334,0,0,1,.774-.208,1.4,1.4,0,0,1,.787.208.629.629,0,0,1,.315.546v12.6a6.34,6.34,0,0,1-.892,3.585,3.035,3.035,0,0,1-2.7,1.325q-1.128,0-1.128-.935ZM98.419,20.33a1.132,1.132,0,0,1,.393-.857,1.376,1.376,0,0,1,.97-.364,1.342,1.342,0,0,1,.944.364,1.132,1.132,0,0,1,.393.857,1.172,1.172,0,0,1-.393.87,1.316,1.316,0,0,1-.944.377,1.362,1.362,0,0,1-.957-.377,1.156,1.156,0,0,1-.406-.87Zm4.088,15.17a1.159,1.159,0,0,1,.223-.663.644.644,0,0,1,.538-.325,1.162,1.162,0,0,1,.6.312,4.691,4.691,0,0,0,1.128.611,4.576,4.576,0,0,0,1.731.3,3.072,3.072,0,0,0,1.9-.468,1.435,1.435,0,0,0,.59-1.169,1.634,1.634,0,0,0-.656-1.364,4.565,4.565,0,0,0-1.6-.766q-.944-.26-1.888-.572a3.661,3.661,0,0,1-1.6-1.039,2.763,2.763,0,0,1-.656-1.923,3.523,3.523,0,0,1,1.062-2.559,4.365,4.365,0,0,1,3.239-1.078,7.253,7.253,0,0,1,2.544.429q1.154.429,1.154.974a1.34,1.34,0,0,1-.249.7.723.723,0,0,1-.616.39,6.6,6.6,0,0,1-1.01-.377,4.645,4.645,0,0,0-1.8-.377,2.53,2.53,0,0,0-1.8.559,1.7,1.7,0,0,0-.59,1.26,1.29,1.29,0,0,0,.656,1.143,5.387,5.387,0,0,0,1.613.65,19.085,19.085,0,0,1,1.9.572,3.557,3.557,0,0,1,1.6,1.156A3.282,3.282,0,0,1,111.187,34a3.1,3.1,0,0,1-1.154,2.546,4.992,4.992,0,0,1-3.225.935,6.678,6.678,0,0,1-3.042-.637q-1.259-.637-1.259-1.338Z" transform="translate(-2.198 -0.29)" fill="#080808" fill-rule="evenodd"/>
      </g>
    </g>
    <g id="Mask_Group_10" data-name="Mask Group 10" transform="translate(-120 -461)" clip-path="url(#clip-path-6)">
      <g id="Group_278" data-name="Group 278" transform="translate(442.988 2376)">
        <path id="Path_611" data-name="Path 611" d="M44.672,5.571a.878.878,0,0,1,.24.637v12.25a.984.984,0,0,1-.272.706.928.928,0,0,1-.7.287,1.385,1.385,0,0,1-.433-.068.744.744,0,0,1-.334-.212L35.243,8.837v9.727a.862.862,0,0,1-.84.887H34.35a.824.824,0,0,1-.625-.253.878.878,0,0,1-.24-.635V6.288a.932.932,0,0,1,.287-.695.9.9,0,0,1,.674-.272,1.229,1.229,0,0,1,.464.089.8.8,0,0,1,.342.252l7.9,10.356V6.208a.862.862,0,0,1,.84-.887h.053a.833.833,0,0,1,.625.25Zm16.3,0a.988.988,0,0,1,.252.7v7.749a5.8,5.8,0,0,1-.706,2.87,5.132,5.132,0,0,1-1.949,1.99,5.5,5.5,0,0,1-2.8.73,5.6,5.6,0,0,1-2.827-.72,5.115,5.115,0,0,1-1.957-1.99,5.8,5.8,0,0,1-.706-2.87V6.282a.928.928,0,0,1,.287-.7A1.008,1.008,0,0,1,51.3,5.3a.944.944,0,0,1,.677.287.919.919,0,0,1,.287.686v7.749a3.7,3.7,0,0,0,.48,1.889,3.48,3.48,0,0,0,3.028,1.765,3.6,3.6,0,0,0,1.8-.464,3.508,3.508,0,0,0,1.332-1.3,3.644,3.644,0,0,0,.493-1.889V6.268a1.022,1.022,0,0,1,.24-.7.86.86,0,0,1,.668-.287.875.875,0,0,1,.666.284ZM76.511,18a.947.947,0,0,1,.181.574.878.878,0,0,1-.287.686.96.96,0,0,1-.658.262.9.9,0,0,1-.786-.4L71.038,13.88,67.2,19.11a.926.926,0,0,1-.786.422.84.84,0,0,1-.617-.252.784.784,0,0,1-.252-.574,1.08,1.08,0,0,1,.24-.666l4.139-5.64L65.771,6.814a.938.938,0,0,1-.2-.574.918.918,0,0,1,.287-.692.944.944,0,0,1,.677-.287.982.982,0,0,1,.433.1.89.89,0,0,1,.353.3l3.877,5.209,3.84-5.16a.976.976,0,0,1,.767-.445.989.989,0,0,1,.924.9,1.015,1.015,0,0,1-.2.574L72.31,12.355ZM91.078,5.571a.881.881,0,0,1,.287.678.86.86,0,0,1-.287.666,1.021,1.021,0,0,1-.7.24h-3.6V18.483a.922.922,0,0,1-.287.686,1.108,1.108,0,0,1-1.475,0,.93.93,0,0,1-.287-.686V7.156H81.153a.988.988,0,0,1-.695-.25.881.881,0,0,1-.272-.677.862.862,0,0,1,.272-.658.988.988,0,0,1,.695-.25h9.229a1,1,0,0,1,.7.25Z" transform="translate(3.09 0.486)" fill="#080808"/>
        <path id="Path_612" data-name="Path 612" d="M90.405,19.1a4.248,4.248,0,0,1-1.576-1.56A1.021,1.021,0,0,1,88.646,17a.862.862,0,0,1,.3-.658.932.932,0,0,1,.625-.287,1.3,1.3,0,0,1,.91.505A2.437,2.437,0,0,0,92.6,17.728a2.582,2.582,0,0,0,1.877-.746,2.466,2.466,0,0,0,.769-1.837V6.294a.907.907,0,0,1,.3-.686,1,1,0,0,1,.706-.287.96.96,0,0,1,.72.272.944.944,0,0,1,.272.695v8.874a4.371,4.371,0,0,1-.6,2.262,4.457,4.457,0,0,1-1.664,1.633,4.691,4.691,0,0,1-2.374.608,4.378,4.378,0,0,1-2.2-.565Zm13.88.149a6.653,6.653,0,0,1-2.16-1.34,1.08,1.08,0,0,1-.422-.829.916.916,0,0,1,.287-.654.9.9,0,0,1,.666-.287.827.827,0,0,1,.574.221,5.615,5.615,0,0,0,1.664,1.1,5.04,5.04,0,0,0,1.949.36,3.786,3.786,0,0,0,2.149-.588,1.722,1.722,0,0,0,.878-1.472,1.889,1.889,0,0,0-.878-1.625,7.8,7.8,0,0,0-2.611-.96,7.009,7.009,0,0,1-3.2-1.394,3.36,3.36,0,0,1-1.12-2.683,3.571,3.571,0,0,1,.631-2.1,4.019,4.019,0,0,1,1.722-1.384,6.18,6.18,0,0,1,2.5-.48,6.84,6.84,0,0,1,2.363.4,4.968,4.968,0,0,1,1.8,1.07,1.148,1.148,0,0,1,.466.862.9.9,0,0,1-.272.646.862.862,0,0,1-.658.287.664.664,0,0,1-.462-.164,4.164,4.164,0,0,0-1.456-.887A4.829,4.829,0,0,0,106.932,7a3.7,3.7,0,0,0-2.15.557,1.786,1.786,0,0,0,0,2.976,7.521,7.521,0,0,0,2.374.89,12.518,12.518,0,0,1,2.584.806,3.64,3.64,0,0,1,1.544,1.291,3.883,3.883,0,0,1,.542,2.16,3.462,3.462,0,0,1-.654,2.078,4.328,4.328,0,0,1-1.788,1.415,6.028,6.028,0,0,1-2.483.505,7.483,7.483,0,0,1-2.612-.419Z" transform="translate(8.182 0.475)" fill="#080808"/>
        <path id="Path_613" data-name="Path 613" d="M8.385,19.77a1.023,1.023,0,0,1-.055-.112,1.44,1.44,0,0,1-.1-.81H1.721L11.4,1.817,14.575,7.4,15.5,5.772,12.728.893A1.693,1.693,0,0,0,11.376,0a1.5,1.5,0,0,0-1.312.9L.26,18.142A1.734,1.734,0,0,0,.174,19.77a1.508,1.508,0,0,0,1.44.692H9.821a1.5,1.5,0,0,1-1.435-.692Z" fill="#080808"/>
        <path id="Path_614" data-name="Path 614" d="M25.962,17.885,17.9,3.692a1.7,1.7,0,0,0-1.357-.9,1.5,1.5,0,0,0-1.312.9L14.189,5.514l.928,1.631,1.44-2.54,7.965,13.987H21.491a1.357,1.357,0,0,1-.064.689.874.874,0,0,1-.064.14l-.026.052a1.735,1.735,0,0,1-1.46.732h4.741a1.732,1.732,0,0,0,1.46-.732A1.5,1.5,0,0,0,25.962,17.885Z" transform="translate(1.309 0.258)" fill="#080808"/>
        <path id="Path_615" data-name="Path 615" d="M21.956,19.242l.026-.052a.874.874,0,0,0,.064-.14,1.357,1.357,0,0,0,.064-.689,2.1,2.1,0,0,0-.264-.706l-6.1-10.74-.932-1.631-.928,1.631-6.1,10.739a2.174,2.174,0,0,0-.24.706,1.44,1.44,0,0,0,.089.81,1.014,1.014,0,0,0,.055.112,1.508,1.508,0,0,0,1.44.691H20.487A1.739,1.739,0,0,0,21.956,19.242Zm-7.149-10.7,5.58,9.816H9.226Z" transform="translate(0.693 0.488)" fill="#080808"/>
      </g>
    </g>
  </g>
</svg>
