<svg xmlns="http://www.w3.org/2000/svg" xmlns:xlink="http://www.w3.org/1999/xlink" width="270" height="181" viewBox="0 0 270 181">
  <defs>
    <clipPath id="clip-path">
      <rect id="Rectangle_103" data-name="Rectangle 103" width="120" height="60" transform="translate(648 2405)" fill="#fff"/>
    </clipPath>
    <clipPath id="clip-path-2">
      <rect id="Rectangle_104" data-name="Rectangle 104" width="120" height="60" transform="translate(630 2263)" fill="#fff"/>
    </clipPath>
    <clipPath id="clip-path-3">
      <rect id="Rectangle_105" data-name="Rectangle 105" width="120" height="60" transform="translate(754 2386)" fill="#fff"/>
    </clipPath>
    <clipPath id="clip-path-4">
      <rect id="Rectangle_106" data-name="Rectangle 106" width="120" height="60" transform="translate(660 2542)" fill="#fff"/>
    </clipPath>
    <clipPath id="clip-path-5">
      <rect id="Rectangle_107" data-name="Rectangle 107" width="120" height="61" transform="translate(748 2467)" fill="#fff"/>
    </clipPath>
    <clipPath id="clip-path-6">
      <rect id="Rectangle_108" data-name="Rectangle 108" width="120" height="60" transform="translate(711 2438)" fill="#fff"/>
    </clipPath>
  </defs>
  <g id="Group_329" data-name="Group 329" transform="translate(-989 -1775)">
    <g id="Mask_Group_17" data-name="Mask Group 17" transform="translate(341 -630)" clip-path="url(#clip-path)">
      <g id="kpo5kblefbjq79065-Horizontal_Default" transform="translate(648 2420)">
        <path id="Path_12" data-name="Path 12" d="M12.805,11.56c-1.53-6.75-4.72-8.55-5.54-9.82A14.253,14.253,0,0,1,6.375,0a1.75,1.75,0,0,1-.63,1.43A16.191,16.191,0,0,0,.015,13.56c-.34,7.16,5.26,11.571,6,12.021a1.637,1.637,0,0,0,1.6-.25,13.9,13.9,0,0,0,5.19-13.771Z" fill="#080808"/>
        <path id="Path_13" data-name="Path 13" d="M8.879,29.979a14.557,14.557,0,0,1-.6,3.81s.23,1.69.4,3.47h.58a31.429,31.429,0,0,1,.64-3.74C9.149,33.149,8.909,31.529,8.879,29.979Z" transform="translate(-2.264 -8.198)" fill="#2d2c2c"/>
        <path id="Path_14" data-name="Path 14" d="M10.065,25.374c-.76-.35-.98-2.01-1.02-3.55a74.88,74.88,0,0,0,.17-7.64c-.04-1.34.02-12.371-.33-13.991a13.259,13.259,0,0,0,.82,1.59c.81,1.27,4.01,3.07,5.54,9.82a13.931,13.931,0,0,1-5.18,13.771Z" transform="translate(-2.43 -0.053)" fill="#191818"/>
        <path id="Path_15" data-name="Path 15" d="M148.494,30.244a1.626,1.626,0,1,1,.07,0Zm0-3.17a1.51,1.51,0,1,0,1.5,1.52v-.01a1.479,1.479,0,0,0-1.46-1.51Zm.4,2.56-.429-.92h-.34v.92h-.25v-2.1h.62c.46,0,.65.2.65.59a.507.507,0,0,1-.42.56l.44.95Zm-.76-1.14h.36c.29,0,.41-.1.41-.37s-.11-.36-.44-.36h-.331Z" transform="translate(-40.155 -7.363)" fill="#080808"/>
        <path id="Path_16" data-name="Path 16" d="M113.375,24.992a3.815,3.815,0,0,0,2.14.51,4.15,4.15,0,0,0,3.01-1.08,5.732,5.732,0,0,0,1.69-4.52,5.373,5.373,0,0,0-2.48-4.88,6.644,6.644,0,0,0-3.55-.82,2.888,2.888,0,0,0-1.05.13.535.535,0,0,0-.19.3c-.04.38-.04,3.27-.04,4.98,0,1.75,0,4.2.04,4.5a1.279,1.279,0,0,0,.43.88Zm-4.26-11.75c.36,0,1.74.06,2.38.06,1.2,0,2.031-.06,4.271-.06a6.913,6.913,0,0,1,4.59,1.48,6.138,6.138,0,0,1,2.1,4.84,6.279,6.279,0,0,1-2.61,5.43,8.638,8.638,0,0,1-5.4,1.52c-1.28,0-3.48-.04-5.32-.06h-.03c-.09-.17.16-.83.31-.84a2.988,2.988,0,0,0,.859-.17c.39-.16.48-.36.52-1.05.06-1.31.04-2.87.04-4.65,0-1.27.02-3.74-.02-4.52-.07-.65-.34-.82-.9-.95-.4-.08-.8-.15-1.2-.19a1.99,1.99,0,0,1,.41-.84Z" transform="translate(-29.727 -3.621)" fill="#080808"/>
        <path id="Path_17" data-name="Path 17" d="M133.335,14.337c-.081.02-.19.23-.19.34-.02.76-.04,2.75-.04,4.12a.139.139,0,0,0,.11.11c.28.02.96.04,1.54.04a3.826,3.826,0,0,0,1.54-.23,2,2,0,0,0,1-1.88c0-1.84-1.279-2.53-3.18-2.53a3.356,3.356,0,0,0-.78.03Zm4.85,8.44c0-1.86-1.37-2.91-3.87-2.91a10.278,10.278,0,0,0-1.09.02c-.06.02-.13.06-.13.11,0,1.33-.02,3.46.04,4.31a1.388,1.388,0,0,0,.62,1.01,4.3,4.3,0,0,0,1.65.23,2.57,2.57,0,0,0,2.779-2.77Zm-8.71-9.48c.19,0,.761.06,2.21.06,1.37,0,2.48-.04,3.8-.04,1.64,0,3.91.59,3.91,3.04a2.949,2.949,0,0,1-1.97,2.64c-.06.02-.06.06,0,.08,1.58.4,2.97,1.37,2.97,3.23,0,1.82-1.13,2.96-2.78,3.68a8.879,8.879,0,0,1-3.5.59c-.96,0-3.54-.1-4.97-.08-.15-.06.14-.74.27-.84a4,4,0,0,0,.97-.15c.51-.13.57-.29.64-1.05.04-.66.04-3,.04-4.67,0-2.28.02-3.82,0-4.58-.02-.59-.23-.78-.64-.89-.32-.06-.85-.13-1.28-.19-.1-.11.219-.75.329-.827Z" transform="translate(-35.306 -3.636)" fill="#080808"/>
        <path id="Path_18" data-name="Path 18" d="M24.074,28.173a.8.8,0,0,1-.06-.43.718.718,0,0,1,.06-.29,7.43,7.43,0,0,0,.82-.17c.38-.09.52-.3.54-.78.06-1.14.07-3.28.04-4.78v-.04a.62.62,0,0,0-.2-.54,4.236,4.236,0,0,0-1.13-.5c-.18-.05-.28-.15-.27-.26s.12-.24.35-.29a13.568,13.568,0,0,0,2.88-.74.412.412,0,0,1,.09.3,1.5,1.5,0,0,1-.02.21c-.02.21-.04.45-.04.69a.159.159,0,0,0,.18.14.149.149,0,0,0,.09-.04,5.3,5.3,0,0,1,2.86-1.29,2.449,2.449,0,0,1,2.18,1.34.153.153,0,0,0,.12.07.143.143,0,0,0,.12-.06,5.67,5.67,0,0,1,2.96-1.35c1.75,0,2.79,1.31,2.79,3.5,0,.63-.01,1.43-.01,2.17,0,.65-.01,1.27-.01,1.69a.569.569,0,0,0,.35.44,4.642,4.642,0,0,0,1.09.27h.02a1.539,1.539,0,0,1-.11.71c-.12,0-.28-.01-.48-.02-.36-.02-.86-.04-1.44-.04-1.16,0-1.77.02-2.35.06a1.892,1.892,0,0,1-.01-.71,5.628,5.628,0,0,0,.71-.16c.37-.12.48-.29.5-.78.01-.35.08-3.42-.04-4.15a1.855,1.855,0,0,0-1.93-1.64,3.382,3.382,0,0,0-1.92.73.288.288,0,0,0-.07.18v.01a8.214,8.214,0,0,1,.08,1.55V24.4c0,.85-.01,1.65,0,2.25a.571.571,0,0,0,.45.59c.11.02.2.04.28.06.17.04.34.08.6.12a1.183,1.183,0,0,1-.01.53.37.37,0,0,1-.08.18c-.65-.02-1.31-.04-2.27-.04-.29,0-.76.01-1.18.02-.34.01-.66.02-.84.02a.781.781,0,0,1-.06-.37.567.567,0,0,1,.07-.34l.26-.05c.22-.04.42-.07.6-.12.32-.1.44-.27.46-.68a32.661,32.661,0,0,0-.02-4.33,1.774,1.774,0,0,0-1.84-1.64,3.465,3.465,0,0,0-1.92.73.588.588,0,0,0-.18.44v1.12c0,1.36-.01,3.05.02,3.79a.6.6,0,0,0,.52.59,3.63,3.63,0,0,0,.44.08c.11.02.22.04.34.06a1.427,1.427,0,0,1-.06.71c-.19,0-.41-.01-.68-.02-.4-.02-.9-.04-1.46-.04-.67,0-1.13.02-1.51.04a2.68,2.68,0,0,1-.67.073Z" transform="translate(-6.529 -5.292)" fill="#080808"/>
        <path id="Path_19" data-name="Path 19" d="M52.152,20.281a1.757,1.757,0,0,0-1.02.29,2.9,2.9,0,0,0-1.12,2.68c0,2.48,1.24,4.21,3.02,4.21a1.871,1.871,0,0,0,1.3-.46,3.332,3.332,0,0,0,.84-2.63C55.172,21.921,53.952,20.281,52.152,20.281Zm.34,8.09c-3.21,0-4.35-2.36-4.35-4.56a4.088,4.088,0,0,1,1.87-3.58,5.691,5.691,0,0,1,2.89-.85,4.039,4.039,0,0,1,4.16,4.28,4.411,4.411,0,0,1-1.98,3.91A5.492,5.492,0,0,1,52.492,28.371Z" transform="translate(-13.165 -5.3)" fill="#080808"/>
        <path id="Path_20" data-name="Path 20" d="M97.135,20.281a1.757,1.757,0,0,0-1.02.29A2.9,2.9,0,0,0,95,23.251c0,2.48,1.24,4.21,3.02,4.21a1.915,1.915,0,0,0,1.31-.46,3.333,3.333,0,0,0,.83-2.63C100.155,21.921,98.935,20.281,97.135,20.281Zm.34,8.09c-3.21,0-4.35-2.36-4.35-4.56A4.088,4.088,0,0,1,95,20.231a5.691,5.691,0,0,1,2.89-.85,4.038,4.038,0,0,1,4.16,4.28,4.4,4.4,0,0,1-1.98,3.91A5.491,5.491,0,0,1,97.475,28.371Z" transform="translate(-25.467 -5.3)" fill="#080808"/>
        <path id="Path_21" data-name="Path 21" d="M82.379,20.187c-.99,0-1.63.78-1.63,1.99s.55,2.65,2.1,2.65a1.523,1.523,0,0,0,.99-.38,2.462,2.462,0,0,0,.6-1.74C84.439,21.137,83.669,20.187,82.379,20.187Zm-.12,8.35a1.724,1.724,0,0,0-.8.2c-.78.5-1.15,1-1.15,1.58a1.675,1.675,0,0,0,.67,1.36,3.35,3.35,0,0,0,2.27.69c1.92,0,2.78-1.03,2.78-2.05a1.462,1.462,0,0,0-1.09-1.46,8.562,8.562,0,0,0-2.68-.32Zm.13,4.9a4.123,4.123,0,0,1-2.69-.79,2.516,2.516,0,0,1-1-1.87,1.459,1.459,0,0,1,.38-.95,9.681,9.681,0,0,1,1.74-1.39.1.1,0,0,0-.01-.18,1.843,1.843,0,0,1-1.23-1.2.108.108,0,0,0-.01-.05c-.02-.12-.05-.23.11-.34a5.8,5.8,0,0,1,.53-.33,7.043,7.043,0,0,0,.86-.56.142.142,0,0,0-.01-.2c-.01-.01-.02-.02-.03-.02a2.76,2.76,0,0,1-1.97-2.9,2.857,2.857,0,0,1,1.21-2.37,5.5,5.5,0,0,1,2.71-.92h.05a5.679,5.679,0,0,1,2.07.46,3.182,3.182,0,0,0,1.22.19,1.631,1.631,0,0,0,1.32-.5,1.216,1.216,0,0,1,.07.38,1.419,1.419,0,0,1-.24.87,1.071,1.071,0,0,1-.82.36.34.34,0,0,1-.1-.01,2.738,2.738,0,0,1-.5-.08l-.08.03c-.03.04-.01.08.01.13a.037.037,0,0,1,.01.03,5.653,5.653,0,0,1,.12.81,3,3,0,0,1-1.28,2.73,4.3,4.3,0,0,1-2.2.85c-.02,0-.1.01-.26.02-.1.01-.23.02-.25.02H82.1c-.14.04-.52.22-.52.55,0,.28.17.62.98.68l.53.04a16.9,16.9,0,0,1,3.04.38,2.116,2.116,0,0,1,1.41,2.03,4.126,4.126,0,0,1-2.65,3.51,5.72,5.72,0,0,1-2.51.56" transform="translate(-21.522 -5.296)" fill="#080808"/>
        <path id="Path_22" data-name="Path 22" d="M73.027,27.426a3.788,3.788,0,0,1-1.22-.32.571.571,0,0,1-.15-.3c-.04-.66-.04-2.56-.04-3.8a4.579,4.579,0,0,0-.6-2.54,2.566,2.566,0,0,0-2.18-1.14,5.078,5.078,0,0,0-2.86,1.35c-.02.02-.16.16-.16-.05s.04-.63.05-.9a.437.437,0,0,0-.14-.39,12.622,12.622,0,0,1-2.91.76c-.45.09-.57.52-.08.68h.01a4.32,4.32,0,0,1,1.1.48.586.586,0,0,1,.17.53c.02,1.41.02,3.59-.04,4.77-.02.46-.15.63-.49.72l.03-.01a6.886,6.886,0,0,1-.79.15,1.11,1.11,0,0,0,0,.84c.21,0,1.3-.06,2.2-.06,1.24,0,1.88.06,2.2.06a1.193,1.193,0,0,0,.09-.84,4.354,4.354,0,0,1-.88-.13c-.34-.08-.43-.25-.45-.63-.04-.99-.04-3.11-.04-4.54a.876.876,0,0,1,.23-.7,2.812,2.812,0,0,1,1.75-.63,1.926,1.926,0,0,1,1.3.44,1.774,1.774,0,0,1,.61,1.19c.08.8.06,2.41.06,3.8,0,.76-.06.95-.34,1.04a3.507,3.507,0,0,1-.88.17,1.11,1.11,0,0,0,0,.84c.55,0,1.2-.06,2.14-.06,1.18,0,1.92.06,2.22.06A1.133,1.133,0,0,0,73.027,27.426Z" transform="translate(-17.07 -5.285)" fill="#080808"/>
      </g>
    </g>
    <g id="Mask_Group_18" data-name="Mask Group 18" transform="translate(359 -428)" clip-path="url(#clip-path-2)">
      <g id="firebase-ar21" transform="translate(618.079 2259.576)">
        <g id="Group_9" data-name="Group 9" transform="translate(11.921 15.419)">
          <path id="Path_41" data-name="Path 41" d="M0,28.868l.217-.3L10.459,9.131l.022-.206L5.965.445A.838.838,0,0,0,4.4.709Z" fill="#080808"/>
          <path id="Path_42" data-name="Path 42" d="M.113,28.621.277,28.3,10.41,9.072,5.908.557A.761.761,0,0,0,4.459.82Z" transform="translate(0.015 0.015)" fill="#080808"/>
          <g id="Group_7" data-name="Group 7" transform="translate(0.128 0.133)">
            <path id="Path_43" data-name="Path 43" d="M.113,28.621.277,28.3,10.41,9.072,5.908.557A.761.761,0,0,0,4.459.82Z" transform="translate(-0.113 -0.117)" fill="#080808"/>
          </g>
          <path id="Path_44" data-name="Path 44" d="M12.562,14.759l3.362-3.443L12.561,4.9a.866.866,0,0,0-1.526,0l-1.8,3.427v.292Z" transform="translate(1.209 0.581)" fill="#080808"/>
          <path id="Path_45" data-name="Path 45" d="M12.5,14.6l3.268-3.347L12.5,5.03a.753.753,0,0,0-1.371-.061L9.321,8.447l-.054.178Z" transform="translate(1.213 0.596)" fill="#080808"/>
          <g id="Group_8" data-name="Group 8" transform="translate(10.48 5.151)">
            <path id="Path_46" data-name="Path 46" d="M12.5,14.6l3.268-3.347L12.5,5.03a.753.753,0,0,0-1.371-.061L9.321,8.447l-.054.178Z" transform="translate(-9.267 -4.555)" fill="#080808"/>
          </g>
          <path id="Path_47" data-name="Path 47" d="M10.457,7.857,0,27.84l.1-.1.355-.14L13.561,14.539l.166-.452Z" transform="translate(0 1.029)" fill="#171717"/>
          <path id="Path_48" data-name="Path 48" d="M14.191,34.608l11.861-6.615L22.666,7.133a.811.811,0,0,0-1.374-.443L0,28.024l11.793,6.584a2.461,2.461,0,0,0,2.4,0" transform="translate(0 0.845)" fill="#080808"/>
          <path id="Path_49" data-name="Path 49" d="M25.931,27.926,22.57,7.226a.712.712,0,0,0-1.235-.451L.117,27.971,11.781,34.49a2.443,2.443,0,0,0,2.38,0Z" transform="translate(0.015 0.856)" fill="#080808"/>
          <path id="Path_50" data-name="Path 50" d="M14.191,31.941a2.461,2.461,0,0,1-2.4,0L.095,25.45,0,25.55l11.793,6.584a2.461,2.461,0,0,0,2.4,0l11.861-6.615-.029-.179Z" transform="translate(0 3.318)" fill="#080808"/>
        </g>
        <path id="Path_51" data-name="Path 51" d="M43.134,40.076H41.115V24.365h9.16V26.3H43.134v5.157h6.452v1.889H43.134Zm10.69-13.451a1.425,1.425,0,1,1,.418-1.009,1.375,1.375,0,0,1-.418,1.009Zm0,13.451H51.806V29.324h2.019Zm4.357,0h-2.02V29.324h1.93V31.08h.087a2.747,2.747,0,0,1,1.262-1.448,3.588,3.588,0,0,1,1.855-.571,3.824,3.824,0,0,1,1.515.264l-.769,1.889a2.818,2.818,0,0,0-1.074-.154,2.635,2.635,0,0,0-1.942.866A3.119,3.119,0,0,0,58.18,34.2v5.881Zm9.938.339a5.182,5.182,0,0,1-3.96-1.624,5.758,5.758,0,0,1-1.527-4.1,5.96,5.96,0,0,1,1.47-4.037,4.812,4.812,0,0,1,3.785-1.69,4.979,4.979,0,0,1,3.829,1.558,5.9,5.9,0,0,1,1.436,4.17l-.023.373h-8.48a3.654,3.654,0,0,0,1.086,2.567,3.291,3.291,0,0,0,2.338.943,2.9,2.9,0,0,0,2.94-1.843l1.809.746a4.745,4.745,0,0,1-1.734,2.1,5.038,5.038,0,0,1-2.963.845Zm2.9-7.012a2.874,2.874,0,0,0-.845-1.755,3.016,3.016,0,0,0-2.315-.833,2.9,2.9,0,0,0-1.942.7A3.588,3.588,0,0,0,64.783,33.4H71Zm9.458,7.012a4.56,4.56,0,0,1-2.205-.527,3.846,3.846,0,0,1-1.47-1.316h-.076v1.493H74.8v-15.7H76.81v4.959l-.088,1.493h.088A3.686,3.686,0,0,1,78.28,29.5a4.608,4.608,0,0,1,2.2-.527,4.71,4.71,0,0,1,3.6,1.645A5.848,5.848,0,0,1,85.6,34.691a5.767,5.767,0,0,1-1.515,4.071,4.772,4.772,0,0,1-3.6,1.645Zm-.339-1.843a3.213,3.213,0,0,0,2.413-1.063A3.93,3.93,0,0,0,83.56,34.69a3.931,3.931,0,0,0-1.009-2.819,3.211,3.211,0,0,0-2.413-1.063,3.178,3.178,0,0,0-2.425,1.052,3.965,3.965,0,0,0-1,2.831,3.943,3.943,0,0,0,1,2.831,3.217,3.217,0,0,0,2.425,1.054ZM90.9,40.415a4.317,4.317,0,0,1-2.863-.987,3.487,3.487,0,0,1,.207-5.355,5.521,5.521,0,0,1,3.359-1,5.78,5.78,0,0,1,2.918.658v-.308a2.4,2.4,0,0,0-.812-1.9,2.918,2.918,0,0,0-2-.712,3.08,3.08,0,0,0-1.591.418,2.149,2.149,0,0,0-.976,1.141L87.3,31.581a4.165,4.165,0,0,1,1.47-1.787,4.714,4.714,0,0,1,2.9-.823,4.97,4.97,0,0,1,3.423,1.207,4.307,4.307,0,0,1,1.36,3.4v6.495H94.522V38.584h-.088A3.96,3.96,0,0,1,90.9,40.428Zm.339-1.843a3.286,3.286,0,0,0,2.271-.933,2.9,2.9,0,0,0,1.02-2.2,3.978,3.978,0,0,0-2.567-.7,3.34,3.34,0,0,0-2.217.637A1.911,1.911,0,0,0,89,36.864a1.435,1.435,0,0,0,.681,1.251,2.712,2.712,0,0,0,1.558.461Zm11.083,1.843a4.847,4.847,0,0,1-2.974-.878,5.191,5.191,0,0,1-1.722-2.194l1.809-.746a2.961,2.961,0,0,0,2.918,2.019A2.655,2.655,0,0,0,103.9,38.2a1.28,1.28,0,0,0,.6-1.1q0-1.052-1.47-1.425l-2.171-.527a5.173,5.173,0,0,1-1.953-1,2.365,2.365,0,0,1-.918-1.973,2.716,2.716,0,0,1,1.262-2.315,5.419,5.419,0,0,1,5.541-.242,3.658,3.658,0,0,1,1.6,1.855l-1.755.724a2.383,2.383,0,0,0-2.457-1.425,2.774,2.774,0,0,0-1.515.373,1.146,1.146,0,0,0-.614,1.009q0,.921,1.425,1.251l2.128.5a4.032,4.032,0,0,1,2.239,1.207,2.9,2.9,0,0,1,.724,1.93,2.992,2.992,0,0,1-1.185,2.413,4.674,4.674,0,0,1-3.05.966Zm10.752,0a5.18,5.18,0,0,1-3.96-1.624,5.763,5.763,0,0,1-1.527-4.1,5.96,5.96,0,0,1,1.47-4.037,4.812,4.812,0,0,1,3.785-1.69,4.979,4.979,0,0,1,3.829,1.558,5.9,5.9,0,0,1,1.436,4.17v.373h-8.482A3.644,3.644,0,0,0,110.7,37.63a3.291,3.291,0,0,0,2.336.943,2.9,2.9,0,0,0,2.94-1.843l1.809.746a4.745,4.745,0,0,1-1.734,2.1,5.038,5.038,0,0,1-2.963.845Zm2.9-7.012a2.874,2.874,0,0,0-.845-1.755,3.016,3.016,0,0,0-2.315-.833,2.9,2.9,0,0,0-1.942.7,3.593,3.593,0,0,0-1.131,1.889h6.22Z" transform="translate(3.822 1.148)" fill="#080808"/>
      </g>
    </g>
    <g id="Mask_Group_19" data-name="Mask Group 19" transform="translate(235 -491)" clip-path="url(#clip-path-3)">
      <g id="Group_281" data-name="Group 281" transform="translate(0 8.31)">
        <path id="Path_628" data-name="Path 628" d="M37.305,15.254v-.946A5.587,5.587,0,0,1,43.117,8.9a5.806,5.806,0,0,1,1.54.187l-.723,2.778a2.379,2.379,0,0,0-.817-.128,2.6,2.6,0,0,0-2.731,2.582v.946h3.77v2.326h-3.77V29.415h-3.08V17.58H35.484V15.254Z" transform="translate(748.273 2389.899)" fill="#080808"/>
        <path id="Path_629" data-name="Path 629" d="M46.565,23.529a6.92,6.92,0,0,1,6.85-7.234,5.743,5.743,0,0,1,4.808,2.676V16.457h3.072V30.61h-3.08V28.1a5.822,5.822,0,0,1-4.808,2.675,6.951,6.951,0,0,1-6.842-7.246Zm3.08,0c0,2.735,1.915,4.874,4.272,4.874a4.526,4.526,0,0,0,4.306-4.874c0-2.7-1.855-4.874-4.306-4.874-2.357,0-4.271,2.2-4.271,4.874Z" transform="translate(746.484 2388.705)" fill="#080808"/>
        <path id="Path_630" data-name="Path 630" d="M66.494,24.692V16.486H69.54v8.4a3.327,3.327,0,0,0,3.327,3.4A3.79,3.79,0,0,0,76.7,24.7V16.5h3.046V30.648H76.7V28.731a5.476,5.476,0,0,1-4.306,2.079,5.8,5.8,0,0,1-5.9-6.118Z" transform="translate(743.268 2388.674)" fill="#080808"/>
        <path id="Path_631" data-name="Path 631" d="M84.322,30.6V16.446h3.046v1.917a5.4,5.4,0,0,1,4.306-2.079,5.794,5.794,0,0,1,5.9,6.1V30.59H94.534v-8.4a3.335,3.335,0,0,0-3.361-3.4,3.809,3.809,0,0,0-3.8,3.587v8.2H84.322Z" transform="translate(740.391 2388.707)" fill="#080808"/>
        <path id="Path_632" data-name="Path 632" d="M101.775,23.529a6.92,6.92,0,0,1,6.851-7.234,5.742,5.742,0,0,1,4.808,2.676V16.457h3.08V30.61h-3.08V28.1a5.823,5.823,0,0,1-4.808,2.675,6.953,6.953,0,0,1-6.851-7.246Zm3.081,0c0,2.735,1.915,4.874,4.271,4.874a4.526,4.526,0,0,0,4.306-4.874c0-2.7-1.855-4.874-4.306-4.874C106.771,18.655,104.856,20.853,104.856,23.529Z" transform="translate(737.574 2388.705)" fill="#080808"/>
        <path id="Path_633" data-name="Path 633" d="M18.193,9.453a4.3,4.3,0,0,0-2.91,3,2.678,2.678,0,0,1-.859,1.142l1.319,1.414-4.187-2.931L0,4s.834,5.419,1.123,7.413a3.037,3.037,0,0,0,1.659,2.676l.442.239L5.13,15.333,4,14.745,9.224,17.6l-.034.077L3.565,15.068c.3,1.023.876,2.991,1.123,3.86a1.958,1.958,0,0,0,1.472,1.61l1.676.614,1.038-.409-1.319.878L.962,30a33.517,33.517,0,0,1,10.807-6.706c3.463-1.5,5.548-2.462,6.91-5.922.97-2.428,1.727-5.538,2.689-6.74L23.418,8S19.172,9.129,18.193,9.453Z" transform="translate(754 2390.69)" fill="#080808"/>
      </g>
    </g>
    <g id="Mask_Group_20" data-name="Mask Group 20" transform="translate(479 -767)" clip-path="url(#clip-path-4)">
      <g id="Group_282" data-name="Group 282" transform="translate(680.998 3031.927)">
        <path id="Path_634" data-name="Path 634" d="M151.4,37.406c.12,1.158,1.177,3.143,4.234,3.143,2.664,0,3.946-1.7,3.946-3.351,0-1.489-1.013-2.709-3.016-3.12l-1.44-.31c-.558-.1-.929-.414-.929-.91a1.169,1.169,0,0,1,1.3-1.013,1.549,1.549,0,0,1,1.673,1.364l2.292-.517c-.12-1.1-1.094-2.937-3.987-2.937a3.545,3.545,0,0,0-3.8,3.329c0,1.427.888,2.605,2.85,3.04l1.343.31c.785.166,1.094.538,1.094.992,0,.538-.433,1.013-1.343,1.013a1.691,1.691,0,0,1-1.859-1.55Z" transform="translate(-141.099 -495.58)" fill="#080808"/>
        <path id="Path_635" data-name="Path 635" d="M207.507,41.427h2.623a16.735,16.735,0,0,1-.1-1.841V31.253h-2.747v5.915a1.835,1.835,0,0,1-1.92,2.007,1.81,1.81,0,0,1-1.859-2.047V31.253h-2.747v6.431a3.747,3.747,0,0,0,3.863,4.012,3.21,3.21,0,0,0,2.809-1.364,6.96,6.96,0,0,0,.08,1.1Z" transform="translate(-180.252 -496.768)" fill="#080808"/>
        <path id="Path_636" data-name="Path 636" d="M262.537,44.485v-4.92a3.569,3.569,0,0,0,2.933,1.241c2.871,0,4.792-2.28,4.792-5.356,0-3.019-1.714-5.295-4.689-5.295a3.552,3.552,0,0,0-3.12,1.469V30.381h-2.664v14.1Zm5.019-9.016a2.548,2.548,0,1,1-5.061,0,2.549,2.549,0,1,1,5.061,0Z" transform="translate(-227.083 -495.897)" fill="#080808"/>
        <path id="Path_637" data-name="Path 637" d="M317.964,37.469a3.21,3.21,0,0,0,3.491,3.06,3.4,3.4,0,0,0,3-1.51,6.9,6.9,0,0,0,.1,1.22h2.52a11.4,11.4,0,0,1-.12-1.613v-5c0-2.047-1.2-3.867-4.42-3.867a4.042,4.042,0,0,0-4.359,3.351l2.437.517a1.8,1.8,0,0,1,1.942-1.655c1.157,0,1.715.6,1.715,1.32,0,.352-.186.641-.764.72l-2.5.372a3.133,3.133,0,0,0-3.046,3.088Zm4.069,1.013a1.193,1.193,0,0,1-1.32-1.178,1.284,1.284,0,0,1,1.26-1.282l2.293-.352v.455a2.065,2.065,0,0,1-2.233,2.358Z" transform="translate(-273.228 -495.582)" fill="#080808"/>
        <path id="Path_638" data-name="Path 638" d="M377.479,23.02V21.779a3.438,3.438,0,0,0,3.016,1.489c2.892,0,4.792-2.3,4.792-5.376,0-3.019-1.715-5.315-4.689-5.315a3.613,3.613,0,0,0-3.078,1.386V8.048h-2.706V23.02Zm5.061-5.108a2.568,2.568,0,0,1-2.52,2.9,2.6,2.6,0,0,1-2.541-2.9,2.551,2.551,0,1,1,5.061,0Z" transform="translate(-318.325 -478.361)" fill="#080808"/>
        <path id="Path_639" data-name="Path 639" d="M432.99,37.469a3.21,3.21,0,0,0,3.491,3.06,3.4,3.4,0,0,0,3-1.51,6.915,6.915,0,0,0,.1,1.22h2.52a11.457,11.457,0,0,1-.12-1.613v-5c0-2.047-1.2-3.867-4.421-3.867a4.042,4.042,0,0,0-4.359,3.351l2.437.517a1.8,1.8,0,0,1,1.942-1.655c1.157,0,1.715.6,1.715,1.32,0,.352-.186.641-.764.72l-2.5.372a3.133,3.133,0,0,0-3.046,3.088Zm4.069,1.013a1.193,1.193,0,0,1-1.32-1.178A1.284,1.284,0,0,1,437,36.021l2.293-.352v.455a2.065,2.065,0,0,1-2.233,2.358Z" transform="translate(-364.472 -495.582)" fill="#080808"/>
        <path id="Path_640" data-name="Path 640" d="M485.645,37.406c.12,1.158,1.177,3.143,4.234,3.143,2.664,0,3.945-1.7,3.945-3.351,0-1.489-1.012-2.709-3.016-3.12l-1.44-.31c-.558-.1-.929-.414-.929-.91a1.168,1.168,0,0,1,1.3-1.013,1.549,1.549,0,0,1,1.673,1.364l2.292-.517c-.12-1.1-1.094-2.937-3.987-2.937a3.545,3.545,0,0,0-3.8,3.329c0,1.427.888,2.605,2.85,3.04l1.343.31c.785.166,1.094.538,1.094.992,0,.538-.434,1.013-1.343,1.013A1.691,1.691,0,0,1,488,36.89Z" transform="translate(-406.24 -495.58)" fill="#080808"/>
        <path id="Path_641" data-name="Path 641" d="M534.762,33.992a2.2,2.2,0,0,1,2.272-2.007,2.04,2.04,0,0,1,2.272,2.007Zm4.813,2.647a2.244,2.244,0,0,1-2.314,1.55,2.476,2.476,0,0,1-2.561-2.316h7.271c0-.042.041-.455.041-.848,0-3.268-1.879-5.273-5.019-5.273A5.106,5.106,0,0,0,532,35.109a5.151,5.151,0,0,0,5.247,5.439,4.578,4.578,0,0,0,4.627-3.226Z" transform="translate(-443.01 -495.579)" fill="#080808"/>
        <path id="Path_642" data-name="Path 642" d="M55.986,54.582a1.012,1.012,0,0,1-1.8-.614l-.209-13.905h9.35a2.023,2.023,0,0,1,1.58,3.286Z" transform="translate(-63.819 -503.757)" fill="#080808"/>
        <path id="Path_643" data-name="Path 643" d="M55.986,54.582a1.012,1.012,0,0,1-1.8-.614l-.209-13.905h9.35a2.023,2.023,0,0,1,1.58,3.286Z" transform="translate(-63.819 -503.757)" fill="#171717"/>
        <path id="Path_644" data-name="Path 644" d="M9.389.6a1.012,1.012,0,0,1,1.8.614l.095,13.9H2.052A2.023,2.023,0,0,1,.466,11.831Z" transform="translate(-21.025 -472.144)" fill="#080808"/>
      </g>
    </g>
    <g id="Mask_Group_21" data-name="Mask Group 21" transform="translate(391 -632)" clip-path="url(#clip-path-5)">
      <g id="Group_283" data-name="Group 283" transform="translate(748 2479.2)">
        <path id="Path_645" data-name="Path 645" d="M.422,152.005a15.037,15.037,0,0,0,21.515,0,15.65,15.65,0,0,0,0-21.873l-2.689,2.734a11.737,11.737,0,0,1,0,16.405,11.278,11.278,0,0,1-16.136,0Z" transform="translate(-0.422 -120.134)" fill="#080808"/>
        <path id="Path_646" data-name="Path 646" d="M71.133,211.78a7.518,7.518,0,0,0,10.758,0,7.825,7.825,0,0,0,0-10.937l-2.69,2.735a3.912,3.912,0,0,1,0,5.468,3.759,3.759,0,0,1-5.379,0Z" transform="translate(-65.754 -185.376)" fill="#080808"/>
        <path id="Path_647" data-name="Path 647" d="M38.523,5.373a15.037,15.037,0,0,0-21.515,0,15.65,15.65,0,0,0,0,21.873L19.7,24.512a11.735,11.735,0,0,1,0-16.4,11.278,11.278,0,0,1,16.136,0Z" transform="translate(-11.63 -0.843)" fill="#080808"/>
        <path id="Path_648" data-name="Path 648" d="M125.538,103.109a7.518,7.518,0,0,0-10.758,0,7.825,7.825,0,0,0,0,10.937l2.69-2.735a3.912,3.912,0,0,1,0-5.468,3.759,3.759,0,0,1,5.379,0Z" transform="translate(-104.023 -93.11)" fill="#080808"/>
        <path id="Path_649" data-name="Path 649" d="M38.523,5.373a15.037,15.037,0,0,0-21.515,0,15.65,15.65,0,0,0,0,21.873L19.7,24.512a11.735,11.735,0,0,1,0-16.4,11.278,11.278,0,0,1,16.136,0Z" transform="translate(-11.63 -0.843)" fill="#171717"/>
        <path id="Path_650" data-name="Path 650" d="M125.538,103.109a7.518,7.518,0,0,0-10.758,0,7.825,7.825,0,0,0,0,10.937l2.69-2.735a3.912,3.912,0,0,1,0-5.468,3.759,3.759,0,0,1,5.379,0Z" transform="translate(-104.023 -93.11)" fill="#171717"/>
        <path id="Path_651" data-name="Path 651" d="M491.749,126.367a2.717,2.717,0,0,1-.705,2.03,2.626,2.626,0,0,1-1.944.854,2.3,2.3,0,0,1-1.759-.768,2.381,2.381,0,0,1-.591-1.852v-7.6h-2.934v8.052c0,3.04,1.7,4.758,4.15,4.758a3.837,3.837,0,0,0,3.744-2.414h.13v2.25h2.844V119.035h-2.934Zm5.489,10.068h2.934V129.7h.12a3.746,3.746,0,0,0,3.565,2.216c2.934,0,5.13-2.364,5.13-6.533,0-4.218-2.261-6.509-5.138-6.509a3.688,3.688,0,0,0-3.557,2.257h-.17v-2.092h-2.885Zm2.88-11.073c0-2.455,1.037-4.046,2.926-4.046C505,121.316,506,123,506,125.362s-1.021,4.1-2.958,4.1c-1.871,0-2.926-1.647-2.926-4.1Zm20.767-2.983c-.406-2.142-2.09-3.51-5.008-3.51-3,0-5.04,1.5-5.032,3.84-.008,1.846,1.11,3.065,3.5,3.567l2.123.453c1.142.255,1.68.725,1.68,1.442,0,.865-.924,1.517-2.317,1.517a2.232,2.232,0,0,1-2.472-1.73l-2.861.281c.36,2.318,2.28,3.7,5.34,3.7,3.112,0,5.308-1.64,5.316-4.037-.008-1.8-1.151-2.909-3.5-3.427l-2.123-.461c-1.264-.288-1.766-.732-1.758-1.464-.008-.854.924-1.449,2.148-1.449a2.177,2.177,0,0,1,2.293,1.586Zm8.445-3.345h-2.451V116h-2.934v3.032h-1.766v2.307h1.766v7.036c-.016,2.382,1.68,3.55,3.891,3.485a5.811,5.811,0,0,0,1.726-.3l-.494-2.332a3.6,3.6,0,0,1-.859.115c-.738,0-1.328-.264-1.328-1.464v-6.542h2.454Zm5.579,12.911a3.825,3.825,0,0,0,3.654-1.994h.1v1.739h2.82v-8.47c0-3.345-2.683-4.351-5.057-4.351-2.617,0-4.627,1.186-5.28,3.493l2.74.4a2.483,2.483,0,0,1,2.553-1.607,1.84,1.84,0,0,1,2.107,1.952v.05c0,.854-.883.9-3.079,1.137-2.416.264-4.725,1-4.725,3.848.007,2.49,1.8,3.808,4.173,3.808Zm.761-2.2c-1.224,0-2.1-.569-2.1-1.664,0-1.146.98-1.623,2.293-1.813a8.81,8.81,0,0,0,2.691-.617v1.491a2.714,2.714,0,0,1-.887,1.937,2.623,2.623,0,0,1-1.995.673Zm18.143-7.374c-.406-2.142-2.092-3.51-5.008-3.51-3,0-5.04,1.5-5.033,3.84-.008,1.846,1.11,3.065,3.5,3.567l2.124.453c1.142.255,1.68.725,1.68,1.442,0,.865-.924,1.517-2.317,1.517a2.232,2.232,0,0,1-2.471-1.73l-2.861.281c.36,2.318,2.28,3.7,5.34,3.7,3.111,0,5.308-1.64,5.315-4.037-.007-1.8-1.151-2.909-3.5-3.427l-2.123-.461c-1.264-.288-1.766-.732-1.759-1.464-.008-.854.923-1.449,2.147-1.449a2.177,2.177,0,0,1,2.293,1.586Zm5.16,1.895a2.655,2.655,0,0,1,.7-2.067,2.563,2.563,0,0,1,1.994-.817,2.322,2.322,0,0,1,1.85.765,2.407,2.407,0,0,1,.6,1.938v7.6h2.934v-8.052c0-3.056-1.7-4.758-4.288-4.758a3.653,3.653,0,0,0-3.7,2.318h-.145v-6.369h-2.867V131.7h2.934Z" transform="translate(-447.044 -106.003)" fill="#080808"/>
      </g>
    </g>
    <g id="Mask_Group_22" data-name="Mask Group 22" transform="translate(428 -542)" clip-path="url(#clip-path-6)">
      <g id="sql" transform="translate(712.169 2456.131)">
        <path id="Shape" d="M40.925,9.156h-4.22V4.831h4.449c1.628,0,2.443.741,2.443,2.2q0,2.129-2.672,2.129m3.033-4.376a3.471,3.471,0,0,0-2.427-.791l-6.043.033V14.37h1.217l-.011-4.4h4.5a4.1,4.1,0,0,0,2.663-.791,2.678,2.678,0,0,0,.972-2.2,2.825,2.825,0,0,0-.867-2.2ZM51.838,12.2a2.112,2.112,0,0,1-.578.88,3.413,3.413,0,0,1-2.506.813,3.215,3.215,0,0,1-2.328-.791,2.79,2.79,0,0,1-.812-2.117,3.3,3.3,0,0,1,.213-1.226,2.406,2.406,0,0,1,.616-.9,3.269,3.269,0,0,1,2.312-.78c2.183,0,3.26.97,3.26,2.908a3.627,3.627,0,0,1-.186,1.214m.221-3.817a4.683,4.683,0,0,0-3.3-1.035A4.477,4.477,0,0,0,45.567,8.4a3.375,3.375,0,0,0-1.014,2.58,3.417,3.417,0,0,0,1.048,2.6,3.481,3.481,0,0,0,1.348.773,6.1,6.1,0,0,0,1.806.247,4.806,4.806,0,0,0,3.314-1.023,3.345,3.345,0,0,0,1.014-2.591,3.343,3.343,0,0,0-1.027-2.6ZM61.265,12.5c0,1.4-1.225,2.089-3.673,2.089A10.519,10.519,0,0,1,55.7,14.44a3.185,3.185,0,0,1-1.248-.481,1.891,1.891,0,0,1-.588-.659,2.769,2.769,0,0,1-.283-1.034l1.132-.011a1.343,1.343,0,0,0,.6,1.211,4.046,4.046,0,0,0,2.274.467q2.567,0,2.567-1.311a1.074,1.074,0,0,0-.861-1.054q-.175-.056-2.078-.294a12.865,12.865,0,0,1-2.371-.428,1.481,1.481,0,0,1-1.014-1.478,1.669,1.669,0,0,1,.905-1.556,4.471,4.471,0,0,1,1.119-.328,9.124,9.124,0,0,1,1.555-.117q3.536,0,3.536,2.261H59.86q0-1.589-2.486-1.59a4.135,4.135,0,0,0-1.886.33,1.057,1.057,0,0,0-.622.989q0,.623.839.9a16.886,16.886,0,0,0,2.257.334,7.633,7.633,0,0,1,2.17.412,1.557,1.557,0,0,1,1.132,1.511Zm4.475,1.895-.463.066-.289.022a2.97,2.97,0,0,1-1.6-.33A1.282,1.282,0,0,1,62.9,13V8.276h-1.35V7.582h1.342L62.9,5.351h1.039V7.582h1.809v.706l-1.809-.012V12.87a.8.8,0,0,0,.267.708,1.714,1.714,0,0,0,.954.2.769.769,0,0,0,.218-.008c.081-.013.2-.041.36-.084l.011.708Zm7.184-1.575a3.063,3.063,0,0,1-.97.544,3.817,3.817,0,0,1-1.253.19c-2.173,0-3.258-.906-3.258-2.743a2.507,2.507,0,0,1,.833-2,3.475,3.475,0,0,1,2.348-.722,3.306,3.306,0,0,1,2.316.727,2.52,2.52,0,0,1,.791,1.949,2.627,2.627,0,0,1-.807,2.055m1.845-5.239H73.73l-.011,1.167a6.885,6.885,0,0,0-.981-.9,4.6,4.6,0,0,0-2.257-.489,4.533,4.533,0,0,0-3.1.944,3.119,3.119,0,0,0-1.014,2.51,3.874,3.874,0,0,0,.256,1.45,2.879,2.879,0,0,0,.748,1.083,4.534,4.534,0,0,0,3.025.911,3.891,3.891,0,0,0,3.331-1.318v1.209a2.266,2.266,0,0,1-.715,1.789,3.514,3.514,0,0,1-2.35.634,4.092,4.092,0,0,1-2.183-.432,1.788,1.788,0,0,1-.676-1.151H66.744a2.273,2.273,0,0,0,.949,1.654,5.754,5.754,0,0,0,3.022.588q4.069,0,4.069-3.083V7.57Zm5.618.688a5.334,5.334,0,0,0-.871-.077q-2.561,0-2.561,2.863V14.37H75.928l-.011-6.79,1.039.011V8.8h.054a2.108,2.108,0,0,1,.829-1.086,3.7,3.7,0,0,1,1.853-.358h.7v.909Zm.967,2.279a3.05,3.05,0,0,1,.883-1.793A3.114,3.114,0,0,1,83.25,8.2a4.1,4.1,0,0,1,1.276-.184,3.291,3.291,0,0,1,2.262.774,2.306,2.306,0,0,1,.885,1.755H81.362m6.413-2.095a3.319,3.319,0,0,0-1.353-.825,6,6,0,0,0-1.887-.268,4.663,4.663,0,0,0-3.132.956,3.252,3.252,0,0,0-1.113,2.6,3.334,3.334,0,0,0,1.069,2.613A4.629,4.629,0,0,0,84.62,14.6a5.984,5.984,0,0,0,1.554-.194,4.265,4.265,0,0,0,1.249-.548,2.955,2.955,0,0,0,1.188-1.694H87.479C87.093,13.316,86.135,13.9,84.6,13.9a3.461,3.461,0,0,1-2.506-.852,2.531,2.531,0,0,1-.752-1.891h7.4a3.644,3.644,0,0,0-.993-2.718Z" transform="translate(-3.625 -0.506)" fill="#080808"/>
        <path id="Shape-2" data-name="Shape" d="M105.69,11.568q0,3.024-4.786,3.023a6.75,6.75,0,0,1-4.187-1.042,3.108,3.108,0,0,1-1.079-2.611h1.293q0,2.823,3.981,2.823a5.064,5.064,0,0,0,2.76-.577,1.828,1.828,0,0,0,.727-1.6,1.529,1.529,0,0,0-.982-1.511,15.239,15.239,0,0,0-2.716-.589,13.885,13.885,0,0,1-3.523-.844,2.2,2.2,0,0,1-1.167-2.111A2.314,2.314,0,0,1,97,4.466a6.685,6.685,0,0,1,3.665-.744q4.693,0,4.691,3.176h-1.3q0-2.379-3.476-2.378A5.214,5.214,0,0,0,98.027,5a1.69,1.69,0,0,0-.764,1.5,1.479,1.479,0,0,0,.982,1.456,17.7,17.7,0,0,0,3.076.679,10.272,10.272,0,0,1,3.234.857A2.15,2.15,0,0,1,105.7,11.57Zm10.435,1.03a5,5,0,0,1-1.627.882,6.566,6.566,0,0,1-2.031.294,5.312,5.312,0,0,1-3.707-1.26,4.286,4.286,0,0,1-1.415-3.356,4.274,4.274,0,0,1,1.4-3.406,5.476,5.476,0,0,1,3.718-1.221,5.133,5.133,0,0,1,3.69,1.277,3.9,3.9,0,0,1,1.049,1.454,4.962,4.962,0,0,1,.34,1.9,4.376,4.376,0,0,1-1.42,3.44m.683.686a4.533,4.533,0,0,0,1.485-1.749,5.521,5.521,0,0,0,.481-2.371A5.04,5.04,0,0,0,117.2,5.293a5.292,5.292,0,0,0-2.02-1.188,8.71,8.71,0,0,0-2.717-.389,6.873,6.873,0,0,0-4.658,1.466,4.989,4.989,0,0,0-1.691,3.976,5.013,5.013,0,0,0,1.7,3.942,6.8,6.8,0,0,0,4.662,1.5,11.3,11.3,0,0,0,2.018-.159,4.837,4.837,0,0,0,1.462-.489l1.9,1.34.793-.741-1.838-1.27Zm11.585,1.057h-8.778V3.983l1.207-.022v9.515H128.4l-.012.865Z" transform="translate(-9.573 -0.479)" fill="#080808"/>
        <path id="Path" d="M17.09,17.521c.159-1.351.112-1.549,1.1-1.33l.242.022a5.606,5.606,0,0,0,2.336-.4c1.255-.593,2-1.585.762-1.325-2.824.593-3.018-.381-3.018-.381C21.494,9.6,22.739,3.874,21.664,2.474,18.73-1.349,13.648.46,13.564.507l-.027,0a9.83,9.83,0,0,0-1.884-.2,4.63,4.63,0,0,0-2.991.91S-.4-2.584.014,6.008C.1,7.835,2.584,19.836,5.543,16.211c1.082-1.326,2.126-2.447,2.126-2.447a2.69,2.69,0,0,0,1.792.466l.05-.044a2.038,2.038,0,0,0,.02.516c-.762.867-.538,1.022-2.061,1.34-1.542.324-.636.9-.044,1.051a3.1,3.1,0,0,0,3.5-1.157l-.045.183c.3.244.279,1.752.321,2.83a10.346,10.346,0,0,0,.329,2.677c.216.593.469,2.12,2.474,1.683,1.673-.366,2.954-.891,3.07-5.785" transform="translate(-0.116 -0.116)" fill="#080808"/>
        <path id="Path_-_Outline" data-name="Path - Outline" d="M13.23,24.324a2.614,2.614,0,0,1-1.875-.71,3.616,3.616,0,0,1-.88-1.58c-.02-.063-.039-.123-.054-.162a10.727,10.727,0,0,1-.392-3c-.008-.193-.013-.391-.019-.6,0-.127-.008-.282-.013-.446A4.47,4.47,0,0,1,7.05,18a2.51,2.51,0,0,1-1.284-.747,2.132,2.132,0,0,1-2.111.469,4.268,4.268,0,0,1-2.2-2.31A20.664,20.664,0,0,1,.1,11.9,33.555,33.555,0,0,1-1.154,5.943c-.131-2.725.6-4.666,2.181-5.771a6.844,6.844,0,0,1,5.187-.8A14.154,14.154,0,0,1,8.407-.07a5.827,5.827,0,0,1,3.149-.788,11.2,11.2,0,0,1,1.8.168,10.339,10.339,0,0,1,3.085-.44,7.314,7.314,0,0,1,5.942,2.847c.955,1.244.6,3.706.131,5.552a24.91,24.91,0,0,1-2.58,6.242,7.155,7.155,0,0,0,1.263-.168,2.318,2.318,0,0,1,.819-.047,1.237,1.237,0,0,1,1.023.821c.447,1.329-1.536,2.344-1.938,2.534a6.609,6.609,0,0,1-2.835.5l-.047,0-.154-.014-.016.143q-.014.119-.029.252l-.014,0c-.066,2.464-.417,4.03-1.135,5.07a4.092,4.092,0,0,1-2.761,1.626A4.127,4.127,0,0,1,13.23,24.324Zm-1.8-9.136c.594.484.645,1.371.69,3.028.006.2.011.4.018.577a10.827,10.827,0,0,0,.266,2.358c.028.078.054.157.08.24.218.682.309.964,1.179.774.773-.169,1.17-.319,1.476-.763a8.223,8.223,0,0,0,.765-4.018l1.111.026-1.085-.128q.015-.129.028-.245c.095-.828.163-1.425.727-1.827a1.588,1.588,0,0,1,1.112-.252,1.493,1.493,0,0,1-.432-.76l-.085-.425.239-.362a22.669,22.669,0,0,0,2.954-6.654,11.941,11.941,0,0,0,.4-2.634A2.292,2.292,0,0,0,20.713,3C18.388-.029,14.35,1.2,13.891,1.35l-.08.045-.4.075-.2-.043a8.834,8.834,0,0,0-1.682-.178,3.591,3.591,0,0,0-2.335.693L8.7,2.314,8.14,2.077C7.066,1.63,3.907.725,2.233,1.9,1.288,2.564.856,3.89.95,5.842a32.407,32.407,0,0,0,1.2,5.546c1.131,3.727,2.023,4.268,2.15,4.327a1.05,1.05,0,0,0,.31-.286c1.091-1.338,2.128-2.452,2.172-2.5l.615-.66.747.506a1.664,1.664,0,0,0,.8.292l1.732-1.511-.229,2.606a.985.985,0,0,0,.01.249l.083.494-.33.376-.034.039.836.378Z" transform="translate(0 0)" fill="#231f20"/>
        <path id="Path-2" data-name="Path" d="M21.537,14.489c-2.824.593-3.018-.381-3.018-.381C21.5,9.6,22.746,3.874,21.671,2.473,18.737-1.35,13.656.459,13.571.506l-.027,0A9.83,9.83,0,0,0,11.66.31a4.629,4.629,0,0,0-2.991.91S-.394-2.585.02,6.007c.089,1.829,2.571,13.828,5.529,10.2,1.082-1.326,2.126-2.447,2.126-2.447a2.7,2.7,0,0,0,1.791.466l.051-.044a2.047,2.047,0,0,0,.02.516c-.762.867-.538,1.021-2.061,1.34-1.542.324-.636.9-.044,1.051a3.1,3.1,0,0,0,3.5-1.157l-.045.183a5.255,5.255,0,0,1,.473,2.8,7.8,7.8,0,0,0,.178,2.7c.236.652.469,2.12,2.474,1.683a2.989,2.989,0,0,0,2.662-2.893c.086-1.124.28-.957.291-1.961l.155-.475c.179-1.524.028-2.014,1.059-1.785l.243.022a5.6,5.6,0,0,0,2.336-.4c1.255-.593,2-1.585.762-1.325Z" transform="translate(-0.116 -0.116)" fill="#080808"/>
        <g id="Group" transform="translate(-0.109 -0.193)">
          <g id="Group_284" data-name="Group 284" transform="translate(0)">
            <path id="Shape-3" data-name="Shape" d="M11.056,15.358a28.663,28.663,0,0,0,.291,6.38,2.232,2.232,0,0,0,2.858,1.6,2.771,2.771,0,0,0,2.546-2.636l.618-4.995M8.664,1.154S-.406-2.624.014,5.966C.1,7.795,2.585,19.8,5.543,16.17,6.625,14.852,7.6,13.806,7.6,13.806M13.554.464c-.323.1,5.044-2,8.09,1.977,1.075,1.4-.162,7.126-3.153,11.635" transform="translate(0 0.081)" fill="none" stroke="#e7e8ea" stroke-linecap="round" stroke-linejoin="round" stroke-width="0.779" fill-rule="evenodd"/>
            <path id="Path-3" data-name="Path" d="M19.3,16.519a2.635,2.635,0,0,1-1.256-.239.685.685,0,0,1-.366-.555c-.076-1.369.648-1.636,1.045-1.752-.052-.077-.121-.165-.193-.256a4.947,4.947,0,0,1-.767-1.261c-.036-.09-.152-.3-.285-.544A18.108,18.108,0,0,1,16.232,9.27c-.457-1.31-.459-2.257-.006-2.9s1.339-.9,2.633-.765a8.086,8.086,0,0,0-1.411-2.477A6.714,6.714,0,0,0,12.285.614,4.164,4.164,0,0,0,9.128,1.8C7.289,3.653,7.352,7.073,7.353,7.107a.351.351,0,0,1-.7.018c0-.152-.074-3.749,1.976-5.818A4.84,4.84,0,0,1,12.3-.089,7.392,7.392,0,0,1,17.94,2.625a7.709,7.709,0,0,1,1.709,3.268.39.39,0,0,1-.292.469l-.129,0c-.874-.143-2-.187-2.429.413a2.662,2.662,0,0,0,.1,2.26,17.526,17.526,0,0,0,1.2,2.536c.156.285.268.49.32.618a4.278,4.278,0,0,0,.669,1.091,1.89,1.89,0,0,1,.405.684c.028.048.408.593,2.608.13.573-.121.919-.017,1.029.309.214.633-.932,1.373-1.568,1.676A5.841,5.841,0,0,1,19.3,16.519Zm-.922-.858a2.089,2.089,0,0,0,1.152.152,5.026,5.026,0,0,0,1.726-.365,3.838,3.838,0,0,0,1.006-.668l-.021,0a4.243,4.243,0,0,1-3.023-.118,1.229,1.229,0,0,1-.105-.078c-.047.016-.1.03-.145.044C18.643,14.726,18.336,14.813,18.377,15.66Z" transform="translate(-0.658 0.09)" fill="#e7e8ea"/>
          </g>
          <g id="Path-4" data-name="Path" transform="translate(5.898 5.78)">
            <path id="Path_669" data-name="Path 669" d="M3.847,8.814a1.215,1.215,0,0,1,.486.117,1.437,1.437,0,0,1,.766.93,1.221,1.221,0,0,1-.145,1.057A3.239,3.239,0,0,1,2.2,12.363a4.546,4.546,0,0,1-1.12-.148C.681,12.112,0,11.8.012,11.29c.012-.576.825-.746,1.131-.811,1.074-.225,1.144-.315,1.478-.748.1-.129.223-.288.392-.48l.022-.023A1.1,1.1,0,0,1,3.847,8.814ZM2.2,11.66A2.532,2.532,0,0,0,4.38,10.516a.553.553,0,0,0,.045-.461.758.758,0,0,0-.364-.477.594.594,0,0,0-.212-.062.468.468,0,0,0-.305.2l-.02.021c-.145.166-.251.3-.345.426-.427.553-.623.741-1.89,1.006a2.177,2.177,0,0,0-.506.155,1.528,1.528,0,0,0,.476.212A3.845,3.845,0,0,0,2.2,11.66Z" transform="translate(0.35 -0.52)" fill="#e7e8ea"/>
            <path id="Path_670" data-name="Path 670" d="M3.187,8.909a.351.351,0,0,1-.347-.3q-.011-.074-.015-.148a3.168,3.168,0,0,1-2.191-1A3.738,3.738,0,0,1-.352,4.336,14.868,14.868,0,0,0-.28,1.394C-.289,1.231-.3,1.114-.3,1.032c0-.108,0-.394.927-.87a5.013,5.013,0,0,1,1.7-.535,1.826,1.826,0,0,1,2.2,1.517,7.282,7.282,0,0,1-.369,5.2c-.079.178-.154.347-.213.509L3.884,7a3.574,3.574,0,0,0-.349,1.5.351.351,0,0,1-.348.4ZM.409,1.131c0,.06.007.135.012.222A15.509,15.509,0,0,1,.344,4.432a3.041,3.041,0,0,0,.8,2.547,2.464,2.464,0,0,0,1.76.782,9.4,9.4,0,0,1,.324-1L3.28,6.61c.068-.185.147-.364.231-.554.4-.912.907-2.047.324-4.766A1.076,1.076,0,0,0,3,.35,3.8,3.8,0,0,0,.409,1.131Z" transform="translate(0.39 0.39)" fill="#e7e8ea"/>
          </g>
        </g>
        <g id="Group-2" data-name="Group" transform="translate(8.465 6.529)">
          <path id="Path-5" data-name="Path" d="M0,.524c-.016.117.21.428.5.47A.542.542,0,0,0,1.065.675C1.081.559.855.43.561.387S.015.406,0,.523Z" transform="translate(0.047 -0.093)" fill="#e7e8ea"/>
          <path id="Path_-_Outline-2" data-name="Path - Outline" d="M.373.323A1.317,1.317,0,0,1,.562.338c.279.041.564.173.543.339a.58.58,0,0,1-.539.362.526.526,0,0,1-.073-.005A.69.69,0,0,1-.05.537l0,0,0-.023C-.035.4.128.323.373.323ZM.566.948a.5.5,0,0,0,.45-.283C1.025.595.852.471.549.427A1.227,1.227,0,0,0,.373.414c-.2,0-.316.052-.332.1V.525A.6.6,0,0,0,.506.944.436.436,0,0,0,.566.948Z" transform="translate(0.052 -0.088)" fill="#fff"/>
          <path id="Path-6" data-name="Path" d="M9.818.26c.016.117-.21.428-.5.47A.544.544,0,0,1,8.753.411c-.016-.116.21-.245.5-.287s.546.019.562.136Z" transform="translate(-0.819 -0.067)" fill="#e7e8ea"/>
          <path id="Path_-_Outline-3" data-name="Path - Outline" d="M9.433.062c.247,0,.41.072.426.188l.018.132L9.842.346a.728.728,0,0,1-.526.423.526.526,0,0,1-.073.005A.584.584,0,0,1,8.7.413c-.023-.167.262-.3.543-.338A1.353,1.353,0,0,1,9.433.062Zm.335.193c-.017-.051-.136-.1-.335-.1a1.263,1.263,0,0,0-.174.013c-.3.042-.476.168-.466.236a.5.5,0,0,0,.45.284.437.437,0,0,0,.06,0A.6.6,0,0,0,9.768.261Z" transform="translate(-0.814 -0.062)" fill="#fff"/>
        </g>
        <path id="Path-7" data-name="Path" d="M19.941,14.174a.351.351,0,0,1-.293-.544,4.348,4.348,0,0,0,.439-3.142,9.116,9.116,0,0,1-.092-1.337,9.438,9.438,0,0,1,.125-1.183,6.109,6.109,0,0,0,.1-1.3.351.351,0,0,1,.7-.037,6.76,6.76,0,0,1-.107,1.442,8.872,8.872,0,0,0-.117,1.1,8.473,8.473,0,0,0,.087,1.233,4.973,4.973,0,0,1-.549,3.61A.351.351,0,0,1,19.941,14.174Z" transform="translate(-2.053 -0.735)" fill="#e7e8ea"/>
      </g>
    </g>
  </g>
</svg>
