<svg xmlns="http://www.w3.org/2000/svg" width="306.666" height="290.713" viewBox="0 0 306.666 290.713">
  <g id="Group_514" data-name="Group 514" transform="translate(-237.48 -2375.483)">
    <path id="Union_14" data-name="Union 14" d="M-1498.058,257.91a359.576,359.576,0,0,1,16.531-232.039C-1469.8-1.86-1433.621-8.894-1412.6,12.6a356.053,356.053,0,0,0,175.347,98c31.856,7.261,43.879,47.352,21.111,70.884a356.411,356.411,0,0,1-85.883,65.245,353.532,353.532,0,0,1-152.986,42.919c-.661.031-1.316.046-1.972.046A42.622,42.622,0,0,1-1498.058,257.91Z" transform="translate(1748 2376)" fill="#ffd000" stroke="rgba(0,0,0,0)" stroke-width="1"/>
    <g id="leadership" transform="translate(285 2982)">
      <path id="Path_1158" data-name="Path 1158" d="M109.393-511.552c-.426.426-.448.739-.448,9.722v9.274l-.627.224a5.881,5.881,0,0,0-2.755,2.621c-.358.784-.426,1.546-.426,6.093v5.219h-9l.784-.9a12.342,12.342,0,0,0,1.814-12.455,8.229,8.229,0,0,0-4.077-3.7,11.772,11.772,0,0,0-7.034,0,8.229,8.229,0,0,0-4.077,3.7A12.342,12.342,0,0,0,85.358-479.3c.426.493.694.9.6.918-.112,0-1.456.09-3,.179-4.614.246-5.914,1.1-11.021,7.123-2.666,3.158-2.957,3.427-4.144,3.875-2.24.829-10.147,3.606-14.515,5.063L49.047-460.7H36.838l.874-1.254c2.912-4.166,2.845-10.461-.157-13.463a8.973,8.973,0,0,0-7.706-2.128c-4.368.762-6.7,3.718-6.7,8.535a11.967,11.967,0,0,0,2.419,7.527l.56.672-1.926.157c-4.726.358-8.109,2.4-9,5.4-.515,1.747-.493,21.549.022,23.184a8.223,8.223,0,0,0,5.13,4.928l.672.179.112,7.191c.112,6.675.134,7.213.538,7.661a1.712,1.712,0,0,0,2.374-.022c.448-.493.448-.672.448-19.8,0-18.212-.022-19.332-.4-19.8a1.826,1.826,0,0,0-2.554,0c-.381.47-.4,1.232-.4,10.909v10.416l-.694-.426A5.988,5.988,0,0,1,19.03-432.1l-.694-.874L18.268-443.5c-.067-10.327-.045-10.528.4-11.267a5.65,5.65,0,0,1,2.934-2.061c.9-.358,2.4-.4,14.874-.515l13.888-.112,4.57-1.635c3.046-1.075,4.726-1.568,5.085-1.478a2.742,2.742,0,0,1,1.658,2.016c0,1.142-.986,1.747-5.824,3.472l-4.592,1.635-3.584.134c-3.248.112-3.7.179-4.838.717a7.828,7.828,0,0,0-3.763,3.741c-.582,1.232-.582,1.344-.65,6.743-.067,5.107-.045,5.533.336,6.026a76.7,76.7,0,0,0,6.675,4.144l6.272,3.629.067,5.174.045,5.2.6.448c1.12.9,2.374.358,2.643-1.142.269-1.411.022-11.29-.291-11.648-.134-.179-3.136-1.994-6.653-4.01l-6.384-3.674v-4.256c0-3.987.022-4.346.515-5.264a5.684,5.684,0,0,1,1.344-1.658l.874-.694,3.718-.134,3.741-.134,4.7-1.7c2.6-.941,7.683-2.621,11.312-3.741s6.9-2.2,7.28-2.4a14.182,14.182,0,0,0,2.083-1.7l1.389-1.366v37.028l.493.336a1.888,1.888,0,0,0,2.15,0l.493-.336v-21.124c0-20.183-.022-21.146-.4-21.482a2.017,2.017,0,0,0-1.232-.381c-.762,0-.986.2-3.427,2.89a17.725,17.725,0,0,1-3.4,3.248c-1.008.426-8.131,2.666-8.221,2.554a12.263,12.263,0,0,1-.314-1.277,6.836,6.836,0,0,0-.694-1.926l-.426-.694,3.158-1.1A24.573,24.573,0,0,0,70.887-465a49.448,49.448,0,0,0,3.875-4.144,43.471,43.471,0,0,1,4.189-4.413c1.9-1.456,2.038-1.478,15.389-1.478,13.216,0,12.723.045,13.619-1.434.381-.627.448-1.322.538-6.317.112-6.138.134-6.138,1.456-6.586a1.529,1.529,0,0,1,1.456.112c1.322.672,1.366,1.12,1.3,9.408-.067,7.079-.09,7.482-.515,7.952a3.677,3.677,0,0,1-.829.694,35.352,35.352,0,0,1-4.7.4c-4.7.224-5.6.426-7.235,1.613a9.238,9.238,0,0,0-2.845,3.9c-.224.672-.291,2.576-.291,7.549,0,6.362.022,6.675.448,7.1.246.224,3.293,2.061,6.787,4.077l6.317,3.651v6.2c0,5.914.022,6.2.47,6.787a1.675,1.675,0,0,0,2.442.134c.426-.426.448-.739.448-7.616,0-6.541-.045-7.213-.4-7.571-.2-.2-3.27-2.038-6.81-4.077l-6.451-3.7v-5.264a47.427,47.427,0,0,1,.246-6.16,5.116,5.116,0,0,1,3-2.979,42.794,42.794,0,0,1,4.928-.381c4.57-.179,5.623-.47,6.855-1.859,1.322-1.5,1.322-1.5,1.322-10.842,0-7.818-.045-8.669-.426-9.475a6.463,6.463,0,0,0-2.688-2.688c-.448-.134-.47-.269-.47-4.39v-4.234H118.6c7.325,0,7.594-.067,7.594-1.77a6.259,6.259,0,0,0-.829-2.262l-.829-1.5.829-1.59c.918-1.747,1.053-2.89.426-3.472-.381-.336-1.277-.381-8.176-.381C110.133-512,109.819-511.978,109.393-511.552Zm12.1,3.584a2.614,2.614,0,0,0,0,2.845l.448.739h-9.632v-4.48h9.632ZM94.139-491.907c1.568.986,2.15,2.33,2.128,4.883-.022,2.621-.627,4.256-2.106,5.734-2.666,2.666-5.981,1.59-7.639-2.486a9.325,9.325,0,0,1,0-6.339,4.744,4.744,0,0,1,2.979-2.419A7.243,7.243,0,0,1,94.139-491.907ZM33.12-474.121c3.427.941,4.48,5.309,2.285,9.475-1.568,2.957-4.368,3.674-6.563,1.658-3.069-2.822-3.226-9.095-.269-10.618A6,6,0,0,1,33.12-474.121Z" transform="translate(-11.504)"/>
      <path id="Path_1159" data-name="Path 1159" d="M340.448-230.493c-.426.426-.448.739-.448,12.3,0,11.626,0,11.85.47,12.432a1.558,1.558,0,0,0,2.352.112c.4-.448.426-1.053.538-10.618l.112-10.147,5.085,2.822,5.107,2.845v4.256c0,4.928.09,5.264,1.546,5.264a1.625,1.625,0,0,0,1.277-.47c.4-.426.426-.874.426-5.6,0-4.816-.022-5.152-.448-5.555-.246-.224-3.517-2.15-7.28-4.256C341.971-231.165,341.344-231.389,340.448-230.493Z" transform="translate(-263.839 -218.114)"/>
      <path id="Path_1160" data-name="Path 1160" d="M83.582-165.53l-.582.448v10.528c0,10.215.022,10.528.448,10.954a1.78,1.78,0,0,0,2.374-.022c.4-.448.426-.986.493-9.072.022-4.727.09-8.6.134-8.6s2.262,1.21,4.928,2.71l4.838,2.71v3.114c0,3.024.022,3.158.56,3.674a1.435,1.435,0,0,0,2.24,0c.56-.538.56-.6.56-4.435,0-3.4-.045-3.965-.381-4.368-.538-.6-14-8.109-14.583-8.109A2.155,2.155,0,0,0,83.582-165.53Z" transform="translate(-64.408 -268.495)"/>
      <path id="Path_1161" data-name="Path 1161" d="M84-116.552c-.4.4-.448.739-.448,3.024v2.576H70.315c-13.216,0-13.888.045-14.359.762a9.736,9.736,0,0,0-.179,2.307v2.083l-13.575.045-13.575.067-.426.538c-.358.448-.426.9-.426,2.957v2.442H14.269c-12.813,0-13.552.022-13.888.4C.067-98.99,0-98.363,0-95.227c0,4.166.09,4.435,1.613,4.435,1.322,0,1.523-.448,1.523-3.315v-2.509h24.64v2.464c0,2.173.045,2.509.448,2.912a1.9,1.9,0,0,0,2.464,0c.426-.426.448-.739.448-5.824v-5.376h24.64V-97c0,6.115.022,6.2,1.613,6.2,1.546,0,1.523.134,1.523-8.8v-8h24.64v7.952c0,7.661.022,7.975.448,8.4a1.9,1.9,0,0,0,2.464,0c.426-.426.448-.739.448-11.536v-11.088h24.64v11.155c0,10.551.022,11.2.4,11.536a1.98,1.98,0,0,0,2.352-.022c.336-.381.381-1.59.381-12.746,0-11.648-.022-12.343-.4-12.679S112.54-117,99.167-117C84.741-117,84.45-117,84-116.552Z" transform="translate(0 -306.518)"/>
    </g>
  </g>
</svg>
