<svg xmlns="http://www.w3.org/2000/svg" width="37.554" height="26.288" viewBox="0 0 37.554 26.288">
  <path id="icons8-youtube" d="M28.777,22c-5.75,0-10.152.225-13.493.537a5.178,5.178,0,0,0-4.607,4.3A49.031,49.031,0,0,0,10,35.144a49.1,49.1,0,0,0,.676,8.311h0a5.178,5.178,0,0,0,4.607,4.3c3.342.312,7.743.537,13.493.537s10.152-.225,13.493-.537a5.178,5.178,0,0,0,4.607-4.3,49.031,49.031,0,0,0,.677-8.31,49.1,49.1,0,0,0-.676-8.311h0a5.178,5.178,0,0,0-4.607-4.3C38.928,22.225,34.527,22,28.777,22Zm0,.939c5.726,0,10.1.224,13.406.533a4.229,4.229,0,0,1,3.769,3.521,48.148,48.148,0,0,1,.663,8.152,48.1,48.1,0,0,1-.663,8.152,4.228,4.228,0,0,1-3.769,3.52c-3.307.309-7.68.534-13.406.534s-10.1-.224-13.406-.533A4.229,4.229,0,0,1,11.6,43.3a48.148,48.148,0,0,1-.663-8.152,48.1,48.1,0,0,1,.663-8.152,4.228,4.228,0,0,1,3.769-3.52C18.678,23.163,23.051,22.939,28.777,22.939Zm0,1.408c-4.909,0-9.252.168-12.93.5a.235.235,0,1,0,.042.468c3.659-.328,7.989-.5,12.888-.5q3.881,0,7.267.14a.235.235,0,1,0,.018-.468Q32.669,24.349,28.777,24.347Zm8.672.205a.235.235,0,0,0,0,.468c.806.041,1.585.09,2.343.144a.235.235,0,1,0,.033-.469c-.761-.054-1.542-.1-2.352-.144Zm3.74.252a.235.235,0,0,0,.007.469c.157.013.318.025.469.038a.235.235,0,1,0,.042-.468c-.156-.014-.317-.025-.47-.038l-.024,0ZM25.262,29.511a.235.235,0,0,0-.24.235v10.8a.235.235,0,0,0,.352.2l9.388-5.4a.235.235,0,0,0,0-.407l-9.388-5.4A.235.235,0,0,0,25.262,29.511Zm.229.641,8.683,4.992-8.683,4.992Z" transform="translate(-10 -22)"/>
</svg>
