<svg xmlns="http://www.w3.org/2000/svg" width="53.025" height="50.033" viewBox="0 0 53.025 50.033"><g transform="translate(0 0)"><path d="M6.925,28.613h0a6.529,6.529,0,0,1-6.435-5.4A32.425,32.425,0,0,1,.653,11.125,32.607,32.607,0,0,1,5.168,0,35,35,0,0,0,3.857,16.458,7.543,7.543,0,0,0,11.3,22.671a7.7,7.7,0,0,0,1.168-.09,34.781,34.781,0,0,0,11.3-3.815A34.962,34.962,0,0,0,31.1,13.472a32.341,32.341,0,0,1-5.214,6.415,32.576,32.576,0,0,1-6.92,5.021,32.744,32.744,0,0,1-5.493,2.358A32.338,32.338,0,0,1,7.8,28.554,6.65,6.65,0,0,1,6.925,28.613Z" transform="translate(7.693 12.834)" fill="#080808"/><path d="M6.925,29.113h0A7.029,7.029,0,0,1,0,23.3,32.925,32.925,0,0,1,.163,11.025,33.107,33.107,0,0,1,4.747-.27L6.872-3.577,5.643.156A34.5,34.5,0,0,0,4.351,16.379,7.039,7.039,0,0,0,11.3,22.171a7.2,7.2,0,0,0,1.092-.084,34.282,34.282,0,0,0,11.138-3.76,34.461,34.461,0,0,0,7.222-5.219l2.78-2.623-2.012,3.25a32.841,32.841,0,0,1-5.294,6.515,33.075,33.075,0,0,1-7.027,5.1,33.245,33.245,0,0,1-5.577,2.394A32.839,32.839,0,0,1,7.871,29.05,7.151,7.151,0,0,1,6.925,29.113ZM3.654,3.739q-.428.893-.8,1.811A32.121,32.121,0,0,0,.5,17.135a31.885,31.885,0,0,0,.478,5.989,6.036,6.036,0,0,0,5.943,4.989v0a6.149,6.149,0,0,0,.813-.054,31.836,31.836,0,0,0,5.577-1.267,32.243,32.243,0,0,0,5.409-2.322,32.076,32.076,0,0,0,6.814-4.944,31.768,31.768,0,0,0,2.91-3.169,35.737,35.737,0,0,1-4.441,2.85,35.28,35.28,0,0,1-11.462,3.869,8.2,8.2,0,0,1-1.244.1,8.047,8.047,0,0,1-7.938-6.633A35.45,35.45,0,0,1,3.654,3.739Z" transform="translate(7.693 12.834)" fill="rgba(0,0,0,0)"/><path d="M47.322,19.1A61.852,61.852,0,0,1,16.9,2.177,7.333,7.333,0,0,0,4.94,4.468,61.837,61.837,0,0,0,2.072,44.543,7.387,7.387,0,0,0,9.54,50.025a61.555,61.555,0,0,0,26.543-7.412,61.809,61.809,0,0,0,14.9-11.268A7.36,7.36,0,0,0,47.322,19.1M26.655,37.743A32.392,32.392,0,0,1,15.5,41.388a6.538,6.538,0,0,1-7.315-5.343,32.568,32.568,0,0,1,4.678-23.211A34.865,34.865,0,0,0,11.55,29.292a7.527,7.527,0,0,0,8.612,6.124,34.813,34.813,0,0,0,11.3-3.815,34.906,34.906,0,0,0,7.327-5.295A32.346,32.346,0,0,1,26.655,37.743" transform="translate(0 0)" fill="#ffd000"/></g></svg>