<svg xmlns="http://www.w3.org/2000/svg" width="200" height="49.21" viewBox="0 0 200 49.21">
  <g id="Group_568" data-name="Group 568" transform="translate(10085 388)">
    <g id="Group_564" data-name="Group 564" transform="translate(-10085 -388)">
      <path id="Exclusion_1" data-name="Exclusion 1" d="M6.811,28.142h0A6.421,6.421,0,0,1,.481,22.829,31.892,31.892,0,0,1,.642,10.942,32.071,32.071,0,0,1,5.083,0,34.425,34.425,0,0,0,3.794,16.188,7.419,7.419,0,0,0,11.116,22.3a7.572,7.572,0,0,0,1.149-.088,34.209,34.209,0,0,0,11.114-3.752,34.387,34.387,0,0,0,7.206-5.208,31.809,31.809,0,0,1-5.128,6.31A32.039,32.039,0,0,1,18.65,24.5a32.206,32.206,0,0,1-5.4,2.319,31.806,31.806,0,0,1-5.571,1.266A6.541,6.541,0,0,1,6.811,28.142Z" transform="translate(7.566 12.623)" fill="rgba(255,208,0,0)" stroke="rgba(0,0,0,0)" stroke-miterlimit="10" stroke-width="1"/>
      <path id="Path_15" data-name="Path 15" d="M46.543,18.788A60.834,60.834,0,0,1,16.621,2.141,7.213,7.213,0,0,0,4.859,4.395,60.82,60.82,0,0,0,2.038,43.81,7.265,7.265,0,0,0,9.383,49.2,60.542,60.542,0,0,0,35.49,41.912,60.792,60.792,0,0,0,50.146,30.829a7.239,7.239,0,0,0-3.6-12.041M26.216,37.122a31.86,31.86,0,0,1-10.974,3.585,6.43,6.43,0,0,1-7.195-5.256,32.032,32.032,0,0,1,4.6-22.829A34.291,34.291,0,0,0,11.36,28.81a7.4,7.4,0,0,0,8.471,6.023,34.24,34.24,0,0,0,11.114-3.752,34.332,34.332,0,0,0,7.206-5.208A31.814,31.814,0,0,1,26.216,37.122" transform="translate(0 0)" fill="#080808"/>
    </g>
    <path id="Path_1305" data-name="Path 1305" d="M22.065-2.548,18.287-6.1a5.735,5.735,0,0,1-4.762,2.286c-3.746,0-6.381-2.794-6.381-6.889,0-3.968,2.7-6.889,6.476-6.889a5.6,5.6,0,0,1,4.54,2.063l3.682-3.682c-1.873-2.159-5.27-3.3-8.412-3.3-6.857,0-12.19,4.6-12.19,11.809,0,7.047,5.174,11.873,12.095,11.873A11.162,11.162,0,0,0,22.065-2.548ZM39.747.563V-9.214c0-3.174-1.492-6.476-5.778-6.476a5.151,5.151,0,0,0-4.54,2.444h-.063v-10.19H24.16v24h5.206V-7.976c0-1.873,1.016-3.365,2.825-3.365,1.873,0,2.317,1.556,2.317,3.333V.563ZM53.016-5.786a3,3,0,0,1-3.27,3.238c-1.048,0-2.254-.413-2.254-1.619,0-1.873,2.571-2.159,4.857-2.159h.667ZM46.1-10.262A5.983,5.983,0,0,1,50-11.881c1.619,0,2.857.73,2.857,2.286v.254c-4.6,0-10.158.762-10.158,5.333C42.7-.294,45.937.944,48.445.944a5.243,5.243,0,0,0,4.476-2.063h.1V.563h4.762V-7.4c0-5.746-1.968-8.349-7.27-8.349a10.36,10.36,0,0,0-7.047,2.667ZM77.269.563V-9.214c0-3.174-1.524-6.476-5.778-6.476a5.393,5.393,0,0,0-4.73,2.635H66.7v-2.19H61.651V.563h5.238V-8.008c0-1.809.952-3.4,2.794-3.4,1.873,0,2.349,1.587,2.349,3.333V.563Zm29.332,0V-9.214c0-2.984-1.46-6.476-5.746-6.476a5.654,5.654,0,0,0-5.047,2.7,4.979,4.979,0,0,0-4.762-2.7,5.283,5.283,0,0,0-4.73,2.635h-.063v-2.19H81.205V.563h5.238V-8.008c0-1.9.952-3.4,2.6-3.4,1.555,0,2.254,1.143,2.254,2.952V.563h5.206V-7.976c0-1.778.857-3.428,2.635-3.428,1.841,0,2.254,1.524,2.254,3.333V.563Zm13.269-6.349a3,3,0,0,1-3.27,3.238c-1.048,0-2.254-.413-2.254-1.619,0-1.873,2.571-2.159,4.857-2.159h.667Zm-6.92-4.476a5.983,5.983,0,0,1,3.9-1.619c1.619,0,2.857.73,2.857,2.286v.254c-4.6,0-10.158.762-10.158,5.333,0,3.714,3.238,4.952,5.746,4.952a5.243,5.243,0,0,0,4.476-2.063h.1V.563h4.762V-7.4c0-5.746-1.968-8.349-7.27-8.349a10.36,10.36,0,0,0-7.047,2.667ZM145.425.563l-6.254-8.285,5.682-7.524h-5.873L136-11.024l-2.952-4.222h-6.063L132.7-7.722,126.378.563h6.032L135.9-4.294,139.3.563Z" transform="translate(-10030.426 -340.154)" fill="#080808"/>
  </g>
</svg>