<svg xmlns="http://www.w3.org/2000/svg" width="163.868" height="40.32" viewBox="0 0 163.868 40.32">
  <g id="Group_568" data-name="Group 568" transform="translate(10085 388)">
    <g id="Group_564" data-name="Group 564" transform="translate(-10085 -388)">
      <path id="Exclusion_1" data-name="Exclusion 1" d="M5.581,23.058h0A5.261,5.261,0,0,1,.394,18.7,26.13,26.13,0,0,1,.526,8.965,26.277,26.277,0,0,1,4.165,0,28.206,28.206,0,0,0,3.108,13.263a6.079,6.079,0,0,0,6,5.007,6.2,6.2,0,0,0,.941-.072,28.029,28.029,0,0,0,9.106-3.074,28.175,28.175,0,0,0,5.9-4.267,26.062,26.062,0,0,1-4.2,5.17,26.251,26.251,0,0,1-5.577,4.047,26.387,26.387,0,0,1-4.426,1.9A26.06,26.06,0,0,1,6.29,23.011,5.359,5.359,0,0,1,5.581,23.058Z" transform="translate(6.199 10.343)" fill="#080808" stroke="rgba(0,0,0,0)" stroke-miterlimit="10" stroke-width="1"/>
      <path id="Path_15" data-name="Path 15" d="M38.135,15.394A49.844,49.844,0,0,1,13.618,1.754,5.91,5.91,0,0,0,3.981,3.6,49.832,49.832,0,0,0,1.669,35.9a5.953,5.953,0,0,0,6.019,4.418,49.6,49.6,0,0,0,21.39-5.973,49.809,49.809,0,0,0,12.008-9.081,5.931,5.931,0,0,0-2.952-9.866M21.48,30.416a26.1,26.1,0,0,1-8.991,2.937,5.269,5.269,0,0,1-5.9-4.306,26.245,26.245,0,0,1,3.77-18.7A28.1,28.1,0,0,0,9.307,23.606a6.066,6.066,0,0,0,6.94,4.935,28.054,28.054,0,0,0,9.106-3.074,28.13,28.13,0,0,0,5.9-4.267,26.066,26.066,0,0,1-9.778,9.217" transform="translate(0 0)" fill="#ffd000"/>
    </g>
    <path id="Path_1305" data-name="Path 1305" d="M18.3-6.321l-3.1-2.913a4.7,4.7,0,0,1-3.9,1.873c-3.069,0-5.228-2.289-5.228-5.644a5.3,5.3,0,0,1,5.306-5.644A4.591,4.591,0,0,1,15.1-16.96l3.017-3.017a9.389,9.389,0,0,0-6.893-2.705c-5.618,0-9.988,3.771-9.988,9.676,0,5.774,4.24,9.728,9.91,9.728A9.146,9.146,0,0,0,18.3-6.321ZM32.79-3.773v-8.011c0-2.6-1.222-5.306-4.734-5.306a4.221,4.221,0,0,0-3.719,2h-.052v-8.349H20.019V-3.773h4.266v-7c0-1.535.832-2.757,2.315-2.757,1.535,0,1.9,1.274,1.9,2.731v7.023Zm10.872-5.2a2.454,2.454,0,0,1-2.679,2.653c-.858,0-1.847-.338-1.847-1.327,0-1.535,2.107-1.769,3.98-1.769h.546Zm-5.67-3.667a4.9,4.9,0,0,1,3.2-1.327c1.327,0,2.341.6,2.341,1.873v.208c-3.771,0-8.323.624-8.323,4.37,0,3.043,2.653,4.058,4.708,4.058a4.3,4.3,0,0,0,3.667-1.691h.078v1.379h3.9V-10.3c0-4.708-1.613-6.841-5.956-6.841a8.489,8.489,0,0,0-5.774,2.185ZM63.534-3.773v-8.011c0-2.6-1.248-5.306-4.734-5.306a4.419,4.419,0,0,0-3.875,2.159h-.052v-1.795H50.737V-3.773h4.292V-10.8c0-1.483.78-2.783,2.289-2.783,1.535,0,1.925,1.3,1.925,2.731v7.075Zm24.033,0v-8.011c0-2.445-1.2-5.306-4.708-5.306a4.632,4.632,0,0,0-4.136,2.211,4.08,4.08,0,0,0-3.9-2.211,4.328,4.328,0,0,0-3.875,2.159h-.052v-1.795H66.759V-3.773h4.292V-10.8c0-1.561.78-2.783,2.133-2.783,1.274,0,1.847.936,1.847,2.419v7.387H79.3v-7c0-1.457.7-2.809,2.159-2.809,1.509,0,1.847,1.248,1.847,2.731v7.075Zm10.872-5.2A2.454,2.454,0,0,1,95.76-6.321c-.858,0-1.847-.338-1.847-1.327,0-1.535,2.107-1.769,3.98-1.769h.546Zm-5.67-3.667a4.9,4.9,0,0,1,3.2-1.327c1.326,0,2.341.6,2.341,1.873v.208c-3.771,0-8.323.624-8.323,4.37,0,3.043,2.653,4.058,4.708,4.058a4.3,4.3,0,0,0,3.667-1.691h.078v1.379h3.9V-10.3c0-4.708-1.613-6.841-5.956-6.841a8.489,8.489,0,0,0-5.774,2.185Zm26.608,8.869-5.124-6.789,4.656-6.164H114.1l-2.445,3.459-2.419-3.459h-4.968l4.682,6.164-5.176,6.789h4.942l2.861-3.98,2.783,3.98Z" transform="translate(-10040.509 -344.564)" fill="#080808"/>
  </g>
</svg>